<?xml version="1.0" encoding="utf-8"?>
<!-- Generator: Adobe Illustrator 23.1.0, SVG Export Plug-In . SVG Version: 6.00 Build 0)  -->
<svg version="1.1" xmlns="http://www.w3.org/2000/svg" xmlns:xlink="http://www.w3.org/1999/xlink" x="0px" y="0px"
	 viewBox="0 0 216 216" style="enable-background:new 0 0 216 216;" xml:space="preserve">
<style type="text/css">
	.Arched_x0020_Green{fill:url(#SVGID_1_);stroke:#FFFFFF;stroke-width:0.25;stroke-miterlimit:1;}
	.st0{fill:#BB5F30;}
	.st1{fill:#FFFFFF;}
</style>
<linearGradient id="SVGID_1_" gradientUnits="userSpaceOnUse" x1="0" y1="216" x2="0.7071" y2="215.2929">
	<stop  offset="0" style="stop-color:#20AC4B"/>
	<stop  offset="0.9831" style="stop-color:#19361A"/>
</linearGradient>
<g id="Layer_1">
	
		<ellipse transform="matrix(0.9195 -0.393 0.393 0.9195 -34.2112 51.2245)" class="st0" cx="108" cy="109.17" rx="104.73" ry="104.73"/>
</g>
<g id="Layer_6">
	<g>
		<path class="st1" d="M141.09,68.23c-0.54,3.78,1.61,15.65,1.2,18.49c-0.68,4.72-0.41,9.58-0.95,13.36
			c-0.68,4.72-0.27,8.64,0.94,13.63c1.08,5.94,3.13,24.54,2.39,30.53c-2.95,23.92-17.3,38.47-30.24,42.28
			c-4.58,1.35-18.07,5.43-22.93,5.71c-4.05,1.35-8.77,0.67-13.63,0.94c-7.83,0.8-16.33-0.41-24.56-3.52
			c-2.83-0.41-9.72,0.54-10.12-3.38c0.27-1.89,2.16-1.62,4.05-1.35c1.89,0.27,3.64,1.49,5.67,0.81c9.04-2.56,11.08-15.89,18.77-22.5
			c8.78-7.42,14.7-13.35,27.24-20.43c9.08-5.13,13.64-4.11,20.95-7.24c4.39-1.88,5-7.96,7.43-11.47c3.11-8.23,4.46-17.68,5.68-26.18
			c0.68-4.72-0.4-10.66-0.67-15.52c-1.21-4.99-1.07-12.69-0.39-17.41c1.22-8.5,2.03-14.16,6.08-22.26
			c1.22-1.75,3.84-11.7,6.68-11.29c4.86-0.27,9.52,2.97,5.79,7.37C147.31,42.51,143.24,47.61,141.09,68.23"/>
	</g>
	<g>
		<g>
			<path class="st1" d="M16.04,16.73c0.4,0,2.2-0.79,1.25-0.79C16.89,15.94,15.09,16.73,16.04,16.73L16.04,16.73z"/>
		</g>
	</g>
	<g>
		<path class="st1" d="M144.05,32.64c0.38,0.04,0.38,0.04,0.38,0.04c0.12-1.15-0.55-3.63-0.9-4.41c-1.12-2.48-3.07-3.24-3.07-3.24
			c-0.69-0.84-6.09-1.16-6.09-1.16c0.72,0.46,3.86,1.46,4.6,1.68c1.5,0.45,2.75,1.16,3.4,2.38c0.69,0.84,0.93,1.67,1.2,2.85
			c-0.04,0.38,0.48,1.85,0.36,3c0.8-0.31,0.5-1.11,0.73-3.41c0.12-1.21,1.29-3.93,2.09-4.84c1.45-1.63,3.54-3.17,5.61-3.74
			c-1.41,1-6.09,4.47-6.95,12.53c0.5-1.11,0.62-2.26,1.5-3.33c0.88-1.07,2.19-2.48,3.41-3.13c2.07-1.34,4.06-1.91,6.35-1.67
			c-2.33,0.15-4.79,1.44-6.47,2.82c-1.27,1.03-2.53,2.06-3.49,3.9c-0.46,0.73-1.04,2.6-0.73,3.41c0.42-0.34,0.92-1.45,1.38-2.18
			c0.5-1.11,2.35-2.64,3.57-3.28c1.27-1.03,2.33-1.53,3.94-2.14c0.81-0.31,4.03-0.72,4.76-0.26c-1.31-0.14-3.23,0.41-4.42,0.68
			c-1.22,0.65-2.5,1.24-3.29,1.98c-2.99,2.79-2.66,2.31-2.85,4.22c0.66-2.64,3.92-3.34,6.25-3.49c1.53,0.16,3.06,0.31,4.13,1.19
			c0.34,0.42,1.11,1.41,1.29,1.75c0.65,1.23,0.39,0.75,0.74,1.17c-0.34-0.42-2.51-3.24-6.66-3c-1.53,0.09-5.73,2.57-4.71,1.34
			c0.2-0.24-9.28-1.51-3.14-0.88c-0.26,0.14,5.44,1.59,8.03,5.89c1.27,2.11,1.49,4.24,2.35,6.67c0.04-2.29,0.16-1.08,0.11-1.46
			c-0.3-2.3-0.74-2.6-0.66-3.37c-0.61-1.61-2.2-4.19-3.61-5.49c-1.76-1.73-3.51-1.67-5.72-2.67c-2.6-1.04-5.32-3.92-8.11-3.04
			c-1.57,0.23-3.4,0.72-4.67,1.75c-1.23,0.65-2.19,4.02-2.35,5.55c0.66-2.64,2.14-4.89,4.55-5.81c1.19-0.27,3.84-0.69,4.95-0.19
			c1.11,0.5,1.72,2.11,2.83,2.61c-0.65-1.23-5.25-0.04-6.06,0.26c-1.26,1.03-3.28,2.43-3.54,5.8c2.67-4.68,3.59-5.34,8.49-6.57
			c1.35-0.34,1.99-0.57,3.14-0.45c1.11,0.5,1.8,1.34,2.95,1.46c-0.38-0.04-0.34-0.42-0.73-0.46"/>
	</g>
	<g>
		<path class="st0" d="M103.26,148.89c-1.65,0.19-3.18,1.48-3.54,3.2c1.16,0.42,4.83-1.67,4.7-2.77"/>
	</g>
	<g>
		<path class="st0" d="M90.47,151.81c-0.98,1.23-2.69,0.87-2.5,2.52c1.65-0.19,2.63-1.42,3.6-2.65l0.06,0.55"/>
	</g>
	<g>
		<path class="st0" d="M97.42,168.65c-1.23-0.98-1.72-0.36-2.14,0.8c-2.44,3.07,2.94,1.34,2.69-0.87c0,0,0,0,0.06,0.55"/>
	</g>
	<g>
		<path class="st0" d="M79.09,166.85c-0.98,1.23-4.45,4.98-2.12,5.83c1.72,0.36,3.05-2.58,3.48-3.75
			C81.36,167.14,80.32,167.82,79.09,166.85"/>
	</g>
	<g>
		<path class="st0" d="M88.75,180.64c-1.65,0.19-2.33-0.85-3.86,0.44c-2.99,3.14,5.15,1.08,4.41-0.51L88.75,180.64"/>
	</g>
	<g>
		<path class="st0" d="M113.96,144.05c0.06,0.55,0.06,0.55,0.06,0.55c-0.55,0.06-1.53,1.29-1.46,1.84c1.1-0.13,5.38-1.73,3.05-2.58
			c0.55-0.06,0.49-0.62,0.49-0.62"/>
	</g>
	<g>
		<path class="st0" d="M112.08,157.58c-0.49,0.61-0.49,0.61-0.98,1.23c1.1-0.13,3.18-1.48,2.44-3.07c-1.72-0.36-2.63,1.42-2.44,3.07
			l-0.06-0.55"/>
	</g>
	<g>
		<path class="st0" d="M126.57,150.23l-0.55,0.06c-0.49,0.62-1.53,1.29-1.4,2.39c0.13,1.1,1.17,0.42,1.59-0.74
			c-0.06-0.55-0.13-1.1,0.42-1.17"/>
	</g>
	<g>
		<path class="st0" d="M65.34,185.73c0.61,0.49,2.33,0.85,2.88,0.79c2.14-0.8-1.61-4.28-3.01-1.89c-0.55,0.06-0.61-0.49-0.61-0.49"
			/>
	</g>
	<g>
		<path class="st0" d="M125.79,128.9c-0.55,0.06-0.55,0.06-0.55,0.06l0,0l0,0c0.55-0.06,1.65-0.19,2.82,0.23
			c1.72,0.36,7.08,3.37,8.8,3.73c-0.19-1.65-5.77-4.08-6.94-4.51c-1.17-0.42-3.58,0.41-4.68,0.54L125.79,128.9"/>
	</g>
	<g>
		<path class="st0" d="M128.27,123.8c1.1-0.13,2.2-0.25,2.75-0.32c1.1-0.13,7.56,2.67,8.71,2.91
			C138.48,125.14,129.55,120.3,128.27,123.8C128.27,123.8,128.34,124.35,128.27,123.8"/>
	</g>
	<g>
		<path class="st0" d="M127.4,117.44c3.28-0.56,5.19-0.92,8.11-0.29c2.28,0.17,5.02,1.43,5.4,3.61c-2.08-2.25-11.54-3.33-11.54-3.33
			"/>
	</g>
	<g>
		<path class="st0" d="M129.5,113.77c1.63-0.34,6.51-1.38,7.83-0.52c1.2,0.31,2.4,0.63,3.71,1.48"/>
	</g>
	<g>
		<path class="st0" d="M132.16,106.6c1.65-0.19,5.74-0.81,7.45-0.45c0,0,0,0,1.52,0.97"/>
	</g>
	<g>
		<path class="st0" d="M132.57,100.42c1.49-0.8,2.32-1.52,3.98-1.71c1.1-0.13,2.57,0.4,4.29,0.76
			C140.83,99.47,131.96,100.05,132.57,100.42"/>
	</g>
	<g>
		<path class="st0" d="M132.76,93.89c1.06-0.3,2.47-0.53,4.11-0.6c1.22-0.06,4.27-0.07,5.1,0.84"/>
	</g>
	<g>
		<path class="st0" d="M132.12,88.1c0.54-0.12,6.68,1.93,9.38,1.33l-0.66-0.42"/>
	</g>
	<g>
		<path class="st0" d="M132.57,85.75c0.66,0.28,1.38,0.72,2.6,0.93c0.69,0.37,5.9-0.46,7.19-0.93"/>
	</g>
	<g>
		<path class="st0" d="M131.51,81.56c-0.55,0.06-0.55,0.06-0.55,0.06l0,0l0,0c1.1-0.13,2.38,1.08,3.75,1.15
			c2.54,0.13,3.67,0.23,5.87-0.02l0,0c0,0-7.93-1.32-8.48-1.26"/>
	</g>
	<g>
		<path class="st0" d="M131.49,76.35C132.04,76.29,131.49,76.35,131.49,76.35c0.68,1.04,2.78,0.74,4.54,0.78
			c1.49,0.03,4.46-0.05,5.51-0.63c-0.55,0.06-0.55,0.06-1.1,0.13"/>
	</g>
	<g>
		<path class="st0" d="M130.5,72.74c2.24,0.9,4.6,1.15,6.25,0.96c1.65-0.19,1.51,0.26,4.96-0.57"/>
	</g>
	<g>
		<path class="st0" d="M131.6,67.04c1.58,1.49,2.76,0.91,4.75,1.8c0.99,0.44,3.14,1.34,4.92,0.44"/>
	</g>
	<g>
		<path class="st0" d="M131.57,62.02c1.56,1.5,2.31,1.97,4.5,2.83c1.6,0.63,3.92,1.78,5.16,0.52c0,0,0,0-0.52-0.5"/>
	</g>
	<g>
		<path class="st0" d="M133.01,58.28c0.99,1.74,5.96,2.25,8.71,2.57"/>
	</g>
	<g>
		<path class="st0" d="M133.96,54.21c1.09,1.83,0.67,0.97,1.9,1.94c1.23,0.98,4.57,2.26,6.78,2.03
			C142.63,58.18,136.32,56.17,133.96,54.21"/>
	</g>
	<g>
		<path class="st0" d="M135.2,49.32c0.25,2.2,1.83,2.13,4.74,3.36c0.39,0.16,3.64,0.7,3.25,0.74"/>
	</g>
	<g>
		<path class="st0" d="M134.82,47.13c3.51,1.39,5.88,2.55,10.32,2.39"/>
	</g>
	<g>
		<path class="st0" d="M137.75,42.33c1.68,2.69,6.88,4.88,8.98,4.09c0,0-1.43-0.49,0,0"/>
	</g>
	<g>
		<path class="st0" d="M138.89,38.85c2.91,2.96,4.42,4.39,9.25,4.42c-0.51,0.06-3.83-1.26-4.27-1.34"/>
	</g>
	<g>
		<path class="st0" d="M141.21,35.89c1.16,1.55,3.94,4.04,8.48,4.63"/>
	</g>
	<g>
		<path class="st0" d="M143.21,35.14c1.16,0.42,2.46,1.95,3.62,2.38c1.16,0.42,2.27,0.3,3.37,0.17
			C150.2,37.69,143.9,35.51,143.21,35.14"/>
	</g>
</g>
</svg>
