<?xml version="1.0" encoding="utf-8"?>
<!-- Generator: Adobe Illustrator 23.1.0, SVG Export Plug-In . SVG Version: 6.00 Build 0)  -->
<svg version="1.1" xmlns="http://www.w3.org/2000/svg" xmlns:xlink="http://www.w3.org/1999/xlink" x="0px" y="0px"
	 viewBox="0 0 216 216" style="enable-background:new 0 0 216 216;" xml:space="preserve">
<style type="text/css">
	.Arched_x0020_Green{fill:url(#SVGID_1_);stroke:#FFFFFF;stroke-width:0.25;stroke-miterlimit:1;}
	.st0{fill:#BB5F30;}
	.st1{fill:#FFFFFF;}
	.st2{opacity:0.42;}
</style>
<linearGradient id="SVGID_1_" gradientUnits="userSpaceOnUse" x1="0" y1="216" x2="0.7071" y2="215.2929">
	<stop  offset="0" style="stop-color:#20AC4B"/>
	<stop  offset="0.9831" style="stop-color:#19361A"/>
</linearGradient>
<g id="Layer_1">
	
		<ellipse transform="matrix(0.7071 -0.7071 0.7071 0.7071 -45.0612 107.0809)" class="st0" cx="106.73" cy="107.93" rx="104.73" ry="104.73"/>
</g>
<g id="Layer_3">
	<g>
		<path class="st1" d="M128.41,37.54c-3.97-7.94-0.98-11.05-17.44-4.04c-3.52,1.5-4.49,7.66-5.52,11.67c-1.04,4.03,2,9,0.25,12.75
			c-1.75,3.25-3.25,6.75-4.75,10.25c-1.5,3.25-3.25,6.5-4.5,9.75s-2.5,6.25-3.75,9.25c-1.5,3-2.75,6.25-3.75,9.5
			c-2.25,5.75-4.25,11.75-5.5,18c-1.5,6-2.75,12.25-3.75,18.5c-1,6-1.75,12-2.75,17.75c-0.75,5-1.75,9.75-2.5,14.75
			c-0.25,2-0.5,4-0.75,6c-0.25,1.75-0.5,3.5-0.75,5.25c-0.25,1.25-0.5,2.25-0.5,3.25c0,0.75-0.5,3.25,0.25,3.75c1,0.75,3-2.5,3.25-3
			c1-1.5,2-2.75,3-4s1.75-2.75,2.75-4.25c1-1.75,15-31.75,17.5-38.25c1.5-3.25,2.75-6.75,3.75-10.25c1.25-3.75,2.25-7.5,3.5-11.25
			c0.5-1.75,1-3.5,1.5-5.25c0.75-2,1.5-3.75,1.75-5.5c1-4.25,2-8.5,3.25-12.75c1-4.25,1.75-8.75,2.5-13s1.5-8.5,2.25-12.5
			c1.25-6,3.24-6.9,7.8-10.92C127.49,51.25,131.25,42,128.41,37.54"/>
	</g>
	<g class="st2">
		<path class="st1" d="M103.67,105.33c0.26-0.01,1.14-2.5,1.14-2.5l0,0l0,0c0.26-0.01,0.53-0.02,0.8,0.22
			C106.43,104.03,102.2,105.59,103.67,105.33c5.48-0.95,10.58,4.33,10.33,10.33c-0.13,3.33-3.16,12.2-3.38,13.47
			c-0.43,2.78-1.01,8.18-1.83,11.02c-2.06,7.17-7.46,13.6-9.21,16.43c-2.27,3.1-3.73,6.67-5.72,10.26c-0.5,0.77-9.15,9.15-9.45,9.9
			c-1.08,2.72-1.53,8.68-1.77,9.2c0.03,0.75,1.17,3.54-1.32,8.02c-0.89,1.61-7.04,3.52-8.65,3.52c-9.67,0-14.36-7.04-14.13-10.75
			c0.11-1.77,1.54-5.11,2.02-6.38c0.5-0.77,4.32-3.28,4.84-3.55c0.5-0.77,4.29-8.71,4.27-9.46c0.21-1.52-1.61-8.49-1.33-10
			c2.15-11.74,1.47-18.29,1.63-21.31c0.14-3.53,2.81-7.75,2.32-11.02c-2.34-15.54,7.2-21.96,7.96-22.99
			c1.26-1.81,6.4-0.98,9.91-0.41c1.29,0.21,1.61-0.56,3.2-0.62c1.59-0.06,3.21,0.89,4.83,1.59c3.78,1.88,4.18,5.88,3.53,9.68
			c-0.26,0.01-0.54-0.23-0.8-0.22"/>
	</g>
	<g>
		<path class="st1" d="M109.25,36.75c0,0.25,0.25,0.25,0.25,0.25v-0.25c-0.5,0-1.5-0.5-2-0.75c-1.75-0.5-3-1.25-4.25-3
			c-1-2-1.5-4-1.25-6.25c0-1.5,1.25-3.75,2.75-4.5c-0.62,1.62-1.75,2.25-1.75,3.25c0,1.5,0.54,5.19,1.38,6.25
			c1.15,1.46,3.12,2.75,3.88,3c0.25,0,1.25,0.5,1.75,0.25c-0.25-0.75-0.75-1.25-1.25-1.75c-0.5-0.75-1-1.5-1.25-2.5
			c-0.5-1-0.75-2.25-0.75-3.5s0-2.5,0.25-3.5s1-2.75,2.25-3.25c-0.25,0.5-0.5,1-0.75,1.75c0,0.75-1.77,8.23,3,10.62
			c0.81,0.4,1.25,0.12,2,0.62c0.5,0.5,1.25,1,1.75,1.5c-2.5-2-4.25-5-4.25-8.25c0-1.25,0-2.25,0.25-3.5c0.25-0.75,0.75-1.25,1-2
			c0.25-0.25,0.75-1,1.25-1c-0.75,1.25-0.54,1.28-0.75,2c-1,3.5,0,6.25,0.75,7.75c0.5,1.25,1.25,2.25,2,3.25s1.75,2,3,2.5
			s3,0.75,4.5,1c1.75,0.5,2.38,0,4.12-0.75c4-1.75,7.33-4.25,7.88-9.25c0,1.25-0.04,3.75-0.54,5s-0.21,0.75-1.21,1.75
			c-0.5,0.5-1.09,1.07-1.84,1.57c-0.5,0.25-1.91,1.68-2.41,1.68c-1,0.5-2.25,0.5-3.25,0.5c1.25,0.75,2,0.25,3.25,0.5
			c1.5,0.25,2.75,0.25,4.25,0s2.25-1.25,3.25-2c0.75-0.5,1.25-1,1.75-1.75c0.5-0.5,1-1,1-1.5c0.38,1.38-1.15,3.14-2.25,4
			c-1.47,1.14-2,2-3.25,2.5c-1.25,0.75-2.75,1-4.25,1c-0.75,0-1.25,0-1.75-0.25s-1.25-0.5-1.5-0.5c0,0.5,0.75,1.25,1.25,1.75
			s1,0.5,2,0.75C131,42,132.75,42,134.25,42c1.25,0,2.25-0.5,3.25-1c1-0.75,1.75-1.5,2.75-2.5c-0.5,1.5-0.5,1.5-1.5,2.25
			c-1,1-1.88,1.1-3.02,1.67c-1,0.5-2.98,0.83-4.23,0.83c-0.5,0-1,0-1.5,0c-0.75,0-1.5-0.5-2.25-0.75c-2.5-1.25-5-2.25-7.25-3.5
			c-1-0.75-2.25-1.25-3.25-2c-0.5-0.5-1-1.25-2-1.25h0.25"/>
	</g>
	<g>
		<path class="st1" d="M125.33,38.51c-0.11,0.15-0.26,0.04-0.26,0.04l0.11-0.15c0.29,0.21,1.08,0.35,1.48,0.41
			c1.22,0.45,2.27,0.54,3.78,0.03c1.47-0.77,2.67-1.75,3.54-3.2c0.68-0.9,0.99-2.78,0.47-3.88c-0.38,1.24-0.02,2.1-0.48,2.7
			c-0.68,0.9-2.66,2.88-3.62,3.15c-1.32,0.38-3.03,0.3-3.57,0.13c-0.15-0.11-0.94-0.24-1.11-0.6c0.48-0.34,0.99-0.43,1.5-0.51
			c0.63-0.23,1.25-0.47,1.85-0.96c0.74-0.38,1.45-1.02,2.01-1.77c0.57-0.75,1.13-1.5,1.44-2.2c0.31-0.71,0.68-2.08,0.19-2.92
			c-0.09,0.41-0.17,0.81-0.37,1.37c-0.34,0.45-2.72,5.69-6.52,5.07c-0.64-0.1-0.77-0.46-1.42-0.49c-0.51,0.08-1.16,0.06-1.68,0.14
			c2.33-0.12,4.69-1.16,6.16-3.11c0.57-0.75,1.02-1.35,1.44-2.2c0.19-0.56,0.14-1.07,0.33-1.63c-0.03-0.26,0.02-0.92-0.26-1.14
			c-0.14,1.07-0.27,1-0.48,1.52c-1.02,2.53-2.83,3.74-3.94,4.32c-0.85,0.53-1.73,0.81-2.61,1.08c-0.88,0.27-1.9,0.44-2.84,0.2
			c-0.94-0.24-2.05-0.84-3.01-1.34c-1.22-0.45-1.35-1.02-2.01-2.23c-1.49-2.77-2.25-5.7-0.29-8.93c-0.57,0.75-1.68,2.26-1.96,3.23
			c-0.28,0.96-0.22,0.54-0.11,1.57c0.06,0.52,0.13,1.11,0.33,1.73c0.17,0.37,0.33,1.83,0.61,2.05c0.34,0.73,1.05,1.27,1.62,1.7
			c-1.05-0.09-1.25-0.71-2.08-1.1c-0.97-0.5-1.68-1.03-2.42-1.83c-0.74-0.8-0.72-1.72-0.94-2.6c-0.21-0.62-0.26-1.14-0.2-1.8
			c-0.06-0.52-0.12-1.03,0.11-1.33c-0.84,0.66-0.78,2.37-0.54,3.36c0.32,1.32,0.23,2.06,0.72,2.9c0.37,0.99,1.11,1.78,1.97,2.43
			c0.43,0.32,0.71,0.54,1.11,0.61c0.4,0.06,0.93,0.24,1.08,0.35c-0.23,0.3-0.99,0.42-1.5,0.51c-0.51,0.08-0.8-0.13-1.48-0.41
			c-0.97-0.5-1.96-1.25-2.82-1.9c-0.71-0.54-1.05-1.27-1.4-2c-0.23-0.88-0.31-1.65-0.43-2.68c-0.39,1.11-0.39,1.11-0.16,1.99
			c0.12,1.03,0.57,1.47,0.96,2.3c0.34,0.73,1.32,1.78,2.04,2.32c0.29,0.22,0.57,0.43,0.85,0.65c0.43,0.32,1.08,0.35,1.62,0.52
			c1.99,0.33,3.87,0.81,5.71,1.03c0.91-0.02,1.85,0.22,2.75,0.2c0.51-0.08,1.14-0.32,1.71,0.11l-0.14-0.11"/>
	</g>
</g>
</svg>
