<?xml version="1.0" encoding="utf-8"?>
<!-- Generator: Adobe Illustrator 23.1.0, SVG Export Plug-In . SVG Version: 6.00 Build 0)  -->
<svg version="1.1" xmlns="http://www.w3.org/2000/svg" xmlns:xlink="http://www.w3.org/1999/xlink" x="0px" y="0px"
	 viewBox="0 0 216 216" style="enable-background:new 0 0 216 216;" xml:space="preserve">
<style type="text/css">
	.Arched_x0020_Green{fill:url(#SVGID_1_);stroke:#FFFFFF;stroke-width:0.25;stroke-miterlimit:1;}
	.st0{fill:#BB5F30;}
	.st1{fill:#FFFFFF;}
</style>
<linearGradient id="SVGID_1_" gradientUnits="userSpaceOnUse" x1="0" y1="216" x2="0.7071" y2="215.2929">
	<stop  offset="0" style="stop-color:#20AC4B"/>
	<stop  offset="0.9831" style="stop-color:#19361A"/>
</linearGradient>
<g id="Layer_1">
	
		<ellipse transform="matrix(0.7071 -0.7071 0.7071 0.7071 -45.0612 107.0809)" class="st0" cx="106.73" cy="107.93" rx="104.73" ry="104.73"/>
</g>
<g id="Layer_10">
	<g id="Layer_7">
	</g>
	<g id="Layer_8">
		<g>
			<path class="st1" d="M99.25,105.31c0.3,0.14,0.3,0.14,0.3,0.14c0.14-0.3-6.91,1.35-6.76,1.05c0.58-0.46,4.26-5.68,7.91-3.32
				c0.56,0.36,2.31-2.74,3.05-2.76c0.89-0.32,1.65,0.41,2.4,0.39c0.6,0.28,1.47-0.78,2.06-1.25c1.03-0.62,1.75-1.39,3.1-1.12
				c0.3,0.14,0.91,0.42,1.21,0.57c0.91,0.42,1.19-0.18,1.77-0.64c0.28-0.6,1.31-1.23,2.06-1.25c1.33-0.48,1.79,0.1,2.56,0.83
				c1.67,1.15,2.94-1.57,4.43-1.6c1.05,0.12,1.23,1.31,1.97,1.29c1.05,0.12,2.22-0.8,2.8-1.26c0.89-0.32,1.49-0.04,2.4,0.39
				c0.76,0.73,0,0,2.25,0.69c0.9,0.28,2.96-0.82,4.03,0.05c0.3,0.14,0.46,0.58,0.62,1.03c-0.12,1.05-0.71,1.51-1.45,1.53
				c-2.08,0.5-4.15,1-6.08,1.2c-4.61,0.42-9.21,1.58-13.52,2.13c-2.38,0.36-4.31,0.56-6.24,0.76c-1.33,0.48-2.52,0.66-3.4,0.98
				c-1.33,0.48-2.2,1.55-3.24,1.42c-0.74,0.02-3.44-0.51-3.46-1.25"/>
		</g>
		<g>
			<g>
				<g>
					<g>
						<g>
							<path class="st1" d="M61.53,93.89L61.53,93.89L61.53,93.89z"/>
							<polygon class="st1" points="61.53,93.89 61.53,93.89 61.53,93.89 							"/>
							<polygon class="st1" points="61.53,93.89 61.53,93.89 61.53,93.89 61.53,93.89 							"/>
							<polygon class="st1" points="61.53,93.89 61.53,93.89 61.53,93.89 							"/>
							<path class="st1" d="M61.53,93.89L61.53,93.89L61.53,93.89z"/>
							<polygon class="st1" points="61.53,93.89 61.53,93.89 61.53,93.89 							"/>
							<path class="st1" d="M61.53,93.89L61.53,93.89L61.53,93.89z"/>
							<polygon class="st1" points="61.53,93.89 61.53,93.89 61.53,93.89 							"/>
							<path class="st1" d="M61.53,93.89L61.53,93.89L61.53,93.89z"/>
							<polygon class="st1" points="61.53,93.89 61.53,93.89 61.53,93.89 							"/>
							<polygon class="st1" points="61.53,93.89 61.53,93.89 61.53,93.89 							"/>
							<path class="st1" d="M61.53,93.89L61.53,93.89L61.53,93.89z"/>
							<polygon class="st1" points="61.53,93.89 61.53,93.89 61.53,93.89 							"/>
							<polygon class="st1" points="61.53,93.89 61.53,93.89 61.53,93.89 							"/>
							<polygon class="st1" points="61.53,93.89 61.53,93.89 61.53,93.89 							"/>
							<path class="st1" d="M61.53,93.89L61.53,93.89L61.53,93.89z"/>
							<polygon class="st1" points="61.53,93.89 61.53,93.89 61.53,93.89 							"/>
							<polygon class="st1" points="61.53,93.89 61.53,93.89 61.53,93.89 							"/>
							<path class="st1" d="M61.53,93.89L61.53,93.89L61.53,93.89z"/>
							<path class="st1" d="M61.53,93.89L61.53,93.89L61.53,93.89z"/>
							<polygon class="st1" points="61.53,93.89 61.53,93.89 61.53,93.89 							"/>
							<polygon class="st1" points="61.53,93.89 61.53,93.89 61.53,93.89 							"/>
							<polygon class="st1" points="61.53,93.89 61.53,93.89 61.53,93.89 							"/>
							<path class="st1" d="M61.53,93.89L61.53,93.89L61.53,93.89z"/>
							<polygon class="st1" points="61.53,93.89 61.53,93.89 61.53,93.89 							"/>
							<polygon class="st1" points="61.53,93.89 61.53,93.89 61.53,93.89 							"/>
							<path class="st1" d="M61.53,93.89L61.53,93.89L61.53,93.89z"/>
							<path class="st1" d="M61.53,93.89L61.53,93.89L61.53,93.89z"/>
							<polygon class="st1" points="61.53,93.89 61.53,93.89 61.53,93.89 							"/>
							<polygon class="st1" points="61.53,93.89 61.53,93.89 61.53,93.89 61.53,93.89 61.53,93.89 61.53,93.89 61.53,93.89 
								61.53,93.89 							"/>
							<polygon class="st1" points="61.53,93.89 61.53,93.89 61.53,93.89 61.53,93.89 61.53,93.89 							"/>
							<polygon class="st1" points="61.53,93.89 61.53,93.89 61.53,93.89 61.53,93.89 61.53,93.89 61.53,93.89 61.53,93.89 
								61.53,93.89 61.53,93.89 61.53,93.89 61.53,93.89 61.53,93.89 61.53,93.89 61.53,93.89 61.53,93.89 61.53,93.89 							"/>
							<path class="st1" d="M61.53,93.89L61.53,93.89L61.53,93.89z"/>
							<polygon class="st1" points="61.53,93.89 61.53,93.89 61.53,93.89 61.53,93.89 61.53,93.89 61.53,93.89 							"/>
							<polygon class="st1" points="61.53,93.89 61.53,93.89 61.53,93.89 61.53,93.89 							"/>
							<polygon class="st1" points="61.53,93.89 61.53,93.89 61.53,93.89 							"/>
							<polygon class="st1" points="61.53,93.89 61.53,93.89 61.53,93.89 							"/>
							<path class="st1" d="M61.53,93.89L61.53,93.89L61.53,93.89z"/>
							<path class="st1" d="M61.53,93.89L61.53,93.89L61.53,93.89z"/>
							<polygon class="st1" points="61.53,93.89 61.53,93.89 61.53,93.89 							"/>
							<polygon class="st1" points="61.53,93.89 61.53,93.89 61.53,93.89 							"/>
							<path class="st1" d="M61.53,93.89L61.53,93.89L61.53,93.89z"/>
							<path class="st1" d="M61.53,93.89L61.53,93.89L61.53,93.89z"/>
							<path class="st1" d="M61.53,93.89L61.53,93.89L61.53,93.89z"/>
							<path class="st1" d="M61.53,93.89L61.53,93.89L61.53,93.89z"/>
							<polygon class="st1" points="61.53,93.89 61.53,93.89 61.53,93.89 							"/>
							<path class="st1" d="M61.53,93.89L61.53,93.89L61.53,93.89z"/>
							<path class="st1" d="M61.53,93.89L61.53,93.89L61.53,93.89z"/>
							<path class="st1" d="M61.53,93.89L61.53,93.89L61.53,93.89z"/>
							<path class="st1" d="M61.53,93.89L61.53,93.89L61.53,93.89z"/>
							<path class="st1" d="M61.53,93.89L61.53,93.89L61.53,93.89z"/>
							<path class="st1" d="M61.53,93.89L61.53,93.89L61.53,93.89z"/>
							<path class="st1" d="M61.53,93.89L61.53,93.89L61.53,93.89z"/>
							<polygon class="st1" points="61.53,93.89 61.53,93.89 61.53,93.89 							"/>
							<path class="st1" d="M61.53,93.89L61.53,93.89L61.53,93.89z"/>
							<polygon class="st1" points="61.53,93.89 61.53,93.89 61.53,93.89 							"/>
							<polygon class="st1" points="61.53,93.89 61.53,93.89 61.53,93.89 							"/>
							<path class="st1" d="M61.53,93.89L61.53,93.89L61.53,93.89L61.53,93.89L61.53,93.89L61.53,93.89L61.53,93.89L61.53,93.89
								L61.53,93.89L61.53,93.89L61.53,93.89L61.53,93.89L61.53,93.89L61.53,93.89L61.53,93.89L61.53,93.89L61.53,93.89L61.53,93.89
								L61.53,93.89L61.53,93.89L61.53,93.89L61.53,93.89L61.53,93.89L61.53,93.89L61.53,93.89L61.53,93.89L61.53,93.89L61.53,93.89
								L61.53,93.89L61.53,93.89L61.53,93.89L61.53,93.89L61.53,93.89L61.53,93.89L61.53,93.89L61.53,93.89L61.53,93.89L61.53,93.89
								L61.53,93.89L61.53,93.89L61.53,93.89L61.53,93.89L61.53,93.89L61.53,93.89L61.53,93.89L61.53,93.89L61.53,93.89L61.53,93.89
								L61.53,93.89L61.53,93.89L61.53,93.89L61.53,93.89L61.53,93.89L61.53,93.89L61.53,93.89L61.53,93.89L61.53,93.89L61.53,93.89
								L61.53,93.89L61.53,93.89L61.53,93.89L61.53,93.89L61.53,93.89L61.53,93.89L61.53,93.89L61.53,93.89L61.53,93.89L61.53,93.89
								L61.53,93.89L61.53,93.89L61.53,93.89L61.53,93.89L61.53,93.89L61.53,93.89L61.53,93.89L61.53,93.89L61.53,93.89L61.53,93.89
								L61.53,93.89L61.53,93.89L61.53,93.89L61.53,93.89L61.53,93.89L61.53,93.89L61.53,93.89L61.53,93.89L61.53,93.89L61.53,93.89
								L61.53,93.89L61.53,93.89L61.53,93.89L61.53,93.89L61.53,93.89L61.53,93.89L61.53,93.89L61.53,93.89L61.53,93.89L61.53,93.89
								L61.53,93.89L61.53,93.89L61.53,93.89L61.53,93.89L61.53,93.89L61.53,93.89L61.53,93.89L61.53,93.89L61.53,93.89L61.53,93.89
								L61.53,93.89L61.53,93.89L61.53,93.89L61.53,93.89L61.53,93.89L61.53,93.89L61.53,93.89L61.53,93.89L61.53,93.89L61.53,93.89
								L61.53,93.89L61.53,93.89L61.53,93.89L61.53,93.89L61.53,93.89L61.53,93.89L61.53,93.89L61.53,93.89L61.53,93.89L61.53,93.89
								L61.53,93.89L61.53,93.89L61.53,93.89L61.53,93.89L61.53,93.89L61.53,93.89L61.53,93.89L61.53,93.89L61.53,93.89L61.53,93.89
								L61.53,93.89L61.53,93.89L61.53,93.89L61.53,93.89L61.53,93.89L61.53,93.89L61.53,93.89L61.53,93.89L61.53,93.89L61.53,93.89
								L61.53,93.89L61.53,93.89L61.53,93.89L61.53,93.89L61.53,93.89L61.53,93.89L61.53,93.89L61.53,93.89L61.53,93.89L61.53,93.89
								L61.53,93.89L61.53,93.89L61.53,93.89L61.53,93.89L61.53,93.89L61.53,93.89L61.53,93.89L61.53,93.89L61.53,93.89L61.53,93.89
								L61.53,93.89L61.53,93.89L61.53,93.89L61.53,93.89L61.53,93.89L61.53,93.89L61.53,93.89L61.53,93.89L61.53,93.89L61.53,93.89
								L61.53,93.89L61.53,93.89L61.53,93.89L61.53,93.89L61.53,93.89L61.53,93.89L61.53,93.89L61.53,93.89L61.53,93.89L61.53,93.89
								L61.53,93.89L61.53,93.89L61.53,93.89L61.53,93.89L61.53,93.89L61.53,93.89L61.53,93.89L61.53,93.89L61.53,93.89L61.53,93.89
								L61.53,93.89L61.53,93.89L61.53,93.89L61.53,93.89L61.53,93.89L61.53,93.89L61.53,93.89L61.53,93.89L61.53,93.89L61.53,93.89
								L61.53,93.89L61.53,93.89L61.53,93.89L61.53,93.89L61.53,93.89L61.53,93.89L61.53,93.89L61.53,93.89L61.53,93.89L61.53,93.89
								L61.53,93.89L61.53,93.89L61.53,93.89L61.53,93.89L61.53,93.89L61.53,93.89L61.53,93.89L61.53,93.89L61.53,93.89L61.53,93.89
								L61.53,93.89L61.53,93.89L61.53,93.89L61.53,93.89L61.53,93.89L61.53,93.89L61.53,93.89L61.53,93.89L61.53,93.89L61.53,93.89
								L61.53,93.89L61.53,93.89L61.53,93.89L61.53,93.89L61.53,93.89L61.53,93.89L61.53,93.89L61.53,93.89L61.53,93.89L61.53,93.89
								L61.53,93.89L61.53,93.89L61.53,93.89L61.53,93.89L61.53,93.89L61.53,93.89L61.53,93.89L61.53,93.89L61.53,93.89L61.53,93.89
								L61.53,93.89L61.53,93.89L61.53,93.89L61.53,93.89L61.53,93.89L61.53,93.89L61.53,93.89L61.53,93.89L61.53,93.89L61.53,93.89
								L61.53,93.89L61.53,93.89L61.53,93.89L61.53,93.89L61.53,93.89L61.53,93.89L61.53,93.89L61.53,93.89L61.53,93.89L61.53,93.89
								L61.53,93.89L61.53,93.89L61.53,93.89L61.53,93.89L61.53,93.89L61.53,93.89L61.53,93.89L61.53,93.89L61.53,93.89L61.53,93.89
								L61.53,93.89L61.53,93.89L61.53,93.89L61.53,93.89L61.53,93.89L61.53,93.89L61.53,93.89L61.53,93.89L61.53,93.89L61.53,93.89
								L61.53,93.89L61.53,93.89L61.53,93.89L61.53,93.89L61.53,93.89L61.53,93.89L61.53,93.89L61.53,93.89L61.53,93.89L61.53,93.89
								L61.53,93.89L61.53,93.89L61.53,93.89L61.53,93.89L61.53,93.89L61.53,93.89L61.53,93.89L61.53,93.89L61.53,93.89L61.53,93.89
								L61.53,93.89L61.53,93.89L61.53,93.89L61.53,93.89L61.53,93.89L61.53,93.89z M61.53,93.89L61.53,93.89L61.53,93.89z
								 M61.53,93.89L61.53,93.89L61.53,93.89z M61.53,93.89L61.53,93.89L61.53,93.89z M61.53,93.89L61.53,93.89L61.53,93.89
								L61.53,93.89z M61.53,93.89L61.53,93.89L61.53,93.89z"/>
							<path class="st1" d="M61.53,93.89L61.53,93.89L61.53,93.89z"/>
							<polygon class="st1" points="61.53,93.89 61.53,93.89 61.53,93.89 							"/>
							<path class="st1" d="M61.53,93.89L61.53,93.89L61.53,93.89z"/>
							<polygon class="st1" points="61.53,93.89 61.53,93.89 61.53,93.89 							"/>
							<polygon class="st1" points="61.53,93.89 61.53,93.89 61.53,93.89 							"/>
							<polygon class="st1" points="61.53,93.89 61.53,93.89 61.53,93.89 							"/>
							<path class="st1" d="M61.53,93.89L61.53,93.89L61.53,93.89z"/>
							<path class="st1" d="M61.53,93.89L61.53,93.89L61.53,93.89z"/>
							<polygon class="st1" points="61.53,93.89 61.53,93.89 61.53,93.89 							"/>
							<polygon class="st1" points="61.53,93.89 61.53,93.89 61.53,93.89 							"/>
							<path class="st1" d="M61.53,93.89L61.53,93.89L61.53,93.89z"/>
							<polygon class="st1" points="61.53,93.89 61.53,93.89 61.53,93.89 							"/>
							<polygon class="st1" points="61.53,93.89 61.53,93.89 61.53,93.89 							"/>
							<polygon class="st1" points="61.53,93.89 61.53,93.89 61.53,93.89 							"/>
							<path class="st1" d="M61.53,93.89L61.53,93.89L61.53,93.89z"/>
							<polygon class="st1" points="61.53,93.89 61.53,93.89 61.53,93.89 							"/>
							<polygon class="st1" points="61.53,93.89 61.53,93.89 61.53,93.89 							"/>
							<path class="st1" d="M61.53,93.89L61.53,93.89L61.53,93.89z"/>
							<polygon class="st1" points="61.53,93.89 61.53,93.89 61.53,93.89 							"/>
							<polygon class="st1" points="61.53,93.89 61.53,93.89 61.53,93.89 							"/>
							<polygon class="st1" points="61.53,93.89 61.53,93.89 61.53,93.89 							"/>
							<polygon class="st1" points="61.53,93.89 61.53,93.89 61.53,93.89 							"/>
							<path class="st1" d="M61.53,93.89L61.53,93.89L61.53,93.89z"/>
						</g>
					</g>
				</g>
			</g>
		</g>
		<g>
			<g>
				<path class="st1" d="M136.6,16.72c1.26,1.31,1.25,4.37,2.24,7.94c0.91,3.31,2.65,5.21,1.7,6.3c-1.36,1.56,0.31,20.94-6.1,30.84
					c-2.38,3.68-9.36,9.18-16.42,12.22c-2.21,0.95-13.53,4.04-16.33,4.61c-9.04,1.85-16.59,2.06-22.1,4.14
					c-10.54,3.97-22.6,12.27-27.67,26.57c-3.12,8.81-3.23,15.29-3.82,20.64c-0.31,6.26,7.21,21.57,9.07,24.45
					c2,3.33,8.92,11.74,18.17,18.36c4.07,2.92,8.24,4.39,12.83,5.7c10.22,2.8,20.41,0.67,29.76-3.41
					c8.9-3.95,16.21-9.87,22.36-17.17c4.31-5.26,8.19-11.12,9.99-17.34c1.17-5.04,1.6-10.1-0.07-14.76
					c-1.1-3.61-2.79-7.53-5.24-10.72c-2.16-3.04-5.83-5.37-9.51-6.95c-3.69-1.59-8.02-1.25-12.04-1.5
					c-1.78-0.19-3.97-1.03-6.06-0.64c-2.1,0.39-11.51,2-14.15,3.85c-1.16,0.81-4.83,0.88-6.49,0.89c-7.01,0.04-6.58,0.37-7.66-1.59
					c-1.63-2.96,14.73-7.36,10.2-5.24c-3.34,1.56,20.79-10.58,42.21-3.52c7.58,2.5,12.14,12.15,14.39,14.94
					c4.95,6.13,7.34,20.06,7.14,21.84c-0.1,3.73-1.89,13.39-2.83,15.16c-0.78,1.47-4.51,10.05-6.6,13.98
					c-3.05,5.74-17.86,18.23-22.13,20.53c-7.12,4.14-15.73,6.44-23.56,7.83c-7.19,1.27-20.29,1.94-32.36-3.05
					c-13.63-5.63-23.22-14.37-28.32-20.58c-13.53-16.48-18.95-41.72-16.07-52.26c1.14-4.18,0.63-10.24,6.16-20.61
					C42.1,89.12,51.8,78.23,55.5,75.88c9.72-6.19,17.04-9.17,23.33-10.35c5.84-1.04,11.55-1.31,17.53-1.9
					c4.2-0.79,12.97,0.11,22.69-8.03c7.88-6.6,6-13.04,6.27-17.81c0.06-2.24-0.49-4.04-0.89-6.14c-0.96-3.16-1.03-8.19-0.85-10.29
					c0.23-2.66,1.42-3.57,6.07-7.32c1.32-1.07,5.21,0.25,6.37,1.62C136.6,16.72,136.03,15.67,136.6,16.72
					c0.73,0.76,1.51,4.37,1.63,5.56c0.28,0.9,0.37,9.73,0.92,11.54l-5.17,3.09"/>
			</g>
			<g>
				<path class="st1" d="M124.11,30.65c0.69,0.88-0.1,1.23-0.53,2.13c-0.3,1.24,2.86,1.82-0.62,5.05c-0.92,0.85,0.39,2.12,1.08,2.99
					c0.35,0.44,0.69,0.88,0.48,1.33c-0.42,0.91-1.21,0.81-1.87,1.05c-0.56,0.01-1.33,0.48-1.54,0.93c0.01,0.56,0.59,1.1,1.27,1.42
					c0.69,0.88,1.05,1.87,0.98,3.22c-0.41,1.46-1.78,0.27-2.79,0.07c-1.46-0.41-1.86,1.61-1.61,2.84c0.24,0.67,0.36,1-0.06,1.9
					c-0.21,0.45-0.2,1.01-0.98,0.92c-0.56,0.01-1.03-0.76-1.58-0.74c-0.79-0.09-1.44,0.71-1.65,1.16c-0.54,0.57-0.65,0.8-0.52,1.69
					c0.01,0.56,0.03,1.12-0.18,1.57c-0.64,1.36-2.34,0.28-3.25-0.14c-1.36-0.64-2.58-0.38-3.22,0.98c-0.53,1.13-0.38,2.58-1.95,2.4
					c-1.24-0.3-1.6-1.3-2.5-1.73c-0.68-0.32-1.01-0.2-1.56,0.38c-0.44,0.35-0.65,0.8-0.97,1.48c-0.21,0.45-0.2,1.01-1.09,1.15
					c-0.56,0.01-1.34-0.08-1.8-0.29c-0.91-0.42-2.17-1.85-2.94-1.38c-0.67,0.24-0.86,1.25-1.08,1.71c-0.32,0.68-0.54,0.57-1.33,0.48
					c-0.79-0.09-1.22,0.25-1.8-0.29c-0.57-0.54-0.48-1.33-1.39-1.75c-0.45-0.21-1.13-0.53-1.8-0.29c-0.44,0.35-0.76,1.03-0.97,1.48
					c-0.44,0.35-0.76,1.03-1.2,1.37c-0.67,0.24-1.45,0.15-2.13-0.17c-0.68-0.32-1.61-1.86-2.73-1.83c-0.56,0.01-1.21,0.81-1.54,0.93
					c-0.32,0.68-0.53,1.13-0.74,1.58c-0.21,0.45-0.65,0.8-0.97,1.48c-0.54,0.57-1.62,0.62-2.42-0.03c-0.45-0.21-0.27-0.13-0.95-0.45
					c-0.45-0.21-1.03-0.76-1.71-1.07c-0.45-0.21-1.24-0.3-1.8-0.29c-0.79-0.09-0.88,0.69-1.09,1.15c-0.53,1.13-0.83,2.37-1.59,3.4
					c-0.54,0.57-0.89,0.13-1.57-0.18c-0.56,0.01-1.01-0.2-1.57-0.18c-0.79-0.09-1.24-0.3-2.12,0.39c-0.44,0.35-0.65,0.8-0.97,1.48
					c-0.32,0.68-0.08,1.34,0.16,2.01c0.36,1,0.83,1.77,1.63,2.42c1.37,1.2,3.4,1.59,5.19,1.88c1.9,0.06,4.02-0.33,5.92-0.26
					c2.01-0.16,3.91-0.1,5.8-0.59c2.67-0.4,5.24-0.58,7.92-0.98c2.9-0.3,5.79-1.15,8.79-1.68c1-0.36,1.77-0.83,2.66-0.96
					c1.22-0.25,2.45-0.51,3.67-0.76c2.33-0.84,4.53-2.02,6.63-2.96c1.66-0.6,3.43-1.43,4.75-2.47c1.54-0.93,2.63-2.08,3.6-3.56
					c0.97-1.48,2.17-2.85,3.13-4.33c0.85-1.81,4.13-4.69,4.42-6.49c0.93-3.16,1.85-6.31,2.33-9.68c0.29-1.8-0.33-4.02,0.07-6.04
					c0.2-1.01-2.02-0.4-2.05-1.51c0.11-0.23,1.33-1.86,1.44-2.09"/>
			</g>
			<g>
				<path class="st1" d="M61.11,70.58c0,1.71-1.77,1.1-2.78,0.9c-1.01-0.2-2.87-0.97-3.85-0.05c-0.21,0.45-0.42,0.91-0.41,1.46
					c0.01,0.56,0.47,0.77,0.15,1.45c-0.21,0.45-0.76,1.03-1.42,1.27c-0.66,0.24-1.34-0.08-2.02-0.4c-1.36-0.64-2.24,0.06-2.87,1.42
					c-0.53,1.13,0.95,2.1,0.31,3.46c-0.64,1.36-2.19,1.73-3.43,1.43c-0.79-0.09-1.34-0.08-1.89,0.5c-0.33,0.12-0.54,0.57-0.88,0.69
					c-0.44,0.35-0.54,0.57-0.53,1.13c0.24,0.66,0.92,0.98,1.16,1.65c0.35,0.44,0.03,1.12-0.18,1.57c-0.97,1.48-2.89,0.86-4.1,1.67
					c-0.44,0.35-0.76,1.03-0.97,1.48c-0.32,0.68,0.03,1.12,0.6,1.66c0.48,1.33-0.05,2.46-1.38,2.94c-0.67,0.24-1.45,0.15-2.22,0.62
					c-0.54,0.57-1.09,1.15-0.85,1.81c0.01,0.56,0.92,0.98,1.16,1.65c0.24,0.67,0.25,1.22-0.06,1.9c-0.53,1.13-1.74,1.95-2.62,2.64
					c-0.44,0.35-0.65,0.8-0.97,1.48c-0.09,0.79,0.47,0.77,0.81,1.21c0.92,0.98,0.18,2.57-0.7,3.26c-0.88,0.69-2.43,1.07-2.39,2.74
					c0.03,1.12,1.71,1.08,2.29,2.18c0.01,0.56-0.2,1.01-0.41,1.46c-0.09,0.79-0.41,1.46-0.96,2.04c-0.98,0.92-1.75,1.39-2.28,2.52
					c-0.32,0.68-0.2,1.01,0.38,1.56c0.35,0.44,1.01,0.2,1.58,0.74c0.47,0.77-0.49,2.81-1.26,3.28c-0.77,0.47-1.98,1.28-1.83,2.73
					c0.35,0.44,0.93,1.54,1.39,1.75c0.45,0.21,0.91,0.42,1.36,0.64c1.36,0.64,0.74,2.55,0.31,3.46c-0.53,1.13-1.51,2.05-1.71,3.06
					c-0.41,1.46,1.28,1.98,2.29,2.18c1.24,0.3,2.04,0.96,2.19,2.41c0.01,0.56-0.2,1.01-0.52,1.69c-0.21,0.45-0.3,1.24-0.62,1.92
					c-0.53,1.13-0.71,2.7,0.64,3.34c0.23,0.11,2.93,0.82,3.28,1.26c0.36,1,0.74,0.88,0.77,2c0.01,0.56-1.23,1.93-1.22,2.49
					c0.03,1.12,0.83,1.77,1.4,2.31c0.45,0.21,0.8,0.65,1.25,0.86c0.45,0.21,0.91,0.42,1.25,0.86c0.35,0.44,0.81,1.21,0.83,1.77
					c0.24,0.66-0.42,2.18-0.28,3.07c0.24,0.66,0.82,0.5,1.5,0.82c0.23,0.11,0.91,0.42,1.36,0.64c1.68-0.04,1.97-1.84,2.04-3.18
					c0.18-1.57,0.26-2.91-0.11-4.47c-0.84-2.33-1.79-4.43-2.3-6.88c-0.63-2.78-1.26-5.56-1.56-8.46c-0.19-3.13-0.28-6.48-0.69-9.71
					c-0.43-3.79-0.41-7.37-0.28-11.18c-0.06-2.24-0.11-4.47,0.06-6.6c0.28-2.36,0.78-4.6,1.28-6.85c0.82-2.93,1.64-5.86,2.91-8.57
					c1.38-2.94,2.53-5.99,3.91-8.93c2.23-4.75,4.67-9.96,8.95-13.2c0.65-0.8,1.77-0.83,2.65-1.52c0.54-0.57,1.42-1.27,1.97-1.84
					c0.65-0.8,1.65-1.16,1.51-2.05c0.09-0.79,0.7-2.01,0.02-2.33l0,0"/>
			</g>
			<g>
				<path class="st1" d="M40.4,164.51c2,1.02,2.88,1.18,1.44,3.39c-0.68,1.05-0.24,2.12,0.87,2.69c0.67,0.34,1.11,0.57,1.67,0.57
					c0.67,0.34,1.45,0.46,1.9,0.69c0.56,0,1,0.23,1.34,0.68c0.55,0.56,0.44,1.35,0.65,2.02c0.1,0.9-0.47,3.13,0.53,3.92
					c0.33,0.45,1.23,0.34,1.79,0.35c0.78,0.12,1.45-0.1,2.01-0.1c1.79-0.21,2.46,0.13,2.9,1.48c0.65,2.02,1.41,6.05,4.2,5.51
					c1.23-0.21,2.13-0.32,3.24,0.25c0.67,0.34,0.78,0.68,1.22,1.46c0.22,0.67,0.55,1.12,0.88,1.57c0.66,0.9,1.55,1.91,2.78,1.7
					c0.67-0.22,1.12-0.55,1.68-0.55c0.56,0,1.23,0.35,1.67,0.57c0.45,0.23,1,0.79,1,1.35c0.44,0.79,0.66,0.9,1.33,1.24
					c0.45,0.23,0.78,0.68,1.45,0.46c0.22,0.11,0.67-0.22,1.01-0.33c0.45-0.33,0.79-0.44,1.24-0.77c1.23-0.21,2.01,0.46,3.12,1.03
					c1.11,0.57,1.74,1.76,3.02,3.49c0.66,0.9,1.87,0.68,2.2,0.57c0.56,0,1.46-0.66,1.91-0.99c0.45-0.33,1.13-1.11,1.58-1.44
					c0.67-0.22,2.56,1.03,3.23,1.37c0.33,0.45,0.66,0.9,1.33,1.24c0.45,0.23,0.89,0.45,1.56,0.8c0.67,0.34,0.89,0.45,1.79,0.35
					c0.56-0.55,0.9-0.66,1.24-1.33c0.79-1,2.02-1.21,3.25-0.87c1.79,0.35,5.24,2.39,6.49-0.06c0.23-0.45,0.23-1,0.57-1.67
					c0.45-0.33,1.12-0.55,1.68-0.54c1.57-0.32,2.23,1.14,3.46,1.48c1.34,0.12,3.02,0.14,3.59-0.98c0.23-0.45,0.45-0.89,0.9-1.22
					c0.34-0.67,0.57-1.11,1.13-1.67c1.35-1,2.01,0.46,3.35,0.59c0.56,0,1.45-0.1,1.9-0.43c0.89-0.1,1.57-0.32,2.25-1.1
					c0.45-0.33,1.01-0.89,1.24-1.33c0.34-0.67,0.57-1.11,0.91-1.78c0.9-1.22,3.25-0.87,4.7-0.97c1.23-0.21,2.46-0.43,3.7-1.2
					c0.45-0.33,0.79-1,1.02-1.44c0.34-0.67,0.9-1.22,1.25-1.89c0.45-0.89,1.13-2.23,2.37-2.44c1.01-0.33,2.13-0.88,3.14-1.76
					c0.45-0.33,0.68-0.78,1.02-1.45c0.11-0.22,0.5-1.66,0.63-3.4c0.05-0.75-3.42,2.82-4.09,3.04c-1.57,0.88-3.03,1.54-4.6,2.42
					c-2.8,1.09-5.28,2.64-7.86,3.85c-1.34,0.44-2.47,0.99-3.81,1.42c-1.46,0.66-2.69,1.43-4.04,1.87c-2.35,0.76-4.82,1.19-7.17,1.4
					c-2.69,0.31-5.04,1.64-7.62,1.73c-2.57,0.09-5.48,0.29-8.05-0.18c-2.9-0.36-5.7,0.18-8.61-0.18c-3.58-0.14-7.04,0.06-10.62-0.64
					c-1.9-0.13-3.57-0.7-5.36-1.05c-1.67-0.57-3.23-0.81-4.91-1.38c-2.68-0.8-5.46-2.5-7.68-4.2c-1-0.79-2.11-1.92-3.11-2.71
					c-1.22-0.9-2.11-1.92-3.1-3.27c-0.89-1.01-2.22-1.7-3.22-2.49c-1-0.79-1.89-1.8-2.89-2.6c-1.44-1.58-2.88-3.15-3.99-4.84
					c-0.66-0.9-1.21-2.02-1.88-2.92c-0.56-0.56-3.17-2.18-3.74-1.07"/>
			</g>
			<g>
				<path class="st1" d="M133.24,98.97c0.45,0.21,1.01,0.2,1.34,0.08c1.45-0.15,2.9-0.3,4.12-0.55c0.67-0.24,1.22-0.25,1.8,0.29
					c0.23,0.11,0.24,0.66,0.69,0.88c1.25,0.86,2.57-0.18,3.7,0.35c1.36,0.64,2.28,1.62,2.43,3.07c0.01,0.56,0.35,0.44,1.03,0.76
					c0.68,0.32,1.03,0.76,1.71,1.08c0.45,0.21,0.91,0.42,1.25,0.86c0.35,0.44,0.59,1.1,0.5,1.89c-0.09,0.79,0.13,0.89,0.81,1.21
					c0.68,0.32,1.03,0.76,1.7,1.08c1.13,0.53,2.17,1.85,2.09,3.19c-0.21,0.45-0.32,0.68-0.08,1.34c0.24,0.66,1.25,0.86,1.83,1.41
					c1.13,0.53,2.26,1.06,2.31,2.74c0.03,1.12-0.83,2.37,0.31,3.46c1.03,0.76,2.16,1.29,2.64,2.62c0.71,1.44-0.73,2.14-0.81,3.49
					c0.01,0.56,0.25,1.22,0.6,1.66c0.35,0.44,1.03,0.76,1.37,1.2c0.35,0.44,0.69,0.88,0.6,1.66c0.13,0.89-0.42,0.91-0.97,1.48
					c-0.65,0.8-0.85,1.81-0.49,2.81c0.48,1.33,2.19,2.41,1.67,4.1c-0.32,0.68-0.42,0.91-0.97,1.48c-0.67,0.24-1.22,0.25-1.77,0.83
					c-0.54,0.57-0.42,0.91,0.04,1.68c0.57,0.54,0.92,0.98,1.49,1.53c0.24,0.67,0.36,1,0.38,1.56c0.01,0.56-0.2,1.01-0.41,1.46
					c-0.21,0.45-0.42,0.91-1.09,1.15c-0.33,0.12-0.66,0.24-1,0.36c-0.33,0.12-0.44,0.35-0.65,0.8c-0.53,1.13-0.28,2.36-0.58,3.59
					c0.01,0.56-0.2,1.01-0.52,1.69c-0.32,0.68-0.88,0.69-1.54,0.93c-0.66,0.24-1.1,0.59-1.42,1.27c-0.32,0.68-0.2,1.01,0.04,1.68
					c0.03,1.12,0.63,2.78-0.02,3.58c-0.86,1.25-2.65,1.52-3.75,2.11c-0.66,0.24-1.21,0.81-1.53,1.49c-0.32,0.68-0.08,1.34-0.4,2.02
					c-0.53,1.13-0.61,2.48-1.71,3.06c-1.1,0.59-2.43,1.07-3.42,1.99c-0.54,0.57-0.65,0.8-1.66,0.6c-0.68-0.32-1.03-0.76-1.16-1.65
					c0.09-0.79,0.52-1.69,0.83-2.37c0.74-1.58,1.83-2.73,2.8-4.21c2.91-4.44,4.91-9.3,7.14-14.05c1.17-2.49,2.33-4.98,3.05-7.68
					c0.61-2.48,0.55-4.71,0.37-7.28c-0.07-2.79-0.25-5.36-0.98-7.92c-0.51-2.45-0.9-4.56-1.29-6.68c-0.64-3.34-1.74-6.89-3.93-9.29
					c-2.65-3.18-5.64-6.23-9.26-7.93c-1.81-0.85-3.18-2.04-4.99-2.89c-0.91-0.42-1.81-0.85-2.5-1.73c-0.57-0.54-0.69-0.88-0.93-1.54
					"/>
			</g>
			<g>
				<path class="st1" d="M60.37,97.05c0.14-0.31,0.14-0.31,0.29-0.62c-0.3-0.14-0.01-0.75,0.13-1.06c0.87-1.09,2.96-0.87,4.15-1.07
					c1.93-0.22,2.2-1.59,2.92-3.13c0.29-0.61,0.27-1.37,1.46-1.57c0.89-0.34,1.49-0.06,2.39,0.36c0.6,0.28,1.06,0.87,1.79,0.08
					c0.73-0.78,0.72-1.54,0.7-2.29c-0.01-0.76,0.27-1.37,0.86-1.85c1.19-0.2,1.8,0.84,2.4,1.12c1.5,0.7,2.2-1.6,2.63-2.52
					c0.29-0.61,0.57-1.23,1.47-0.81c0.9,0.42,1.21,1.31,1.67,1.9c1.36,1.01,1.92-0.98,2.05-2.04c0.7-2.29,2.36-1.15,3.72-0.14
					c0.3,0.14,0.6,0.28,0.9,0.42c0.16,0.45,0.46,0.59,0.76,0.73c1.04,0.11,1.17-0.95,1.46-1.57c0.43-0.92,0.72-1.54,1.76-1.43
					c1.04,0.11,1.21,1.31,1.97,2.04c1.66,1.15,1.75-2.18,2.48-2.97c1.62-1.12,2.87,2.46,4.21,2.71c0.74-0.03,1.47-0.81,1.9-1.74
					c0.29-0.62,0.27-1.37,0.56-1.99c1-2.15,2.83,0.2,3.58,0.92c0.6,0.28,1.2,0.56,1.79,0.08c0.59-0.48,0.13-1.06,0.12-1.82
					c0.12-1.82,1.76-1.43,2.96-0.87c0.9,0.42,1.66,1.15,2.69,0.5c0.59-0.48,1.17-0.95,1.46-1.57c0.14-0.31-0.17-1.2-0.03-1.51
					c0.42-1.68,2.06-1.29,2.96-0.87c1.2,0.56,3.13,0.33,3.55-1.34c0.14-0.31-0.31-0.89-0.03-1.51c0.29-0.62,1.33-0.5,1.93-0.22
					c0.6,0.28,1.06,0.87,1.94,0.53c0.89-0.34,1.02-1.4,1.45-2.32c0.57-1.23-0.2-2.71,1.58-3.39c0.44-0.17,1.04,0.11,1.49-0.06
					c0.44-0.17,1.34,0.25,1.34,0.25c0.74-0.03,1.02-1.4,1.16-1.71c0.43-0.92,0.27-1.37,0.26-2.13c-0.18-1.96,0.7-2.29,2.18-3.11
					c1.03-0.64,2.22-0.84,2.19-2.35c-0.01-0.76-0.17-1.2-0.62-1.79c-0.16-0.45-0.76-0.73-0.33-1.65c0.43-0.92,2.36-1.15,2.93-2.38
					c0.43-0.92-0.95-3.44-2.14-3.24c-0.31-0.9,0.42-1.68,0.86-1.85c0.73-0.78,1.63-0.36,2.36-1.15c0.43-0.92,0.72-1.54,0.11-2.57
					c-0.31-0.89-1.67-0.56-1.81-1.59c-0.65-4.67,1.85-4.51,1.31-6.88c-0.17-0.74-1.8-0.52-2.11-1.41c-2.59-7.45-1.84,2.2-2.55,3.74
					c-0.86,1.85-0.38,3.94-0.94,5.93c-0.26,2.13-0.82,4.11-1.38,6.1c-1,2.16-2.01,4.31-2.87,6.16c-1.29,2.77-2.89,4.64-4.64,6.83
					c-2.62,3.27-5.27,5.04-9.11,6.24c-3.4,1.04-6.36,1.9-9.62,2.63c-3.12,0.42-5.63,1.12-8.59,1.99c-1.63,0.36-3.26,0.73-4.89,1.09
					c-2.07,0.53-3.85,1.2-5.92,1.74c-3.55,1.34-7.09,2.69-10.5,3.72c-3.1,1.18-5.61,2.63-8.55,4.25c-1.92,0.98-3.39,1.79-5.15,3.22
					c-1.32,1.26-3.68,2.41-4.84,4.11c-0.57,1.23-1.89,2.49-2.16,3.86c-0.27,1.37,0.5,2.85,1.11,3.89l0.14-0.31"/>
			</g>
			<g>
				<path class="st1" d="M62.24,92.38c-1.21-0.57-1.61,1.08-1.75,1.39c-0.4,1.65,0.68,3.26-0.03,4.77
					c-0.41,1.65-1.88,2.43-3.35,3.22c-0.44,0.16-1.47,0.78-1.75,1.39c-0.57,1.21,1.51,0.71,1.83,1.59c0.34,1.63-2.78,2.01-3.67,2.33
					c-2.2,1.55,0.22,2.68,1.42,3.24c1.51,0.71,1.57,2.94-0.05,4.03c-0.89,0.32-1.63,0.34-2.52,0.66c-0.75,0.02-2.52,0.66-2.8,1.26
					c-0.71,1.51,3.6,0.95,3.64,2.44c0.02,0.75-0.85,1.81-1.29,1.97c-0.73,0.76-1.79-0.1-2.36,1.1c-0.99,2.11,2.13,1.73,2.31,2.92
					c0.36,2.38-2.78,2.01-3.03,4.1c-0.25,2.09,3.03,0.76,3.23,2.69c0.2,1.93-0.91,1.38-1.92,2.75c-1.29,1.97,1.28,2.4,2.48,2.96
					c0.6,0.28,1.21,0.57,1.53,1.45c0.32,0.89-0.41,1.65-0.69,2.25c-0.42,0.91-1.01,1.37-0.55,1.95c0.76,0.73,1.79,0.1,2.54,0.08
					c1.79,0.1,0.8,2.22,0.38,3.12c-0.28,0.6-1.01,1.37-0.55,1.95c0.18,1.19,1.51,0.71,2.7,0.53c1.93-0.2,1.83,1.59,0.82,2.96
					c-0.42,0.91-1.17,0.92-0.99,2.11c0.32,0.89,1.07,0.87,1.95,0.55c1.03-0.62,1.47-0.78,2.38-0.36c1.21,0.57,1.08,1.61,0.96,2.66
					c-0.12,1.05-1.7,3.62-0.05,4.03c0.3,0.14,2.07-0.5,2.38-0.36c0.75-0.02,1.63-0.34,2.25,0.69c0.48,1.33-1.09,3.9,0.42,4.61
					c1.51,0.71,3.51-2.77,4.75-0.72c1.08,1.61,0.24,3.42,0.13,5.21c0.02,0.75,0.64,1.77,1.39,1.75c1.05,0.12,1.91-0.94,2.66-0.96
					c1.47-0.78,2.25,0.69,2.29,2.18c0.32,0.89,0.34,1.63,1.1,2.36c0.76,0.73,2.25,0.69,2.98-0.08c0.58-0.46,1.31-1.23,2.06-1.25
					c0.59-0.46,1.93-0.2,2.4,0.39c0.16,0.44,0.04,1.49,0.06,2.24c0.18,1.19,0.06,2.24-0.67,3c-1.45,1.53-4.15,1-5.94,0.9
					c-1.49,0.04-2.98,0.08-4.49-0.63c-1.35-0.26-2.56-0.83-3.62-1.7c-3.04-2.16-6.64-3.11-9.96-4.67c-3.02-1.42-5.01-3.45-6.72-6.09
					c-1.69-1.9-3.08-3.65-4.76-5.55c-1.85-2.34-2.97-5.44-4.23-8.24c-2.23-5.46-4.74-10.32-5.77-15.96
					c-0.66-2.52-1.02-4.9-1.24-7.57c-0.36-2.38,0.03-4.77,0.11-7.31c0.23-2.84,0.61-5.23,1.28-8.23c0.53-2.7,2.1-5.27,3.23-7.69
					c0.99-2.11,2.14-3.78,3.43-5.75c0.57-1.21,1.13-2.41,2.3-3.34c0.87-1.07,2.64-1.71,4.11-2.49c0.58-0.46,1.03-0.62,1.77-0.64
					c0.58-0.46,1.17-0.92,1.92-0.94l-0.3-0.14"/>
			</g>
			<g>
				<path class="st1" d="M97.75,110.86l-1.05-0.12c0.3,0.14,3,0.67,3.74,0.65c1.35,0.26,3.31-0.59,4.47-1.52
					c0.58-0.46,0,0,1.03-0.62c0.58-0.46,0.58-0.46,1.87-0.41c1.37,0.05,1.78,1.4,3.3,0.2c0.58-0.46,1.92-0.94,2.5-1.41
					c0.89-0.32,0,0,0.6,0.28s1.21,0.57,1.95,0.55c0.89-0.32,1.15-1.67,2.04-1.99c0.75-0.02,1.23,1.31,1.83,1.59
					c0.46,0.58,1.49-0.04,2.22-0.8c0.44-0.16,0.4-0.6,1.15-0.62c0.91,0.42,1.55,1.15,2.16,1.43c1.37,1.01,3.08-1.87,4.31-0.56
					c0.46,0.58,0.18,1.19,1.08,1.61c0.6,0.28,1.63-0.34,2.22-0.8c0.58-0.46,1.03-0.62,1.77-0.64c1.05,0.12,0.92,1.17,0.94,1.91
					c0.5,2.08,2.13,1.74,3.48,2c1.05,0.12,3.74,0.65,3.04,2.16c-0.28,0.6-1.03,0.62-0.71,1.51c0.02,0.75,1.53,1.45,2.27,1.43
					c0.75-0.02,1.33-0.48,1.79,0.1c0.91,0.42,0.34,1.63-0.08,2.54c-0.28,0.6-0.73,0.76-1.01,1.37c-0.87,1.07-0.4,1.65,0.36,2.38
					c1.07,0.87,3.3,0.81,3.64,2.44c0.02,0.75-0.41,1.65-0.83,2.56c-0.14,0.3-0.28,0.6-0.42,0.91c0.32,0.89,0.91,0.42,1.21,0.57
					c0.6,0.28,1.37,1.01,1.39,1.75c-0.12,1.05-1.01,1.37-1.59,1.83c-1.45,1.53,0.96,2.66,1.75,4.13c0.46,0.59,0.2,1.93-0.39,2.4
					c-0.58,0.46-1.63,0.34-2.38,0.36c-2.82,0.52-1.41,3.02-0.77,4.79c0.32,0.89,0.34,1.63-0.55,1.95c-0.89,0.32-1.79-0.1-2.38,0.36
					c-0.89,0.32-0.87,1.07-0.85,1.81c0.02,0.74-0.12,1.05,0.34,1.63c0.16,0.44,0.46,0.58,0.62,1.03c0.02,0.74-1.01,1.37-1.75,1.39
					c-1.19,0.18-1.65-0.41-2.38,0.36c-0.28,0.6-0.71,1.51-0.69,2.25c0.02,0.75,0.34,1.63-0.09,2.54c-0.87,1.07-2.84-0.23-3.85,1.14
					c-0.14,0.3-0.57,1.21-0.85,1.81c0.02,0.75,0.2,1.93-0.53,2.7c-0.3-0.14-1.79-0.1-2.4-0.39c-0.6-0.28-2.07,0.5-2.36,1.1
					c-0.14,0.3-0.28,0.6-0.12,1.05c0.02,0.74-0.12,1.05-0.41,1.65c-0.42,0.91-0.57,1.21-1.92,0.94c-0.75,0.02-1.79-0.1-2.54-0.08
					c-0.75,0.02-1.33,0.48-1.61,1.08c-0.14,0.3-0.28,0.6-0.26,1.35c-0.14,0.3,0.32,0.89,0.04,1.49c-0.28,0.6-1.77,0.64-2.38,0.36
					c-0.91-0.42-1.26-2.8-2.58-1.58c-0.73,0.76-0.99,2.11-1.42,3.02c-0.71,1.51-1.35-0.26-2.11-0.99c-0.76-0.73-1.51-0.71-1.93,0.2
					c-0.42,0.91-0.85,1.81-1.27,2.72c-0.28,0.6-0.42,0.91-1.17,0.92c-0.89,0.32-0.91-0.42-1.37-1.01c-0.76-0.73-1.53-1.45-2.7-0.53
					c-0.89,0.32-0.85,1.81-1.43,2.27c-0.58,0.46-1.33,0.48-1.77,0.64c-0.75,0.02-0.46-0.58-0.92-1.17
					c-0.76-0.73-2.11-0.99-2.84-0.23c-0.42,0.91-1.27,2.72-2.64,1.71c-0.16-0.44-0.34-1.63-0.5-2.07c-0.16-0.44-0.76-0.73-1.07-0.87
					c-1.21-0.57-1.93,0.2-2.8,1.26c-0.73,0.76-1.15,1.67-2.34,1.85c-0.6-0.28-1.95-0.55-1.83-1.59c-1.19,0.18-1.31,1.23-0.99,2.11
					c0.62,1.03,1.09,1.61,1.99,2.04c2.72,1.27,5.73,2.69,9.02,2.75c8.36,0.23,16.66-1.77,24.32-5.54c2.94-1.57,5.58-3.27,8.37-5.28
					c2.64-1.71,5.58-3.27,7.6-6.01c2.02-2.74,3.9-5.17,5.61-8.04c1.27-2.72,3.15-5.15,4.42-7.87c1.84-3.92,3.82-8.15,5.05-12.36
					c0.41-1.65,0.95-3.6,1.5-5.55c0.39-2.4,0.33-4.63-0.33-7.15c0.12-1.05-0.2-1.93-0.38-3.12c-0.32-0.89-0.64-1.77-0.82-2.96
					c-1.1-2.36-2.65-4.55-3.9-6.61c-1.25-2.06-2.03-3.53-3.86-5.12c-1.53-1.45-3.36-3.05-5.17-3.89c-3.02-1.42-6-1.34-9.42-1.1
					c-1.79-0.1-3.87,0.4-6.1,0.45c-1.93,0.2-4.03-0.05-5.96,0.15c-1.93,0.2-3.87,0.4-5.94,0.9c-2.08,0.5-4.15,1-5.92,1.64
					c-1.63,0.34-3.1,1.12-4.88,1.76c-0.89,0.32-1.77,0.64-2.8,1.26c-0.58,0.46-1.47,0.78-1.75,1.39l-0.16-0.44"/>
			</g>
		</g>
	</g>
	<g id="Layer_9">
		<g>
			<g>
				<path class="st0" d="M128.24,34.8c2.17,1.09,4.48,1.13,6.86,0.81c0.96-0.13,0.55-1.57-0.4-1.45c-1.94,0.26-3.93,0.23-5.7-0.66
					C128.14,33.07,127.38,34.37,128.24,34.8L128.24,34.8z"/>
			</g>
		</g>
		<g>
			<g>
				<path class="st0" d="M126.72,41.49c1.94,1.99,5.25,1.63,7.7,1.15c0.95-0.19,0.55-1.63-0.4-1.45c-1.88,0.37-4.71,0.8-6.24-0.76
					C127.11,39.73,126.05,40.79,126.72,41.49L126.72,41.49z"/>
			</g>
		</g>
		<g>
			<g>
				<path class="st0" d="M125.29,50.15c1.58,1.13,3.94,1.51,5.81,1.12c0.95-0.2,0.54-1.64-0.4-1.45c-1.49,0.31-3.4-0.07-4.65-0.97
					C125.26,48.29,124.52,49.6,125.29,50.15L125.29,50.15z"/>
			</g>
		</g>
		<g>
			<g>
				<path class="st0" d="M119.77,55.58c1.06,2.57,4.13,4.08,6.78,4.12c0.97,0.01,0.97-1.49,0-1.5c-1.89-0.03-4.54-1.1-5.33-3.02
					C120.86,54.3,119.41,54.69,119.77,55.58L119.77,55.58z"/>
			</g>
		</g>
		<g>
			<g>
				<path class="st0" d="M113.67,60.13c-0.22,1.17,0.46,2.43,0.94,3.46c0.56,1.2,1.24,2.54,2.21,3.48c0.7,0.67,1.76-0.39,1.06-1.06
					c-0.75-0.72-1.24-1.74-1.71-2.65c-0.35-0.67-1.21-2.02-1.05-2.83C115.3,59.59,113.85,59.18,113.67,60.13L113.67,60.13z"/>
			</g>
		</g>
		<g>
			<g>
				<path class="st0" d="M105.93,62.32c-0.01,0.88-0.1,1.67,0.05,2.55c0.32,1.82,1.59,3.37,2.88,4.61c0.7,0.67,1.76-0.39,1.06-1.06
					c-1.16-1.12-2.13-2.35-2.49-3.95c-0.16-0.72-0.01-1.43,0-2.15C107.45,61.35,105.95,61.35,105.93,62.32L105.93,62.32z"/>
			</g>
		</g>
		<g>
			<g>
				<path class="st0" d="M98.62,64.18c-0.69,2.42-0.1,5.92,1.53,7.83c0.63,0.74,1.69-0.33,1.06-1.06c-1.27-1.48-1.68-4.5-1.15-6.37
					C100.33,63.65,98.88,63.25,98.62,64.18L98.62,64.18z"/>
			</g>
		</g>
		<g>
			<g>
				<path class="st0" d="M40.52,92.41c1.28,3.31,5.09,6.01,8.57,6.44c0.96,0.12,0.95-1.38,0-1.5c-2.75-0.34-6.11-2.72-7.12-5.34
					C41.63,91.12,40.18,91.51,40.52,92.41L40.52,92.41z"/>
			</g>
		</g>
		<g>
			<g>
				<path class="st0" d="M36.39,101.39c2.35,3.07,5.54,4.22,9.33,4.44c0.97,0.06,0.96-1.44,0-1.5c-3.19-0.19-6.03-1.09-8.04-3.7
					C37.11,99.88,35.8,100.63,36.39,101.39L36.39,101.39z"/>
			</g>
		</g>
		<g>
			<g>
				<path class="st0" d="M33.87,109.38c1.87,2.7,6.4,3.34,9.4,3.4c0.97,0.02,0.97-1.48,0-1.5c-2.35-0.05-6.61-0.49-8.11-2.66
					C34.62,107.83,33.32,108.58,33.87,109.38L33.87,109.38z"/>
			</g>
		</g>
		<g>
			<g>
				<path class="st0" d="M32.59,117.43c2.57,2.54,6.01,2.77,9.39,1.94c0.94-0.23,0.54-1.68-0.4-1.45c-2.86,0.7-5.75,0.59-7.93-1.56
					C32.96,115.69,31.9,116.75,32.59,117.43L32.59,117.43z"/>
			</g>
		</g>
		<g>
			<g>
				<path class="st0" d="M31.33,125.59c2.36,2.95,7.26,2.47,10.42,1.64c0.93-0.25,0.54-1.69-0.4-1.45c-2.66,0.7-6.94,1.28-8.96-1.25
					C31.79,123.77,30.74,124.84,31.33,125.59L31.33,125.59z"/>
			</g>
		</g>
		<g>
			<g>
				<path class="st0" d="M39.29,157.44c4.08-0.25,7.09-1.22,9.45-4.73c0.54-0.81-0.76-1.56-1.29-0.76
					c-2.05,3.05-4.65,3.77-8.16,3.98C38.33,156,38.33,157.5,39.29,157.44L39.29,157.44z"/>
			</g>
		</g>
		<g>
			<g>
				<path class="st0" d="M50.83,171.09c2.98,0.03,7.35-2.17,7.73-5.46c0.11-0.96-1.39-0.95-1.5,0c-0.14,1.18-1.46,2.13-2.35,2.72
					c-1.15,0.76-2.5,1.25-3.88,1.24C49.86,169.59,49.87,171.09,50.83,171.09L50.83,171.09z"/>
			</g>
		</g>
		<g>
			<g>
				<path class="st0" d="M57.15,176.8c3.13-0.79,5.56-2.66,7.04-5.53c0.44-0.86-0.85-1.62-1.29-0.76c-1.31,2.53-3.36,4.14-6.15,4.84
					C55.81,175.59,56.21,177.03,57.15,176.8L57.15,176.8z"/>
			</g>
		</g>
		<g>
			<g>
				<path class="st0" d="M63.83,182.47c3.37-0.15,5.26-2.74,6.19-5.73c0.29-0.93-1.16-1.32-1.45-0.4c-0.71,2.31-2.08,4.51-4.74,4.63
					C62.86,181.01,62.86,182.51,63.83,182.47L63.83,182.47z"/>
			</g>
		</g>
		<g>
			<g>
				<path class="st0" d="M77.48,180.24c-0.05,2.27-1.92,4.72-4.17,5.25c-0.94,0.22-0.54,1.67,0.4,1.45c2.9-0.69,5.2-3.78,5.27-6.7
					C79.01,179.27,77.51,179.27,77.48,180.24L77.48,180.24z"/>
			</g>
		</g>
		<g>
			<g>
				<path class="st0" d="M86.84,183.88c0.45,1.63-0.6,3.93-1.62,5.16c-0.61,0.74,0.44,1.81,1.06,1.06c1.37-1.66,2.61-4.43,2-6.62
					C88.03,182.55,86.58,182.94,86.84,183.88L86.84,183.88z"/>
			</g>
		</g>
		<g>
			<g>
				<path class="st0" d="M98.2,184.79c0.83,1.78,0.6,3.99-0.34,5.67c-0.47,0.84,0.82,1.6,1.29,0.76c1.22-2.18,1.41-4.9,0.34-7.18
					C99.09,183.16,97.79,183.92,98.2,184.79L98.2,184.79z"/>
			</g>
		</g>
		<g>
			<g>
				<path class="st0" d="M117.18,180.44c0.65,1.34,0.9,3.02,1.04,4.49c0.09,0.95,1.59,0.96,1.5,0c-0.17-1.76-0.46-3.64-1.25-5.25
					C118.05,178.82,116.76,179.58,117.18,180.44L117.18,180.44z"/>
			</g>
		</g>
		<g>
			<g>
				<path class="st0" d="M124.99,176.01c0.47,0.49,0.77,1.17,1.05,1.78c0.3,0.63,0.67,1.43,0.66,2.15c-0.02,0.97,1.48,0.97,1.5,0
					c0.02-0.85-0.35-1.71-0.68-2.48c-0.38-0.88-0.81-1.8-1.47-2.5C125.39,174.25,124.33,175.31,124.99,176.01L124.99,176.01z"/>
			</g>
		</g>
		<g>
			<g>
				<path class="st0" d="M138.13,173.29c-0.47-1.84-2.28-3.71-3.81-4.75c-0.8-0.55-1.55,0.75-0.76,1.29c0.62,0.42,1.14,1,1.64,1.55
					c0.59,0.65,1.26,1.43,1.48,2.3C136.92,174.62,138.37,174.22,138.13,173.29L138.13,173.29z"/>
			</g>
		</g>
		<g>
			<g>
				<path class="st0" d="M139.45,163.32c1.54,0.77,2.87,2.27,3.49,3.88c0.34,0.89,1.79,0.51,1.45-0.4
					c-0.76-1.97-2.28-3.83-4.18-4.78C139.35,161.59,138.59,162.89,139.45,163.32L139.45,163.32z"/>
			</g>
		</g>
		<g>
			<g>
				<path class="st0" d="M145.57,155.13c1.53,0.71,2.93,1.25,3.84,2.76c0.5,0.83,1.79,0.07,1.29-0.76c-1.06-1.76-2.58-2.46-4.37-3.3
					C145.45,153.43,144.69,154.73,145.57,155.13L145.57,155.13z"/>
			</g>
		</g>
		<g>
			<g>
				<path class="st0" d="M152.53,139.85c1.24,0.02,2.52,0.18,3.67,0.69c0.88,0.39,1.64-0.9,0.76-1.29c-1.4-0.62-2.9-0.87-4.42-0.89
					C151.56,138.34,151.56,139.84,152.53,139.85L152.53,139.85z"/>
			</g>
		</g>
		<g>
			<g>
				<path class="st0" d="M153.11,129.02c0.77-0.41,1.69-0.53,2.55-0.4c0.95,0.14,1.35-1.3,0.4-1.45c-1.28-0.19-2.55-0.07-3.71,0.55
					C151.5,128.18,152.25,129.48,153.11,129.02L153.11,129.02z"/>
			</g>
		</g>
		<g>
			<g>
				<path class="st0" d="M148.53,114.11c0.52-0.47,1.45-1.31,2.24-1.16c0.95,0.17,1.35-1.27,0.4-1.45c-1.41-0.26-2.7,0.65-3.69,1.55
					C146.75,113.71,147.81,114.76,148.53,114.11L148.53,114.11z"/>
			</g>
		</g>
		<g>
			<g>
				<path class="st0" d="M136.56,100.81c-1.16,0.95-1.98,2.14-1.95,3.68c0.02,0.97,1.52,0.97,1.5,0c-0.03-1.15,0.65-1.92,1.51-2.62
					C138.37,101.25,137.3,100.2,136.56,100.81L136.56,100.81z"/>
			</g>
		</g>
		<g>
			<g>
				<path class="st0" d="M126.73,99.49c-0.47,1.21-0.73,2.54-0.1,3.73c0.45,0.86,1.74,0.1,1.29-0.76c-0.42-0.8-0.05-1.8,0.25-2.58
					C128.53,98.98,127.08,98.59,126.73,99.49L126.73,99.49z"/>
			</g>
		</g>
		<g>
			<g>
				<path class="st0" d="M118.2,99.99c-0.19,1.17-0.09,2.38,0.41,3.45c0.41,0.88,1.7,0.11,1.29-0.76c-0.22-0.47-0.28-0.99-0.29-1.51
					c0-0.2,0.01-0.41,0.02-0.61c0.01-0.08,0.01-0.16,0.02-0.24c-0.02,0.19-0.02,0.12-0.01,0.07
					C119.8,99.45,118.35,99.04,118.2,99.99L118.2,99.99z"/>
			</g>
		</g>
		<g>
			<g>
				<path class="st0" d="M111.12,105.13c-0.56-0.78-0.71-1.41-0.63-2.35c0.08-0.96-1.42-0.96-1.5,0c-0.1,1.17,0.15,2.14,0.84,3.11
					C110.38,106.66,111.68,105.92,111.12,105.13L111.12,105.13z"/>
			</g>
		</g>
		<g>
			<g>
				<path class="st0" d="M91.22,65.37c-0.64,2.63-0.52,5.84,0.96,8.18c0.52,0.82,1.81,0.06,1.29-0.76c-1.27-2-1.36-4.77-0.81-7.03
					C92.9,64.82,91.45,64.43,91.22,65.37L91.22,65.37z"/>
			</g>
		</g>
		<g>
			<g>
				<path class="st0" d="M83.51,66.4c-0.72,3.04,0.01,5.31,1.11,8.14c0.35,0.89,1.8,0.5,1.45-0.4c-0.99-2.54-1.77-4.58-1.11-7.34
					C85.18,65.85,83.73,65.45,83.51,66.4L83.51,66.4z"/>
			</g>
		</g>
		<g>
			<g>
				<path class="st0" d="M76.1,68.51c-0.98,2.81,0.02,6.57,1.09,9.19c0.36,0.88,1.81,0.5,1.45-0.4c-0.98-2.4-1.99-5.81-1.09-8.39
					C77.87,67.99,76.42,67.6,76.1,68.51L76.1,68.51z"/>
			</g>
		</g>
		<g>
			<g>
				<path class="st0" d="M67.25,71.25c0.08,2.59,1.06,6.02,2.6,8.13c0.57,0.77,1.87,0.02,1.29-0.76c-1.39-1.89-2.32-5.04-2.4-7.37
					C68.72,70.29,67.22,70.28,67.25,71.25L67.25,71.25z"/>
			</g>
		</g>
		<g>
			<g>
				<path class="st0" d="M59.5,74.5c0.12,2.94,1.59,6.06,3.35,8.38c0.58,0.76,1.88,0.01,1.29-0.76c-1.6-2.11-3.04-4.95-3.15-7.62
					C60.96,73.54,59.46,73.53,59.5,74.5L59.5,74.5z"/>
			</g>
		</g>
		<g>
			<g>
				<path class="st0" d="M52.28,78.95c0.58,1.37,1.31,2.65,2.08,3.93c0.76,1.27,2.23,2.25,3.37,3.15c0.75,0.6,1.82-0.46,1.06-1.06
					c-0.92-0.73-1.83-1.46-2.65-2.3c-1.05-1.09-1.83-2.73-2.41-4.11C53.35,77.67,51.9,78.06,52.28,78.95L52.28,78.95z"/>
			</g>
		</g>
		<g>
			<g>
				<path class="st0" d="M46,84.5c0.29,3.23,3.19,5.99,5.87,7.4c0.86,0.45,1.61-0.85,0.76-1.3c-1.42-0.74-2.74-1.71-3.7-3
					c-0.6-0.81-1.34-2.09-1.43-3.1C47.42,83.54,45.92,83.54,46,84.5L46,84.5z"/>
			</g>
		</g>
		<g>
			<g>
				<path class="st0" d="M31.6,133.63c0.91,1.43,2.72,1.09,4.21,1.28c2.45,0.32,4.27,0.08,6.31-1.26c0.8-0.53,0.05-1.83-0.76-1.3
					c-1.41,0.93-2.69,1.15-4.37,1.15c-0.71,0-3.69,0.03-4.1-0.63C32.38,132.06,31.08,132.81,31.6,133.63L31.6,133.63z"/>
			</g>
		</g>
		<g>
			<g>
				<path class="st0" d="M33.3,142.22c2.93,0.9,6.58,0.19,9.33-1.08c0.88-0.4,0.12-1.7-0.76-1.3c-2.39,1.1-5.64,1.7-8.17,0.92
					C32.77,140.49,32.38,141.94,33.3,142.22L33.3,142.22z"/>
			</g>
		</g>
		<g>
			<g>
				<path class="st0" d="M36.75,150c2.82,0,5.64-0.3,7.98-2.02c0.77-0.57,0.02-1.87-0.76-1.29c-2.14,1.57-4.65,1.82-7.22,1.81
					C35.78,148.5,35.78,150,36.75,150L36.75,150z"/>
			</g>
		</g>
		<g>
			<g>
				<path class="st0" d="M44.12,164.36c3.54,0.33,6.31-1.85,8.49-4.45c0.62-0.74-0.44-1.8-1.06-1.06c-1.93,2.31-4.27,4.3-7.43,4.01
					C43.15,162.77,43.16,164.28,44.12,164.36L44.12,164.36z"/>
			</g>
		</g>
		<g>
			<g>
				<path class="st0" d="M148.67,147.75c1.38,0.05,3.05,0.64,4.29,1.23c0.87,0.41,1.63-0.88,0.76-1.29
					c-1.5-0.71-3.38-1.38-5.04-1.44C147.7,146.22,147.7,147.72,148.67,147.75L148.67,147.75z"/>
			</g>
		</g>
		<g>
			<g>
				<path class="st0" d="M150.87,121.06c1-0.33,2-0.67,3-1c0.91-0.31,0.52-1.75-0.4-1.45c-1,0.33-2,0.67-3,1
					C149.55,119.91,149.95,121.36,150.87,121.06L150.87,121.06z"/>
			</g>
		</g>
		<g>
			<g>
				<path class="st0" d="M145.33,105.25c-1.74,0.05-3.02,0.97-3.98,2.37c-0.55,0.8,0.75,1.55,1.29,0.76c0.65-0.95,1.5-1.6,2.69-1.63
					C146.3,106.72,146.3,105.22,145.33,105.25L145.33,105.25z"/>
			</g>
		</g>
		<g>
			<g>
				<path class="st0" d="M107.47,182.25c1.37,1.68,2.18,4.37,1.51,6.48c-0.29,0.92,1.16,1.32,1.45,0.4c0.84-2.65-0.19-5.84-1.9-7.94
					C107.92,180.44,106.86,181.51,107.47,182.25L107.47,182.25z"/>
			</g>
		</g>
	</g>
	<g id="Layer_6">
		<g>
			<g>
				<path class="st1" d="M124.23,27.76c1.94,3.18,1.03,8.59,0.76,12.11c-0.42,5.46-2.04,9.94-5.46,14.34
					c-5.5,7.07-13.82,7.24-21.85,8.67c-5.33,0.95-10.75,0.84-16.1,1.83c-5.95,1.1-11.72,3.01-17.23,5.5
					c-7.78,3.52-14.66,8.94-20.02,15.58c-10.24,12.7-15.46,29.12-13.72,45.4c1.81,16.94,9.67,32.76,22.21,44.14
					c7.74,7.02,16.85,12.36,26.42,16.47c1.76,0.76,3.29-1.83,1.51-2.59c-16.95-7.3-32.85-18.69-40.61-35.86
					c-5.79-12.8-8.45-26.66-5.65-40.56c1.43-7.1,4.62-13.59,8.38-19.72c10.97-17.89,30.46-25.1,50.58-26.66
					c7.14-0.55,15.65-1.38,22.04-4.84c7.13-3.86,11.38-11.89,12.3-19.69c0.54-4.6,1.6-11.44-0.97-15.64
					C125.81,24.6,123.22,26.1,124.23,27.76L124.23,27.76z"/>
			</g>
		</g>
		<g>
			<g>
				<path class="st1" d="M108,108.5c5.31-0.38,10.16-3.18,15.5-3.5c4.3-0.26,7.84-0.06,11.26,2.74c2.87,2.35,6.3,3.43,9.08,6.09
					c4.69,4.48,5.95,13.29,6.58,19.38c0.86,8.25-4.75,15.22-8.87,21.88c-7.86,12.73-21.16,23-36.01,25.99
					c-11.23,2.25-21.44-0.35-31.29-5.84c-1.69-0.94-3.2,1.65-1.51,2.59c4.42,2.46,9.37,4.17,14.09,5.95
					c6.51,2.45,14.55,1.19,21.17-0.14c8.34-1.67,15.34-6.53,22.23-11.28c6.6-4.55,11.76-11.56,15.56-18.6
					c1.95-3.61,4.92-6.95,6.32-10.82c1.36-3.76,1.55-7.41,1.13-11.37c-0.62-5.91-2.05-14.01-6.19-18.62
					c-2.68-2.98-5.66-5.06-9.3-6.73c-2.87-1.32-4.24-4.2-7.76-4.2c-3.72,0-7.34-0.19-10.98,0.69c-3.63,0.88-7.29,2.54-11.02,2.81
					C106.08,105.64,106.07,108.64,108,108.5L108,108.5z"/>
			</g>
		</g>
		<g>
			<g>
				<path class="st1" d="M132,29.5c0.14,2.28,1.15,4.44,0.99,6.68c-0.2,2.9-0.8,5.79-1.34,8.64c-1.15,6.08-1.98,11.05-6.4,15.62
					c-3.13,3.23-9.32,5.63-13.47,7.13c-5.14,1.86-10.63,3.37-16.09,3.74c-3.83,0.26-6.97,1.6-10.6,2.75
					c-4.06,1.28-8.3,2.27-12.41,3.38C57.96,81.42,45.54,95,43.05,110.1c-0.67,4.05-1.91,7.74-2.05,11.9
					c-0.15,4.39-0.88,8.78-1.14,13.18c-0.46,7.7,3.01,13.82,8.58,18.88c1.43,1.3,3.56-0.82,2.12-2.12
					c-3.41-3.1-5.96-6.41-7.29-10.88c-1.28-4.27-0.14-9.24,0.23-13.56c0.75-8.62,1.19-18.65,5.8-26.24
					c2.28-3.76,4.53-7.59,7.31-11.01c2.91-3.58,6.63-5.1,10.65-7.08c7.39-3.65,15.57-4.4,23.01-7.71c4.25-1.89,9.44-1.19,13.93-2.56
					c4.03-1.23,8.08-2.2,11.97-3.86c5.74-2.46,12.66-5.92,15.47-11.92c1.93-4.12,2.5-9.17,3.31-13.6c0.4-2.22,0.74-4.44,1-6.68
					c0.3-2.61-0.77-4.72-0.93-7.34C134.88,27.58,131.88,27.57,132,29.5L132,29.5z"/>
			</g>
		</g>
		<g>
			<g>
				<path class="st1" d="M46.05,153.4c1.81,4.37,5.88,8.32,9.07,11.66c6.97,7.3,15.35,13.25,24.62,17.24
					c1.76,0.76,3.29-1.83,1.51-2.59c-8.76-3.77-16.42-9.23-23.18-15.93c-3.08-3.05-7.45-7.13-9.13-11.18
					C48.22,150.84,45.31,151.61,46.05,153.4L46.05,153.4z"/>
			</g>
		</g>
		<g>
			<g>
				<path class="st1" d="M142.44,104.56c2.32,1.97,4.02,3.67,5.77,6.2c1.72,2.49,2.6,5.34,4,8c3.02,5.73,6.09,13.49,4.43,20.1
					c-2.42,9.7-6.77,18.42-12.98,26.18c-7.86,9.83-16.56,16.19-28,21.13c-11.27,4.86-23.34,4.56-35.25,1.95
					c-1.89-0.41-2.69,2.48-0.8,2.89c12.05,2.64,24.61,3.15,36.12-1.64c5.09-2.12,10.17-4.28,14.74-7.38
					c6.99-4.73,12.31-10.95,17.46-17.55c5.77-7.41,9.97-16.9,11.92-26.11c1.18-5.57-1.11-13.2-3.46-18.18
					c-1.85-3.9-4.24-7.71-5.9-11.68c-1.28-3.08-3.56-4.03-5.92-6.04C143.1,101.19,140.96,103.3,142.44,104.56L142.44,104.56z"/>
			</g>
		</g>
	</g>
</g>
</svg>
