<svg xmlns="http://www.w3.org/2000/svg" viewBox="0 0 209.46 209.46"><defs><style>.cls-1{fill:#8cc63f;}.cls-2{fill:#fff;}</style></defs><title>Plantae_2</title><g id="Layer_1" data-name="Layer 1"><circle class="cls-1" cx="108" cy="107.73" r="104.73" transform="translate(-47.81 104.92) rotate(-45)"/></g><g id="Plantae"><path class="cls-2" d="M167.83,169.57c-7.35-17.31-23-29.91-39.6-29.89-43.25.07-61,5-71.65,28.46.16.07-5.78-3-5.31-5.29.64-3.2,5-17.27,21.9-22.3,33.64-10,26.74-4.85,30-18.82,1-4.21-1.37-6.21-1.37-6.21-6.69-2.87-17-8.69-21.45-5.8-6.67,4.37-17.44,8.63-21.42,13.41-4.16,5-5.21,11.81-7.61,10.15-2.19-1.53,3.74-8.55,4.27-10.68-3.74,1.07-7.47,2.67-11.21,1.6-5.47-4.54,5.87-1.6,9.61-3.74,4.8-2.13,20.55-8.57,19.55-11.34-17-7-33.76,1.44-39.85-1.72-3.06-4.29,7.62-.42,11.89-4.69,1.47-1.07-9.08-8.14-8.94-11.88,2.72-6.24,5.67,9.51,33,13.5,2.56.38,6.8,3.68,9,1.77C83.49,101.72,69,97,63.09,92.7,57.22,89,52,91.63,46.14,87.36c-1.6-3.47,8.68-.93,14,1.74-.54-3.74-6.28-9.88-3.07-12,2-2.8,6,14.21,25.29,22.43,9.37,4,16.09,14.5,18,10.21,4-8.83-6.28-12.4-10.21-18.82-9.81-16-13.68-17.69-25.43-16.62-8.54.53-25.42,6.27-25.69,1.34v-.54c4.27-2.13,14.3,1.08,15.48-3.2.83-3-15.49-5.39-12.28-10.15,1.34-2,12.28,6.41,15.49,6.94C62,69.21,78,71.61,73.24,67.61,70,59.87,49.61,48.39,58.42,47.72,79.51,73,66,35.44,73.24,38.78c3.49,7.68.84,17.52,2.13,22.69,2.14,8,13.42,22,14.28,19,5.48-32.17-8.07-42-6-45,3.87-5.87,7.9,14.67,7.9,14.67C93.69,48,93.19,33,97.4,34.64c2.8,0-3.33,17.23-3.41,17.82-1.22,9.06-.1,10.09.4,17.62.54,6.4-5.37,11,5.21,24,0,0,2.43,3.41,4.07-12.41.44-4.28,2-9.35,1.63-13-.52-4.53-7.5-10.67-7-15.48,2-4.4,3.74,6.94,7.48,9.61,4.16-.28-1.47-16.28,2.13-13.88,2.47-.47,1.13,12.31,1.07,17.35-.14,12.33-6.17,23.18-5,31-.92,10,6,13,7.49,1.45,1.19-9.37,11.37-19.52,9.83-25.73-1.44-5.79-1.82-18.91-5.9-22.17S101,38.51,104.2,37.17c4.21-2.73,8.81,10.08,11.84,9.51,3.18-4.23-3-17-1-16.2,4.93-3.91,4.34,4.49,6.4,15.17,1.15,5.94-1.43,18.06,4.61,21.62,5.06,5.42,9-39.44,17.15-32.5,2.4.67-3.78,6.12-5.34,12.55,4.8,0,6.94-4.81,11.21-4.27,3.87,1.2-6.74,5.8-11,9-4.27,3.73-3.94,9-6.61,14.48-7.21,14.82-16.62,25.16,3.81,11.55,4.8-3.21,8.21-3.68,11.41-7.41,5.34-5.34,2.16-21.22,8.41-21.22,3.2,0,1.6,4.6-1.2,17.21-1.81,2.21,17-5.6,18-3.6,3.61,7.21-10.93,4.89-16.41,8.21C145.78,77.14,134.77,81,135,83.09c.26,1.07,11.61-1.6,21.22-2,.47,0,18.42-5.61,18.42-1.6,0,1.73-16.26,3.05-15.62,4.6,1.15,2.8,18.3,1.45,14.25,5.12-3.64,3.29-23.82-7.56-45.08-2.92-1.48.33-3.17,2.59-4.78,3.23-7,2.78-13.55,25.22-10.44,22.79,7.51-5.84,18.32-14.77,26-15.06,10.41-.41,18.65-8.55,22.25-6.75,3.23,1.61-8.76,4.88-8,6.26,1.36,2.61,11.45-1.47,12.65.75,3.33,6.17-35.64-1.61-34.93,8.8,0,0,19.53,1.92,30.52,2.61,7.52.46,17.59-3.69,16,1.11-1.14,3.44-9.11,1.67-9.94,4.09-1,3,10.4,1.94,10.45,5.11.09,5.9-16.62-6.4-20.7-7.11-6.27-1.09-23.27-3.46-21.82-1.8,9.8,11.2,20.22,8.81,21.82,12.41,1.68,3.77-11.19-2.28-11.81-.4-1.2,3.61,6,7.81,2.8,9.41-4.83,2.42-3.58-14.27-18.42-20.42-3.9-1.62-21.67,3.55-19.62,14.21,1.07,5.6.41,5.53,3.74,5.75C169.88,135,174,166.46,173,164.7" transform="translate(-3.27 -3)"/><path class="cls-2" d="M89.69,157.1a23.64,23.64,0,0,0,1.49-2.87c.71-1.51,2.53-2.3,3.79-3.29,2.08-1.61,3.13-4.43,5-6.29a22.16,22.16,0,0,1,7.3-4.89,9.36,9.36,0,0,0,3.35-1.83c.78-.86-1.1-.87-1.56-.36-1.19,1.32-3.83,1.82-5.42,2.55-2.21,1-4.45,3.38-6.12,5.07-2.08,2.09-2.89,4.84-5.58,6.38-2.17,1.25-2.74,3.47-4,5.46-.5.78,1.45.63,1.81.07Z" transform="translate(-3.27 -3)"/><path class="cls-2" d="M135.52,148c-2.47-2.63-5.54-4.32-8.6-6.18-2.84-1.73-5.23-4.88-8.53-5.63-.76-.18-2.29,1-1.14,1.22,3.06.7,5.55,3.8,8.17,5.47,2.93,1.86,5.91,3.38,8.33,5.94.55.59,2.39-.17,1.77-.82Z" transform="translate(-3.27 -3)"/><path class="cls-2" d="M120.39,152.65a7.65,7.65,0,0,0-2.31-6.26c-2.28-2.2-3-4.88-3.7-7.9-.18-.73-2.12-.22-1.93.52.58,2.34,1.08,4.94,2.58,6.9a23.07,23.07,0,0,0,1.92,1.91,6.7,6.7,0,0,1,1.5,5.05c0,.86,1.92.47,1.94-.22Z" transform="translate(-3.27 -3)"/><path class="cls-2" d="M62.84,139.65a43.76,43.76,0,0,1,17.64-.91c2.38.34,4.66-.71,7.11-.32.46.08,2.12-.66,1.59-.75-4.11-.66-8.35,0-12.54-.49-4.64-.5-9.5.78-14,1.87-1.14.27-1,.87.16.6Z" transform="translate(-3.27 -3)"/><path class="cls-2" d="M153.28,146c4.64,2.25,9.15,4.48,14.28,5.32,4,.66,8.56.13,12.58-.46.91-.14,1.62-1.21.28-1a43.56,43.56,0,0,1-13.34.19c-4.31-.7-8.38-3.07-12.25-5-.54-.26-2.32.53-1.55.91Z" transform="translate(-3.27 -3)"/><path class="cls-2" d="M168.44,151.32c2.67-.27,5.14-1.87,7.81-1.8.37,0,2.19-.7,1.26-.73-2.94-.08-5.36,1.54-8.21,1.82-.46,0-2.12.83-.86.71Z" transform="translate(-3.27 -3)"/><path class="cls-2" d="M97.62,145.23c-4.68,2.55-10.11,2.44-14.2,6.23-.79.73,1.13.58,1.52.21,3.9-3.62,9.34-3.54,13.84-6,1.14-.62-.61-.75-1.16-.44Z" transform="translate(-3.27 -3)"/><path class="cls-2" d="M113,142c-.09,3.39.75,9.27-2.46,11.52-1.08.75.52,1.33,1.26.81,3.78-2.64,3-8.5,3.15-12.5,0-1-1.93-.65-1.95.17Z" transform="translate(-3.27 -3)"/><path class="cls-2" d="M117.36,148.3c2,1.1,4.06,1.78,6,2.8,2.17,1.13,3.73,3.94,5.13,5.81.3.39,2.15-.24,1.82-.68-1.46-1.94-3-4.56-5.13-5.81-1.91-1.09-4.09-1.71-6-2.8-.51-.29-2.13.5-1.82.68Z" transform="translate(-3.27 -3)"/><path class="cls-2" d="M126.87,143.61c6.23,1.64,13.62,2.11,18.49,6.78.64.61,2.47-.19,1.77-.86C142,144.6,134.56,144,128,142.29c-.84-.22-2.28,1-1.11,1.32Z" transform="translate(-3.27 -3)"/><path class="cls-2" d="M77.12,136.81a83.48,83.48,0,0,0-14.19-5.29c-.78-.21-2.29.92-1.14,1.24a80.82,80.82,0,0,1,13.83,5.12c.71.35,2.43-.62,1.5-1.07Z" transform="translate(-3.27 -3)"/></g></svg>