<svg xmlns="http://www.w3.org/2000/svg" viewBox="0 0 209.46 209.46"><defs><style>.cls-1{fill:#8cc63f;}.cls-2{fill:#fff;}</style></defs><title>Plantae</title><g id="Layer_1" data-name="Layer 1"><circle class="cls-1" cx="108" cy="107.73" r="104.73" transform="translate(-47.81 104.92) rotate(-45)"/></g><g id="Plantae"><path class="cls-2" d="M80.21,92.16c15.55-4.42,31.12-2.83,42.81,5.61,13.22,9.54,23.47,22.23,17.77,39.9-4.55,13.92-24.44,15.09-39.92,12.78-12.33-1.77-19.44-7.39-22.64-16.93-5.42-14.16-6.68-26.38,2.44-44.19-1.58,1.43-1.4-3-.94-2.33" transform="translate(-3.27 -3)"/><path class="cls-2" d="M80.21,92.16c-3.82.42-8,5.3-10.41,11.51-.87,2.23-3.91,3.57-6.25,4.8-.69.36-21.15,13.06,25.7,62.13,10.52,11,6.85,22.18,3.13,35.72,16.92-28,1.19-33.21-15.1-55.31-10-13.52-26.93-38.66,7.69-43.92" transform="translate(-3.27 -3)"/><path class="cls-2" d="M82.55,160.61c-1.18,1.32-6.27,4.85-7,4.64" transform="translate(-3.27 -3)"/><path class="cls-2" d="M81.66,160.64a19.46,19.46,0,0,1-3,2.4q-.91.65-1.89,1.23l-.67.37c-.42.23-.51.09,0,.15-.52-.06-2.26.81-1.22.93,1.42.16,2.9-.93,4-1.65a23.4,23.4,0,0,0,4.51-3.48c.5-.53-1.41-.35-1.78,0Z" transform="translate(-3.27 -3)"/><path class="cls-2" d="M86.29,164.93c4.8.5,9.8.23,10-.53" transform="translate(-3.27 -3)"/><path class="cls-2" d="M85.93,165.52a46.3,46.3,0,0,0,7.81.14c1.05-.08,2.83-.19,3.46-1.22.51-.81-1.45-.66-1.81-.08-.18.29-3.12.23-3.6.24a46.26,46.26,0,0,1-5.13-.26c-.79-.07-2,1-.73,1.18Z" transform="translate(-3.27 -3)"/><path class="cls-2" d="M92.38,175.65c-1.95,1.1-4.87,2.77-5.63,2.55" transform="translate(-3.27 -3)"/><path class="cls-2" d="M91.81,175.47q-1.26.72-2.55,1.41l-1.12.56-.53.23c-.17.06-.51.06-.25.1-.47-.08-2.25.72-1.23.87a5.47,5.47,0,0,0,2.89-.72c1.35-.62,2.64-1.36,3.93-2.09,1.13-.64-.63-.65-1.14-.36Z" transform="translate(-3.27 -3)"/><path class="cls-2" d="M99.29,189c1.32,1.18,4.72,3.76,4.16,2.79" transform="translate(-3.27 -3)"/><path class="cls-2" d="M98.4,189.4a30,30,0,0,0,3.52,2.72,2.15,2.15,0,0,0,1.42.5c.47-.08,1.41-.44,1.08-1.09s-2.28-.15-1.94.51c.07.12,0,.15,0,0l.35-.46,0,0,.73-.26c.17,0,.49.09.28,0a3.78,3.78,0,0,1-.43-.26c-.39-.24-.77-.52-1.14-.79-.73-.54-1.44-1.11-2.12-1.71s-2.4.25-1.78.8Z" transform="translate(-3.27 -3)"/><path class="cls-2" d="M96.21,197.19c-2.5.13-5,.26-5.55-.71" transform="translate(-3.27 -3)"/><path class="cls-2" d="M96.61,196.72c-1.29.07-4.16.65-5-.59-.32-.45-2.18.18-1.81.7a3,3,0,0,0,2.19.87,26.32,26.32,0,0,0,3.87,0,1.89,1.89,0,0,0,1.29-.5c.29-.34-.25-.45-.49-.44Z" transform="translate(-3.27 -3)"/><path class="cls-2" d="M93.83,135.31c-.43-3.29-2.07-6.5-3.3-9.55a172.36,172.36,0,0,1-6.21-18C79.91,92,79.7,75.59,82.09,59.4c2.15-14.58,6.53-30.45,19.1-39.5a26,26,0,0,1,14.27-4.52c2.15-.09,4.47.3,6.57-.26,2.29-.62,1.86-2.25-.43-1.63-1.61.43-5.48,0-7.69.18a34.38,34.38,0,0,0-12.77,4C88.29,24.38,82.52,39,79.61,52.41a121.45,121.45,0,0,0-.54,50.79A134.15,134.15,0,0,0,85.57,124c1.53,3.94,3.84,8.1,4.4,12.34.14,1.08,4,.24,3.86-1Z" transform="translate(-3.27 -3)"/><path class="cls-2" d="M103.77,18.34c25.89-16.27,41.78,10.77,61.76,20.3a24.18,24.18,0,0,1-18.29-4.15c.85,2.7,1.26,6.32,4.29,8.92-7-1-13-6.22-17.36-10.57,0,2.28-.48,5.49.36,8.18-10.42-5-23.79-21.65-30.76-22.68" transform="translate(-3.27 -3)"/><path class="cls-2" d="M103.77,17.13c3.83,1.18,3.64,11.38,4.23,14.92,1.84,10.3,8.43,14.48,15.5,21.15-5-5.2-6.91-15.17-8.88-21.75-.73-2.89-.92-6.68-2.78-9.14-.94-1.91-3.91-3.93-4.09-4.65" transform="translate(-3.27 -3)"/></g></svg>