<svg id="Layer_1" data-name="Layer 1" xmlns="http://www.w3.org/2000/svg" xmlns:xlink="http://www.w3.org/1999/xlink" viewBox="0 0 600 600"><defs><pattern id="freshwater_darker" data-name="freshwater darker" width="220" height="220" patternTransform="translate(474.92 -66.38) scale(0.91)" patternUnits="userSpaceOnUse" viewBox="0 0 220 220"><rect width="220" height="220" style="fill:none"/><path d="M187,224.4c9.4.69,17.48-5.69,25.82-9l-2-2.63a23,23,0,0,0-2.1,14,1.84,1.84,0,0,0,1.73,1.32c4.54.38,8.84-2.2,12.41-4.71,3.79-2.66,7.25-5.87,11.3-8.16l-2.69-1.54c.16,4.25-1.74,11.88,4.42,12.55,7.17.78,12.35-4.9,18-8.31,2-1.2.17-4.3-1.8-3.1-4.81,2.93-9.25,7.94-15.26,7.88a2.77,2.77,0,0,1-1.17-.15c-.19-.06-.16,0-.31-.19.06.06-.13-.25-.14-.29a2.21,2.21,0,0,1-.16-.91c-.12-2.5.14-5,0-7.48a1.81,1.81,0,0,0-2.69-1.55c-3.84,2.16-7.15,5.18-10.71,7.73-3.21,2.31-7.05,5-11.2,4.64l1.73,1.32a18.74,18.74,0,0,1,1.73-11.19c.58-1.25-.41-3.26-2-2.63-4.19,1.64-8.12,3.85-12.2,5.72s-8.25,3.42-12.67,3.09c-2.3-.16-2.29,3.42,0,3.59Z" style="fill:#3499c6"/><path d="M-33,224.4c9.4.69,17.48-5.69,25.82-9l-2-2.63a23,23,0,0,0-2.1,14,1.84,1.84,0,0,0,1.73,1.32c4.54.38,8.84-2.2,12.41-4.71,3.79-2.66,7.25-5.87,11.3-8.16l-2.69-1.54c.16,4.25-1.74,11.88,4.42,12.55,7.17.78,12.35-4.9,18-8.31,2-1.2.17-4.3-1.8-3.1-4.81,2.93-9.25,7.94-15.26,7.88a2.77,2.77,0,0,1-1.17-.15c-.19-.06-.16,0-.31-.19.06.06-.13-.25-.14-.29a2.21,2.21,0,0,1-.16-.91c-.12-2.5.14-5,0-7.48a1.81,1.81,0,0,0-2.69-1.55c-3.84,2.16-7.15,5.18-10.71,7.73-3.21,2.31-7,5-11.2,4.64l1.73,1.32a18.74,18.74,0,0,1,1.73-11.19c.58-1.25-.41-3.26-2-2.63-4.19,1.64-8.12,3.85-12.2,5.72s-8.25,3.42-12.67,3.09c-2.3-.16-2.29,3.42,0,3.59Z" style="fill:#3499c6"/><path d="M77,114.4c9.4.69,17.48-5.69,25.82-9l-2-2.63a23,23,0,0,0-2.1,14,1.84,1.84,0,0,0,1.73,1.32c4.54.38,8.84-2.2,12.41-4.71,3.79-2.66,7.25-5.87,11.3-8.16l-2.69-1.54c.16,4.25-1.74,11.88,4.42,12.55,7.17.78,12.35-4.9,18-8.31,2-1.2.17-4.3-1.8-3.1-4.81,2.93-9.25,7.94-15.26,7.88a2.77,2.77,0,0,1-1.17-.15c-.19-.06-.16,0-.31-.19.06.06-.13-.25-.14-.29a2.21,2.21,0,0,1-.16-.91c-.12-2.5.14-5,0-7.48a1.81,1.81,0,0,0-2.69-1.55c-3.84,2.16-7.15,5.18-10.71,7.73-3.21,2.31-7.05,5-11.2,4.64l1.73,1.32a18.74,18.74,0,0,1,1.73-11.19c.58-1.25-.41-3.26-2-2.63-4.19,1.64-8.12,3.85-12.2,5.72s-8.25,3.42-12.67,3.09c-2.3-.16-2.29,3.42,0,3.59Z" style="fill:#3499c6"/><path d="M187,4.4c9.4.69,17.48-5.69,25.82-8.95l-2-2.63a23,23,0,0,0-2.1,14,1.84,1.84,0,0,0,1.73,1.32c4.54.38,8.84-2.2,12.41-4.71,3.79-2.66,7.25-5.87,11.3-8.16l-2.69-1.54c.16,4.25-1.74,11.88,4.42,12.55,7.17.78,12.35-4.9,18-8.31,2-1.2.17-4.3-1.8-3.1-4.81,2.93-9.25,7.94-15.26,7.88a2.77,2.77,0,0,1-1.17-.15c-.19-.06-.16,0-.31-.19.06.06-.13-.25-.14-.29a2.21,2.21,0,0,1-.16-.91c-.12-2.5.14-5,0-7.48a1.81,1.81,0,0,0-2.69-1.55c-3.84,2.16-7.15,5.18-10.71,7.73-3.21,2.31-7.05,5-11.2,4.64l1.73,1.32a18.74,18.74,0,0,1,1.73-11.19c.58-1.25-.41-3.26-2-2.63-4.19,1.64-8.12,3.85-12.2,5.72S191.44,1.14,187,.81c-2.3-.16-2.29,3.42,0,3.59Z" style="fill:#3499c6"/><path d="M-33,4.4c9.4.69,17.48-5.69,25.82-8.95l-2-2.63a23,23,0,0,0-2.1,14A1.84,1.84,0,0,0-9.55,8.09C-5,8.47-.71,5.89,2.86,3.38,6.65.72,10.11-2.49,14.16-4.78L11.47-6.32c.16,4.25-1.74,11.88,4.42,12.55,7.17.78,12.35-4.9,18-8.31,2-1.2.17-4.3-1.8-3.1C27.24-2.25,22.8,2.76,16.79,2.7a2.77,2.77,0,0,1-1.17-.15c-.19-.06-.16,0-.31-.19.06.06-.13-.25-.14-.29A2.21,2.21,0,0,1,15,1.16c-.12-2.5.14-5,0-7.48a1.81,1.81,0,0,0-2.69-1.55C8.52-5.71,5.21-2.69,1.65-.14c-3.21,2.31-7,5-11.2,4.64l1.73,1.32A18.74,18.74,0,0,1-6.09-5.37c.58-1.25-.41-3.26-2-2.63-4.19,1.64-8.12,3.85-12.2,5.72S-28.56,1.14-33,.81c-2.3-.16-2.29,3.42,0,3.59Z" style="fill:#3499c6"/></pattern></defs><rect width="600" height="600" style="fill:#0071bc"/><rect width="600" height="600" style="fill:url(#freshwater_darker)"/></svg>