<svg id="Layer_1" data-name="Layer 1" xmlns="http://www.w3.org/2000/svg" xmlns:xlink="http://www.w3.org/1999/xlink" viewBox="0 0 600 600"><defs><clipPath id="clip-path"><rect x="0.54" y="0.58" width="599.5" height="599.5" style="fill:#175012"/></clipPath><clipPath id="clip-path-2"><rect x="0.54" y="0.58" width="599.5" height="599.5" style="fill:none"/></clipPath><pattern id="medium_3_forest" data-name="medium 3 forest" width="300" height="300" patternTransform="translate(215.5 2078)" patternUnits="userSpaceOnUse" viewBox="0 0 300 300"><rect width="300" height="300" style="fill:none"/><path d="M227.63,336.24c.45-7.26-.75-14.78-.28-22.15,6.3-.06,13.22-1.89,19.58-.46-2.64-7.29-10.14-13.07-13-20.32,2.88.29,6.36,1.48,9.22.94-2.52-6.39-9.79-11.28-13.3-17.23,2.8.34,5.5,2.15,8.5,1.76-1.14-2.55-3.56-5.21-5.55-7.18-2.38-2.37-5.19-6.19-7.78-8l-.14-.05c-2.59,1.78-5.4,5.61-7.78,8a27.07,27.07,0,0,0-5.55,7.18c3,.39,5.7-1.42,8.5-1.76-3.51,5.95-10.78,10.84-13.3,17.24,2.86.54,6.34-.66,9.22-.95-2.81,7.25-10.31,13-13,20.32,6.36-1.43,13.28.4,19.58.47.47,7.36-.73,14.89-.28,22.14a47.34,47.34,0,0,1,5.18.22" style="fill:#5b7a52"/><path d="M228.58,336.24c.42-7.39-.72-14.76-.28-22.15l-1,1c6.43-.1,12.93-1.86,19.33-.5.65.14,1.44-.44,1.17-1.16-2.87-7.67-9.94-12.77-12.95-20.32l-.92,1.2c3.18.36,6.25,1.43,9.47.91a1,1,0,0,0,.67-1.17c-2.85-7-9.59-11.14-13.4-17.46l-1.08,1.39c3,.44,5.67,2.09,8.76,1.8a1,1,0,0,0,.82-1.43c-1.61-3.44-4.45-5.95-7-8.71-1.27-1.39-2.48-2.85-3.79-4.21-.82-.85-2.07-2.45-3.29-2.72s-2.91,1.9-3.65,2.68c-1.31,1.36-2.52,2.81-3.79,4.21-2.51,2.75-5.35,5.26-7,8.7a1,1,0,0,0,.82,1.43c3.09.3,5.77-1.36,8.76-1.79l-1.08-1.4c-3.81,6.33-10.55,10.49-13.4,17.46a1,1,0,0,0,.67,1.17c3.22.52,6.29-.55,9.47-.91l-.92-1.2c-3,7.56-10.08,12.66-12.95,20.32-.27.73.52,1.31,1.17,1.17,6.4-1.36,12.9.39,19.33.5l-1-.95c.44,7.38-.7,14.75-.28,22.14a1,1,0,0,0,1,.95,42.75,42.75,0,0,1,5.18.22,1,1,0,0,0,0-1.9,42.75,42.75,0,0,0-5.18-.22l.95.95c-.42-7.39.72-14.76.28-22.14a1,1,0,0,0-.95-.95c-6.63-.11-13.23-1.84-19.84-.43l1.17,1.16c2.86-7.62,9.93-12.74,13-20.32a1,1,0,0,0-.91-1.2c-3,.34-6,1.46-9,1l.67,1.17c2.75-6.74,9.5-10.87,13.2-17a1,1,0,0,0-1.07-1.39c-2.81.4-5.35,2-8.25,1.72l.82,1.43c1.46-3.12,4-5.42,6.28-7.9,2.16-2.33,4.1-5.05,6.71-6.91l-.73.1a5.41,5.41,0,0,1,1.48,1.27c.58.54,1.12,1.11,1.66,1.69,1.13,1.24,2.21,2.53,3.35,3.76,2.35,2.53,4.92,4.86,6.41,8l.82-1.43c-2.9.28-5.45-1.32-8.25-1.73a1,1,0,0,0-1.07,1.4c3.7,6.14,10.45,10.27,13.2,17l.67-1.17c-3,.48-6-.65-9-1a.94.94,0,0,0-.91,1.2c3,7.57,10.09,12.69,13,20.32l1.17-1.17c-6.61-1.4-13.21.33-19.84.43a1,1,0,0,0-.95.95c-.44,7.39.7,14.76.28,22.15-.07,1.22,1.84,1.21,1.9,0Z" style="fill:#5b7a52"/><path d="M77.63,336.24c.45-7.26-.75-14.78-.28-22.15,6.3-.06,13.22-1.89,19.58-.46-2.64-7.29-10.14-13.07-13-20.32,2.88.29,6.36,1.48,9.22.94C90.68,287.86,83.41,283,79.9,277c2.8.34,5.5,2.15,8.5,1.76-1.14-2.55-3.56-5.21-5.55-7.18-2.38-2.37-5.19-6.19-7.78-8l-.14-.05c-2.59,1.78-5.4,5.61-7.78,8a27.07,27.07,0,0,0-5.55,7.18c3,.39,5.7-1.42,8.5-1.76-3.51,5.95-10.78,10.84-13.3,17.24,2.86.54,6.34-.66,9.22-.95-2.81,7.25-10.31,13-12.95,20.32,6.36-1.43,13.28.4,19.58.47.47,7.36-.73,14.89-.28,22.14a47.34,47.34,0,0,1,5.18.22" style="fill:#5b7a52"/><path d="M78.58,336.24c.42-7.39-.72-14.76-.28-22.15l-1,1c6.43-.1,12.93-1.86,19.33-.5.65.14,1.44-.44,1.17-1.16-2.87-7.67-9.94-12.77-12.95-20.32l-.92,1.2c3.18.36,6.25,1.43,9.47.91a1,1,0,0,0,.67-1.17c-2.85-7-9.59-11.14-13.4-17.46l-1.08,1.39c3,.44,5.67,2.09,8.76,1.8a1,1,0,0,0,.82-1.43c-1.61-3.44-4.45-5.95-7-8.71-1.27-1.39-2.48-2.85-3.79-4.21-.82-.85-2.07-2.45-3.29-2.72s-2.91,1.9-3.65,2.68c-1.31,1.36-2.52,2.81-3.79,4.21-2.51,2.75-5.35,5.26-7,8.7a1,1,0,0,0,.82,1.43c3.09.3,5.77-1.36,8.76-1.79l-1.08-1.4C65.47,282.82,58.73,287,55.88,294a1,1,0,0,0,.67,1.17c3.22.52,6.29-.55,9.47-.91L65.1,293c-3,7.56-10.08,12.66-12.95,20.32-.27.73.52,1.31,1.17,1.17,6.4-1.36,12.9.39,19.33.5l-1-.95c.44,7.38-.7,14.75-.28,22.14a1,1,0,0,0,1,.95,42.75,42.75,0,0,1,5.18.22,1,1,0,0,0,0-1.9,42.75,42.75,0,0,0-5.18-.22l.95.95c-.42-7.39.72-14.76.28-22.14a1,1,0,0,0-.95-.95c-6.63-.11-13.23-1.84-19.84-.43L54,313.83c2.86-7.62,9.93-12.74,13-20.32a1,1,0,0,0-.91-1.2c-2.95.34-6,1.46-9,1l.67,1.17c2.75-6.74,9.5-10.87,13.2-17a1,1,0,0,0-1.07-1.39c-2.81.4-5.35,2-8.25,1.72l.82,1.43c1.46-3.12,4-5.42,6.28-7.9,2.16-2.33,4.1-5.05,6.71-6.91l-.73.1a5.41,5.41,0,0,1,1.48,1.27c.58.54,1.12,1.11,1.66,1.69C79,268.7,80,270,81.17,271.22c2.35,2.53,4.92,4.86,6.41,8l.82-1.43c-2.9.28-5.45-1.32-8.25-1.73a1,1,0,0,0-1.07,1.4c3.7,6.14,10.45,10.27,13.2,17l.67-1.17c-3,.48-6-.65-9-1a.94.94,0,0,0-.91,1.2c3,7.57,10.09,12.69,13,20.32l1.17-1.17c-6.61-1.4-13.21.33-19.84.43a1,1,0,0,0-.95.95c-.44,7.39.7,14.76.28,22.15-.07,1.22,1.84,1.21,1.9,0Z" style="fill:#5b7a52"/><path d="M302.63,186.24c.45-7.26-.75-14.78-.28-22.15,6.3-.06,13.22-1.89,19.58-.46-2.64-7.29-10.14-13.07-12.95-20.32,2.88.29,6.36,1.48,9.22.94-2.52-6.39-9.79-11.28-13.3-17.23,2.8.34,5.5,2.15,8.5,1.76-1.14-2.55-3.56-5.21-5.55-7.18-2.38-2.37-5.19-6.19-7.78-8l-.14,0c-2.59,1.78-5.4,5.61-7.78,8a27.07,27.07,0,0,0-5.55,7.18c3,.39,5.7-1.42,8.5-1.76-3.51,5.95-10.78,10.84-13.3,17.24,2.86.54,6.34-.66,9.22-1-2.81,7.25-10.31,13-12.95,20.32,6.36-1.43,13.28.4,19.58.47.47,7.36-.73,14.89-.28,22.14a47.34,47.34,0,0,1,5.18.22" style="fill:#5b7a52"/><path d="M303.58,186.24c.42-7.39-.72-14.76-.28-22.15l-.95.95c6.43-.1,12.93-1.86,19.33-.5.65.14,1.44-.44,1.17-1.16-2.87-7.67-9.94-12.77-13-20.32l-.92,1.2c3.18.36,6.25,1.43,9.47.91a1,1,0,0,0,.67-1.17c-2.85-7-9.59-11.14-13.4-17.46l-1.08,1.39c3,.44,5.67,2.09,8.76,1.8a1,1,0,0,0,.82-1.43c-1.61-3.44-4.45-6-7-8.71-1.27-1.39-2.48-2.85-3.79-4.21-.82-.85-2.07-2.45-3.29-2.72s-2.91,1.9-3.65,2.68c-1.31,1.36-2.52,2.81-3.79,4.21-2.51,2.75-5.35,5.26-7,8.7a1,1,0,0,0,.82,1.43c3.09.3,5.77-1.36,8.76-1.79l-1.08-1.4c-3.81,6.33-10.55,10.49-13.4,17.46a1,1,0,0,0,.67,1.17c3.22.52,6.29-.55,9.47-.91l-.92-1.2c-3,7.56-10.08,12.66-13,20.32-.27.73.52,1.31,1.17,1.17,6.4-1.36,12.9.39,19.33.5l-.95-.95c.44,7.38-.7,14.75-.28,22.14a1,1,0,0,0,.95.95,42.75,42.75,0,0,1,5.18.22,1,1,0,0,0,0-1.9,42.75,42.75,0,0,0-5.18-.22l.95.95c-.42-7.39.72-14.76.28-22.14a1,1,0,0,0-1-1c-6.63-.11-13.23-1.84-19.84-.43l1.17,1.16c2.86-7.62,9.93-12.74,12.95-20.32a1,1,0,0,0-.91-1.2c-2.95.34-6,1.46-9,1l.67,1.17c2.75-6.74,9.5-10.87,13.2-17a1,1,0,0,0-1.07-1.39c-2.81.4-5.35,2-8.25,1.72l.82,1.43c1.46-3.12,4-5.42,6.28-7.9,2.16-2.33,4.1-5,6.71-6.91l-.73.1a5.41,5.41,0,0,1,1.48,1.27c.58.54,1.12,1.11,1.66,1.69,1.13,1.24,2.21,2.53,3.35,3.76,2.35,2.53,4.92,4.86,6.41,8l.82-1.43c-2.9.28-5.45-1.32-8.25-1.73a1,1,0,0,0-1.07,1.4c3.7,6.14,10.45,10.27,13.2,17l.67-1.17c-3,.48-6-.65-9-1a.94.94,0,0,0-.91,1.2c3,7.57,10.09,12.69,12.95,20.32l1.17-1.17c-6.61-1.4-13.21.33-19.84.43a1,1,0,0,0-1,1c-.44,7.39.7,14.76.28,22.15-.07,1.22,1.84,1.21,1.9,0Z" style="fill:#5b7a52"/><path d="M152.63,186.24c.45-7.26-.75-14.78-.28-22.15,6.3-.06,13.22-1.89,19.58-.46-2.64-7.29-10.14-13.07-13-20.32,2.88.29,6.36,1.48,9.22.94-2.52-6.39-9.79-11.28-13.3-17.23,2.8.34,5.5,2.15,8.5,1.76-1.14-2.55-3.56-5.21-5.55-7.18-2.38-2.37-5.19-6.19-7.78-8l-.14,0c-2.59,1.78-5.4,5.61-7.78,8a27.07,27.07,0,0,0-5.55,7.18c3,.39,5.7-1.42,8.5-1.76-3.51,5.95-10.78,10.84-13.3,17.24,2.86.54,6.34-.66,9.22-1-2.81,7.25-10.31,13-13,20.32,6.36-1.43,13.28.4,19.58.47.47,7.36-.73,14.89-.28,22.14a47.34,47.34,0,0,1,5.18.22" style="fill:#5b7a52"/><path d="M153.58,186.24c.42-7.39-.72-14.76-.28-22.15l-1,.95c6.43-.1,12.93-1.86,19.33-.5.65.14,1.44-.44,1.17-1.16-2.87-7.67-9.94-12.77-12.95-20.32l-.92,1.2c3.18.36,6.25,1.43,9.47.91a1,1,0,0,0,.67-1.17c-2.85-7-9.59-11.14-13.4-17.46l-1.08,1.39c3,.44,5.67,2.09,8.76,1.8a1,1,0,0,0,.82-1.43c-1.61-3.44-4.45-6-7-8.71-1.27-1.39-2.48-2.85-3.79-4.21-.82-.85-2.07-2.45-3.29-2.72s-2.91,1.9-3.65,2.68c-1.31,1.36-2.52,2.81-3.79,4.21-2.51,2.75-5.35,5.26-7,8.7a1,1,0,0,0,.82,1.43c3.09.3,5.77-1.36,8.76-1.79l-1.08-1.4c-3.81,6.33-10.55,10.49-13.4,17.46a1,1,0,0,0,.67,1.17c3.22.52,6.29-.55,9.47-.91l-.92-1.2c-3,7.56-10.08,12.66-12.95,20.32-.27.73.52,1.31,1.17,1.17,6.4-1.36,12.9.39,19.33.5l-1-.95c.44,7.38-.7,14.75-.28,22.14a1,1,0,0,0,1,.95,42.75,42.75,0,0,1,5.18.22,1,1,0,0,0,0-1.9,42.75,42.75,0,0,0-5.18-.22l.95.95c-.42-7.39.72-14.76.28-22.14a1,1,0,0,0-.95-1c-6.63-.11-13.23-1.84-19.84-.43l1.17,1.16c2.86-7.62,9.93-12.74,13-20.32a1,1,0,0,0-.91-1.2c-3,.34-6,1.46-9,1l.67,1.17c2.75-6.74,9.5-10.87,13.2-17a1,1,0,0,0-1.07-1.39c-2.81.4-5.35,2-8.25,1.72l.82,1.43c1.46-3.12,4-5.42,6.28-7.9,2.16-2.33,4.1-5,6.71-6.91l-.73.1a5.41,5.41,0,0,1,1.48,1.27c.58.54,1.12,1.11,1.66,1.69,1.13,1.24,2.21,2.53,3.35,3.76,2.35,2.53,4.92,4.86,6.41,8l.82-1.43c-2.9.28-5.45-1.32-8.25-1.73a1,1,0,0,0-1.07,1.4c3.7,6.14,10.45,10.27,13.2,17l.67-1.17c-3,.48-6-.65-9-1a.94.94,0,0,0-.91,1.2c3,7.57,10.09,12.69,13,20.32l1.17-1.17c-6.61-1.4-13.21.33-19.84.43a1,1,0,0,0-.95,1c-.44,7.39.7,14.76.28,22.15-.07,1.22,1.84,1.21,1.9,0Z" style="fill:#5b7a52"/><path d="M2.63,186.24c.45-7.26-.75-14.78-.28-22.15,6.3-.06,13.22-1.89,19.58-.46C19.29,156.34,11.79,150.56,9,143.31c2.88.29,6.36,1.48,9.22.94C15.68,137.86,8.41,133,4.9,127c2.8.34,5.5,2.15,8.5,1.76-1.14-2.55-3.56-5.21-5.55-7.18-2.38-2.37-5.19-6.19-7.78-8l-.14,0c-2.59,1.78-5.4,5.61-7.78,8a27.07,27.07,0,0,0-5.55,7.18c3,.39,5.7-1.42,8.5-1.76-3.51,5.95-10.78,10.84-13.3,17.24,2.86.54,6.34-.66,9.22-1-2.81,7.25-10.31,13-12.95,20.32,6.36-1.43,13.28.4,19.58.47.47,7.36-.73,14.89-.28,22.14a47.34,47.34,0,0,1,5.18.22" style="fill:#5b7a52"/><path d="M3.58,186.24c.42-7.39-.72-14.76-.28-22.15l-.95.95c6.43-.1,12.93-1.86,19.33-.5.65.14,1.44-.44,1.17-1.16C20,155.71,12.91,150.61,9.9,143.06L9,144.26c3.18.36,6.25,1.43,9.47.91a1,1,0,0,0,.67-1.17c-2.85-7-9.59-11.14-13.4-17.46l-1.08,1.39c3,.44,5.67,2.09,8.76,1.8a1,1,0,0,0,.82-1.43c-1.61-3.44-4.45-6-7-8.71-1.27-1.39-2.48-2.85-3.79-4.21-.82-.85-2.07-2.45-3.29-2.72s-2.91,1.9-3.65,2.68c-1.31,1.36-2.52,2.81-3.79,4.21-2.51,2.75-5.35,5.26-7,8.7a1,1,0,0,0,.82,1.43c3.09.3,5.77-1.36,8.76-1.79l-1.08-1.4C-9.53,132.82-16.27,137-19.12,144a1,1,0,0,0,.67,1.17c3.22.52,6.29-.55,9.47-.91L-9.9,143c-3,7.56-10.08,12.66-12.95,20.32-.27.73.52,1.31,1.17,1.17,6.4-1.36,12.9.39,19.33.5l-.95-.95c.44,7.38-.7,14.75-.28,22.14a1,1,0,0,0,1,.95,42.75,42.75,0,0,1,5.18.22,1,1,0,0,0,0-1.9,42.75,42.75,0,0,0-5.18-.22l1,.95c-.42-7.39.72-14.76.28-22.14a1,1,0,0,0-1-1c-6.63-.11-13.23-1.84-19.84-.43l1.17,1.16c2.86-7.62,9.93-12.74,13-20.32a1,1,0,0,0-.91-1.2c-2.95.34-6,1.46-9,1l.67,1.17c2.75-6.74,9.5-10.87,13.2-17a1,1,0,0,0-1.07-1.39c-2.81.4-5.35,2-8.25,1.72l.82,1.43c1.46-3.12,4-5.42,6.28-7.9,2.16-2.33,4.1-5,6.71-6.91l-.73.1a5.41,5.41,0,0,1,1.48,1.27c.58.54,1.12,1.11,1.66,1.69C4,118.7,5,120,6.17,121.22c2.35,2.53,4.92,4.86,6.41,8l.82-1.43c-2.9.28-5.45-1.32-8.25-1.73a1,1,0,0,0-1.07,1.4c3.7,6.14,10.45,10.27,13.2,17l.67-1.17c-3,.48-6-.65-9-1a.94.94,0,0,0-.91,1.2c3,7.57,10.09,12.69,13,20.32l1.17-1.17c-6.61-1.4-13.21.33-19.84.43a1,1,0,0,0-1,1c-.44,7.39.7,14.76.28,22.15-.07,1.22,1.84,1.21,1.9,0Z" style="fill:#5b7a52"/><path d="M227.63,36.24c.45-7.26-.75-14.78-.28-22.15,6.3-.06,13.22-1.89,19.58-.46C244.29,6.34,236.79.56,234-6.69c2.88.29,6.36,1.48,9.22.94C240.68-12.14,233.41-17,229.9-23c2.8.34,5.5,2.15,8.5,1.76-1.14-2.55-3.56-5.21-5.55-7.18-2.38-2.37-5.19-6.19-7.78-8l-.14-.05c-2.59,1.78-5.4,5.61-7.78,8a27.07,27.07,0,0,0-5.55,7.18c3,.39,5.7-1.42,8.5-1.76-3.51,6-10.78,10.84-13.3,17.24,2.86.54,6.34-.66,9.22-1-2.81,7.25-10.31,13-13,20.32,6.36-1.43,13.28.4,19.58.47.47,7.36-.73,14.89-.28,22.14a47.34,47.34,0,0,1,5.18.22" style="fill:#5b7a52"/><path d="M228.58,36.24c.42-7.39-.72-14.76-.28-22.15l-1,.95c6.43-.1,12.93-1.86,19.33-.5.65.14,1.44-.44,1.17-1.16C245,5.71,237.91.61,234.9-6.94L234-5.74c3.18.36,6.25,1.43,9.47.91A1,1,0,0,0,244.12-6c-2.85-7-9.59-11.14-13.4-17.46l-1.08,1.39c3,.44,5.67,2.09,8.76,1.8a1,1,0,0,0,.82-1.43c-1.61-3.44-4.45-5.95-7-8.71-1.27-1.39-2.48-2.85-3.79-4.21-.82-.85-2.07-2.45-3.29-2.72s-2.91,1.9-3.65,2.68c-1.31,1.36-2.52,2.81-3.79,4.21-2.51,2.75-5.35,5.26-7,8.7a1,1,0,0,0,.82,1.43c3.09.3,5.77-1.36,8.76-1.79l-1.08-1.4C215.47-17.18,208.73-13,205.88-6a1,1,0,0,0,.67,1.17c3.22.52,6.29-.55,9.47-.91L215.1-7C212.09.57,205,5.67,202.15,13.33c-.27.73.52,1.31,1.17,1.17,6.4-1.36,12.9.39,19.33.5l-1-.95c.44,7.38-.7,14.75-.28,22.14a1,1,0,0,0,1,1,42.75,42.75,0,0,1,5.18.22,1,1,0,0,0,0-1.9,42.75,42.75,0,0,0-5.18-.22l.95.95c-.42-7.39.72-14.76.28-22.14a1,1,0,0,0-.95-1c-6.63-.11-13.23-1.84-19.84-.43L204,13.83c2.86-7.62,9.93-12.74,13-20.32a1,1,0,0,0-.91-1.2c-3,.34-6,1.46-9,1l.67,1.17c2.75-6.74,9.5-10.87,13.2-17a1,1,0,0,0-1.07-1.39c-2.81.4-5.35,2-8.25,1.72l.82,1.43c1.46-3.12,4-5.42,6.28-7.9,2.16-2.33,4.1-5.05,6.71-6.91l-.73.1a5.41,5.41,0,0,1,1.48,1.27c.58.54,1.12,1.11,1.66,1.69C229-31.3,230-30,231.17-28.78c2.35,2.53,4.92,4.86,6.41,8l.82-1.43c-2.9.28-5.45-1.32-8.25-1.73a1,1,0,0,0-1.07,1.4c3.7,6.14,10.45,10.27,13.2,17L243-6.66c-3,.48-6-.65-9-1a.94.94,0,0,0-.91,1.2c3,7.57,10.09,12.69,13,20.32l1.17-1.17c-6.61-1.4-13.21.33-19.84.43a1,1,0,0,0-.95.95c-.44,7.39.7,14.76.28,22.15-.07,1.22,1.84,1.21,1.9,0Z" style="fill:#5b7a52"/><path d="M77.63,36.24c.45-7.26-.75-14.78-.28-22.15,6.3-.06,13.22-1.89,19.58-.46C94.29,6.34,86.79.56,84-6.69c2.88.29,6.36,1.48,9.22.94C90.68-12.14,83.41-17,79.9-23c2.8.34,5.5,2.15,8.5,1.76-1.14-2.55-3.56-5.21-5.55-7.18-2.38-2.37-5.19-6.19-7.78-8l-.14-.05c-2.59,1.78-5.4,5.61-7.78,8a27.07,27.07,0,0,0-5.55,7.18c3,.39,5.7-1.42,8.5-1.76-3.51,6-10.78,10.84-13.3,17.24,2.86.54,6.34-.66,9.22-1C63.21.51,55.71,6.29,53.07,13.58c6.36-1.43,13.28.4,19.58.47.47,7.36-.73,14.89-.28,22.14a47.34,47.34,0,0,1,5.18.22" style="fill:#5b7a52"/><path d="M78.58,36.24c.42-7.39-.72-14.76-.28-22.15l-1,.95c6.43-.1,12.93-1.86,19.33-.5.65.14,1.44-.44,1.17-1.16C95,5.71,87.91.61,84.9-6.94L84-5.74c3.18.36,6.25,1.43,9.47.91A1,1,0,0,0,94.12-6c-2.85-7-9.59-11.14-13.4-17.46l-1.08,1.39c3,.44,5.67,2.09,8.76,1.8a1,1,0,0,0,.82-1.43c-1.61-3.44-4.45-5.95-7-8.71-1.27-1.39-2.48-2.85-3.79-4.21-.82-.85-2.07-2.45-3.29-2.72s-2.91,1.9-3.65,2.68c-1.31,1.36-2.52,2.81-3.79,4.21-2.51,2.75-5.35,5.26-7,8.7a1,1,0,0,0,.82,1.43c3.09.3,5.77-1.36,8.76-1.79l-1.08-1.4C65.47-17.18,58.73-13,55.88-6a1,1,0,0,0,.67,1.17c3.22.52,6.29-.55,9.47-.91L65.1-7C62.09.57,55,5.67,52.15,13.33c-.27.73.52,1.31,1.17,1.17,6.4-1.36,12.9.39,19.33.5l-1-.95c.44,7.38-.7,14.75-.28,22.14a1,1,0,0,0,1,1,42.75,42.75,0,0,1,5.18.22,1,1,0,0,0,0-1.9,42.75,42.75,0,0,0-5.18-.22l.95.95c-.42-7.39.72-14.76.28-22.14a1,1,0,0,0-.95-1C66,13,59.42,11.26,52.81,12.67L54,13.83c2.86-7.62,9.93-12.74,13-20.32A1,1,0,0,0,66-7.69c-2.95.34-6,1.46-9,1l.67,1.17c2.75-6.74,9.5-10.87,13.2-17a1,1,0,0,0-1.07-1.39c-2.81.4-5.35,2-8.25,1.72l.82,1.43c1.46-3.12,4-5.42,6.28-7.9,2.16-2.33,4.1-5.05,6.71-6.91l-.73.1a5.41,5.41,0,0,1,1.48,1.27c.58.54,1.12,1.11,1.66,1.69C79-31.3,80-30,81.17-28.78c2.35,2.53,4.92,4.86,6.41,8l.82-1.43c-2.9.28-5.45-1.32-8.25-1.73a1,1,0,0,0-1.07,1.4c3.7,6.14,10.45,10.27,13.2,17L93-6.66c-3,.48-6-.65-9-1a.94.94,0,0,0-.91,1.2c3,7.57,10.09,12.69,13,20.32l1.17-1.17c-6.61-1.4-13.21.33-19.84.43a1,1,0,0,0-.95.95c-.44,7.39.7,14.76.28,22.15-.07,1.22,1.84,1.21,1.9,0Z" style="fill:#5b7a52"/></pattern><pattern id="medium_3_forest-3" data-name="medium 3 forest" width="300" height="300" patternTransform="translate(365.5 2078)" patternUnits="userSpaceOnUse" viewBox="0 0 300 300"><rect width="300" height="300" style="fill:none"/><path d="M227.63,336.24c.45-7.26-.75-14.78-.28-22.15,6.3-.06,13.22-1.89,19.58-.46-2.64-7.29-10.14-13.07-13-20.32,2.88.29,6.36,1.48,9.22.94-2.52-6.39-9.79-11.28-13.3-17.23,2.8.34,5.5,2.15,8.5,1.76-1.14-2.55-3.56-5.21-5.55-7.18-2.38-2.37-5.19-6.19-7.78-8l-.14-.05c-2.59,1.78-5.4,5.61-7.78,8a27.07,27.07,0,0,0-5.55,7.18c3,.39,5.7-1.42,8.5-1.76-3.51,5.95-10.78,10.84-13.3,17.24,2.86.54,6.34-.66,9.22-.95-2.81,7.25-10.31,13-13,20.32,6.36-1.43,13.28.4,19.58.47.47,7.36-.73,14.89-.28,22.14a47.34,47.34,0,0,1,5.18.22" style="fill:#5b7a52"/><path d="M228.58,336.24c.42-7.39-.72-14.76-.28-22.15l-1,1c6.43-.1,12.93-1.86,19.33-.5.65.14,1.44-.44,1.17-1.16-2.87-7.67-9.94-12.77-12.95-20.32l-.92,1.2c3.18.36,6.25,1.43,9.47.91a1,1,0,0,0,.67-1.17c-2.85-7-9.59-11.14-13.4-17.46l-1.08,1.39c3,.44,5.67,2.09,8.76,1.8a1,1,0,0,0,.82-1.43c-1.61-3.44-4.45-5.95-7-8.71-1.27-1.39-2.48-2.85-3.79-4.21-.82-.85-2.07-2.45-3.29-2.72s-2.91,1.9-3.65,2.68c-1.31,1.36-2.52,2.81-3.79,4.21-2.51,2.75-5.35,5.26-7,8.7a1,1,0,0,0,.82,1.43c3.09.3,5.77-1.36,8.76-1.79l-1.08-1.4c-3.81,6.33-10.55,10.49-13.4,17.46a1,1,0,0,0,.67,1.17c3.22.52,6.29-.55,9.47-.91l-.92-1.2c-3,7.56-10.08,12.66-12.95,20.32-.27.73.52,1.31,1.17,1.17,6.4-1.36,12.9.39,19.33.5l-1-.95c.44,7.38-.7,14.75-.28,22.14a1,1,0,0,0,1,.95,42.75,42.75,0,0,1,5.18.22,1,1,0,0,0,0-1.9,42.75,42.75,0,0,0-5.18-.22l.95.95c-.42-7.39.72-14.76.28-22.14a1,1,0,0,0-.95-.95c-6.63-.11-13.23-1.84-19.84-.43l1.17,1.16c2.86-7.62,9.93-12.74,13-20.32a1,1,0,0,0-.91-1.2c-3,.34-6,1.46-9,1l.67,1.17c2.75-6.74,9.5-10.87,13.2-17a1,1,0,0,0-1.07-1.39c-2.81.4-5.35,2-8.25,1.72l.82,1.43c1.46-3.12,4-5.42,6.28-7.9,2.16-2.33,4.1-5.05,6.71-6.91l-.73.1a5.41,5.41,0,0,1,1.48,1.27c.58.54,1.12,1.11,1.66,1.69,1.13,1.24,2.21,2.53,3.35,3.76,2.35,2.53,4.92,4.86,6.41,8l.82-1.43c-2.9.28-5.45-1.32-8.25-1.73a1,1,0,0,0-1.07,1.4c3.7,6.14,10.45,10.27,13.2,17l.67-1.17c-3,.48-6-.65-9-1a.94.94,0,0,0-.91,1.2c3,7.57,10.09,12.69,13,20.32l1.17-1.17c-6.61-1.4-13.21.33-19.84.43a1,1,0,0,0-.95.95c-.44,7.39.7,14.76.28,22.15-.07,1.22,1.84,1.21,1.9,0Z" style="fill:#5b7a52"/><path d="M77.63,336.24c.45-7.26-.75-14.78-.28-22.15,6.3-.06,13.22-1.89,19.58-.46-2.64-7.29-10.14-13.07-13-20.32,2.88.29,6.36,1.48,9.22.94C90.68,287.86,83.41,283,79.9,277c2.8.34,5.5,2.15,8.5,1.76-1.14-2.55-3.56-5.21-5.55-7.18-2.38-2.37-5.19-6.19-7.78-8l-.14-.05c-2.59,1.78-5.4,5.61-7.78,8a27.07,27.07,0,0,0-5.55,7.18c3,.39,5.7-1.42,8.5-1.76-3.51,5.95-10.78,10.84-13.3,17.24,2.86.54,6.34-.66,9.22-.95-2.81,7.25-10.31,13-12.95,20.32,6.36-1.43,13.28.4,19.58.47.47,7.36-.73,14.89-.28,22.14a47.34,47.34,0,0,1,5.18.22" style="fill:#5b7a52"/><path d="M78.58,336.24c.42-7.39-.72-14.76-.28-22.15l-1,1c6.43-.1,12.93-1.86,19.33-.5.65.14,1.44-.44,1.17-1.16-2.87-7.67-9.94-12.77-12.95-20.32l-.92,1.2c3.18.36,6.25,1.43,9.47.91a1,1,0,0,0,.67-1.17c-2.85-7-9.59-11.14-13.4-17.46l-1.08,1.39c3,.44,5.67,2.09,8.76,1.8a1,1,0,0,0,.82-1.43c-1.61-3.44-4.45-5.95-7-8.71-1.27-1.39-2.48-2.85-3.79-4.21-.82-.85-2.07-2.45-3.29-2.72s-2.91,1.9-3.65,2.68c-1.31,1.36-2.52,2.81-3.79,4.21-2.51,2.75-5.35,5.26-7,8.7a1,1,0,0,0,.82,1.43c3.09.3,5.77-1.36,8.76-1.79l-1.08-1.4C65.47,282.82,58.73,287,55.88,294a1,1,0,0,0,.67,1.17c3.22.52,6.29-.55,9.47-.91L65.1,293c-3,7.56-10.08,12.66-12.95,20.32-.27.73.52,1.31,1.17,1.17,6.4-1.36,12.9.39,19.33.5l-1-.95c.44,7.38-.7,14.75-.28,22.14a1,1,0,0,0,1,.95,42.75,42.75,0,0,1,5.18.22,1,1,0,0,0,0-1.9,42.75,42.75,0,0,0-5.18-.22l.95.95c-.42-7.39.72-14.76.28-22.14a1,1,0,0,0-.95-.95c-6.63-.11-13.23-1.84-19.84-.43L54,313.83c2.86-7.62,9.93-12.74,13-20.32a1,1,0,0,0-.91-1.2c-2.95.34-6,1.46-9,1l.67,1.17c2.75-6.74,9.5-10.87,13.2-17a1,1,0,0,0-1.07-1.39c-2.81.4-5.35,2-8.25,1.72l.82,1.43c1.46-3.12,4-5.42,6.28-7.9,2.16-2.33,4.1-5.05,6.71-6.91l-.73.1a5.41,5.41,0,0,1,1.48,1.27c.58.54,1.12,1.11,1.66,1.69C79,268.7,80,270,81.17,271.22c2.35,2.53,4.92,4.86,6.41,8l.82-1.43c-2.9.28-5.45-1.32-8.25-1.73a1,1,0,0,0-1.07,1.4c3.7,6.14,10.45,10.27,13.2,17l.67-1.17c-3,.48-6-.65-9-1a.94.94,0,0,0-.91,1.2c3,7.57,10.09,12.69,13,20.32l1.17-1.17c-6.61-1.4-13.21.33-19.84.43a1,1,0,0,0-.95.95c-.44,7.39.7,14.76.28,22.15-.07,1.22,1.84,1.21,1.9,0Z" style="fill:#5b7a52"/><path d="M302.63,186.24c.45-7.26-.75-14.78-.28-22.15,6.3-.06,13.22-1.89,19.58-.46-2.64-7.29-10.14-13.07-12.95-20.32,2.88.29,6.36,1.48,9.22.94-2.52-6.39-9.79-11.28-13.3-17.23,2.8.34,5.5,2.15,8.5,1.76-1.14-2.55-3.56-5.21-5.55-7.18-2.38-2.37-5.19-6.19-7.78-8l-.14,0c-2.59,1.78-5.4,5.61-7.78,8a27.07,27.07,0,0,0-5.55,7.18c3,.39,5.7-1.42,8.5-1.76-3.51,5.95-10.78,10.84-13.3,17.24,2.86.54,6.34-.66,9.22-1-2.81,7.25-10.31,13-12.95,20.32,6.36-1.43,13.28.4,19.58.47.47,7.36-.73,14.89-.28,22.14a47.34,47.34,0,0,1,5.18.22" style="fill:#5b7a52"/><path d="M303.58,186.24c.42-7.39-.72-14.76-.28-22.15l-.95.95c6.43-.1,12.93-1.86,19.33-.5.65.14,1.44-.44,1.17-1.16-2.87-7.67-9.94-12.77-13-20.32l-.92,1.2c3.18.36,6.25,1.43,9.47.91a1,1,0,0,0,.67-1.17c-2.85-7-9.59-11.14-13.4-17.46l-1.08,1.39c3,.44,5.67,2.09,8.76,1.8a1,1,0,0,0,.82-1.43c-1.61-3.44-4.45-6-7-8.71-1.27-1.39-2.48-2.85-3.79-4.21-.82-.85-2.07-2.45-3.29-2.72s-2.91,1.9-3.65,2.68c-1.31,1.36-2.52,2.81-3.79,4.21-2.51,2.75-5.35,5.26-7,8.7a1,1,0,0,0,.82,1.43c3.09.3,5.77-1.36,8.76-1.79l-1.08-1.4c-3.81,6.33-10.55,10.49-13.4,17.46a1,1,0,0,0,.67,1.17c3.22.52,6.29-.55,9.47-.91l-.92-1.2c-3,7.56-10.08,12.66-13,20.32-.27.73.52,1.31,1.17,1.17,6.4-1.36,12.9.39,19.33.5l-.95-.95c.44,7.38-.7,14.75-.28,22.14a1,1,0,0,0,.95.95,42.75,42.75,0,0,1,5.18.22,1,1,0,0,0,0-1.9,42.75,42.75,0,0,0-5.18-.22l.95.95c-.42-7.39.72-14.76.28-22.14a1,1,0,0,0-1-1c-6.63-.11-13.23-1.84-19.84-.43l1.17,1.16c2.86-7.62,9.93-12.74,12.95-20.32a1,1,0,0,0-.91-1.2c-2.95.34-6,1.46-9,1l.67,1.17c2.75-6.74,9.5-10.87,13.2-17a1,1,0,0,0-1.07-1.39c-2.81.4-5.35,2-8.25,1.72l.82,1.43c1.46-3.12,4-5.42,6.28-7.9,2.16-2.33,4.1-5,6.71-6.91l-.73.1a5.41,5.41,0,0,1,1.48,1.27c.58.54,1.12,1.11,1.66,1.69,1.13,1.24,2.21,2.53,3.35,3.76,2.35,2.53,4.92,4.86,6.41,8l.82-1.43c-2.9.28-5.45-1.32-8.25-1.73a1,1,0,0,0-1.07,1.4c3.7,6.14,10.45,10.27,13.2,17l.67-1.17c-3,.48-6-.65-9-1a.94.94,0,0,0-.91,1.2c3,7.57,10.09,12.69,12.95,20.32l1.17-1.17c-6.61-1.4-13.21.33-19.84.43a1,1,0,0,0-1,1c-.44,7.39.7,14.76.28,22.15-.07,1.22,1.84,1.21,1.9,0Z" style="fill:#5b7a52"/><path d="M152.63,186.24c.45-7.26-.75-14.78-.28-22.15,6.3-.06,13.22-1.89,19.58-.46-2.64-7.29-10.14-13.07-13-20.32,2.88.29,6.36,1.48,9.22.94-2.52-6.39-9.79-11.28-13.3-17.23,2.8.34,5.5,2.15,8.5,1.76-1.14-2.55-3.56-5.21-5.55-7.18-2.38-2.37-5.19-6.19-7.78-8l-.14,0c-2.59,1.78-5.4,5.61-7.78,8a27.07,27.07,0,0,0-5.55,7.18c3,.39,5.7-1.42,8.5-1.76-3.51,5.95-10.78,10.84-13.3,17.24,2.86.54,6.34-.66,9.22-1-2.81,7.25-10.31,13-13,20.32,6.36-1.43,13.28.4,19.58.47.47,7.36-.73,14.89-.28,22.14a47.34,47.34,0,0,1,5.18.22" style="fill:#5b7a52"/><path d="M153.58,186.24c.42-7.39-.72-14.76-.28-22.15l-1,.95c6.43-.1,12.93-1.86,19.33-.5.65.14,1.44-.44,1.17-1.16-2.87-7.67-9.94-12.77-12.95-20.32l-.92,1.2c3.18.36,6.25,1.43,9.47.91a1,1,0,0,0,.67-1.17c-2.85-7-9.59-11.14-13.4-17.46l-1.08,1.39c3,.44,5.67,2.09,8.76,1.8a1,1,0,0,0,.82-1.43c-1.61-3.44-4.45-6-7-8.71-1.27-1.39-2.48-2.85-3.79-4.21-.82-.85-2.07-2.45-3.29-2.72s-2.91,1.9-3.65,2.68c-1.31,1.36-2.52,2.81-3.79,4.21-2.51,2.75-5.35,5.26-7,8.7a1,1,0,0,0,.82,1.43c3.09.3,5.77-1.36,8.76-1.79l-1.08-1.4c-3.81,6.33-10.55,10.49-13.4,17.46a1,1,0,0,0,.67,1.17c3.22.52,6.29-.55,9.47-.91l-.92-1.2c-3,7.56-10.08,12.66-12.95,20.32-.27.73.52,1.31,1.17,1.17,6.4-1.36,12.9.39,19.33.5l-1-.95c.44,7.38-.7,14.75-.28,22.14a1,1,0,0,0,1,.95,42.75,42.75,0,0,1,5.18.22,1,1,0,0,0,0-1.9,42.75,42.75,0,0,0-5.18-.22l.95.95c-.42-7.39.72-14.76.28-22.14a1,1,0,0,0-.95-1c-6.63-.11-13.23-1.84-19.84-.43l1.17,1.16c2.86-7.62,9.93-12.74,13-20.32a1,1,0,0,0-.91-1.2c-3,.34-6,1.46-9,1l.67,1.17c2.75-6.74,9.5-10.87,13.2-17a1,1,0,0,0-1.07-1.39c-2.81.4-5.35,2-8.25,1.72l.82,1.43c1.46-3.12,4-5.42,6.28-7.9,2.16-2.33,4.1-5,6.71-6.91l-.73.1a5.41,5.41,0,0,1,1.48,1.27c.58.54,1.12,1.11,1.66,1.69,1.13,1.24,2.21,2.53,3.35,3.76,2.35,2.53,4.92,4.86,6.41,8l.82-1.43c-2.9.28-5.45-1.32-8.25-1.73a1,1,0,0,0-1.07,1.4c3.7,6.14,10.45,10.27,13.2,17l.67-1.17c-3,.48-6-.65-9-1a.94.94,0,0,0-.91,1.2c3,7.57,10.09,12.69,13,20.32l1.17-1.17c-6.61-1.4-13.21.33-19.84.43a1,1,0,0,0-.95,1c-.44,7.39.7,14.76.28,22.15-.07,1.22,1.84,1.21,1.9,0Z" style="fill:#5b7a52"/><path d="M2.63,186.24c.45-7.26-.75-14.78-.28-22.15,6.3-.06,13.22-1.89,19.58-.46C19.29,156.34,11.79,150.56,9,143.31c2.88.29,6.36,1.48,9.22.94C15.68,137.86,8.41,133,4.9,127c2.8.34,5.5,2.15,8.5,1.76-1.14-2.55-3.56-5.21-5.55-7.18-2.38-2.37-5.19-6.19-7.78-8l-.14,0c-2.59,1.78-5.4,5.61-7.78,8a27.07,27.07,0,0,0-5.55,7.18c3,.39,5.7-1.42,8.5-1.76-3.51,5.95-10.78,10.84-13.3,17.24,2.86.54,6.34-.66,9.22-1-2.81,7.25-10.31,13-12.95,20.32,6.36-1.43,13.28.4,19.58.47.47,7.36-.73,14.89-.28,22.14a47.34,47.34,0,0,1,5.18.22" style="fill:#5b7a52"/><path d="M3.58,186.24c.42-7.39-.72-14.76-.28-22.15l-.95.95c6.43-.1,12.93-1.86,19.33-.5.65.14,1.44-.44,1.17-1.16C20,155.71,12.91,150.61,9.9,143.06L9,144.26c3.18.36,6.25,1.43,9.47.91a1,1,0,0,0,.67-1.17c-2.85-7-9.59-11.14-13.4-17.46l-1.08,1.39c3,.44,5.67,2.09,8.76,1.8a1,1,0,0,0,.82-1.43c-1.61-3.44-4.45-6-7-8.71-1.27-1.39-2.48-2.85-3.79-4.21-.82-.85-2.07-2.45-3.29-2.72s-2.91,1.9-3.65,2.68c-1.31,1.36-2.52,2.81-3.79,4.21-2.51,2.75-5.35,5.26-7,8.7a1,1,0,0,0,.82,1.43c3.09.3,5.77-1.36,8.76-1.79l-1.08-1.4C-9.53,132.82-16.27,137-19.12,144a1,1,0,0,0,.67,1.17c3.22.52,6.29-.55,9.47-.91L-9.9,143c-3,7.56-10.08,12.66-12.95,20.32-.27.73.52,1.31,1.17,1.17,6.4-1.36,12.9.39,19.33.5l-.95-.95c.44,7.38-.7,14.75-.28,22.14a1,1,0,0,0,1,.95,42.75,42.75,0,0,1,5.18.22,1,1,0,0,0,0-1.9,42.75,42.75,0,0,0-5.18-.22l1,.95c-.42-7.39.72-14.76.28-22.14a1,1,0,0,0-1-1c-6.63-.11-13.23-1.84-19.84-.43l1.17,1.16c2.86-7.62,9.93-12.74,13-20.32a1,1,0,0,0-.91-1.2c-2.95.34-6,1.46-9,1l.67,1.17c2.75-6.74,9.5-10.87,13.2-17a1,1,0,0,0-1.07-1.39c-2.81.4-5.35,2-8.25,1.72l.82,1.43c1.46-3.12,4-5.42,6.28-7.9,2.16-2.33,4.1-5,6.71-6.91l-.73.1a5.41,5.41,0,0,1,1.48,1.27c.58.54,1.12,1.11,1.66,1.69C4,118.7,5,120,6.17,121.22c2.35,2.53,4.92,4.86,6.41,8l.82-1.43c-2.9.28-5.45-1.32-8.25-1.73a1,1,0,0,0-1.07,1.4c3.7,6.14,10.45,10.27,13.2,17l.67-1.17c-3,.48-6-.65-9-1a.94.94,0,0,0-.91,1.2c3,7.57,10.09,12.69,13,20.32l1.17-1.17c-6.61-1.4-13.21.33-19.84.43a1,1,0,0,0-1,1c-.44,7.39.7,14.76.28,22.15-.07,1.22,1.84,1.21,1.9,0Z" style="fill:#5b7a52"/><path d="M227.63,36.24c.45-7.26-.75-14.78-.28-22.15,6.3-.06,13.22-1.89,19.58-.46C244.29,6.34,236.79.56,234-6.69c2.88.29,6.36,1.48,9.22.94C240.68-12.14,233.41-17,229.9-23c2.8.34,5.5,2.15,8.5,1.76-1.14-2.55-3.56-5.21-5.55-7.18-2.38-2.37-5.19-6.19-7.78-8l-.14-.05c-2.59,1.78-5.4,5.61-7.78,8a27.07,27.07,0,0,0-5.55,7.18c3,.39,5.7-1.42,8.5-1.76-3.51,6-10.78,10.84-13.3,17.24,2.86.54,6.34-.66,9.22-1-2.81,7.25-10.31,13-13,20.32,6.36-1.43,13.28.4,19.58.47.47,7.36-.73,14.89-.28,22.14a47.34,47.34,0,0,1,5.18.22" style="fill:#5b7a52"/><path d="M228.58,36.24c.42-7.39-.72-14.76-.28-22.15l-1,.95c6.43-.1,12.93-1.86,19.33-.5.65.14,1.44-.44,1.17-1.16C245,5.71,237.91.61,234.9-6.94L234-5.74c3.18.36,6.25,1.43,9.47.91A1,1,0,0,0,244.12-6c-2.85-7-9.59-11.14-13.4-17.46l-1.08,1.39c3,.44,5.67,2.09,8.76,1.8a1,1,0,0,0,.82-1.43c-1.61-3.44-4.45-5.95-7-8.71-1.27-1.39-2.48-2.85-3.79-4.21-.82-.85-2.07-2.45-3.29-2.72s-2.91,1.9-3.65,2.68c-1.31,1.36-2.52,2.81-3.79,4.21-2.51,2.75-5.35,5.26-7,8.7a1,1,0,0,0,.82,1.43c3.09.3,5.77-1.36,8.76-1.79l-1.08-1.4C215.47-17.18,208.73-13,205.88-6a1,1,0,0,0,.67,1.17c3.22.52,6.29-.55,9.47-.91L215.1-7C212.09.57,205,5.67,202.15,13.33c-.27.73.52,1.31,1.17,1.17,6.4-1.36,12.9.39,19.33.5l-1-.95c.44,7.38-.7,14.75-.28,22.14a1,1,0,0,0,1,1,42.75,42.75,0,0,1,5.18.22,1,1,0,0,0,0-1.9,42.75,42.75,0,0,0-5.18-.22l.95.95c-.42-7.39.72-14.76.28-22.14a1,1,0,0,0-.95-1c-6.63-.11-13.23-1.84-19.84-.43L204,13.83c2.86-7.62,9.93-12.74,13-20.32a1,1,0,0,0-.91-1.2c-3,.34-6,1.46-9,1l.67,1.17c2.75-6.74,9.5-10.87,13.2-17a1,1,0,0,0-1.07-1.39c-2.81.4-5.35,2-8.25,1.72l.82,1.43c1.46-3.12,4-5.42,6.28-7.9,2.16-2.33,4.1-5.05,6.71-6.91l-.73.1a5.41,5.41,0,0,1,1.48,1.27c.58.54,1.12,1.11,1.66,1.69C229-31.3,230-30,231.17-28.78c2.35,2.53,4.92,4.86,6.41,8l.82-1.43c-2.9.28-5.45-1.32-8.25-1.73a1,1,0,0,0-1.07,1.4c3.7,6.14,10.45,10.27,13.2,17L243-6.66c-3,.48-6-.65-9-1a.94.94,0,0,0-.91,1.2c3,7.57,10.09,12.69,13,20.32l1.17-1.17c-6.61-1.4-13.21.33-19.84.43a1,1,0,0,0-.95.95c-.44,7.39.7,14.76.28,22.15-.07,1.22,1.84,1.21,1.9,0Z" style="fill:#5b7a52"/><path d="M77.63,36.24c.45-7.26-.75-14.78-.28-22.15,6.3-.06,13.22-1.89,19.58-.46C94.29,6.34,86.79.56,84-6.69c2.88.29,6.36,1.48,9.22.94C90.68-12.14,83.41-17,79.9-23c2.8.34,5.5,2.15,8.5,1.76-1.14-2.55-3.56-5.21-5.55-7.18-2.38-2.37-5.19-6.19-7.78-8l-.14-.05c-2.59,1.78-5.4,5.61-7.78,8a27.07,27.07,0,0,0-5.55,7.18c3,.39,5.7-1.42,8.5-1.76-3.51,6-10.78,10.84-13.3,17.24,2.86.54,6.34-.66,9.22-1C63.21.51,55.71,6.29,53.07,13.58c6.36-1.43,13.28.4,19.58.47.47,7.36-.73,14.89-.28,22.14a47.34,47.34,0,0,1,5.18.22" style="fill:#5b7a52"/><path d="M78.58,36.24c.42-7.39-.72-14.76-.28-22.15l-1,.95c6.43-.1,12.93-1.86,19.33-.5.65.14,1.44-.44,1.17-1.16C95,5.71,87.91.61,84.9-6.94L84-5.74c3.18.36,6.25,1.43,9.47.91A1,1,0,0,0,94.12-6c-2.85-7-9.59-11.14-13.4-17.46l-1.08,1.39c3,.44,5.67,2.09,8.76,1.8a1,1,0,0,0,.82-1.43c-1.61-3.44-4.45-5.95-7-8.71-1.27-1.39-2.48-2.85-3.79-4.21-.82-.85-2.07-2.45-3.29-2.72s-2.91,1.9-3.65,2.68c-1.31,1.36-2.52,2.81-3.79,4.21-2.51,2.75-5.35,5.26-7,8.7a1,1,0,0,0,.82,1.43c3.09.3,5.77-1.36,8.76-1.79l-1.08-1.4C65.47-17.18,58.73-13,55.88-6a1,1,0,0,0,.67,1.17c3.22.52,6.29-.55,9.47-.91L65.1-7C62.09.57,55,5.67,52.15,13.33c-.27.73.52,1.31,1.17,1.17,6.4-1.36,12.9.39,19.33.5l-1-.95c.44,7.38-.7,14.75-.28,22.14a1,1,0,0,0,1,1,42.75,42.75,0,0,1,5.18.22,1,1,0,0,0,0-1.9,42.75,42.75,0,0,0-5.18-.22l.95.95c-.42-7.39.72-14.76.28-22.14a1,1,0,0,0-.95-1C66,13,59.42,11.26,52.81,12.67L54,13.83c2.86-7.62,9.93-12.74,13-20.32A1,1,0,0,0,66-7.69c-2.95.34-6,1.46-9,1l.67,1.17c2.75-6.74,9.5-10.87,13.2-17a1,1,0,0,0-1.07-1.39c-2.81.4-5.35,2-8.25,1.72l.82,1.43c1.46-3.12,4-5.42,6.28-7.9,2.16-2.33,4.1-5.05,6.71-6.91l-.73.1a5.41,5.41,0,0,1,1.48,1.27c.58.54,1.12,1.11,1.66,1.69C79-31.3,80-30,81.17-28.78c2.35,2.53,4.92,4.86,6.41,8l.82-1.43c-2.9.28-5.45-1.32-8.25-1.73a1,1,0,0,0-1.07,1.4c3.7,6.14,10.45,10.27,13.2,17L93-6.66c-3,.48-6-.65-9-1a.94.94,0,0,0-.91,1.2c3,7.57,10.09,12.69,13,20.32l1.17-1.17c-6.61-1.4-13.21.33-19.84.43a1,1,0,0,0-.95.95c-.44,7.39.7,14.76.28,22.15-.07,1.22,1.84,1.21,1.9,0Z" style="fill:#5b7a52"/></pattern><pattern id="medium_3_forest-5" data-name="medium 3 forest" width="300" height="300" patternTransform="translate(215.5 2377)" patternUnits="userSpaceOnUse" viewBox="0 0 300 300"><rect width="300" height="300" style="fill:none"/><path d="M227.63,336.24c.45-7.26-.75-14.78-.28-22.15,6.3-.06,13.22-1.89,19.58-.46-2.64-7.29-10.14-13.07-13-20.32,2.88.29,6.36,1.48,9.22.94-2.52-6.39-9.79-11.28-13.3-17.23,2.8.34,5.5,2.15,8.5,1.76-1.14-2.55-3.56-5.21-5.55-7.18-2.38-2.37-5.19-6.19-7.78-8l-.14-.05c-2.59,1.78-5.4,5.61-7.78,8a27.07,27.07,0,0,0-5.55,7.18c3,.39,5.7-1.42,8.5-1.76-3.51,5.95-10.78,10.84-13.3,17.24,2.86.54,6.34-.66,9.22-.95-2.81,7.25-10.31,13-13,20.32,6.36-1.43,13.28.4,19.58.47.47,7.36-.73,14.89-.28,22.14a47.34,47.34,0,0,1,5.18.22" style="fill:#5b7a52"/><path d="M228.58,336.24c.42-7.39-.72-14.76-.28-22.15l-1,1c6.43-.1,12.93-1.86,19.33-.5.65.14,1.44-.44,1.17-1.16-2.87-7.67-9.94-12.77-12.95-20.32l-.92,1.2c3.18.36,6.25,1.43,9.47.91a1,1,0,0,0,.67-1.17c-2.85-7-9.59-11.14-13.4-17.46l-1.08,1.39c3,.44,5.67,2.09,8.76,1.8a1,1,0,0,0,.82-1.43c-1.61-3.44-4.45-5.95-7-8.71-1.27-1.39-2.48-2.85-3.79-4.21-.82-.85-2.07-2.45-3.29-2.72s-2.91,1.9-3.65,2.68c-1.31,1.36-2.52,2.81-3.79,4.21-2.51,2.75-5.35,5.26-7,8.7a1,1,0,0,0,.82,1.43c3.09.3,5.77-1.36,8.76-1.79l-1.08-1.4c-3.81,6.33-10.55,10.49-13.4,17.46a1,1,0,0,0,.67,1.17c3.22.52,6.29-.55,9.47-.91l-.92-1.2c-3,7.56-10.08,12.66-12.95,20.32-.27.73.52,1.31,1.17,1.17,6.4-1.36,12.9.39,19.33.5l-1-.95c.44,7.38-.7,14.75-.28,22.14a1,1,0,0,0,1,.95,42.75,42.75,0,0,1,5.18.22,1,1,0,0,0,0-1.9,42.75,42.75,0,0,0-5.18-.22l.95.95c-.42-7.39.72-14.76.28-22.14a1,1,0,0,0-.95-.95c-6.63-.11-13.23-1.84-19.84-.43l1.17,1.16c2.86-7.62,9.93-12.74,13-20.32a1,1,0,0,0-.91-1.2c-3,.34-6,1.46-9,1l.67,1.17c2.75-6.74,9.5-10.87,13.2-17a1,1,0,0,0-1.07-1.39c-2.81.4-5.35,2-8.25,1.72l.82,1.43c1.46-3.12,4-5.42,6.28-7.9,2.16-2.33,4.1-5.05,6.71-6.91l-.73.1a5.41,5.41,0,0,1,1.48,1.27c.58.54,1.12,1.11,1.66,1.69,1.13,1.24,2.21,2.53,3.35,3.76,2.35,2.53,4.92,4.86,6.41,8l.82-1.43c-2.9.28-5.45-1.32-8.25-1.73a1,1,0,0,0-1.07,1.4c3.7,6.14,10.45,10.27,13.2,17l.67-1.17c-3,.48-6-.65-9-1a.94.94,0,0,0-.91,1.2c3,7.57,10.09,12.69,13,20.32l1.17-1.17c-6.61-1.4-13.21.33-19.84.43a1,1,0,0,0-.95.95c-.44,7.39.7,14.76.28,22.15-.07,1.22,1.84,1.21,1.9,0Z" style="fill:#5b7a52"/><path d="M77.63,336.24c.45-7.26-.75-14.78-.28-22.15,6.3-.06,13.22-1.89,19.58-.46-2.64-7.29-10.14-13.07-13-20.32,2.88.29,6.36,1.48,9.22.94C90.68,287.86,83.41,283,79.9,277c2.8.34,5.5,2.15,8.5,1.76-1.14-2.55-3.56-5.21-5.55-7.18-2.38-2.37-5.19-6.19-7.78-8l-.14-.05c-2.59,1.78-5.4,5.61-7.78,8a27.07,27.07,0,0,0-5.55,7.18c3,.39,5.7-1.42,8.5-1.76-3.51,5.95-10.78,10.84-13.3,17.24,2.86.54,6.34-.66,9.22-.95-2.81,7.25-10.31,13-12.95,20.32,6.36-1.43,13.28.4,19.58.47.47,7.36-.73,14.89-.28,22.14a47.34,47.34,0,0,1,5.18.22" style="fill:#5b7a52"/><path d="M78.58,336.24c.42-7.39-.72-14.76-.28-22.15l-1,1c6.43-.1,12.93-1.86,19.33-.5.65.14,1.44-.44,1.17-1.16-2.87-7.67-9.94-12.77-12.95-20.32l-.92,1.2c3.18.36,6.25,1.43,9.47.91a1,1,0,0,0,.67-1.17c-2.85-7-9.59-11.14-13.4-17.46l-1.08,1.39c3,.44,5.67,2.09,8.76,1.8a1,1,0,0,0,.82-1.43c-1.61-3.44-4.45-5.95-7-8.71-1.27-1.39-2.48-2.85-3.79-4.21-.82-.85-2.07-2.45-3.29-2.72s-2.91,1.9-3.65,2.68c-1.31,1.36-2.52,2.81-3.79,4.21-2.51,2.75-5.35,5.26-7,8.7a1,1,0,0,0,.82,1.43c3.09.3,5.77-1.36,8.76-1.79l-1.08-1.4C65.47,282.82,58.73,287,55.88,294a1,1,0,0,0,.67,1.17c3.22.52,6.29-.55,9.47-.91L65.1,293c-3,7.56-10.08,12.66-12.95,20.32-.27.73.52,1.31,1.17,1.17,6.4-1.36,12.9.39,19.33.5l-1-.95c.44,7.38-.7,14.75-.28,22.14a1,1,0,0,0,1,.95,42.75,42.75,0,0,1,5.18.22,1,1,0,0,0,0-1.9,42.75,42.75,0,0,0-5.18-.22l.95.95c-.42-7.39.72-14.76.28-22.14a1,1,0,0,0-.95-.95c-6.63-.11-13.23-1.84-19.84-.43L54,313.83c2.86-7.62,9.93-12.74,13-20.32a1,1,0,0,0-.91-1.2c-2.95.34-6,1.46-9,1l.67,1.17c2.75-6.74,9.5-10.87,13.2-17a1,1,0,0,0-1.07-1.39c-2.81.4-5.35,2-8.25,1.72l.82,1.43c1.46-3.12,4-5.42,6.28-7.9,2.16-2.33,4.1-5.05,6.71-6.91l-.73.1a5.41,5.41,0,0,1,1.48,1.27c.58.54,1.12,1.11,1.66,1.69C79,268.7,80,270,81.17,271.22c2.35,2.53,4.92,4.86,6.41,8l.82-1.43c-2.9.28-5.45-1.32-8.25-1.73a1,1,0,0,0-1.07,1.4c3.7,6.14,10.45,10.27,13.2,17l.67-1.17c-3,.48-6-.65-9-1a.94.94,0,0,0-.91,1.2c3,7.57,10.09,12.69,13,20.32l1.17-1.17c-6.61-1.4-13.21.33-19.84.43a1,1,0,0,0-.95.95c-.44,7.39.7,14.76.28,22.15-.07,1.22,1.84,1.21,1.9,0Z" style="fill:#5b7a52"/><path d="M302.63,186.24c.45-7.26-.75-14.78-.28-22.15,6.3-.06,13.22-1.89,19.58-.46-2.64-7.29-10.14-13.07-12.95-20.32,2.88.29,6.36,1.48,9.22.94-2.52-6.39-9.79-11.28-13.3-17.23,2.8.34,5.5,2.15,8.5,1.76-1.14-2.55-3.56-5.21-5.55-7.18-2.38-2.37-5.19-6.19-7.78-8l-.14,0c-2.59,1.78-5.4,5.61-7.78,8a27.07,27.07,0,0,0-5.55,7.18c3,.39,5.7-1.42,8.5-1.76-3.51,5.95-10.78,10.84-13.3,17.24,2.86.54,6.34-.66,9.22-1-2.81,7.25-10.31,13-12.95,20.32,6.36-1.43,13.28.4,19.58.47.47,7.36-.73,14.89-.28,22.14a47.34,47.34,0,0,1,5.18.22" style="fill:#5b7a52"/><path d="M303.58,186.24c.42-7.39-.72-14.76-.28-22.15l-.95.95c6.43-.1,12.93-1.86,19.33-.5.65.14,1.44-.44,1.17-1.16-2.87-7.67-9.94-12.77-13-20.32l-.92,1.2c3.18.36,6.25,1.43,9.47.91a1,1,0,0,0,.67-1.17c-2.85-7-9.59-11.14-13.4-17.46l-1.08,1.39c3,.44,5.67,2.09,8.76,1.8a1,1,0,0,0,.82-1.43c-1.61-3.44-4.45-6-7-8.71-1.27-1.39-2.48-2.85-3.79-4.21-.82-.85-2.07-2.45-3.29-2.72s-2.91,1.9-3.65,2.68c-1.31,1.36-2.52,2.81-3.79,4.21-2.51,2.75-5.35,5.26-7,8.7a1,1,0,0,0,.82,1.43c3.09.3,5.77-1.36,8.76-1.79l-1.08-1.4c-3.81,6.33-10.55,10.49-13.4,17.46a1,1,0,0,0,.67,1.17c3.22.52,6.29-.55,9.47-.91l-.92-1.2c-3,7.56-10.08,12.66-13,20.32-.27.73.52,1.31,1.17,1.17,6.4-1.36,12.9.39,19.33.5l-.95-.95c.44,7.38-.7,14.75-.28,22.14a1,1,0,0,0,.95.95,42.75,42.75,0,0,1,5.18.22,1,1,0,0,0,0-1.9,42.75,42.75,0,0,0-5.18-.22l.95.95c-.42-7.39.72-14.76.28-22.14a1,1,0,0,0-1-1c-6.63-.11-13.23-1.84-19.84-.43l1.17,1.16c2.86-7.62,9.93-12.74,12.95-20.32a1,1,0,0,0-.91-1.2c-2.95.34-6,1.46-9,1l.67,1.17c2.75-6.74,9.5-10.87,13.2-17a1,1,0,0,0-1.07-1.39c-2.81.4-5.35,2-8.25,1.72l.82,1.43c1.46-3.12,4-5.42,6.28-7.9,2.16-2.33,4.1-5,6.71-6.91l-.73.1a5.41,5.41,0,0,1,1.48,1.27c.58.54,1.12,1.11,1.66,1.69,1.13,1.24,2.21,2.53,3.35,3.76,2.35,2.53,4.92,4.86,6.41,8l.82-1.43c-2.9.28-5.45-1.32-8.25-1.73a1,1,0,0,0-1.07,1.4c3.7,6.14,10.45,10.27,13.2,17l.67-1.17c-3,.48-6-.65-9-1a.94.94,0,0,0-.91,1.2c3,7.57,10.09,12.69,12.95,20.32l1.17-1.17c-6.61-1.4-13.21.33-19.84.43a1,1,0,0,0-1,1c-.44,7.39.7,14.76.28,22.15-.07,1.22,1.84,1.21,1.9,0Z" style="fill:#5b7a52"/><path d="M152.63,186.24c.45-7.26-.75-14.78-.28-22.15,6.3-.06,13.22-1.89,19.58-.46-2.64-7.29-10.14-13.07-13-20.32,2.88.29,6.36,1.48,9.22.94-2.52-6.39-9.79-11.28-13.3-17.23,2.8.34,5.5,2.15,8.5,1.76-1.14-2.55-3.56-5.21-5.55-7.18-2.38-2.37-5.19-6.19-7.78-8l-.14,0c-2.59,1.78-5.4,5.61-7.78,8a27.07,27.07,0,0,0-5.55,7.18c3,.39,5.7-1.42,8.5-1.76-3.51,5.95-10.78,10.84-13.3,17.24,2.86.54,6.34-.66,9.22-1-2.81,7.25-10.31,13-13,20.32,6.36-1.43,13.28.4,19.58.47.47,7.36-.73,14.89-.28,22.14a47.34,47.34,0,0,1,5.18.22" style="fill:#5b7a52"/><path d="M153.58,186.24c.42-7.39-.72-14.76-.28-22.15l-1,.95c6.43-.1,12.93-1.86,19.33-.5.65.14,1.44-.44,1.17-1.16-2.87-7.67-9.94-12.77-12.95-20.32l-.92,1.2c3.18.36,6.25,1.43,9.47.91a1,1,0,0,0,.67-1.17c-2.85-7-9.59-11.14-13.4-17.46l-1.08,1.39c3,.44,5.67,2.09,8.76,1.8a1,1,0,0,0,.82-1.43c-1.61-3.44-4.45-6-7-8.71-1.27-1.39-2.48-2.85-3.79-4.21-.82-.85-2.07-2.45-3.29-2.72s-2.91,1.9-3.65,2.68c-1.31,1.36-2.52,2.81-3.79,4.21-2.51,2.75-5.35,5.26-7,8.7a1,1,0,0,0,.82,1.43c3.09.3,5.77-1.36,8.76-1.79l-1.08-1.4c-3.81,6.33-10.55,10.49-13.4,17.46a1,1,0,0,0,.67,1.17c3.22.52,6.29-.55,9.47-.91l-.92-1.2c-3,7.56-10.08,12.66-12.95,20.32-.27.73.52,1.31,1.17,1.17,6.4-1.36,12.9.39,19.33.5l-1-.95c.44,7.38-.7,14.75-.28,22.14a1,1,0,0,0,1,.95,42.75,42.75,0,0,1,5.18.22,1,1,0,0,0,0-1.9,42.75,42.75,0,0,0-5.18-.22l.95.95c-.42-7.39.72-14.76.28-22.14a1,1,0,0,0-.95-1c-6.63-.11-13.23-1.84-19.84-.43l1.17,1.16c2.86-7.62,9.93-12.74,13-20.32a1,1,0,0,0-.91-1.2c-3,.34-6,1.46-9,1l.67,1.17c2.75-6.74,9.5-10.87,13.2-17a1,1,0,0,0-1.07-1.39c-2.81.4-5.35,2-8.25,1.72l.82,1.43c1.46-3.12,4-5.42,6.28-7.9,2.16-2.33,4.1-5,6.71-6.91l-.73.1a5.41,5.41,0,0,1,1.48,1.27c.58.54,1.12,1.11,1.66,1.69,1.13,1.24,2.21,2.53,3.35,3.76,2.35,2.53,4.92,4.86,6.41,8l.82-1.43c-2.9.28-5.45-1.32-8.25-1.73a1,1,0,0,0-1.07,1.4c3.7,6.14,10.45,10.27,13.2,17l.67-1.17c-3,.48-6-.65-9-1a.94.94,0,0,0-.91,1.2c3,7.57,10.09,12.69,13,20.32l1.17-1.17c-6.61-1.4-13.21.33-19.84.43a1,1,0,0,0-.95,1c-.44,7.39.7,14.76.28,22.15-.07,1.22,1.84,1.21,1.9,0Z" style="fill:#5b7a52"/><path d="M2.63,186.24c.45-7.26-.75-14.78-.28-22.15,6.3-.06,13.22-1.89,19.58-.46C19.29,156.34,11.79,150.56,9,143.31c2.88.29,6.36,1.48,9.22.94C15.68,137.86,8.41,133,4.9,127c2.8.34,5.5,2.15,8.5,1.76-1.14-2.55-3.56-5.21-5.55-7.18-2.38-2.37-5.19-6.19-7.78-8l-.14,0c-2.59,1.78-5.4,5.61-7.78,8a27.07,27.07,0,0,0-5.55,7.18c3,.39,5.7-1.42,8.5-1.76-3.51,5.95-10.78,10.84-13.3,17.24,2.86.54,6.34-.66,9.22-1-2.81,7.25-10.31,13-12.95,20.32,6.36-1.43,13.28.4,19.58.47.47,7.36-.73,14.89-.28,22.14a47.34,47.34,0,0,1,5.18.22" style="fill:#5b7a52"/><path d="M3.58,186.24c.42-7.39-.72-14.76-.28-22.15l-.95.95c6.43-.1,12.93-1.86,19.33-.5.65.14,1.44-.44,1.17-1.16C20,155.71,12.91,150.61,9.9,143.06L9,144.26c3.18.36,6.25,1.43,9.47.91a1,1,0,0,0,.67-1.17c-2.85-7-9.59-11.14-13.4-17.46l-1.08,1.39c3,.44,5.67,2.09,8.76,1.8a1,1,0,0,0,.82-1.43c-1.61-3.44-4.45-6-7-8.71-1.27-1.39-2.48-2.85-3.79-4.21-.82-.85-2.07-2.45-3.29-2.72s-2.91,1.9-3.65,2.68c-1.31,1.36-2.52,2.81-3.79,4.21-2.51,2.75-5.35,5.26-7,8.7a1,1,0,0,0,.82,1.43c3.09.3,5.77-1.36,8.76-1.79l-1.08-1.4C-9.53,132.82-16.27,137-19.12,144a1,1,0,0,0,.67,1.17c3.22.52,6.29-.55,9.47-.91L-9.9,143c-3,7.56-10.08,12.66-12.95,20.32-.27.73.52,1.31,1.17,1.17,6.4-1.36,12.9.39,19.33.5l-.95-.95c.44,7.38-.7,14.75-.28,22.14a1,1,0,0,0,1,.95,42.75,42.75,0,0,1,5.18.22,1,1,0,0,0,0-1.9,42.75,42.75,0,0,0-5.18-.22l1,.95c-.42-7.39.72-14.76.28-22.14a1,1,0,0,0-1-1c-6.63-.11-13.23-1.84-19.84-.43l1.17,1.16c2.86-7.62,9.93-12.74,13-20.32a1,1,0,0,0-.91-1.2c-2.95.34-6,1.46-9,1l.67,1.17c2.75-6.74,9.5-10.87,13.2-17a1,1,0,0,0-1.07-1.39c-2.81.4-5.35,2-8.25,1.72l.82,1.43c1.46-3.12,4-5.42,6.28-7.9,2.16-2.33,4.1-5,6.71-6.91l-.73.1a5.41,5.41,0,0,1,1.48,1.27c.58.54,1.12,1.11,1.66,1.69C4,118.7,5,120,6.17,121.22c2.35,2.53,4.92,4.86,6.41,8l.82-1.43c-2.9.28-5.45-1.32-8.25-1.73a1,1,0,0,0-1.07,1.4c3.7,6.14,10.45,10.27,13.2,17l.67-1.17c-3,.48-6-.65-9-1a.94.94,0,0,0-.91,1.2c3,7.57,10.09,12.69,13,20.32l1.17-1.17c-6.61-1.4-13.21.33-19.84.43a1,1,0,0,0-1,1c-.44,7.39.7,14.76.28,22.15-.07,1.22,1.84,1.21,1.9,0Z" style="fill:#5b7a52"/><path d="M227.63,36.24c.45-7.26-.75-14.78-.28-22.15,6.3-.06,13.22-1.89,19.58-.46C244.29,6.34,236.79.56,234-6.69c2.88.29,6.36,1.48,9.22.94C240.68-12.14,233.41-17,229.9-23c2.8.34,5.5,2.15,8.5,1.76-1.14-2.55-3.56-5.21-5.55-7.18-2.38-2.37-5.19-6.19-7.78-8l-.14-.05c-2.59,1.78-5.4,5.61-7.78,8a27.07,27.07,0,0,0-5.55,7.18c3,.39,5.7-1.42,8.5-1.76-3.51,6-10.78,10.84-13.3,17.24,2.86.54,6.34-.66,9.22-1-2.81,7.25-10.31,13-13,20.32,6.36-1.43,13.28.4,19.58.47.47,7.36-.73,14.89-.28,22.14a47.34,47.34,0,0,1,5.18.22" style="fill:#5b7a52"/><path d="M228.58,36.24c.42-7.39-.72-14.76-.28-22.15l-1,.95c6.43-.1,12.93-1.86,19.33-.5.65.14,1.44-.44,1.17-1.16C245,5.71,237.91.61,234.9-6.94L234-5.74c3.18.36,6.25,1.43,9.47.91A1,1,0,0,0,244.12-6c-2.85-7-9.59-11.14-13.4-17.46l-1.08,1.39c3,.44,5.67,2.09,8.76,1.8a1,1,0,0,0,.82-1.43c-1.61-3.44-4.45-5.95-7-8.71-1.27-1.39-2.48-2.85-3.79-4.21-.82-.85-2.07-2.45-3.29-2.72s-2.91,1.9-3.65,2.68c-1.31,1.36-2.52,2.81-3.79,4.21-2.51,2.75-5.35,5.26-7,8.7a1,1,0,0,0,.82,1.43c3.09.3,5.77-1.36,8.76-1.79l-1.08-1.4C215.47-17.18,208.73-13,205.88-6a1,1,0,0,0,.67,1.17c3.22.52,6.29-.55,9.47-.91L215.1-7C212.09.57,205,5.67,202.15,13.33c-.27.73.52,1.31,1.17,1.17,6.4-1.36,12.9.39,19.33.5l-1-.95c.44,7.38-.7,14.75-.28,22.14a1,1,0,0,0,1,1,42.75,42.75,0,0,1,5.18.22,1,1,0,0,0,0-1.9,42.75,42.75,0,0,0-5.18-.22l.95.95c-.42-7.39.72-14.76.28-22.14a1,1,0,0,0-.95-1c-6.63-.11-13.23-1.84-19.84-.43L204,13.83c2.86-7.62,9.93-12.74,13-20.32a1,1,0,0,0-.91-1.2c-3,.34-6,1.46-9,1l.67,1.17c2.75-6.74,9.5-10.87,13.2-17a1,1,0,0,0-1.07-1.39c-2.81.4-5.35,2-8.25,1.72l.82,1.43c1.46-3.12,4-5.42,6.28-7.9,2.16-2.33,4.1-5.05,6.71-6.91l-.73.1a5.41,5.41,0,0,1,1.48,1.27c.58.54,1.12,1.11,1.66,1.69C229-31.3,230-30,231.17-28.78c2.35,2.53,4.92,4.86,6.41,8l.82-1.43c-2.9.28-5.45-1.32-8.25-1.73a1,1,0,0,0-1.07,1.4c3.7,6.14,10.45,10.27,13.2,17L243-6.66c-3,.48-6-.65-9-1a.94.94,0,0,0-.91,1.2c3,7.57,10.09,12.69,13,20.32l1.17-1.17c-6.61-1.4-13.21.33-19.84.43a1,1,0,0,0-.95.95c-.44,7.39.7,14.76.28,22.15-.07,1.22,1.84,1.21,1.9,0Z" style="fill:#5b7a52"/><path d="M77.63,36.24c.45-7.26-.75-14.78-.28-22.15,6.3-.06,13.22-1.89,19.58-.46C94.29,6.34,86.79.56,84-6.69c2.88.29,6.36,1.48,9.22.94C90.68-12.14,83.41-17,79.9-23c2.8.34,5.5,2.15,8.5,1.76-1.14-2.55-3.56-5.21-5.55-7.18-2.38-2.37-5.19-6.19-7.78-8l-.14-.05c-2.59,1.78-5.4,5.61-7.78,8a27.07,27.07,0,0,0-5.55,7.18c3,.39,5.7-1.42,8.5-1.76-3.51,6-10.78,10.84-13.3,17.24,2.86.54,6.34-.66,9.22-1C63.21.51,55.71,6.29,53.07,13.58c6.36-1.43,13.28.4,19.58.47.47,7.36-.73,14.89-.28,22.14a47.34,47.34,0,0,1,5.18.22" style="fill:#5b7a52"/><path d="M78.58,36.24c.42-7.39-.72-14.76-.28-22.15l-1,.95c6.43-.1,12.93-1.86,19.33-.5.65.14,1.44-.44,1.17-1.16C95,5.71,87.91.61,84.9-6.94L84-5.74c3.18.36,6.25,1.43,9.47.91A1,1,0,0,0,94.12-6c-2.85-7-9.59-11.14-13.4-17.46l-1.08,1.39c3,.44,5.67,2.09,8.76,1.8a1,1,0,0,0,.82-1.43c-1.61-3.44-4.45-5.95-7-8.71-1.27-1.39-2.48-2.85-3.79-4.21-.82-.85-2.07-2.45-3.29-2.72s-2.91,1.9-3.65,2.68c-1.31,1.36-2.52,2.81-3.79,4.21-2.51,2.75-5.35,5.26-7,8.7a1,1,0,0,0,.82,1.43c3.09.3,5.77-1.36,8.76-1.79l-1.08-1.4C65.47-17.18,58.73-13,55.88-6a1,1,0,0,0,.67,1.17c3.22.52,6.29-.55,9.47-.91L65.1-7C62.09.57,55,5.67,52.15,13.33c-.27.73.52,1.31,1.17,1.17,6.4-1.36,12.9.39,19.33.5l-1-.95c.44,7.38-.7,14.75-.28,22.14a1,1,0,0,0,1,1,42.75,42.75,0,0,1,5.18.22,1,1,0,0,0,0-1.9,42.75,42.75,0,0,0-5.18-.22l.95.95c-.42-7.39.72-14.76.28-22.14a1,1,0,0,0-.95-1C66,13,59.42,11.26,52.81,12.67L54,13.83c2.86-7.62,9.93-12.74,13-20.32A1,1,0,0,0,66-7.69c-2.95.34-6,1.46-9,1l.67,1.17c2.75-6.74,9.5-10.87,13.2-17a1,1,0,0,0-1.07-1.39c-2.81.4-5.35,2-8.25,1.72l.82,1.43c1.46-3.12,4-5.42,6.28-7.9,2.16-2.33,4.1-5.05,6.71-6.91l-.73.1a5.41,5.41,0,0,1,1.48,1.27c.58.54,1.12,1.11,1.66,1.69C79-31.3,80-30,81.17-28.78c2.35,2.53,4.92,4.86,6.41,8l.82-1.43c-2.9.28-5.45-1.32-8.25-1.73a1,1,0,0,0-1.07,1.4c3.7,6.14,10.45,10.27,13.2,17L93-6.66c-3,.48-6-.65-9-1a.94.94,0,0,0-.91,1.2c3,7.57,10.09,12.69,13,20.32l1.17-1.17c-6.61-1.4-13.21.33-19.84.43a1,1,0,0,0-.95.95c-.44,7.39.7,14.76.28,22.15-.07,1.22,1.84,1.21,1.9,0Z" style="fill:#5b7a52"/></pattern><pattern id="medium_3_forest-7" data-name="medium 3 forest" width="300" height="300" patternTransform="translate(365.5 2377)" patternUnits="userSpaceOnUse" viewBox="0 0 300 300"><rect width="300" height="300" style="fill:none"/><path d="M227.63,336.24c.45-7.26-.75-14.78-.28-22.15,6.3-.06,13.22-1.89,19.58-.46-2.64-7.29-10.14-13.07-13-20.32,2.88.29,6.36,1.48,9.22.94-2.52-6.39-9.79-11.28-13.3-17.23,2.8.34,5.5,2.15,8.5,1.76-1.14-2.55-3.56-5.21-5.55-7.18-2.38-2.37-5.19-6.19-7.78-8l-.14-.05c-2.59,1.78-5.4,5.61-7.78,8a27.07,27.07,0,0,0-5.55,7.18c3,.39,5.7-1.42,8.5-1.76-3.51,5.95-10.78,10.84-13.3,17.24,2.86.54,6.34-.66,9.22-.95-2.81,7.25-10.31,13-13,20.32,6.36-1.43,13.28.4,19.58.47.47,7.36-.73,14.89-.28,22.14a47.34,47.34,0,0,1,5.18.22" style="fill:#5b7a52"/><path d="M228.58,336.24c.42-7.39-.72-14.76-.28-22.15l-1,1c6.43-.1,12.93-1.86,19.33-.5.65.14,1.44-.44,1.17-1.16-2.87-7.67-9.94-12.77-12.95-20.32l-.92,1.2c3.18.36,6.25,1.43,9.47.91a1,1,0,0,0,.67-1.17c-2.85-7-9.59-11.14-13.4-17.46l-1.08,1.39c3,.44,5.67,2.09,8.76,1.8a1,1,0,0,0,.82-1.43c-1.61-3.44-4.45-5.95-7-8.71-1.27-1.39-2.48-2.85-3.79-4.21-.82-.85-2.07-2.45-3.29-2.72s-2.91,1.9-3.65,2.68c-1.31,1.36-2.52,2.81-3.79,4.21-2.51,2.75-5.35,5.26-7,8.7a1,1,0,0,0,.82,1.43c3.09.3,5.77-1.36,8.76-1.79l-1.08-1.4c-3.81,6.33-10.55,10.49-13.4,17.46a1,1,0,0,0,.67,1.17c3.22.52,6.29-.55,9.47-.91l-.92-1.2c-3,7.56-10.08,12.66-12.95,20.32-.27.73.52,1.31,1.17,1.17,6.4-1.36,12.9.39,19.33.5l-1-.95c.44,7.38-.7,14.75-.28,22.14a1,1,0,0,0,1,.95,42.75,42.75,0,0,1,5.18.22,1,1,0,0,0,0-1.9,42.75,42.75,0,0,0-5.18-.22l.95.95c-.42-7.39.72-14.76.28-22.14a1,1,0,0,0-.95-.95c-6.63-.11-13.23-1.84-19.84-.43l1.17,1.16c2.86-7.62,9.93-12.74,13-20.32a1,1,0,0,0-.91-1.2c-3,.34-6,1.46-9,1l.67,1.17c2.75-6.74,9.5-10.87,13.2-17a1,1,0,0,0-1.07-1.39c-2.81.4-5.35,2-8.25,1.72l.82,1.43c1.46-3.12,4-5.42,6.28-7.9,2.16-2.33,4.1-5.05,6.71-6.91l-.73.1a5.41,5.41,0,0,1,1.48,1.27c.58.54,1.12,1.11,1.66,1.69,1.13,1.24,2.21,2.53,3.35,3.76,2.35,2.53,4.92,4.86,6.41,8l.82-1.43c-2.9.28-5.45-1.32-8.25-1.73a1,1,0,0,0-1.07,1.4c3.7,6.14,10.45,10.27,13.2,17l.67-1.17c-3,.48-6-.65-9-1a.94.94,0,0,0-.91,1.2c3,7.57,10.09,12.69,13,20.32l1.17-1.17c-6.61-1.4-13.21.33-19.84.43a1,1,0,0,0-.95.95c-.44,7.39.7,14.76.28,22.15-.07,1.22,1.84,1.21,1.9,0Z" style="fill:#5b7a52"/><path d="M77.63,336.24c.45-7.26-.75-14.78-.28-22.15,6.3-.06,13.22-1.89,19.58-.46-2.64-7.29-10.14-13.07-13-20.32,2.88.29,6.36,1.48,9.22.94C90.68,287.86,83.41,283,79.9,277c2.8.34,5.5,2.15,8.5,1.76-1.14-2.55-3.56-5.21-5.55-7.18-2.38-2.37-5.19-6.19-7.78-8l-.14-.05c-2.59,1.78-5.4,5.61-7.78,8a27.07,27.07,0,0,0-5.55,7.18c3,.39,5.7-1.42,8.5-1.76-3.51,5.95-10.78,10.84-13.3,17.24,2.86.54,6.34-.66,9.22-.95-2.81,7.25-10.31,13-12.95,20.32,6.36-1.43,13.28.4,19.58.47.47,7.36-.73,14.89-.28,22.14a47.34,47.34,0,0,1,5.18.22" style="fill:#5b7a52"/><path d="M78.58,336.24c.42-7.39-.72-14.76-.28-22.15l-1,1c6.43-.1,12.93-1.86,19.33-.5.65.14,1.44-.44,1.17-1.16-2.87-7.67-9.94-12.77-12.95-20.32l-.92,1.2c3.18.36,6.25,1.43,9.47.91a1,1,0,0,0,.67-1.17c-2.85-7-9.59-11.14-13.4-17.46l-1.08,1.39c3,.44,5.67,2.09,8.76,1.8a1,1,0,0,0,.82-1.43c-1.61-3.44-4.45-5.95-7-8.71-1.27-1.39-2.48-2.85-3.79-4.21-.82-.85-2.07-2.45-3.29-2.72s-2.91,1.9-3.65,2.68c-1.31,1.36-2.52,2.81-3.79,4.21-2.51,2.75-5.35,5.26-7,8.7a1,1,0,0,0,.82,1.43c3.09.3,5.77-1.36,8.76-1.79l-1.08-1.4C65.47,282.82,58.73,287,55.88,294a1,1,0,0,0,.67,1.17c3.22.52,6.29-.55,9.47-.91L65.1,293c-3,7.56-10.08,12.66-12.95,20.32-.27.73.52,1.31,1.17,1.17,6.4-1.36,12.9.39,19.33.5l-1-.95c.44,7.38-.7,14.75-.28,22.14a1,1,0,0,0,1,.95,42.75,42.75,0,0,1,5.18.22,1,1,0,0,0,0-1.9,42.75,42.75,0,0,0-5.18-.22l.95.95c-.42-7.39.72-14.76.28-22.14a1,1,0,0,0-.95-.95c-6.63-.11-13.23-1.84-19.84-.43L54,313.83c2.86-7.62,9.93-12.74,13-20.32a1,1,0,0,0-.91-1.2c-2.95.34-6,1.46-9,1l.67,1.17c2.75-6.74,9.5-10.87,13.2-17a1,1,0,0,0-1.07-1.39c-2.81.4-5.35,2-8.25,1.72l.82,1.43c1.46-3.12,4-5.42,6.28-7.9,2.16-2.33,4.1-5.05,6.71-6.91l-.73.1a5.41,5.41,0,0,1,1.48,1.27c.58.54,1.12,1.11,1.66,1.69C79,268.7,80,270,81.17,271.22c2.35,2.53,4.92,4.86,6.41,8l.82-1.43c-2.9.28-5.45-1.32-8.25-1.73a1,1,0,0,0-1.07,1.4c3.7,6.14,10.45,10.27,13.2,17l.67-1.17c-3,.48-6-.65-9-1a.94.94,0,0,0-.91,1.2c3,7.57,10.09,12.69,13,20.32l1.17-1.17c-6.61-1.4-13.21.33-19.84.43a1,1,0,0,0-.95.95c-.44,7.39.7,14.76.28,22.15-.07,1.22,1.84,1.21,1.9,0Z" style="fill:#5b7a52"/><path d="M302.63,186.24c.45-7.26-.75-14.78-.28-22.15,6.3-.06,13.22-1.89,19.58-.46-2.64-7.29-10.14-13.07-12.95-20.32,2.88.29,6.36,1.48,9.22.94-2.52-6.39-9.79-11.28-13.3-17.23,2.8.34,5.5,2.15,8.5,1.76-1.14-2.55-3.56-5.21-5.55-7.18-2.38-2.37-5.19-6.19-7.78-8l-.14,0c-2.59,1.78-5.4,5.61-7.78,8a27.07,27.07,0,0,0-5.55,7.18c3,.39,5.7-1.42,8.5-1.76-3.51,5.95-10.78,10.84-13.3,17.24,2.86.54,6.34-.66,9.22-1-2.81,7.25-10.31,13-12.95,20.32,6.36-1.43,13.28.4,19.58.47.47,7.36-.73,14.89-.28,22.14a47.34,47.34,0,0,1,5.18.22" style="fill:#5b7a52"/><path d="M303.58,186.24c.42-7.39-.72-14.76-.28-22.15l-.95.95c6.43-.1,12.93-1.86,19.33-.5.65.14,1.44-.44,1.17-1.16-2.87-7.67-9.94-12.77-13-20.32l-.92,1.2c3.18.36,6.25,1.43,9.47.91a1,1,0,0,0,.67-1.17c-2.85-7-9.59-11.14-13.4-17.46l-1.08,1.39c3,.44,5.67,2.09,8.76,1.8a1,1,0,0,0,.82-1.43c-1.61-3.44-4.45-6-7-8.71-1.27-1.39-2.48-2.85-3.79-4.21-.82-.85-2.07-2.45-3.29-2.72s-2.91,1.9-3.65,2.68c-1.31,1.36-2.52,2.81-3.79,4.21-2.51,2.75-5.35,5.26-7,8.7a1,1,0,0,0,.82,1.43c3.09.3,5.77-1.36,8.76-1.79l-1.08-1.4c-3.81,6.33-10.55,10.49-13.4,17.46a1,1,0,0,0,.67,1.17c3.22.52,6.29-.55,9.47-.91l-.92-1.2c-3,7.56-10.08,12.66-13,20.32-.27.73.52,1.31,1.17,1.17,6.4-1.36,12.9.39,19.33.5l-.95-.95c.44,7.38-.7,14.75-.28,22.14a1,1,0,0,0,.95.95,42.75,42.75,0,0,1,5.18.22,1,1,0,0,0,0-1.9,42.75,42.75,0,0,0-5.18-.22l.95.95c-.42-7.39.72-14.76.28-22.14a1,1,0,0,0-1-1c-6.63-.11-13.23-1.84-19.84-.43l1.17,1.16c2.86-7.62,9.93-12.74,12.95-20.32a1,1,0,0,0-.91-1.2c-2.95.34-6,1.46-9,1l.67,1.17c2.75-6.74,9.5-10.87,13.2-17a1,1,0,0,0-1.07-1.39c-2.81.4-5.35,2-8.25,1.72l.82,1.43c1.46-3.12,4-5.42,6.28-7.9,2.16-2.33,4.1-5,6.71-6.91l-.73.1a5.41,5.41,0,0,1,1.48,1.27c.58.54,1.12,1.11,1.66,1.69,1.13,1.24,2.21,2.53,3.35,3.76,2.35,2.53,4.92,4.86,6.41,8l.82-1.43c-2.9.28-5.45-1.32-8.25-1.73a1,1,0,0,0-1.07,1.4c3.7,6.14,10.45,10.27,13.2,17l.67-1.17c-3,.48-6-.65-9-1a.94.94,0,0,0-.91,1.2c3,7.57,10.09,12.69,12.95,20.32l1.17-1.17c-6.61-1.4-13.21.33-19.84.43a1,1,0,0,0-1,1c-.44,7.39.7,14.76.28,22.15-.07,1.22,1.84,1.21,1.9,0Z" style="fill:#5b7a52"/><path d="M152.63,186.24c.45-7.26-.75-14.78-.28-22.15,6.3-.06,13.22-1.89,19.58-.46-2.64-7.29-10.14-13.07-13-20.32,2.88.29,6.36,1.48,9.22.94-2.52-6.39-9.79-11.28-13.3-17.23,2.8.34,5.5,2.15,8.5,1.76-1.14-2.55-3.56-5.21-5.55-7.18-2.38-2.37-5.19-6.19-7.78-8l-.14,0c-2.59,1.78-5.4,5.61-7.78,8a27.07,27.07,0,0,0-5.55,7.18c3,.39,5.7-1.42,8.5-1.76-3.51,5.95-10.78,10.84-13.3,17.24,2.86.54,6.34-.66,9.22-1-2.81,7.25-10.31,13-13,20.32,6.36-1.43,13.28.4,19.58.47.47,7.36-.73,14.89-.28,22.14a47.34,47.34,0,0,1,5.18.22" style="fill:#5b7a52"/><path d="M153.58,186.24c.42-7.39-.72-14.76-.28-22.15l-1,.95c6.43-.1,12.93-1.86,19.33-.5.65.14,1.44-.44,1.17-1.16-2.87-7.67-9.94-12.77-12.95-20.32l-.92,1.2c3.18.36,6.25,1.43,9.47.91a1,1,0,0,0,.67-1.17c-2.85-7-9.59-11.14-13.4-17.46l-1.08,1.39c3,.44,5.67,2.09,8.76,1.8a1,1,0,0,0,.82-1.43c-1.61-3.44-4.45-6-7-8.71-1.27-1.39-2.48-2.85-3.79-4.21-.82-.85-2.07-2.45-3.29-2.72s-2.91,1.9-3.65,2.68c-1.31,1.36-2.52,2.81-3.79,4.21-2.51,2.75-5.35,5.26-7,8.7a1,1,0,0,0,.82,1.43c3.09.3,5.77-1.36,8.76-1.79l-1.08-1.4c-3.81,6.33-10.55,10.49-13.4,17.46a1,1,0,0,0,.67,1.17c3.22.52,6.29-.55,9.47-.91l-.92-1.2c-3,7.56-10.08,12.66-12.95,20.32-.27.73.52,1.31,1.17,1.17,6.4-1.36,12.9.39,19.33.5l-1-.95c.44,7.38-.7,14.75-.28,22.14a1,1,0,0,0,1,.95,42.75,42.75,0,0,1,5.18.22,1,1,0,0,0,0-1.9,42.75,42.75,0,0,0-5.18-.22l.95.95c-.42-7.39.72-14.76.28-22.14a1,1,0,0,0-.95-1c-6.63-.11-13.23-1.84-19.84-.43l1.17,1.16c2.86-7.62,9.93-12.74,13-20.32a1,1,0,0,0-.91-1.2c-3,.34-6,1.46-9,1l.67,1.17c2.75-6.74,9.5-10.87,13.2-17a1,1,0,0,0-1.07-1.39c-2.81.4-5.35,2-8.25,1.72l.82,1.43c1.46-3.12,4-5.42,6.28-7.9,2.16-2.33,4.1-5,6.71-6.91l-.73.1a5.41,5.41,0,0,1,1.48,1.27c.58.54,1.12,1.11,1.66,1.69,1.13,1.24,2.21,2.53,3.35,3.76,2.35,2.53,4.92,4.86,6.41,8l.82-1.43c-2.9.28-5.45-1.32-8.25-1.73a1,1,0,0,0-1.07,1.4c3.7,6.14,10.45,10.27,13.2,17l.67-1.17c-3,.48-6-.65-9-1a.94.94,0,0,0-.91,1.2c3,7.57,10.09,12.69,13,20.32l1.17-1.17c-6.61-1.4-13.21.33-19.84.43a1,1,0,0,0-.95,1c-.44,7.39.7,14.76.28,22.15-.07,1.22,1.84,1.21,1.9,0Z" style="fill:#5b7a52"/><path d="M2.63,186.24c.45-7.26-.75-14.78-.28-22.15,6.3-.06,13.22-1.89,19.58-.46C19.29,156.34,11.79,150.56,9,143.31c2.88.29,6.36,1.48,9.22.94C15.68,137.86,8.41,133,4.9,127c2.8.34,5.5,2.15,8.5,1.76-1.14-2.55-3.56-5.21-5.55-7.18-2.38-2.37-5.19-6.19-7.78-8l-.14,0c-2.59,1.78-5.4,5.61-7.78,8a27.07,27.07,0,0,0-5.55,7.18c3,.39,5.7-1.42,8.5-1.76-3.51,5.95-10.78,10.84-13.3,17.24,2.86.54,6.34-.66,9.22-1-2.81,7.25-10.31,13-12.95,20.32,6.36-1.43,13.28.4,19.58.47.47,7.36-.73,14.89-.28,22.14a47.34,47.34,0,0,1,5.18.22" style="fill:#5b7a52"/><path d="M3.58,186.24c.42-7.39-.72-14.76-.28-22.15l-.95.95c6.43-.1,12.93-1.86,19.33-.5.65.14,1.44-.44,1.17-1.16C20,155.71,12.91,150.61,9.9,143.06L9,144.26c3.18.36,6.25,1.43,9.47.91a1,1,0,0,0,.67-1.17c-2.85-7-9.59-11.14-13.4-17.46l-1.08,1.39c3,.44,5.67,2.09,8.76,1.8a1,1,0,0,0,.82-1.43c-1.61-3.44-4.45-6-7-8.71-1.27-1.39-2.48-2.85-3.79-4.21-.82-.85-2.07-2.45-3.29-2.72s-2.91,1.9-3.65,2.68c-1.31,1.36-2.52,2.81-3.79,4.21-2.51,2.75-5.35,5.26-7,8.7a1,1,0,0,0,.82,1.43c3.09.3,5.77-1.36,8.76-1.79l-1.08-1.4C-9.53,132.82-16.27,137-19.12,144a1,1,0,0,0,.67,1.17c3.22.52,6.29-.55,9.47-.91L-9.9,143c-3,7.56-10.08,12.66-12.95,20.32-.27.73.52,1.31,1.17,1.17,6.4-1.36,12.9.39,19.33.5l-.95-.95c.44,7.38-.7,14.75-.28,22.14a1,1,0,0,0,1,.95,42.75,42.75,0,0,1,5.18.22,1,1,0,0,0,0-1.9,42.75,42.75,0,0,0-5.18-.22l1,.95c-.42-7.39.72-14.76.28-22.14a1,1,0,0,0-1-1c-6.63-.11-13.23-1.84-19.84-.43l1.17,1.16c2.86-7.62,9.93-12.74,13-20.32a1,1,0,0,0-.91-1.2c-2.95.34-6,1.46-9,1l.67,1.17c2.75-6.74,9.5-10.87,13.2-17a1,1,0,0,0-1.07-1.39c-2.81.4-5.35,2-8.25,1.72l.82,1.43c1.46-3.12,4-5.42,6.28-7.9,2.16-2.33,4.1-5,6.71-6.91l-.73.1a5.41,5.41,0,0,1,1.48,1.27c.58.54,1.12,1.11,1.66,1.69C4,118.7,5,120,6.17,121.22c2.35,2.53,4.92,4.86,6.41,8l.82-1.43c-2.9.28-5.45-1.32-8.25-1.73a1,1,0,0,0-1.07,1.4c3.7,6.14,10.45,10.27,13.2,17l.67-1.17c-3,.48-6-.65-9-1a.94.94,0,0,0-.91,1.2c3,7.57,10.09,12.69,13,20.32l1.17-1.17c-6.61-1.4-13.21.33-19.84.43a1,1,0,0,0-1,1c-.44,7.39.7,14.76.28,22.15-.07,1.22,1.84,1.21,1.9,0Z" style="fill:#5b7a52"/><path d="M227.63,36.24c.45-7.26-.75-14.78-.28-22.15,6.3-.06,13.22-1.89,19.58-.46C244.29,6.34,236.79.56,234-6.69c2.88.29,6.36,1.48,9.22.94C240.68-12.14,233.41-17,229.9-23c2.8.34,5.5,2.15,8.5,1.76-1.14-2.55-3.56-5.21-5.55-7.18-2.38-2.37-5.19-6.19-7.78-8l-.14-.05c-2.59,1.78-5.4,5.61-7.78,8a27.07,27.07,0,0,0-5.55,7.18c3,.39,5.7-1.42,8.5-1.76-3.51,6-10.78,10.84-13.3,17.24,2.86.54,6.34-.66,9.22-1-2.81,7.25-10.31,13-13,20.32,6.36-1.43,13.28.4,19.58.47.47,7.36-.73,14.89-.28,22.14a47.34,47.34,0,0,1,5.18.22" style="fill:#5b7a52"/><path d="M228.58,36.24c.42-7.39-.72-14.76-.28-22.15l-1,.95c6.43-.1,12.93-1.86,19.33-.5.65.14,1.44-.44,1.17-1.16C245,5.71,237.91.61,234.9-6.94L234-5.74c3.18.36,6.25,1.43,9.47.91A1,1,0,0,0,244.12-6c-2.85-7-9.59-11.14-13.4-17.46l-1.08,1.39c3,.44,5.67,2.09,8.76,1.8a1,1,0,0,0,.82-1.43c-1.61-3.44-4.45-5.95-7-8.71-1.27-1.39-2.48-2.85-3.79-4.21-.82-.85-2.07-2.45-3.29-2.72s-2.91,1.9-3.65,2.68c-1.31,1.36-2.52,2.81-3.79,4.21-2.51,2.75-5.35,5.26-7,8.7a1,1,0,0,0,.82,1.43c3.09.3,5.77-1.36,8.76-1.79l-1.08-1.4C215.47-17.18,208.73-13,205.88-6a1,1,0,0,0,.67,1.17c3.22.52,6.29-.55,9.47-.91L215.1-7C212.09.57,205,5.67,202.15,13.33c-.27.73.52,1.31,1.17,1.17,6.4-1.36,12.9.39,19.33.5l-1-.95c.44,7.38-.7,14.75-.28,22.14a1,1,0,0,0,1,1,42.75,42.75,0,0,1,5.18.22,1,1,0,0,0,0-1.9,42.75,42.75,0,0,0-5.18-.22l.95.95c-.42-7.39.72-14.76.28-22.14a1,1,0,0,0-.95-1c-6.63-.11-13.23-1.84-19.84-.43L204,13.83c2.86-7.62,9.93-12.74,13-20.32a1,1,0,0,0-.91-1.2c-3,.34-6,1.46-9,1l.67,1.17c2.75-6.74,9.5-10.87,13.2-17a1,1,0,0,0-1.07-1.39c-2.81.4-5.35,2-8.25,1.72l.82,1.43c1.46-3.12,4-5.42,6.28-7.9,2.16-2.33,4.1-5.05,6.71-6.91l-.73.1a5.41,5.41,0,0,1,1.48,1.27c.58.54,1.12,1.11,1.66,1.69C229-31.3,230-30,231.17-28.78c2.35,2.53,4.92,4.86,6.41,8l.82-1.43c-2.9.28-5.45-1.32-8.25-1.73a1,1,0,0,0-1.07,1.4c3.7,6.14,10.45,10.27,13.2,17L243-6.66c-3,.48-6-.65-9-1a.94.94,0,0,0-.91,1.2c3,7.57,10.09,12.69,13,20.32l1.17-1.17c-6.61-1.4-13.21.33-19.84.43a1,1,0,0,0-.95.95c-.44,7.39.7,14.76.28,22.15-.07,1.22,1.84,1.21,1.9,0Z" style="fill:#5b7a52"/><path d="M77.63,36.24c.45-7.26-.75-14.78-.28-22.15,6.3-.06,13.22-1.89,19.58-.46C94.29,6.34,86.79.56,84-6.69c2.88.29,6.36,1.48,9.22.94C90.68-12.14,83.41-17,79.9-23c2.8.34,5.5,2.15,8.5,1.76-1.14-2.55-3.56-5.21-5.55-7.18-2.38-2.37-5.19-6.19-7.78-8l-.14-.05c-2.59,1.78-5.4,5.61-7.78,8a27.07,27.07,0,0,0-5.55,7.18c3,.39,5.7-1.42,8.5-1.76-3.51,6-10.78,10.84-13.3,17.24,2.86.54,6.34-.66,9.22-1C63.21.51,55.71,6.29,53.07,13.58c6.36-1.43,13.28.4,19.58.47.47,7.36-.73,14.89-.28,22.14a47.34,47.34,0,0,1,5.18.22" style="fill:#5b7a52"/><path d="M78.58,36.24c.42-7.39-.72-14.76-.28-22.15l-1,.95c6.43-.1,12.93-1.86,19.33-.5.65.14,1.44-.44,1.17-1.16C95,5.71,87.91.61,84.9-6.94L84-5.74c3.18.36,6.25,1.43,9.47.91A1,1,0,0,0,94.12-6c-2.85-7-9.59-11.14-13.4-17.46l-1.08,1.39c3,.44,5.67,2.09,8.76,1.8a1,1,0,0,0,.82-1.43c-1.61-3.44-4.45-5.95-7-8.71-1.27-1.39-2.48-2.85-3.79-4.21-.82-.85-2.07-2.45-3.29-2.72s-2.91,1.9-3.65,2.68c-1.31,1.36-2.52,2.81-3.79,4.21-2.51,2.75-5.35,5.26-7,8.7a1,1,0,0,0,.82,1.43c3.09.3,5.77-1.36,8.76-1.79l-1.08-1.4C65.47-17.18,58.73-13,55.88-6a1,1,0,0,0,.67,1.17c3.22.52,6.29-.55,9.47-.91L65.1-7C62.09.57,55,5.67,52.15,13.33c-.27.73.52,1.31,1.17,1.17,6.4-1.36,12.9.39,19.33.5l-1-.95c.44,7.38-.7,14.75-.28,22.14a1,1,0,0,0,1,1,42.75,42.75,0,0,1,5.18.22,1,1,0,0,0,0-1.9,42.75,42.75,0,0,0-5.18-.22l.95.95c-.42-7.39.72-14.76.28-22.14a1,1,0,0,0-.95-1C66,13,59.42,11.26,52.81,12.67L54,13.83c2.86-7.62,9.93-12.74,13-20.32A1,1,0,0,0,66-7.69c-2.95.34-6,1.46-9,1l.67,1.17c2.75-6.74,9.5-10.87,13.2-17a1,1,0,0,0-1.07-1.39c-2.81.4-5.35,2-8.25,1.72l.82,1.43c1.46-3.12,4-5.42,6.28-7.9,2.16-2.33,4.1-5.05,6.71-6.91l-.73.1a5.41,5.41,0,0,1,1.48,1.27c.58.54,1.12,1.11,1.66,1.69C79-31.3,80-30,81.17-28.78c2.35,2.53,4.92,4.86,6.41,8l.82-1.43c-2.9.28-5.45-1.32-8.25-1.73a1,1,0,0,0-1.07,1.4c3.7,6.14,10.45,10.27,13.2,17L93-6.66c-3,.48-6-.65-9-1a.94.94,0,0,0-.91,1.2c3,7.57,10.09,12.69,13,20.32l1.17-1.17c-6.61-1.4-13.21.33-19.84.43a1,1,0,0,0-.95.95c-.44,7.39.7,14.76.28,22.15-.07,1.22,1.84,1.21,1.9,0Z" style="fill:#5b7a52"/></pattern><clipPath id="clip-path-3"><rect x="3.04" y="694.58" width="599.5" height="599.5" style="fill:#5b7a52"/></clipPath><clipPath id="clip-path-4"><rect x="3.04" y="694.58" width="599.5" height="599.5" style="fill:none"/></clipPath><pattern id="medium_2_forest" data-name="medium 2 forest" width="300" height="300" patternTransform="translate(218 1872)" patternUnits="userSpaceOnUse" viewBox="0 0 300 300"><rect width="300" height="300" style="fill:none"/><path d="M227.63,336.24c.45-7.26-.75-14.78-.28-22.15,6.3-.06,13.22-1.89,19.58-.46-2.64-7.29-10.14-13.07-13-20.32,2.88.29,6.36,1.48,9.22.94-2.52-6.39-9.79-11.28-13.3-17.23,2.8.34,5.5,2.15,8.5,1.76-1.14-2.55-3.56-5.21-5.55-7.18-2.38-2.37-5.19-6.19-7.78-8l-.14-.05c-2.59,1.78-5.4,5.61-7.78,8a27.07,27.07,0,0,0-5.55,7.18c3,.39,5.7-1.42,8.5-1.76-3.51,5.95-10.78,10.84-13.3,17.24,2.86.54,6.34-.66,9.22-.95-2.81,7.25-10.31,13-13,20.32,6.36-1.43,13.28.4,19.58.47.47,7.36-.73,14.89-.28,22.14a47.34,47.34,0,0,1,5.18.22" style="fill:#90a68a"/><path d="M228.58,336.24c.42-7.39-.72-14.76-.28-22.15l-1,1c6.43-.1,12.93-1.86,19.33-.5.65.14,1.44-.44,1.17-1.16-2.87-7.67-9.94-12.77-12.95-20.32l-.92,1.2c3.18.36,6.25,1.43,9.47.91a1,1,0,0,0,.67-1.17c-2.85-7-9.59-11.14-13.4-17.46l-1.08,1.39c3,.44,5.67,2.09,8.76,1.8a1,1,0,0,0,.82-1.43c-1.61-3.44-4.45-5.95-7-8.71-1.27-1.39-2.48-2.85-3.79-4.21-.82-.85-2.07-2.45-3.29-2.72s-2.91,1.9-3.65,2.68c-1.31,1.36-2.52,2.81-3.79,4.21-2.51,2.75-5.35,5.26-7,8.7a1,1,0,0,0,.82,1.43c3.09.3,5.77-1.36,8.76-1.79l-1.08-1.4c-3.81,6.33-10.55,10.49-13.4,17.46a1,1,0,0,0,.67,1.17c3.22.52,6.29-.55,9.47-.91l-.92-1.2c-3,7.56-10.08,12.66-12.95,20.32-.27.73.52,1.31,1.17,1.17,6.4-1.36,12.9.39,19.33.5l-1-.95c.44,7.38-.7,14.75-.28,22.14a1,1,0,0,0,1,.95,42.75,42.75,0,0,1,5.18.22,1,1,0,0,0,0-1.9,42.75,42.75,0,0,0-5.18-.22l.95.95c-.42-7.39.72-14.76.28-22.14a1,1,0,0,0-.95-.95c-6.63-.11-13.23-1.84-19.84-.43l1.17,1.16c2.86-7.62,9.93-12.74,13-20.32a1,1,0,0,0-.91-1.2c-3,.34-6,1.46-9,1l.67,1.17c2.75-6.74,9.5-10.87,13.2-17a1,1,0,0,0-1.07-1.39c-2.81.4-5.35,2-8.25,1.72l.82,1.43c1.46-3.12,4-5.42,6.28-7.9,2.16-2.33,4.1-5.05,6.71-6.91l-.73.1a5.41,5.41,0,0,1,1.48,1.27c.58.54,1.12,1.11,1.66,1.69,1.13,1.24,2.21,2.53,3.35,3.76,2.35,2.53,4.92,4.86,6.41,8l.82-1.43c-2.9.28-5.45-1.32-8.25-1.73a1,1,0,0,0-1.07,1.4c3.7,6.14,10.45,10.27,13.2,17l.67-1.17c-3,.48-6-.65-9-1a.94.94,0,0,0-.91,1.2c3,7.57,10.09,12.69,13,20.32l1.17-1.17c-6.61-1.4-13.21.33-19.84.43a1,1,0,0,0-.95.95c-.44,7.39.7,14.76.28,22.15-.07,1.22,1.84,1.21,1.9,0Z" style="fill:#90a68a"/><path d="M77.63,336.24c.45-7.26-.75-14.78-.28-22.15,6.3-.06,13.22-1.89,19.58-.46-2.64-7.29-10.14-13.07-13-20.32,2.88.29,6.36,1.48,9.22.94C90.68,287.86,83.41,283,79.9,277c2.8.34,5.5,2.15,8.5,1.76-1.14-2.55-3.56-5.21-5.55-7.18-2.38-2.37-5.19-6.19-7.78-8l-.14-.05c-2.59,1.78-5.4,5.61-7.78,8a27.07,27.07,0,0,0-5.55,7.18c3,.39,5.7-1.42,8.5-1.76-3.51,5.95-10.78,10.84-13.3,17.24,2.86.54,6.34-.66,9.22-.95-2.81,7.25-10.31,13-12.95,20.32,6.36-1.43,13.28.4,19.58.47.47,7.36-.73,14.89-.28,22.14a47.34,47.34,0,0,1,5.18.22" style="fill:#90a68a"/><path d="M78.58,336.24c.42-7.39-.72-14.76-.28-22.15l-1,1c6.43-.1,12.93-1.86,19.33-.5.65.14,1.44-.44,1.17-1.16-2.87-7.67-9.94-12.77-12.95-20.32l-.92,1.2c3.18.36,6.25,1.43,9.47.91a1,1,0,0,0,.67-1.17c-2.85-7-9.59-11.14-13.4-17.46l-1.08,1.39c3,.44,5.67,2.09,8.76,1.8a1,1,0,0,0,.82-1.43c-1.61-3.44-4.45-5.95-7-8.71-1.27-1.39-2.48-2.85-3.79-4.21-.82-.85-2.07-2.45-3.29-2.72s-2.91,1.9-3.65,2.68c-1.31,1.36-2.52,2.81-3.79,4.21-2.51,2.75-5.35,5.26-7,8.7a1,1,0,0,0,.82,1.43c3.09.3,5.77-1.36,8.76-1.79l-1.08-1.4C65.47,282.82,58.73,287,55.88,294a1,1,0,0,0,.67,1.17c3.22.52,6.29-.55,9.47-.91L65.1,293c-3,7.56-10.08,12.66-12.95,20.32-.27.73.52,1.31,1.17,1.17,6.4-1.36,12.9.39,19.33.5l-1-.95c.44,7.38-.7,14.75-.28,22.14a1,1,0,0,0,1,.95,42.75,42.75,0,0,1,5.18.22,1,1,0,0,0,0-1.9,42.75,42.75,0,0,0-5.18-.22l.95.95c-.42-7.39.72-14.76.28-22.14a1,1,0,0,0-.95-.95c-6.63-.11-13.23-1.84-19.84-.43L54,313.83c2.86-7.62,9.93-12.74,13-20.32a1,1,0,0,0-.91-1.2c-2.95.34-6,1.46-9,1l.67,1.17c2.75-6.74,9.5-10.87,13.2-17a1,1,0,0,0-1.07-1.39c-2.81.4-5.35,2-8.25,1.72l.82,1.43c1.46-3.12,4-5.42,6.28-7.9,2.16-2.33,4.1-5.05,6.71-6.91l-.73.1a5.41,5.41,0,0,1,1.48,1.27c.58.54,1.12,1.11,1.66,1.69C79,268.7,80,270,81.17,271.22c2.35,2.53,4.92,4.86,6.41,8l.82-1.43c-2.9.28-5.45-1.32-8.25-1.73a1,1,0,0,0-1.07,1.4c3.7,6.14,10.45,10.27,13.2,17l.67-1.17c-3,.48-6-.65-9-1a.94.94,0,0,0-.91,1.2c3,7.57,10.09,12.69,13,20.32l1.17-1.17c-6.61-1.4-13.21.33-19.84.43a1,1,0,0,0-.95.95c-.44,7.39.7,14.76.28,22.15-.07,1.22,1.84,1.21,1.9,0Z" style="fill:#90a68a"/><path d="M302.63,186.24c.45-7.26-.75-14.78-.28-22.15,6.3-.06,13.22-1.89,19.58-.46-2.64-7.29-10.14-13.07-12.95-20.32,2.88.29,6.36,1.48,9.22.94-2.52-6.39-9.79-11.28-13.3-17.23,2.8.34,5.5,2.15,8.5,1.76-1.14-2.55-3.56-5.21-5.55-7.18-2.38-2.37-5.19-6.19-7.78-8l-.14,0c-2.59,1.78-5.4,5.61-7.78,8a27.07,27.07,0,0,0-5.55,7.18c3,.39,5.7-1.42,8.5-1.76-3.51,5.95-10.78,10.84-13.3,17.24,2.86.54,6.34-.66,9.22-1-2.81,7.25-10.31,13-12.95,20.32,6.36-1.43,13.28.4,19.58.47.47,7.36-.73,14.89-.28,22.14a47.34,47.34,0,0,1,5.18.22" style="fill:#90a68a"/><path d="M303.58,186.24c.42-7.39-.72-14.76-.28-22.15l-.95.95c6.43-.1,12.93-1.86,19.33-.5.65.14,1.44-.44,1.17-1.16-2.87-7.67-9.94-12.77-13-20.32l-.92,1.2c3.18.36,6.25,1.43,9.47.91a1,1,0,0,0,.67-1.17c-2.85-7-9.59-11.14-13.4-17.46l-1.08,1.39c3,.44,5.67,2.09,8.76,1.8a1,1,0,0,0,.82-1.43c-1.61-3.44-4.45-6-7-8.71-1.27-1.39-2.48-2.85-3.79-4.21-.82-.85-2.07-2.45-3.29-2.72s-2.91,1.9-3.65,2.68c-1.31,1.36-2.52,2.81-3.79,4.21-2.51,2.75-5.35,5.26-7,8.7a1,1,0,0,0,.82,1.43c3.09.3,5.77-1.36,8.76-1.79l-1.08-1.4c-3.81,6.33-10.55,10.49-13.4,17.46a1,1,0,0,0,.67,1.17c3.22.52,6.29-.55,9.47-.91l-.92-1.2c-3,7.56-10.08,12.66-13,20.32-.27.73.52,1.31,1.17,1.17,6.4-1.36,12.9.39,19.33.5l-.95-.95c.44,7.38-.7,14.75-.28,22.14a1,1,0,0,0,.95.95,42.75,42.75,0,0,1,5.18.22,1,1,0,0,0,0-1.9,42.75,42.75,0,0,0-5.18-.22l.95.95c-.42-7.39.72-14.76.28-22.14a1,1,0,0,0-1-1c-6.63-.11-13.23-1.84-19.84-.43l1.17,1.16c2.86-7.62,9.93-12.74,12.95-20.32a1,1,0,0,0-.91-1.2c-2.95.34-6,1.46-9,1l.67,1.17c2.75-6.74,9.5-10.87,13.2-17a1,1,0,0,0-1.07-1.39c-2.81.4-5.35,2-8.25,1.72l.82,1.43c1.46-3.12,4-5.42,6.28-7.9,2.16-2.33,4.1-5,6.71-6.91l-.73.1a5.41,5.41,0,0,1,1.48,1.27c.58.54,1.12,1.11,1.66,1.69,1.13,1.24,2.21,2.53,3.35,3.76,2.35,2.53,4.92,4.86,6.41,8l.82-1.43c-2.9.28-5.45-1.32-8.25-1.73a1,1,0,0,0-1.07,1.4c3.7,6.14,10.45,10.27,13.2,17l.67-1.17c-3,.48-6-.65-9-1a.94.94,0,0,0-.91,1.2c3,7.57,10.09,12.69,12.95,20.32l1.17-1.17c-6.61-1.4-13.21.33-19.84.43a1,1,0,0,0-1,1c-.44,7.39.7,14.76.28,22.15-.07,1.22,1.84,1.21,1.9,0Z" style="fill:#90a68a"/><path d="M152.63,186.24c.45-7.26-.75-14.78-.28-22.15,6.3-.06,13.22-1.89,19.58-.46-2.64-7.29-10.14-13.07-13-20.32,2.88.29,6.36,1.48,9.22.94-2.52-6.39-9.79-11.28-13.3-17.23,2.8.34,5.5,2.15,8.5,1.76-1.14-2.55-3.56-5.21-5.55-7.18-2.38-2.37-5.19-6.19-7.78-8l-.14,0c-2.59,1.78-5.4,5.61-7.78,8a27.07,27.07,0,0,0-5.55,7.18c3,.39,5.7-1.42,8.5-1.76-3.51,5.95-10.78,10.84-13.3,17.24,2.86.54,6.34-.66,9.22-1-2.81,7.25-10.31,13-13,20.32,6.36-1.43,13.28.4,19.58.47.47,7.36-.73,14.89-.28,22.14a47.34,47.34,0,0,1,5.18.22" style="fill:#90a68a"/><path d="M153.58,186.24c.42-7.39-.72-14.76-.28-22.15l-1,.95c6.43-.1,12.93-1.86,19.33-.5.65.14,1.44-.44,1.17-1.16-2.87-7.67-9.94-12.77-12.95-20.32l-.92,1.2c3.18.36,6.25,1.43,9.47.91a1,1,0,0,0,.67-1.17c-2.85-7-9.59-11.14-13.4-17.46l-1.08,1.39c3,.44,5.67,2.09,8.76,1.8a1,1,0,0,0,.82-1.43c-1.61-3.44-4.45-6-7-8.71-1.27-1.39-2.48-2.85-3.79-4.21-.82-.85-2.07-2.45-3.29-2.72s-2.91,1.9-3.65,2.68c-1.31,1.36-2.52,2.81-3.79,4.21-2.51,2.75-5.35,5.26-7,8.7a1,1,0,0,0,.82,1.43c3.09.3,5.77-1.36,8.76-1.79l-1.08-1.4c-3.81,6.33-10.55,10.49-13.4,17.46a1,1,0,0,0,.67,1.17c3.22.52,6.29-.55,9.47-.91l-.92-1.2c-3,7.56-10.08,12.66-12.95,20.32-.27.73.52,1.31,1.17,1.17,6.4-1.36,12.9.39,19.33.5l-1-.95c.44,7.38-.7,14.75-.28,22.14a1,1,0,0,0,1,.95,42.75,42.75,0,0,1,5.18.22,1,1,0,0,0,0-1.9,42.75,42.75,0,0,0-5.18-.22l.95.95c-.42-7.39.72-14.76.28-22.14a1,1,0,0,0-.95-1c-6.63-.11-13.23-1.84-19.84-.43l1.17,1.16c2.86-7.62,9.93-12.74,13-20.32a1,1,0,0,0-.91-1.2c-3,.34-6,1.46-9,1l.67,1.17c2.75-6.74,9.5-10.87,13.2-17a1,1,0,0,0-1.07-1.39c-2.81.4-5.35,2-8.25,1.72l.82,1.43c1.46-3.12,4-5.42,6.28-7.9,2.16-2.33,4.1-5,6.71-6.91l-.73.1a5.41,5.41,0,0,1,1.48,1.27c.58.54,1.12,1.11,1.66,1.69,1.13,1.24,2.21,2.53,3.35,3.76,2.35,2.53,4.92,4.86,6.41,8l.82-1.43c-2.9.28-5.45-1.32-8.25-1.73a1,1,0,0,0-1.07,1.4c3.7,6.14,10.45,10.27,13.2,17l.67-1.17c-3,.48-6-.65-9-1a.94.94,0,0,0-.91,1.2c3,7.57,10.09,12.69,13,20.32l1.17-1.17c-6.61-1.4-13.21.33-19.84.43a1,1,0,0,0-.95,1c-.44,7.39.7,14.76.28,22.15-.07,1.22,1.84,1.21,1.9,0Z" style="fill:#90a68a"/><path d="M2.63,186.24c.45-7.26-.75-14.78-.28-22.15,6.3-.06,13.22-1.89,19.58-.46C19.29,156.34,11.79,150.56,9,143.31c2.88.29,6.36,1.48,9.22.94C15.68,137.86,8.41,133,4.9,127c2.8.34,5.5,2.15,8.5,1.76-1.14-2.55-3.56-5.21-5.55-7.18-2.38-2.37-5.19-6.19-7.78-8l-.14,0c-2.59,1.78-5.4,5.61-7.78,8a27.07,27.07,0,0,0-5.55,7.18c3,.39,5.7-1.42,8.5-1.76-3.51,5.95-10.78,10.84-13.3,17.24,2.86.54,6.34-.66,9.22-1-2.81,7.25-10.31,13-12.95,20.32,6.36-1.43,13.28.4,19.58.47.47,7.36-.73,14.89-.28,22.14a47.34,47.34,0,0,1,5.18.22" style="fill:#90a68a"/><path d="M3.58,186.24c.42-7.39-.72-14.76-.28-22.15l-.95.95c6.43-.1,12.93-1.86,19.33-.5.65.14,1.44-.44,1.17-1.16C20,155.71,12.91,150.61,9.9,143.06L9,144.26c3.18.36,6.25,1.43,9.47.91a1,1,0,0,0,.67-1.17c-2.85-7-9.59-11.14-13.4-17.46l-1.08,1.39c3,.44,5.67,2.09,8.76,1.8a1,1,0,0,0,.82-1.43c-1.61-3.44-4.45-6-7-8.71-1.27-1.39-2.48-2.85-3.79-4.21-.82-.85-2.07-2.45-3.29-2.72s-2.91,1.9-3.65,2.68c-1.31,1.36-2.52,2.81-3.79,4.21-2.51,2.75-5.35,5.26-7,8.7a1,1,0,0,0,.82,1.43c3.09.3,5.77-1.36,8.76-1.79l-1.08-1.4C-9.53,132.82-16.27,137-19.12,144a1,1,0,0,0,.67,1.17c3.22.52,6.29-.55,9.47-.91L-9.9,143c-3,7.56-10.08,12.66-12.95,20.32-.27.73.52,1.31,1.17,1.17,6.4-1.36,12.9.39,19.33.5l-.95-.95c.44,7.38-.7,14.75-.28,22.14a1,1,0,0,0,1,.95,42.75,42.75,0,0,1,5.18.22,1,1,0,0,0,0-1.9,42.75,42.75,0,0,0-5.18-.22l1,.95c-.42-7.39.72-14.76.28-22.14a1,1,0,0,0-1-1c-6.63-.11-13.23-1.84-19.84-.43l1.17,1.16c2.86-7.62,9.93-12.74,13-20.32a1,1,0,0,0-.91-1.2c-2.95.34-6,1.46-9,1l.67,1.17c2.75-6.74,9.5-10.87,13.2-17a1,1,0,0,0-1.07-1.39c-2.81.4-5.35,2-8.25,1.72l.82,1.43c1.46-3.12,4-5.42,6.28-7.9,2.16-2.33,4.1-5,6.71-6.91l-.73.1a5.41,5.41,0,0,1,1.48,1.27c.58.54,1.12,1.11,1.66,1.69C4,118.7,5,120,6.17,121.22c2.35,2.53,4.92,4.86,6.41,8l.82-1.43c-2.9.28-5.45-1.32-8.25-1.73a1,1,0,0,0-1.07,1.4c3.7,6.14,10.45,10.27,13.2,17l.67-1.17c-3,.48-6-.65-9-1a.94.94,0,0,0-.91,1.2c3,7.57,10.09,12.69,13,20.32l1.17-1.17c-6.61-1.4-13.21.33-19.84.43a1,1,0,0,0-1,1c-.44,7.39.7,14.76.28,22.15-.07,1.22,1.84,1.21,1.9,0Z" style="fill:#90a68a"/><path d="M227.63,36.24c.45-7.26-.75-14.78-.28-22.15,6.3-.06,13.22-1.89,19.58-.46C244.29,6.34,236.79.56,234-6.69c2.88.29,6.36,1.48,9.22.94C240.68-12.14,233.41-17,229.9-23c2.8.34,5.5,2.15,8.5,1.76-1.14-2.55-3.56-5.21-5.55-7.18-2.38-2.37-5.19-6.19-7.78-8l-.14-.05c-2.59,1.78-5.4,5.61-7.78,8a27.07,27.07,0,0,0-5.55,7.18c3,.39,5.7-1.42,8.5-1.76-3.51,6-10.78,10.84-13.3,17.24,2.86.54,6.34-.66,9.22-1-2.81,7.25-10.31,13-13,20.32,6.36-1.43,13.28.4,19.58.47.47,7.36-.73,14.89-.28,22.14a47.34,47.34,0,0,1,5.18.22" style="fill:#90a68a"/><path d="M228.58,36.24c.42-7.39-.72-14.76-.28-22.15l-1,.95c6.43-.1,12.93-1.86,19.33-.5.65.14,1.44-.44,1.17-1.16C245,5.71,237.91.61,234.9-6.94L234-5.74c3.18.36,6.25,1.43,9.47.91A1,1,0,0,0,244.12-6c-2.85-7-9.59-11.14-13.4-17.46l-1.08,1.39c3,.44,5.67,2.09,8.76,1.8a1,1,0,0,0,.82-1.43c-1.61-3.44-4.45-5.95-7-8.71-1.27-1.39-2.48-2.85-3.79-4.21-.82-.85-2.07-2.45-3.29-2.72s-2.91,1.9-3.65,2.68c-1.31,1.36-2.52,2.81-3.79,4.21-2.51,2.75-5.35,5.26-7,8.7a1,1,0,0,0,.82,1.43c3.09.3,5.77-1.36,8.76-1.79l-1.08-1.4C215.47-17.18,208.73-13,205.88-6a1,1,0,0,0,.67,1.17c3.22.52,6.29-.55,9.47-.91L215.1-7C212.09.57,205,5.67,202.15,13.33c-.27.73.52,1.31,1.17,1.17,6.4-1.36,12.9.39,19.33.5l-1-.95c.44,7.38-.7,14.75-.28,22.14a1,1,0,0,0,1,1,42.75,42.75,0,0,1,5.18.22,1,1,0,0,0,0-1.9,42.75,42.75,0,0,0-5.18-.22l.95.95c-.42-7.39.72-14.76.28-22.14a1,1,0,0,0-.95-1c-6.63-.11-13.23-1.84-19.84-.43L204,13.83c2.86-7.62,9.93-12.74,13-20.32a1,1,0,0,0-.91-1.2c-3,.34-6,1.46-9,1l.67,1.17c2.75-6.74,9.5-10.87,13.2-17a1,1,0,0,0-1.07-1.39c-2.81.4-5.35,2-8.25,1.72l.82,1.43c1.46-3.12,4-5.42,6.28-7.9,2.16-2.33,4.1-5.05,6.71-6.91l-.73.1a5.41,5.41,0,0,1,1.48,1.27c.58.54,1.12,1.11,1.66,1.69C229-31.3,230-30,231.17-28.78c2.35,2.53,4.92,4.86,6.41,8l.82-1.43c-2.9.28-5.45-1.32-8.25-1.73a1,1,0,0,0-1.07,1.4c3.7,6.14,10.45,10.27,13.2,17L243-6.66c-3,.48-6-.65-9-1a.94.94,0,0,0-.91,1.2c3,7.57,10.09,12.69,13,20.32l1.17-1.17c-6.61-1.4-13.21.33-19.84.43a1,1,0,0,0-.95.95c-.44,7.39.7,14.76.28,22.15-.07,1.22,1.84,1.21,1.9,0Z" style="fill:#90a68a"/><path d="M77.63,36.24c.45-7.26-.75-14.78-.28-22.15,6.3-.06,13.22-1.89,19.58-.46C94.29,6.34,86.79.56,84-6.69c2.88.29,6.36,1.48,9.22.94C90.68-12.14,83.41-17,79.9-23c2.8.34,5.5,2.15,8.5,1.76-1.14-2.55-3.56-5.21-5.55-7.18-2.38-2.37-5.19-6.19-7.78-8l-.14-.05c-2.59,1.78-5.4,5.61-7.78,8a27.07,27.07,0,0,0-5.55,7.18c3,.39,5.7-1.42,8.5-1.76-3.51,6-10.78,10.84-13.3,17.24,2.86.54,6.34-.66,9.22-1C63.21.51,55.71,6.29,53.07,13.58c6.36-1.43,13.28.4,19.58.47.47,7.36-.73,14.89-.28,22.14a47.34,47.34,0,0,1,5.18.22" style="fill:#90a68a"/><path d="M78.58,36.24c.42-7.39-.72-14.76-.28-22.15l-1,.95c6.43-.1,12.93-1.86,19.33-.5.65.14,1.44-.44,1.17-1.16C95,5.71,87.91.61,84.9-6.94L84-5.74c3.18.36,6.25,1.43,9.47.91A1,1,0,0,0,94.12-6c-2.85-7-9.59-11.14-13.4-17.46l-1.08,1.39c3,.44,5.67,2.09,8.76,1.8a1,1,0,0,0,.82-1.43c-1.61-3.44-4.45-5.95-7-8.71-1.27-1.39-2.48-2.85-3.79-4.21-.82-.85-2.07-2.45-3.29-2.72s-2.91,1.9-3.65,2.68c-1.31,1.36-2.52,2.81-3.79,4.21-2.51,2.75-5.35,5.26-7,8.7a1,1,0,0,0,.82,1.43c3.09.3,5.77-1.36,8.76-1.79l-1.08-1.4C65.47-17.18,58.73-13,55.88-6a1,1,0,0,0,.67,1.17c3.22.52,6.29-.55,9.47-.91L65.1-7C62.09.57,55,5.67,52.15,13.33c-.27.73.52,1.31,1.17,1.17,6.4-1.36,12.9.39,19.33.5l-1-.95c.44,7.38-.7,14.75-.28,22.14a1,1,0,0,0,1,1,42.75,42.75,0,0,1,5.18.22,1,1,0,0,0,0-1.9,42.75,42.75,0,0,0-5.18-.22l.95.95c-.42-7.39.72-14.76.28-22.14a1,1,0,0,0-.95-1C66,13,59.42,11.26,52.81,12.67L54,13.83c2.86-7.62,9.93-12.74,13-20.32A1,1,0,0,0,66-7.69c-2.95.34-6,1.46-9,1l.67,1.17c2.75-6.74,9.5-10.87,13.2-17a1,1,0,0,0-1.07-1.39c-2.81.4-5.35,2-8.25,1.72l.82,1.43c1.46-3.12,4-5.42,6.28-7.9,2.16-2.33,4.1-5.05,6.71-6.91l-.73.1a5.41,5.41,0,0,1,1.48,1.27c.58.54,1.12,1.11,1.66,1.69C79-31.3,80-30,81.17-28.78c2.35,2.53,4.92,4.86,6.41,8l.82-1.43c-2.9.28-5.45-1.32-8.25-1.73a1,1,0,0,0-1.07,1.4c3.7,6.14,10.45,10.27,13.2,17L93-6.66c-3,.48-6-.65-9-1a.94.94,0,0,0-.91,1.2c3,7.57,10.09,12.69,13,20.32l1.17-1.17c-6.61-1.4-13.21.33-19.84.43a1,1,0,0,0-.95.95c-.44,7.39.7,14.76.28,22.15-.07,1.22,1.84,1.21,1.9,0Z" style="fill:#90a68a"/></pattern><pattern id="medium_2_forest-3" data-name="medium 2 forest" width="300" height="300" patternTransform="translate(368 1872)" patternUnits="userSpaceOnUse" viewBox="0 0 300 300"><rect width="300" height="300" style="fill:none"/><path d="M227.63,336.24c.45-7.26-.75-14.78-.28-22.15,6.3-.06,13.22-1.89,19.58-.46-2.64-7.29-10.14-13.07-13-20.32,2.88.29,6.36,1.48,9.22.94-2.52-6.39-9.79-11.28-13.3-17.23,2.8.34,5.5,2.15,8.5,1.76-1.14-2.55-3.56-5.21-5.55-7.18-2.38-2.37-5.19-6.19-7.78-8l-.14-.05c-2.59,1.78-5.4,5.61-7.78,8a27.07,27.07,0,0,0-5.55,7.18c3,.39,5.7-1.42,8.5-1.76-3.51,5.95-10.78,10.84-13.3,17.24,2.86.54,6.34-.66,9.22-.95-2.81,7.25-10.31,13-13,20.32,6.36-1.43,13.28.4,19.58.47.47,7.36-.73,14.89-.28,22.14a47.34,47.34,0,0,1,5.18.22" style="fill:#90a68a"/><path d="M228.58,336.24c.42-7.39-.72-14.76-.28-22.15l-1,1c6.43-.1,12.93-1.86,19.33-.5.65.14,1.44-.44,1.17-1.16-2.87-7.67-9.94-12.77-12.95-20.32l-.92,1.2c3.18.36,6.25,1.43,9.47.91a1,1,0,0,0,.67-1.17c-2.85-7-9.59-11.14-13.4-17.46l-1.08,1.39c3,.44,5.67,2.09,8.76,1.8a1,1,0,0,0,.82-1.43c-1.61-3.44-4.45-5.95-7-8.71-1.27-1.39-2.48-2.85-3.79-4.21-.82-.85-2.07-2.45-3.29-2.72s-2.91,1.9-3.65,2.68c-1.31,1.36-2.52,2.81-3.79,4.21-2.51,2.75-5.35,5.26-7,8.7a1,1,0,0,0,.82,1.43c3.09.3,5.77-1.36,8.76-1.79l-1.08-1.4c-3.81,6.33-10.55,10.49-13.4,17.46a1,1,0,0,0,.67,1.17c3.22.52,6.29-.55,9.47-.91l-.92-1.2c-3,7.56-10.08,12.66-12.95,20.32-.27.73.52,1.31,1.17,1.17,6.4-1.36,12.9.39,19.33.5l-1-.95c.44,7.38-.7,14.75-.28,22.14a1,1,0,0,0,1,.95,42.75,42.75,0,0,1,5.18.22,1,1,0,0,0,0-1.9,42.75,42.75,0,0,0-5.18-.22l.95.95c-.42-7.39.72-14.76.28-22.14a1,1,0,0,0-.95-.95c-6.63-.11-13.23-1.84-19.84-.43l1.17,1.16c2.86-7.62,9.93-12.74,13-20.32a1,1,0,0,0-.91-1.2c-3,.34-6,1.46-9,1l.67,1.17c2.75-6.74,9.5-10.87,13.2-17a1,1,0,0,0-1.07-1.39c-2.81.4-5.35,2-8.25,1.72l.82,1.43c1.46-3.12,4-5.42,6.28-7.9,2.16-2.33,4.1-5.05,6.71-6.91l-.73.1a5.41,5.41,0,0,1,1.48,1.27c.58.54,1.12,1.11,1.66,1.69,1.13,1.24,2.21,2.53,3.35,3.76,2.35,2.53,4.92,4.86,6.41,8l.82-1.43c-2.9.28-5.45-1.32-8.25-1.73a1,1,0,0,0-1.07,1.4c3.7,6.14,10.45,10.27,13.2,17l.67-1.17c-3,.48-6-.65-9-1a.94.94,0,0,0-.91,1.2c3,7.57,10.09,12.69,13,20.32l1.17-1.17c-6.61-1.4-13.21.33-19.84.43a1,1,0,0,0-.95.95c-.44,7.39.7,14.76.28,22.15-.07,1.22,1.84,1.21,1.9,0Z" style="fill:#90a68a"/><path d="M77.63,336.24c.45-7.26-.75-14.78-.28-22.15,6.3-.06,13.22-1.89,19.58-.46-2.64-7.29-10.14-13.07-13-20.32,2.88.29,6.36,1.48,9.22.94C90.68,287.86,83.41,283,79.9,277c2.8.34,5.5,2.15,8.5,1.76-1.14-2.55-3.56-5.21-5.55-7.18-2.38-2.37-5.19-6.19-7.78-8l-.14-.05c-2.59,1.78-5.4,5.61-7.78,8a27.07,27.07,0,0,0-5.55,7.18c3,.39,5.7-1.42,8.5-1.76-3.51,5.95-10.78,10.84-13.3,17.24,2.86.54,6.34-.66,9.22-.95-2.81,7.25-10.31,13-12.95,20.32,6.36-1.43,13.28.4,19.58.47.47,7.36-.73,14.89-.28,22.14a47.34,47.34,0,0,1,5.18.22" style="fill:#90a68a"/><path d="M78.58,336.24c.42-7.39-.72-14.76-.28-22.15l-1,1c6.43-.1,12.93-1.86,19.33-.5.65.14,1.44-.44,1.17-1.16-2.87-7.67-9.94-12.77-12.95-20.32l-.92,1.2c3.18.36,6.25,1.43,9.47.91a1,1,0,0,0,.67-1.17c-2.85-7-9.59-11.14-13.4-17.46l-1.08,1.39c3,.44,5.67,2.09,8.76,1.8a1,1,0,0,0,.82-1.43c-1.61-3.44-4.45-5.95-7-8.71-1.27-1.39-2.48-2.85-3.79-4.21-.82-.85-2.07-2.45-3.29-2.72s-2.91,1.9-3.65,2.68c-1.31,1.36-2.52,2.81-3.79,4.21-2.51,2.75-5.35,5.26-7,8.7a1,1,0,0,0,.82,1.43c3.09.3,5.77-1.36,8.76-1.79l-1.08-1.4C65.47,282.82,58.73,287,55.88,294a1,1,0,0,0,.67,1.17c3.22.52,6.29-.55,9.47-.91L65.1,293c-3,7.56-10.08,12.66-12.95,20.32-.27.73.52,1.31,1.17,1.17,6.4-1.36,12.9.39,19.33.5l-1-.95c.44,7.38-.7,14.75-.28,22.14a1,1,0,0,0,1,.95,42.75,42.75,0,0,1,5.18.22,1,1,0,0,0,0-1.9,42.75,42.75,0,0,0-5.18-.22l.95.95c-.42-7.39.72-14.76.28-22.14a1,1,0,0,0-.95-.95c-6.63-.11-13.23-1.84-19.84-.43L54,313.83c2.86-7.62,9.93-12.74,13-20.32a1,1,0,0,0-.91-1.2c-2.95.34-6,1.46-9,1l.67,1.17c2.75-6.74,9.5-10.87,13.2-17a1,1,0,0,0-1.07-1.39c-2.81.4-5.35,2-8.25,1.72l.82,1.43c1.46-3.12,4-5.42,6.28-7.9,2.16-2.33,4.1-5.05,6.71-6.91l-.73.1a5.41,5.41,0,0,1,1.48,1.27c.58.54,1.12,1.11,1.66,1.69C79,268.7,80,270,81.17,271.22c2.35,2.53,4.92,4.86,6.41,8l.82-1.43c-2.9.28-5.45-1.32-8.25-1.73a1,1,0,0,0-1.07,1.4c3.7,6.14,10.45,10.27,13.2,17l.67-1.17c-3,.48-6-.65-9-1a.94.94,0,0,0-.91,1.2c3,7.57,10.09,12.69,13,20.32l1.17-1.17c-6.61-1.4-13.21.33-19.84.43a1,1,0,0,0-.95.95c-.44,7.39.7,14.76.28,22.15-.07,1.22,1.84,1.21,1.9,0Z" style="fill:#90a68a"/><path d="M302.63,186.24c.45-7.26-.75-14.78-.28-22.15,6.3-.06,13.22-1.89,19.58-.46-2.64-7.29-10.14-13.07-12.95-20.32,2.88.29,6.36,1.48,9.22.94-2.52-6.39-9.79-11.28-13.3-17.23,2.8.34,5.5,2.15,8.5,1.76-1.14-2.55-3.56-5.21-5.55-7.18-2.38-2.37-5.19-6.19-7.78-8l-.14,0c-2.59,1.78-5.4,5.61-7.78,8a27.07,27.07,0,0,0-5.55,7.18c3,.39,5.7-1.42,8.5-1.76-3.51,5.95-10.78,10.84-13.3,17.24,2.86.54,6.34-.66,9.22-1-2.81,7.25-10.31,13-12.95,20.32,6.36-1.43,13.28.4,19.58.47.47,7.36-.73,14.89-.28,22.14a47.34,47.34,0,0,1,5.18.22" style="fill:#90a68a"/><path d="M303.58,186.24c.42-7.39-.72-14.76-.28-22.15l-.95.95c6.43-.1,12.93-1.86,19.33-.5.65.14,1.44-.44,1.17-1.16-2.87-7.67-9.94-12.77-13-20.32l-.92,1.2c3.18.36,6.25,1.43,9.47.91a1,1,0,0,0,.67-1.17c-2.85-7-9.59-11.14-13.4-17.46l-1.08,1.39c3,.44,5.67,2.09,8.76,1.8a1,1,0,0,0,.82-1.43c-1.61-3.44-4.45-6-7-8.71-1.27-1.39-2.48-2.85-3.79-4.21-.82-.85-2.07-2.45-3.29-2.72s-2.91,1.9-3.65,2.68c-1.31,1.36-2.52,2.81-3.79,4.21-2.51,2.75-5.35,5.26-7,8.7a1,1,0,0,0,.82,1.43c3.09.3,5.77-1.36,8.76-1.79l-1.08-1.4c-3.81,6.33-10.55,10.49-13.4,17.46a1,1,0,0,0,.67,1.17c3.22.52,6.29-.55,9.47-.91l-.92-1.2c-3,7.56-10.08,12.66-13,20.32-.27.73.52,1.31,1.17,1.17,6.4-1.36,12.9.39,19.33.5l-.95-.95c.44,7.38-.7,14.75-.28,22.14a1,1,0,0,0,.95.95,42.75,42.75,0,0,1,5.18.22,1,1,0,0,0,0-1.9,42.75,42.75,0,0,0-5.18-.22l.95.95c-.42-7.39.72-14.76.28-22.14a1,1,0,0,0-1-1c-6.63-.11-13.23-1.84-19.84-.43l1.17,1.16c2.86-7.62,9.93-12.74,12.95-20.32a1,1,0,0,0-.91-1.2c-2.95.34-6,1.46-9,1l.67,1.17c2.75-6.74,9.5-10.87,13.2-17a1,1,0,0,0-1.07-1.39c-2.81.4-5.35,2-8.25,1.72l.82,1.43c1.46-3.12,4-5.42,6.28-7.9,2.16-2.33,4.1-5,6.71-6.91l-.73.1a5.41,5.41,0,0,1,1.48,1.27c.58.54,1.12,1.11,1.66,1.69,1.13,1.24,2.21,2.53,3.35,3.76,2.35,2.53,4.92,4.86,6.41,8l.82-1.43c-2.9.28-5.45-1.32-8.25-1.73a1,1,0,0,0-1.07,1.4c3.7,6.14,10.45,10.27,13.2,17l.67-1.17c-3,.48-6-.65-9-1a.94.94,0,0,0-.91,1.2c3,7.57,10.09,12.69,12.95,20.32l1.17-1.17c-6.61-1.4-13.21.33-19.84.43a1,1,0,0,0-1,1c-.44,7.39.7,14.76.28,22.15-.07,1.22,1.84,1.21,1.9,0Z" style="fill:#90a68a"/><path d="M152.63,186.24c.45-7.26-.75-14.78-.28-22.15,6.3-.06,13.22-1.89,19.58-.46-2.64-7.29-10.14-13.07-13-20.32,2.88.29,6.36,1.48,9.22.94-2.52-6.39-9.79-11.28-13.3-17.23,2.8.34,5.5,2.15,8.5,1.76-1.14-2.55-3.56-5.21-5.55-7.18-2.38-2.37-5.19-6.19-7.78-8l-.14,0c-2.59,1.78-5.4,5.61-7.78,8a27.07,27.07,0,0,0-5.55,7.18c3,.39,5.7-1.42,8.5-1.76-3.51,5.95-10.78,10.84-13.3,17.24,2.86.54,6.34-.66,9.22-1-2.81,7.25-10.31,13-13,20.32,6.36-1.43,13.28.4,19.58.47.47,7.36-.73,14.89-.28,22.14a47.34,47.34,0,0,1,5.18.22" style="fill:#90a68a"/><path d="M153.58,186.24c.42-7.39-.72-14.76-.28-22.15l-1,.95c6.43-.1,12.93-1.86,19.33-.5.65.14,1.44-.44,1.17-1.16-2.87-7.67-9.94-12.77-12.95-20.32l-.92,1.2c3.18.36,6.25,1.43,9.47.91a1,1,0,0,0,.67-1.17c-2.85-7-9.59-11.14-13.4-17.46l-1.08,1.39c3,.44,5.67,2.09,8.76,1.8a1,1,0,0,0,.82-1.43c-1.61-3.44-4.45-6-7-8.71-1.27-1.39-2.48-2.85-3.79-4.21-.82-.85-2.07-2.45-3.29-2.72s-2.91,1.9-3.65,2.68c-1.31,1.36-2.52,2.81-3.79,4.21-2.51,2.75-5.35,5.26-7,8.7a1,1,0,0,0,.82,1.43c3.09.3,5.77-1.36,8.76-1.79l-1.08-1.4c-3.81,6.33-10.55,10.49-13.4,17.46a1,1,0,0,0,.67,1.17c3.22.52,6.29-.55,9.47-.91l-.92-1.2c-3,7.56-10.08,12.66-12.95,20.32-.27.73.52,1.31,1.17,1.17,6.4-1.36,12.9.39,19.33.5l-1-.95c.44,7.38-.7,14.75-.28,22.14a1,1,0,0,0,1,.95,42.75,42.75,0,0,1,5.18.22,1,1,0,0,0,0-1.9,42.75,42.75,0,0,0-5.18-.22l.95.95c-.42-7.39.72-14.76.28-22.14a1,1,0,0,0-.95-1c-6.63-.11-13.23-1.84-19.84-.43l1.17,1.16c2.86-7.62,9.93-12.74,13-20.32a1,1,0,0,0-.91-1.2c-3,.34-6,1.46-9,1l.67,1.17c2.75-6.74,9.5-10.87,13.2-17a1,1,0,0,0-1.07-1.39c-2.81.4-5.35,2-8.25,1.72l.82,1.43c1.46-3.12,4-5.42,6.28-7.9,2.16-2.33,4.1-5,6.71-6.91l-.73.1a5.41,5.41,0,0,1,1.48,1.27c.58.54,1.12,1.11,1.66,1.69,1.13,1.24,2.21,2.53,3.35,3.76,2.35,2.53,4.92,4.86,6.41,8l.82-1.43c-2.9.28-5.45-1.32-8.25-1.73a1,1,0,0,0-1.07,1.4c3.7,6.14,10.45,10.27,13.2,17l.67-1.17c-3,.48-6-.65-9-1a.94.94,0,0,0-.91,1.2c3,7.57,10.09,12.69,13,20.32l1.17-1.17c-6.61-1.4-13.21.33-19.84.43a1,1,0,0,0-.95,1c-.44,7.39.7,14.76.28,22.15-.07,1.22,1.84,1.21,1.9,0Z" style="fill:#90a68a"/><path d="M2.63,186.24c.45-7.26-.75-14.78-.28-22.15,6.3-.06,13.22-1.89,19.58-.46C19.29,156.34,11.79,150.56,9,143.31c2.88.29,6.36,1.48,9.22.94C15.68,137.86,8.41,133,4.9,127c2.8.34,5.5,2.15,8.5,1.76-1.14-2.55-3.56-5.21-5.55-7.18-2.38-2.37-5.19-6.19-7.78-8l-.14,0c-2.59,1.78-5.4,5.61-7.78,8a27.07,27.07,0,0,0-5.55,7.18c3,.39,5.7-1.42,8.5-1.76-3.51,5.95-10.78,10.84-13.3,17.24,2.86.54,6.34-.66,9.22-1-2.81,7.25-10.31,13-12.95,20.32,6.36-1.43,13.28.4,19.58.47.47,7.36-.73,14.89-.28,22.14a47.34,47.34,0,0,1,5.18.22" style="fill:#90a68a"/><path d="M3.58,186.24c.42-7.39-.72-14.76-.28-22.15l-.95.95c6.43-.1,12.93-1.86,19.33-.5.65.14,1.44-.44,1.17-1.16C20,155.71,12.91,150.61,9.9,143.06L9,144.26c3.18.36,6.25,1.43,9.47.91a1,1,0,0,0,.67-1.17c-2.85-7-9.59-11.14-13.4-17.46l-1.08,1.39c3,.44,5.67,2.09,8.76,1.8a1,1,0,0,0,.82-1.43c-1.61-3.44-4.45-6-7-8.71-1.27-1.39-2.48-2.85-3.79-4.21-.82-.85-2.07-2.45-3.29-2.72s-2.91,1.9-3.65,2.68c-1.31,1.36-2.52,2.81-3.79,4.21-2.51,2.75-5.35,5.26-7,8.7a1,1,0,0,0,.82,1.43c3.09.3,5.77-1.36,8.76-1.79l-1.08-1.4C-9.53,132.82-16.27,137-19.12,144a1,1,0,0,0,.67,1.17c3.22.52,6.29-.55,9.47-.91L-9.9,143c-3,7.56-10.08,12.66-12.95,20.32-.27.73.52,1.31,1.17,1.17,6.4-1.36,12.9.39,19.33.5l-.95-.95c.44,7.38-.7,14.75-.28,22.14a1,1,0,0,0,1,.95,42.75,42.75,0,0,1,5.18.22,1,1,0,0,0,0-1.9,42.75,42.75,0,0,0-5.18-.22l1,.95c-.42-7.39.72-14.76.28-22.14a1,1,0,0,0-1-1c-6.63-.11-13.23-1.84-19.84-.43l1.17,1.16c2.86-7.62,9.93-12.74,13-20.32a1,1,0,0,0-.91-1.2c-2.95.34-6,1.46-9,1l.67,1.17c2.75-6.74,9.5-10.87,13.2-17a1,1,0,0,0-1.07-1.39c-2.81.4-5.35,2-8.25,1.72l.82,1.43c1.46-3.12,4-5.42,6.28-7.9,2.16-2.33,4.1-5,6.71-6.91l-.73.1a5.41,5.41,0,0,1,1.48,1.27c.58.54,1.12,1.11,1.66,1.69C4,118.7,5,120,6.17,121.22c2.35,2.53,4.92,4.86,6.41,8l.82-1.43c-2.9.28-5.45-1.32-8.25-1.73a1,1,0,0,0-1.07,1.4c3.7,6.14,10.45,10.27,13.2,17l.67-1.17c-3,.48-6-.65-9-1a.94.94,0,0,0-.91,1.2c3,7.57,10.09,12.69,13,20.32l1.17-1.17c-6.61-1.4-13.21.33-19.84.43a1,1,0,0,0-1,1c-.44,7.39.7,14.76.28,22.15-.07,1.22,1.84,1.21,1.9,0Z" style="fill:#90a68a"/><path d="M227.63,36.24c.45-7.26-.75-14.78-.28-22.15,6.3-.06,13.22-1.89,19.58-.46C244.29,6.34,236.79.56,234-6.69c2.88.29,6.36,1.48,9.22.94C240.68-12.14,233.41-17,229.9-23c2.8.34,5.5,2.15,8.5,1.76-1.14-2.55-3.56-5.21-5.55-7.18-2.38-2.37-5.19-6.19-7.78-8l-.14-.05c-2.59,1.78-5.4,5.61-7.78,8a27.07,27.07,0,0,0-5.55,7.18c3,.39,5.7-1.42,8.5-1.76-3.51,6-10.78,10.84-13.3,17.24,2.86.54,6.34-.66,9.22-1-2.81,7.25-10.31,13-13,20.32,6.36-1.43,13.28.4,19.58.47.47,7.36-.73,14.89-.28,22.14a47.34,47.34,0,0,1,5.18.22" style="fill:#90a68a"/><path d="M228.58,36.24c.42-7.39-.72-14.76-.28-22.15l-1,.95c6.43-.1,12.93-1.86,19.33-.5.65.14,1.44-.44,1.17-1.16C245,5.71,237.91.61,234.9-6.94L234-5.74c3.18.36,6.25,1.43,9.47.91A1,1,0,0,0,244.12-6c-2.85-7-9.59-11.14-13.4-17.46l-1.08,1.39c3,.44,5.67,2.09,8.76,1.8a1,1,0,0,0,.82-1.43c-1.61-3.44-4.45-5.95-7-8.71-1.27-1.39-2.48-2.85-3.79-4.21-.82-.85-2.07-2.45-3.29-2.72s-2.91,1.9-3.65,2.68c-1.31,1.36-2.52,2.81-3.79,4.21-2.51,2.75-5.35,5.26-7,8.7a1,1,0,0,0,.82,1.43c3.09.3,5.77-1.36,8.76-1.79l-1.08-1.4C215.47-17.18,208.73-13,205.88-6a1,1,0,0,0,.67,1.17c3.22.52,6.29-.55,9.47-.91L215.1-7C212.09.57,205,5.67,202.15,13.33c-.27.73.52,1.31,1.17,1.17,6.4-1.36,12.9.39,19.33.5l-1-.95c.44,7.38-.7,14.75-.28,22.14a1,1,0,0,0,1,1,42.75,42.75,0,0,1,5.18.22,1,1,0,0,0,0-1.9,42.75,42.75,0,0,0-5.18-.22l.95.95c-.42-7.39.72-14.76.28-22.14a1,1,0,0,0-.95-1c-6.63-.11-13.23-1.84-19.84-.43L204,13.83c2.86-7.62,9.93-12.74,13-20.32a1,1,0,0,0-.91-1.2c-3,.34-6,1.46-9,1l.67,1.17c2.75-6.74,9.5-10.87,13.2-17a1,1,0,0,0-1.07-1.39c-2.81.4-5.35,2-8.25,1.72l.82,1.43c1.46-3.12,4-5.42,6.28-7.9,2.16-2.33,4.1-5.05,6.71-6.91l-.73.1a5.41,5.41,0,0,1,1.48,1.27c.58.54,1.12,1.11,1.66,1.69C229-31.3,230-30,231.17-28.78c2.35,2.53,4.92,4.86,6.41,8l.82-1.43c-2.9.28-5.45-1.32-8.25-1.73a1,1,0,0,0-1.07,1.4c3.7,6.14,10.45,10.27,13.2,17L243-6.66c-3,.48-6-.65-9-1a.94.94,0,0,0-.91,1.2c3,7.57,10.09,12.69,13,20.32l1.17-1.17c-6.61-1.4-13.21.33-19.84.43a1,1,0,0,0-.95.95c-.44,7.39.7,14.76.28,22.15-.07,1.22,1.84,1.21,1.9,0Z" style="fill:#90a68a"/><path d="M77.63,36.24c.45-7.26-.75-14.78-.28-22.15,6.3-.06,13.22-1.89,19.58-.46C94.29,6.34,86.79.56,84-6.69c2.88.29,6.36,1.48,9.22.94C90.68-12.14,83.41-17,79.9-23c2.8.34,5.5,2.15,8.5,1.76-1.14-2.55-3.56-5.21-5.55-7.18-2.38-2.37-5.19-6.19-7.78-8l-.14-.05c-2.59,1.78-5.4,5.61-7.78,8a27.07,27.07,0,0,0-5.55,7.18c3,.39,5.7-1.42,8.5-1.76-3.51,6-10.78,10.84-13.3,17.24,2.86.54,6.34-.66,9.22-1C63.21.51,55.71,6.29,53.07,13.58c6.36-1.43,13.28.4,19.58.47.47,7.36-.73,14.89-.28,22.14a47.34,47.34,0,0,1,5.18.22" style="fill:#90a68a"/><path d="M78.58,36.24c.42-7.39-.72-14.76-.28-22.15l-1,.95c6.43-.1,12.93-1.86,19.33-.5.65.14,1.44-.44,1.17-1.16C95,5.71,87.91.61,84.9-6.94L84-5.74c3.18.36,6.25,1.43,9.47.91A1,1,0,0,0,94.12-6c-2.85-7-9.59-11.14-13.4-17.46l-1.08,1.39c3,.44,5.67,2.09,8.76,1.8a1,1,0,0,0,.82-1.43c-1.61-3.44-4.45-5.95-7-8.71-1.27-1.39-2.48-2.85-3.79-4.21-.82-.85-2.07-2.45-3.29-2.72s-2.91,1.9-3.65,2.68c-1.31,1.36-2.52,2.81-3.79,4.21-2.51,2.75-5.35,5.26-7,8.7a1,1,0,0,0,.82,1.43c3.09.3,5.77-1.36,8.76-1.79l-1.08-1.4C65.47-17.18,58.73-13,55.88-6a1,1,0,0,0,.67,1.17c3.22.52,6.29-.55,9.47-.91L65.1-7C62.09.57,55,5.67,52.15,13.33c-.27.73.52,1.31,1.17,1.17,6.4-1.36,12.9.39,19.33.5l-1-.95c.44,7.38-.7,14.75-.28,22.14a1,1,0,0,0,1,1,42.75,42.75,0,0,1,5.18.22,1,1,0,0,0,0-1.9,42.75,42.75,0,0,0-5.18-.22l.95.95c-.42-7.39.72-14.76.28-22.14a1,1,0,0,0-.95-1C66,13,59.42,11.26,52.81,12.67L54,13.83c2.86-7.62,9.93-12.74,13-20.32A1,1,0,0,0,66-7.69c-2.95.34-6,1.46-9,1l.67,1.17c2.75-6.74,9.5-10.87,13.2-17a1,1,0,0,0-1.07-1.39c-2.81.4-5.35,2-8.25,1.72l.82,1.43c1.46-3.12,4-5.42,6.28-7.9,2.16-2.33,4.1-5.05,6.71-6.91l-.73.1a5.41,5.41,0,0,1,1.48,1.27c.58.54,1.12,1.11,1.66,1.69C79-31.3,80-30,81.17-28.78c2.35,2.53,4.92,4.86,6.41,8l.82-1.43c-2.9.28-5.45-1.32-8.25-1.73a1,1,0,0,0-1.07,1.4c3.7,6.14,10.45,10.27,13.2,17L93-6.66c-3,.48-6-.65-9-1a.94.94,0,0,0-.91,1.2c3,7.57,10.09,12.69,13,20.32l1.17-1.17c-6.61-1.4-13.21.33-19.84.43a1,1,0,0,0-.95.95c-.44,7.39.7,14.76.28,22.15-.07,1.22,1.84,1.21,1.9,0Z" style="fill:#90a68a"/></pattern></defs><rect x="0.25" y="0.25" width="599.5" height="599.5" style="fill:none;stroke:#000;stroke-miterlimit:10;stroke-width:0.5020938023450586px"/><rect x="0.54" y="0.58" width="599.5" height="599.5" style="fill:#175012"/><g style="clip-path:url(#clip-path)"><rect x="-216.46" y="-181.42" width="553" height="553" style="fill:#175012"/><rect x="233.54" y="-181.42" width="553" height="553" style="fill:#175012"/><rect x="-216.46" y="117.58" width="553" height="553" style="fill:#175012"/><rect x="233.54" y="117.58" width="553" height="553" style="fill:#175012"/></g><g style="clip-path:url(#clip-path-2)"><rect x="-216.46" y="-181.42" width="553" height="553" style="fill:url(#medium_3_forest)"/><rect x="233.54" y="-181.42" width="553" height="553" style="fill:url(#medium_3_forest-3)"/><rect x="-216.46" y="117.58" width="553" height="553" style="fill:url(#medium_3_forest-5)"/><rect x="233.54" y="117.58" width="553" height="553" style="fill:url(#medium_3_forest-7)"/></g><rect x="3.04" y="694.58" width="599.5" height="599.5" style="fill:#5b7a52"/><g style="clip-path:url(#clip-path-3)"><rect x="-213.96" y="512.58" width="553" height="553" style="fill:#5b7a52"/><rect x="236.04" y="512.58" width="553" height="553" style="fill:#5b7a52"/></g><g style="clip-path:url(#clip-path-4)"><rect x="-213.96" y="512.58" width="553" height="553" style="fill:url(#medium_2_forest)"/><rect x="236.04" y="512.58" width="553" height="553" style="fill:url(#medium_2_forest-3)"/></g></svg>