<svg id="Layer_1" data-name="Layer 1" xmlns="http://www.w3.org/2000/svg" xmlns:xlink="http://www.w3.org/1999/xlink" viewBox="0 0 600 600"><defs><clipPath id="clip-path"><rect x="-825.9" y="-693.93" width="599.5" height="599.5" style="fill:none"/></clipPath><pattern id="freshwater_darker" data-name="freshwater darker" width="300" height="300" patternTransform="translate(-532.53 2198.75)" patternUnits="userSpaceOnUse" viewBox="0 0 300 300"><rect width="300" height="300" style="fill:none"/><path d="M192,304.4c9.4.69,17.48-5.69,25.82-8.95l-2-2.63a23,23,0,0,0-2.1,13.95,1.84,1.84,0,0,0,1.73,1.32c4.54.38,8.84-2.2,12.41-4.71,3.79-2.66,7.25-5.87,11.3-8.15l-2.69-1.55c.16,4.25-1.74,11.88,4.42,12.55,7.17.78,12.35-4.89,18-8.31,2-1.2.17-4.3-1.8-3.1-4.81,2.93-9.25,7.94-15.26,7.88a2.77,2.77,0,0,1-1.17-.15c-.19-.06-.16,0-.31-.19.06.06-.13-.25-.14-.29a2.21,2.21,0,0,1-.16-.91c-.12-2.49.14-5,0-7.48a1.81,1.81,0,0,0-2.69-1.55c-3.84,2.16-7.15,5.18-10.71,7.73-3.21,2.31-7.05,5-11.2,4.64l1.73,1.32a18.74,18.74,0,0,1,1.73-11.19c.58-1.25-.41-3.26-2-2.63-4.19,1.64-8.12,3.85-12.2,5.72s-8.25,3.42-12.67,3.09c-2.3-.16-2.29,3.42,0,3.59Z" style="fill:#3499c6"/><path d="M42,304.4c9.4.69,17.48-5.69,25.82-8.95l-2-2.63a23,23,0,0,0-2.1,13.95,1.84,1.84,0,0,0,1.73,1.32c4.54.38,8.84-2.2,12.41-4.71,3.79-2.66,7.25-5.87,11.3-8.15l-2.69-1.55c.16,4.25-1.74,11.88,4.42,12.55,7.17.78,12.35-4.89,18-8.31,2-1.2.17-4.3-1.8-3.1-4.81,2.93-9.25,7.94-15.26,7.88a2.77,2.77,0,0,1-1.17-.15c-.19-.06-.16,0-.31-.19.06.06-.13-.25-.14-.29a2.21,2.21,0,0,1-.16-.91c-.12-2.49.14-5,0-7.48a1.81,1.81,0,0,0-2.69-1.55c-3.84,2.16-7.15,5.18-10.71,7.73-3.21,2.31-7.05,5-11.2,4.64l1.73,1.32a18.74,18.74,0,0,1,1.73-11.19c.58-1.25-.41-3.26-2-2.63-4.19,1.64-8.12,3.85-12.2,5.72s-8.25,3.42-12.67,3.09c-2.3-.16-2.29,3.42,0,3.59Z" style="fill:#3499c6"/><path d="M267,154.4c9.4.69,17.48-5.69,25.82-9l-2-2.63a23,23,0,0,0-2.1,14,1.84,1.84,0,0,0,1.73,1.32c4.54.38,8.84-2.2,12.41-4.71,3.79-2.66,7.25-5.87,11.3-8.15l-2.69-1.55c.16,4.25-1.74,11.88,4.42,12.55,7.17.78,12.35-4.89,18-8.31,2-1.2.17-4.3-1.8-3.1-4.81,2.93-9.25,7.94-15.26,7.88a2.77,2.77,0,0,1-1.17-.15c-.19-.06-.16,0-.31-.19.06.06-.13-.25-.14-.29a2.21,2.21,0,0,1-.16-.91c-.12-2.49.14-5,0-7.48a1.81,1.81,0,0,0-2.69-1.55c-3.84,2.16-7.15,5.18-10.71,7.73-3.21,2.31-7,5-11.2,4.64l1.73,1.32a18.74,18.74,0,0,1,1.73-11.19c.58-1.25-.41-3.26-2-2.63-4.19,1.64-8.12,3.85-12.2,5.72s-8.25,3.42-12.67,3.09c-2.3-.16-2.29,3.42,0,3.59Z" style="fill:#3499c6"/><path d="M117,154.4c9.4.69,17.48-5.69,25.82-9l-2-2.63a23,23,0,0,0-2.1,14,1.84,1.84,0,0,0,1.73,1.32c4.54.38,8.84-2.2,12.41-4.71,3.79-2.66,7.25-5.87,11.3-8.15l-2.69-1.55c.16,4.25-1.74,11.88,4.42,12.55,7.17.78,12.35-4.89,18-8.31,2-1.2.17-4.3-1.8-3.1-4.81,2.93-9.25,7.94-15.26,7.88a2.77,2.77,0,0,1-1.17-.15c-.19-.06-.16,0-.31-.19.06.06-.13-.25-.14-.29a2.21,2.21,0,0,1-.16-.91c-.12-2.49.14-5,0-7.48a1.81,1.81,0,0,0-2.69-1.55c-3.84,2.16-7.15,5.18-10.71,7.73-3.21,2.31-7.05,5-11.2,4.64l1.73,1.32a18.74,18.74,0,0,1,1.73-11.19c.58-1.25-.41-3.26-2-2.63-4.19,1.64-8.12,3.85-12.2,5.72s-8.25,3.42-12.67,3.09c-2.3-.16-2.29,3.42,0,3.59Z" style="fill:#3499c6"/><path d="M-33,154.4c9.4.69,17.48-5.69,25.82-9l-2-2.63a23,23,0,0,0-2.1,14,1.84,1.84,0,0,0,1.73,1.32c4.54.38,8.84-2.2,12.41-4.71,3.79-2.66,7.25-5.87,11.3-8.15l-2.69-1.55c.16,4.25-1.74,11.88,4.42,12.55,7.17.78,12.35-4.89,18-8.31,2-1.2.17-4.3-1.8-3.1-4.81,2.93-9.25,7.94-15.26,7.88a2.77,2.77,0,0,1-1.17-.15c-.19-.06-.16,0-.31-.19.06.06-.13-.25-.14-.29a2.21,2.21,0,0,1-.16-.91c-.12-2.49.14-5,0-7.48a1.81,1.81,0,0,0-2.69-1.55c-3.84,2.16-7.15,5.18-10.71,7.73-3.21,2.31-7,5-11.2,4.64l1.73,1.32a18.74,18.74,0,0,1,1.73-11.19c.58-1.25-.41-3.26-2-2.63-4.19,1.64-8.12,3.85-12.2,5.72s-8.25,3.42-12.67,3.09c-2.3-.16-2.29,3.42,0,3.59Z" style="fill:#3499c6"/><path d="M192,4.4c9.4.69,17.48-5.69,25.82-8.95l-2-2.63a23,23,0,0,0-2.1,14,1.84,1.84,0,0,0,1.73,1.32c4.54.38,8.84-2.2,12.41-4.71,3.79-2.66,7.25-5.87,11.3-8.15l-2.69-1.55c.16,4.25-1.74,11.88,4.42,12.55,7.17.78,12.35-4.89,18-8.31,2-1.2.17-4.3-1.8-3.1-4.81,2.93-9.25,7.94-15.26,7.88a2.77,2.77,0,0,1-1.17-.15c-.19-.06-.16,0-.31-.19.06.06-.13-.25-.14-.29a2.21,2.21,0,0,1-.16-.91c-.12-2.49.14-5,0-7.48a1.81,1.81,0,0,0-2.69-1.55c-3.84,2.16-7.15,5.18-10.71,7.73-3.21,2.31-7.05,5-11.2,4.64l1.73,1.32a18.74,18.74,0,0,1,1.73-11.19c.58-1.25-.41-3.26-2-2.63-4.19,1.64-8.12,3.85-12.2,5.72S196.44,1.14,192,.81c-2.3-.16-2.29,3.42,0,3.59Z" style="fill:#3499c6"/><path d="M42,4.4c9.4.69,17.48-5.69,25.82-8.95l-2-2.63a23,23,0,0,0-2.1,14,1.84,1.84,0,0,0,1.73,1.32c4.54.38,8.84-2.2,12.41-4.71,3.79-2.66,7.25-5.87,11.3-8.15L86.47-6.32c.16,4.25-1.74,11.88,4.42,12.55,7.17.78,12.35-4.89,18-8.31,2-1.2.17-4.3-1.8-3.1C102.24-2.25,97.8,2.76,91.79,2.7a2.77,2.77,0,0,1-1.17-.15c-.19-.06-.16,0-.31-.19.06.06-.13-.25-.14-.29A2.21,2.21,0,0,1,90,1.16c-.12-2.49.14-5,0-7.48a1.81,1.81,0,0,0-2.69-1.55C83.52-5.71,80.21-2.69,76.65-.14c-3.21,2.31-7.05,5-11.2,4.64l1.73,1.32A18.74,18.74,0,0,1,68.91-5.37c.58-1.25-.41-3.26-2-2.63-4.19,1.64-8.12,3.85-12.2,5.72S46.44,1.14,42,.81c-2.3-.16-2.29,3.42,0,3.59Z" style="fill:#3499c6"/></pattern><clipPath id="clip-path-2"><rect x="-826.07" y="0.04" width="599.5" height="599.5" style="fill:none"/></clipPath><pattern id="freshwater_lighter" data-name="freshwater lighter" width="300" height="300" patternTransform="translate(-232.71 1692.72)" patternUnits="userSpaceOnUse" viewBox="0 0 300 300"><rect width="300" height="300" style="fill:none"/><path d="M192,304.4c9.4.69,17.48-5.69,25.82-8.95l-2-2.63a23,23,0,0,0-2.1,13.95,1.84,1.84,0,0,0,1.73,1.32c4.54.38,8.84-2.2,12.41-4.71,3.79-2.66,7.25-5.87,11.3-8.15l-2.69-1.55c.16,4.25-1.74,11.88,4.42,12.55,7.17.78,12.35-4.89,18-8.31,2-1.2.17-4.3-1.8-3.1-4.81,2.93-9.25,7.94-15.26,7.88a2.77,2.77,0,0,1-1.17-.15c-.19-.06-.16,0-.31-.19.06.06-.13-.25-.14-.29a2.21,2.21,0,0,1-.16-.91c-.12-2.49.14-5,0-7.48a1.81,1.81,0,0,0-2.69-1.55c-3.84,2.16-7.15,5.18-10.71,7.73-3.21,2.31-7.05,5-11.2,4.64l1.73,1.32a18.74,18.74,0,0,1,1.73-11.19c.58-1.25-.41-3.26-2-2.63-4.19,1.64-8.12,3.85-12.2,5.72s-8.25,3.42-12.67,3.09c-2.3-.16-2.29,3.42,0,3.59Z" style="fill:#64c3dd"/><path d="M42,304.4c9.4.69,17.48-5.69,25.82-8.95l-2-2.63a23,23,0,0,0-2.1,13.95,1.84,1.84,0,0,0,1.73,1.32c4.54.38,8.84-2.2,12.41-4.71,3.79-2.66,7.25-5.87,11.3-8.15l-2.69-1.55c.16,4.25-1.74,11.88,4.42,12.55,7.17.78,12.35-4.89,18-8.31,2-1.2.17-4.3-1.8-3.1-4.81,2.93-9.25,7.94-15.26,7.88a2.77,2.77,0,0,1-1.17-.15c-.19-.06-.16,0-.31-.19.06.06-.13-.25-.14-.29a2.21,2.21,0,0,1-.16-.91c-.12-2.49.14-5,0-7.48a1.81,1.81,0,0,0-2.69-1.55c-3.84,2.16-7.15,5.18-10.71,7.73-3.21,2.31-7.05,5-11.2,4.64l1.73,1.32a18.74,18.74,0,0,1,1.73-11.19c.58-1.25-.41-3.26-2-2.63-4.19,1.64-8.12,3.85-12.2,5.72s-8.25,3.42-12.67,3.09c-2.3-.16-2.29,3.42,0,3.59Z" style="fill:#64c3dd"/><path d="M267,154.4c9.4.69,17.48-5.69,25.82-9l-2-2.63a23,23,0,0,0-2.1,14,1.84,1.84,0,0,0,1.73,1.32c4.54.38,8.84-2.2,12.41-4.71,3.79-2.66,7.25-5.87,11.3-8.15l-2.69-1.55c.16,4.25-1.74,11.88,4.42,12.55,7.17.78,12.35-4.89,18-8.31,2-1.2.17-4.3-1.8-3.1-4.81,2.93-9.25,7.94-15.26,7.88a2.77,2.77,0,0,1-1.17-.15c-.19-.06-.16,0-.31-.19.06.06-.13-.25-.14-.29a2.21,2.21,0,0,1-.16-.91c-.12-2.49.14-5,0-7.48a1.81,1.81,0,0,0-2.69-1.55c-3.84,2.16-7.15,5.18-10.71,7.73-3.21,2.31-7,5-11.2,4.64l1.73,1.32a18.74,18.74,0,0,1,1.73-11.19c.58-1.25-.41-3.26-2-2.63-4.19,1.64-8.12,3.85-12.2,5.72s-8.25,3.42-12.67,3.09c-2.3-.16-2.29,3.42,0,3.59Z" style="fill:#64c3dd"/><path d="M117,154.4c9.4.69,17.48-5.69,25.82-9l-2-2.63a23,23,0,0,0-2.1,14,1.84,1.84,0,0,0,1.73,1.32c4.54.38,8.84-2.2,12.41-4.71,3.79-2.66,7.25-5.87,11.3-8.15l-2.69-1.55c.16,4.25-1.74,11.88,4.42,12.55,7.17.78,12.35-4.89,18-8.31,2-1.2.17-4.3-1.8-3.1-4.81,2.93-9.25,7.94-15.26,7.88a2.77,2.77,0,0,1-1.17-.15c-.19-.06-.16,0-.31-.19.06.06-.13-.25-.14-.29a2.21,2.21,0,0,1-.16-.91c-.12-2.49.14-5,0-7.48a1.81,1.81,0,0,0-2.69-1.55c-3.84,2.16-7.15,5.18-10.71,7.73-3.21,2.31-7.05,5-11.2,4.64l1.73,1.32a18.74,18.74,0,0,1,1.73-11.19c.58-1.25-.41-3.26-2-2.63-4.19,1.64-8.12,3.85-12.2,5.72s-8.25,3.42-12.67,3.09c-2.3-.16-2.29,3.42,0,3.59Z" style="fill:#64c3dd"/><path d="M-33,154.4c9.4.69,17.48-5.69,25.82-9l-2-2.63a23,23,0,0,0-2.1,14,1.84,1.84,0,0,0,1.73,1.32c4.54.38,8.84-2.2,12.41-4.71,3.79-2.66,7.25-5.87,11.3-8.15l-2.69-1.55c.16,4.25-1.74,11.88,4.42,12.55,7.17.78,12.35-4.89,18-8.31,2-1.2.17-4.3-1.8-3.1-4.81,2.93-9.25,7.94-15.26,7.88a2.77,2.77,0,0,1-1.17-.15c-.19-.06-.16,0-.31-.19.06.06-.13-.25-.14-.29a2.21,2.21,0,0,1-.16-.91c-.12-2.49.14-5,0-7.48a1.81,1.81,0,0,0-2.69-1.55c-3.84,2.16-7.15,5.18-10.71,7.73-3.21,2.31-7,5-11.2,4.64l1.73,1.32a18.74,18.74,0,0,1,1.73-11.19c.58-1.25-.41-3.26-2-2.63-4.19,1.64-8.12,3.85-12.2,5.72s-8.25,3.42-12.67,3.09c-2.3-.16-2.29,3.42,0,3.59Z" style="fill:#64c3dd"/><path d="M192,4.4c9.4.69,17.48-5.69,25.82-8.95l-2-2.63a23,23,0,0,0-2.1,14,1.84,1.84,0,0,0,1.73,1.32c4.54.38,8.84-2.2,12.41-4.71,3.79-2.66,7.25-5.87,11.3-8.15l-2.69-1.55c.16,4.25-1.74,11.88,4.42,12.55,7.17.78,12.35-4.89,18-8.31,2-1.2.17-4.3-1.8-3.1-4.81,2.93-9.25,7.94-15.26,7.88a2.77,2.77,0,0,1-1.17-.15c-.19-.06-.16,0-.31-.19.06.06-.13-.25-.14-.29a2.21,2.21,0,0,1-.16-.91c-.12-2.49.14-5,0-7.48a1.81,1.81,0,0,0-2.69-1.55c-3.84,2.16-7.15,5.18-10.71,7.73-3.21,2.31-7.05,5-11.2,4.64l1.73,1.32a18.74,18.74,0,0,1,1.73-11.19c.58-1.25-.41-3.26-2-2.63-4.19,1.64-8.12,3.85-12.2,5.72S196.44,1.14,192,.81c-2.3-.16-2.29,3.42,0,3.59Z" style="fill:#64c3dd"/><path d="M42,4.4c9.4.69,17.48-5.69,25.82-8.95l-2-2.63a23,23,0,0,0-2.1,14,1.84,1.84,0,0,0,1.73,1.32c4.54.38,8.84-2.2,12.41-4.71,3.79-2.66,7.25-5.87,11.3-8.15L86.47-6.32c.16,4.25-1.74,11.88,4.42,12.55,7.17.78,12.35-4.89,18-8.31,2-1.2.17-4.3-1.8-3.1C102.24-2.25,97.8,2.76,91.79,2.7a2.77,2.77,0,0,1-1.17-.15c-.19-.06-.16,0-.31-.19.06.06-.13-.25-.14-.29A2.21,2.21,0,0,1,90,1.16c-.12-2.49.14-5,0-7.48a1.81,1.81,0,0,0-2.69-1.55C83.52-5.71,80.21-2.69,76.65-.14c-3.21,2.31-7.05,5-11.2,4.64l1.73,1.32A18.74,18.74,0,0,1,68.91-5.37c.58-1.25-.41-3.26-2-2.63-4.19,1.64-8.12,3.85-12.2,5.72S46.44,1.14,42,.81c-2.3-.16-2.29,3.42,0,3.59Z" style="fill:#64c3dd"/></pattern><clipPath id="clip-path-3"><rect x="-825.89" y="692.88" width="599.5" height="599.5" style="fill:none"/></clipPath><pattern id="freshwater_lightest" data-name="freshwater lightest" width="300" height="300" patternTransform="translate(-532.53 885.56)" patternUnits="userSpaceOnUse" viewBox="0 0 300 300"><rect width="300" height="300" style="fill:none"/><path d="M192,304.4c9.4.69,17.48-5.69,25.82-8.95l-2-2.63a23,23,0,0,0-2.1,13.95,1.84,1.84,0,0,0,1.73,1.32c4.54.38,8.84-2.2,12.41-4.71,3.79-2.66,7.25-5.87,11.3-8.15l-2.69-1.55c.16,4.25-1.74,11.88,4.42,12.55,7.17.78,12.35-4.89,18-8.31,2-1.2.17-4.3-1.8-3.1-4.81,2.93-9.25,7.94-15.26,7.88a2.77,2.77,0,0,1-1.17-.15c-.19-.06-.16,0-.31-.19.06.06-.13-.25-.14-.29a2.21,2.21,0,0,1-.16-.91c-.12-2.49.14-5,0-7.48a1.81,1.81,0,0,0-2.69-1.55c-3.84,2.16-7.15,5.18-10.71,7.73-3.21,2.31-7.05,5-11.2,4.64l1.73,1.32a18.74,18.74,0,0,1,1.73-11.19c.58-1.25-.41-3.26-2-2.63-4.19,1.64-8.12,3.85-12.2,5.72s-8.25,3.42-12.67,3.09c-2.3-.16-2.29,3.42,0,3.59Z" style="fill:#aae8f2"/><path d="M42,304.4c9.4.69,17.48-5.69,25.82-8.95l-2-2.63a23,23,0,0,0-2.1,13.95,1.84,1.84,0,0,0,1.73,1.32c4.54.38,8.84-2.2,12.41-4.71,3.79-2.66,7.25-5.87,11.3-8.15l-2.69-1.55c.16,4.25-1.74,11.88,4.42,12.55,7.17.78,12.35-4.89,18-8.31,2-1.2.17-4.3-1.8-3.1-4.81,2.93-9.25,7.94-15.26,7.88a2.77,2.77,0,0,1-1.17-.15c-.19-.06-.16,0-.31-.19.06.06-.13-.25-.14-.29a2.21,2.21,0,0,1-.16-.91c-.12-2.49.14-5,0-7.48a1.81,1.81,0,0,0-2.69-1.55c-3.84,2.16-7.15,5.18-10.71,7.73-3.21,2.31-7.05,5-11.2,4.64l1.73,1.32a18.74,18.74,0,0,1,1.73-11.19c.58-1.25-.41-3.26-2-2.63-4.19,1.64-8.12,3.85-12.2,5.72s-8.25,3.42-12.67,3.09c-2.3-.16-2.29,3.42,0,3.59Z" style="fill:#aae8f2"/><path d="M267,154.4c9.4.69,17.48-5.69,25.82-9l-2-2.63a23,23,0,0,0-2.1,14,1.84,1.84,0,0,0,1.73,1.32c4.54.38,8.84-2.2,12.41-4.71,3.79-2.66,7.25-5.87,11.3-8.15l-2.69-1.55c.16,4.25-1.74,11.88,4.42,12.55,7.17.78,12.35-4.89,18-8.31,2-1.2.17-4.3-1.8-3.1-4.81,2.93-9.25,7.94-15.26,7.88a2.77,2.77,0,0,1-1.17-.15c-.19-.06-.16,0-.31-.19.06.06-.13-.25-.14-.29a2.21,2.21,0,0,1-.16-.91c-.12-2.49.14-5,0-7.48a1.81,1.81,0,0,0-2.69-1.55c-3.84,2.16-7.15,5.18-10.71,7.73-3.21,2.31-7,5-11.2,4.64l1.73,1.32a18.74,18.74,0,0,1,1.73-11.19c.58-1.25-.41-3.26-2-2.63-4.19,1.64-8.12,3.85-12.2,5.72s-8.25,3.42-12.67,3.09c-2.3-.16-2.29,3.42,0,3.59Z" style="fill:#aae8f2"/><path d="M117,154.4c9.4.69,17.48-5.69,25.82-9l-2-2.63a23,23,0,0,0-2.1,14,1.84,1.84,0,0,0,1.73,1.32c4.54.38,8.84-2.2,12.41-4.71,3.79-2.66,7.25-5.87,11.3-8.15l-2.69-1.55c.16,4.25-1.74,11.88,4.42,12.55,7.17.78,12.35-4.89,18-8.31,2-1.2.17-4.3-1.8-3.1-4.81,2.93-9.25,7.94-15.26,7.88a2.77,2.77,0,0,1-1.17-.15c-.19-.06-.16,0-.31-.19.06.06-.13-.25-.14-.29a2.21,2.21,0,0,1-.16-.91c-.12-2.49.14-5,0-7.48a1.81,1.81,0,0,0-2.69-1.55c-3.84,2.16-7.15,5.18-10.71,7.73-3.21,2.31-7.05,5-11.2,4.64l1.73,1.32a18.74,18.74,0,0,1,1.73-11.19c.58-1.25-.41-3.26-2-2.63-4.19,1.64-8.12,3.85-12.2,5.72s-8.25,3.42-12.67,3.09c-2.3-.16-2.29,3.42,0,3.59Z" style="fill:#aae8f2"/><path d="M-33,154.4c9.4.69,17.48-5.69,25.82-9l-2-2.63a23,23,0,0,0-2.1,14,1.84,1.84,0,0,0,1.73,1.32c4.54.38,8.84-2.2,12.41-4.71,3.79-2.66,7.25-5.87,11.3-8.15l-2.69-1.55c.16,4.25-1.74,11.88,4.42,12.55,7.17.78,12.35-4.89,18-8.31,2-1.2.17-4.3-1.8-3.1-4.81,2.93-9.25,7.94-15.26,7.88a2.77,2.77,0,0,1-1.17-.15c-.19-.06-.16,0-.31-.19.06.06-.13-.25-.14-.29a2.21,2.21,0,0,1-.16-.91c-.12-2.49.14-5,0-7.48a1.81,1.81,0,0,0-2.69-1.55c-3.84,2.16-7.15,5.18-10.71,7.73-3.21,2.31-7,5-11.2,4.64l1.73,1.32a18.74,18.74,0,0,1,1.73-11.19c.58-1.25-.41-3.26-2-2.63-4.19,1.64-8.12,3.85-12.2,5.72s-8.25,3.42-12.67,3.09c-2.3-.16-2.29,3.42,0,3.59Z" style="fill:#aae8f2"/><path d="M192,4.4c9.4.69,17.48-5.69,25.82-8.95l-2-2.63a23,23,0,0,0-2.1,14,1.84,1.84,0,0,0,1.73,1.32c4.54.38,8.84-2.2,12.41-4.71,3.79-2.66,7.25-5.87,11.3-8.15l-2.69-1.55c.16,4.25-1.74,11.88,4.42,12.55,7.17.78,12.35-4.89,18-8.31,2-1.2.17-4.3-1.8-3.1-4.81,2.93-9.25,7.94-15.26,7.88a2.77,2.77,0,0,1-1.17-.15c-.19-.06-.16,0-.31-.19.06.06-.13-.25-.14-.29a2.21,2.21,0,0,1-.16-.91c-.12-2.49.14-5,0-7.48a1.81,1.81,0,0,0-2.69-1.55c-3.84,2.16-7.15,5.18-10.71,7.73-3.21,2.31-7.05,5-11.2,4.64l1.73,1.32a18.74,18.74,0,0,1,1.73-11.19c.58-1.25-.41-3.26-2-2.63-4.19,1.64-8.12,3.85-12.2,5.72S196.44,1.14,192,.81c-2.3-.16-2.29,3.42,0,3.59Z" style="fill:#aae8f2"/><path d="M42,4.4c9.4.69,17.48-5.69,25.82-8.95l-2-2.63a23,23,0,0,0-2.1,14,1.84,1.84,0,0,0,1.73,1.32c4.54.38,8.84-2.2,12.41-4.71,3.79-2.66,7.25-5.87,11.3-8.15L86.47-6.32c.16,4.25-1.74,11.88,4.42,12.55,7.17.78,12.35-4.89,18-8.31,2-1.2.17-4.3-1.8-3.1C102.24-2.25,97.8,2.76,91.79,2.7a2.77,2.77,0,0,1-1.17-.15c-.19-.06-.16,0-.31-.19.06.06-.13-.25-.14-.29A2.21,2.21,0,0,1,90,1.16c-.12-2.49.14-5,0-7.48a1.81,1.81,0,0,0-2.69-1.55C83.52-5.71,80.21-2.69,76.65-.14c-3.21,2.31-7.05,5-11.2,4.64l1.73,1.32A18.74,18.74,0,0,1,68.91-5.37c.58-1.25-.41-3.26-2-2.63-4.19,1.64-8.12,3.85-12.2,5.72S46.44,1.14,42,.81c-2.3-.16-2.29,3.42,0,3.59Z" style="fill:#aae8f2"/></pattern></defs><rect x="0.25" y="0.25" width="599.5" height="599.5" style="fill:none;stroke:#000;stroke-miterlimit:10;stroke-width:0.5020938023450586px"/><g style="clip-path:url(#clip-path)"><rect x="-527.49" y="-507.67" width="553" height="553" style="fill:url(#freshwater_darker)"/></g><rect x="-0.31" y="0.06" width="599.5" height="599.5" style="fill:#64afa4"/><g style="clip-path:url(#clip-path-2)"><rect x="-527.67" y="-112.71" width="553" height="553" style="fill:url(#freshwater_lighter)"/><rect x="-527.67" y="186.29" width="553" height="553" style="fill:url(#freshwater_lighter)"/></g><g style="clip-path:url(#clip-path-3)"><rect x="-527.49" y="580.14" width="553" height="553" style="fill:url(#freshwater_lightest)"/></g></svg>