<svg id="Layer_1" data-name="Layer 1" xmlns="http://www.w3.org/2000/svg" xmlns:xlink="http://www.w3.org/1999/xlink" viewBox="0 0 600 600"><defs><clipPath id="clip-path"><rect x="0.04" y="0.58" width="599.5" height="599.5" style="fill:#bcc9b8"/></clipPath><clipPath id="clip-path-2"><rect x="0.04" y="0.58" width="599.5" height="599.5" style="fill:none"/></clipPath><pattern id="medium_0_forest" data-name="medium 0 forest" width="300" height="300" patternTransform="translate(-82 2368)" patternUnits="userSpaceOnUse" viewBox="0 0 300 300"><rect width="300" height="300" style="fill:none"/><path d="M227.63,336.24c.45-7.26-.75-14.78-.28-22.15,6.3-.06,13.22-1.89,19.58-.46-2.64-7.29-10.14-13.07-13-20.32,2.88.29,6.36,1.48,9.22.94-2.52-6.39-9.79-11.28-13.3-17.23,2.8.34,5.5,2.15,8.5,1.76-1.14-2.55-3.56-5.21-5.55-7.18-2.38-2.37-5.19-6.19-7.78-8l-.14-.05c-2.59,1.78-5.4,5.61-7.78,8a27.07,27.07,0,0,0-5.55,7.18c3,.39,5.7-1.42,8.5-1.76-3.51,5.95-10.78,10.84-13.3,17.24,2.86.54,6.34-.66,9.22-.95-2.81,7.25-10.31,13-13,20.32,6.36-1.43,13.28.4,19.58.47.47,7.36-.73,14.89-.28,22.14a47.34,47.34,0,0,1,5.18.22" style="fill:#e8ede7"/><path d="M228.39,336.24c.42-7.39-.72-14.76-.29-22.15l-.75.76c6.45-.11,13-1.86,19.38-.5.52.11,1.15-.35.93-.92-2.87-7.66-9.93-12.76-12.95-20.32l-.73.95c3.15.36,6.22,1.44,9.42.92a.76.76,0,0,0,.53-.93c-2.84-6.95-9.58-11.11-13.38-17.41l-.85,1.11c3,.43,5.63,2.08,8.7,1.78a.76.76,0,0,0,.65-1.13c-1.61-3.43-4.43-5.92-6.93-8.67-1.27-1.39-2.48-2.85-3.79-4.21-.77-.8-2-2.45-3.2-2.67s-2.78,1.92-3.46,2.63c-1.31,1.36-2.52,2.81-3.79,4.2-2.5,2.75-5.32,5.24-6.93,8.67a.76.76,0,0,0,.65,1.13c3.07.3,5.74-1.35,8.7-1.78l-.85-1.11c-3.8,6.31-10.54,10.47-13.38,17.42a.75.75,0,0,0,.53.92c3.2.52,6.27-.56,9.42-.92l-.73-.95c-3,7.56-10.08,12.66-12.95,20.32-.22.58.41,1,.93.93,6.42-1.37,12.93.39,19.38.49l-.75-.75c.43,7.38-.71,14.75-.29,22.14a.76.76,0,0,0,.76.75,44.88,44.88,0,0,1,5.18.22.76.76,0,0,0,0-1.51,42.74,42.74,0,0,0-5.18-.21l.75.75c-.42-7.39.72-14.76.29-22.14a.78.78,0,0,0-.76-.76c-6.61-.1-13.2-1.84-19.78-.44l.92.93c2.86-7.63,9.93-12.75,13-20.32a.75.75,0,0,0-.72-.95c-3,.34-6,1.46-9,1l.53.93c2.76-6.77,9.51-10.9,13.22-17.06.38-.62-.24-1.19-.85-1.11-2.82.42-5.38,2-8.3,1.74l.65,1.13c1.47-3.13,4-5.45,6.31-7.94,1.14-1.23,2.22-2.51,3.35-3.74.53-.59,1.08-1.17,1.65-1.72.27-.26.54-.51.82-.75s1-.54.42-.63c.48.07,1.28,1.08,1.64,1.43.57.55,1.12,1.13,1.65,1.71,1.09,1.19,2.13,2.43,3.22,3.61,2.35,2.55,4.94,4.88,6.44,8.08l.65-1.14c-2.92.28-5.48-1.32-8.3-1.73a.76.76,0,0,0-.85,1.11c3.71,6.16,10.46,10.29,13.22,17.05l.53-.92c-3,.48-6.05-.64-9-1a.76.76,0,0,0-.72,1c3,7.57,10.09,12.69,13,20.32l.92-.93c-6.58-1.4-13.17.33-19.78.44a.78.78,0,0,0-.76.75c-.43,7.39.71,14.76.29,22.15,0,1,1.45,1,1.51,0Z" style="fill:#e8ede7"/><path d="M77.63,336.24c.45-7.26-.75-14.78-.28-22.15,6.3-.06,13.22-1.89,19.58-.46-2.64-7.29-10.14-13.07-13-20.32,2.88.29,6.36,1.48,9.22.94C90.68,287.86,83.41,283,79.9,277c2.8.34,5.5,2.15,8.5,1.76-1.14-2.55-3.56-5.21-5.55-7.18-2.38-2.37-5.19-6.19-7.78-8l-.14-.05c-2.59,1.78-5.4,5.61-7.78,8a27.07,27.07,0,0,0-5.55,7.18c3,.39,5.7-1.42,8.5-1.76-3.51,5.95-10.78,10.84-13.3,17.24,2.86.54,6.34-.66,9.22-.95-2.81,7.25-10.31,13-12.95,20.32,6.36-1.43,13.28.4,19.58.47.47,7.36-.73,14.89-.28,22.14a47.34,47.34,0,0,1,5.18.22" style="fill:#e8ede7"/><path d="M78.39,336.24c.42-7.39-.72-14.76-.29-22.15l-.75.76c6.45-.11,13-1.86,19.38-.5.52.11,1.15-.35.93-.92-2.87-7.66-9.93-12.76-13-20.32l-.73.95c3.15.36,6.22,1.44,9.42.92a.76.76,0,0,0,.53-.93c-2.84-6.95-9.58-11.11-13.38-17.41l-.85,1.11c3,.43,5.63,2.08,8.7,1.78a.76.76,0,0,0,.65-1.13c-1.61-3.43-4.43-5.92-6.93-8.67-1.27-1.39-2.48-2.85-3.79-4.21-.77-.8-2-2.45-3.2-2.67s-2.78,1.92-3.46,2.63c-1.31,1.36-2.52,2.81-3.79,4.2-2.5,2.75-5.32,5.24-6.93,8.67a.76.76,0,0,0,.65,1.13c3.07.3,5.74-1.35,8.7-1.78l-.85-1.11c-3.8,6.31-10.54,10.47-13.38,17.42a.75.75,0,0,0,.53.92c3.2.52,6.27-.56,9.42-.92l-.73-.95c-3,7.56-10.08,12.66-13,20.32-.22.58.41,1,.93.93,6.42-1.37,12.93.39,19.38.49l-.75-.75c.43,7.38-.71,14.75-.29,22.14a.76.76,0,0,0,.76.75,44.88,44.88,0,0,1,5.18.22.76.76,0,0,0,0-1.51,42.74,42.74,0,0,0-5.18-.21l.75.75c-.42-7.39.72-14.76.29-22.14a.78.78,0,0,0-.76-.76c-6.61-.1-13.2-1.84-19.78-.44l.92.93c2.86-7.63,9.93-12.75,12.95-20.32a.75.75,0,0,0-.72-.95c-3,.34-6,1.46-9,1l.53.93c2.76-6.77,9.51-10.9,13.22-17.06.38-.62-.24-1.19-.85-1.11-2.82.42-5.38,2-8.3,1.74l.65,1.13c1.47-3.13,4-5.45,6.31-7.94,1.14-1.23,2.22-2.51,3.35-3.74.53-.59,1.08-1.17,1.65-1.72.27-.26.54-.51.82-.75s1-.54.42-.63c.48.07,1.28,1.08,1.64,1.43.57.55,1.12,1.13,1.65,1.71,1.09,1.19,2.13,2.43,3.22,3.61,2.35,2.55,4.94,4.88,6.44,8.08L88.4,278c-2.92.28-5.48-1.32-8.3-1.73a.76.76,0,0,0-.85,1.11c3.71,6.16,10.46,10.29,13.22,17.05l.53-.92c-3,.48-6-.64-9-1a.76.76,0,0,0-.72,1c3,7.57,10.09,12.69,12.95,20.32l.92-.93c-6.58-1.4-13.17.33-19.78.44a.78.78,0,0,0-.76.75c-.43,7.39.71,14.76.29,22.15,0,1,1.45,1,1.51,0Z" style="fill:#e8ede7"/><path d="M302.63,186.24c.45-7.26-.75-14.78-.28-22.15,6.3-.06,13.22-1.89,19.58-.46-2.64-7.29-10.14-13.07-12.95-20.32,2.88.29,6.36,1.48,9.22.94-2.52-6.39-9.79-11.28-13.3-17.23,2.8.34,5.5,2.15,8.5,1.76-1.14-2.55-3.56-5.21-5.55-7.18-2.38-2.37-5.19-6.19-7.78-8l-.14,0c-2.59,1.78-5.4,5.61-7.78,8a27.07,27.07,0,0,0-5.55,7.18c3,.39,5.7-1.42,8.5-1.76-3.51,5.95-10.78,10.84-13.3,17.24,2.86.54,6.34-.66,9.22-1-2.81,7.25-10.31,13-12.95,20.32,6.36-1.43,13.28.4,19.58.47.47,7.36-.73,14.89-.28,22.14a47.34,47.34,0,0,1,5.18.22" style="fill:#e8ede7"/><path d="M303.39,186.24c.42-7.39-.72-14.76-.29-22.15l-.75.76c6.45-.11,13-1.86,19.38-.5.52.11,1.15-.35.93-.92-2.87-7.66-9.93-12.76-13-20.32l-.73.95c3.15.36,6.22,1.44,9.42.92a.76.76,0,0,0,.53-.93c-2.84-7-9.58-11.11-13.38-17.41l-.85,1.11c3,.43,5.63,2.08,8.7,1.78a.76.76,0,0,0,.65-1.13c-1.61-3.43-4.43-5.92-6.93-8.67-1.27-1.39-2.48-2.85-3.79-4.21-.77-.8-2-2.45-3.2-2.67s-2.78,1.92-3.46,2.63c-1.31,1.36-2.52,2.81-3.79,4.2-2.5,2.75-5.32,5.24-6.93,8.67a.76.76,0,0,0,.65,1.13c3.07.3,5.74-1.35,8.7-1.78l-.85-1.11c-3.8,6.31-10.54,10.47-13.38,17.42a.75.75,0,0,0,.53.92c3.2.52,6.27-.56,9.42-.92l-.73-.95c-3,7.56-10.08,12.66-13,20.32-.22.58.41,1,.93.93,6.42-1.37,12.93.39,19.38.49l-.75-.75c.43,7.38-.71,14.75-.29,22.14a.76.76,0,0,0,.76.75,44.88,44.88,0,0,1,5.18.22.76.76,0,0,0,0-1.51,42.74,42.74,0,0,0-5.18-.21l.75.75c-.42-7.39.72-14.76.29-22.14a.78.78,0,0,0-.76-.76c-6.61-.1-13.2-1.84-19.78-.44l.92.93c2.86-7.63,9.93-12.75,12.95-20.32a.75.75,0,0,0-.72-1c-3,.34-6,1.46-9,1l.53.93c2.76-6.77,9.51-10.9,13.22-17.06.38-.62-.24-1.19-.85-1.11-2.82.42-5.38,2-8.3,1.74l.65,1.13c1.47-3.13,4-5.45,6.31-7.94,1.14-1.23,2.22-2.51,3.35-3.74.53-.59,1.08-1.17,1.65-1.72.27-.26.54-.51.82-.75s1-.54.42-.63c.48.07,1.28,1.08,1.64,1.43.57.55,1.12,1.13,1.65,1.71,1.09,1.19,2.13,2.43,3.22,3.61,2.35,2.55,4.94,4.88,6.44,8.08l.65-1.14c-2.92.28-5.48-1.32-8.3-1.73a.76.76,0,0,0-.85,1.11c3.71,6.16,10.46,10.29,13.22,17l.53-.92c-3,.48-6.05-.64-9-1a.76.76,0,0,0-.72,1c3,7.57,10.09,12.69,12.95,20.32l.92-.93c-6.58-1.4-13.17.33-19.78.44a.78.78,0,0,0-.76.75c-.43,7.39.71,14.76.29,22.15-.05,1,1.45,1,1.51,0Z" style="fill:#e8ede7"/><path d="M152.63,186.24c.45-7.26-.75-14.78-.28-22.15,6.3-.06,13.22-1.89,19.58-.46-2.64-7.29-10.14-13.07-13-20.32,2.88.29,6.36,1.48,9.22.94-2.52-6.39-9.79-11.28-13.3-17.23,2.8.34,5.5,2.15,8.5,1.76-1.14-2.55-3.56-5.21-5.55-7.18-2.38-2.37-5.19-6.19-7.78-8l-.14,0c-2.59,1.78-5.4,5.61-7.78,8a27.07,27.07,0,0,0-5.55,7.18c3,.39,5.7-1.42,8.5-1.76-3.51,5.95-10.78,10.84-13.3,17.24,2.86.54,6.34-.66,9.22-1-2.81,7.25-10.31,13-13,20.32,6.36-1.43,13.28.4,19.58.47.47,7.36-.73,14.89-.28,22.14a47.34,47.34,0,0,1,5.18.22" style="fill:#e8ede7"/><path d="M153.39,186.24c.42-7.39-.72-14.76-.29-22.15l-.75.76c6.45-.11,13-1.86,19.38-.5.52.11,1.15-.35.93-.92-2.87-7.66-9.93-12.76-12.95-20.32l-.73.95c3.15.36,6.22,1.44,9.42.92a.76.76,0,0,0,.53-.93c-2.84-7-9.58-11.11-13.38-17.41l-.85,1.11c3,.43,5.63,2.08,8.7,1.78a.76.76,0,0,0,.65-1.13c-1.61-3.43-4.43-5.92-6.93-8.67-1.27-1.39-2.48-2.85-3.79-4.21-.77-.8-2-2.45-3.2-2.67s-2.78,1.92-3.46,2.63c-1.31,1.36-2.52,2.81-3.79,4.2-2.5,2.75-5.32,5.24-6.93,8.67a.76.76,0,0,0,.65,1.13c3.07.3,5.74-1.35,8.7-1.78l-.85-1.11c-3.8,6.31-10.54,10.47-13.38,17.42a.75.75,0,0,0,.53.92c3.2.52,6.27-.56,9.42-.92l-.73-.95c-3,7.56-10.08,12.66-12.95,20.32-.22.58.41,1,.93.93,6.42-1.37,12.93.39,19.38.49l-.75-.75c.43,7.38-.71,14.75-.29,22.14a.76.76,0,0,0,.76.75,44.88,44.88,0,0,1,5.18.22.76.76,0,0,0,0-1.51,42.74,42.74,0,0,0-5.18-.21l.75.75c-.42-7.39.72-14.76.29-22.14a.78.78,0,0,0-.76-.76c-6.61-.1-13.2-1.84-19.78-.44l.92.93c2.86-7.63,9.93-12.75,13-20.32a.75.75,0,0,0-.72-1c-3,.34-6,1.46-9,1l.53.93c2.76-6.77,9.51-10.9,13.22-17.06.38-.62-.24-1.19-.85-1.11-2.82.42-5.38,2-8.3,1.74l.65,1.13c1.47-3.13,4-5.45,6.31-7.94,1.14-1.23,2.22-2.51,3.35-3.74.53-.59,1.08-1.17,1.65-1.72.27-.26.54-.51.82-.75s1-.54.42-.63c.48.07,1.28,1.08,1.64,1.43.57.55,1.12,1.13,1.65,1.71,1.09,1.19,2.13,2.43,3.22,3.61,2.35,2.55,4.94,4.88,6.44,8.08l.65-1.14c-2.92.28-5.48-1.32-8.3-1.73a.76.76,0,0,0-.85,1.11c3.71,6.16,10.46,10.29,13.22,17l.53-.92c-3,.48-6.05-.64-9-1a.76.76,0,0,0-.72,1c3,7.57,10.09,12.69,13,20.32l.92-.93c-6.58-1.4-13.17.33-19.78.44a.78.78,0,0,0-.76.75c-.43,7.39.71,14.76.29,22.15,0,1,1.45,1,1.51,0Z" style="fill:#e8ede7"/><path d="M2.63,186.24c.45-7.26-.75-14.78-.28-22.15,6.3-.06,13.22-1.89,19.58-.46C19.29,156.34,11.79,150.56,9,143.31c2.88.29,6.36,1.48,9.22.94C15.68,137.86,8.41,133,4.9,127c2.8.34,5.5,2.15,8.5,1.76-1.14-2.55-3.56-5.21-5.55-7.18-2.38-2.37-5.19-6.19-7.78-8l-.14,0c-2.59,1.78-5.4,5.61-7.78,8a27.07,27.07,0,0,0-5.55,7.18c3,.39,5.7-1.42,8.5-1.76-3.51,5.95-10.78,10.84-13.3,17.24,2.86.54,6.34-.66,9.22-1-2.81,7.25-10.31,13-12.95,20.32,6.36-1.43,13.28.4,19.58.47.47,7.36-.73,14.89-.28,22.14a47.34,47.34,0,0,1,5.18.22" style="fill:#e8ede7"/><path d="M3.39,186.24c.42-7.39-.72-14.76-.29-22.15l-.75.76c6.45-.11,13-1.86,19.38-.5.52.11,1.15-.35.93-.92-2.87-7.66-9.93-12.76-12.95-20.32l-.73.95c3.15.36,6.22,1.44,9.42.92a.76.76,0,0,0,.53-.93c-2.84-7-9.58-11.11-13.38-17.41l-.85,1.11c3,.43,5.63,2.08,8.7,1.78a.76.76,0,0,0,.65-1.13c-1.61-3.43-4.43-5.92-6.93-8.67-1.27-1.39-2.48-2.85-3.79-4.21-.77-.8-2-2.45-3.2-2.67s-2.78,1.92-3.46,2.63c-1.31,1.36-2.52,2.81-3.79,4.2-2.5,2.75-5.32,5.24-6.93,8.67a.76.76,0,0,0,.65,1.13c3.07.3,5.74-1.35,8.7-1.78l-.85-1.11c-3.8,6.31-10.54,10.47-13.38,17.42a.75.75,0,0,0,.53.92c3.2.52,6.27-.56,9.42-.92l-.73-.95c-3,7.56-10.08,12.66-12.95,20.32-.22.58.41,1,.93.93,6.42-1.37,12.93.39,19.38.49l-.75-.75c.43,7.38-.71,14.75-.29,22.14a.76.76,0,0,0,.76.75,44.88,44.88,0,0,1,5.18.22.76.76,0,0,0,0-1.51,42.74,42.74,0,0,0-5.18-.21l.75.75c-.42-7.39.72-14.76.29-22.14a.78.78,0,0,0-.76-.76c-6.61-.1-13.2-1.84-19.78-.44l.92.93c2.86-7.63,9.93-12.75,13-20.32a.75.75,0,0,0-.72-1c-3,.34-6,1.46-9,1l.53.93c2.76-6.77,9.51-10.9,13.22-17.06.38-.62-.24-1.19-.85-1.11-2.82.42-5.38,2-8.3,1.74l.65,1.13c1.47-3.13,4-5.45,6.31-7.94,1.14-1.23,2.22-2.51,3.35-3.74.53-.59,1.08-1.17,1.65-1.72.27-.26.54-.51.82-.75s1-.54.42-.63c.48.07,1.28,1.08,1.64,1.43.57.55,1.12,1.13,1.65,1.71,1.09,1.19,2.13,2.43,3.22,3.61,2.35,2.55,4.94,4.88,6.44,8.08L13.4,128c-2.92.28-5.48-1.32-8.3-1.73a.76.76,0,0,0-.85,1.11c3.71,6.16,10.46,10.29,13.22,17l.53-.92c-3,.48-6.05-.64-9-1a.76.76,0,0,0-.72,1c3,7.57,10.09,12.69,13,20.32l.92-.93c-6.58-1.4-13.17.33-19.78.44a.78.78,0,0,0-.76.75c-.43,7.39.71,14.76.29,22.15,0,1,1.45,1,1.51,0Z" style="fill:#e8ede7"/><path d="M227.63,36.24c.45-7.26-.75-14.78-.28-22.15,6.3-.06,13.22-1.89,19.58-.46C244.29,6.34,236.79.56,234-6.69c2.88.29,6.36,1.48,9.22.94C240.68-12.14,233.41-17,229.9-23c2.8.34,5.5,2.15,8.5,1.76-1.14-2.55-3.56-5.21-5.55-7.18-2.38-2.37-5.19-6.19-7.78-8l-.14-.05c-2.59,1.78-5.4,5.61-7.78,8a27.07,27.07,0,0,0-5.55,7.18c3,.39,5.7-1.42,8.5-1.76-3.51,6-10.78,10.84-13.3,17.24,2.86.54,6.34-.66,9.22-1-2.81,7.25-10.31,13-13,20.32,6.36-1.43,13.28.4,19.58.47.47,7.36-.73,14.89-.28,22.14a47.34,47.34,0,0,1,5.18.22" style="fill:#e8ede7"/><path d="M228.39,36.24c.42-7.39-.72-14.76-.29-22.15l-.75.76c6.45-.11,13-1.86,19.38-.5.52.11,1.15-.35.93-.92C244.79,5.77,237.73.67,234.71-6.89l-.73.95c3.15.36,6.22,1.44,9.42.92a.76.76,0,0,0,.53-.93c-2.84-6.95-9.58-11.11-13.38-17.41l-.85,1.11c3,.43,5.63,2.08,8.7,1.78a.76.76,0,0,0,.65-1.13c-1.61-3.43-4.43-5.92-6.93-8.67-1.27-1.39-2.48-2.85-3.79-4.21-.77-.8-2-2.45-3.2-2.67s-2.78,1.92-3.46,2.63c-1.31,1.36-2.52,2.81-3.79,4.2-2.5,2.75-5.32,5.24-6.93,8.67a.76.76,0,0,0,.65,1.13c3.07.3,5.74-1.35,8.7-1.78l-.85-1.11C215.65-17.1,208.91-12.94,206.07-6a.75.75,0,0,0,.53.92c3.2.52,6.27-.56,9.42-.92l-.73-1c-3,7.56-10.08,12.66-12.95,20.32-.22.58.41,1,.93.93,6.42-1.37,12.93.39,19.38.49l-.75-.75c.43,7.38-.71,14.75-.29,22.14a.76.76,0,0,0,.76.75,44.88,44.88,0,0,1,5.18.22.76.76,0,0,0,0-1.51,42.74,42.74,0,0,0-5.18-.21l.75.75c-.42-7.39.72-14.76.29-22.14a.78.78,0,0,0-.76-.76c-6.61-.1-13.2-1.84-19.78-.44l.92.93c2.86-7.63,9.93-12.75,13-20.32a.75.75,0,0,0-.72-1c-3,.34-6,1.46-9,1l.53.93c2.76-6.77,9.51-10.9,13.22-17.06.38-.62-.24-1.19-.85-1.11-2.82.42-5.38,2-8.3,1.74l.65,1.13c1.47-3.13,4-5.45,6.31-7.94,1.14-1.23,2.22-2.51,3.35-3.74.53-.59,1.08-1.17,1.65-1.72.27-.26.54-.51.82-.75s1-.54.42-.63c.48.07,1.28,1.08,1.64,1.43.57.55,1.12,1.13,1.65,1.71,1.09,1.19,2.13,2.43,3.22,3.61,2.35,2.55,4.94,4.88,6.44,8.08L238.4-22c-2.92.28-5.48-1.32-8.3-1.73a.76.76,0,0,0-.85,1.11c3.71,6.16,10.46,10.29,13.22,17.05l.53-.92c-3,.48-6.05-.64-9-1a.76.76,0,0,0-.72,1c3,7.57,10.09,12.69,13,20.32l.92-.93c-6.58-1.4-13.17.33-19.78.44a.78.78,0,0,0-.76.75c-.43,7.39.71,14.76.29,22.15,0,1,1.45,1,1.51,0Z" style="fill:#e8ede7"/><path d="M77.63,36.24c.45-7.26-.75-14.78-.28-22.15,6.3-.06,13.22-1.89,19.58-.46C94.29,6.34,86.79.56,84-6.69c2.88.29,6.36,1.48,9.22.94C90.68-12.14,83.41-17,79.9-23c2.8.34,5.5,2.15,8.5,1.76-1.14-2.55-3.56-5.21-5.55-7.18-2.38-2.37-5.19-6.19-7.78-8l-.14-.05c-2.59,1.78-5.4,5.61-7.78,8a27.07,27.07,0,0,0-5.55,7.18c3,.39,5.7-1.42,8.5-1.76-3.51,6-10.78,10.84-13.3,17.24,2.86.54,6.34-.66,9.22-1C63.21.51,55.71,6.29,53.07,13.58c6.36-1.43,13.28.4,19.58.47.47,7.36-.73,14.89-.28,22.14a47.34,47.34,0,0,1,5.18.22" style="fill:#e8ede7"/><path d="M78.39,36.24c.42-7.39-.72-14.76-.29-22.15l-.75.76c6.45-.11,13-1.86,19.38-.5.52.11,1.15-.35.93-.92C94.79,5.77,87.73.67,84.71-6.89L84-5.94c3.15.36,6.22,1.44,9.42.92a.76.76,0,0,0,.53-.93c-2.84-6.95-9.58-11.11-13.38-17.41l-.85,1.11c3,.43,5.63,2.08,8.7,1.78a.76.76,0,0,0,.65-1.13c-1.61-3.43-4.43-5.92-6.93-8.67-1.27-1.39-2.48-2.85-3.79-4.21-.77-.8-2-2.45-3.2-2.67s-2.78,1.92-3.46,2.63c-1.31,1.36-2.52,2.81-3.79,4.2-2.5,2.75-5.32,5.24-6.93,8.67a.76.76,0,0,0,.65,1.13c3.07.3,5.74-1.35,8.7-1.78l-.85-1.11C65.65-17.1,58.91-12.94,56.07-6a.75.75,0,0,0,.53.92c3.2.52,6.27-.56,9.42-.92l-.73-1c-3,7.56-10.08,12.66-13,20.32-.22.58.41,1,.93.93,6.42-1.37,12.93.39,19.38.49l-.75-.75c.43,7.38-.71,14.75-.29,22.14a.76.76,0,0,0,.76.75,44.88,44.88,0,0,1,5.18.22.76.76,0,0,0,0-1.51,42.74,42.74,0,0,0-5.18-.21l.75.75c-.42-7.39.72-14.76.29-22.14a.78.78,0,0,0-.76-.76c-6.61-.1-13.2-1.84-19.78-.44l.92.93C56.65,6.15,63.72,1,66.74-6.54a.75.75,0,0,0-.72-1c-3,.34-6,1.46-9,1l.53.93c2.76-6.77,9.51-10.9,13.22-17.06.38-.62-.24-1.19-.85-1.11-2.82.42-5.38,2-8.3,1.74l.65,1.13c1.47-3.13,4-5.45,6.31-7.94,1.14-1.23,2.22-2.51,3.35-3.74.53-.59,1.08-1.17,1.65-1.72.27-.26.54-.51.82-.75s1-.54.42-.63c.48.07,1.28,1.08,1.64,1.43.57.55,1.12,1.13,1.65,1.71,1.09,1.19,2.13,2.43,3.22,3.61,2.35,2.55,4.94,4.88,6.44,8.08L88.4-22c-2.92.28-5.48-1.32-8.3-1.73a.76.76,0,0,0-.85,1.11C83-16.44,89.71-12.31,92.47-5.55L93-6.47c-3,.48-6-.64-9-1a.76.76,0,0,0-.72,1c3,7.57,10.09,12.69,12.95,20.32l.92-.93c-6.58-1.4-13.17.33-19.78.44a.78.78,0,0,0-.76.75c-.43,7.39.71,14.76.29,22.15,0,1,1.45,1,1.51,0Z" style="fill:#e8ede7"/></pattern><pattern id="medium_0_forest-3" data-name="medium 0 forest" width="300" height="300" patternTransform="translate(68 2368)" patternUnits="userSpaceOnUse" viewBox="0 0 300 300"><rect width="300" height="300" style="fill:none"/><path d="M227.63,336.24c.45-7.26-.75-14.78-.28-22.15,6.3-.06,13.22-1.89,19.58-.46-2.64-7.29-10.14-13.07-13-20.32,2.88.29,6.36,1.48,9.22.94-2.52-6.39-9.79-11.28-13.3-17.23,2.8.34,5.5,2.15,8.5,1.76-1.14-2.55-3.56-5.21-5.55-7.18-2.38-2.37-5.19-6.19-7.78-8l-.14-.05c-2.59,1.78-5.4,5.61-7.78,8a27.07,27.07,0,0,0-5.55,7.18c3,.39,5.7-1.42,8.5-1.76-3.51,5.95-10.78,10.84-13.3,17.24,2.86.54,6.34-.66,9.22-.95-2.81,7.25-10.31,13-13,20.32,6.36-1.43,13.28.4,19.58.47.47,7.36-.73,14.89-.28,22.14a47.34,47.34,0,0,1,5.18.22" style="fill:#e8ede7"/><path d="M228.39,336.24c.42-7.39-.72-14.76-.29-22.15l-.75.76c6.45-.11,13-1.86,19.38-.5.52.11,1.15-.35.93-.92-2.87-7.66-9.93-12.76-12.95-20.32l-.73.95c3.15.36,6.22,1.44,9.42.92a.76.76,0,0,0,.53-.93c-2.84-6.95-9.58-11.11-13.38-17.41l-.85,1.11c3,.43,5.63,2.08,8.7,1.78a.76.76,0,0,0,.65-1.13c-1.61-3.43-4.43-5.92-6.93-8.67-1.27-1.39-2.48-2.85-3.79-4.21-.77-.8-2-2.45-3.2-2.67s-2.78,1.92-3.46,2.63c-1.31,1.36-2.52,2.81-3.79,4.2-2.5,2.75-5.32,5.24-6.93,8.67a.76.76,0,0,0,.65,1.13c3.07.3,5.74-1.35,8.7-1.78l-.85-1.11c-3.8,6.31-10.54,10.47-13.38,17.42a.75.75,0,0,0,.53.92c3.2.52,6.27-.56,9.42-.92l-.73-.95c-3,7.56-10.08,12.66-12.95,20.32-.22.58.41,1,.93.93,6.42-1.37,12.93.39,19.38.49l-.75-.75c.43,7.38-.71,14.75-.29,22.14a.76.76,0,0,0,.76.75,44.88,44.88,0,0,1,5.18.22.76.76,0,0,0,0-1.51,42.74,42.74,0,0,0-5.18-.21l.75.75c-.42-7.39.72-14.76.29-22.14a.78.78,0,0,0-.76-.76c-6.61-.1-13.2-1.84-19.78-.44l.92.93c2.86-7.63,9.93-12.75,13-20.32a.75.75,0,0,0-.72-.95c-3,.34-6,1.46-9,1l.53.93c2.76-6.77,9.51-10.9,13.22-17.06.38-.62-.24-1.19-.85-1.11-2.82.42-5.38,2-8.3,1.74l.65,1.13c1.47-3.13,4-5.45,6.31-7.94,1.14-1.23,2.22-2.51,3.35-3.74.53-.59,1.08-1.17,1.65-1.72.27-.26.54-.51.82-.75s1-.54.42-.63c.48.07,1.28,1.08,1.64,1.43.57.55,1.12,1.13,1.65,1.71,1.09,1.19,2.13,2.43,3.22,3.61,2.35,2.55,4.94,4.88,6.44,8.08l.65-1.14c-2.92.28-5.48-1.32-8.3-1.73a.76.76,0,0,0-.85,1.11c3.71,6.16,10.46,10.29,13.22,17.05l.53-.92c-3,.48-6.05-.64-9-1a.76.76,0,0,0-.72,1c3,7.57,10.09,12.69,13,20.32l.92-.93c-6.58-1.4-13.17.33-19.78.44a.78.78,0,0,0-.76.75c-.43,7.39.71,14.76.29,22.15,0,1,1.45,1,1.51,0Z" style="fill:#e8ede7"/><path d="M77.63,336.24c.45-7.26-.75-14.78-.28-22.15,6.3-.06,13.22-1.89,19.58-.46-2.64-7.29-10.14-13.07-13-20.32,2.88.29,6.36,1.48,9.22.94C90.68,287.86,83.41,283,79.9,277c2.8.34,5.5,2.15,8.5,1.76-1.14-2.55-3.56-5.21-5.55-7.18-2.38-2.37-5.19-6.19-7.78-8l-.14-.05c-2.59,1.78-5.4,5.61-7.78,8a27.07,27.07,0,0,0-5.55,7.18c3,.39,5.7-1.42,8.5-1.76-3.51,5.95-10.78,10.84-13.3,17.24,2.86.54,6.34-.66,9.22-.95-2.81,7.25-10.31,13-12.95,20.32,6.36-1.43,13.28.4,19.58.47.47,7.36-.73,14.89-.28,22.14a47.34,47.34,0,0,1,5.18.22" style="fill:#e8ede7"/><path d="M78.39,336.24c.42-7.39-.72-14.76-.29-22.15l-.75.76c6.45-.11,13-1.86,19.38-.5.52.11,1.15-.35.93-.92-2.87-7.66-9.93-12.76-13-20.32l-.73.95c3.15.36,6.22,1.44,9.42.92a.76.76,0,0,0,.53-.93c-2.84-6.95-9.58-11.11-13.38-17.41l-.85,1.11c3,.43,5.63,2.08,8.7,1.78a.76.76,0,0,0,.65-1.13c-1.61-3.43-4.43-5.92-6.93-8.67-1.27-1.39-2.48-2.85-3.79-4.21-.77-.8-2-2.45-3.2-2.67s-2.78,1.92-3.46,2.63c-1.31,1.36-2.52,2.81-3.79,4.2-2.5,2.75-5.32,5.24-6.93,8.67a.76.76,0,0,0,.65,1.13c3.07.3,5.74-1.35,8.7-1.78l-.85-1.11c-3.8,6.31-10.54,10.47-13.38,17.42a.75.75,0,0,0,.53.92c3.2.52,6.27-.56,9.42-.92l-.73-.95c-3,7.56-10.08,12.66-13,20.32-.22.58.41,1,.93.93,6.42-1.37,12.93.39,19.38.49l-.75-.75c.43,7.38-.71,14.75-.29,22.14a.76.76,0,0,0,.76.75,44.88,44.88,0,0,1,5.18.22.76.76,0,0,0,0-1.51,42.74,42.74,0,0,0-5.18-.21l.75.75c-.42-7.39.72-14.76.29-22.14a.78.78,0,0,0-.76-.76c-6.61-.1-13.2-1.84-19.78-.44l.92.93c2.86-7.63,9.93-12.75,12.95-20.32a.75.75,0,0,0-.72-.95c-3,.34-6,1.46-9,1l.53.93c2.76-6.77,9.51-10.9,13.22-17.06.38-.62-.24-1.19-.85-1.11-2.82.42-5.38,2-8.3,1.74l.65,1.13c1.47-3.13,4-5.45,6.31-7.94,1.14-1.23,2.22-2.51,3.35-3.74.53-.59,1.08-1.17,1.65-1.72.27-.26.54-.51.82-.75s1-.54.42-.63c.48.07,1.28,1.08,1.64,1.43.57.55,1.12,1.13,1.65,1.71,1.09,1.19,2.13,2.43,3.22,3.61,2.35,2.55,4.94,4.88,6.44,8.08L88.4,278c-2.92.28-5.48-1.32-8.3-1.73a.76.76,0,0,0-.85,1.11c3.71,6.16,10.46,10.29,13.22,17.05l.53-.92c-3,.48-6-.64-9-1a.76.76,0,0,0-.72,1c3,7.57,10.09,12.69,12.95,20.32l.92-.93c-6.58-1.4-13.17.33-19.78.44a.78.78,0,0,0-.76.75c-.43,7.39.71,14.76.29,22.15,0,1,1.45,1,1.51,0Z" style="fill:#e8ede7"/><path d="M302.63,186.24c.45-7.26-.75-14.78-.28-22.15,6.3-.06,13.22-1.89,19.58-.46-2.64-7.29-10.14-13.07-12.95-20.32,2.88.29,6.36,1.48,9.22.94-2.52-6.39-9.79-11.28-13.3-17.23,2.8.34,5.5,2.15,8.5,1.76-1.14-2.55-3.56-5.21-5.55-7.18-2.38-2.37-5.19-6.19-7.78-8l-.14,0c-2.59,1.78-5.4,5.61-7.78,8a27.07,27.07,0,0,0-5.55,7.18c3,.39,5.7-1.42,8.5-1.76-3.51,5.95-10.78,10.84-13.3,17.24,2.86.54,6.34-.66,9.22-1-2.81,7.25-10.31,13-12.95,20.32,6.36-1.43,13.28.4,19.58.47.47,7.36-.73,14.89-.28,22.14a47.34,47.34,0,0,1,5.18.22" style="fill:#e8ede7"/><path d="M303.39,186.24c.42-7.39-.72-14.76-.29-22.15l-.75.76c6.45-.11,13-1.86,19.38-.5.52.11,1.15-.35.93-.92-2.87-7.66-9.93-12.76-13-20.32l-.73.95c3.15.36,6.22,1.44,9.42.92a.76.76,0,0,0,.53-.93c-2.84-7-9.58-11.11-13.38-17.41l-.85,1.11c3,.43,5.63,2.08,8.7,1.78a.76.76,0,0,0,.65-1.13c-1.61-3.43-4.43-5.92-6.93-8.67-1.27-1.39-2.48-2.85-3.79-4.21-.77-.8-2-2.45-3.2-2.67s-2.78,1.92-3.46,2.63c-1.31,1.36-2.52,2.81-3.79,4.2-2.5,2.75-5.32,5.24-6.93,8.67a.76.76,0,0,0,.65,1.13c3.07.3,5.74-1.35,8.7-1.78l-.85-1.11c-3.8,6.31-10.54,10.47-13.38,17.42a.75.75,0,0,0,.53.92c3.2.52,6.27-.56,9.42-.92l-.73-.95c-3,7.56-10.08,12.66-13,20.32-.22.58.41,1,.93.93,6.42-1.37,12.93.39,19.38.49l-.75-.75c.43,7.38-.71,14.75-.29,22.14a.76.76,0,0,0,.76.75,44.88,44.88,0,0,1,5.18.22.76.76,0,0,0,0-1.51,42.74,42.74,0,0,0-5.18-.21l.75.75c-.42-7.39.72-14.76.29-22.14a.78.78,0,0,0-.76-.76c-6.61-.1-13.2-1.84-19.78-.44l.92.93c2.86-7.63,9.93-12.75,12.95-20.32a.75.75,0,0,0-.72-1c-3,.34-6,1.46-9,1l.53.93c2.76-6.77,9.51-10.9,13.22-17.06.38-.62-.24-1.19-.85-1.11-2.82.42-5.38,2-8.3,1.74l.65,1.13c1.47-3.13,4-5.45,6.31-7.94,1.14-1.23,2.22-2.51,3.35-3.74.53-.59,1.08-1.17,1.65-1.72.27-.26.54-.51.82-.75s1-.54.42-.63c.48.07,1.28,1.08,1.64,1.43.57.55,1.12,1.13,1.65,1.71,1.09,1.19,2.13,2.43,3.22,3.61,2.35,2.55,4.94,4.88,6.44,8.08l.65-1.14c-2.92.28-5.48-1.32-8.3-1.73a.76.76,0,0,0-.85,1.11c3.71,6.16,10.46,10.29,13.22,17l.53-.92c-3,.48-6.05-.64-9-1a.76.76,0,0,0-.72,1c3,7.57,10.09,12.69,12.95,20.32l.92-.93c-6.58-1.4-13.17.33-19.78.44a.78.78,0,0,0-.76.75c-.43,7.39.71,14.76.29,22.15-.05,1,1.45,1,1.51,0Z" style="fill:#e8ede7"/><path d="M152.63,186.24c.45-7.26-.75-14.78-.28-22.15,6.3-.06,13.22-1.89,19.58-.46-2.64-7.29-10.14-13.07-13-20.32,2.88.29,6.36,1.48,9.22.94-2.52-6.39-9.79-11.28-13.3-17.23,2.8.34,5.5,2.15,8.5,1.76-1.14-2.55-3.56-5.21-5.55-7.18-2.38-2.37-5.19-6.19-7.78-8l-.14,0c-2.59,1.78-5.4,5.61-7.78,8a27.07,27.07,0,0,0-5.55,7.18c3,.39,5.7-1.42,8.5-1.76-3.51,5.95-10.78,10.84-13.3,17.24,2.86.54,6.34-.66,9.22-1-2.81,7.25-10.31,13-13,20.32,6.36-1.43,13.28.4,19.58.47.47,7.36-.73,14.89-.28,22.14a47.34,47.34,0,0,1,5.18.22" style="fill:#e8ede7"/><path d="M153.39,186.24c.42-7.39-.72-14.76-.29-22.15l-.75.76c6.45-.11,13-1.86,19.38-.5.52.11,1.15-.35.93-.92-2.87-7.66-9.93-12.76-12.95-20.32l-.73.95c3.15.36,6.22,1.44,9.42.92a.76.76,0,0,0,.53-.93c-2.84-7-9.58-11.11-13.38-17.41l-.85,1.11c3,.43,5.63,2.08,8.7,1.78a.76.76,0,0,0,.65-1.13c-1.61-3.43-4.43-5.92-6.93-8.67-1.27-1.39-2.48-2.85-3.79-4.21-.77-.8-2-2.45-3.2-2.67s-2.78,1.92-3.46,2.63c-1.31,1.36-2.52,2.81-3.79,4.2-2.5,2.75-5.32,5.24-6.93,8.67a.76.76,0,0,0,.65,1.13c3.07.3,5.74-1.35,8.7-1.78l-.85-1.11c-3.8,6.31-10.54,10.47-13.38,17.42a.75.75,0,0,0,.53.92c3.2.52,6.27-.56,9.42-.92l-.73-.95c-3,7.56-10.08,12.66-12.95,20.32-.22.58.41,1,.93.93,6.42-1.37,12.93.39,19.38.49l-.75-.75c.43,7.38-.71,14.75-.29,22.14a.76.76,0,0,0,.76.75,44.88,44.88,0,0,1,5.18.22.76.76,0,0,0,0-1.51,42.74,42.74,0,0,0-5.18-.21l.75.75c-.42-7.39.72-14.76.29-22.14a.78.78,0,0,0-.76-.76c-6.61-.1-13.2-1.84-19.78-.44l.92.93c2.86-7.63,9.93-12.75,13-20.32a.75.75,0,0,0-.72-1c-3,.34-6,1.46-9,1l.53.93c2.76-6.77,9.51-10.9,13.22-17.06.38-.62-.24-1.19-.85-1.11-2.82.42-5.38,2-8.3,1.74l.65,1.13c1.47-3.13,4-5.45,6.31-7.94,1.14-1.23,2.22-2.51,3.35-3.74.53-.59,1.08-1.17,1.65-1.72.27-.26.54-.51.82-.75s1-.54.42-.63c.48.07,1.28,1.08,1.64,1.43.57.55,1.12,1.13,1.65,1.71,1.09,1.19,2.13,2.43,3.22,3.61,2.35,2.55,4.94,4.88,6.44,8.08l.65-1.14c-2.92.28-5.48-1.32-8.3-1.73a.76.76,0,0,0-.85,1.11c3.71,6.16,10.46,10.29,13.22,17l.53-.92c-3,.48-6.05-.64-9-1a.76.76,0,0,0-.72,1c3,7.57,10.09,12.69,13,20.32l.92-.93c-6.58-1.4-13.17.33-19.78.44a.78.78,0,0,0-.76.75c-.43,7.39.71,14.76.29,22.15,0,1,1.45,1,1.51,0Z" style="fill:#e8ede7"/><path d="M2.63,186.24c.45-7.26-.75-14.78-.28-22.15,6.3-.06,13.22-1.89,19.58-.46C19.29,156.34,11.79,150.56,9,143.31c2.88.29,6.36,1.48,9.22.94C15.68,137.86,8.41,133,4.9,127c2.8.34,5.5,2.15,8.5,1.76-1.14-2.55-3.56-5.21-5.55-7.18-2.38-2.37-5.19-6.19-7.78-8l-.14,0c-2.59,1.78-5.4,5.61-7.78,8a27.07,27.07,0,0,0-5.55,7.18c3,.39,5.7-1.42,8.5-1.76-3.51,5.95-10.78,10.84-13.3,17.24,2.86.54,6.34-.66,9.22-1-2.81,7.25-10.31,13-12.95,20.32,6.36-1.43,13.28.4,19.58.47.47,7.36-.73,14.89-.28,22.14a47.34,47.34,0,0,1,5.18.22" style="fill:#e8ede7"/><path d="M3.39,186.24c.42-7.39-.72-14.76-.29-22.15l-.75.76c6.45-.11,13-1.86,19.38-.5.52.11,1.15-.35.93-.92-2.87-7.66-9.93-12.76-12.95-20.32l-.73.95c3.15.36,6.22,1.44,9.42.92a.76.76,0,0,0,.53-.93c-2.84-7-9.58-11.11-13.38-17.41l-.85,1.11c3,.43,5.63,2.08,8.7,1.78a.76.76,0,0,0,.65-1.13c-1.61-3.43-4.43-5.92-6.93-8.67-1.27-1.39-2.48-2.85-3.79-4.21-.77-.8-2-2.45-3.2-2.67s-2.78,1.92-3.46,2.63c-1.31,1.36-2.52,2.81-3.79,4.2-2.5,2.75-5.32,5.24-6.93,8.67a.76.76,0,0,0,.65,1.13c3.07.3,5.74-1.35,8.7-1.78l-.85-1.11c-3.8,6.31-10.54,10.47-13.38,17.42a.75.75,0,0,0,.53.92c3.2.52,6.27-.56,9.42-.92l-.73-.95c-3,7.56-10.08,12.66-12.95,20.32-.22.58.41,1,.93.93,6.42-1.37,12.93.39,19.38.49l-.75-.75c.43,7.38-.71,14.75-.29,22.14a.76.76,0,0,0,.76.75,44.88,44.88,0,0,1,5.18.22.76.76,0,0,0,0-1.51,42.74,42.74,0,0,0-5.18-.21l.75.75c-.42-7.39.72-14.76.29-22.14a.78.78,0,0,0-.76-.76c-6.61-.1-13.2-1.84-19.78-.44l.92.93c2.86-7.63,9.93-12.75,13-20.32a.75.75,0,0,0-.72-1c-3,.34-6,1.46-9,1l.53.93c2.76-6.77,9.51-10.9,13.22-17.06.38-.62-.24-1.19-.85-1.11-2.82.42-5.38,2-8.3,1.74l.65,1.13c1.47-3.13,4-5.45,6.31-7.94,1.14-1.23,2.22-2.51,3.35-3.74.53-.59,1.08-1.17,1.65-1.72.27-.26.54-.51.82-.75s1-.54.42-.63c.48.07,1.28,1.08,1.64,1.43.57.55,1.12,1.13,1.65,1.71,1.09,1.19,2.13,2.43,3.22,3.61,2.35,2.55,4.94,4.88,6.44,8.08L13.4,128c-2.92.28-5.48-1.32-8.3-1.73a.76.76,0,0,0-.85,1.11c3.71,6.16,10.46,10.29,13.22,17l.53-.92c-3,.48-6.05-.64-9-1a.76.76,0,0,0-.72,1c3,7.57,10.09,12.69,13,20.32l.92-.93c-6.58-1.4-13.17.33-19.78.44a.78.78,0,0,0-.76.75c-.43,7.39.71,14.76.29,22.15,0,1,1.45,1,1.51,0Z" style="fill:#e8ede7"/><path d="M227.63,36.24c.45-7.26-.75-14.78-.28-22.15,6.3-.06,13.22-1.89,19.58-.46C244.29,6.34,236.79.56,234-6.69c2.88.29,6.36,1.48,9.22.94C240.68-12.14,233.41-17,229.9-23c2.8.34,5.5,2.15,8.5,1.76-1.14-2.55-3.56-5.21-5.55-7.18-2.38-2.37-5.19-6.19-7.78-8l-.14-.05c-2.59,1.78-5.4,5.61-7.78,8a27.07,27.07,0,0,0-5.55,7.18c3,.39,5.7-1.42,8.5-1.76-3.51,6-10.78,10.84-13.3,17.24,2.86.54,6.34-.66,9.22-1-2.81,7.25-10.31,13-13,20.32,6.36-1.43,13.28.4,19.58.47.47,7.36-.73,14.89-.28,22.14a47.34,47.34,0,0,1,5.18.22" style="fill:#e8ede7"/><path d="M228.39,36.24c.42-7.39-.72-14.76-.29-22.15l-.75.76c6.45-.11,13-1.86,19.38-.5.52.11,1.15-.35.93-.92C244.79,5.77,237.73.67,234.71-6.89l-.73.95c3.15.36,6.22,1.44,9.42.92a.76.76,0,0,0,.53-.93c-2.84-6.95-9.58-11.11-13.38-17.41l-.85,1.11c3,.43,5.63,2.08,8.7,1.78a.76.76,0,0,0,.65-1.13c-1.61-3.43-4.43-5.92-6.93-8.67-1.27-1.39-2.48-2.85-3.79-4.21-.77-.8-2-2.45-3.2-2.67s-2.78,1.92-3.46,2.63c-1.31,1.36-2.52,2.81-3.79,4.2-2.5,2.75-5.32,5.24-6.93,8.67a.76.76,0,0,0,.65,1.13c3.07.3,5.74-1.35,8.7-1.78l-.85-1.11C215.65-17.1,208.91-12.94,206.07-6a.75.75,0,0,0,.53.92c3.2.52,6.27-.56,9.42-.92l-.73-1c-3,7.56-10.08,12.66-12.95,20.32-.22.58.41,1,.93.93,6.42-1.37,12.93.39,19.38.49l-.75-.75c.43,7.38-.71,14.75-.29,22.14a.76.76,0,0,0,.76.75,44.88,44.88,0,0,1,5.18.22.76.76,0,0,0,0-1.51,42.74,42.74,0,0,0-5.18-.21l.75.75c-.42-7.39.72-14.76.29-22.14a.78.78,0,0,0-.76-.76c-6.61-.1-13.2-1.84-19.78-.44l.92.93c2.86-7.63,9.93-12.75,13-20.32a.75.75,0,0,0-.72-1c-3,.34-6,1.46-9,1l.53.93c2.76-6.77,9.51-10.9,13.22-17.06.38-.62-.24-1.19-.85-1.11-2.82.42-5.38,2-8.3,1.74l.65,1.13c1.47-3.13,4-5.45,6.31-7.94,1.14-1.23,2.22-2.51,3.35-3.74.53-.59,1.08-1.17,1.65-1.72.27-.26.54-.51.82-.75s1-.54.42-.63c.48.07,1.28,1.08,1.64,1.43.57.55,1.12,1.13,1.65,1.71,1.09,1.19,2.13,2.43,3.22,3.61,2.35,2.55,4.94,4.88,6.44,8.08L238.4-22c-2.92.28-5.48-1.32-8.3-1.73a.76.76,0,0,0-.85,1.11c3.71,6.16,10.46,10.29,13.22,17.05l.53-.92c-3,.48-6.05-.64-9-1a.76.76,0,0,0-.72,1c3,7.57,10.09,12.69,13,20.32l.92-.93c-6.58-1.4-13.17.33-19.78.44a.78.78,0,0,0-.76.75c-.43,7.39.71,14.76.29,22.15,0,1,1.45,1,1.51,0Z" style="fill:#e8ede7"/><path d="M77.63,36.24c.45-7.26-.75-14.78-.28-22.15,6.3-.06,13.22-1.89,19.58-.46C94.29,6.34,86.79.56,84-6.69c2.88.29,6.36,1.48,9.22.94C90.68-12.14,83.41-17,79.9-23c2.8.34,5.5,2.15,8.5,1.76-1.14-2.55-3.56-5.21-5.55-7.18-2.38-2.37-5.19-6.19-7.78-8l-.14-.05c-2.59,1.78-5.4,5.61-7.78,8a27.07,27.07,0,0,0-5.55,7.18c3,.39,5.7-1.42,8.5-1.76-3.51,6-10.78,10.84-13.3,17.24,2.86.54,6.34-.66,9.22-1C63.21.51,55.71,6.29,53.07,13.58c6.36-1.43,13.28.4,19.58.47.47,7.36-.73,14.89-.28,22.14a47.34,47.34,0,0,1,5.18.22" style="fill:#e8ede7"/><path d="M78.39,36.24c.42-7.39-.72-14.76-.29-22.15l-.75.76c6.45-.11,13-1.86,19.38-.5.52.11,1.15-.35.93-.92C94.79,5.77,87.73.67,84.71-6.89L84-5.94c3.15.36,6.22,1.44,9.42.92a.76.76,0,0,0,.53-.93c-2.84-6.95-9.58-11.11-13.38-17.41l-.85,1.11c3,.43,5.63,2.08,8.7,1.78a.76.76,0,0,0,.65-1.13c-1.61-3.43-4.43-5.92-6.93-8.67-1.27-1.39-2.48-2.85-3.79-4.21-.77-.8-2-2.45-3.2-2.67s-2.78,1.92-3.46,2.63c-1.31,1.36-2.52,2.81-3.79,4.2-2.5,2.75-5.32,5.24-6.93,8.67a.76.76,0,0,0,.65,1.13c3.07.3,5.74-1.35,8.7-1.78l-.85-1.11C65.65-17.1,58.91-12.94,56.07-6a.75.75,0,0,0,.53.92c3.2.52,6.27-.56,9.42-.92l-.73-1c-3,7.56-10.08,12.66-13,20.32-.22.58.41,1,.93.93,6.42-1.37,12.93.39,19.38.49l-.75-.75c.43,7.38-.71,14.75-.29,22.14a.76.76,0,0,0,.76.75,44.88,44.88,0,0,1,5.18.22.76.76,0,0,0,0-1.51,42.74,42.74,0,0,0-5.18-.21l.75.75c-.42-7.39.72-14.76.29-22.14a.78.78,0,0,0-.76-.76c-6.61-.1-13.2-1.84-19.78-.44l.92.93C56.65,6.15,63.72,1,66.74-6.54a.75.75,0,0,0-.72-1c-3,.34-6,1.46-9,1l.53.93c2.76-6.77,9.51-10.9,13.22-17.06.38-.62-.24-1.19-.85-1.11-2.82.42-5.38,2-8.3,1.74l.65,1.13c1.47-3.13,4-5.45,6.31-7.94,1.14-1.23,2.22-2.51,3.35-3.74.53-.59,1.08-1.17,1.65-1.72.27-.26.54-.51.82-.75s1-.54.42-.63c.48.07,1.28,1.08,1.64,1.43.57.55,1.12,1.13,1.65,1.71,1.09,1.19,2.13,2.43,3.22,3.61,2.35,2.55,4.94,4.88,6.44,8.08L88.4-22c-2.92.28-5.48-1.32-8.3-1.73a.76.76,0,0,0-.85,1.11C83-16.44,89.71-12.31,92.47-5.55L93-6.47c-3,.48-6-.64-9-1a.76.76,0,0,0-.72,1c3,7.57,10.09,12.69,12.95,20.32l.92-.93c-6.58-1.4-13.17.33-19.78.44a.78.78,0,0,0-.76.75c-.43,7.39.71,14.76.29,22.15,0,1,1.45,1,1.51,0Z" style="fill:#e8ede7"/></pattern><pattern id="medium_0_forest-5" data-name="medium 0 forest" width="300" height="300" patternTransform="translate(-82 2667)" patternUnits="userSpaceOnUse" viewBox="0 0 300 300"><rect width="300" height="300" style="fill:none"/><path d="M227.63,336.24c.45-7.26-.75-14.78-.28-22.15,6.3-.06,13.22-1.89,19.58-.46-2.64-7.29-10.14-13.07-13-20.32,2.88.29,6.36,1.48,9.22.94-2.52-6.39-9.79-11.28-13.3-17.23,2.8.34,5.5,2.15,8.5,1.76-1.14-2.55-3.56-5.21-5.55-7.18-2.38-2.37-5.19-6.19-7.78-8l-.14-.05c-2.59,1.78-5.4,5.61-7.78,8a27.07,27.07,0,0,0-5.55,7.18c3,.39,5.7-1.42,8.5-1.76-3.51,5.95-10.78,10.84-13.3,17.24,2.86.54,6.34-.66,9.22-.95-2.81,7.25-10.31,13-13,20.32,6.36-1.43,13.28.4,19.58.47.47,7.36-.73,14.89-.28,22.14a47.34,47.34,0,0,1,5.18.22" style="fill:#e8ede7"/><path d="M228.39,336.24c.42-7.39-.72-14.76-.29-22.15l-.75.76c6.45-.11,13-1.86,19.38-.5.52.11,1.15-.35.93-.92-2.87-7.66-9.93-12.76-12.95-20.32l-.73.95c3.15.36,6.22,1.44,9.42.92a.76.76,0,0,0,.53-.93c-2.84-6.95-9.58-11.11-13.38-17.41l-.85,1.11c3,.43,5.63,2.08,8.7,1.78a.76.76,0,0,0,.65-1.13c-1.61-3.43-4.43-5.92-6.93-8.67-1.27-1.39-2.48-2.85-3.79-4.21-.77-.8-2-2.45-3.2-2.67s-2.78,1.92-3.46,2.63c-1.31,1.36-2.52,2.81-3.79,4.2-2.5,2.75-5.32,5.24-6.93,8.67a.76.76,0,0,0,.65,1.13c3.07.3,5.74-1.35,8.7-1.78l-.85-1.11c-3.8,6.31-10.54,10.47-13.38,17.42a.75.75,0,0,0,.53.92c3.2.52,6.27-.56,9.42-.92l-.73-.95c-3,7.56-10.08,12.66-12.95,20.32-.22.58.41,1,.93.93,6.42-1.37,12.93.39,19.38.49l-.75-.75c.43,7.38-.71,14.75-.29,22.14a.76.76,0,0,0,.76.75,44.88,44.88,0,0,1,5.18.22.76.76,0,0,0,0-1.51,42.74,42.74,0,0,0-5.18-.21l.75.75c-.42-7.39.72-14.76.29-22.14a.78.78,0,0,0-.76-.76c-6.61-.1-13.2-1.84-19.78-.44l.92.93c2.86-7.63,9.93-12.75,13-20.32a.75.75,0,0,0-.72-.95c-3,.34-6,1.46-9,1l.53.93c2.76-6.77,9.51-10.9,13.22-17.06.38-.62-.24-1.19-.85-1.11-2.82.42-5.38,2-8.3,1.74l.65,1.13c1.47-3.13,4-5.45,6.31-7.94,1.14-1.23,2.22-2.51,3.35-3.74.53-.59,1.08-1.17,1.65-1.72.27-.26.54-.51.82-.75s1-.54.42-.63c.48.07,1.28,1.08,1.64,1.43.57.55,1.12,1.13,1.65,1.71,1.09,1.19,2.13,2.43,3.22,3.61,2.35,2.55,4.94,4.88,6.44,8.08l.65-1.14c-2.92.28-5.48-1.32-8.3-1.73a.76.76,0,0,0-.85,1.11c3.71,6.16,10.46,10.29,13.22,17.05l.53-.92c-3,.48-6.05-.64-9-1a.76.76,0,0,0-.72,1c3,7.57,10.09,12.69,13,20.32l.92-.93c-6.58-1.4-13.17.33-19.78.44a.78.78,0,0,0-.76.75c-.43,7.39.71,14.76.29,22.15,0,1,1.45,1,1.51,0Z" style="fill:#e8ede7"/><path d="M77.63,336.24c.45-7.26-.75-14.78-.28-22.15,6.3-.06,13.22-1.89,19.58-.46-2.64-7.29-10.14-13.07-13-20.32,2.88.29,6.36,1.48,9.22.94C90.68,287.86,83.41,283,79.9,277c2.8.34,5.5,2.15,8.5,1.76-1.14-2.55-3.56-5.21-5.55-7.18-2.38-2.37-5.19-6.19-7.78-8l-.14-.05c-2.59,1.78-5.4,5.61-7.78,8a27.07,27.07,0,0,0-5.55,7.18c3,.39,5.7-1.42,8.5-1.76-3.51,5.95-10.78,10.84-13.3,17.24,2.86.54,6.34-.66,9.22-.95-2.81,7.25-10.31,13-12.95,20.32,6.36-1.43,13.28.4,19.58.47.47,7.36-.73,14.89-.28,22.14a47.34,47.34,0,0,1,5.18.22" style="fill:#e8ede7"/><path d="M78.39,336.24c.42-7.39-.72-14.76-.29-22.15l-.75.76c6.45-.11,13-1.86,19.38-.5.52.11,1.15-.35.93-.92-2.87-7.66-9.93-12.76-13-20.32l-.73.95c3.15.36,6.22,1.44,9.42.92a.76.76,0,0,0,.53-.93c-2.84-6.95-9.58-11.11-13.38-17.41l-.85,1.11c3,.43,5.63,2.08,8.7,1.78a.76.76,0,0,0,.65-1.13c-1.61-3.43-4.43-5.92-6.93-8.67-1.27-1.39-2.48-2.85-3.79-4.21-.77-.8-2-2.45-3.2-2.67s-2.78,1.92-3.46,2.63c-1.31,1.36-2.52,2.81-3.79,4.2-2.5,2.75-5.32,5.24-6.93,8.67a.76.76,0,0,0,.65,1.13c3.07.3,5.74-1.35,8.7-1.78l-.85-1.11c-3.8,6.31-10.54,10.47-13.38,17.42a.75.75,0,0,0,.53.92c3.2.52,6.27-.56,9.42-.92l-.73-.95c-3,7.56-10.08,12.66-13,20.32-.22.58.41,1,.93.93,6.42-1.37,12.93.39,19.38.49l-.75-.75c.43,7.38-.71,14.75-.29,22.14a.76.76,0,0,0,.76.75,44.88,44.88,0,0,1,5.18.22.76.76,0,0,0,0-1.51,42.74,42.74,0,0,0-5.18-.21l.75.75c-.42-7.39.72-14.76.29-22.14a.78.78,0,0,0-.76-.76c-6.61-.1-13.2-1.84-19.78-.44l.92.93c2.86-7.63,9.93-12.75,12.95-20.32a.75.75,0,0,0-.72-.95c-3,.34-6,1.46-9,1l.53.93c2.76-6.77,9.51-10.9,13.22-17.06.38-.62-.24-1.19-.85-1.11-2.82.42-5.38,2-8.3,1.74l.65,1.13c1.47-3.13,4-5.45,6.31-7.94,1.14-1.23,2.22-2.51,3.35-3.74.53-.59,1.08-1.17,1.65-1.72.27-.26.54-.51.82-.75s1-.54.42-.63c.48.07,1.28,1.08,1.64,1.43.57.55,1.12,1.13,1.65,1.71,1.09,1.19,2.13,2.43,3.22,3.61,2.35,2.55,4.94,4.88,6.44,8.08L88.4,278c-2.92.28-5.48-1.32-8.3-1.73a.76.76,0,0,0-.85,1.11c3.71,6.16,10.46,10.29,13.22,17.05l.53-.92c-3,.48-6-.64-9-1a.76.76,0,0,0-.72,1c3,7.57,10.09,12.69,12.95,20.32l.92-.93c-6.58-1.4-13.17.33-19.78.44a.78.78,0,0,0-.76.75c-.43,7.39.71,14.76.29,22.15,0,1,1.45,1,1.51,0Z" style="fill:#e8ede7"/><path d="M302.63,186.24c.45-7.26-.75-14.78-.28-22.15,6.3-.06,13.22-1.89,19.58-.46-2.64-7.29-10.14-13.07-12.95-20.32,2.88.29,6.36,1.48,9.22.94-2.52-6.39-9.79-11.28-13.3-17.23,2.8.34,5.5,2.15,8.5,1.76-1.14-2.55-3.56-5.21-5.55-7.18-2.38-2.37-5.19-6.19-7.78-8l-.14,0c-2.59,1.78-5.4,5.61-7.78,8a27.07,27.07,0,0,0-5.55,7.18c3,.39,5.7-1.42,8.5-1.76-3.51,5.95-10.78,10.84-13.3,17.24,2.86.54,6.34-.66,9.22-1-2.81,7.25-10.31,13-12.95,20.32,6.36-1.43,13.28.4,19.58.47.47,7.36-.73,14.89-.28,22.14a47.34,47.34,0,0,1,5.18.22" style="fill:#e8ede7"/><path d="M303.39,186.24c.42-7.39-.72-14.76-.29-22.15l-.75.76c6.45-.11,13-1.86,19.38-.5.52.11,1.15-.35.93-.92-2.87-7.66-9.93-12.76-13-20.32l-.73.95c3.15.36,6.22,1.44,9.42.92a.76.76,0,0,0,.53-.93c-2.84-7-9.58-11.11-13.38-17.41l-.85,1.11c3,.43,5.63,2.08,8.7,1.78a.76.76,0,0,0,.65-1.13c-1.61-3.43-4.43-5.92-6.93-8.67-1.27-1.39-2.48-2.85-3.79-4.21-.77-.8-2-2.45-3.2-2.67s-2.78,1.92-3.46,2.63c-1.31,1.36-2.52,2.81-3.79,4.2-2.5,2.75-5.32,5.24-6.93,8.67a.76.76,0,0,0,.65,1.13c3.07.3,5.74-1.35,8.7-1.78l-.85-1.11c-3.8,6.31-10.54,10.47-13.38,17.42a.75.75,0,0,0,.53.92c3.2.52,6.27-.56,9.42-.92l-.73-.95c-3,7.56-10.08,12.66-13,20.32-.22.58.41,1,.93.93,6.42-1.37,12.93.39,19.38.49l-.75-.75c.43,7.38-.71,14.75-.29,22.14a.76.76,0,0,0,.76.75,44.88,44.88,0,0,1,5.18.22.76.76,0,0,0,0-1.51,42.74,42.74,0,0,0-5.18-.21l.75.75c-.42-7.39.72-14.76.29-22.14a.78.78,0,0,0-.76-.76c-6.61-.1-13.2-1.84-19.78-.44l.92.93c2.86-7.63,9.93-12.75,12.95-20.32a.75.75,0,0,0-.72-1c-3,.34-6,1.46-9,1l.53.93c2.76-6.77,9.51-10.9,13.22-17.06.38-.62-.24-1.19-.85-1.11-2.82.42-5.38,2-8.3,1.74l.65,1.13c1.47-3.13,4-5.45,6.31-7.94,1.14-1.23,2.22-2.51,3.35-3.74.53-.59,1.08-1.17,1.65-1.72.27-.26.54-.51.82-.75s1-.54.42-.63c.48.07,1.28,1.08,1.64,1.43.57.55,1.12,1.13,1.65,1.71,1.09,1.19,2.13,2.43,3.22,3.61,2.35,2.55,4.94,4.88,6.44,8.08l.65-1.14c-2.92.28-5.48-1.32-8.3-1.73a.76.76,0,0,0-.85,1.11c3.71,6.16,10.46,10.29,13.22,17l.53-.92c-3,.48-6.05-.64-9-1a.76.76,0,0,0-.72,1c3,7.57,10.09,12.69,12.95,20.32l.92-.93c-6.58-1.4-13.17.33-19.78.44a.78.78,0,0,0-.76.75c-.43,7.39.71,14.76.29,22.15-.05,1,1.45,1,1.51,0Z" style="fill:#e8ede7"/><path d="M152.63,186.24c.45-7.26-.75-14.78-.28-22.15,6.3-.06,13.22-1.89,19.58-.46-2.64-7.29-10.14-13.07-13-20.32,2.88.29,6.36,1.48,9.22.94-2.52-6.39-9.79-11.28-13.3-17.23,2.8.34,5.5,2.15,8.5,1.76-1.14-2.55-3.56-5.21-5.55-7.18-2.38-2.37-5.19-6.19-7.78-8l-.14,0c-2.59,1.78-5.4,5.61-7.78,8a27.07,27.07,0,0,0-5.55,7.18c3,.39,5.7-1.42,8.5-1.76-3.51,5.95-10.78,10.84-13.3,17.24,2.86.54,6.34-.66,9.22-1-2.81,7.25-10.31,13-13,20.32,6.36-1.43,13.28.4,19.58.47.47,7.36-.73,14.89-.28,22.14a47.34,47.34,0,0,1,5.18.22" style="fill:#e8ede7"/><path d="M153.39,186.24c.42-7.39-.72-14.76-.29-22.15l-.75.76c6.45-.11,13-1.86,19.38-.5.52.11,1.15-.35.93-.92-2.87-7.66-9.93-12.76-12.95-20.32l-.73.95c3.15.36,6.22,1.44,9.42.92a.76.76,0,0,0,.53-.93c-2.84-7-9.58-11.11-13.38-17.41l-.85,1.11c3,.43,5.63,2.08,8.7,1.78a.76.76,0,0,0,.65-1.13c-1.61-3.43-4.43-5.92-6.93-8.67-1.27-1.39-2.48-2.85-3.79-4.21-.77-.8-2-2.45-3.2-2.67s-2.78,1.92-3.46,2.63c-1.31,1.36-2.52,2.81-3.79,4.2-2.5,2.75-5.32,5.24-6.93,8.67a.76.76,0,0,0,.65,1.13c3.07.3,5.74-1.35,8.7-1.78l-.85-1.11c-3.8,6.31-10.54,10.47-13.38,17.42a.75.75,0,0,0,.53.92c3.2.52,6.27-.56,9.42-.92l-.73-.95c-3,7.56-10.08,12.66-12.95,20.32-.22.58.41,1,.93.93,6.42-1.37,12.93.39,19.38.49l-.75-.75c.43,7.38-.71,14.75-.29,22.14a.76.76,0,0,0,.76.75,44.88,44.88,0,0,1,5.18.22.76.76,0,0,0,0-1.51,42.74,42.74,0,0,0-5.18-.21l.75.75c-.42-7.39.72-14.76.29-22.14a.78.78,0,0,0-.76-.76c-6.61-.1-13.2-1.84-19.78-.44l.92.93c2.86-7.63,9.93-12.75,13-20.32a.75.75,0,0,0-.72-1c-3,.34-6,1.46-9,1l.53.93c2.76-6.77,9.51-10.9,13.22-17.06.38-.62-.24-1.19-.85-1.11-2.82.42-5.38,2-8.3,1.74l.65,1.13c1.47-3.13,4-5.45,6.31-7.94,1.14-1.23,2.22-2.51,3.35-3.74.53-.59,1.08-1.17,1.65-1.72.27-.26.54-.51.82-.75s1-.54.42-.63c.48.07,1.28,1.08,1.64,1.43.57.55,1.12,1.13,1.65,1.71,1.09,1.19,2.13,2.43,3.22,3.61,2.35,2.55,4.94,4.88,6.44,8.08l.65-1.14c-2.92.28-5.48-1.32-8.3-1.73a.76.76,0,0,0-.85,1.11c3.71,6.16,10.46,10.29,13.22,17l.53-.92c-3,.48-6.05-.64-9-1a.76.76,0,0,0-.72,1c3,7.57,10.09,12.69,13,20.32l.92-.93c-6.58-1.4-13.17.33-19.78.44a.78.78,0,0,0-.76.75c-.43,7.39.71,14.76.29,22.15,0,1,1.45,1,1.51,0Z" style="fill:#e8ede7"/><path d="M2.63,186.24c.45-7.26-.75-14.78-.28-22.15,6.3-.06,13.22-1.89,19.58-.46C19.29,156.34,11.79,150.56,9,143.31c2.88.29,6.36,1.48,9.22.94C15.68,137.86,8.41,133,4.9,127c2.8.34,5.5,2.15,8.5,1.76-1.14-2.55-3.56-5.21-5.55-7.18-2.38-2.37-5.19-6.19-7.78-8l-.14,0c-2.59,1.78-5.4,5.61-7.78,8a27.07,27.07,0,0,0-5.55,7.18c3,.39,5.7-1.42,8.5-1.76-3.51,5.95-10.78,10.84-13.3,17.24,2.86.54,6.34-.66,9.22-1-2.81,7.25-10.31,13-12.95,20.32,6.36-1.43,13.28.4,19.58.47.47,7.36-.73,14.89-.28,22.14a47.34,47.34,0,0,1,5.18.22" style="fill:#e8ede7"/><path d="M3.39,186.24c.42-7.39-.72-14.76-.29-22.15l-.75.76c6.45-.11,13-1.86,19.38-.5.52.11,1.15-.35.93-.92-2.87-7.66-9.93-12.76-12.95-20.32l-.73.95c3.15.36,6.22,1.44,9.42.92a.76.76,0,0,0,.53-.93c-2.84-7-9.58-11.11-13.38-17.41l-.85,1.11c3,.43,5.63,2.08,8.7,1.78a.76.76,0,0,0,.65-1.13c-1.61-3.43-4.43-5.92-6.93-8.67-1.27-1.39-2.48-2.85-3.79-4.21-.77-.8-2-2.45-3.2-2.67s-2.78,1.92-3.46,2.63c-1.31,1.36-2.52,2.81-3.79,4.2-2.5,2.75-5.32,5.24-6.93,8.67a.76.76,0,0,0,.65,1.13c3.07.3,5.74-1.35,8.7-1.78l-.85-1.11c-3.8,6.31-10.54,10.47-13.38,17.42a.75.75,0,0,0,.53.92c3.2.52,6.27-.56,9.42-.92l-.73-.95c-3,7.56-10.08,12.66-12.95,20.32-.22.58.41,1,.93.93,6.42-1.37,12.93.39,19.38.49l-.75-.75c.43,7.38-.71,14.75-.29,22.14a.76.76,0,0,0,.76.75,44.88,44.88,0,0,1,5.18.22.76.76,0,0,0,0-1.51,42.74,42.74,0,0,0-5.18-.21l.75.75c-.42-7.39.72-14.76.29-22.14a.78.78,0,0,0-.76-.76c-6.61-.1-13.2-1.84-19.78-.44l.92.93c2.86-7.63,9.93-12.75,13-20.32a.75.75,0,0,0-.72-1c-3,.34-6,1.46-9,1l.53.93c2.76-6.77,9.51-10.9,13.22-17.06.38-.62-.24-1.19-.85-1.11-2.82.42-5.38,2-8.3,1.74l.65,1.13c1.47-3.13,4-5.45,6.31-7.94,1.14-1.23,2.22-2.51,3.35-3.74.53-.59,1.08-1.17,1.65-1.72.27-.26.54-.51.82-.75s1-.54.42-.63c.48.07,1.28,1.08,1.64,1.43.57.55,1.12,1.13,1.65,1.71,1.09,1.19,2.13,2.43,3.22,3.61,2.35,2.55,4.94,4.88,6.44,8.08L13.4,128c-2.92.28-5.48-1.32-8.3-1.73a.76.76,0,0,0-.85,1.11c3.71,6.16,10.46,10.29,13.22,17l.53-.92c-3,.48-6.05-.64-9-1a.76.76,0,0,0-.72,1c3,7.57,10.09,12.69,13,20.32l.92-.93c-6.58-1.4-13.17.33-19.78.44a.78.78,0,0,0-.76.75c-.43,7.39.71,14.76.29,22.15,0,1,1.45,1,1.51,0Z" style="fill:#e8ede7"/><path d="M227.63,36.24c.45-7.26-.75-14.78-.28-22.15,6.3-.06,13.22-1.89,19.58-.46C244.29,6.34,236.79.56,234-6.69c2.88.29,6.36,1.48,9.22.94C240.68-12.14,233.41-17,229.9-23c2.8.34,5.5,2.15,8.5,1.76-1.14-2.55-3.56-5.21-5.55-7.18-2.38-2.37-5.19-6.19-7.78-8l-.14-.05c-2.59,1.78-5.4,5.61-7.78,8a27.07,27.07,0,0,0-5.55,7.18c3,.39,5.7-1.42,8.5-1.76-3.51,6-10.78,10.84-13.3,17.24,2.86.54,6.34-.66,9.22-1-2.81,7.25-10.31,13-13,20.32,6.36-1.43,13.28.4,19.58.47.47,7.36-.73,14.89-.28,22.14a47.34,47.34,0,0,1,5.18.22" style="fill:#e8ede7"/><path d="M228.39,36.24c.42-7.39-.72-14.76-.29-22.15l-.75.76c6.45-.11,13-1.86,19.38-.5.52.11,1.15-.35.93-.92C244.79,5.77,237.73.67,234.71-6.89l-.73.95c3.15.36,6.22,1.44,9.42.92a.76.76,0,0,0,.53-.93c-2.84-6.95-9.58-11.11-13.38-17.41l-.85,1.11c3,.43,5.63,2.08,8.7,1.78a.76.76,0,0,0,.65-1.13c-1.61-3.43-4.43-5.92-6.93-8.67-1.27-1.39-2.48-2.85-3.79-4.21-.77-.8-2-2.45-3.2-2.67s-2.78,1.92-3.46,2.63c-1.31,1.36-2.52,2.81-3.79,4.2-2.5,2.75-5.32,5.24-6.93,8.67a.76.76,0,0,0,.65,1.13c3.07.3,5.74-1.35,8.7-1.78l-.85-1.11C215.65-17.1,208.91-12.94,206.07-6a.75.75,0,0,0,.53.92c3.2.52,6.27-.56,9.42-.92l-.73-1c-3,7.56-10.08,12.66-12.95,20.32-.22.58.41,1,.93.93,6.42-1.37,12.93.39,19.38.49l-.75-.75c.43,7.38-.71,14.75-.29,22.14a.76.76,0,0,0,.76.75,44.88,44.88,0,0,1,5.18.22.76.76,0,0,0,0-1.51,42.74,42.74,0,0,0-5.18-.21l.75.75c-.42-7.39.72-14.76.29-22.14a.78.78,0,0,0-.76-.76c-6.61-.1-13.2-1.84-19.78-.44l.92.93c2.86-7.63,9.93-12.75,13-20.32a.75.75,0,0,0-.72-1c-3,.34-6,1.46-9,1l.53.93c2.76-6.77,9.51-10.9,13.22-17.06.38-.62-.24-1.19-.85-1.11-2.82.42-5.38,2-8.3,1.74l.65,1.13c1.47-3.13,4-5.45,6.31-7.94,1.14-1.23,2.22-2.51,3.35-3.74.53-.59,1.08-1.17,1.65-1.72.27-.26.54-.51.82-.75s1-.54.42-.63c.48.07,1.28,1.08,1.64,1.43.57.55,1.12,1.13,1.65,1.71,1.09,1.19,2.13,2.43,3.22,3.61,2.35,2.55,4.94,4.88,6.44,8.08L238.4-22c-2.92.28-5.48-1.32-8.3-1.73a.76.76,0,0,0-.85,1.11c3.71,6.16,10.46,10.29,13.22,17.05l.53-.92c-3,.48-6.05-.64-9-1a.76.76,0,0,0-.72,1c3,7.57,10.09,12.69,13,20.32l.92-.93c-6.58-1.4-13.17.33-19.78.44a.78.78,0,0,0-.76.75c-.43,7.39.71,14.76.29,22.15,0,1,1.45,1,1.51,0Z" style="fill:#e8ede7"/><path d="M77.63,36.24c.45-7.26-.75-14.78-.28-22.15,6.3-.06,13.22-1.89,19.58-.46C94.29,6.34,86.79.56,84-6.69c2.88.29,6.36,1.48,9.22.94C90.68-12.14,83.41-17,79.9-23c2.8.34,5.5,2.15,8.5,1.76-1.14-2.55-3.56-5.21-5.55-7.18-2.38-2.37-5.19-6.19-7.78-8l-.14-.05c-2.59,1.78-5.4,5.61-7.78,8a27.07,27.07,0,0,0-5.55,7.18c3,.39,5.7-1.42,8.5-1.76-3.51,6-10.78,10.84-13.3,17.24,2.86.54,6.34-.66,9.22-1C63.21.51,55.71,6.29,53.07,13.58c6.36-1.43,13.28.4,19.58.47.47,7.36-.73,14.89-.28,22.14a47.34,47.34,0,0,1,5.18.22" style="fill:#e8ede7"/><path d="M78.39,36.24c.42-7.39-.72-14.76-.29-22.15l-.75.76c6.45-.11,13-1.86,19.38-.5.52.11,1.15-.35.93-.92C94.79,5.77,87.73.67,84.71-6.89L84-5.94c3.15.36,6.22,1.44,9.42.92a.76.76,0,0,0,.53-.93c-2.84-6.95-9.58-11.11-13.38-17.41l-.85,1.11c3,.43,5.63,2.08,8.7,1.78a.76.76,0,0,0,.65-1.13c-1.61-3.43-4.43-5.92-6.93-8.67-1.27-1.39-2.48-2.85-3.79-4.21-.77-.8-2-2.45-3.2-2.67s-2.78,1.92-3.46,2.63c-1.31,1.36-2.52,2.81-3.79,4.2-2.5,2.75-5.32,5.24-6.93,8.67a.76.76,0,0,0,.65,1.13c3.07.3,5.74-1.35,8.7-1.78l-.85-1.11C65.65-17.1,58.91-12.94,56.07-6a.75.75,0,0,0,.53.92c3.2.52,6.27-.56,9.42-.92l-.73-1c-3,7.56-10.08,12.66-13,20.32-.22.58.41,1,.93.93,6.42-1.37,12.93.39,19.38.49l-.75-.75c.43,7.38-.71,14.75-.29,22.14a.76.76,0,0,0,.76.75,44.88,44.88,0,0,1,5.18.22.76.76,0,0,0,0-1.51,42.74,42.74,0,0,0-5.18-.21l.75.75c-.42-7.39.72-14.76.29-22.14a.78.78,0,0,0-.76-.76c-6.61-.1-13.2-1.84-19.78-.44l.92.93C56.65,6.15,63.72,1,66.74-6.54a.75.75,0,0,0-.72-1c-3,.34-6,1.46-9,1l.53.93c2.76-6.77,9.51-10.9,13.22-17.06.38-.62-.24-1.19-.85-1.11-2.82.42-5.38,2-8.3,1.74l.65,1.13c1.47-3.13,4-5.45,6.31-7.94,1.14-1.23,2.22-2.51,3.35-3.74.53-.59,1.08-1.17,1.65-1.72.27-.26.54-.51.82-.75s1-.54.42-.63c.48.07,1.28,1.08,1.64,1.43.57.55,1.12,1.13,1.65,1.71,1.09,1.19,2.13,2.43,3.22,3.61,2.35,2.55,4.94,4.88,6.44,8.08L88.4-22c-2.92.28-5.48-1.32-8.3-1.73a.76.76,0,0,0-.85,1.11C83-16.44,89.71-12.31,92.47-5.55L93-6.47c-3,.48-6-.64-9-1a.76.76,0,0,0-.72,1c3,7.57,10.09,12.69,12.95,20.32l.92-.93c-6.58-1.4-13.17.33-19.78.44a.78.78,0,0,0-.76.75c-.43,7.39.71,14.76.29,22.15,0,1,1.45,1,1.51,0Z" style="fill:#e8ede7"/></pattern><pattern id="medium_0_forest-7" data-name="medium 0 forest" width="300" height="300" patternTransform="translate(68 2667)" patternUnits="userSpaceOnUse" viewBox="0 0 300 300"><rect width="300" height="300" style="fill:none"/><path d="M227.63,336.24c.45-7.26-.75-14.78-.28-22.15,6.3-.06,13.22-1.89,19.58-.46-2.64-7.29-10.14-13.07-13-20.32,2.88.29,6.36,1.48,9.22.94-2.52-6.39-9.79-11.28-13.3-17.23,2.8.34,5.5,2.15,8.5,1.76-1.14-2.55-3.56-5.21-5.55-7.18-2.38-2.37-5.19-6.19-7.78-8l-.14-.05c-2.59,1.78-5.4,5.61-7.78,8a27.07,27.07,0,0,0-5.55,7.18c3,.39,5.7-1.42,8.5-1.76-3.51,5.95-10.78,10.84-13.3,17.24,2.86.54,6.34-.66,9.22-.95-2.81,7.25-10.31,13-13,20.32,6.36-1.43,13.28.4,19.58.47.47,7.36-.73,14.89-.28,22.14a47.34,47.34,0,0,1,5.18.22" style="fill:#e8ede7"/><path d="M228.39,336.24c.42-7.39-.72-14.76-.29-22.15l-.75.76c6.45-.11,13-1.86,19.38-.5.52.11,1.15-.35.93-.92-2.87-7.66-9.93-12.76-12.95-20.32l-.73.95c3.15.36,6.22,1.44,9.42.92a.76.76,0,0,0,.53-.93c-2.84-6.95-9.58-11.11-13.38-17.41l-.85,1.11c3,.43,5.63,2.08,8.7,1.78a.76.76,0,0,0,.65-1.13c-1.61-3.43-4.43-5.92-6.93-8.67-1.27-1.39-2.48-2.85-3.79-4.21-.77-.8-2-2.45-3.2-2.67s-2.78,1.92-3.46,2.63c-1.31,1.36-2.52,2.81-3.79,4.2-2.5,2.75-5.32,5.24-6.93,8.67a.76.76,0,0,0,.65,1.13c3.07.3,5.74-1.35,8.7-1.78l-.85-1.11c-3.8,6.31-10.54,10.47-13.38,17.42a.75.75,0,0,0,.53.92c3.2.52,6.27-.56,9.42-.92l-.73-.95c-3,7.56-10.08,12.66-12.95,20.32-.22.58.41,1,.93.93,6.42-1.37,12.93.39,19.38.49l-.75-.75c.43,7.38-.71,14.75-.29,22.14a.76.76,0,0,0,.76.75,44.88,44.88,0,0,1,5.18.22.76.76,0,0,0,0-1.51,42.74,42.74,0,0,0-5.18-.21l.75.75c-.42-7.39.72-14.76.29-22.14a.78.78,0,0,0-.76-.76c-6.61-.1-13.2-1.84-19.78-.44l.92.93c2.86-7.63,9.93-12.75,13-20.32a.75.75,0,0,0-.72-.95c-3,.34-6,1.46-9,1l.53.93c2.76-6.77,9.51-10.9,13.22-17.06.38-.62-.24-1.19-.85-1.11-2.82.42-5.38,2-8.3,1.74l.65,1.13c1.47-3.13,4-5.45,6.31-7.94,1.14-1.23,2.22-2.51,3.35-3.74.53-.59,1.08-1.17,1.65-1.72.27-.26.54-.51.82-.75s1-.54.42-.63c.48.07,1.28,1.08,1.64,1.43.57.55,1.12,1.13,1.65,1.71,1.09,1.19,2.13,2.43,3.22,3.61,2.35,2.55,4.94,4.88,6.44,8.08l.65-1.14c-2.92.28-5.48-1.32-8.3-1.73a.76.76,0,0,0-.85,1.11c3.71,6.16,10.46,10.29,13.22,17.05l.53-.92c-3,.48-6.05-.64-9-1a.76.76,0,0,0-.72,1c3,7.57,10.09,12.69,13,20.32l.92-.93c-6.58-1.4-13.17.33-19.78.44a.78.78,0,0,0-.76.75c-.43,7.39.71,14.76.29,22.15,0,1,1.45,1,1.51,0Z" style="fill:#e8ede7"/><path d="M77.63,336.24c.45-7.26-.75-14.78-.28-22.15,6.3-.06,13.22-1.89,19.58-.46-2.64-7.29-10.14-13.07-13-20.32,2.88.29,6.36,1.48,9.22.94C90.68,287.86,83.41,283,79.9,277c2.8.34,5.5,2.15,8.5,1.76-1.14-2.55-3.56-5.21-5.55-7.18-2.38-2.37-5.19-6.19-7.78-8l-.14-.05c-2.59,1.78-5.4,5.61-7.78,8a27.07,27.07,0,0,0-5.55,7.18c3,.39,5.7-1.42,8.5-1.76-3.51,5.95-10.78,10.84-13.3,17.24,2.86.54,6.34-.66,9.22-.95-2.81,7.25-10.31,13-12.95,20.32,6.36-1.43,13.28.4,19.58.47.47,7.36-.73,14.89-.28,22.14a47.34,47.34,0,0,1,5.18.22" style="fill:#e8ede7"/><path d="M78.39,336.24c.42-7.39-.72-14.76-.29-22.15l-.75.76c6.45-.11,13-1.86,19.38-.5.52.11,1.15-.35.93-.92-2.87-7.66-9.93-12.76-13-20.32l-.73.95c3.15.36,6.22,1.44,9.42.92a.76.76,0,0,0,.53-.93c-2.84-6.95-9.58-11.11-13.38-17.41l-.85,1.11c3,.43,5.63,2.08,8.7,1.78a.76.76,0,0,0,.65-1.13c-1.61-3.43-4.43-5.92-6.93-8.67-1.27-1.39-2.48-2.85-3.79-4.21-.77-.8-2-2.45-3.2-2.67s-2.78,1.92-3.46,2.63c-1.31,1.36-2.52,2.81-3.79,4.2-2.5,2.75-5.32,5.24-6.93,8.67a.76.76,0,0,0,.65,1.13c3.07.3,5.74-1.35,8.7-1.78l-.85-1.11c-3.8,6.31-10.54,10.47-13.38,17.42a.75.75,0,0,0,.53.92c3.2.52,6.27-.56,9.42-.92l-.73-.95c-3,7.56-10.08,12.66-13,20.32-.22.58.41,1,.93.93,6.42-1.37,12.93.39,19.38.49l-.75-.75c.43,7.38-.71,14.75-.29,22.14a.76.76,0,0,0,.76.75,44.88,44.88,0,0,1,5.18.22.76.76,0,0,0,0-1.51,42.74,42.74,0,0,0-5.18-.21l.75.75c-.42-7.39.72-14.76.29-22.14a.78.78,0,0,0-.76-.76c-6.61-.1-13.2-1.84-19.78-.44l.92.93c2.86-7.63,9.93-12.75,12.95-20.32a.75.75,0,0,0-.72-.95c-3,.34-6,1.46-9,1l.53.93c2.76-6.77,9.51-10.9,13.22-17.06.38-.62-.24-1.19-.85-1.11-2.82.42-5.38,2-8.3,1.74l.65,1.13c1.47-3.13,4-5.45,6.31-7.94,1.14-1.23,2.22-2.51,3.35-3.74.53-.59,1.08-1.17,1.65-1.72.27-.26.54-.51.82-.75s1-.54.42-.63c.48.07,1.28,1.08,1.64,1.43.57.55,1.12,1.13,1.65,1.71,1.09,1.19,2.13,2.43,3.22,3.61,2.35,2.55,4.94,4.88,6.44,8.08L88.4,278c-2.92.28-5.48-1.32-8.3-1.73a.76.76,0,0,0-.85,1.11c3.71,6.16,10.46,10.29,13.22,17.05l.53-.92c-3,.48-6-.64-9-1a.76.76,0,0,0-.72,1c3,7.57,10.09,12.69,12.95,20.32l.92-.93c-6.58-1.4-13.17.33-19.78.44a.78.78,0,0,0-.76.75c-.43,7.39.71,14.76.29,22.15,0,1,1.45,1,1.51,0Z" style="fill:#e8ede7"/><path d="M302.63,186.24c.45-7.26-.75-14.78-.28-22.15,6.3-.06,13.22-1.89,19.58-.46-2.64-7.29-10.14-13.07-12.95-20.32,2.88.29,6.36,1.48,9.22.94-2.52-6.39-9.79-11.28-13.3-17.23,2.8.34,5.5,2.15,8.5,1.76-1.14-2.55-3.56-5.21-5.55-7.18-2.38-2.37-5.19-6.19-7.78-8l-.14,0c-2.59,1.78-5.4,5.61-7.78,8a27.07,27.07,0,0,0-5.55,7.18c3,.39,5.7-1.42,8.5-1.76-3.51,5.95-10.78,10.84-13.3,17.24,2.86.54,6.34-.66,9.22-1-2.81,7.25-10.31,13-12.95,20.32,6.36-1.43,13.28.4,19.58.47.47,7.36-.73,14.89-.28,22.14a47.34,47.34,0,0,1,5.18.22" style="fill:#e8ede7"/><path d="M303.39,186.24c.42-7.39-.72-14.76-.29-22.15l-.75.76c6.45-.11,13-1.86,19.38-.5.52.11,1.15-.35.93-.92-2.87-7.66-9.93-12.76-13-20.32l-.73.95c3.15.36,6.22,1.44,9.42.92a.76.76,0,0,0,.53-.93c-2.84-7-9.58-11.11-13.38-17.41l-.85,1.11c3,.43,5.63,2.08,8.7,1.78a.76.76,0,0,0,.65-1.13c-1.61-3.43-4.43-5.92-6.93-8.67-1.27-1.39-2.48-2.85-3.79-4.21-.77-.8-2-2.45-3.2-2.67s-2.78,1.92-3.46,2.63c-1.31,1.36-2.52,2.81-3.79,4.2-2.5,2.75-5.32,5.24-6.93,8.67a.76.76,0,0,0,.65,1.13c3.07.3,5.74-1.35,8.7-1.78l-.85-1.11c-3.8,6.31-10.54,10.47-13.38,17.42a.75.75,0,0,0,.53.92c3.2.52,6.27-.56,9.42-.92l-.73-.95c-3,7.56-10.08,12.66-13,20.32-.22.58.41,1,.93.93,6.42-1.37,12.93.39,19.38.49l-.75-.75c.43,7.38-.71,14.75-.29,22.14a.76.76,0,0,0,.76.75,44.88,44.88,0,0,1,5.18.22.76.76,0,0,0,0-1.51,42.74,42.74,0,0,0-5.18-.21l.75.75c-.42-7.39.72-14.76.29-22.14a.78.78,0,0,0-.76-.76c-6.61-.1-13.2-1.84-19.78-.44l.92.93c2.86-7.63,9.93-12.75,12.95-20.32a.75.75,0,0,0-.72-1c-3,.34-6,1.46-9,1l.53.93c2.76-6.77,9.51-10.9,13.22-17.06.38-.62-.24-1.19-.85-1.11-2.82.42-5.38,2-8.3,1.74l.65,1.13c1.47-3.13,4-5.45,6.31-7.94,1.14-1.23,2.22-2.51,3.35-3.74.53-.59,1.08-1.17,1.65-1.72.27-.26.54-.51.82-.75s1-.54.42-.63c.48.07,1.28,1.08,1.64,1.43.57.55,1.12,1.13,1.65,1.71,1.09,1.19,2.13,2.43,3.22,3.61,2.35,2.55,4.94,4.88,6.44,8.08l.65-1.14c-2.92.28-5.48-1.32-8.3-1.73a.76.76,0,0,0-.85,1.11c3.71,6.16,10.46,10.29,13.22,17l.53-.92c-3,.48-6.05-.64-9-1a.76.76,0,0,0-.72,1c3,7.57,10.09,12.69,12.95,20.32l.92-.93c-6.58-1.4-13.17.33-19.78.44a.78.78,0,0,0-.76.75c-.43,7.39.71,14.76.29,22.15-.05,1,1.45,1,1.51,0Z" style="fill:#e8ede7"/><path d="M152.63,186.24c.45-7.26-.75-14.78-.28-22.15,6.3-.06,13.22-1.89,19.58-.46-2.64-7.29-10.14-13.07-13-20.32,2.88.29,6.36,1.48,9.22.94-2.52-6.39-9.79-11.28-13.3-17.23,2.8.34,5.5,2.15,8.5,1.76-1.14-2.55-3.56-5.21-5.55-7.18-2.38-2.37-5.19-6.19-7.78-8l-.14,0c-2.59,1.78-5.4,5.61-7.78,8a27.07,27.07,0,0,0-5.55,7.18c3,.39,5.7-1.42,8.5-1.76-3.51,5.95-10.78,10.84-13.3,17.24,2.86.54,6.34-.66,9.22-1-2.81,7.25-10.31,13-13,20.32,6.36-1.43,13.28.4,19.58.47.47,7.36-.73,14.89-.28,22.14a47.34,47.34,0,0,1,5.18.22" style="fill:#e8ede7"/><path d="M153.39,186.24c.42-7.39-.72-14.76-.29-22.15l-.75.76c6.45-.11,13-1.86,19.38-.5.52.11,1.15-.35.93-.92-2.87-7.66-9.93-12.76-12.95-20.32l-.73.95c3.15.36,6.22,1.44,9.42.92a.76.76,0,0,0,.53-.93c-2.84-7-9.58-11.11-13.38-17.41l-.85,1.11c3,.43,5.63,2.08,8.7,1.78a.76.76,0,0,0,.65-1.13c-1.61-3.43-4.43-5.92-6.93-8.67-1.27-1.39-2.48-2.85-3.79-4.21-.77-.8-2-2.45-3.2-2.67s-2.78,1.92-3.46,2.63c-1.31,1.36-2.52,2.81-3.79,4.2-2.5,2.75-5.32,5.24-6.93,8.67a.76.76,0,0,0,.65,1.13c3.07.3,5.74-1.35,8.7-1.78l-.85-1.11c-3.8,6.31-10.54,10.47-13.38,17.42a.75.75,0,0,0,.53.92c3.2.52,6.27-.56,9.42-.92l-.73-.95c-3,7.56-10.08,12.66-12.95,20.32-.22.58.41,1,.93.93,6.42-1.37,12.93.39,19.38.49l-.75-.75c.43,7.38-.71,14.75-.29,22.14a.76.76,0,0,0,.76.75,44.88,44.88,0,0,1,5.18.22.76.76,0,0,0,0-1.51,42.74,42.74,0,0,0-5.18-.21l.75.75c-.42-7.39.72-14.76.29-22.14a.78.78,0,0,0-.76-.76c-6.61-.1-13.2-1.84-19.78-.44l.92.93c2.86-7.63,9.93-12.75,13-20.32a.75.75,0,0,0-.72-1c-3,.34-6,1.46-9,1l.53.93c2.76-6.77,9.51-10.9,13.22-17.06.38-.62-.24-1.19-.85-1.11-2.82.42-5.38,2-8.3,1.74l.65,1.13c1.47-3.13,4-5.45,6.31-7.94,1.14-1.23,2.22-2.51,3.35-3.74.53-.59,1.08-1.17,1.65-1.72.27-.26.54-.51.82-.75s1-.54.42-.63c.48.07,1.28,1.08,1.64,1.43.57.55,1.12,1.13,1.65,1.71,1.09,1.19,2.13,2.43,3.22,3.61,2.35,2.55,4.94,4.88,6.44,8.08l.65-1.14c-2.92.28-5.48-1.32-8.3-1.73a.76.76,0,0,0-.85,1.11c3.71,6.16,10.46,10.29,13.22,17l.53-.92c-3,.48-6.05-.64-9-1a.76.76,0,0,0-.72,1c3,7.57,10.09,12.69,13,20.32l.92-.93c-6.58-1.4-13.17.33-19.78.44a.78.78,0,0,0-.76.75c-.43,7.39.71,14.76.29,22.15,0,1,1.45,1,1.51,0Z" style="fill:#e8ede7"/><path d="M2.63,186.24c.45-7.26-.75-14.78-.28-22.15,6.3-.06,13.22-1.89,19.58-.46C19.29,156.34,11.79,150.56,9,143.31c2.88.29,6.36,1.48,9.22.94C15.68,137.86,8.41,133,4.9,127c2.8.34,5.5,2.15,8.5,1.76-1.14-2.55-3.56-5.21-5.55-7.18-2.38-2.37-5.19-6.19-7.78-8l-.14,0c-2.59,1.78-5.4,5.61-7.78,8a27.07,27.07,0,0,0-5.55,7.18c3,.39,5.7-1.42,8.5-1.76-3.51,5.95-10.78,10.84-13.3,17.24,2.86.54,6.34-.66,9.22-1-2.81,7.25-10.31,13-12.95,20.32,6.36-1.43,13.28.4,19.58.47.47,7.36-.73,14.89-.28,22.14a47.34,47.34,0,0,1,5.18.22" style="fill:#e8ede7"/><path d="M3.39,186.24c.42-7.39-.72-14.76-.29-22.15l-.75.76c6.45-.11,13-1.86,19.38-.5.52.11,1.15-.35.93-.92-2.87-7.66-9.93-12.76-12.95-20.32l-.73.95c3.15.36,6.22,1.44,9.42.92a.76.76,0,0,0,.53-.93c-2.84-7-9.58-11.11-13.38-17.41l-.85,1.11c3,.43,5.63,2.08,8.7,1.78a.76.76,0,0,0,.65-1.13c-1.61-3.43-4.43-5.92-6.93-8.67-1.27-1.39-2.48-2.85-3.79-4.21-.77-.8-2-2.45-3.2-2.67s-2.78,1.92-3.46,2.63c-1.31,1.36-2.52,2.81-3.79,4.2-2.5,2.75-5.32,5.24-6.93,8.67a.76.76,0,0,0,.65,1.13c3.07.3,5.74-1.35,8.7-1.78l-.85-1.11c-3.8,6.31-10.54,10.47-13.38,17.42a.75.75,0,0,0,.53.92c3.2.52,6.27-.56,9.42-.92l-.73-.95c-3,7.56-10.08,12.66-12.95,20.32-.22.58.41,1,.93.93,6.42-1.37,12.93.39,19.38.49l-.75-.75c.43,7.38-.71,14.75-.29,22.14a.76.76,0,0,0,.76.75,44.88,44.88,0,0,1,5.18.22.76.76,0,0,0,0-1.51,42.74,42.74,0,0,0-5.18-.21l.75.75c-.42-7.39.72-14.76.29-22.14a.78.78,0,0,0-.76-.76c-6.61-.1-13.2-1.84-19.78-.44l.92.93c2.86-7.63,9.93-12.75,13-20.32a.75.75,0,0,0-.72-1c-3,.34-6,1.46-9,1l.53.93c2.76-6.77,9.51-10.9,13.22-17.06.38-.62-.24-1.19-.85-1.11-2.82.42-5.38,2-8.3,1.74l.65,1.13c1.47-3.13,4-5.45,6.31-7.94,1.14-1.23,2.22-2.51,3.35-3.74.53-.59,1.08-1.17,1.65-1.72.27-.26.54-.51.82-.75s1-.54.42-.63c.48.07,1.28,1.08,1.64,1.43.57.55,1.12,1.13,1.65,1.71,1.09,1.19,2.13,2.43,3.22,3.61,2.35,2.55,4.94,4.88,6.44,8.08L13.4,128c-2.92.28-5.48-1.32-8.3-1.73a.76.76,0,0,0-.85,1.11c3.71,6.16,10.46,10.29,13.22,17l.53-.92c-3,.48-6.05-.64-9-1a.76.76,0,0,0-.72,1c3,7.57,10.09,12.69,13,20.32l.92-.93c-6.58-1.4-13.17.33-19.78.44a.78.78,0,0,0-.76.75c-.43,7.39.71,14.76.29,22.15,0,1,1.45,1,1.51,0Z" style="fill:#e8ede7"/><path d="M227.63,36.24c.45-7.26-.75-14.78-.28-22.15,6.3-.06,13.22-1.89,19.58-.46C244.29,6.34,236.79.56,234-6.69c2.88.29,6.36,1.48,9.22.94C240.68-12.14,233.41-17,229.9-23c2.8.34,5.5,2.15,8.5,1.76-1.14-2.55-3.56-5.21-5.55-7.18-2.38-2.37-5.19-6.19-7.78-8l-.14-.05c-2.59,1.78-5.4,5.61-7.78,8a27.07,27.07,0,0,0-5.55,7.18c3,.39,5.7-1.42,8.5-1.76-3.51,6-10.78,10.84-13.3,17.24,2.86.54,6.34-.66,9.22-1-2.81,7.25-10.31,13-13,20.32,6.36-1.43,13.28.4,19.58.47.47,7.36-.73,14.89-.28,22.14a47.34,47.34,0,0,1,5.18.22" style="fill:#e8ede7"/><path d="M228.39,36.24c.42-7.39-.72-14.76-.29-22.15l-.75.76c6.45-.11,13-1.86,19.38-.5.52.11,1.15-.35.93-.92C244.79,5.77,237.73.67,234.71-6.89l-.73.95c3.15.36,6.22,1.44,9.42.92a.76.76,0,0,0,.53-.93c-2.84-6.95-9.58-11.11-13.38-17.41l-.85,1.11c3,.43,5.63,2.08,8.7,1.78a.76.76,0,0,0,.65-1.13c-1.61-3.43-4.43-5.92-6.93-8.67-1.27-1.39-2.48-2.85-3.79-4.21-.77-.8-2-2.45-3.2-2.67s-2.78,1.92-3.46,2.63c-1.31,1.36-2.52,2.81-3.79,4.2-2.5,2.75-5.32,5.24-6.93,8.67a.76.76,0,0,0,.65,1.13c3.07.3,5.74-1.35,8.7-1.78l-.85-1.11C215.65-17.1,208.91-12.94,206.07-6a.75.75,0,0,0,.53.92c3.2.52,6.27-.56,9.42-.92l-.73-1c-3,7.56-10.08,12.66-12.95,20.32-.22.58.41,1,.93.93,6.42-1.37,12.93.39,19.38.49l-.75-.75c.43,7.38-.71,14.75-.29,22.14a.76.76,0,0,0,.76.75,44.88,44.88,0,0,1,5.18.22.76.76,0,0,0,0-1.51,42.74,42.74,0,0,0-5.18-.21l.75.75c-.42-7.39.72-14.76.29-22.14a.78.78,0,0,0-.76-.76c-6.61-.1-13.2-1.84-19.78-.44l.92.93c2.86-7.63,9.93-12.75,13-20.32a.75.75,0,0,0-.72-1c-3,.34-6,1.46-9,1l.53.93c2.76-6.77,9.51-10.9,13.22-17.06.38-.62-.24-1.19-.85-1.11-2.82.42-5.38,2-8.3,1.74l.65,1.13c1.47-3.13,4-5.45,6.31-7.94,1.14-1.23,2.22-2.51,3.35-3.74.53-.59,1.08-1.17,1.65-1.72.27-.26.54-.51.82-.75s1-.54.42-.63c.48.07,1.28,1.08,1.64,1.43.57.55,1.12,1.13,1.65,1.71,1.09,1.19,2.13,2.43,3.22,3.61,2.35,2.55,4.94,4.88,6.44,8.08L238.4-22c-2.92.28-5.48-1.32-8.3-1.73a.76.76,0,0,0-.85,1.11c3.71,6.16,10.46,10.29,13.22,17.05l.53-.92c-3,.48-6.05-.64-9-1a.76.76,0,0,0-.72,1c3,7.57,10.09,12.69,13,20.32l.92-.93c-6.58-1.4-13.17.33-19.78.44a.78.78,0,0,0-.76.75c-.43,7.39.71,14.76.29,22.15,0,1,1.45,1,1.51,0Z" style="fill:#e8ede7"/><path d="M77.63,36.24c.45-7.26-.75-14.78-.28-22.15,6.3-.06,13.22-1.89,19.58-.46C94.29,6.34,86.79.56,84-6.69c2.88.29,6.36,1.48,9.22.94C90.68-12.14,83.41-17,79.9-23c2.8.34,5.5,2.15,8.5,1.76-1.14-2.55-3.56-5.21-5.55-7.18-2.38-2.37-5.19-6.19-7.78-8l-.14-.05c-2.59,1.78-5.4,5.61-7.78,8a27.07,27.07,0,0,0-5.55,7.18c3,.39,5.7-1.42,8.5-1.76-3.51,6-10.78,10.84-13.3,17.24,2.86.54,6.34-.66,9.22-1C63.21.51,55.71,6.29,53.07,13.58c6.36-1.43,13.28.4,19.58.47.47,7.36-.73,14.89-.28,22.14a47.34,47.34,0,0,1,5.18.22" style="fill:#e8ede7"/><path d="M78.39,36.24c.42-7.39-.72-14.76-.29-22.15l-.75.76c6.45-.11,13-1.86,19.38-.5.52.11,1.15-.35.93-.92C94.79,5.77,87.73.67,84.71-6.89L84-5.94c3.15.36,6.22,1.44,9.42.92a.76.76,0,0,0,.53-.93c-2.84-6.95-9.58-11.11-13.38-17.41l-.85,1.11c3,.43,5.63,2.08,8.7,1.78a.76.76,0,0,0,.65-1.13c-1.61-3.43-4.43-5.92-6.93-8.67-1.27-1.39-2.48-2.85-3.79-4.21-.77-.8-2-2.45-3.2-2.67s-2.78,1.92-3.46,2.63c-1.31,1.36-2.52,2.81-3.79,4.2-2.5,2.75-5.32,5.24-6.93,8.67a.76.76,0,0,0,.65,1.13c3.07.3,5.74-1.35,8.7-1.78l-.85-1.11C65.65-17.1,58.91-12.94,56.07-6a.75.75,0,0,0,.53.92c3.2.52,6.27-.56,9.42-.92l-.73-1c-3,7.56-10.08,12.66-13,20.32-.22.58.41,1,.93.93,6.42-1.37,12.93.39,19.38.49l-.75-.75c.43,7.38-.71,14.75-.29,22.14a.76.76,0,0,0,.76.75,44.88,44.88,0,0,1,5.18.22.76.76,0,0,0,0-1.51,42.74,42.74,0,0,0-5.18-.21l.75.75c-.42-7.39.72-14.76.29-22.14a.78.78,0,0,0-.76-.76c-6.61-.1-13.2-1.84-19.78-.44l.92.93C56.65,6.15,63.72,1,66.74-6.54a.75.75,0,0,0-.72-1c-3,.34-6,1.46-9,1l.53.93c2.76-6.77,9.51-10.9,13.22-17.06.38-.62-.24-1.19-.85-1.11-2.82.42-5.38,2-8.3,1.74l.65,1.13c1.47-3.13,4-5.45,6.31-7.94,1.14-1.23,2.22-2.51,3.35-3.74.53-.59,1.08-1.17,1.65-1.72.27-.26.54-.51.82-.75s1-.54.42-.63c.48.07,1.28,1.08,1.64,1.43.57.55,1.12,1.13,1.65,1.71,1.09,1.19,2.13,2.43,3.22,3.61,2.35,2.55,4.94,4.88,6.44,8.08L88.4-22c-2.92.28-5.48-1.32-8.3-1.73a.76.76,0,0,0-.85,1.11C83-16.44,89.71-12.31,92.47-5.55L93-6.47c-3,.48-6-.64-9-1a.76.76,0,0,0-.72,1c3,7.57,10.09,12.69,12.95,20.32l.92-.93c-6.58-1.4-13.17.33-19.78.44a.78.78,0,0,0-.76.75c-.43,7.39.71,14.76.29,22.15,0,1,1.45,1,1.51,0Z" style="fill:#e8ede7"/></pattern></defs><rect x="0.04" y="0.58" width="599.5" height="599.5" style="fill:#bcc9b8"/><g style="clip-path:url(#clip-path)"><rect x="-216.96" y="-181.42" width="553" height="553" style="fill:#bcc9b8"/><rect x="233.04" y="-181.42" width="553" height="553" style="fill:#bcc9b8"/><rect x="-216.96" y="117.58" width="553" height="553" style="fill:#bcc9b8"/><rect x="233.04" y="117.58" width="553" height="553" style="fill:#bcc9b8"/></g><g style="clip-path:url(#clip-path-2)"><rect x="-216.96" y="-181.42" width="553" height="553" style="fill:url(#medium_0_forest)"/><rect x="233.04" y="-181.42" width="553" height="553" style="fill:url(#medium_0_forest-3)"/><rect x="-216.96" y="117.58" width="553" height="553" style="fill:url(#medium_0_forest-5)"/><rect x="233.04" y="117.58" width="553" height="553" style="fill:url(#medium_0_forest-7)"/></g><rect x="0.25" y="0.25" width="599.5" height="599.5" style="fill:none;stroke:#000;stroke-miterlimit:10;stroke-width:0.5020938023450586px"/></svg>