<svg id="Layer_1" data-name="Layer 1" xmlns="http://www.w3.org/2000/svg" xmlns:xlink="http://www.w3.org/1999/xlink" viewBox="0 0 600 600"><defs><clipPath id="clip-path"><rect x="-5.31" y="-694.21" width="599.5" height="599.5" style="fill:none"/></clipPath><pattern id="camas_3" data-name="camas 3" width="300" height="300" patternTransform="translate(117.55 126.97)" patternUnits="userSpaceOnUse" viewBox="0 0 300 300"><rect width="300" height="300" style="fill:none"/><path d="M225.26,275.39c-1-1.74-2.7-4.82-4.35-6.15s-3.4-1.88-4.59-3.54c-.42,1,1.11,4.43,1.74,5.46.92,1.51,4,4.48,5.81,5.13a22.27,22.27,0,0,0-14.3,1.63c1.8,1.51,5,1.53,6.85,1.67,2.09.17,5-.7,6.88-1.35-1.77,1.31-4.29,3.32-4.82,5.23-.58,2.09-.73,4.25-1.32,6.35,4.7-2.77,7.57-6.37,8.1-11.05,1.1,1.68,1.16,4.67,2.89,5.91s3.59,2.16,4.89,3.75c.36-1-.45-5.24-1.14-6.24-1-1.46-2.16-3.09-4-3.64,5.65.71,7.29-2.24,11.83-4.59-1.88-1.41-6-.56-7.79.15s-3.47,2-5.31,2.71c1.68-1.4,2.61-4.55,3-6.48.44-2.11.45-4.28.91-6.41C226.08,266.94,225.49,270.68,225.26,275.39Z" style="fill:#d18b6b"/><path d="M225.61,275.18a31.6,31.6,0,0,0-3.52-5.34c-1.58-1.8-4-2.52-5.49-4.42-.19-.25-.59-.08-.67.18a5.15,5.15,0,0,0,.53,3.07,14.52,14.52,0,0,0,1.43,3,14.36,14.36,0,0,0,5.87,5l.22-.77a24.5,24.5,0,0,0-14.61,1.68c-.31.14-.21.53,0,.69,1.84,1.42,4.29,1.54,6.52,1.69a19.37,19.37,0,0,0,7.51-1.33l-.31-.74a16.19,16.19,0,0,0-4.51,4.37c-1.26,2.16-1.17,5.08-1.8,7.45a.4.4,0,0,0,.58.46c4.31-2.59,7.65-6.28,8.3-11.4l-.75.2c1,1.67,1.07,3.81,2.31,5.36a9.58,9.58,0,0,0,2.32,1.77,14.74,14.74,0,0,1,3.22,2.61.4.4,0,0,0,.67-.17c.46-1.69-.2-4.1-.78-5.68a8.26,8.26,0,0,0-4.61-4.7l-.11.79a10.61,10.61,0,0,0,6.27-1.06c2-1.06,3.76-2.52,5.77-3.58a.41.41,0,0,0,0-.69c-1.78-1.2-4.24-.9-6.22-.46-2.68.6-4.81,2.25-7.29,3.31l.49.63c3.54-3.17,3.18-8.84,4-13.07.06-.31-.28-.66-.59-.45a11.56,11.56,0,0,0-4.34,5.05,20.13,20.13,0,0,0-1.19,6.76c0,.51.77.51.8,0a20.41,20.41,0,0,1,.94-6,10.69,10.69,0,0,1,4.19-5.15l-.58-.45c-.82,4.07-.42,9.66-3.83,12.71-.37.33.1.8.49.63,2.21-.94,4.13-2.45,6.48-3.07,1.91-.51,4.47-.95,6.21.22v-.69c-1.83,1-3.46,2.25-5.24,3.29a10,10,0,0,1-6.39,1.24c-.47-.06-.5.64-.1.78a7.51,7.51,0,0,1,4.21,4.62c.41,1.37,1,3.35.61,4.77l.67-.17a12.31,12.31,0,0,0-2.4-2.1A17.77,17.77,0,0,1,228,284c-1.36-1.45-1.36-3.77-2.38-5.44a.4.4,0,0,0-.74.21c-.61,4.82-3.87,8.29-7.9,10.71l.59.45c.59-2.23.55-4.89,1.57-7,.88-1.82,2.8-3.19,4.38-4.37.33-.24.16-.89-.31-.73a18.29,18.29,0,0,1-7,1.32c-2.18-.13-4.59-.2-6.39-1.59v.69a23.65,23.65,0,0,1,14-1.6.4.4,0,0,0,.22-.77,13.6,13.6,0,0,1-5.4-4.67,12.73,12.73,0,0,1-1.23-2.48c-.33-.82-.92-2.06-.65-2.94L216,266c1.42,1.83,3.7,2.51,5.26,4.17a27.57,27.57,0,0,1,3.61,5.43A.41.41,0,0,0,225.61,275.18Z" style="fill:#d18b6b"/><path d="M226.17,275.87c-.32.68.11,3.31.05,4.15-.07,1.06-.21,2.1-.28,3.19a33.14,33.14,0,0,0-.12,4.8c.14,2.14-.3,4.25-.27,6.35,0,1.91.34,3.85.31,5.76s.12,2.82.22,4.63l.09,2c.3,2.69-.86,4.36,1.1,6.6A26.48,26.48,0,0,0,230.4,316a26.32,26.32,0,0,1,3.15,3.18c3.67,4.29,2.83,11.79-1.9,14.93-2.51,1.67-4.32,2.31-7.26,1.87a7.6,7.6,0,0,1-3.37-1.2,24.87,24.87,0,0,1-3-2.6c-1.23-1.37-2.23-5.21-2.21-7.16,0-2.64,2-5.16,3.7-6.76s4.23-3.63,4.78-6.37a41,41,0,0,0,.6-5.65v-.25c0-.71,0-1.64,0-3.06,0-1.23.23-2.5.18-3.73a69.29,69.29,0,0,1,.36-13.36c.51-3.28.52-6.58.73-9.88" style="fill:#d18b6b"/><path d="M225.79,275.76c-.48,1.39.1,3.05,0,4.48-.15,2.61-.48,5.15-.39,7.77s-.37,5.33-.18,8c.18,2.49.18,5,.36,7.48.09,1.27.16,2.55.22,3.83.07,1.68-.44,3.41.29,5,.92,2,3.1,3,4.66,4.44a13.61,13.61,0,0,1,4.18,5.69,10.24,10.24,0,0,1-2.83,10.73,9.75,9.75,0,0,1-6.16,2.44,10.53,10.53,0,0,1-3.39-.57,10.82,10.82,0,0,1-3.13-2.12c-3.2-2.72-4.26-8.15-2-11.74,1.24-2,3.09-3.33,4.67-5a9.44,9.44,0,0,0,2.69-5.23,44,44,0,0,0,.45-7.25c0-1.47.18-2.92.18-4.38s-.12-3.21-.14-4.81a61,61,0,0,1,.56-9.25c.44-3.12.47-6.27.66-9.41,0-.51-.77-.51-.8,0-.18,3-.21,6-.59,8.94a64.33,64.33,0,0,0-.64,8.54c0,5.21.23,10.44-.25,15.64a11.35,11.35,0,0,1-1,4.35,12.34,12.34,0,0,1-2.5,3.08,21.69,21.69,0,0,0-4.33,4.89,8.17,8.17,0,0,0-.85,5.71,12.08,12.08,0,0,0,1.93,5.14c2.48,3.19,6.79,5.07,10.77,4a10.8,10.8,0,0,0,7.59-7.65,11.07,11.07,0,0,0-2.49-10.18,23.64,23.64,0,0,0-2.86-2.8,21.71,21.71,0,0,1-3-2.43c-1.59-1.82-.86-4.16-1-6.34-.09-1.68-.21-3.36-.28-5a79.57,79.57,0,0,1-.24-9.64c.24-3.12.06-6.23.32-9.36a23.21,23.21,0,0,0,.22-3.63,8.45,8.45,0,0,1,0-3.13c.17-.49-.61-.7-.77-.22Z" style="fill:#d18b6b"/><path d="M226.28,308.86c-.24-.85.42-2.14.73-3a37.31,37.31,0,0,1,2.71-5.83,38.23,38.23,0,0,1,5.5-7.9c1.25-1.32,3.37-3.5,5.19-4.33-1.35,1.76-2.45,3.7-3.67,5.5-1.44,2.13-3.39,4.05-4.83,6.17-2.26,3.32-4.27,5.93-5.71,9.43" style="fill:#d18b6b"/><path d="M226.67,308.75a5.69,5.69,0,0,1,.72-2.79c.41-1.08.84-2.14,1.34-3.18A55.56,55.56,0,0,1,232,297a31.72,31.72,0,0,1,4-5.12,16.82,16.82,0,0,1,4.55-3.68l-.55-.55c-1.33,1.77-2.42,3.68-3.67,5.5s-2.75,3.39-4.07,5.12a49.39,49.39,0,0,0-6.51,10.57c-.2.48.58.69.77.22a33.86,33.86,0,0,1,3-5.44c1.23-1.85,2.45-3.73,3.83-5.45,1.23-1.54,2.56-3,3.67-4.61,1.25-1.83,2.34-3.74,3.67-5.51.26-.35-.23-.7-.55-.54a17.62,17.62,0,0,0-4.71,3.81,33.65,33.65,0,0,0-4.36,5.58,53.37,53.37,0,0,0-3.57,6.56c-.43,1-.8,2-1.19,3a4.57,4.57,0,0,0-.47,2.56c.09.51.86.3.77-.21Z" style="fill:#d18b6b"/><path d="M225.6,312.15c-.8-3.26-3.88-7.64-6-10.51s-4.68-6.28-8.92-7.13c.55,1.46,3.35,2.9,4.54,4.15,1.47,1.53,2.3,3.32,3.69,4.88,2.42,2.75,4,6.09,6.53,8.66" style="fill:#d18b6b"/><path d="M226,312.05c-1-4-3.76-7.54-6.15-10.81s-5-6.25-9-7.12a.41.41,0,0,0-.45.59c.6,1.39,2.14,2.27,3.31,3.14a19.89,19.89,0,0,1,4,4.69c1.21,1.69,2.58,3.24,3.74,5a34.11,34.11,0,0,0,3.81,5c.36.37.93-.2.57-.57a33.68,33.68,0,0,1-3.85-5.05c-1.17-1.73-2.56-3.27-3.76-5a18.84,18.84,0,0,0-3.42-4.22c-1.22-1-3-1.86-3.68-3.36l-.45.59c4,.87,6.53,4,8.82,7.14s4.81,6.47,5.78,10.23a.4.4,0,0,0,.78-.21Z" style="fill:#d18b6b"/><path d="M75.26,275.39c-1-1.74-2.7-4.82-4.35-6.15s-3.4-1.88-4.59-3.54c-.42,1,1.11,4.43,1.74,5.46.92,1.51,4,4.48,5.81,5.13a22.27,22.27,0,0,0-14.3,1.63c1.8,1.51,5,1.53,6.85,1.67,2.09.17,5-.7,6.88-1.35-1.77,1.31-4.29,3.32-4.82,5.23-.58,2.09-.73,4.25-1.32,6.35,4.7-2.77,7.57-6.37,8.1-11.05,1.1,1.68,1.16,4.67,2.89,5.91s3.59,2.16,4.89,3.75c.36-1-.45-5.24-1.14-6.24-1-1.46-2.16-3.09-4-3.64,5.65.71,7.29-2.24,11.83-4.59-1.88-1.41-6-.56-7.79.15s-3.47,2-5.31,2.71c1.68-1.4,2.61-4.55,3-6.48.44-2.11.45-4.28.91-6.41C76.08,266.94,75.49,270.68,75.26,275.39Z" style="fill:#d18b6b"/><path d="M75.61,275.18a31.6,31.6,0,0,0-3.52-5.34c-1.58-1.8-4-2.52-5.49-4.42-.19-.25-.59-.08-.67.18a5.15,5.15,0,0,0,.53,3.07,14.52,14.52,0,0,0,1.43,3,14.36,14.36,0,0,0,5.87,5l.22-.77a24.5,24.5,0,0,0-14.61,1.68c-.31.14-.21.53,0,.69,1.84,1.42,4.29,1.54,6.52,1.69a19.37,19.37,0,0,0,7.51-1.33l-.31-.74a16.19,16.19,0,0,0-4.51,4.37c-1.26,2.16-1.17,5.08-1.8,7.45a.4.4,0,0,0,.58.46c4.31-2.59,7.65-6.28,8.3-11.4l-.75.2c1,1.67,1.07,3.81,2.31,5.36a9.58,9.58,0,0,0,2.32,1.77,14.74,14.74,0,0,1,3.22,2.61.4.4,0,0,0,.67-.17c.46-1.69-.2-4.1-.78-5.68a8.26,8.26,0,0,0-4.61-4.7l-.11.79a10.61,10.61,0,0,0,6.27-1.06c2-1.06,3.76-2.52,5.77-3.58a.41.41,0,0,0,0-.69c-1.78-1.2-4.24-.9-6.22-.46-2.68.6-4.81,2.25-7.29,3.31l.49.63c3.54-3.17,3.18-8.84,4-13.07.06-.31-.28-.66-.59-.45a11.56,11.56,0,0,0-4.34,5.05,20.13,20.13,0,0,0-1.19,6.76c0,.51.77.51.8,0a20.41,20.41,0,0,1,.94-6,10.69,10.69,0,0,1,4.19-5.15l-.58-.45c-.82,4.07-.42,9.66-3.83,12.71-.37.33.1.8.49.63,2.21-.94,4.13-2.45,6.48-3.07,1.91-.51,4.47-.95,6.21.22v-.69c-1.83,1-3.46,2.25-5.24,3.29a10,10,0,0,1-6.39,1.24c-.47-.06-.5.64-.1.78A7.51,7.51,0,0,1,82,283.55c.41,1.37,1,3.35.61,4.77l.67-.17a12.31,12.31,0,0,0-2.4-2.1A17.77,17.77,0,0,1,78,284c-1.36-1.45-1.36-3.77-2.38-5.44a.4.4,0,0,0-.74.21c-.61,4.82-3.87,8.29-7.9,10.71l.59.45c.59-2.23.55-4.89,1.57-7,.88-1.82,2.8-3.19,4.38-4.37.33-.24.16-.89-.31-.73a18.29,18.29,0,0,1-7,1.32c-2.18-.13-4.59-.2-6.39-1.59v.69a23.65,23.65,0,0,1,14-1.6.4.4,0,0,0,.22-.77,13.6,13.6,0,0,1-5.4-4.67,12.73,12.73,0,0,1-1.23-2.48c-.33-.82-.92-2.06-.65-2.94L66,266c1.42,1.83,3.7,2.51,5.26,4.17a27.57,27.57,0,0,1,3.61,5.43A.41.41,0,0,0,75.61,275.18Z" style="fill:#d18b6b"/><path d="M76.17,275.87c-.32.68.11,3.31,0,4.15-.07,1.06-.21,2.1-.28,3.19a33.14,33.14,0,0,0-.12,4.8c.14,2.14-.3,4.25-.27,6.35,0,1.91.34,3.85.31,5.76s.12,2.82.22,4.63l.09,2c.3,2.69-.86,4.36,1.1,6.6A26.48,26.48,0,0,0,80.4,316a26.32,26.32,0,0,1,3.15,3.18c3.67,4.29,2.83,11.79-1.9,14.93-2.51,1.67-4.32,2.31-7.26,1.87a7.6,7.6,0,0,1-3.37-1.2,24.87,24.87,0,0,1-3-2.6c-1.23-1.37-2.23-5.21-2.21-7.16,0-2.64,2-5.16,3.7-6.76s4.23-3.63,4.78-6.37a41,41,0,0,0,.6-5.65v-.25c0-.71,0-1.64,0-3.06,0-1.23.23-2.5.18-3.73a69.29,69.29,0,0,1,.36-13.36c.51-3.28.52-6.58.73-9.88" style="fill:#d18b6b"/><path d="M75.79,275.76c-.48,1.39.1,3.05,0,4.48-.15,2.61-.48,5.15-.39,7.77s-.37,5.33-.18,8c.18,2.49.18,5,.36,7.48.09,1.27.16,2.55.22,3.83.07,1.68-.44,3.41.29,5,.92,2,3.1,3,4.66,4.44A13.61,13.61,0,0,1,85,322.49a10.24,10.24,0,0,1-2.83,10.73A9.75,9.75,0,0,1,76,335.66a10.53,10.53,0,0,1-3.39-.57A10.82,10.82,0,0,1,69.44,333c-3.2-2.72-4.26-8.15-2-11.74,1.24-2,3.09-3.33,4.67-5A9.44,9.44,0,0,0,74.81,311a44,44,0,0,0,.45-7.25c0-1.47.18-2.92.18-4.38s-.12-3.21-.14-4.81a61,61,0,0,1,.56-9.25c.44-3.12.47-6.27.66-9.41,0-.51-.77-.51-.8,0-.18,3-.21,6-.59,8.94a64.33,64.33,0,0,0-.64,8.54c0,5.21.23,10.44-.25,15.64a11.35,11.35,0,0,1-1,4.35,12.34,12.34,0,0,1-2.5,3.08,21.69,21.69,0,0,0-4.33,4.89,8.17,8.17,0,0,0-.85,5.71,12.08,12.08,0,0,0,1.93,5.14c2.48,3.19,6.79,5.07,10.77,4a10.8,10.8,0,0,0,7.59-7.65,11.07,11.07,0,0,0-2.49-10.18,23.64,23.64,0,0,0-2.86-2.8,21.71,21.71,0,0,1-3-2.43c-1.59-1.82-.86-4.16-1-6.34-.09-1.68-.21-3.36-.28-5a79.57,79.57,0,0,1-.24-9.64c.24-3.12.06-6.23.32-9.36a23.21,23.21,0,0,0,.22-3.63,8.45,8.45,0,0,1,0-3.13c.17-.49-.61-.7-.77-.22Z" style="fill:#d18b6b"/><path d="M76.28,308.86c-.24-.85.42-2.14.73-3A37.31,37.31,0,0,1,79.72,300a38.23,38.23,0,0,1,5.5-7.9c1.25-1.32,3.37-3.5,5.19-4.33-1.35,1.76-2.45,3.7-3.67,5.5-1.44,2.13-3.39,4.05-4.83,6.17-2.26,3.32-4.27,5.93-5.71,9.43" style="fill:#d18b6b"/><path d="M76.67,308.75a5.69,5.69,0,0,1,.72-2.79c.41-1.08.84-2.14,1.34-3.18A55.56,55.56,0,0,1,82,297a31.72,31.72,0,0,1,4-5.12,16.82,16.82,0,0,1,4.55-3.68l-.55-.55c-1.33,1.77-2.42,3.68-3.67,5.5s-2.75,3.39-4.07,5.12a49.39,49.39,0,0,0-6.51,10.57c-.2.48.58.69.77.22a33.86,33.86,0,0,1,3-5.44c1.23-1.85,2.45-3.73,3.83-5.45,1.23-1.54,2.56-3,3.67-4.61,1.25-1.83,2.34-3.74,3.67-5.51.26-.35-.23-.7-.55-.54a17.62,17.62,0,0,0-4.71,3.81,33.65,33.65,0,0,0-4.36,5.58,53.37,53.37,0,0,0-3.57,6.56c-.43,1-.8,2-1.19,3A4.57,4.57,0,0,0,75.9,309c.09.51.86.3.77-.21Z" style="fill:#d18b6b"/><path d="M75.6,312.15c-.8-3.26-3.88-7.64-6-10.51s-4.68-6.28-8.92-7.13c.55,1.46,3.35,2.9,4.54,4.15,1.47,1.53,2.3,3.32,3.69,4.88,2.42,2.75,4,6.09,6.53,8.66" style="fill:#d18b6b"/><path d="M76,312.05c-1-4-3.76-7.54-6.15-10.81s-5-6.25-9-7.12a.41.41,0,0,0-.45.59c.6,1.39,2.14,2.27,3.31,3.14a19.89,19.89,0,0,1,4,4.69c1.21,1.69,2.58,3.24,3.74,5a34.11,34.11,0,0,0,3.81,5c.36.37.93-.2.57-.57a33.68,33.68,0,0,1-3.85-5.05c-1.17-1.73-2.56-3.27-3.76-5a18.84,18.84,0,0,0-3.42-4.22c-1.22-1-3-1.86-3.68-3.36l-.45.59c4,.87,6.53,4,8.82,7.14s4.81,6.47,5.78,10.23a.4.4,0,0,0,.78-.21Z" style="fill:#d18b6b"/><path d="M300.26,125.39c-1-1.74-2.7-4.82-4.35-6.15s-3.4-1.88-4.59-3.54c-.42,1,1.11,4.43,1.74,5.46.92,1.51,4,4.48,5.81,5.13a22.27,22.27,0,0,0-14.3,1.63c1.8,1.51,5,1.53,6.85,1.67,2.09.17,5-.7,6.88-1.35-1.77,1.31-4.29,3.32-4.82,5.23-.58,2.09-.73,4.25-1.32,6.35,4.7-2.77,7.57-6.37,8.1-11,1.1,1.68,1.16,4.67,2.89,5.91s3.59,2.16,4.89,3.75c.36-1-.45-5.24-1.14-6.24-1-1.46-2.16-3.09-4-3.64,5.65.71,7.29-2.24,11.83-4.59-1.88-1.41-6-.56-7.79.15s-3.47,2-5.31,2.71c1.68-1.4,2.61-4.55,3-6.48.44-2.11.45-4.28.91-6.41C301.08,116.94,300.49,120.68,300.26,125.39Z" style="fill:#d18b6b"/><path d="M300.61,125.18a31.6,31.6,0,0,0-3.52-5.34c-1.58-1.8-4-2.52-5.49-4.42-.19-.25-.59-.08-.67.18a5.15,5.15,0,0,0,.53,3.07,14.52,14.52,0,0,0,1.43,3,14.36,14.36,0,0,0,5.87,5l.22-.77a24.5,24.5,0,0,0-14.61,1.68c-.31.14-.21.53,0,.69,1.84,1.42,4.29,1.54,6.52,1.69a19.37,19.37,0,0,0,7.51-1.33l-.31-.74a16.19,16.19,0,0,0-4.51,4.37c-1.26,2.16-1.17,5.08-1.8,7.45a.4.4,0,0,0,.58.46c4.31-2.59,7.65-6.28,8.3-11.4l-.75.2c1,1.67,1.07,3.81,2.31,5.36a9.58,9.58,0,0,0,2.32,1.77,14.74,14.74,0,0,1,3.22,2.61.4.4,0,0,0,.67-.17c.46-1.69-.2-4.1-.78-5.68a8.26,8.26,0,0,0-4.61-4.7l-.11.79a10.61,10.61,0,0,0,6.27-1.06c2-1.06,3.76-2.52,5.77-3.58a.41.41,0,0,0,0-.69c-1.78-1.2-4.24-.9-6.22-.46-2.68.6-4.81,2.25-7.29,3.31l.49.63c3.54-3.17,3.18-8.84,4-13.07.06-.31-.28-.66-.59-.45a11.56,11.56,0,0,0-4.34,5,20.13,20.13,0,0,0-1.19,6.76c0,.51.77.51.8,0a20.41,20.41,0,0,1,.94-6,10.69,10.69,0,0,1,4.19-5.15l-.58-.45c-.82,4.07-.42,9.66-3.83,12.71-.37.33.1.8.49.63,2.21-.94,4.13-2.45,6.48-3.07,1.91-.51,4.47-1,6.21.22v-.69c-1.83,1-3.46,2.25-5.24,3.29a10,10,0,0,1-6.39,1.24c-.47-.06-.5.64-.1.78a7.51,7.51,0,0,1,4.21,4.62c.41,1.37,1,3.35.61,4.77l.67-.17a12.31,12.31,0,0,0-2.4-2.1A17.77,17.77,0,0,1,303,134c-1.36-1.45-1.36-3.77-2.38-5.44a.4.4,0,0,0-.74.21c-.61,4.82-3.87,8.29-7.9,10.71l.59.45c.59-2.23.55-4.89,1.57-7,.88-1.82,2.8-3.19,4.38-4.37.33-.24.16-.89-.31-.73a18.29,18.29,0,0,1-7,1.32c-2.18-.13-4.59-.2-6.39-1.59v.69a23.65,23.65,0,0,1,14-1.6.4.4,0,0,0,.22-.77,13.6,13.6,0,0,1-5.4-4.67,12.73,12.73,0,0,1-1.23-2.48c-.33-.82-.92-2.06-.65-2.94L291,116c1.42,1.83,3.7,2.51,5.26,4.17a27.57,27.57,0,0,1,3.61,5.43A.41.41,0,0,0,300.61,125.18Z" style="fill:#d18b6b"/><path d="M301.17,125.87c-.32.68.11,3.31.05,4.15-.07,1.06-.21,2.1-.28,3.19a33.14,33.14,0,0,0-.12,4.8c.14,2.14-.3,4.25-.27,6.35,0,1.91.34,3.85.31,5.76s.12,2.82.22,4.63l.09,2c.3,2.69-.86,4.36,1.1,6.6A26.48,26.48,0,0,0,305.4,166a26.32,26.32,0,0,1,3.15,3.18c3.67,4.29,2.83,11.79-1.9,14.93-2.51,1.67-4.32,2.31-7.26,1.87a7.6,7.6,0,0,1-3.37-1.2,24.87,24.87,0,0,1-3-2.6c-1.23-1.37-2.23-5.21-2.21-7.16,0-2.64,2-5.16,3.7-6.76s4.23-3.63,4.78-6.37a41,41,0,0,0,.6-5.65v-.25c0-.71,0-1.64,0-3.06,0-1.23.23-2.5.18-3.73a69.29,69.29,0,0,1,.36-13.36c.51-3.28.52-6.58.73-9.88" style="fill:#d18b6b"/><path d="M300.79,125.76c-.48,1.39.1,3,0,4.48-.15,2.61-.48,5.15-.39,7.77s-.37,5.33-.18,8c.18,2.49.18,5,.36,7.48.09,1.27.16,2.55.22,3.83.07,1.68-.44,3.41.29,5,.92,2,3.1,3,4.66,4.44a13.61,13.61,0,0,1,4.18,5.69,10.24,10.24,0,0,1-2.83,10.73,9.75,9.75,0,0,1-6.16,2.44,10.53,10.53,0,0,1-3.39-.57,10.82,10.82,0,0,1-3.13-2.12c-3.2-2.72-4.26-8.15-2-11.74,1.24-2,3.09-3.33,4.67-5a9.44,9.44,0,0,0,2.69-5.23,44,44,0,0,0,.45-7.25c0-1.47.18-2.92.18-4.38s-.12-3.21-.14-4.81a61,61,0,0,1,.56-9.25c.44-3.12.47-6.27.66-9.41,0-.51-.77-.51-.8,0-.18,3-.21,6-.59,8.94a64.33,64.33,0,0,0-.64,8.54c0,5.21.23,10.44-.25,15.64a11.35,11.35,0,0,1-1,4.35,12.34,12.34,0,0,1-2.5,3.08,21.69,21.69,0,0,0-4.33,4.89,8.17,8.17,0,0,0-.85,5.71,12.08,12.08,0,0,0,1.93,5.14c2.48,3.19,6.79,5.07,10.77,4a10.8,10.8,0,0,0,7.59-7.65,11.07,11.07,0,0,0-2.49-10.18,23.64,23.64,0,0,0-2.86-2.8,21.71,21.71,0,0,1-3-2.43c-1.59-1.82-.86-4.16-1-6.34-.09-1.68-.21-3.36-.28-5a79.57,79.57,0,0,1-.24-9.64c.24-3.12.06-6.23.32-9.36a23.21,23.21,0,0,0,.22-3.63,8.45,8.45,0,0,1,0-3.13c.17-.49-.61-.7-.77-.22Z" style="fill:#d18b6b"/><path d="M300.6,162.15c-.8-3.26-3.88-7.64-6-10.51s-4.68-6.28-8.92-7.13c.55,1.46,3.35,2.9,4.54,4.15,1.47,1.53,2.3,3.32,3.69,4.88,2.42,2.75,4,6.09,6.53,8.66" style="fill:#d18b6b"/><path d="M301,162.05c-1-4-3.76-7.54-6.15-10.81s-5-6.25-9-7.12a.41.41,0,0,0-.45.59c.6,1.39,2.14,2.27,3.31,3.14a19.89,19.89,0,0,1,4,4.69c1.21,1.69,2.58,3.24,3.74,5a34.11,34.11,0,0,0,3.81,5c.36.37.93-.2.57-.57a33.68,33.68,0,0,1-3.85-5c-1.17-1.73-2.56-3.27-3.76-5a18.84,18.84,0,0,0-3.42-4.22c-1.22-1-3-1.86-3.68-3.36l-.45.59c4,.87,6.53,4,8.82,7.14s4.81,6.47,5.78,10.23a.4.4,0,0,0,.78-.21Z" style="fill:#d18b6b"/><path d="M150.26,125.39c-1-1.74-2.7-4.82-4.35-6.15s-3.4-1.88-4.59-3.54c-.42,1,1.11,4.43,1.74,5.46.92,1.51,4,4.48,5.81,5.13a22.27,22.27,0,0,0-14.3,1.63c1.8,1.51,5,1.53,6.85,1.67,2.09.17,5-.7,6.88-1.35-1.77,1.31-4.29,3.32-4.82,5.23-.58,2.09-.73,4.25-1.32,6.35,4.7-2.77,7.57-6.37,8.1-11,1.1,1.68,1.16,4.67,2.89,5.91s3.59,2.16,4.89,3.75c.36-1-.45-5.24-1.14-6.24-1-1.46-2.16-3.09-4-3.64,5.65.71,7.29-2.24,11.83-4.59-1.88-1.41-6-.56-7.79.15s-3.47,2-5.31,2.71c1.68-1.4,2.61-4.55,3-6.48.44-2.11.45-4.28.91-6.41C151.08,116.94,150.49,120.68,150.26,125.39Z" style="fill:#d18b6b"/><path d="M150.61,125.18a31.6,31.6,0,0,0-3.52-5.34c-1.58-1.8-4-2.52-5.49-4.42-.19-.25-.59-.08-.67.18a5.15,5.15,0,0,0,.53,3.07,14.52,14.52,0,0,0,1.43,3,14.36,14.36,0,0,0,5.87,5l.22-.77a24.5,24.5,0,0,0-14.61,1.68c-.31.14-.21.53,0,.69,1.84,1.42,4.29,1.54,6.52,1.69a19.37,19.37,0,0,0,7.51-1.33l-.31-.74a16.19,16.19,0,0,0-4.51,4.37c-1.26,2.16-1.17,5.08-1.8,7.45a.4.4,0,0,0,.58.46c4.31-2.59,7.65-6.28,8.3-11.4l-.75.2c1,1.67,1.07,3.81,2.31,5.36a9.58,9.58,0,0,0,2.32,1.77,14.74,14.74,0,0,1,3.22,2.61.4.4,0,0,0,.67-.17c.46-1.69-.2-4.1-.78-5.68a8.26,8.26,0,0,0-4.61-4.7l-.11.79a10.61,10.61,0,0,0,6.27-1.06c2-1.06,3.76-2.52,5.77-3.58a.41.41,0,0,0,0-.69c-1.78-1.2-4.24-.9-6.22-.46-2.68.6-4.81,2.25-7.29,3.31l.49.63c3.54-3.17,3.18-8.84,4-13.07.06-.31-.28-.66-.59-.45a11.56,11.56,0,0,0-4.34,5,20.13,20.13,0,0,0-1.19,6.76c0,.51.77.51.8,0a20.41,20.41,0,0,1,.94-6,10.69,10.69,0,0,1,4.19-5.15l-.58-.45c-.82,4.07-.42,9.66-3.83,12.71-.37.33.1.8.49.63,2.21-.94,4.13-2.45,6.48-3.07,1.91-.51,4.47-1,6.21.22v-.69c-1.83,1-3.46,2.25-5.24,3.29a10,10,0,0,1-6.39,1.24c-.47-.06-.5.64-.1.78a7.51,7.51,0,0,1,4.21,4.62c.41,1.37,1,3.35.61,4.77l.67-.17a12.31,12.31,0,0,0-2.4-2.1A17.77,17.77,0,0,1,153,134c-1.36-1.45-1.36-3.77-2.38-5.44a.4.4,0,0,0-.74.21c-.61,4.82-3.87,8.29-7.9,10.71l.59.45c.59-2.23.55-4.89,1.57-7,.88-1.82,2.8-3.19,4.38-4.37.33-.24.16-.89-.31-.73a18.29,18.29,0,0,1-7,1.32c-2.18-.13-4.59-.2-6.39-1.59v.69a23.65,23.65,0,0,1,14-1.6.4.4,0,0,0,.22-.77,13.6,13.6,0,0,1-5.4-4.67,12.73,12.73,0,0,1-1.23-2.48c-.33-.82-.92-2.06-.65-2.94L141,116c1.42,1.83,3.7,2.51,5.26,4.17a27.57,27.57,0,0,1,3.61,5.43A.41.41,0,0,0,150.61,125.18Z" style="fill:#d18b6b"/><path d="M151.17,125.87c-.32.68.11,3.31.05,4.15-.07,1.06-.21,2.1-.28,3.19a33.14,33.14,0,0,0-.12,4.8c.14,2.14-.3,4.25-.27,6.35,0,1.91.34,3.85.31,5.76s.12,2.82.22,4.63l.09,2c.3,2.69-.86,4.36,1.1,6.6A26.48,26.48,0,0,0,155.4,166a26.32,26.32,0,0,1,3.15,3.18c3.67,4.29,2.83,11.79-1.9,14.93-2.51,1.67-4.32,2.31-7.26,1.87a7.6,7.6,0,0,1-3.37-1.2,24.87,24.87,0,0,1-3-2.6c-1.23-1.37-2.23-5.21-2.21-7.16,0-2.64,2-5.16,3.7-6.76s4.23-3.63,4.78-6.37a41,41,0,0,0,.6-5.65v-.25c0-.71,0-1.64,0-3.06,0-1.23.23-2.5.18-3.73a69.29,69.29,0,0,1,.36-13.36c.51-3.28.52-6.58.73-9.88" style="fill:#d18b6b"/><path d="M150.79,125.76c-.48,1.39.1,3,0,4.48-.15,2.61-.48,5.15-.39,7.77s-.37,5.33-.18,8c.18,2.49.18,5,.36,7.48.09,1.27.16,2.55.22,3.83.07,1.68-.44,3.41.29,5,.92,2,3.1,3,4.66,4.44a13.61,13.61,0,0,1,4.18,5.69,10.24,10.24,0,0,1-2.83,10.73,9.75,9.75,0,0,1-6.16,2.44,10.53,10.53,0,0,1-3.39-.57,10.82,10.82,0,0,1-3.13-2.12c-3.2-2.72-4.26-8.15-2-11.74,1.24-2,3.09-3.33,4.67-5a9.44,9.44,0,0,0,2.69-5.23,44,44,0,0,0,.45-7.25c0-1.47.18-2.92.18-4.38s-.12-3.21-.14-4.81a61,61,0,0,1,.56-9.25c.44-3.12.47-6.27.66-9.41,0-.51-.77-.51-.8,0-.18,3-.21,6-.59,8.94a64.33,64.33,0,0,0-.64,8.54c0,5.21.23,10.44-.25,15.64a11.35,11.35,0,0,1-1,4.35,12.34,12.34,0,0,1-2.5,3.08,21.69,21.69,0,0,0-4.33,4.89,8.17,8.17,0,0,0-.85,5.71,12.08,12.08,0,0,0,1.93,5.14c2.48,3.19,6.79,5.07,10.77,4a10.8,10.8,0,0,0,7.59-7.65,11.07,11.07,0,0,0-2.49-10.18,23.64,23.64,0,0,0-2.86-2.8,21.71,21.71,0,0,1-3-2.43c-1.59-1.82-.86-4.16-1-6.34-.09-1.68-.21-3.36-.28-5a79.57,79.57,0,0,1-.24-9.64c.24-3.12.06-6.23.32-9.36a23.21,23.21,0,0,0,.22-3.63,8.45,8.45,0,0,1,0-3.13c.17-.49-.61-.7-.77-.22Z" style="fill:#d18b6b"/><path d="M151.28,158.86c-.24-.85.42-2.14.73-3a37.31,37.31,0,0,1,2.71-5.83,38.23,38.23,0,0,1,5.5-7.9c1.25-1.32,3.37-3.5,5.19-4.33-1.35,1.76-2.45,3.7-3.67,5.5-1.44,2.13-3.39,4-4.83,6.17-2.26,3.32-4.27,5.93-5.71,9.43" style="fill:#d18b6b"/><path d="M151.67,158.75a5.69,5.69,0,0,1,.72-2.79c.41-1.08.84-2.14,1.34-3.18A55.56,55.56,0,0,1,157,147a31.72,31.72,0,0,1,4-5.12,16.82,16.82,0,0,1,4.55-3.68l-.55-.55c-1.33,1.77-2.42,3.68-3.67,5.5s-2.75,3.39-4.07,5.12a49.39,49.39,0,0,0-6.51,10.57c-.2.48.58.69.77.22a33.86,33.86,0,0,1,3-5.44c1.23-1.85,2.45-3.73,3.83-5.45,1.23-1.54,2.56-3,3.67-4.61,1.25-1.83,2.34-3.74,3.67-5.51.26-.35-.23-.7-.55-.54a17.62,17.62,0,0,0-4.71,3.81,33.65,33.65,0,0,0-4.36,5.58,53.37,53.37,0,0,0-3.57,6.56c-.43,1-.8,2-1.19,3a4.57,4.57,0,0,0-.47,2.56c.09.51.86.3.77-.21Z" style="fill:#d18b6b"/><path d="M150.6,162.15c-.8-3.26-3.88-7.64-6-10.51s-4.68-6.28-8.92-7.13c.55,1.46,3.35,2.9,4.54,4.15,1.47,1.53,2.3,3.32,3.69,4.88,2.42,2.75,4,6.09,6.53,8.66" style="fill:#d18b6b"/><path d="M151,162.05c-1-4-3.76-7.54-6.15-10.81s-5-6.25-9-7.12a.41.41,0,0,0-.45.59c.6,1.39,2.14,2.27,3.31,3.14a19.89,19.89,0,0,1,4,4.69c1.21,1.69,2.58,3.24,3.74,5a34.11,34.11,0,0,0,3.81,5c.36.37.93-.2.57-.57a33.68,33.68,0,0,1-3.85-5c-1.17-1.73-2.56-3.27-3.76-5a18.84,18.84,0,0,0-3.42-4.22c-1.22-1-3-1.86-3.68-3.36l-.45.59c4,.87,6.53,4,8.82,7.14s4.81,6.47,5.78,10.23a.4.4,0,0,0,.78-.21Z" style="fill:#d18b6b"/><path d="M.26,125.39c-1-1.74-2.7-4.82-4.35-6.15s-3.4-1.88-4.59-3.54c-.42,1,1.11,4.43,1.74,5.46.92,1.51,4,4.48,5.81,5.13a22.27,22.27,0,0,0-14.3,1.63c1.8,1.51,5,1.53,6.85,1.67,2.09.17,5-.7,6.88-1.35-1.77,1.31-4.29,3.32-4.82,5.23-.58,2.09-.73,4.25-1.32,6.35,4.7-2.77,7.57-6.37,8.1-11,1.1,1.68,1.16,4.67,2.89,5.91s3.59,2.16,4.89,3.75c.36-1-.45-5.24-1.14-6.24-1-1.46-2.16-3.09-4-3.64,5.65.71,7.29-2.24,11.83-4.59-1.88-1.41-6-.56-7.79.15s-3.47,2-5.31,2.71c1.68-1.4,2.61-4.55,3-6.48.44-2.11.45-4.28.91-6.41C1.08,116.94.49,120.68.26,125.39Z" style="fill:#d18b6b"/><path d="M.61,125.18a31.6,31.6,0,0,0-3.52-5.34c-1.58-1.8-4-2.52-5.49-4.42-.19-.25-.59-.08-.67.18a5.15,5.15,0,0,0,.53,3.07,14.52,14.52,0,0,0,1.43,3,14.36,14.36,0,0,0,5.87,5l.22-.77a24.5,24.5,0,0,0-14.61,1.68c-.31.14-.21.53,0,.69,1.84,1.42,4.29,1.54,6.52,1.69a19.37,19.37,0,0,0,7.51-1.33l-.31-.74a16.19,16.19,0,0,0-4.51,4.37c-1.26,2.16-1.17,5.08-1.8,7.45a.4.4,0,0,0,.58.46c4.31-2.59,7.65-6.28,8.3-11.4l-.75.2c1,1.67,1.07,3.81,2.31,5.36a9.58,9.58,0,0,0,2.32,1.77,14.74,14.74,0,0,1,3.22,2.61.4.4,0,0,0,.67-.17c.46-1.69-.2-4.1-.78-5.68A8.26,8.26,0,0,0,3,128.16l-.11.79a10.61,10.61,0,0,0,6.27-1.06c2-1.06,3.76-2.52,5.77-3.58a.41.41,0,0,0,0-.69c-1.78-1.2-4.24-.9-6.22-.46-2.68.6-4.81,2.25-7.29,3.31l.49.63c3.54-3.17,3.18-8.84,4-13.07.06-.31-.28-.66-.59-.45a11.56,11.56,0,0,0-4.34,5,20.13,20.13,0,0,0-1.19,6.76c0,.51.77.51.8,0a20.41,20.41,0,0,1,.94-6,10.69,10.69,0,0,1,4.19-5.15l-.58-.45c-.82,4.07-.42,9.66-3.83,12.71-.37.33.1.8.49.63,2.21-.94,4.13-2.45,6.48-3.07,1.91-.51,4.47-1,6.21.22v-.69c-1.83,1-3.46,2.25-5.24,3.29a10,10,0,0,1-6.39,1.24c-.47-.06-.5.64-.1.78A7.51,7.51,0,0,1,7,133.55c.41,1.37,1,3.35.61,4.77l.67-.17a12.31,12.31,0,0,0-2.4-2.1A17.77,17.77,0,0,1,3,134c-1.36-1.45-1.36-3.77-2.38-5.44a.4.4,0,0,0-.74.21C-.75,133.59-4,137.06-8,139.48l.59.45c.59-2.23.55-4.89,1.57-7,.88-1.82,2.8-3.19,4.38-4.37.33-.24.16-.89-.31-.73a18.29,18.29,0,0,1-7,1.32c-2.18-.13-4.59-.2-6.39-1.59v.69a23.65,23.65,0,0,1,14-1.6A.4.4,0,0,0-1,125.9a13.6,13.6,0,0,1-5.4-4.67,12.73,12.73,0,0,1-1.23-2.48c-.33-.82-.92-2.06-.65-2.94L-9,116c1.42,1.83,3.7,2.51,5.26,4.17a27.57,27.57,0,0,1,3.61,5.43A.41.41,0,0,0,.61,125.18Z" style="fill:#d18b6b"/><path d="M1.17,125.87c-.32.68.11,3.31.05,4.15-.07,1.06-.21,2.1-.28,3.19A33.14,33.14,0,0,0,.82,138c.14,2.14-.3,4.25-.27,6.35,0,1.91.34,3.85.31,5.76s.12,2.82.22,4.63l.09,2c.3,2.69-.86,4.36,1.1,6.6A26.48,26.48,0,0,0,5.4,166a26.32,26.32,0,0,1,3.15,3.18c3.67,4.29,2.83,11.79-1.9,14.93-2.51,1.67-4.32,2.31-7.26,1.87A7.6,7.6,0,0,1-4,184.73a24.87,24.87,0,0,1-3-2.6c-1.23-1.37-2.23-5.21-2.21-7.16,0-2.64,2-5.16,3.7-6.76s4.23-3.63,4.78-6.37a41,41,0,0,0,.6-5.65v-.25c0-.71,0-1.64,0-3.06,0-1.23.23-2.5.18-3.73a69.29,69.29,0,0,1,.36-13.36c.51-3.28.52-6.58.73-9.88" style="fill:#d18b6b"/><path d="M.79,125.76c-.48,1.39.1,3,0,4.48C.66,132.85.33,135.39.42,138s-.37,5.33-.18,8c.18,2.49.18,5,.36,7.48.09,1.27.16,2.55.22,3.83.07,1.68-.44,3.41.29,5,.92,2,3.1,3,4.66,4.44A13.61,13.61,0,0,1,10,172.49a10.24,10.24,0,0,1-2.83,10.73A9.75,9.75,0,0,1,1,185.66a10.53,10.53,0,0,1-3.39-.57A10.82,10.82,0,0,1-5.56,183c-3.2-2.72-4.26-8.15-2-11.74,1.24-2,3.09-3.33,4.67-5A9.44,9.44,0,0,0-.19,161a44,44,0,0,0,.45-7.25c0-1.47.18-2.92.18-4.38s-.12-3.21-.14-4.81a61,61,0,0,1,.56-9.25c.44-3.12.47-6.27.66-9.41,0-.51-.77-.51-.8,0-.18,3-.21,6-.59,8.94a64.33,64.33,0,0,0-.64,8.54c0,5.21.23,10.44-.25,15.64a11.35,11.35,0,0,1-1,4.35,12.34,12.34,0,0,1-2.5,3.08,21.69,21.69,0,0,0-4.33,4.89,8.17,8.17,0,0,0-.85,5.71,12.08,12.08,0,0,0,1.93,5.14c2.48,3.19,6.79,5.07,10.77,4a10.8,10.8,0,0,0,7.59-7.65,11.07,11.07,0,0,0-2.49-10.18,23.64,23.64,0,0,0-2.86-2.8,21.71,21.71,0,0,1-3-2.43c-1.59-1.82-.86-4.16-1-6.34-.09-1.68-.21-3.36-.28-5a79.57,79.57,0,0,1-.24-9.64c.24-3.12.06-6.23.32-9.36a23.21,23.21,0,0,0,.22-3.63,8.45,8.45,0,0,1,0-3.13c.17-.49-.61-.7-.77-.22Z" style="fill:#d18b6b"/><path d="M1.28,158.86c-.24-.85.42-2.14.73-3A37.31,37.31,0,0,1,4.72,150a38.23,38.23,0,0,1,5.5-7.9c1.25-1.32,3.37-3.5,5.19-4.33-1.35,1.76-2.45,3.7-3.67,5.5-1.44,2.13-3.39,4-4.83,6.17-2.26,3.32-4.27,5.93-5.71,9.43" style="fill:#d18b6b"/><path d="M1.67,158.75A5.69,5.69,0,0,1,2.39,156c.41-1.08.84-2.14,1.34-3.18A55.56,55.56,0,0,1,7,147a31.72,31.72,0,0,1,4-5.12,16.82,16.82,0,0,1,4.55-3.68l-.55-.55c-1.33,1.77-2.42,3.68-3.67,5.5s-2.75,3.39-4.07,5.12A49.39,49.39,0,0,0,.81,158.79c-.2.48.58.69.77.22a33.86,33.86,0,0,1,3-5.44c1.23-1.85,2.45-3.73,3.83-5.45,1.23-1.54,2.56-3,3.67-4.61,1.25-1.83,2.34-3.74,3.67-5.51.26-.35-.23-.7-.55-.54a17.62,17.62,0,0,0-4.71,3.81,33.65,33.65,0,0,0-4.36,5.58,53.37,53.37,0,0,0-3.57,6.56c-.43,1-.8,2-1.19,3A4.57,4.57,0,0,0,.9,159c.09.51.86.3.77-.21Z" style="fill:#d18b6b"/><path d="M.6,162.15c-.8-3.26-3.88-7.64-6-10.51s-4.68-6.28-8.92-7.13c.55,1.46,3.35,2.9,4.54,4.15,1.47,1.53,2.3,3.32,3.69,4.88,2.42,2.75,4,6.09,6.53,8.66" style="fill:#d18b6b"/><path d="M1,162.05c-1-4-3.76-7.54-6.15-10.81s-5-6.25-9-7.12a.41.41,0,0,0-.45.59c.6,1.39,2.14,2.27,3.31,3.14a19.89,19.89,0,0,1,4,4.69c1.21,1.69,2.58,3.24,3.74,5a34.11,34.11,0,0,0,3.81,5c.36.37.93-.2.57-.57a33.68,33.68,0,0,1-3.85-5c-1.17-1.73-2.56-3.27-3.76-5a18.84,18.84,0,0,0-3.42-4.22c-1.22-1-3-1.86-3.68-3.36l-.45.59c4,.87,6.53,4,8.82,7.14S-.76,158.5.21,162.26a.4.4,0,0,0,.78-.21Z" style="fill:#d18b6b"/><path d="M226.17-24.13c-.32.68.11,3.31.05,4.15-.07,1.06-.21,2.1-.28,3.19a33.14,33.14,0,0,0-.12,4.8c.14,2.14-.3,4.25-.27,6.35,0,1.91.34,3.85.31,5.76s.12,2.82.22,4.63l.09,2c.3,2.69-.86,4.36,1.1,6.6A26.48,26.48,0,0,0,230.4,16a26.32,26.32,0,0,1,3.15,3.18c3.67,4.29,2.83,11.79-1.9,14.93-2.51,1.67-4.32,2.31-7.26,1.87a7.6,7.6,0,0,1-3.37-1.2,24.87,24.87,0,0,1-3-2.6c-1.23-1.37-2.23-5.21-2.21-7.16,0-2.64,2-5.16,3.7-6.76s4.23-3.63,4.78-6.37a41,41,0,0,0,.6-5.65V5.94c0-.71,0-1.64,0-3.06,0-1.23.23-2.5.18-3.73a69.29,69.29,0,0,1,.36-13.36c.51-3.28.52-6.58.73-9.88" style="fill:#d18b6b"/><path d="M225.79-24.24c-.48,1.39.1,3,0,4.48-.15,2.61-.48,5.15-.39,7.77s-.37,5.33-.18,8c.18,2.49.18,5,.36,7.48.09,1.27.16,2.55.22,3.83.07,1.68-.44,3.41.29,5,.92,2,3.1,3,4.66,4.44A13.61,13.61,0,0,1,235,22.49a10.24,10.24,0,0,1-2.83,10.73A9.75,9.75,0,0,1,226,35.66a10.53,10.53,0,0,1-3.39-.57A10.82,10.82,0,0,1,219.44,33c-3.2-2.72-4.26-8.15-2-11.74,1.24-2,3.09-3.33,4.67-5A9.44,9.44,0,0,0,224.81,11a44,44,0,0,0,.45-7.25c0-1.47.18-2.92.18-4.38s-.12-3.21-.14-4.81a61,61,0,0,1,.56-9.25c.44-3.12.47-6.27.66-9.41,0-.51-.77-.51-.8,0-.18,3-.21,6-.59,8.94a64.33,64.33,0,0,0-.64,8.54c0,5.21.23,10.44-.25,15.64a11.35,11.35,0,0,1-1,4.35,12.34,12.34,0,0,1-2.5,3.08,21.69,21.69,0,0,0-4.33,4.89,8.17,8.17,0,0,0-.85,5.71,12.08,12.08,0,0,0,1.93,5.14c2.48,3.19,6.79,5.07,10.77,4a10.8,10.8,0,0,0,7.59-7.65,11.07,11.07,0,0,0-2.49-10.18,23.64,23.64,0,0,0-2.86-2.8,21.71,21.71,0,0,1-3-2.43c-1.59-1.82-.86-4.16-1-6.34-.09-1.68-.21-3.36-.28-5a79.57,79.57,0,0,1-.24-9.64c.24-3.12.06-6.23.32-9.36a23.21,23.21,0,0,0,.22-3.63,8.45,8.45,0,0,1,0-3.13c.17-.49-.61-.7-.77-.22Z" style="fill:#d18b6b"/><path d="M226.28,8.86c-.24-.85.42-2.14.73-3A37.31,37.31,0,0,1,229.72,0a38.23,38.23,0,0,1,5.5-7.9c1.25-1.32,3.37-3.5,5.19-4.33-1.35,1.76-2.45,3.7-3.67,5.5-1.44,2.13-3.39,4.05-4.83,6.17-2.26,3.32-4.27,5.93-5.71,9.43" style="fill:#d18b6b"/><path d="M226.67,8.75A5.69,5.69,0,0,1,227.39,6c.41-1.08.84-2.14,1.34-3.18A55.56,55.56,0,0,1,232-3a31.72,31.72,0,0,1,4-5.12,16.82,16.82,0,0,1,4.55-3.68l-.55-.55c-1.33,1.77-2.42,3.68-3.67,5.5s-2.75,3.39-4.07,5.12a49.39,49.39,0,0,0-6.51,10.57c-.2.48.58.69.77.22a33.86,33.86,0,0,1,3-5.44c1.23-1.85,2.45-3.73,3.83-5.45,1.23-1.54,2.56-3,3.67-4.61,1.25-1.83,2.34-3.74,3.67-5.51.26-.35-.23-.7-.55-.54a17.62,17.62,0,0,0-4.71,3.81,33.65,33.65,0,0,0-4.36,5.58,53.37,53.37,0,0,0-3.57,6.56c-.43,1-.8,2-1.19,3A4.57,4.57,0,0,0,225.9,9c.09.51.86.3.77-.21Z" style="fill:#d18b6b"/><path d="M225.6,12.15c-.8-3.26-3.88-7.64-6-10.51S215-4.64,210.72-5.49c.55,1.46,3.35,2.9,4.54,4.15C216.73.19,217.56,2,219,3.54c2.42,2.75,4,6.09,6.53,8.66" style="fill:#d18b6b"/><path d="M226,12.05c-1-4-3.76-7.54-6.15-10.81s-5-6.25-9-7.12a.41.41,0,0,0-.45.59c.6,1.39,2.14,2.27,3.31,3.14a19.89,19.89,0,0,1,4,4.69c1.21,1.69,2.58,3.24,3.74,5a34.11,34.11,0,0,0,3.81,5c.36.37.93-.2.57-.57a33.68,33.68,0,0,1-3.85-5c-1.17-1.73-2.56-3.27-3.76-5a18.84,18.84,0,0,0-3.42-4.22c-1.22-1-3-1.86-3.68-3.36l-.45.59c4,.87,6.53,4,8.82,7.14s4.81,6.47,5.78,10.23a.4.4,0,0,0,.78-.21Z" style="fill:#d18b6b"/><path d="M76.17-24.13c-.32.68.11,3.31,0,4.15-.07,1.06-.21,2.1-.28,3.19a33.14,33.14,0,0,0-.12,4.8c.14,2.14-.3,4.25-.27,6.35,0,1.91.34,3.85.31,5.76s.12,2.82.22,4.63l.09,2c.3,2.69-.86,4.36,1.1,6.6A26.48,26.48,0,0,0,80.4,16a26.32,26.32,0,0,1,3.15,3.18c3.67,4.29,2.83,11.79-1.9,14.93-2.51,1.67-4.32,2.31-7.26,1.87A7.6,7.6,0,0,1,71,34.73a24.87,24.87,0,0,1-3-2.6c-1.23-1.37-2.23-5.21-2.21-7.16,0-2.64,2-5.16,3.7-6.76s4.23-3.63,4.78-6.37a41,41,0,0,0,.6-5.65V5.94c0-.71,0-1.64,0-3.06,0-1.23.23-2.5.18-3.73a69.29,69.29,0,0,1,.36-13.36c.51-3.28.52-6.58.73-9.88" style="fill:#d18b6b"/><path d="M75.79-24.24c-.48,1.39.1,3,0,4.48-.15,2.61-.48,5.15-.39,7.77s-.37,5.33-.18,8c.18,2.49.18,5,.36,7.48.09,1.27.16,2.55.22,3.83.07,1.68-.44,3.41.29,5,.92,2,3.1,3,4.66,4.44A13.61,13.61,0,0,1,85,22.49a10.24,10.24,0,0,1-2.83,10.73A9.75,9.75,0,0,1,76,35.66a10.53,10.53,0,0,1-3.39-.57A10.82,10.82,0,0,1,69.44,33c-3.2-2.72-4.26-8.15-2-11.74,1.24-2,3.09-3.33,4.67-5A9.44,9.44,0,0,0,74.81,11a44,44,0,0,0,.45-7.25c0-1.47.18-2.92.18-4.38s-.12-3.21-.14-4.81a61,61,0,0,1,.56-9.25c.44-3.12.47-6.27.66-9.41,0-.51-.77-.51-.8,0-.18,3-.21,6-.59,8.94a64.33,64.33,0,0,0-.64,8.54c0,5.21.23,10.44-.25,15.64a11.35,11.35,0,0,1-1,4.35,12.34,12.34,0,0,1-2.5,3.08,21.69,21.69,0,0,0-4.33,4.89,8.17,8.17,0,0,0-.85,5.71,12.08,12.08,0,0,0,1.93,5.14c2.48,3.19,6.79,5.07,10.77,4a10.8,10.8,0,0,0,7.59-7.65,11.07,11.07,0,0,0-2.49-10.18,23.64,23.64,0,0,0-2.86-2.8,21.71,21.71,0,0,1-3-2.43C76,11.29,76.7,9,76.57,6.77c-.09-1.68-.21-3.36-.28-5a79.57,79.57,0,0,1-.24-9.64c.24-3.12.06-6.23.32-9.36a23.21,23.21,0,0,0,.22-3.63,8.45,8.45,0,0,1,0-3.13c.17-.49-.61-.7-.77-.22Z" style="fill:#d18b6b"/><path d="M76.28,8.86c-.24-.85.42-2.14.73-3A37.31,37.31,0,0,1,79.72,0a38.23,38.23,0,0,1,5.5-7.9c1.25-1.32,3.37-3.5,5.19-4.33C89.06-10.44,88-8.5,86.74-6.7,85.3-4.57,83.35-2.65,81.91-.53,79.65,2.79,77.64,5.4,76.2,8.9" style="fill:#d18b6b"/><path d="M76.67,8.75A5.69,5.69,0,0,1,77.39,6c.41-1.08.84-2.14,1.34-3.18A55.56,55.56,0,0,1,82-3a31.72,31.72,0,0,1,4-5.12,16.82,16.82,0,0,1,4.55-3.68l-.55-.55c-1.33,1.77-2.42,3.68-3.67,5.5s-2.75,3.39-4.07,5.12A49.39,49.39,0,0,0,75.81,8.79c-.2.48.58.69.77.22a33.86,33.86,0,0,1,3-5.44C80.81,1.72,82-.16,83.41-1.88c1.23-1.54,2.56-3,3.67-4.61,1.25-1.83,2.34-3.74,3.67-5.51.26-.35-.23-.7-.55-.54a17.62,17.62,0,0,0-4.71,3.81,33.65,33.65,0,0,0-4.36,5.58,53.37,53.37,0,0,0-3.57,6.56c-.43,1-.8,2-1.19,3A4.57,4.57,0,0,0,75.9,9c.09.51.86.3.77-.21Z" style="fill:#d18b6b"/><path d="M75.6,12.15c-.8-3.26-3.88-7.64-6-10.51S65-4.64,60.72-5.49c.55,1.46,3.35,2.9,4.54,4.15C66.73.19,67.56,2,69,3.54c2.42,2.75,4,6.09,6.53,8.66" style="fill:#d18b6b"/><path d="M76,12.05c-1-4-3.76-7.54-6.15-10.81s-5-6.25-9-7.12a.41.41,0,0,0-.45.59C61-3.9,62.51-3,63.68-2.15a19.89,19.89,0,0,1,4,4.69c1.21,1.69,2.58,3.24,3.74,5a34.11,34.11,0,0,0,3.81,5c.36.37.93-.2.57-.57a33.68,33.68,0,0,1-3.85-5c-1.17-1.73-2.56-3.27-3.76-5a18.84,18.84,0,0,0-3.42-4.22c-1.22-1-3-1.86-3.68-3.36l-.45.59c4,.87,6.53,4,8.82,7.14s4.81,6.47,5.78,10.23a.4.4,0,0,0,.78-.21Z" style="fill:#d18b6b"/></pattern></defs><rect x="0.25" y="0.25" width="599.5" height="599.5" style="fill:none;stroke:#000;stroke-miterlimit:10;stroke-width:0.5020938023450586px"/><rect x="-5.54" y="-2.9" width="611.47" height="611.47" style="fill:#757575;stroke:#fff;stroke-miterlimit:10;stroke-width:1.0199742267391558px"/><g style="clip-path:url(#clip-path)"><rect x="-175.91" y="-479.95" width="553" height="553" style="fill:url(#camas_3)"/><rect x="274.09" y="-479.95" width="553" height="553" style="fill:url(#camas_3)"/></g></svg>