<?xml version="1.0" encoding="utf-8"?>
<!-- Generator: Adobe Illustrator 23.1.0, SVG Export Plug-In . SVG Version: 6.00 Build 0)  -->
<svg version="1.1" xmlns="http://www.w3.org/2000/svg" xmlns:xlink="http://www.w3.org/1999/xlink" x="0px" y="0px"
	 viewBox="0 0 216 216" style="enable-background:new 0 0 216 216;" xml:space="preserve">
<style type="text/css">
	.Arched_x0020_Green{fill:url(#SVGID_1_);stroke:#FFFFFF;stroke-width:0.25;stroke-miterlimit:1;}
	.st0{fill:#BB5F30;}
	.st1{fill:#FFFFFF;}
	.st2{opacity:0.4;}
	.st3{opacity:0.19;}
</style>
<linearGradient id="SVGID_1_" gradientUnits="userSpaceOnUse" x1="0" y1="216" x2="0.7071" y2="215.2929">
	<stop  offset="0" style="stop-color:#20AC4B"/>
	<stop  offset="0.9831" style="stop-color:#19361A"/>
</linearGradient>
<g id="Layer_1">
	<path class="st0" d="M3.27,108C3.27,50.16,50.16,3.27,108,3.27c57.84,0,104.73,46.89,104.73,104.73
		c0,57.84-46.89,104.73-104.73,104.73C50.16,212.73,3.27,165.84,3.27,108z"/>
</g>
<g id="Platyhelminthes_1_">
	<g>
		<path class="st1" d="M37.33,100.67c-0.39,1.32-1.61,5.32-2.84,6.16c-9.05,6.17-9.95,12.52-7.76,20.85
			c1.32,5.04,2.07,11.8,0.27,14.5c-3.35,5.04-0.5,17.83,5,18.83c6.26,1.14,8.35,9.77,13.4,10.44c7.01,0.94,11.9-1.47,14.97-3.41
			c6.12-3.86,14.49-0.14,21.43-1.89c1.33-0.34,8-2.19,10.49-7.61c0.39-0.86,2.42-5.93,3.02-6.39c2.19-1.66,3.5-3.87,5.34-4.49
			c4.89-1.66,10.81-4.1,14.17-12.65c0.71-1.81,3.82-4.93,5.45-5.99c1.97-1.06,9.93,1.26,16.52-4c2.97-2.37,10.41-4.06,12.95-5.91
			c13.27-9.7,17.65-17.89,18.27-18.6c7-8,8.02-6.99,13-14.5c5.5-8.29,4.02-19.86,0.06-23.76c-6.65-6.54-18.42-13.94-25.85-14.66
			c-3.35-0.33-11.55,0.66-15.95,0.78c-2,0.06-11.04-4.02-16.41-1.73c-2.76,1.18-11.98,4.51-15.27,4.04
			c-6.9-0.99-18.58-4.73-25.74-0.21C78,52.88,73,59.5,66.29,63.01C64.2,64.1,54.68,69,51.62,73.77c-1.02,1.59-3.91,9.27-4.85,10.97
			C46.15,86.1,39.86,92.11,37.33,100.67c-0.19,0.64,1.17,5.57,1.17,5.57"/>
	</g>
	<g class="st2">
		<path class="st0" d="M54.88,133.47c-1.97-6.58-0.81-16.86,6-17.8c0,0,3.98,0.56,8.66-4c5.42-5.28,13.85-20.62,15.56-22.14
			c6.08-5.42,15.04-7.7,21.04-8.74c5.28-0.92,3.13-2.51,8.18-3.21c8.71-1.2,13.56-5.72,18.62-6.69c8.48-1.63,16.06,0.67,16.79,1.05
			c-1.08,0.02-8.73,3.49-10.17,3.52c-2.88,0.46-4.75,1.72-7.26,2.56c-2.16,0.44-4.38,0.2-6.17,1.03c-4.29,2.07-8.12,1.49-11.31,4.84
			c-3.68,3.85-6.8,11.72-15.49,15.8c-5.3,2.49-13.31,5.72-16.44,10.92c-2.79,4.4-3.31,9.51-8.4,16.14
			c-1.35,1.76-2.13,8.83-9.51,11.51c-3.22,1.17-5.32,3.71-5.32,3.71c-2.85,1.46-11.15,6.54-11.15,6.54c5.5-9,6.95-16.95,7.11-18.97"
			/>
	</g>
	<g class="st3">
		<path class="st0" d="M152.91,63.63c-1.14-0.74-3.16-0.97-4.28-0.07c-1.37,1.28,0.04,3.27,1.68,3.25c1.77,0.61,4.28,0.07,4.26-1.57
			c0.11-1.01-0.65-1.5-1.03-1.75c-0.38-0.25-1.01-0.11-1.39-0.36"/>
	</g>
	<g class="st3">
		<path class="st0" d="M157.56,73.14c0.38,0.25,0.38,0.25,0.38,0.25l0,0c-0.25,0.38-0.63,0.13-1.01-0.11
			c-0.87,0.52-2.38,1.16-2.36,2.8c0.02,1.64,3.05,1.97,4.55,1.33c0.25-0.38,0.99-1.52,1.24-1.9c0.25-0.38-0.52-0.88-0.65-1.5
			c-1.28-1.37-3.27,0.04-4.53,0.31"/>
	</g>
	<g>
		<path class="st0" d="M152.01,64.61c-0.51-0.33-1.41-0.43-1.91-0.03c-0.61,0.57,0.02,1.46,0.75,1.45c0.79,0.27,1.91,0.03,1.9-0.7
			c0.05-0.45-0.29-0.67-0.46-0.78c-0.17-0.11-0.45-0.05-0.62-0.16"/>
	</g>
	<g>
		<path class="st0" d="M157.17,74.1c0.17,0.11,0.17,0.11,0.17,0.11l0,0c-0.11,0.17-0.28,0.06-0.45-0.05
			c-0.39,0.23-1.06,0.52-1.05,1.25c0.01,0.73,1.36,0.88,2.03,0.59c0.11-0.17,0.44-0.68,0.55-0.85c0.11-0.17-0.23-0.39-0.29-0.67
			c-0.57-0.61-1.46,0.02-2.02,0.14"/>
	</g>
</g>
</svg>
