<?xml version="1.0" encoding="utf-8"?>
<!-- Generator: Adobe Illustrator 23.1.0, SVG Export Plug-In . SVG Version: 6.00 Build 0)  -->
<svg version="1.1" id="Jelly" xmlns="http://www.w3.org/2000/svg" xmlns:xlink="http://www.w3.org/1999/xlink" x="0px" y="0px"
	 viewBox="0 0 216 216" style="enable-background:new 0 0 216 216;" xml:space="preserve">
<style type="text/css">
	.Arched_x0020_Green{fill:url(#SVGID_1_);stroke:#FFFFFF;stroke-width:0.25;stroke-miterlimit:1;}
	.st0{fill:#BB5F30;}
	.st1{fill:#FFFFFF;}
	.st2{opacity:0.49;}
	.st3{opacity:0.3;}
</style>
<linearGradient id="SVGID_1_" gradientUnits="userSpaceOnUse" x1="0" y1="216" x2="0.7071" y2="215.2929">
	<stop  offset="0" style="stop-color:#20AC4B"/>
	<stop  offset="0.9831" style="stop-color:#19361A"/>
</linearGradient>
<g id="Layer_1">
	
		<ellipse transform="matrix(0.7071 -0.7071 0.7071 0.7071 -45.0612 107.0809)" class="st0" cx="106.73" cy="107.93" rx="104.73" ry="104.73"/>
</g>
<g id="Layer_8">
	<g>
		<g>
			<path class="st1" d="M67.08,61.78c0.19,10.66,3.79,26.03,14.39,31.14c6.61,3.19,15.85,2.34,11.03-7.01
				c-0.28-0.55-2.14,0.12-1.93,0.52c2.16,4.19,2.27,9.02-4.92,6.82c-4.22-1.29-7.81-4.39-9.95-8.16c-4.2-7.42-6.54-15.29-6.69-23.83
				C69,60.83,67.06,61.15,67.08,61.78L67.08,61.78z"/>
		</g>
	</g>
	<g>
		<g>
			<path class="st1" d="M85.1,94.15c-4.02,2.9-12.52,0.52-16.29-1.52c-10.44-5.66-8.6-19.72-6.03-29.23
				c0.2-0.73-1.75-0.44-1.93,0.23c-2.94,10.93-4.02,25.29,8.14,30.79c4.34,1.96,13.04,3.42,17.32,0.33
				C87.37,93.99,85.72,93.7,85.1,94.15L85.1,94.15z"/>
		</g>
	</g>
	<g>
		<g>
			<path class="st1" d="M96.3,84.28c8.79-3.68,12.06-12.34,7.97-21.02c-4.45-9.45-15.21-15.28-25.31-12.43
				c-1.12,0.32-0.96,0.93,0.16,0.61c17.61-4.96,36.63,23.97,16.07,32.58C94.01,84.51,95.84,84.48,96.3,84.28L96.3,84.28z"/>
		</g>
	</g>
	<g>
		<g>
			<path class="st1" d="M75.88,54.26c8.4,0.03,16.98,7.17,21.06,14.05c1.88,3.17,3.24,6.66,4.5,10.11c0.67,1.84,0.93,3.71,0.72,5.67
				c-0.42,3.81-5.87,2.83-8.04,1.29c-0.47-0.33-2.15,0.44-1.81,0.68c2.27,1.6,6.08,2.6,8.75,1.35c4.78-2.25,2.97-7.85,1.49-11.72
				C98.4,64.86,89.41,53.45,76.7,53.41C76.13,53.41,74.59,54.25,75.88,54.26L75.88,54.26z"/>
		</g>
	</g>
	<g id="Layer_9" class="st2">
		<g>
			<g>
				<path class="st1" d="M65.57,67.22c1.26,8.91,4.17,20,13.17,24.04c2.23,1,7.09,1.74,9.16-0.17c1.05-0.97,3.92-5.17,2.39-6.55
					c-0.56-0.5-2.38,0.26-1.79,0.79c0.79,0.71-0.59,2.96-0.93,3.65c-1.15,2.38-4.17,2.02-6.28,1.59c-3.48-0.71-6.1-3.67-8.06-6.43
					c-3.52-4.98-4.9-11.52-5.74-17.45C67.39,65.96,65.45,66.42,65.57,67.22L65.57,67.22z"/>
			</g>
		</g>
		<g>
			<g>
				<path class="st1" d="M68.91,63.09c1.93,5.94,4.78,10.93,8.86,15.65c3.32,3.85,7.24,7.9,12.7,7.13c0.86-0.12,1.65-1.1,0.31-0.91
					c-5.47,0.78-9.92-5.32-12.97-9.02c-3.27-3.97-5.39-8.5-6.96-13.35C70.65,61.99,68.73,62.55,68.91,63.09L68.91,63.09z"/>
			</g>
		</g>
		<g>
			<g>
				<path class="st1" d="M73.88,59.14c3.67-0.89,6.66,3.12,8.9,5.38c2.13,2.15,4.47,4.04,6.48,6.33c0.97,1.11,8.28,13.69,2.16,12.95
					c-0.93-0.11-1.98,1.21-0.68,1.37c6.44,0.78,5.15-6.82,3.29-10.7c-2.49-5.17-7.33-8.62-11.26-12.6c-2.59-2.62-5.4-4.95-9.23-4.02
					C72.33,58.15,72.69,59.43,73.88,59.14L73.88,59.14z"/>
			</g>
		</g>
		<g>
			<g>
				<path class="st1" d="M63.73,70.26c-2.42,7.82-0.66,17.94,7.18,21.97c3.81,1.96,8.11,1.03,12.04,0.09
					c4.94-1.18,6.52-3.27,7.56-8.07c0.19-0.86-1.78-0.58-1.95,0.19c-2.06,9.41-15.19,9.7-20.53,3.19
					c-3.89-4.74-4.09-11.96-2.37-17.55C65.93,69.26,63.96,69.51,63.73,70.26L63.73,70.26z"/>
			</g>
		</g>
	</g>
	<g id="Layer_6_copy">
		<g class="st3">
			<path class="st1" d="M94.67,91.52c7.37-2.81,11.56-11.3,12.06-14.77c1.64-10.76-7.23-22.93-13.67-25.13
				c-7.2-2.47-18.44-3.83-24.18,1.65c-5.21,4.97-8.07,3.95-10.63,13.71c-6.97,26.5,13.52,29.7,19.87,29.79
				c15.85,0.22,16.53-6.44,17.76-6.44"/>
			<g>
				<path class="st1" d="M95.08,92c6.64-2.89,11.97-9.48,12.78-16.77c0.94-8.54-4.72-17.94-11.43-22.79
					c-5.99-4.33-16.68-4.58-23.44-2.36c-3.48,1.14-5.89,3.98-8.77,6.07c-2.47,1.79-4.2,3.7-5.49,6.5
					c-5.79,12.6-3.5,28.42,10.59,33.3c5.18,1.79,10.92,1.74,16.25,0.89c2.68-0.42,5.26-1.35,7.52-2.85c0.8-0.54,2.92-3.09,2.93-3.09
					c1.2-0.25,0.87-1.38-0.31-1.14c-1.67,0.34-3.05,2.96-4.43,3.89c-4.65,3.09-11.69,3-17.06,2.09C63,93.81,57.12,85.19,57.91,74.01
					c0.54-7.66,2.91-13.69,9.03-18.23c3.69-2.74,6.47-5.07,11.29-5.61c4.37-0.49,8.91,0.44,13.08,1.65
					c7.61,2.21,12.41,10.93,14.17,18.09c2.11,8.61-3.28,17.68-11.21,21.14C93.04,91.57,94.15,92.4,95.08,92L95.08,92z"/>
			</g>
		</g>
	</g>
</g>
<g id="Layer_7">
	<g>
		<g>
			<g>
				<path class="st1" d="M89.72,87.54c0.54-1.34-0.61,0.57,0.28-0.92C90.04,86.87,90.02,87.17,89.72,87.54z"/>
				<path class="st1" d="M81.12,133.41c-4.84-0.52-10.1-4.2-14.61-6.7c-0.52-0.32,0.41-0.32-0.78-1.01
					c-4.54-2.28-10.31-8.1-13.26-13.44l0.32,0.22c-0.59-0.98-1.75-1.91-2.3-3.01c0.08-0.05,0.32,0.27,0.28-0.04
					c-0.47-0.1-1.07-1.86-1.46-2.29c-0.07-0.49,0.15-0.53,0.05-1.16l-0.54-0.55c-1.4-1.59-1.52-4.53-2.77-6.94
					c0.11,0.1,0.26,0.33,0.25,0.11c-1.85-3.92-3.58-9.06-5.88-13.29c0.19,0.12,0.45,0.19,0.44-0.12c-0.41-0.07-1.15-1.36-1.86-2.42
					c0.01-0.69-1.4-1.71-2.16-2.98l0.14,0.05c-0.96-0.6-0.92-1.38-1.86-1.65l-0.37-0.63c-0.61,0.09-1.19-1.05-2.15-1.07l0,0.11
					c-0.79-0.02-1.2-0.26-1.95-0.05l-0.08-0.03c-1.67,0.59-2.59,1.24-2.33,1.47c-0.72,0.11,1.36-1.13,0.27-0.95
					c-4.94,4.08-6.23,10.88-6.66,17c-0.19,0.7-0.25,1.15-0.41,1.31c0.02,0.63-0.01,2.37,0.22,2.93c-0.01-0.21-0.19,0.41-0.21,0.74
					c-0.14,1.15,0.42,1.24,0.32,2.49c-0.13-0.49-0.26-0.66-0.4-0.48c0.37,1.06,0.35,2.49,0.58,3.74c-0.08-0.19-0.15-0.49-0.26-0.43
					c0.47,1.35,0.14,2.52,0.5,3.7l-0.27-0.42c-0.03,1.97,0.53,0.52,0.57,2.21c-0.12-0.39-0.19-0.24-0.29-0.3
					c0.57,1.51,0.83,4.04,1.23,5.57c-0.05-0.09-0.1-0.05-0.1-0.05c0.33,1.67,0.54,3.46,1.09,5.26c0.05,0.69-0.58-0.11-0.12,1.65
					c0.41-0.16,0.88,2.95,1.12,1.79c0.28,1.5,0.86,3.87,1.37,4.77c-0.4-0.59-0.25,0.89-0.73-0.3l0.08,1.01
					c-0.22-0.08-0.29-0.97-0.4-0.6c0.24,0.61,1.06,2.31,1.23,2.87c0.7,1.02,1.61,1.81,2.47,3.52c-0.53-0.75-0.23,0.68-0.55,0.15
					l1.96,2.03c0.31,0.56-0.25,0.29,0.27,1.06c0.08-0.1,0.34,0.22,0.56,0.42c0.07,0.24,1.38,2.26,1.14,2.72
					c-0.01,0.34-0.59-0.86-0.38-0.17c0.6,1.02,0.77,0.98,1.39,1.99l-0.04,0.05c0.35,0.7,1.36,1.86,1.12,1.01
					c-0.27-0.47-0.12,0.32-0.43-0.44c0.48,0.35,1.32,1.43,1.97,2.41c-0.28-0.29-0.35-0.19-0.55-0.25c1.15,1.14,2.21,2.43,3.39,3.76
					c0.18-0.1-0.69-0.3-0.76-0.58c1.08,2.03,3.17,3.45,4.02,5.18c-0.22-0.22,0.12-0.32,0.09-0.26c0.66,0.87,0.42,1,0.97,1.47
					c-0.09,0.17,0.64,0.63,1.16,1.14c0.35,0.2,0.06,0.2-0.38-0.26c0.75,0.71,3.75,3.46,5.23,5.3c0.03-0.1,1.35,0.68,1.73,1.06
					l-0.34,0.06c0.25,0.46,1.34,1.21,1.25,1.45c1.07,0.54-3.46-2.82-2.14-1.95c0.14,0.44,1.9,1.16,1.39,1.21
					c0.81,0.73,1.77,1.23,2.38,2.11c-0.2-0.23-0.91-0.3-0.24,0.27c1.22,0.96,0.42,0.18,1.45,0.92l0.67,0.42
					c0.21-0.17,1.03,0.92,0.79,0.32c0.01,0.29,1.8,1.33,1.4,1.58l-0.38,0.13c0.53,0.41,1.1,0.38,1.61,0.58
					c0.05,0.08,0.15,0.24,0.09,0.26c0.41-0.36,1.25,1,2.13,1.15c0.99,1.03,2.85,2.09,3.21,2.73c0.96,0.49,1.91,0.82,2.88,1.57
					c-0.23-0.09-0.52-0.25-0.64-0.19c0.57,0.54,0.81,0.52,1.45,0.82c-0.19,0,1.16,1.06,1.82,1.64c1.01,0.4,0.83-0.04,1.01-0.14
					c0.58,0.97,2.81,1.15,3.66,2.15c-0.36-0.11-1.5-0.51-0.78,0.03c0.62,0.93,1.92,0.59,3.23,1.5l-0.15-0.56
					c0.51,0.55,2.19,0.8,1.86,1.13c0.54,0.1,1.63,0.92,1.65,0.46c2.2,1.44,5.85,2.34,7.03,3.66c0.37,0.07,1.22,0.47,1.12,0.2
					c-0.49-0.44-0.87-0.15-1.02-0.38c0.32,0.11,0.43,0.02,0.48-0.02c0.72,0.38,1.3,0.63,0.46,0.69c1.59,0.88,1.98,0.01,4.07,0.93
					c-0.16,0.13-0.02,0.25,0.62,0.44l1.29,0.13c1.37,0.55,0.67,0.66,0.6,0.95c0.76,0.22,1.68,0.5,2.09,0.4l0.81,0.64
					c-0.59-0.46,0.67,0.02,1.05,0.06l-0.38-0.04c0.1,0.16,1,0.36,1.45,0.46c-0.06-0.21-0.93-0.55-1.4-0.75
					c0.42-0.01,1.01,0.2,1.57,0.21c-0.25,0.24,1.18,0.53,1.78,0.71c0.68,0.24,0.85-0.05,1.05,0.01c-0.02,0.15,1.12,0.32,0.53,0.39
					c-0.25-0.01-0.5-0.29-0.93-0.26c0.43,0.23,0.31,0.47,1.31,0.53c0.75,0.04-0.05-0.59,1.27-0.11c-0.37,0-0.47,0.09-0.77,0.14
					l1.25,0.42l0.11-0.25c0.16,0.1,0.03,0.1,0.1,0.15c0.44-0.19,1.98,0.33,2.32,0.08c0.65,0.11,1.33,0.41,1.95,0.54l-0.12,0
					c0.73,0.27,1.76,0.33,2.42,0.25l-0.04,0.05c0.41,0.07,1.4,0.11,1.93,0.01c1.03,0.3,0.27,1.04,1.46,0.81
					c1.08,0.08,1.7-0.44,1.28-0.6c1.92,0.28,4.02-0.25,5.79-0.02c0.24-0.14,0.12-0.15,0.58-0.34c2.56-0.17,4.57-2.32,6.3-3.5
					c-0.42,0.66,0.16,0.22,0.29,0.31c0.24-0.65,0.71-0.43,0.54-0.87c-0.23-0.1-0.28-0.22-0.84,0.27c1-1.18,2.21-3.3,2.78-4.02
					c-0.29,0.36-0.21,0-0.12-0.34c0.28,0.28,0.89-0.78,1.12-1.67l-0.17-0.21l0.42-0.47c0.05-0.36-0.33-0.53,0.18-1.31
					c0.1-0.02,0.21-0.04,0.33-0.17c0.16-0.95,0.09-2.35,0.57-3.29l0.51-0.76c0.04-0.45-0.04-1.22-0.27-0.47
					c0.5-1.7,0.71-2.83,1.02-3.37c-0.31-3.13-0.46-7.51-1.01-10.97l0.19,0.08c0.01-0.96-0.38-0.43-0.36-1.1
					c0.21,0.27,0.24-0.79,0.56-0.09c-0.08-1.38-0.72-1.63-0.99-2.46c-0.26-0.07,0.32,0.64-0.01,0.55c-0.12-0.12-0.27-1.86-0.72-1.92
					c0.01-0.35,0.35-0.2,0.54-0.07l-0.45-0.71c0.04-1.1,1.47,1.94,1.61,0.78l-0.33-0.72c0.08-0.83,1.12,1.84,0.55-0.07
					c-0.47-0.76-1.19-1.25-1.07-0.5c-0.75-1.59-0.96-0.51-1.77-2.13c-0.04-0.53,0.72,1.27,0.8,0.85c-0.11-0.91-0.93-1.48-1.19-2.21
					c0.28,0.82-0.37,0.35-0.66-0.1c-0.32-0.89,0.62,0.34-0.06-0.8c-0.29-0.08-1.09-1.02-0.63-0.06c-0.66-0.14-0.61-1.24-1.36-1.6
					c-0.01-0.54,1.44,0.67,0.67-0.61c-0.11,0.37-1.44-1.2-1.33-0.3c-0.27-0.51-0.12-0.71,0.28-0.49c-0.33-0.8-1.72-1.18-1.42-1.8
					l-0.42-0.01c-0.09-0.27-0.27-0.6-0.44-1.03c-0.51-0.54-1.93-1.44-1.56-1.72c-0.21-0.13-1.4-1.33-1.17-0.64
					c0.6,0.88,1.05,0.66,1.12,1.4c-0.24-0.79-1.11-1.03-1.62-1.36l0.06-0.2c-0.3-0.2-0.88-0.81-1.19-0.81
					c0.28,0.11,0.26-0.08,0.07-0.31l-0.47-0.05c-1.18-0.88,0.08-0.6-1.04-1.5l0.96,0.57c-0.21-0.12-0.39-0.66-0.98-1.04
					c-0.37,0.02-0.96-0.08-1.26-0.07c-0.69-0.44-0.09-0.46-0.87-0.78l0.99,0.44c0.17,0.04-0.25-0.79-1.1-1.48
					c-0.6-0.37-1.67-0.77-0.91,0.03c-0.42-0.34-0.92-0.95-0.47-0.82c-1.02-0.71-0.04,0.32-0.98-0.23c-0.24-0.4-1.16-1.44-1.66-2.15
					l1.15,0.36l-0.58-0.46c0.97,0.33-0.23-0.51,0.43-0.46c-0.37-0.36-0.94-0.64-1.39-0.87c0.83,1.37-1.81-0.39-1.79,0.29
					c-1.72-1.13-0.24-1.8-2.45-2.44c0.2,0.32-0.85,0.04,0.27,0.69c-0.98-0.82-1.01-0.1-2.09-1.18c1.02,0.5-0.64-1.15,0.84-0.43
					c-0.19,0.08,0.64,0.65,0.87,0.76c-0.3-0.48,0.41-0.36-0.64-1.15c-0.67-0.44-1.55-1.09-1.59-0.78c-0.16,0.26,1,0.71,0.4,0.65
					c-1.34-0.88-1.27-1.41-2.12-1.38c0.83,0.58,0.84,0.98,0.7,1.13l-1.01-0.61l0.3-0.02c-1.41-1.26-0.67-0.04-2.09-1.21l-0.44-0.84
					c0.56,0,2.02,1.75,2.1,1.1c-0.93-0.74-1.42-0.76-2.22-1.56l0.73,0.42c-0.33-0.28-0.21-1.11-1.81-1.83
					c-0.79-0.41-0.31,0.01-0.45,0.16c-1.55-1.13-2.11-1.37-3.1-2.12c0.45-0.13-1.65-1.47-0.33-0.88c0.32,0.6,2.49,2.36,3.27,2.46
					c-0.24-0.81,1.14,0.99,1.76,0.86c-1.19-0.96-0.84-1.29-0.84-1.68c-0.32-0.28-0.72-0.43-0.95-0.55
					c-0.33,0.12,0.11,0.46-0.05,0.71c-1.28-1.14-2.66-2.06-3.55-2.48c-0.34-0.49-0.01-0.59,0.52-0.17c-1.6-1.26-3.2-2.77-4.5-4.23
					c0.54,1.24-1.61-1.48-1.29-0.59c0.64,0.84,1.06,1.71,0.49,1.45c-0.45-0.49,0.17-0.13,0.04-0.4c-0.79-0.41-0.6-1.23-1.47-1.57
					c1.4,1.31,0.68-0.12,1.19-0.12c-1.06-0.86,0.24-0.14-0.66-1.13c-1.04-0.87-2.24-2.05-3.15-3.27c-0.84-1.72-2.52-4.14-3.12-5.79
					c-0.12-0.92,0.48-0.49,0.23-1.41c-0.36-1.07-0.2,0.94-0.48-0.73l0.12,0.14c-0.27-0.48-0.38-3.02-0.96-3.47l0.52,0.47
					c0.01-0.31-0.13-0.59-0.21-0.84c0.15-0.03,0.24-0.39,0.4,0.1c0.2-1.02-0.11-2.11-0.08-3.22l-0.31,0.7
					c-0.09-1.93,0.39-3.17,0.78-4.97l0.24,0.13l0.16-1.09c0.16,0.33,0.65-0.55,0.64-1.16c-0.11,0.96-0.25,1.89-0.22,2.85
					c-0.33,0.71-0.11-0.9-0.48-0.5c-0.3,0.35-0.7,2.01-0.42,2.33c0.1-0.63,0.1-0.66,0.11-1.17c0.43-0.12,0.13,0.81,0.35,1.32
					c0.01-0.33,0.22-0.77,0.13-0.86c0.01,0.66,0.02,1.31-0.12,2.37c-0.05-0.73-0.28,0.37-0.35,0.09c0.27,0.11,0.39,1.12,0.28,2.44
					c-0.3,0.97,0.45,2.43,0.76,3.89c-0.42-0.52-0.98-1.23-1.17-2.17c-0.07,1.01,0.2,1.07,0.24,2.08c0.34,0.41,0.76,0.65,1.34,1.76
					l-0.21,0.15c0.48,1.04,0.86,0.88,1.4,2.2c1.01,2.25,2.5,4.37,3.72,5.84l-0.14,0.21c1.06,0.5,2.51,2.53,3.71,3.37
					c1.59,1.89,4.08,3.42,4.78,4.54c3.47,2.64,6.63,4.78,10.2,7.58l-0.82-0.18c0.81,0.28,0.3,0.48,0.97,0.92
					c-0.56-0.78,1.1,0.37,1.68,0.54c1.45,1.44,3.69,2.79,5.26,3.72l-0.1,0.23c1.71,0.77,3.15,2.48,4.82,4.02
					c0.13,0.24,0.29,0.69,0.81,1.13c1.18,0.54,1.65,0.99,3.12,2.1c0.95,0.94,2.4,2.58,3.14,3.73c3.76,3.4,6.28,8.37,7.81,13.5
					l-0.18,0.44c1.9,4.94,1.45,11.42,1.12,15.78l-0.43-0.48c-0.34,1.33-0.38,3.1,0.02,2.83c-0.33,1.34-0.59,3.44-1.16,4.2
					c-0.54,1.32-0.36,1.72-0.7,2.88c-1.3,2.6-1.75,3.56-3.23,5.94l0.4-0.56c0.08-0.32-0.08-0.45-0.48,0.1
					c-0.43,0.96-2.57,2.84-1.43,2.47c-2.13,2.06-5.96,4.74-9.12,4.47c0.26,0.14-0.45,0.22-0.74,0.35c-2.57,0.27-5.2-0.18-7.19-0.05
					c-0.39-0.12,0.65-0.21-0.36-0.32c-0.6,0-0.03,0.21-0.78,0.23c-4.08-0.07-8-1.49-11.5-2.3c-6.32-1.28-12.59-3.66-18.25-5.98
					l0.11-0.08c-2.08-0.35-4.21-2.35-5.99-2.41c-0.4-0.29-1.64-0.86-1.22-0.9c-1.62-0.42-3.96-2.29-6.22-3.07
					c0.19,0.11,0.31,0.15,0.55,0.22c-1.97-1.38-3.99-2.08-6.01-3.65c0.24,0.09,0.66,0.31,0.79,0.25c-0.71-0.71-2.23-0.8-2.37-1.57
					c-0.47-0.31-0.49,0.01-0.19,0.19c-4.51-3.27-9.31-6.63-13.66-10.43c-2.79-3.05,0.47-0.86-2.2-2.77
					c-0.11-0.27-0.29,0.02-0.23-0.1c-0.99-0.79-0.92-1.84-1.74-2.26c0,0.5-0.54-0.28-0.72-0.15c-1.62-1.94-1.64-2.59-3.17-3.88
					l0.24-0.01c-1.96-1.38-3.39-3.7-5.08-4.88c-7.74-10.16-14.2-21.46-16.24-34.13c-1.72-12.11-4.51-24.65,1.25-37.52
					c2.15-2.57,2.09-2.88,4.94-5.42c-0.08,0.16-0.26,0.32-0.02,0.22c-0.17-0.54,2.51-1.4,2.91-1.76c7.65-0.37,9.79,5.62,12.22,9.37
					c-0.41-0.67-0.87-0.86-0.41-0.06l0.67,0.74l-0.03,0.19c0.33,0.54,0.81,1.07,0.64,0.43c6.12,10.95,5.87,23.3,14.14,31.1
					c1.64,2.08,4.51,4.58,6.81,6.32c6.34,5.64,13.32,10.07,21.84,11.34C86.04,133.25,84.73,134.26,81.12,133.41z"/>
				<path class="st1" d="M89.02,89.13c-0.33,0.19-0.74,1.13-0.72,0.26C88.49,89.36,88.9,88.96,89.02,89.13z"/>
				<path class="st1" d="M92.56,115.05c0.07-0.01,0.21,0.35,0.25,0.44c-0.25-0.25-0.59-0.38-0.7-0.66
					C92.36,115.09,92.39,114.98,92.56,115.05z"/>
				<path class="st1" d="M97.58,120.2c-0.2,0.06-1.42-0.88-2.1-1.49L97.58,120.2z"/>
				<path class="st1" d="M102.23,125.02c0.36,0.47,0.18,0.44-0.42-0.05C101.82,124.87,102.05,124.99,102.23,125.02z"/>
				<path class="st1" d="M102.84,125c0.43,0.34,0.58,0.59,0.73,0.83C103.66,125.71,102.52,125.12,102.84,125z"/>
				<path class="st1" d="M113.87,134.06c0.28,0.2,0.95,0.53,1.08,0.87C114.75,134.61,113.5,134.1,113.87,134.06z"/>
				<path class="st1" d="M119.15,137.91c0.16,0.14,0.2,0.22,0.42,0.34c0.24,0.31-0.15,0.14-0.41-0.05L119.15,137.91z"/>
				<polygon class="st1" points="76.06,180.44 76.74,180.67 76.56,180.78 				"/>
				<path class="st1" d="M37.16,146.59c-0.48-0.52-0.14-0.5-0.18-0.61C37.35,146.5,36.67,145.9,37.16,146.59z"/>
				<polygon class="st1" points="24.74,121.53 24.79,121.74 24.43,121.75 				"/>
			</g>
		</g>
	</g>
	<g>
		<g>
			<g>
				<path class="st1" d="M94.11,83.19c-1.22,0.66,0.81-0.04-0.76,0.51C93.45,83.49,93.65,83.27,94.11,83.19z"/>
				<path class="st1" d="M176.56,169.94c-2.25-3.91-2.35-9.85-2.61-14.62c-0.02-0.57,0.5,0.16,0.41-1.11
					c-0.54-4.71,1.36-12,3.74-17.13l0.02,0.37c0.45-0.98,0.46-2.37,0.91-3.42c0.09,0.03,0,0.39,0.21,0.19
					c-0.16-0.37,0.56-2,0.57-2.51c0.27-0.38,0.47-0.25,0.8-0.75l-0.05-0.72c-0.04-1.99,1.75-4.06,2.42-6.48
					c0.02,0.14-0.03,0.39,0.12,0.24c1.21-3.84,3.47-8.31,5.18-12.44c0.03,0.21,0.15,0.45,0.38,0.26c-0.22-0.34,0.28-1.63,0.72-2.75
					c0.55-0.35,0.51-2.01,1.24-3.22l0.02,0.14c0.06-1.09,0.82-1.33,0.68-2.28l0.48-0.52c-0.31-0.59,0.76-1.32,0.81-2.2l-0.1-0.01
					c0.18-0.79,0.49-1.12,0.63-1.86l0.07-0.05c0.35-1.71,0.91-2.62,0.5-2.66c0.46-0.52-0.3,1.65,0.39,0.84
					c0.74-5.74-1.03-11.61-2.42-17.19c-0.04-0.67-0.11-1.09-0.01-1.28c-0.22-0.54-0.71-2.07-1.06-2.51c0.07,0.18,0.07-0.42,0-0.72
					c-0.2-1.05-0.78-0.96-0.99-2.11c0.25,0.4,0.42,0.51,0.5,0.32c-0.59-0.84-1.03-2.09-1.53-3.15c0.12,0.15,0.26,0.4,0.36,0.31
					c-0.76-1.08-0.8-2.2-1.41-3.16l0.36,0.3c-0.44-1.78-0.63-0.31-1.1-1.81c0.21,0.32,0.24,0.16,0.35,0.19
					c-0.93-1.18-1.8-3.37-2.56-4.62c0.07,0.06,0.11,0.02,0.11,0.02c-0.73-1.4-1.39-2.92-2.38-4.36c-0.22-0.6,0.58-0.08-0.33-1.5
					c-0.35,0.27-1.6-2.36-1.53-1.25c-0.68-1.25-1.77-3.24-2.45-3.92c0.5,0.43,0.05-0.89,0.76,0.08l-0.29-0.9
					c0.23,0.01,0.47,0.81,0.5,0.44c-0.34-0.5-1.52-1.8-1.79-2.27c-0.87-0.74-1.93-1.19-3.11-2.51c0.69,0.51,0.05-0.68,0.49-0.31
					l-2.3-1.25c-0.43-0.39,0.16-0.33-0.53-0.85c-0.05,0.11-0.37-0.09-0.62-0.2c-0.1-0.23-1.86-1.54-1.79-2.03
					c-0.09-0.3,0.79,0.55,0.39,0.01c-0.83-0.71-0.96-0.62-1.85-1.24l0.02-0.06c-0.53-0.5-1.84-1.04-1.32-0.42
					c0.4,0.29,0-0.33,0.52,0.2c-0.53-0.12-1.65-0.64-2.56-1.19c0.35,0.12,0.36,0,0.55-0.04c-1.42-0.4-2.83-0.9-4.35-1.23
					c-0.09,0.19,0.66-0.17,0.85,0.01c-1.83-1-4.1-0.63-5.66-1c0.26-0.07,0.14,0.28,0.12,0.22c-0.87,0.07-0.88-0.23-1.45-0.07
					c-0.1-0.22-0.72,0.23-1.28,0.5c-0.26,0.23-0.18-0.03,0.32-0.23c-0.87,0.24-3.71,2.23-5.36,3.52c0.09,0.04-0.54,1.25-0.87,1.58
					l-0.08-0.32c-0.42,0.21-1.06,1.2-1.25,1.15c-0.46,0.95,2.39-3.18,1.66-1.96c-0.41,0.12-0.97,1.73-1.05,1.26
					c-0.65,0.72-0.85,1.73-1.62,2.32c0.19-0.19,0.13-0.86-0.3-0.2c-0.75,1.18-0.11,0.4-0.59,1.42l-0.23,0.68
					c0.22,0.16-0.61,1.07-0.1,0.75c-0.33,0.03-0.69,1.86-1.03,1.57l-0.25-0.31c-0.19,0.58-0.01,1.06-0.03,1.55
					c-0.06,0.06-0.18,0.19-0.22,0.14c0.43,0.24-0.48,1.34-0.22,2.14c-0.56,1.15-0.59,3.07-0.96,3.63c0.01,0.97,0.23,1.83,0.18,2.91
					c-0.06-0.21-0.09-0.51-0.2-0.57c-0.13,0.69,0.02,0.86,0.13,1.47c-0.14-0.13-0.23,1.39-0.2,2.18c0.34,0.92,0.56,0.53,0.75,0.59
					c-0.45,1.02,1.04,2.44,0.97,3.6c-0.18-0.28-0.73-1.21-0.57-0.42c-0.19,1.04,0.93,1.53,1.47,2.82l0.21-0.51
					c0.08,0.67,1.23,1.63,0.79,1.75c0.3,0.35,0.87,1.41,1.1,1.04c1.05,2.13,3.93,3.88,4.55,5.39c0.27,0.17,0.94,0.78,0.93,0.49
					c-0.33-0.56-0.73-0.38-0.79-0.65c0.23,0.19,0.35,0.14,0.41,0.11c0.54,0.56,0.99,0.96,0.21,0.79c1.15,1.29,1.87,0.5,3.38,2.11
					c-0.19,0.07-0.11,0.23,0.38,0.63l1.09,0.61c0.95,1.06,0.29,0.86,0.1,1.09c0.56,0.5,1.21,1.14,1.59,1.25l0.33,0.93
					c-0.24-0.68,0.54,0.34,0.83,0.55l-0.29-0.21c-0.01,0.19,0.65,0.77,0.94,1.1c0.09-0.21-0.45-0.92-0.73-1.32
					c0.35,0.21,0.75,0.66,1.18,0.96c-0.33,0.06,0.61,1.09,0.96,1.58c0.38,0.57,0.69,0.45,0.8,0.62c-0.11,0.11,0.64,0.93,0.15,0.62
					c-0.18-0.16-0.19-0.53-0.53-0.76c0.18,0.43-0.07,0.55,0.64,1.2c0.53,0.49,0.36-0.49,1,0.72c-0.27-0.25-0.4-0.23-0.65-0.39
					l0.6,1.11l0.25-0.1c0.04,0.18-0.05,0.1-0.04,0.18c0.44,0.16,1.11,1.57,1.54,1.65c0.36,0.53,0.51,1.26,0.79,1.8l-0.08-0.09
					c0.25,0.72,0.79,1.54,1.22,2.02l-0.07,0c0.16,0.38,0.65,1.2,0.99,1.62c0.23,1.03-0.78,0.73-0.03,1.63
					c0.44,0.93,1.05,1.33,1.07,0.87c0.5,1.81,1.61,3.73,1.6,5.55c0.17,0.24,0.2,0.06,0.39,0.59c0.54,2.71,1.28,5.83,0.73,8.09
					c-0.09-0.81-0.26-0.05-0.42-0.04c0.22,0.67-0.28,0.79,0.13,1.04c0.24-0.06,0.36,0.02,0.48-0.78c0.14,1.69-0.21,4.3-0.67,5.17
					c0.2-0.44,0.2-0.07,0.2,0.32c-0.33-0.2-0.68,1-0.86,1.95l0.18,0.2l-0.43,0.51c-0.07,0.37,0.3,0.56-0.28,1.37
					c-0.1,0.01-0.21,0.02-0.34,0.16c-0.27,0.97-0.69,2.43-1.55,3.2l-0.81,0.51c-0.28,0.37-0.67,1.1-0.03,0.55
					c-1.39,1.32-2.44,1.97-3.06,2.11c-2.14,2.56-6.94,4.23-10.6,4.22l0.1-0.18c-0.99-0.14-0.5,0.32-1.19,0.22
					c0.31-0.18-0.75-0.35,0.01-0.57c-1.38-0.12-1.78,0.29-2.69,0.32c-0.15,0.22,0.73-0.1,0.54,0.18c-0.16,0.06-1.9-0.26-2.16,0
					c-0.34-0.2-0.03-0.41,0.17-0.51l-0.87,0c-0.95-0.55,2.42-0.34,1.39-1.01l-0.75-0.06c-0.66-0.45,1.99-0.11,0.16-0.51
					c-0.81,0.01-1.6,0.37-0.89,0.67c-1.73-0.25-0.95,0.66-2.85,0.25c-0.46-0.3,1.54,0.26,1.23-0.09c-0.82-0.44-1.82-0.18-2.53-0.64
					c0.79,0.46-0.02,0.51-0.6,0.35c-0.86-0.53,0.71-0.07-0.57-0.63c-0.28,0.1-1.56-0.26-0.57,0.3c-0.65,0.18-1.36-0.6-2.15-0.75
					c-0.22-0.52,1.57,0.12,0.36-0.84c0.06,0.41-1.81-0.66-1.36,0.17c-0.47-0.41-0.39-0.64,0.08-0.57c-0.6-0.62-2.11-0.67-1.95-1.34
					l-0.42,0.05c-0.14-0.26-0.38-0.58-0.59-1c-0.55-0.5-2.1-1.31-1.71-1.6c-0.25-0.09-1.29-1.43-1.13-0.7
					c0.53,0.96,0.99,0.73,1.12,1.45c-0.34-0.74-1.12-1.06-1.62-1.45l0.07-0.2c-0.29-0.23-0.81-0.9-1.12-0.95
					c0.27,0.15,0.27-0.05,0.11-0.29l-0.47-0.12c-1.07-1.06,0.13-0.55-0.75-1.67l0.8,0.75c-0.2-0.15-0.24-0.72-0.7-1.22
					c-0.36-0.07-0.89-0.3-1.18-0.38c-0.55-0.61,0.04-0.46-0.63-0.98l0.84,0.69c0.16,0.08-0.04-0.81-0.64-1.69
					c-0.43-0.53-1.25-1.27-0.85-0.26c-0.27-0.47-0.5-1.2-0.13-0.92c-0.67-1.01-0.16,0.28-0.81-0.56c-0.05-0.46-0.53-1.73-0.62-2.56
					l0.87,0.76l-0.33-0.63c0.72,0.66,0.02-0.53,0.58-0.24c-0.15-0.46-0.51-0.93-0.79-1.31c0.08,1.54-1.39-1.1-1.7-0.51
					c-0.97-1.73,0.66-1.62-0.87-3.18c0,0.36-0.73-0.38-0.13,0.71c-0.4-1.15-0.8-0.57-1.14-1.98c0.6,0.9,0.08-1.25,0.94,0.06
					c-0.2-0.03,0.19,0.84,0.33,1.04c0-0.54,0.53-0.11,0.08-1.25c-0.34-0.67-0.7-1.64-0.9-1.4c-0.28,0.14,0.43,1.06-0.03,0.72
					c-0.61-1.38-0.25-1.77-0.97-2.17c0.36,0.88,0.14,1.21-0.06,1.26l-0.49-1l0.26,0.13c-0.45-1.72-0.53-0.37-1.04-2.02l0.13-0.89
					c0.43,0.28,0.66,2.41,1.09,1.94c-0.36-1.05-0.74-1.32-0.92-2.36l0.34,0.71c-0.1-0.39,0.48-0.99-0.41-2.36
					c-0.41-0.73-0.26-0.15-0.46-0.1c-0.6-1.68-0.93-2.12-1.3-3.21c0.46,0.11-0.54-1.94,0.22-0.85c-0.06,0.62,0.69,3.07,1.25,3.56
					c0.26-0.76,0.36,1.35,0.94,1.56c-0.42-1.36,0.05-1.43,0.28-1.74c-0.1-0.38-0.34-0.7-0.45-0.91c-0.33-0.07-0.18,0.42-0.46,0.53
					c-0.38-1.54-0.97-2.95-1.49-3.7c-0.01-0.55,0.32-0.47,0.52,0.12c-0.6-1.78-1.13-3.7-1.57-5.41c-0.11,1.22-0.72-1.81-0.86-0.95
					c0.21,0.89,0.11,1.78-0.25,1.35c-0.14-0.57,0.21-0.04,0.23-0.31c-0.48-0.6,0.03-1.21-0.59-1.74c0.68,1.5,0.65,0.11,1.11,0.27
					c-0.59-1.07,0.27-0.04-0.13-1.18c-0.65-1.02-1.4-2.21-2.33-2.99c-0.76-1.47-3.2-2.27-4.56-2.5c-0.69-0.34-0.11-0.65-0.92-0.89
					c-0.99-0.09,0.66,0.52-0.76,0.19l0.15-0.07c-0.43,0.01-2.71-0.44-3.11,0.25l0.43-0.49c-0.28-0.02-0.53,0.1-0.75,0.17
					c-0.02-0.15-0.36-0.26,0.09-0.39c-0.96-0.27-1.94,0.25-2.93,0.42l0.68,0.17c-1.64,0.49-2.82,0.49-4.38,1.06l-0.03-0.27
					l-0.9,0.45c0.15-0.33-0.77-0.18-1.19,0.21l2.27-1.44c0.74-0.07-0.67,0.54-0.16,0.66c0.43,0.08,1.9-0.35,2.09-0.67
					c-0.58,0.12-0.6,0.19-1.02,0.39c-0.29-0.31,0.59-0.52,0.98-0.88c-0.3,0.09-0.77,0.1-0.8,0.23c0.55-0.34,1.17-0.5,2.19-0.71
					c-0.66,0.28,0.42,0.15,0.17,0.31c0.02-0.35,0.99-0.61,2.29-0.65c0.94,0.3,2.42-0.43,3.96-0.15c-0.65,0.24-1.43,0.5-2.32,0.64
					c0.92,0.19,1.03-0.05,1.94,0.21c0.46-0.17,0.83-0.62,2.09-0.48l0.02,0.25c1.12,0.09,1.23-0.19,2.61,0.39
					c2.34,1.12,4.16,3.24,4.92,5l-0.19,0.17c0.97,0.74,1.42,3.14,2.02,4.36c0.46,2.28,1.63,4.74,1.58,5.98
					c1.33,3.83,2.58,7.12,4.03,11.02l-0.59-0.52c0.52,0.6-0.01,0.53,0.32,1.19c-0.05-0.89,0.72,0.8,1.11,1.2
					c0.52,1.78,1.72,3.86,2.78,5.12l-0.18,0.17c1.15,1.24,1.81,3.09,2.95,4.79c0.06,0.24,0.05,0.71,0.46,1.17
					c1.03,0.6,1.38,1.05,2.59,2.1c0.79,0.83,2.15,2.11,2.94,3.02c3.75,2.24,7.82,3.79,12.35,3.74l0.32,0.31
					c4.34-0.35,9.65-1.24,12.06-3.98l0.05,0.6c1.01-0.57,1.73-1.89,1.28-1.89c0.89-0.71,1.41-2.31,2.08-2.75
					c0.6-0.98,0.38-1.37,0.66-2.26c0.89-2.12,0.94-3.04,1.1-5.23l-0.09,0.54c0.08,0.25,0.28,0.3,0.38-0.25
					c-0.06-0.84,0.23-3.08-0.36-2.25c0.35-2.41-0.72-5.51-0.89-7.87c-0.11,0.23-0.28-0.34-0.44-0.55c-0.6-2.02-1.02-4.27-1.99-5.71
					c-0.06-0.34,0.47,0.39,0.13-0.42c-0.26-0.45-0.19,0.08-0.53-0.47c-1.7-3-3.05-6.35-5.04-8.85c-3.63-4.5-7.75-8.12-12.34-11.88
					l0.13-0.04c-1.93-0.9-2.88-3.69-4.44-4.51c-0.26-0.4-0.91-1.6-0.57-1.39c-1.21-1.2-1.91-4.05-2.96-6.17
					c0.06,0.2,0.13,0.32,0.26,0.53c-0.41-2.3-1.23-4.31-1.01-6.81c0.06,0.25,0.11,0.7,0.23,0.77c0.21-0.94-0.63-2.26,0.02-2.76
					c0.05-0.54-0.24-0.4-0.26-0.07c0.51-5.35,2.17-10.96,5.47-15.61c2.9-2.88,0.86,0.42,2.66-2.24c0.25-0.11-0.02-0.29,0.09-0.23
					c0.85-0.93,1.88-0.76,2.34-1.53c-0.49-0.08,0.34-0.5,0.27-0.66c2.29-1.19,2.88-0.98,4.73-1.89l-0.1,0.23
					c2.38-1.02,5.1-0.5,7.1-0.53c12.72,3.82,19.71,14.59,25.3,24.54c5.1,10.39,9.36,20.89,10.65,32.9
					c-0.32,2.91-0.02,3.06-0.52,6.54c-0.04-0.14-0.01-0.33-0.13-0.15c0.34,0.24-0.56,2.1-0.28,2.48c-1.37,4.22-2.84,7.93-4.68,11.94
					c0.25-0.65,0.1-1.1-0.22-0.34l-0.13,0.89l-0.16,0.08c-0.18,0.54-0.26,1.18,0.1,0.7c-4.36,10.12-9.84,19.35-12.48,29.5
					c-0.72,2.36-1.37,5.83-1.52,8.48c-1.43,7.7-1,15.23,2.6,22.46C179.26,173.64,177.97,173.08,176.56,169.94z"/>
				<path class="st1" d="M95.62,82.48c0.35,0.06,1.29-0.18,0.66,0.34C96.13,82.69,95.6,82.68,95.62,82.48z"/>
				<path class="st1" d="M116.84,87.98c0.07,0.01,0.04,0.36,0.04,0.45c-0.11-0.28-0.36-0.5-0.36-0.72
					C116.65,87.95,116.72,87.87,116.84,87.98z"/>
				<path class="st1" d="M118.66,94.13c-0.2-0.04-0.72-1.35-0.98-2.11L118.66,94.13z"/>
				<path class="st1" d="M119.72,100.18c0.02,0.55-0.1,0.44-0.32-0.25C119.48,99.86,119.59,100.07,119.72,100.18z"/>
				<path class="st1" d="M120.23,100.48c0.16,0.48,0.14,0.76,0.12,1.02C120.49,101.44,119.9,100.41,120.23,100.48z"/>
				<path class="st1" d="M124.55,113.23c0.15,0.29,0.58,0.87,0.54,1.23C125.07,114.09,124.21,113.11,124.55,113.23z"/>
				<path class="st1" d="M127.78,118.72c0.11,0.18,0.13,0.27,0.3,0.44c0.15,0.36-0.19,0.09-0.38-0.16L127.78,118.72z"/>
				<polygon class="st1" points="143.25,66.63 143.64,67.13 143.44,67.13 				"/>
				<path class="st1" d="M163.84,38.33c0.61,0.17,0.31,0.33,0.4,0.4C163.72,38.5,164.52,38.62,163.84,38.33z"/>
				<polygon class="st1" points="181.71,56.44 181.6,56.27 181.95,56.15 				"/>
			</g>
		</g>
	</g>
	<g>
		<path class="st1" d="M88.79,86.17c-1.52-8.23-11.28-11.89-13.41-18.9c-2.13-5.79,1.22-3.96,3.96-0.61
			c2.13,3.05,3.66,6.4,5.49,9.45c3.66,5.79,6.1,9.45,13.11,6.4c0.91-0.31,2.79-1.21,3.4-2.12c-3.66,5.79-12.55,6.08-13.77,13.4"/>
		<g>
			<path class="st1" d="M89.75,85.91c-1.29-5.39-5.35-8.8-9.13-12.58c-2.27-2.27-3.75-4.67-4.74-7.72c-0.9-2.77,1.17-0.05,1.8,0.58
				c1.55,1.56,2.56,3.7,3.62,5.6c2.46,4.4,4.88,10.42,10.03,12.22c3.37,1.18,8.46-1.01,10.8-3.39c-0.57-0.1-1.14-0.2-1.71-0.3
				c-3.98,5.57-12.1,6.22-13.83,13.56c-0.2,0.85,1.77,0.57,1.95-0.19c1.6-6.78,9.92-7.94,13.71-13.23c0.59-0.82-1.32-0.69-1.71-0.3
				c-8.8,8.98-14.93-4.67-18.35-10.78c-1.21-2.17-4.29-7.67-7.67-6.19c-2.68,1.17,1.04,6.96,2.03,8.35
				c3.74,5.27,9.66,8.17,11.27,14.89C88.01,87.23,89.95,86.72,89.75,85.91L89.75,85.91z"/>
		</g>
	</g>
</g>
</svg>
