<?xml version="1.0" encoding="utf-8"?>
<!-- Generator: Adobe Illustrator 23.1.0, SVG Export Plug-In . SVG Version: 6.00 Build 0)  -->
<svg version="1.1" xmlns="http://www.w3.org/2000/svg" xmlns:xlink="http://www.w3.org/1999/xlink" x="0px" y="0px"
	 viewBox="0 0 216 216" style="enable-background:new 0 0 216 216;" xml:space="preserve">
<style type="text/css">
	.Arched_x0020_Green{fill:url(#SVGID_1_);stroke:#FFFFFF;stroke-width:0.25;stroke-miterlimit:1;}
	.st0{fill:#BB5F30;}
	.st1{fill:#FFFFFF;}
</style>
<linearGradient id="SVGID_1_" gradientUnits="userSpaceOnUse" x1="0" y1="216" x2="0.7071" y2="215.2929">
	<stop  offset="0" style="stop-color:#20AC4B"/>
	<stop  offset="0.9831" style="stop-color:#19361A"/>
</linearGradient>
<g id="Layer_1">
	
		<ellipse transform="matrix(0.7071 -0.7071 0.7071 0.7071 -44.7319 108.0076)" class="st0" cx="108.01" cy="108" rx="104.73" ry="104.73"/>
	<g>
		<path class="st1" d="M175.53,108.83c0.57,1.01,0.13,2.57,0.7,3.58c0.57,1,0.28,0.84,0.45,1.98c0.46,3.16,6.27,7.51,6.27,7.51
			c0.57,1.01,1.84-0.47-1.71-3.02c-2.11-1.51-2.32-3.48-3.24-6.27c0.44-1.57,0.7-2.9-0.44-4.91c-1.14-2.01-3.16-0.89-4.17-0.33"/>
	</g>
</g>
<g id="ribbon_worm">
	<g>
		<path class="st1" d="M194.96,110.59c-9.7-0.88-17.12-6.05-20.33-6.94c-2.68-0.74-7.9-2.63-9.19-3.67
			c-7.88-6.32-10.33-14.43-11.47-17.79c-2.76-8.66-6.08-16.77-6.19-25.23c-0.18-14.14-10.88-25.14-17.02-29.3
			c-6.89-4.68-21.33-6.4-29.43-5.21c-4.21,0.24-24.72,1.51-35.73,18.89c-1.6,2.52-3.01,7.9-3.77,9.98
			c-1.32,3.65-9.22,18.87-9.02,24.84c-0.42,2.79,3.27,16.46,5.26,20.72c2.18,3.74,9.87,7.49,14.37,9.54
			c3.03,1.38,10.57,1.04,13.88,1.66c6.96,1.93,10.91,1.74,17.91,1.91c7.01,0.18,11.25-1.15,17.45-3.62
			c1.61-1.19,7.81-4.48,13.38-11.29c2.11-2.58,6.66-13.5-0.73-27.07c-3.4-6.23-19.59-10.8-32.4-8.2
			C83.83,63.48,70.1,83.06,67.12,84.32c-8.8,3.73-13.99,14.9-14.23,16.89c-0.64,5.33,0.07,25.06,9.02,31.14
			c11.58,7.88,15.14,0.26,27.01,7.16c8.16,4.74,34.71,5.5,40.46,4.27c3.47-0.74,9.51-4.27,12.33-6.35
			c6.24-4.61,6.89-13.94-0.52-24.69c-6.08-8.84-23.11-19.32-31.74-24.47c-44.23-26.46-65.72-9.8-72.91-2.35
			c-6.03,6.25-6.31,29.27-5.07,34.32c1.64,6.66,7.28,14.69,10.46,20.56c3.51,6.58,10.9,7.34,17.3,10.84
			c6.21,4.02,12.79,7,20.09,9.64c5.21,1.89,25.27,3.46,31.05,3.79c5.07,0.66,12.85,0.33,18.11,0.46c4.55,0.47,21.51-2.5-37.09-9.9
			c-11.22-1.42-19.34-10.41-29.37-14.77c-2.74-1.19-21.74-19.25-22.96-22.39c-3.46-8.86,5.51-31.93,17.03-35.17
			c12.6-3.54,26.8,4.45,35.76,7.32c21.13,6.77,22.5,15.96,32.03,21.62c3.41,2.03,11.02,3.44,13.97,14.43
			c1.29,4.79-12.61,9.52-16.32,9.32c-18.65-1.01-25.92-4.53-31.51-7.48c-7.98-4.22-19.51-0.08-24.76-5.36
			c-2.82-2.83-7.15-13.73-2.7-23.11c1.43-3,8.05-7.17,9.34-9.86c2.55-5.33,17.39-18.76,25.03-20.4c29.49-6.34,28.68,6.26,31.05,9.48
			c1.85,3.03,5.19,15.57-17.09,22.77c-6.15,1.99-24.83-0.21-25.89-0.54c-9.52-3.01-19.23-6.63-20.18-10.51
			c-1.14-3.36,1.42-13.73,1.52-17.23c-0.1-2.98,2.93-14.86,5.58-23.4C75.07,40.19,83,27.02,111.1,31.28
			c3.5,0.09,8.84,1.89,11.97,3.02c3.65,1.32,17.29,15.59,16.19,26.64c-0.32,3.22,2.75,17.43,3.75,19.56
			c0.81,2.65,5.8,15.51,12.17,22.54c2.39,2.63,15.21,14.76,32.02,15.34c3.13,0.11,6.26,1.24,7.2-1.37c0.38-1.04,1.17-3.24,1.55-4.28
			"/>
	</g>
	<g>
		<path class="st1" d="M72.88,195.66c0.59,0,0.59,0,0.59,0l0,0l0,0l0,0c0,0,2.97-1.19,4.16-1.19c4.16,0,8.33,1.78,12.49,2.38
			c6.54,1.19,13.68,0.59,20.22,0.59c3.57,0,6.54,0,9.52,0c2.38,0,4.16-0.59,6.54-0.59c2.38,0,4.16,0,6.54-0.59
			c3.57-0.6,7.14-2.38,10.11-4.16c3.57-2.38,7.14-5.95,8.33-10.71c0.59-3.57-0.81-6.8-2.97-9.52c-6.1-7.66-13.98-8.96-18.08-9.87
			c-6-1.33-30.1-2.62-31.88-1.43c0,0-3.3,2.56-3.9,3.15c0,0,18.77,2.2,24.12,3.39c4.76,1.79,23.18,3.64,21.99,10.19
			c-1.19,5.35-31.51,8.25-36.26,7.66c-2.38-0.59-5.35-0.59-7.73-0.59c-1.78,0-16.06,2.97-19.03,3.57c-1.78,1.19-4.16,2.38-5.95,2.97
			c-1.78,0.6-6.54,1.19-7.14,3.57c-0.59,2.38,3.57,1.78,4.76,1.19"/>
	</g>
</g>
</svg>
