<svg width="75" height="68" viewBox="0 0 75 68" fill="none" xmlns="http://www.w3.org/2000/svg">
<path d="M44.3975 0.523734L18.8328 21.2688C18.4264 21.61 17.9127 21.7926 17.3843 21.7847H2.38629C1.75347 21.7847 1.1465 22.0388 0.699034 22.4908C0.251565 22.9428 0 23.5559 0 24.1952V43.735C0 44.3742 0.251565 44.9873 0.699034 45.4393C1.1465 45.8913 1.75347 46.1454 2.38629 46.1454H17.2564C17.7813 46.1578 18.2886 46.3381 18.7049 46.6614L44.2696 67.4064C44.6316 67.6782 45.0617 67.8424 45.5111 67.8814C45.9604 67.9203 46.4114 67.8326 46.8139 67.6271C47.2165 67.4216 47.5548 67.1068 47.7902 66.7182C48.0256 66.3296 48.149 65.8824 48.147 65.4268V2.50336C48.1819 2.04961 48.0839 1.59644 47.8656 1.19832C47.6473 0.800195 47.3183 0.475032 46.919 0.264197C46.5197 0.0533625 46.068 -0.0341625 45.6198 0.0120159C45.1715 0.0581943 44.7464 0.235814 44.3975 0.523734Z" fill="black"/>
<path d="M59.7384 19.3331C59.5174 19.107 59.2549 18.9269 58.965 18.8035C58.6752 18.6801 58.3636 18.6153 58.0491 18.6133C57.7346 18.6113 57.423 18.6722 57.1316 18.792C56.8403 18.9117 56.5753 19.0878 56.3515 19.311C56.1276 19.5343 55.9494 19.8 55.8272 20.0928C55.705 20.3856 55.6409 20.6997 55.6389 21.0175C55.6369 21.3352 55.6972 21.6499 55.8157 21.9442C55.9343 22.2385 56.1091 22.5073 56.3301 22.7333C57.8014 24.2001 58.9663 25.9495 59.7566 27.8789C60.547 29.8083 60.9466 31.8779 60.9316 33.9659C60.9058 38.173 59.2548 42.2041 56.3301 45.1995C55.8852 45.6512 55.6353 46.2625 55.6353 46.8997C55.6353 47.5368 55.8852 48.1481 56.3301 48.5998C56.5523 48.8288 56.8171 49.0104 57.1098 49.1346C57.4024 49.2588 57.7171 49.3227 58.0345 49.3227C58.352 49.3227 58.6661 49.2588 58.9588 49.1346C59.2514 49.0104 59.5163 48.8288 59.7384 48.5998C61.6451 46.6805 63.1579 44.3997 64.1901 41.8886C65.2223 39.3775 65.7541 36.6849 65.7541 33.9659C65.7541 31.2469 65.2223 28.5554 64.1901 26.0443C63.1579 23.5332 61.6451 21.2524 59.7384 19.3331Z" fill="black"/>
<path d="M66.2996 12.8761C65.8437 12.4762 65.2548 12.2652 64.6514 12.2866C64.048 12.3081 63.4748 12.5604 63.0479 12.9917C62.621 13.423 62.3722 14.0014 62.3509 14.6109C62.3297 15.2204 62.5376 15.8159 62.9335 16.2764C67.57 20.972 70.174 27.3328 70.174 33.9648C70.174 40.5968 67.57 46.9586 62.9335 51.6543C62.7025 51.8717 62.5185 52.1341 62.3925 52.4266C62.2666 52.719 62.2017 53.0354 62.2017 53.3544C62.2017 53.6733 62.2666 53.9887 62.3925 54.2811C62.5185 54.5736 62.7025 54.837 62.9335 55.0545C63.1437 55.2879 63.4007 55.4737 63.6871 55.5998C63.9735 55.7259 64.2828 55.7891 64.5952 55.7858C64.914 55.7898 65.2302 55.7268 65.5236 55.6009C65.817 55.4749 66.0812 55.2891 66.2996 55.0545C69.0565 52.2936 71.2448 49.0082 72.7381 45.3886C74.2315 41.769 75.0001 37.8862 75.0001 33.9648C75.0001 30.0434 74.2315 26.1606 72.7381 22.541C71.2448 18.9213 69.0565 15.637 66.2996 12.8761Z" fill="black"/>
</svg>
