<svg width="108" height="108" viewBox="0 0 108 108" fill="none" xmlns="http://www.w3.org/2000/svg">
<circle cx="53.5" cy="53.5" r="53.5" fill="#0E0D0D"/>
<path d="M67.638 71.9163C66.7539 72.3148 66.4071 72.9696 65.3966 73.2002C65.009 72.7088 62.9831 72.8213 62.4082 72.8213C61.5407 72.8213 60.7727 73.0108 59.8867 73.0108C59.0677 73.0108 58.9939 72.4409 58.382 72.2636C57.0741 71.8846 55.6532 72.2148 54.3767 71.4532C53.5863 70.9817 53.531 69.9798 52.4259 69.9798C51.8526 69.9798 50.8662 69.7899 50.3609 70.0746C49.932 70.3163 48.7055 70.3587 48.213 70.3587C47.3367 70.3587 46.4258 70.5481 45.515 70.5481C44.0122 70.5481 41.7455 70.9374 40.3682 70.3166C39.5093 69.9294 38.5367 69.8068 37.6599 69.4115C36.9381 69.0862 36.3167 68.5956 35.6054 68.275C34.0921 67.5928 32.7744 66.2564 31.6276 65.0931L31.5896 65.0546C28.8527 62.2789 26.7596 58.8299 24.0251 56.0566C22.673 54.6853 21.0542 53.8394 19.4905 52.7415C17.9616 51.668 17.0874 50.0262 15.62 48.8687C14.2488 47.7871 13.195 46.4916 11.5108 45.7325C10.8198 45.421 10.2173 45.0818 9.54967 44.7432C8.7921 44.3591 8.78111 43.5131 9.73645 43.4593C11.4191 43.3645 12.5442 42.3352 14.0427 41.6702C15.3721 41.0804 17.4505 40.8073 18.8886 40.8073C22.3334 40.8073 25.3985 41.5694 28.6945 42.3122C29.4703 42.487 30.2132 42.6072 30.9878 42.8489C32.07 43.1866 32.5456 43.6452 33.4989 44.3012C34.8981 45.2641 35.534 47.0809 36.7364 48.3004C38.3283 49.9149 39.8912 51.4264 41.3021 53.2151C41.7915 53.8355 42.566 54.4864 43.1284 55.0568C43.5726 55.5073 43.8372 56.1081 44.2491 56.5722C45.0207 57.4418 44.8223 59.4242 45.6914 60.1294C46.2005 60.5424 46.7326 61.6322 47.0508 62.2131C47.4007 62.8519 47.7471 63.4932 48.0677 64.1074C48.736 65.3877 49.9835 66.555 50.4958 67.854C50.7888 68.5968 51.6631 69.2221 52.4155 69.2221C53.3453 69.2221 53.0284 68.4201 52.8928 67.8014C52.5752 66.3518 51.2014 65.3057 51.2014 63.6865C51.2014 61.2235 51.9485 58.8399 51.9485 56.3512C51.9485 51.9244 52.0529 47.3511 53.256 43.0805C53.7637 41.2783 55.0726 40.2982 55.7256 38.5762C55.9155 38.0754 56.4209 37.692 56.6595 37.2081C56.9006 36.719 57.1112 36.2284 57.4585 35.7978C58.0212 35.1003 58.6485 34.2907 59.1292 33.5246C60.8531 30.7771 62.7187 28.074 65.0646 25.6948C66.508 24.2309 70.8448 20.8647 72.7225 22.7691C73.6884 23.7487 74.2167 25.2053 74.9224 26.3683C75.3624 27.0934 75.3771 27.7021 76.3232 27.9153C77.0067 28.0694 77.6733 28.1354 78.3778 28.2942C79.046 28.4448 80.0928 27.978 80.1522 29.0625C80.1992 29.9197 79.9654 30.7079 79.9654 31.5251C79.9654 33.0953 79.2183 34.6056 79.2183 36.1767C79.2183 37.0374 78.9474 38.1379 78.6995 38.955C78.4268 39.8538 78.5156 40.8328 78.191 41.7544C77.6251 43.3615 77.1769 45.1406 76.4581 46.6797C76.0218 47.6139 75.5299 48.4664 75.1092 49.4264C74.7924 50.1494 74.6837 51.0321 74.2583 51.7101C73.3356 53.1806 73.0974 55.0319 72.5358 56.6775C72.1695 57.7505 71.4171 58.0014 70.7198 58.7086L68.9454 60.5082C67.8313 61.6382 66.1628 62.6424 65.3966 64.0022C64.6116 65.3956 62.8044 66.084 61.7648 67.1384C61.2354 67.6753 60.1565 68.3038 59.7933 68.9485C59.4346 69.5851 58.081 70.1696 57.9358 70.8323C57.7265 71.7878 58.8201 71.5272 59.2744 71.1585C59.714 70.8019 60.8279 70.9545 61.3809 70.6429C62.8938 69.7904 64.472 69.329 65.7702 68.0855C67.2003 66.7157 69.2185 65.8713 70.9066 64.9494C71.7984 64.4623 72.7146 64.0876 73.5734 63.5391C74.3739 63.0279 75.2127 62.9488 76.0431 62.5499C76.9308 62.1234 78.0803 61.6939 79.0211 61.4554C79.9501 61.2199 80.6948 60.3015 81.6049 59.982C82.4381 59.6895 83.358 60.1294 84.1679 60.1294C84.9511 60.1294 85.7778 60.3188 86.5961 60.3188C87.697 60.3188 90.2167 58.3312 91.3174 59.2243C92.5863 60.2538 94.1816 59.2606 95.5615 59.5716C96.6252 59.8113 95.4328 63.5579 95.2917 64.2022C94.8743 66.1069 93.3602 66.5617 91.774 67.1805C90.7217 67.5909 89.7404 68.2557 88.661 68.6538C88.1039 68.8593 87.2646 68.8559 86.7829 69.1274C85.629 69.7776 83.7748 68.7258 82.5803 69.2642C81.3441 69.8215 79.5501 69.601 78.191 69.601C76.9542 69.601 75.5844 69.9798 74.362 69.9798C72.8653 69.9798 71.2032 70.787 69.7963 71.3059C69.1041 71.5611 68.2866 71.6239 67.638 71.9163Z" fill="#FFFDFD" stroke="#FFFEFE" stroke-width="0.5" stroke-linecap="round"/>
<path d="M52.8993 69.466C51.5695 64.8554 52.2575 59.3162 52.2575 54.512C52.2575 51.3077 52.4297 47.9468 53.3807 44.8986C54.3718 41.7219 56.2553 39.7498 58.1052 37.1842C61.2237 32.8594 64.559 25.3654 69.872 23.8917C72.4506 23.1765 72.6123 23.7171 73.2951 26.2061C73.555 27.1536 73.8401 29.5218 75.0423 29.5885C76.413 29.6646 77.9999 29.2781 79.339 29.6083C80.0364 29.7803 79.3439 34.767 79.2855 35.2853C78.4645 42.5718 75.777 48.8012 72.7246 55.224C70.3837 60.1497 66.0937 62.6998 62.5267 66.2616C61.8446 66.9427 61.173 67.4269 60.6012 68.2198C59.8732 69.2295 58.1423 69.6082 57.606 70.732C57.4916 70.9718 61.8011 70.4824 62.2058 70.3561C65.0362 69.4729 67.0586 67.8226 69.5868 66.3407C73.5596 64.0121 77.411 62.0572 81.7101 60.6439C83.3057 60.1194 85.4014 60.6501 87.0587 60.545C88.3422 60.4636 90.6886 58.6211 91.9793 59.5758C92.8034 60.1853 93.9701 59.6966 94.921 59.8725C95.5468 59.9882 95.2598 61.7698 95.2598 62.345C95.2598 65.3629 91.6452 67.2816 89.5547 68.2396C88.0526 68.928 86.0771 68.1356 84.4914 68.6154C81.8576 69.4124 79.4562 69.8221 76.7182 69.8221C73.9154 69.8221 71.3831 70.3128 68.6597 71.0682C66.6351 71.6298 64.2853 72.6277 62.2058 72.6704C60.953 72.6962 59.4249 73.3101 58.1944 73.0067C57.7668 72.9013 57.1649 71.909 56.7503 71.6023" stroke="#0D0D0C" stroke-linecap="round"/>
<path d="M56.7507 71.6027C53.8764 71.6027 52.5349 70.3851 50.5108 68.0619C49.2993 66.6715 46.5881 64.829 46.4815 62.7014C46.4234 61.541 45.2953 59.9262 44.7343 59.0618C42.6348 55.8265 40.319 52.792 37.8526 49.9034C36.3975 48.1994 35.4904 46.3133 33.645 45.1759C31.7419 44.0028 28.941 43.7631 26.7632 43.1187C24.9524 42.583 23.731 42.0506 21.7713 42.0506C20.021 42.0506 17.8634 41.6492 16.1553 42.0704C15.0339 42.3469 13.8301 43.3831 12.7144 43.4748C12.322 43.507 8.46334 43.8858 9.93316 44.7012C13.185 46.5051 15.4655 48.5483 18.2412 51.2287C21.1158 54.0047 23.8364 56.9295 26.7276 59.6948C29.4238 62.2736 31.7484 65.5143 34.9287 67.4092C37.3238 68.8363 39.7989 70.1785 42.5949 70.1785C44.5337 70.1785 46.4338 69.8224 48.3357 69.8224C50.071 69.8224 55.2769 69.8224 53.5416 69.8224" stroke="#0D0D0C" stroke-linecap="round"/>
<path d="M53.2209 69.8211C58.9919 62.1987 63.9489 53.6625 67.3411 44.4625C68.4144 41.5517 69.4502 38.8754 71.0138 36.2733C71.6542 35.2074 72.3911 34.2269 72.7966 32.9898C72.9828 32.4216 73.3536 31.2368 73.7593 31.0117" stroke="#0D0D0C" stroke-linecap="round"/>
<path d="M69.6711 29.8574C69.6711 32.5231 69.9921 35.079 69.9921 37.6905" stroke="#0D0D0C" stroke-linecap="round"/>
<path d="M66.9525 28.6074C66.9525 33.4551 65.6057 38.8908 67.7939 43.625" stroke="#0D0D0C" stroke-linecap="round"/>
<path d="M62.1624 36.1152C62.1624 39.1337 62.7074 41.1127 64.0395 43.629C64.564 44.6197 65.6344 45.724 65.9167 46.7527" stroke="#0D0D0C" stroke-linecap="round"/>
<path d="M58.6763 40.624C58.6763 43.1742 60.2343 46.594 61.7249 48.6153C62.3132 49.4131 63.0585 51.2442 63.8109 51.6615" stroke="#0D0D0C" stroke-linecap="round"/>
<path d="M54.6533 46.126C55.5182 49.0973 56.682 50.9544 58.7746 53.1427C59.5476 53.9511 61.0814 55.2213 61.5364 56.1377" stroke="#0D0D0C" stroke-linecap="round"/>
<path d="M53.5417 53.0869C54.1672 55.0872 55.1506 56.5686 56.43 58.0716C57.0287 58.775 58.3342 59.8048 58.6763 60.5639" stroke="#0D0D0C" stroke-linecap="round"/>
<path d="M52.2585 60.21C53.9929 60.6223 54.7872 61.6151 56.27 62.3463C56.9447 62.679 57.2715 63.4144 58.035 63.4144" stroke="#0D0D0C" stroke-linecap="round"/>
<path d="M55.1207 75.5299C54.5839 76.5059 53.363 76.8609 52.3954 76.3287C51.4279 75.7965 51.0739 74.5753 51.6107 73.5994C52.1475 72.6234 53.3684 72.2684 54.3359 72.8006C55.3035 73.3327 55.6575 74.5539 55.1207 75.5299Z" fill="#FFFCFC" stroke="#FFFFFD"/>
<circle cx="59.0334" cy="79.9158" r="2.62865" fill="#FFFCFC" stroke="#FFFFFD"/>
<circle cx="64.3519" cy="73.3461" r="2.31579" fill="#FFFCFC" stroke="#FFFFFD"/>
<circle cx="69.0454" cy="80.5427" r="2.62865" fill="#FFFCFC" stroke="#FFFFFD"/>
<path d="M64.2461 87.485C64.2461 88.908 63.2174 89.9709 62.0548 89.9709C60.8922 89.9709 59.8635 88.908 59.8635 87.485C59.8635 86.0619 60.8922 84.999 62.0548 84.999C63.2174 84.999 64.2461 86.0619 64.2461 87.485Z" fill="#FFFCFC" stroke="#FFFFFD"/>
<circle cx="44.0156" cy="75.5359" r="2.62865" fill="#FFFCFC" stroke="#FFFFFD"/>
<path d="M53.5283 81.4808C53.5283 82.7116 52.4023 83.7966 50.8997 83.7966C49.397 83.7966 48.271 82.7116 48.271 81.4808C48.271 80.2501 49.397 79.165 50.8997 79.165C52.4023 79.165 53.5283 80.2501 53.5283 81.4808Z" fill="#FFFCFC" stroke="#FFFFFD"/>
<path d="M64.0487 71.7236C62.0091 71.7236 59.9754 71.6388 58.0751 72.5971C57.4675 72.9035 56.1558 73.7202 55.5007 73.7202" stroke="#FFFFFA" stroke-linecap="round"/>
<path d="M67.7942 79.2122C65.9144 79.2122 61.6072 79.8564 60.7547 77.479C60.2073 75.9525 59.0759 75.0143 58.4082 73.6602" stroke="#FFFFFA" stroke-linecap="round"/>
<path d="M62.4739 84.9502C62.4739 83.0006 62.6988 81.108 62.6988 79.21" stroke="#FFFFFA" stroke-linecap="round"/>
<path d="M58.1997 77.2138C58.1997 76.0121 58.1997 74.8104 58.1997 73.6088C58.1997 72.9906 57.7498 72.554 57.7498 71.9727" stroke="#FFFFFA" stroke-linecap="round"/>
<path d="M54.0273 75.5371L52.1502 79.1613" stroke="#FFFFFA" stroke-linecap="round"/>
<path d="M46.2776 74.7179C47.4386 74.7179 48.5355 74.5335 49.6518 74.4683C50.1325 74.4403 50.5348 74.2188 51.0015 74.2188" stroke="#FFFFFA" stroke-linecap="round"/>
<path d="M10.061 44.7676C15.8017 44.7676 19.4268 50.088 24.2327 52.754C27.0565 54.3205 30.1884 55.0738 32.9932 56.7334C34.579 57.6717 36.0155 58.8319 37.3297 60.1859C38.7389 61.6377 40.6112 62.4571 42.2285 63.6106C43.3769 64.4297 44.7235 65.2619 46.0027 65.7875C47.2053 66.2817 48.6649 66.79 49.7518 67.4791C50.3647 67.8677 50.9754 68.4677 51.6763 68.727" stroke="#0D0D0C" stroke-linecap="round"/>
<path d="M64.6658 69.9035C66.4536 69.9035 67.8838 68.9649 69.6716 68.9649C71.2359 68.3392 72.9161 67.7135 74.3646 67.7135C77.1804 66.7749 80.4022 66.4184 82.514 64.9192C84.516 63.4979 86.5737 62.6213 88.8607 61.8365C90.1524 61.3933 91.6841 61.2996 92.8237 60.5176" stroke="#0D0D0C" stroke-linecap="round"/>
<path d="M15.2322 42.998C16.1582 44.7488 17.2878 46.3617 18.3608 48.0039" stroke="#0D0D0C" stroke-linecap="round"/>
<path d="M19.6128 42.373C20.1143 45.5584 20.8952 48.2855 22.1157 51.1333" stroke="#0D0D0C" stroke-linecap="round"/>
<path d="M23.7828 43.5195C23.7828 45.336 23.3908 47.9783 24.3326 49.6203C24.9504 50.6973 25.5284 51.8853 26.0323 53.0035" stroke="#0D0D0C" stroke-linecap="round"/>
<path d="M27.8606 44.251C27.8606 46.1815 27.5168 48.6152 28.0231 50.4847C28.3661 51.7512 28.6437 53.0269 28.998 54.2627" stroke="#0D0D0C" stroke-linecap="round"/>
<path d="M31.6657 45.502C31.6657 48.4586 30.8773 53.4795 32.7527 56.1394" stroke="#0D0D0C" stroke-linecap="round"/>
<path d="M35.2556 48.6299C35.2556 52.4791 36.6043 56.2693 37.7585 59.893" stroke="#0D0D0C" stroke-linecap="round"/>
<path d="M39.5291 53.5039C39.5291 55.8084 39.2374 58.0945 40.079 60.2286C40.4103 61.0689 40.8788 62.0582 40.8788 62.9878" stroke="#0D0D0C" stroke-linecap="round"/>
<path d="M17.709 49.7598H19.0587" stroke="#0D0D0C" stroke-linecap="round"/>
<path d="M20.8643 53.6357H24.2385" stroke="#0D0D0C" stroke-linecap="round"/>
<path d="M25.2444 56.1367L30.2502 55.511" stroke="#0D0D0C" stroke-linecap="round"/>
<path d="M26.7075 59.2432H35.7054" stroke="#0D0D0C" stroke-linecap="round"/>
<path d="M30.876 63.6475L40.6544 63.7366" stroke="#0D0D0C" stroke-linecap="round"/>
<path d="M40.887 66.7764L45.8928 66.1506" stroke="#0D0D0C" stroke-linecap="round"/>
<path d="M70.2966 37.9941L75.2959 38.2815" stroke="#0D0D0C" stroke-linecap="round"/>
<path d="M69.0449 41.1201L77.8052 41.7458" stroke="#0D0D0C" stroke-linecap="round"/>
<path d="M67.6482 45.5166H75.9713" stroke="#0D0D0C" stroke-linecap="round"/>
<path d="M65.2905 49.8809C67.8902 49.8809 70.4898 49.8809 73.0895 49.8809C73.7037 49.8809 74.1714 49.8809 74.6765 49.8809" stroke="#0D0D0C" stroke-linecap="round"/>
<path d="M63.1487 55.499H71.8609" stroke="#0D0D0C" stroke-linecap="round"/>
<path d="M60.8989 59.2432H66.5226" stroke="#0D0D0C" stroke-linecap="round"/>
<path d="M57.5251 63.7363L65.2909 63.0214" stroke="#0D0D0C" stroke-linecap="round"/>
<path d="M71.5481 67.8953C71.9175 66.7138 72.8044 65.96 73.1227 64.9004" stroke="#0D0D0C" stroke-linecap="round"/>
<path d="M75.6155 67.0898C76.2074 64.6452 76.544 65.4606 77.5455 63.2383" stroke="#0D0D0C" stroke-linecap="round"/>
<path d="M80.3084 65.5237C80.3084 63.9443 80.2643 61.7589 82.1855 61.1436" stroke="#0D0D0C" stroke-linecap="round"/>
<path d="M84.0164 64.1299C86.5234 64.1299 89.0057 64.4743 91.5073 64.4743C92.3532 64.4743 93.1758 64.216 94.0043 64.216" stroke="#0D0D0C" stroke-linecap="round"/>
<path d="M78.3335 66.5406C80.316 66.5406 82.288 66.4153 84.2316 66.8419C85.3439 67.0861 86.412 67.2294 87.5466 67.2294" stroke="#0D0D0C" stroke-linecap="round"/>
<path d="M73.512 68.2646C75.0106 68.2646 76.2314 68.7431 77.6449 69.1065C77.9574 69.1869 78.3541 69.1257 78.6782 69.1257" stroke="#0D0D0C" stroke-linecap="round"/>
<path d="M41.5298 75.0179C41.7685 74.0154 42.4327 73.3901 43.3992 73.1484" stroke="#0C0B0B" stroke-width="0.5" stroke-linecap="round"/>
<path d="M51.3994 74.7861C51.5862 73.9142 51.9871 73.207 52.8015 72.7998" stroke="#0C0B0B" stroke-width="0.5" stroke-linecap="round"/>
<path d="M62.5708 74.8694C61.9754 74.3463 61.8962 73.7253 62.1034 73" stroke="#0C0B0B" stroke-width="0.5" stroke-linecap="round"/>
<path d="M67.4726 81.8694C66.8041 81.3472 66.9603 80.7427 67.2389 80" stroke="#0C0B0B" stroke-width="0.5" stroke-linecap="round"/>
<path d="M56.3682 80.2759C56.3977 79.0959 57.0938 78.3357 58.1208 77.8223" stroke="#0C0B0B" stroke-width="0.5" stroke-linecap="round"/>
<path d="M48.3063 81.21C48.1793 82.0036 48.2349 82.6234 49.1241 82.8457" stroke="#0C0B0B" stroke-width="0.5" stroke-linecap="round"/>
<path d="M59.9902 88.2207C60.1009 88.6853 60.2065 89.0342 60.6913 89.1554" stroke="#0C0B0B" stroke-width="0.5" stroke-linecap="round"/>
</svg>
