<?xml version="1.0" encoding="utf-8"?>
<!-- Generator: Adobe Illustrator 23.1.0, SVG Export Plug-In . SVG Version: 6.00 Build 0)  -->
<svg version="1.1" id="Anemones" xmlns="http://www.w3.org/2000/svg" xmlns:xlink="http://www.w3.org/1999/xlink" x="0px" y="0px"
	 viewBox="0 0 216 216" style="enable-background:new 0 0 216 216;" xml:space="preserve">
<style type="text/css">
	.Arched_x0020_Green{fill:url(#SVGID_1_);stroke:#FFFFFF;stroke-width:0.25;stroke-miterlimit:1;}
	.st0{fill:#BB5F30;}
	.st1{fill:#FFFFFF;}
	.st2{display:none;}
	.st3{display:inline;fill:#BB5F30;}
	.st4{display:inline;fill:#FFFFFF;}
</style>
<linearGradient id="SVGID_1_" gradientUnits="userSpaceOnUse" x1="0" y1="216" x2="0.7071" y2="215.2929">
	<stop  offset="0" style="stop-color:#20AC4B"/>
	<stop  offset="0.9831" style="stop-color:#19361A"/>
</linearGradient>
<g id="Layer_13">
	<g id="Layer_1">
		
			<ellipse transform="matrix(0.7071 -0.7071 0.7071 0.7071 -44.7348 107.9999)" class="st0" cx="108" cy="108" rx="104.73" ry="104.73"/>
	</g>
	<g>
		<path class="st1" d="M53.22,146.57c-1.02-18.51,1.96-33.52,13.59-48.33c8.11-10.33-1.6-29.65,5.08-33.65
			c3.26-1.95,3.65-3.25,12.12-3.69c8.91-0.45,15.02,3.69,24.46,3.25c1.6-0.07,17.73-0.18,10.52,8.03
			c-5.9,6.72-5.13,19.08-5.13,25.56c0,12.48-1.38,18.53,3.52,28.34c5.35,11.14,12.02,24.8-2.78,31.43
			c-9.92,4.44-23.18,3.45-36.7,0.79C71.78,157.09,37.8,163.3,53.22,146.57"/>
	</g>
	<g id="Layer_15">
		<g>
			<path class="st1" d="M61.89,62.32c-24.88-4.58-34.37,7.89-50.23,14.25c18.3,2.45,27.55-11.28,47.74-8.63c-4.51,1.07,0,0,0,0
				c-16.15,2.61-24.06,17.31-27.37,26.53c8.26-5.12,13.49-9.52,19.99-13.34c3.92-2.3,5.48-6.14,13.65-7.5l5.19-0.42
				c-11.14,7.91-21.53,22.53-21.62,37.51c8.26-10,15.67-19.58,20.75-23.18c4.07-2.89,8.4-5.11,13.13-10.18
				c-0.04,2.75-2.04,12.11-4.72,15.9c-2.9,6.68-6.43,18.42-4.95,23.46c0.74-1.93,6.98-9.87,11.58-18.48
				c4.75-7.72,7.56-17.9,7.56-17.9c0.99,3.11,1.07,12.52,3.74,15.93c2.52,6.25,9.43,13.67,10.96,22.53
				c2.39-9.47-1.47-10.99-1.47-17.76c-3.33-6.65-3.11-20.34-4.45-22.15c2.59,4.59,6.61,9.15,12.65,11.43
				c5.29,2,16.16,5.25,22.84,0.2c-8-0.95-8.51,1.28-26.88-12.86c8.25,3.76,28.79,7.56,34.65,16.21c-3.38-18.74-22.82-18.66-29-21.7
				c5.48,0.38,15.76,2.61,20.7,2.96c4.93,0.34,4.41,1.14,9.4,0.65c6.63-0.37,11.02-0.17,18.2-0.5c-9-2.95-8.1-3.65-16.93-3.85
				c-8.51-0.59-20.91-5.98-27.65-6.45c11.54,0.39,28.5-6.73,38.71-10.99c-6.69,1.19-18.81,1.11-25.53,2.72
				c-8.39,1.9-8.97-1.14-17.39,1.18c4.67-6.99,4.96-8.2,22-9.2c-9.6-1.35-12.29-4.56-20.86-2.14c-6.18,1.74-8.64,6.17-13.01,11.21
				c3.09-7.67-2.54-15.3-10.75-17.93c-3.89-4.16,8.67,14.7-0.31,17.24c1.16-12.51-23.53-18.07-23.53-18.07s13.26,10.3,13.83,17.32
				c-21.18-22.08-27.67-6.37-44.69-5.49c10.82,4.71,22.8-8.83,35.25,8.47c-9.24-4.2-18.85-8.2-29.63-5.7
				c-8.44,1.96-11.51,0.75-20.28,0.14C30.76,61.7,60.4,55.81,61.89,62.32"/>
			<g>
				<path class="st0" d="M62.21,61.59c-9.3-1.58-18.25-1.14-27.09,2.24c-8.37,3.2-15.63,8.71-23.9,12.14
					c-0.7,0.29-0.71,1.24,0.11,1.33c16.91,1.89,30.74-10.52,47.74-8.63c0.05-0.47,0.09-0.95,0.14-1.42
					c-0.66,0.16-1.31,0.31-1.97,0.47c0.12,0.46,0.25,0.93,0.37,1.39c0.66-0.16,1.32-0.31,1.97-0.47c1.23-0.29,0.82-1.61-0.37-1.39
					c-14.22,2.66-23.33,14.1-28.11,27.1c-0.37,1,1.06,0.92,1.58,0.6c7.24-4.56,14.66-9.35,21.55-14.41c2.86-2.1,5.03-4.28,8.51-5.48
					c2.56-0.89,5.38-0.88,8.05-1.1c-0.19-0.4-0.38-0.8-0.57-1.21c-12.11,8.88-21.5,22.7-21.95,38.04c-0.03,0.95,1.38,0.75,1.8,0.24
					c5.4-6.56,10.62-13.33,16.53-19.44c5.19-5.37,12.11-8.53,17.35-13.91c-0.6-0.08-1.2-0.16-1.8-0.24
					c-0.7,13.34-12.78,25.8-9.65,39.55c0.2,0.86,1.62,0.45,1.89-0.13c3.03-6.48,8.12-12.17,11.58-18.48
					c3.14-5.72,5.79-11.6,7.56-17.9c-0.63,0.04-1.26,0.09-1.89,0.13c0.74,2.76,0.91,5.67,1.34,8.49c0.49,3.24,1.61,5.63,2.89,8.56
					c3.25,7.42,8.76,13.25,10.47,21.42c0.2,0.95,1.79,0.39,1.95-0.32c1.58-7.04-0.5-14.34-2.67-21.02
					c-1.26-3.9-1.61-8.14-2.06-12.19c-0.25-2.25-0.19-5.02-1.3-7.07c-0.59,0.29-1.18,0.58-1.76,0.87
					c6.71,11.33,24.87,19.76,37.02,11.67c0.57-0.38,0.33-1.13-0.32-1.2c-3.05-0.34-6.11-0.29-9.04-1.32
					c-6.4-2.24-12.14-7.34-17.43-11.39c-0.43,0.42-0.86,0.83-1.29,1.25c10.83,4.73,26.83,5.83,34.32,15.97
					c0.49,0.66,2.03,0.19,1.85-0.69c-1.55-7.53-5.76-12.98-12.54-16.52c-5.34-2.79-11.47-3.12-16.88-5.59
					c-0.29,0.47-0.59,0.94-0.88,1.4c7.86,0.67,15.73,2.2,23.55,3.27c8.11,1.11,16.82,0.19,25.01-0.15c0.67-0.03,1.65-1.07,0.63-1.41
					c-3.03-1.02-6.04-2.39-9.16-3.12c-3.47-0.82-7.02-0.6-10.53-1.07c-8.56-1.16-16.51-5.3-25.12-6.16
					c-0.13,0.49-0.27,0.98-0.4,1.47c13.58,0.14,26.93-6,39.22-11.13c0.85-0.35,0.57-1.49-0.36-1.34
					c-7.69,1.25-15.54,1.08-23.25,2.26c-3.68,0.56-6.98,1.28-10.73,0.9c-3.19-0.33-6.11,0.01-9.22,0.78c0.33,0.33,0.67,0.67,1,1
					c1.67-2.51,3.21-5.15,5.99-6.55c4.35-2.2,10.39-1.93,15.12-2.22c0.88-0.05,1.59-1.28,0.4-1.47c-5.99-0.95-12.24-3.93-18.41-2.76
					c-7.9,1.49-11.64,6.39-16.6,12.25c0.58,0.14,1.16,0.29,1.74,0.43c1.72-5.1,0.62-10.48-3.48-14.2c-1.76-1.59-6.48-5.6-9.14-5.13
					c-0.37,0.07-0.73,0.38-0.79,0.76c-0.7,4.19,8.77,14.35,1.24,17.05c0.39,0.21,0.78,0.42,1.17,0.63
					C93.71,45.6,77.94,40.3,69.01,38.25c-0.65-0.15-1.85,0.69-1.07,1.3c5.22,4.08,12.59,10.08,13.6,17.01
					c0.62-0.23,1.23-0.46,1.85-0.69c-6.22-6.34-13.58-12.75-23.03-11.92c-7.81,0.69-14.52,5.56-22.46,6.12
					c-0.68,0.05-1.64,1.03-0.63,1.41c4.42,1.69,8.82,1.02,13.36,0.21c9.23-1.65,15.7,0.31,21.56,8.02c0.48-0.37,0.96-0.74,1.43-1.11
					c-7.2-3.25-15.01-6.7-23.08-6.53c-4.51,0.09-8.73,1.34-13.2,1.76c-4.57,0.43-9.3-0.49-13.85-0.84c-0.67-0.05-1.81,0.6-1.07,1.3
					c4.58,4.36,12.31,4.49,18.22,4.83c3.75,0.22,18.72-1.23,20.28,3.45c0.31,0.92,2.23,0.39,1.93-0.52
					c-1.5-4.53-10.4-3.91-13.96-4.07c-7.56-0.35-19.06,0.81-24.99-4.84c-0.36,0.43-0.71,0.87-1.07,1.3c6.5,0.5,12.59,1.35,19.06,0.2
					c11.34-2.02,20.33,0.66,30.62,5.3c0.57,0.26,2-0.36,1.43-1.11c-3.9-5.14-8.92-9.4-15.7-9.41c-6.63-0.01-13.42,3.18-19.88,0.7
					c-0.21,0.47-0.42,0.94-0.63,1.41c6.63-0.47,12.33-3.3,18.56-5.27c10.24-3.24,18.51,3.52,25.32,10.46
					c0.56,0.57,1.99,0.26,1.85-0.69c-1.04-7.2-8.63-13.4-14.05-17.64c-0.36,0.43-0.71,0.87-1.07,1.3
					c8.28,1.9,23.35,6.91,22.88,17.41c-0.03,0.58,0.7,0.8,1.17,0.63c6.03-2.17,4-8.99,2.28-13.63c-0.47-1.27-1.01-2.5-1.53-3.75
					c-0.61-1.48-2.41-0.72-1.37,0.03c2.86,2.06,5.72,2.57,8.26,5.31c3.07,3.29,3.7,7.78,2.3,11.92c-0.36,1.06,1.27,1,1.74,0.43
					c4.78-5.64,8.5-10.64,16.4-11.59c5.35-0.64,11.07,2.11,16.33,2.95c0.13-0.49,0.27-0.98,0.4-1.47
					c-5.32,0.33-11.16,0.35-16.15,2.49c-3.12,1.34-4.94,4.44-6.74,7.14c-0.49,0.74,0.33,1.17,1,1c3.92-0.97,7.3-0.64,11.24-0.48
					c3.21,0.13,6.3-0.82,9.44-1.3c7.28-1.11,14.71-0.89,21.99-2.07c-0.12-0.45-0.24-0.89-0.36-1.34
					c-11.95,4.99-24.99,11-38.19,10.86c-0.9-0.01-1.58,1.35-0.4,1.47c7.64,0.76,14.96,3.97,22.43,5.65
					c3.83,0.86,7.67,0.69,11.54,1.22c3.54,0.49,7.03,2.24,10.39,3.36c0.21-0.47,0.42-0.94,0.63-1.41c-8.48,0.35-17.35,1.15-25.74,0
					c-7.41-1.01-14.86-2.47-22.31-3.1c-0.75-0.06-1.98,0.9-0.88,1.4c4.49,2.05,9.6,2.62,14.22,4.4c7.7,2.97,12.7,8.79,14.37,16.88
					c0.62-0.23,1.23-0.46,1.85-0.69c-7.72-10.47-23.84-11.59-34.98-16.45c-0.68-0.3-2.16,0.58-1.29,1.25
					c5.39,4.13,10.91,8.68,17.22,11.36c3.21,1.36,6.67,1.28,10.07,1.66c-0.11-0.4-0.21-0.8-0.32-1.2c-11.2,7.46-28-1.53-33.96-11.6
					c-0.47-0.79-2.26-0.05-1.76,0.87c1.17,2.16,0.99,5.51,1.26,7.88c0.41,3.72,0.93,7.42,1.93,11.03c1.87,6.76,4.21,13.6,2.63,20.63
					c0.65-0.11,1.3-0.22,1.95-0.32c-1.6-7.67-6.31-13.71-9.98-20.45c-3.19-5.86-3.05-11.75-4.72-18.01
					c-0.21-0.78-1.7-0.55-1.89,0.13c-1.61,5.73-3.89,11.3-6.75,16.52c-3.71,6.78-9.14,12.9-12.4,19.87
					c0.63-0.04,1.26-0.09,1.89-0.13c-1.61-7.06,1.87-15.54,4.45-21.98c2.28-5.69,4.9-10.88,5.23-17.18c0.05-0.99-1.37-0.68-1.8-0.24
					c-4.96,5.09-11.45,8.05-16.45,13.01c-6.33,6.29-11.77,13.47-17.43,20.34c0.6,0.08,1.2,0.16,1.8,0.24
					c0.44-14.94,9.49-28.33,21.29-36.97c0.69-0.51,0.16-1.27-0.57-1.21c-5.98,0.49-11.11,1.34-15.87,5.32
					C47.88,83.8,39.32,89.01,31.38,94c0.53,0.2,1.05,0.4,1.58,0.6c4.55-12.39,12.99-23.42,26.62-25.96
					c-0.12-0.46-0.25-0.93-0.37-1.39c-0.66,0.16-1.31,0.31-1.97,0.47c-1.21,0.29-0.83,1.67,0.37,1.39c0.66-0.16,1.32-0.31,1.97-0.47
					c0.78-0.18,1.17-1.31,0.14-1.42c-7.76-0.86-14.91,0.47-22.18,3.15c-8.51,3.14-16.26,6.52-25.56,5.48
					c0.04,0.44,0.07,0.89,0.11,1.33c6.85-2.83,13.02-6.93,19.63-10.24c9.5-4.75,19.44-5.65,29.84-3.88
					C62.55,63.22,63.51,61.81,62.21,61.59L62.21,61.59z"/>
			</g>
		</g>
		<g class="st2">
			<path class="st3" d="M66.65,65.73c2.29,2.62,11.21,5.32,15.49,6.09c5.89,1.06,13.02,1.39,18.65,0.82
				c4.18-0.19,11.55-1.24,7.12-4.24c-3.21-2.15-11.21-3.74-15.52-4.36C84.27,63.07,67.47,61.16,66.65,65.73"/>
		</g>
		<g class="st2">
			<path class="st4" d="M65.96,65.63c5.57,1.11,3.23,5.42,5.35,5.42c2.67,0,5.12-2.3,8.02,0.82c2.67-2.9,6.68-0.22,9.13,0.45
				c2-1.27,4.46-0.45,6.01,0.22c-0.22-0.45,3.34,0.36,1.88,0.36c1.8,0.49,3.8-1.85,4.58-0.14c-2.63-1.71,8.34-2.65,8.47-1.34
				c0.53,5.77-13.14,5.12-16.26,4.9c-3.79-0.45-32.75-0.67-28.29-9.58"/>
		</g>
		<g>
			<path class="st0" d="M70.2,66.3c0.89,0.45,1.56,1.56,2.67,2c1.11,0.45,2.45,0.22,3.79,0.67c2.67,1.11,3.12,2.23,6.24,1.78
				c1.11,0,1.78-1.11,3.12-0.89c1.56,0.22,2.23,1.78,3.56,2c2.67,0.89,4.23-0.45,7.13-0.45c2.9,0,12.7-1.34,15.37-2
				c7.57-1.56-3.61-5.27-11.01-6.36c-3.65-0.54-6.81,1.46-9.93,1.24c-3.34-0.22-6.01-3.12-9.36-3.34
				c-4.23-0.22-18.27,0.19-14.26,4.9c0.45,0,0-0.22,0,0"/>
		</g>
	</g>
</g>
<g id="Layer_12">
	<g>
		<path class="st1" d="M147.89,126.15c-14.16,1.4-12.91,9.04-19.86,12.32c-8.19,3.86-14.65,21.81-23.22,26.58
			c-8.63,4.98,3.19,12.96,32.82,7.98c8.63-1.45,14.19-0.27,11.02-3.69c-4.44-4.8,2.86-18.18,6.07-22.41
			c3.56-4.84,7.88-12.71,11.58-16.26C161.4,125.53,146.36,118.07,147.89,126.15"/>
		<g>
			<path class="st0" d="M148.31,125.77c-5.77,0.7-10.98,2.32-14.81,6.91c-4.32,5.18-10.08,8-14.18,13.51
				c-2.62,3.52-4.91,7.29-7.46,10.88c-2.63,3.7-5.5,5.92-8.92,8.71c-3.02,2.46-1.67,5.04,1.4,6.64c5.57,2.92,13.23,2.8,19.3,2.48
				c6.28-0.33,12.4-1.5,18.64-2.13c2.14-0.22,5.48,0.1,7.42-1.17c1.79-1.17-0.3-2.59-0.99-3.95c-1.91-3.74,0.73-9.34,2.26-12.78
				c1.66-3.74,3.97-6.99,6.27-10.34c3.22-4.69,5.94-9.83,9.93-13.93c0.08-0.09,0.13-0.15,0.04-0.25
				c-2.27-2.24-21.56-14.46-20.28-3.94c0.04,0.36,1.99-0.03,1.93-0.52c-0.64-5.26,6.6-1.5,8.9-0.32c2.43,1.23,8.64,3.97,6.04,6.95
				c-4.95,5.69-9.41,12.86-13.11,19.45c-2.86,5.09-6.78,13.05-2.47,18.29c1.3,1.58-4.4,1.69-5.11,1.75
				c-2.41,0.21-4.79,0.59-7.17,0.97c-5.99,0.96-12.07,1.39-18.13,1.15c-3.95-0.16-12.93-0.54-14.7-5.21
				c-0.79-2.08,1.9-3.54,3.27-4.38c2.69-1.64,4.73-4.32,6.61-6.79c5.03-6.58,8.72-15.61,16.37-19.59c1.82-0.95,3.22-2.46,4.53-4.02
				c3.84-4.56,7.23-6.86,13.56-7.63C147.95,126.46,149.57,125.62,148.31,125.77L148.31,125.77z"/>
		</g>
	</g>
	<g>
		<g>
			<path class="st1" d="M146.07,123c-6.08-2.51-12.23-13.81-19.17-12.88c7.35-4.02,17.94,6.29,24.86,12.06
				c-3.91-5.04-9.98-10.89-12.88-16.25c3.6,2.14,8.62,5.59,11.15,8.68c2.27,2.9,0.4,4.08,3.25,6.72c-1.15-4.49-1.97-10.2-2.43-14.55
				c3.91,5.04,7.66,12.95,6.01,17.36c0.58-0.83,2.84-11.27,9.15-12.98c-3.72,4.16-2.66,11.89-7.75,15.16
				c7.2-1.82,14.73-1.12,21.6,2.76c-8.54-2.08-12.08,0.43-19.28-0.5c4.24,1.23,8.21,1.45,12.17,2.5c4.66,1.19,7.4,3.77,11.47,5.23
				c-8.35,1.93-16.06-4.85-24.26-5.46c7.94,2.1,14.61,10.72,20.27,16.62c-7.78-2.32-15.52-13.38-22.77-15.35"/>
		</g>
		<g>
			<path class="st1" d="M145.39,120.89c-3.71-0.96-7.34-3.75-10.79-4.98c-4.65-1.59-9-1.9-13.86-1.93
				c9.76,1.1,16.32,9.52,25.96,11.28c-3.24,1.49-7.46,0.45-10.84,1.81c-3.12,1.36-8.47-1.31-11.6-0.47
				c4.1,0.83,8.13,5.81,12.04,4.44c1.56-0.55,6.06,0.37,7.76-0.05c1.57-0.29,3.76-0.46,5.18-1.39c-2.38,3.23-3.82,6.44-4.14,9.99
				c-2.75,5.11-0.59,11.82,2.03,15.74c-1.15-7.64,2.61-11.5,4.07-15.05c1.13-2.75,0.14-5.53,1.51-8.02c2,4.52-0.3,8.42,0.87,12.54
				c0.92,3.46,4.87,8.97,9,9.64c-0.76-2.97-2.05-2.32-3.4-5.34c-1.14-2.57-0.65-3.27-0.99-5.85c-0.46-2.19-0.31-4.24-1.17-6.55
				c-0.44-1.42-0.09-0.52,0.12-2.08c3.91,3.42,1.78,4.37,5.44,8.05c2.98,3.05,5.43,5.85,8.02,9.04c0.22-4.55-3.86-10.67-7.54-15.13
				c-1.91-2.29-3.35-3.96-2.53-2.94"/>
			<g>
				<path class="st0" d="M145.59,120.17c-4.38-1.42-8.12-4.14-12.52-5.51c-3.95-1.23-8.23-1.36-12.33-1.42
					c-0.83-0.01-1.05,1.34-0.2,1.47c9.63,1.46,16.52,9.21,25.96,11.28c0-0.48,0-0.96,0-1.45c-2.47,0.85-5,0.89-7.58,1.09
					c-1.87,0.14-3.54,0.97-5.42,1.08c-3.22,0.2-6.18-1.3-9.44-0.84c-0.78,0.11-0.65,1.25,0,1.45c4.34,1.28,7.64,5.38,12.43,4.44
					c4.59-0.9,8.63,0.65,13.12-1.51c-0.34-0.34-0.68-0.68-1.03-1.03c-5.56,8-7.39,17.95-2.12,26.49c0.36,0.59,1.48,0.4,1.4-0.38
					c-0.49-4.57,0.51-8.15,2.68-12.12c1.95-3.56,1.48-7.06,2.88-10.75c-0.48,0-0.96,0-1.45,0c1.67,4.93-0.39,9.91,1.73,14.77
					c1.58,3.63,4.82,6.91,8.66,7.94c0.52,0.14,1.13-0.37,0.92-0.92c-1.27-3.47-4.08-5.63-4.24-9.63c-0.12-3.02-1.9-6.91-1.19-9.78
					c-0.42,0.11-0.84,0.22-1.25,0.33c2.15,2.07,2.51,4.8,4.42,6.92c3.04,3.38,6.15,6.65,9.04,10.17c0.42,0.52,1.3,0.09,1.28-0.53
					c-0.2-7.22-5.85-13.84-10.53-18.91c-0.67-0.73-1.64,0.32-1.06,1.06c0.08,0.1,0.16,0.2,0.24,0.31c0.59,0.76,1.65-0.31,1.06-1.06
					c-0.08-0.1-0.16-0.2-0.24-0.31c-0.35,0.35-0.71,0.71-1.06,1.06c4.33,4.69,9.9,11.12,10.09,17.84c0.43-0.18,0.85-0.35,1.28-0.53
					c-3.06-3.72-6.84-7.08-9.61-10.99c-1.54-2.17-1.8-4.13-3.85-6.1c-0.4-0.38-1.12-0.23-1.25,0.33c-0.8,3.26,0.84,6.82,1.14,10.18
					c0.16,1.76,0.25,3,0.89,4.7c0.77,2.05,2.63,3.24,3.4,5.34c0.31-0.31,0.62-0.62,0.92-0.92c-4.23-1.12-7.17-5.11-8.48-9.12
					c-1.33-4.06,0.54-8.36-0.87-12.54c-0.25-0.73-1.18-0.69-1.45,0c-0.64,1.7-0.82,3.14-0.91,4.92c-0.16,2.88-1.56,4.94-2.82,7.35
					c-1.83,3.5-2.3,7.1-1.88,11c0.47-0.13,0.93-0.25,1.4-0.38c-4.89-7.93-3.01-17.58,2.12-24.97c0.47-0.67-0.41-1.32-1.03-1.03
					c-4.14,1.99-7.78,0.45-11.93,1.21c-4.9,0.9-8.14-3.01-12.47-4.29c0,0.48,0,0.96,0,1.45c3.41-0.49,7.14,1.72,10.48,0.78
					c3.95-1.11,8.08-0.79,11.95-2.12c0.66-0.23,0.77-1.28,0-1.45c-9.44-2.06-16.32-9.81-25.96-11.28c-0.07,0.49-0.13,0.98-0.2,1.47
					c4.68,0.07,9.18,0.51,13.66,1.91c3.77,1.17,7,3.74,10.79,4.98C146.12,121.91,146.51,120.46,145.59,120.17L145.59,120.17z"/>
			</g>
		</g>
		<g>
			<path class="st0" d="M148.87,120.95c0.62-0.24,2.73,1.13,2.88,1.23c0.3,0.21,1.48-0.01,2.31,0.11c0.72,0.27,1.39,0.29,1.94,1.11
				c0.4,0.72,0.09,1.17,0.33,1.79c0.3,0.87,1.01,1.14,1.63,1.56c0.61,0.42,1.22,0.84,1.58,1.31c0.4,0.72,0.18,1.68-0.4,2.17
				c-0.68,0.64-1.39-0.29-2.06-0.3c-0.26,0.04-0.52,0.09-0.93,0.03c-0.31-0.21-0.72-0.27-0.87-0.38c-0.83-0.12-2.59-2.45-3.25-3.12
				c-0.51-0.57-1.38-0.95-1.99-1.37C149.59,124.77,148.08,122.07,148.87,120.95"/>
		</g>
	</g>
</g>
</svg>
