<?xml version="1.0" encoding="utf-8"?>
<!-- Generator: Adobe Illustrator 23.1.0, SVG Export Plug-In . SVG Version: 6.00 Build 0)  -->
<svg version="1.1" xmlns="http://www.w3.org/2000/svg" xmlns:xlink="http://www.w3.org/1999/xlink" x="0px" y="0px"
	 viewBox="0 0 216 216" style="enable-background:new 0 0 216 216;" xml:space="preserve">
<style type="text/css">
	.Arched_x0020_Green{fill:url(#SVGID_1_);stroke:#FFFFFF;stroke-width:0.25;stroke-miterlimit:1;}
	.st0{fill:#BB5F30;}
	.st1{fill:#FFFFFF;}
</style>
<linearGradient id="SVGID_1_" gradientUnits="userSpaceOnUse" x1="0" y1="216" x2="0.7071" y2="215.2929">
	<stop  offset="0" style="stop-color:#20AC4B"/>
	<stop  offset="0.9831" style="stop-color:#19361A"/>
</linearGradient>
<g id="Layer_1">
	
		<ellipse transform="matrix(0.7071 -0.7071 0.7071 0.7071 -44.5424 107.9202)" class="st0" cx="108" cy="107.73" rx="104.73" ry="104.73"/>
</g>
<g id="Layer_3">
	<g>
		<path class="st1" d="M53.44,177.55c12.17-5.87,26.39-5.62,24.68-22.85c-3.36-33.86-51.39-21.63-41.54-35.58
			c2.46-3.48-3.22-5.71,0.66-6.52c20.73-4.37,19.54,10.71,37.52,8.24c8.61-1.18,5.98-29.52,6.15-31.09
			c2.72-24.21,3.52-75.01,28.89-66.34c13.26,4.53,9.39,25.31,9.48,38c-0.33,16.72-4.66,33.67-9.07,49.3
			c-3.98,11.59-10.54,27.35-6.46,39.79c7.26,20.94,21.88-5.32,23.98-14.79c2.14-8.81,8.2-52.58,17.95-57.17
			c9.34-4.32,17.05-2.97,18.02,10.94c0.58,8.35,0.35,22.82-8.38,38.57c-16.27,29.36-32.41,34,2.16,53.63
			c-0.2,7.03-21.03-0.73-46.94,0.99c-3.73,0.25,3.22,8.48-0.5,8.86c-4.59,0.47-15.73-7.24-19.81-6.83
			c-6.6,0.66-16.24,1.48-19.6,1.18C61.91,185.06,49.92,182.44,53.44,177.55"/>
	</g>
</g>
<g id="Layer_4">
	<g>
		<path class="st0" d="M108,24.71c-3.33-2-13.43-1.79-9.67,5.29c1.25,3,3.95,3.22,7,4.38c3.61,1.38,7.59,0.68,9.04-0.41
			C119.04,31.31,111.33,25.38,108,24.71"/>
	</g>
	<g>
		<path class="st0" d="M156.88,79.56c-7.88-1.56-15.75,2.9-11.58,6c2.45,1.82,9.82,3.44,15.81-1.39
			C161.93,81.88,159.51,80,156.88,79.56"/>
	</g>
	<g>
		<path class="st0" d="M98,44c0,1.33,0,2,0,2.67"/>
		<g>
			<path class="st0" d="M97.03,44.26c0,0.89,0,1.78,0,2.67c0,0.54,1.93,0.19,1.93-0.52c0-0.89,0-1.78,0-2.67
				C98.97,43.2,97.03,43.55,97.03,44.26L97.03,44.26z"/>
		</g>
	</g>
	<g>
		<path class="st0" d="M108,64.33c0,1.33-0.67,1.67-0.67,3.33"/>
		<g>
			<path class="st0" d="M107.03,64.59c-0.01,0.54-0.16,1.01-0.35,1.52c-0.21,0.59-0.31,1.19-0.32,1.82
				c-0.01,0.32,1.92,0.06,1.93-0.52c0.02-1.17,0.64-2.17,0.67-3.33C108.97,63.75,107.05,64.02,107.03,64.59L107.03,64.59z"/>
		</g>
	</g>
	<g>
		<path class="st0" d="M112.67,46.67c0,0.67,0,2.67,0,2"/>
		<g>
			<path class="st0" d="M111.69,46.76c0,0.71,0,1.42,0,2.13c0,0.94,1.95,0.59,1.95-0.19c0-0.04,0-0.09,0-0.13
				c0-0.94-1.95-0.59-1.95,0.19c0,0.04,0,0.09,0,0.13c0,0.94,1.95,0.59,1.95-0.19c0-0.71,0-1.42,0-2.13
				C113.64,45.64,111.69,45.99,111.69,46.76L111.69,46.76z"/>
		</g>
	</g>
	<g>
		<path class="st0" d="M92,75c0,0.67,0,2.67-0.67,4"/>
		<g>
			<path class="st0" d="M91.03,75.26c0,1.31-0.1,2.67-0.66,3.87c-0.18,0.39,0.66,0.38,0.82,0.36c0.4-0.06,0.92-0.23,1.11-0.62
				c0.6-1.28,0.67-2.73,0.67-4.13C92.97,74.21,91.03,74.55,91.03,75.26L91.03,75.26z"/>
		</g>
	</g>
	<g>
		<path class="st0" d="M106.67,93.33C106,94.67,105.33,96,105.33,96"/>
		<g>
			<path class="st0" d="M105.75,93.25c-0.44,0.89-0.89,1.78-1.33,2.67c-0.48,0.95,1.48,0.89,1.83,0.18
				c0.44-0.89,0.89-1.78,1.33-2.67C108.06,92.47,106.11,92.53,105.75,93.25L105.75,93.25z"/>
		</g>
	</g>
	<g>
		<line class="st0" x1="133.33" y1="130.67" x2="132.67" y2="132.67"/>
		<g>
			<path class="st0" d="M132.4,130.53c-0.22,0.67-0.44,1.33-0.67,2c-0.37,1.1,1.57,1.16,1.86,0.27c0.22-0.67,0.45-1.33,0.67-2
				C134.63,129.71,132.7,129.65,132.4,130.53L132.4,130.53z"/>
		</g>
	</g>
	<g>
		<path class="st0" d="M97.1,120.23c-0.23,1.47-0.26,3.58-0.06,4.21"/>
		<g>
			<path class="st0" d="M96.13,120.34c-0.2,1.35-0.42,3.01-0.06,4.36c0.19,0.7,2.12,0.19,1.93-0.52c-0.34-1.27-0.12-2.79,0.07-4.07
				C98.18,119.32,96.23,119.66,96.13,120.34L96.13,120.34z"/>
		</g>
	</g>
	<g>
		<path class="st0" d="M87.33,102c0,1.33,0,2.67,0,3.33"/>
		<g>
			<path class="st0" d="M86.36,102.11c0,1.11,0,2.22,0,3.33c0,0.88,1.94,0.49,1.94-0.21c0-1.11,0-2.22,0-3.33
				C88.3,101.02,86.36,101.4,86.36,102.11L86.36,102.11z"/>
		</g>
	</g>
	<g>
		<path class="st0" d="M45.53,116.33c0.88,0,1.75,0,2.63,0.67"/>
		<g>
			<path class="st0" d="M45.17,116.95c0.84,0,1.53,0.06,2.23,0.56c0.6,0.42,2.35-0.42,1.51-1.02c-0.91-0.65-1.94-0.78-3.03-0.78
				c-0.45,0-1.02,0.13-1.27,0.56C44.39,116.66,44.81,116.95,45.17,116.95L45.17,116.95z"/>
		</g>
	</g>
	<g>
		<path class="st0" d="M54.01,122.33c0.8,0.67,1.61,1.33,2.41,2"/>
		<g>
			<path class="st0" d="M53.11,122.71c0.8,0.67,1.61,1.33,2.41,2c0.34,0.29,0.9,0.18,1.28,0.02c0.19-0.08,0.86-0.49,0.52-0.78
				c-0.8-0.67-1.61-1.33-2.41-2c-0.34-0.29-0.9-0.18-1.28-0.02C53.44,122.02,52.77,122.42,53.11,122.71L53.11,122.71z"/>
		</g>
	</g>
	<g>
		<path class="st0" d="M74,129.67c0.67,0.67,2.67,2,2.67,2"/>
		<g>
			<path class="st0" d="M73.1,130.04c0.79,0.77,1.75,1.39,2.67,2c0.37,0.25,0.88,0.16,1.27,0c0.14-0.06,0.89-0.49,0.53-0.73
				c-0.91-0.61-1.88-1.23-2.67-2C74.44,128.85,72.62,129.57,73.1,130.04L73.1,130.04z"/>
		</g>
	</g>
	<g>
		<path class="st0" d="M92.06,139.33c0,2-0.25,2.92,0,4"/>
		<g>
			<path class="st0" d="M91.09,139.59c-0.01,1.31-0.27,2.7,0,4c0.12,0.58,2.06,0.1,1.93-0.52c-0.27-1.3-0.01-2.68,0-4
				C93.02,138.58,91.09,138.91,91.09,139.59L91.09,139.59z"/>
		</g>
	</g>
	<g>
		<path class="st0" d="M85.33,155.33c0,1.33,0.67,2.67,1.33,3.33"/>
		<g>
			<path class="st0" d="M84.37,155.59c0.04,1.26,0.53,2.54,1.41,3.47c0.51,0.54,2.35-0.19,1.79-0.79c-0.82-0.86-1.23-2.02-1.26-3.2
				C86.28,154.37,84.34,154.78,84.37,155.59L84.37,155.59z"/>
		</g>
	</g>
	<g>
		<path class="st0" d="M69.28,175.03c-0.53,1.03-4.02,2.47-3.21,1.97"/>
		<g>
			<path class="st0" d="M68.36,174.92c-0.17,0.29-0.84,0.69-1.26,0.92c-0.29,0.16-0.58,0.3-0.88,0.44c-0.11,0.05-0.23,0.1-0.35,0.15
				c-0.11,0.04-0.1,0.04,0.06-0.02c-0.3,0.11-0.06-0.15,0.58,0.04c0.14,0.19,0.28,0.38,0.42,0.57c-0.01,0.36-0.5,0.59-0.22,0.41
				c0.35-0.22,0.49-0.73,0.11-0.99c-0.42-0.29-0.99-0.13-1.38,0.12c-0.2,0.13-0.45,0.35-0.46,0.61c-0.01,0.27,0.15,0.49,0.42,0.57
				c0.8,0.24,1.76-0.36,2.44-0.72c0.87-0.46,1.87-1.01,2.37-1.89c0.25-0.42-0.21-0.76-0.59-0.8
				C69.14,174.28,68.61,174.49,68.36,174.92L68.36,174.92z"/>
		</g>
	</g>
	<g>
		<path class="st0" d="M86.67,172.43c0,1.33,1.33,4,1.33,4"/>
		<g>
			<path class="st0" d="M85.7,172.69c0.05,1.37,0.73,2.79,1.33,4c0.27,0.54,2.13-0.12,1.93-0.52c-0.6-1.21-1.29-2.63-1.33-4
				C87.62,171.74,85.68,172.07,85.7,172.69L85.7,172.69z"/>
		</g>
	</g>
	<g>
		<path class="st0" d="M101.71,174.43c1.29,1.94,2.58,3.27,2.58,3.27"/>
		<g>
			<path class="st0" d="M100.81,174.79c0.77,1.15,1.62,2.27,2.58,3.27c0.42,0.44,2.24-0.26,1.8-0.72c-0.96-1-1.81-2.12-2.58-3.27
				C102.3,173.6,100.42,174.21,100.81,174.79L100.81,174.79z"/>
		</g>
	</g>
	<g>
		<path class="st0" d="M146.33,96.01c-0.67,1.44-1.33,3.35-1.33,4.31"/>
		<g>
			<path class="st0" d="M145.38,96.18c-0.62,1.36-1.29,2.89-1.35,4.4c-0.01,0.29,1.91,0.04,1.93-0.52c0.05-1.44,0.73-2.93,1.32-4.23
				C147.42,95.53,145.6,95.69,145.38,96.18L145.38,96.18z"/>
		</g>
	</g>
	<g>
		<path class="st0" d="M155.12,104.9c0.36,1.45,0.43,4.2,0.43,4.2"/>
		<g>
			<path class="st0" d="M154.15,105.16c0.32,1.36,0.39,2.8,0.43,4.2c0.01,0.4,1.95,0.08,1.93-0.52c-0.04-1.4-0.11-2.83-0.43-4.2
				C155.97,104.16,154.03,104.65,154.15,105.16L154.15,105.16z"/>
		</g>
	</g>
	<g>
		<path class="st0" d="M142.67,113.67c-0.67,1.33-0.67,2.12-1.33,3.46"/>
		<g>
			<path class="st0" d="M141.72,113.85c-0.54,1.12-0.79,2.34-1.33,3.46c-0.14,0.28,0.68,0.15,0.76,0.13
				c0.29-0.06,0.99-0.18,1.14-0.5c0.54-1.12,0.79-2.34,1.33-3.46c0.14-0.28-0.68-0.15-0.76-0.13
				C142.57,113.41,141.87,113.53,141.72,113.85L141.72,113.85z"/>
		</g>
	</g>
	<g>
		<path class="st0" d="M149.33,126.67C148.67,128,148,129.33,148,130"/>
		<g>
			<path class="st0" d="M148.38,126.84c-0.52,1.04-1.28,2.23-1.35,3.42c-0.01,0.26,1.9,0.04,1.93-0.52
				c0.06-1.11,0.83-2.28,1.32-3.25c0.15-0.3-0.68-0.18-0.77-0.17C149.2,126.38,148.55,126.51,148.38,126.84L148.38,126.84z"/>
		</g>
	</g>
	<g>
		<path class="st0" d="M136,146.54c-0.67,0.75-1.33,1.5-2,2.25"/>
		<g>
			<path class="st0" d="M135.21,146.33c-0.67,0.75-1.33,1.5-2,2.25c-0.28,0.31-0.22,0.68,0.21,0.79c0.43,0.12,1.06-0.02,1.37-0.37
				c0.67-0.75,1.33-1.5,2-2.25c0.28-0.31,0.22-0.68-0.21-0.79C136.14,145.84,135.52,145.98,135.21,146.33L135.21,146.33z"/>
		</g>
	</g>
	<g>
		<path class="st0" d="M123.51,157c-0.67,0.67-1.33,2-1.33,2"/>
		<g>
			<path class="st0" d="M122.71,156.73c-0.6,0.62-1.06,1.4-1.45,2.17c-0.22,0.43,0.19,0.74,0.58,0.78c0.46,0.05,1.04-0.15,1.26-0.58
				c0.33-0.65,0.71-1.3,1.22-1.83c0.31-0.33,0.17-0.76-0.24-0.9C123.61,156.21,123.05,156.38,122.71,156.73L122.71,156.73z"/>
		</g>
	</g>
	<g>
		<path class="st0" d="M131.67,168.33c1.33,1.33,2.46,1.33,3.33,1.88"/>
		<g>
			<path class="st0" d="M130.78,168.73c0.54,0.52,1.13,0.96,1.82,1.28c0.54,0.25,1.13,0.4,1.65,0.71c0.63,0.37,2.38-0.51,1.52-1.02
				c-0.43-0.25-0.91-0.42-1.38-0.6c-0.69-0.26-1.29-0.66-1.82-1.17C132,167.4,130.17,168.16,130.78,168.73L130.78,168.73z"/>
		</g>
	</g>
	<g>
		<path class="st0" d="M121.85,176c0.67,1.33,1.33,2.67,2,2.67"/>
		<g>
			<path class="st0" d="M120.88,176.26c0.34,0.69,0.69,1.37,1.11,2.01c0.29,0.44,0.7,0.84,1.25,0.9c0.47,0.04,0.99-0.05,1.37-0.37
				c0.29-0.24,0.24-0.6-0.17-0.64c-0.32-0.03-0.59-0.54-0.75-0.77c-0.34-0.52-0.61-1.1-0.89-1.65
				C122.5,175.11,120.62,175.74,120.88,176.26L120.88,176.26z"/>
		</g>
	</g>
	<g>
		<path class="st0" d="M103,164.33c0,0.67,0.67,1.33,0.67,1.33"/>
		<g>
			<path class="st0" d="M102.03,164.59c0.03,0.54,0.36,1.07,0.74,1.46c0.49,0.5,2.32-0.22,1.79-0.76c-0.33-0.34-0.57-0.74-0.6-1.21
				C103.92,163.42,101.99,163.83,102.03,164.59L102.03,164.59z"/>
		</g>
	</g>
</g>
</svg>
