<svg xmlns="http://www.w3.org/2000/svg" viewBox="0 0 209.46 209.46"><defs><style>.cls-1{fill:#f26522;}.cls-2{fill:#fff;}</style></defs><title>Animalia_2</title><g id="Layer_1" data-name="Layer 1"><circle class="cls-1" cx="108" cy="107.73" r="104.73" transform="translate(-47.81 104.92) rotate(-45)"/></g><g id="Animalia"><path class="cls-2" d="M88,71.75C81.37,75.58,63.36,94.55,51.08,93,22.43,89.53,37,50.84,56.74,39.33c20.53-11.65,36.12,20.94,52.61,8.38,6.74-5.14,18.74,5.75,17.21,8.57-2.41,4.44-1.52,5.53,5.28,10.36,9.47,6.73,15.58,6.36,36.91,8.77,22.61,2.55,32.25,32.59,6,38.26-7.34,1.59-13.52-3.87-14.59-6.62-2.31-5.92.09-15.63,6.87-16,3.58-.18,5.75,2.62,5.66,4.13a6.63,6.63,0,0,1-3.82,5.87c5.77-6.62-1-8.24-3.39-6-5.3,4.93.55,19.23,11.73,12.76,12.7-7.34,4-21.33-5.66-23.46-2.82-.63-11.15-1.24-14.9-1.76-6-.85-16.1-3.84-14.25-3.44.5.11,1.12.08,1.42.51,13.17,19.16,13.73,38.42,9.7,54.18-3.3,12.88-23.33,28.16-43.06,39.41-11.83,6.75-18.95,11-24.26,23.65-4-6.93,9.2-21,20.61-28s24.07-15.44,34-27.48c8.85-13.88,11.83-39.54-8.39-60.55,10.88,17.3,8.67,29.85,4.09,45.77-12.73,44.2-76.8,28.28-84.9,13.15,12.62,7.13,60.88,22.15,77.57-12.2,5.31-21,2.66-31.42-3.11-41,.22,13.38-2.27,26.32-12,44.6-7.36,10.87-13,21.18-25,27.12-16.63,8.24-25.84-1.81-47.33-2.57C62,147.1,70.76,161.61,85,153.27c8.1-4.75,13.26-12.9,20.12-26.48,9.8-21.68,11.45-36.19,8.93-51.8-2.51,11.69-4.62,29.06-20,48.39-38.12,42-55.45-11.81-28.38-13.4-19.53,8.74-3.78,37.21,19.9,13.69C98,107.75,104.13,87.4,102.21,67.91c-5.15,9.16-14.13,4.83-19.1,5.44" transform="translate(-3.27 -3)"/></g></svg>