<svg width="10" height="10" viewBox="0 0 10 10" fill="none" xmlns="http://www.w3.org/2000/svg">
<path d="M9.35889 0.589355V4.35938H8.79883V1.58936L3.95886 6.42944L3.56885 6.0293L8.39893 1.19946H5.57886V0.589355H9.35889ZM7.67883 9.11938C7.67883 9.15652 7.66407 9.19201 7.63782 9.21826C7.61156 9.24452 7.57595 9.25928 7.53882 9.25928H0.828857C0.7925 9.25692 0.758307 9.24158 0.732544 9.21582C0.706781 9.19006 0.691196 9.15574 0.688843 9.11938V2.40942C0.688843 2.37229 0.703603 2.33656 0.729858 2.3103C0.756113 2.28405 0.791727 2.26929 0.828857 2.26929H5.29883V1.70947H0.828857C0.643206 1.70947 0.465138 1.78303 0.333862 1.91431C0.202587 2.04558 0.128906 2.22377 0.128906 2.40942V9.11938C0.131534 9.3033 0.206411 9.47879 0.337402 9.60791C0.468394 9.73703 0.644926 9.80935 0.828857 9.80933H7.53882C7.72275 9.80935 7.8994 9.73703 8.0304 9.60791C8.16139 9.47879 8.23626 9.3033 8.23889 9.11938V4.6394H7.67883V9.11938Z" fill="black"/>
</svg>
