<svg xmlns="http://www.w3.org/2000/svg" viewBox="0 0 209.46 209.46"><defs><style>.cls-1{fill:#1eb28f;}.cls-2{fill:#fdfdfe;}</style></defs><title>Protist</title><g id="Layer_1" data-name="Layer 1"><circle class="cls-1" cx="108" cy="107.73" r="104.73" transform="translate(-47.81 104.92) rotate(-45)"/></g><g id="Layer_2" data-name="Layer 2"><path class="cls-2" d="M75.19,72.42c5.5-6.09,10.78-12.23,17.1-17.51a83.46,83.46,0,0,1,13.93-9.3c5.8-3.13,13.26-6.77,19.94-6.93,9.55-.24,18.49,7.31,22.88,15.21,6.1,11,2.69,23.53-3.69,33.51a54.1,54.1,0,0,1-13.41,14.12,34.12,34.12,0,0,1-9.84,5c-2.1.67-4.6.4-6.59,1.33-5.34,2.51,1.08,7.4,3.74,9.28,1.87,1.32,9.74,5.62,11,1,.5-1.81,0-4.07-.06-5.92-.1-3.4-.21-6.79-.48-10.17-.49-6.38-1.81-13-5.49-18.34-6.64-9.62-19.24-4.25-27,.56C86.39,91.13,75.87,100.91,63.55,105c-11.43,3.78-19.14-7.45-20.94-17A53.72,53.72,0,0,1,42,75c.11-1.83.67-3.89.49-5.72-.11-1.15-4-.33-3.86,1,.32,3.26-.68,8-.6,11.64.16,6.53,1.46,13.22,5.34,18.59C53.84,115,72,103.69,82.78,96.58c7.59-5,15-11.12,23.29-14.87,16.47-7.44,19.61,15.94,20.11,26.56.15,3.33.46,6.8.33,10.13,0-.81,1.91.06-.16-.73a18.33,18.33,0,0,1-1.83-.91c-2.64-1.42-5.83-3.75-7.16-6.52-.79-1.63,1.5-1,2.71-1.32a39.11,39.11,0,0,0,6.76-2.16,47.77,47.77,0,0,0,13.94-9.59c10.38-9.78,18.16-24.54,14.3-39-2.86-10.7-12.61-19-23.29-21.17-5.07-1-9.93.31-14.71,2A91,91,0,0,0,95.61,49.62c-9.32,6.29-16.53,14.54-24,22.82-1.05,1.16,2.81.83,3.57,0Z" transform="translate(-3.27 -3)"/><path class="cls-2" d="M125.62,96.43c-5.05,4.88-11.44-1-30.67,10.25-10,5.85-20.29,15.28-23,25.38-2.89,10.62,2.2,21.28,8.41,27.75,9.62,10,28.2,10.38,40.91,2.84,22.44-13.31,19-32,16-48.53-.66-3.63-4.29-9.71-2.67-12.54" transform="translate(-3.27 -3)"/><path class="cls-1" d="M125.81,152.15c2.81.09,9.53-21.3-4-17s-2.68,18.67,4,17" transform="translate(-3.27 -3)"/></g></svg>