<svg width="25" height="15" viewBox="0 0 25 15" fill="none" xmlns="http://www.w3.org/2000/svg">
<path d="M15.3516 6.58875C15.3516 7.21143 15.1716 7.82013 14.8343 8.33786C14.497 8.8556 14.0176 9.25913 13.4567 9.49742C12.8958 9.73571 12.2786 9.79806 11.6832 9.67658C11.0877 9.5551 10.5408 9.25525 10.1115 8.81495C9.68218 8.37465 9.38983 7.81367 9.27139 7.20296C9.15294 6.59224 9.21373 5.95922 9.44606 5.38394C9.6784 4.80866 10.0718 4.31696 10.5766 3.97102C11.0814 3.62508 11.6749 3.44043 12.282 3.44043C12.6851 3.44036 13.0843 3.52175 13.4568 3.67995C13.8292 3.83814 14.1677 4.07004 14.4527 4.3624C14.7378 4.65477 14.9639 5.00186 15.1181 5.38386C15.2723 5.76586 15.3517 6.17529 15.3516 6.58875Z" fill="black"/>
<path d="M24.088 7.36509C23.9066 7.10612 19.6019 0.998047 12.2821 0.998047C4.96232 0.998047 0.657212 7.10612 0.4763 7.36509C0.42819 7.43458 0.402344 7.5177 0.402344 7.60293C0.402344 7.68816 0.42819 7.77129 0.4763 7.84078C0.657702 8.10025 4.96232 14.1963 12.2821 14.1963C19.6019 14.1963 23.907 8.0912 24.088 7.83072C24.1342 7.76197 24.159 7.68042 24.159 7.5969C24.159 7.51338 24.1342 7.43183 24.088 7.36308V7.36509ZM15.4616 2.24913C15.4845 2.28404 15.5123 2.31537 15.5439 2.34216C16.4066 3.03944 17.0352 3.99578 17.3419 5.07747C17.6486 6.15915 17.6181 7.31211 17.2546 8.37512C16.8911 9.43814 16.2128 10.3581 15.3145 11.0063C14.4162 11.6545 13.3429 11.9986 12.2446 11.9905C11.1463 11.9824 10.0779 11.6225 9.1888 10.961C8.29972 10.2996 7.63441 9.36972 7.28587 8.30144C6.93734 7.23316 6.92301 6.07987 7.24489 5.00283C7.56677 3.92579 8.20877 2.97884 9.08112 2.29438C9.1014 2.27779 9.12056 2.25982 9.13848 2.24058C11.2066 1.66985 13.3851 1.66985 15.4532 2.24058L15.4616 2.24913ZM12.2821 13.3857C6.17869 13.3857 2.17559 8.71975 1.29996 7.60293C2.9477 5.5347 5.05338 3.90016 7.44164 2.83545C6.76102 3.75901 6.34507 4.85898 6.24055 6.01171C6.13603 7.16444 6.34709 8.32422 6.85 9.36066C7.35291 10.3971 8.12774 11.2691 9.08736 11.8787C10.047 12.4882 11.1534 12.8112 12.2821 12.8112C13.4109 12.8112 14.5173 12.4882 15.4769 11.8787C16.4365 11.2691 17.2113 10.3971 17.7143 9.36066C18.2172 8.32422 18.4282 7.16444 18.3237 6.01171C18.2192 4.85898 17.8032 3.75901 17.1226 2.83545C19.5103 3.90067 21.6158 5.53472 23.2643 7.60193C22.3882 8.71976 18.3851 13.3847 12.2821 13.3847V13.3857Z" fill="black"/>
</svg>
