<svg width="108" height="108" viewBox="0 0 108 108" fill="none" xmlns="http://www.w3.org/2000/svg">
<circle cx="53.6682" cy="53.6682" r="53.6682" fill="#0E0D0D"/>
<path d="M76.4679 80.2312C74.4051 77.9524 71.773 77.3808 69.4199 75.6871C67.9825 74.6525 66.3015 73.8522 64.893 72.7214C63.4937 71.598 61.9757 70.7425 60.5802 69.7047C59.2759 68.7347 57.7142 68.1898 56.3812 67.225C54.878 66.137 52.8899 65.6884 51.3924 64.557C49.8813 63.4152 48.1873 62.6524 46.6999 61.4583C45.2846 60.3221 43.8694 59.1859 42.4542 58.0497C40.8469 56.7594 39.7255 54.9678 38.094 53.6581C37.0067 52.7851 35.2084 51.8279 34.4823 50.6471C33.7646 49.48 32.0967 49.034 31.3315 47.8948C30.7647 47.0508 30.1674 46.4032 29.3828 45.7732C28.8282 45.328 27.9633 44.8418 27.6064 44.2233C26.8074 42.839 25.0138 42.0228 24.418 40.5618C24.1898 40.0025 23.4689 39.6189 23.0966 39.1545C22.6795 38.634 22.2201 38.1129 21.7484 37.6264C20.7593 36.6064 19.6593 35.7388 18.5389 34.8393C17.9969 34.4042 17.4549 33.9691 16.9129 33.5339C16.6613 33.3319 16.3657 33.3175 16.1266 33.1255C15.2419 32.4153 17.1582 33.0809 17.5512 33.1551" stroke="#FFFFFE" stroke-linecap="round"/>
<path d="M68.7156 74.9004C67.343 75.1146 65.6489 75.5259 64.5636 76.3347C63.9738 76.7742 63.545 77.408 63.0786 77.9889C62.5415 78.658 61.7568 79.0145 61.2084 79.6975C60.6531 80.3892 59.9855 80.8835 59.2031 81.3214C58.5212 81.703 57.7745 82.2434 56.9968 82.4597C56.2993 82.6537 55.6811 83.1949 54.9287 83.2188C54.5134 83.2319 54.2176 83.2946 53.8381 83.4502C53.5246 83.5787 52.9025 83.6548 53.2416 83.8252" stroke="#FFFFFE" stroke-linecap="round"/>
<path d="M63.5642 71.877C62.526 72.5284 60.9587 73.0537 60.1112 73.9576C59.8525 74.2335 59.4395 74.3115 59.1558 74.5771C58.7968 74.9132 58.361 75.275 57.8999 75.463C57.0789 75.7978 56.1832 76.4664 55.3063 76.6119C54.2835 76.7816 53.1672 76.9901 52.1842 77.3242C50.6278 77.8532 49.2899 78.6464 47.7816 79.2615C47.0778 79.5486 46.2768 79.5711 45.5794 79.8457C45.1232 80.0255 44.1694 80.2142 44.636 79.6331" stroke="#FFFFFE" stroke-linecap="round"/>
<path d="M60.7717 70.0811C58.9228 70.5735 57.3186 71.8852 55.6306 72.7378C54.1618 73.4797 52.6626 74.1486 51.187 74.865C49.6951 75.5893 48.2094 76.3657 46.7896 77.2275C46.1416 77.6209 45.4813 77.9662 44.8007 78.3171C44.4032 78.5221 42.4648 79.1415 43.9314 78.8448" stroke="#FFFFFE" stroke-linecap="round"/>
<path d="M57.3298 67.9854C55.6347 68.1452 53.8785 68.1268 52.3019 68.8512C51.1059 69.4007 49.9218 69.8877 48.726 70.4371C46.5443 71.4395 43.9994 71.8223 41.8774 72.7381C40.8415 73.1852 39.8642 73.7256 38.8328 73.9707C37.6494 74.2519 36.4717 74.2053 35.2264 74.0836C33.9317 73.9572 32.5544 74.4479 31.261 74.2427C30.8078 74.1708 30.2871 74.0846 29.8215 74.0774C28.8074 74.0618 28.7172 74.0643 29.8822 74.6957" stroke="#FFFFFE" stroke-linecap="round"/>
<path d="M51.3655 64.3125C50.279 64.4478 48.7091 64.6873 47.6944 65.1535C46.7693 65.5786 45.7202 65.7008 44.8432 66.207C43.9266 66.736 43.3941 67.1544 42.3173 67.4103C41.3123 67.6491 40.4481 68.3607 39.4838 68.6885C38.7469 68.9389 37.9433 68.9299 37.2214 69.2243C36.713 69.4317 35.8922 69.6321 35.3483 69.5528C34.6091 69.4451 33.7589 69.7679 33.0592 69.8444C32.7665 69.8764 30.9577 69.8569 31.7082 69.9235" stroke="#FFFFFE" stroke-linecap="round"/>
<path d="M46.5945 61.3721C45.8452 61.1538 44.9952 60.8191 44.2087 60.9051C43.6177 60.9698 42.9899 61.1483 42.3748 61.2156C41.7518 61.2837 41.1979 61.6684 40.6203 61.8744C39.9065 62.1291 39.2715 62.1528 38.5331 62.2538C37.0955 62.4505 35.7153 62.8843 34.3191 63.216C33.0056 63.5282 31.8416 64.4185 30.5502 64.8574C28.1433 65.6754 25.8543 66.7912 23.4354 67.6133C22.3775 67.9728 20.9086 67.733 19.8021 67.5438C19.1824 67.4378 18.615 67.5585 18.0083 67.3417C17.3401 67.1029 16.735 67.237 17.8186 67.2388" stroke="#FFFFFE" stroke-linecap="round"/>
<path d="M37.9246 53.2998C36.2537 52.8132 33.9488 52.8008 32.2051 52.9915C31.7276 53.0437 31.2648 53.4125 30.811 53.556C30.397 53.687 29.9319 53.6935 29.5111 53.7875C28.8455 53.936 27.8507 53.7234 27.1805 53.6372C26.2813 53.5216 25.2646 54.2979 24.3738 54.2189C23.5508 54.1459 22.5338 54.265 21.7216 54.3304C20.8861 54.3978 20.0856 54.4958 19.2594 54.483C18.8801 54.4772 16.9359 54.2652 17.9772 53.9984" stroke="#FFFFFE" stroke-linecap="round"/>
<path d="M30.5803 47.1797C29.7307 46.8177 29.3015 46.5779 28.4237 46.674C27.9486 46.7259 27.3942 46.7097 26.9146 46.688C26.495 46.6689 25.8083 46.7423 25.4246 46.9402C25.0748 47.1206 24.5564 46.9398 24.1971 47.0813C23.3383 47.4196 22.4628 47.4433 21.5777 47.4296C21.2032 47.4239 19.6245 47.5033 19.9425 47.1072" stroke="#FFFFFE" stroke-linecap="round"/>
<path d="M25.7048 42.1514C24.2426 41.8722 22.147 42.29 20.8036 42.9827C20.4038 43.1889 17.9576 43.4188 18.0232 43.1152" stroke="#FFFFFE" stroke-linecap="round"/>
<path d="M19.7175 36.0068C18.9863 35.9863 18.2593 36.0265 17.5734 36.1796C17.1826 36.2668 16.1814 36.3936 17.2747 36.274" stroke="#FFFFFE" stroke-linecap="round"/>
<path d="M20.7769 35.5218C20.5804 35.278 19.1198 32.8601 19.3703 32.8327" stroke="#FFFFFE" stroke-linecap="round"/>
<path d="M25.3797 41.4464C25.1465 40.9277 24.5256 40.1187 24.4331 39.5723C24.3885 39.3091 24.2677 38.8082 24.0819 38.6218C23.5986 38.1369 23.9315 37.2004 23.8004 36.6132C23.6403 35.8958 23.9822 34.9992 24.1029 34.2934C24.194 33.7605 23.9384 32.648 24.498 33.385" stroke="#FFFFFE" stroke-linecap="round"/>
<path d="M29.3071 45.7106C29.6675 43.2242 29.0054 40.6928 28.7364 38.2332C28.6571 37.508 28.8093 36.8218 28.7536 36.1301C28.7075 35.5584 28.4965 33.9081 29.244 34.964" stroke="#FFFFFE" stroke-linecap="round"/>
<path d="M34.4561 49.8444C34.4823 46.9878 33.8069 44.2051 32.9537 41.5076C32.5459 40.2184 32.1596 38.9152 31.6351 37.6759C31.4354 37.2041 31.1823 36.7067 30.9244 36.2635C30.6867 35.8552 30.4068 35.4519 30.9521 35.8897" stroke="#FFFFFE" stroke-linecap="round"/>
<path d="M44.2673 59.5117C42.7906 57.721 41.7615 55.6944 41.4793 53.4415C41.34 52.3303 41.4459 51.3095 41.4779 50.1938C41.5164 48.8508 41.3102 47.5349 41.2548 46.1961C41.1433 43.4997 40.9806 40.8552 40.5193 38.1678C40.2826 36.7885 39.6937 35.7194 39.2609 34.4166C39.0703 33.8431 38.5002 32.6322 39.2777 33.7116" stroke="#FFFFFE" stroke-linecap="round"/>
<path d="M51.223 64.157C50.9567 61.5624 51.2128 58.8284 51.6835 56.2809C52.0703 54.1877 52.048 52.1391 52.7581 50.0968C53.1529 48.9612 53.159 39.298 53.1835 39.2955" stroke="#FFFFFE" stroke-linecap="round"/>
<path d="M55.2149 66.4271C55.2129 62.0614 55.4382 57.5554 56.0852 53.1992C56.2273 52.2424 56.5298 51.3029 56.7485 50.3702C56.998 49.3062 56.729 48.1639 56.8311 47.0882C56.9448 45.8912 57.1337 42.3178 56.8578 43.4946" stroke="#FFFFFE" stroke-linecap="round"/>
<path d="M58.0887 67.9838C58.7894 66.6555 59.4388 64.7941 59.7782 63.3571C60.1078 61.9616 60.4733 60.5905 60.7689 59.1805C61.0854 57.6715 60.5973 56.1863 60.7782 54.7007C60.8464 54.1403 60.879 53.57 60.8835 53.0126C60.8913 52.044 60.9121 52.1155 61.257 52.8277" stroke="#FFFFFE" stroke-linecap="round"/>
<path d="M63.1518 71.4864C63.5478 69.5039 63.8973 67.5115 64.8245 65.6928C65.463 64.4404 65.6179 63.1992 65.9708 61.815C66.3233 60.4322 66.5899 59.0287 66.7998 57.6148C66.9413 56.6612 67.0653 54.5825 66.5158 53.7511" stroke="#FFFFFE" stroke-linecap="round"/>
<path d="M68.6486 74.6811C67.6216 72.753 68.0194 69.587 68.206 67.4831C68.299 66.4341 68.6975 65.7072 68.9615 64.7224C69.2315 63.7155 69.4205 62.7263 69.847 61.769C70.3662 60.6036 70.8804 59.3831 71.3231 58.1878C71.6823 57.2179 71.5308 56.1898 71.6253 55.1745C71.7139 54.2222 72.159 52.4529 71.6043 51.5923" stroke="#FFFFFE" stroke-linecap="round"/>
<path d="M65.7751 75.2598C65.1096 75.0133 64.2778 74.9812 63.5624 74.9482C63.2818 74.9353 63.0444 74.8631 62.7879 74.7449C62.7175 74.7126 62.4717 74.636 62.4944 74.6543" stroke="#FFFFFE" stroke-linecap="round"/>
<path d="M63.9744 76.4209C63.4388 76.2669 62.8744 76.1556 62.3193 76.1064C61.8517 76.0649 61.3726 76.1328 60.9049 76.0736C60.6389 76.0398 60.2978 76.0337 60.0475 75.9486C59.9746 75.9238 59.8822 75.9183 59.8069 75.9325C59.7534 75.9425 60.111 75.9114 60.1818 75.9116" stroke="#FFFFFE" stroke-linecap="round"/>
<path d="M62.4983 77.626C61.1761 77.217 59.939 77.1547 58.5794 77.3693C58.1123 77.443 57.6766 77.6438 57.207 77.7203C57.1052 77.7369 56.4106 77.8095 56.5784 77.8717" stroke="#FFFFFE" stroke-linecap="round"/>
<path d="M60.9963 78.9561C59.6929 78.5697 58.3706 78.8213 57.0467 78.9081C56.5829 78.9385 56.1796 79.0481 55.7333 79.1455C55.5751 79.1801 54.7624 79.299 55.3147 79.1757" stroke="#FFFFFE" stroke-linecap="round"/>
<path d="M58.8484 81.3604C58.0164 81.2299 57.3179 81.367 56.4972 81.4568C55.9724 81.5142 55.4728 81.4926 54.9445 81.486C54.4818 81.4803 54.0365 81.546 53.5716 81.5268C53.3773 81.5187 52.7577 81.4034 52.7343 81.6675" stroke="#FFFFFE" stroke-linecap="round"/>
<path d="M62.1726 72.0762C61.353 72.1542 60.5273 72.216 59.7109 72.3052C59.5647 72.3212 58.8007 72.3174 59.2257 72.3181" stroke="#FFFFFE" stroke-linecap="round"/>
<path d="M60.2742 73.4502C59.6494 73.5277 59.0508 73.7579 58.4312 73.846C57.9868 73.9092 57.5195 73.8781 57.071 73.9211C56.7984 73.9472 56.5451 73.9575 56.284 73.8688C56.1304 73.8166 55.8113 73.7781 56.1801 73.8578" stroke="#FFFFFE" stroke-linecap="round"/>
<path d="M57.2092 75.1914C56.7116 75.2386 56.1588 75.2042 55.6586 75.178C55.2293 75.1554 54.7857 75.1193 54.36 75.0611C54.0935 75.0246 53.8039 74.9979 53.5442 74.9293C53.3933 74.8894 53.2861 74.867 53.4514 74.9997" stroke="#FFFFFE" stroke-linecap="round"/>
<path d="M54.4275 76.5791C53.9286 76.4713 53.4648 76.4644 52.9633 76.4178C52.5382 76.3783 52.1331 76.2811 51.7021 76.2745C51.4624 76.2708 51.2788 76.1601 51.0584 76.0837C50.9959 76.0621 50.7634 75.9555 50.9172 76.0791" stroke="#FFFFFE" stroke-linecap="round"/>
<path d="M50.9939 77.8799C50.3014 77.7869 49.5936 78.1638 48.9205 78.0263C48.55 77.9507 48.1651 77.7391 47.8007 77.7068" stroke="#FFFFFE" stroke-linecap="round"/>
<path d="M47.6487 79.251C47.1717 79.2488 46.7327 79.1675 46.2678 79.1163C46.1566 79.104 45.6093 78.8533 45.8936 79.001" stroke="#FFFFFE" stroke-linecap="round"/>
<path d="M51.259 78.0908C50.9851 78.4191 50.6508 78.6369 50.3411 78.9234C50.0569 79.1863 49.8277 79.5128 49.5858 79.8141C49.4704 79.9579 49.3767 80.0541 49.2333 80.1629C49.0588 80.2955 48.963 80.2677 49.2353 80.1605" stroke="#FFFFFE" stroke-linecap="round"/>
<path d="M53.5623 77.4787C53.0964 78.253 52.4661 78.9344 51.9011 79.6382C51.8288 79.7282 51.2788 80.3968 51.4753 80.4392" stroke="#FFFFFE" stroke-linecap="round"/>
<path d="M60.959 80.0839C60.2626 81.231 59.8137 82.5726 59.2765 83.8039C59.1606 84.0694 58.775 85.8087 58.3118 85.6372" stroke="#FFFFFE" stroke-linecap="round"/>
<path d="M59.4851 70.2803C58.9019 70.2875 58.3003 70.2868 57.7183 70.2704C57.2628 70.2576 56.8381 70.1521 56.3884 70.1123C55.9314 70.0717 55.4772 69.9714 55.0298 69.8747C54.8057 69.8263 54.1818 69.5722 54.3606 69.7157" stroke="#FFFFFE" stroke-linecap="round"/>
<path d="M57.1013 71.2646C55.9401 71.1256 54.7663 71.2715 53.6191 71.0004C53.2179 70.9056 52.8393 70.791 52.4532 70.648C52.3718 70.6178 51.9086 70.4576 52.2063 70.5946" stroke="#FFFFFE" stroke-linecap="round"/>
<path d="M55.3347 72.3818C53.7967 72.2523 52.1957 72.0574 50.74 71.5183" stroke="#FFFFFE" stroke-linecap="round"/>
<path d="M53.1453 73.667C52.4575 73.5542 51.7947 73.3376 51.0972 73.3106C50.5123 73.288 49.8904 73.1931 49.3373 72.9964C48.8465 72.8218 48.2997 72.6021 47.8898 72.273" stroke="#FFFFFE" stroke-linecap="round"/>
<path d="M50.2937 74.7832C49.2855 75.0082 48.1715 74.7595 47.1731 74.5799C46.9037 74.5314 46.637 74.4891 46.3907 74.3663C46.3565 74.3492 46.0844 74.229 46.1395 74.2732" stroke="#FFFFFE" stroke-linecap="round"/>
<path d="M47.9797 76.4014C47.5516 76.2873 47.1558 76.3873 46.7221 76.4139C46.1943 76.4463 45.6571 76.3839 45.1284 76.3739C44.6172 76.3643 44.0297 76.2002 43.6226 75.8734" stroke="#FFFFFE" stroke-linecap="round"/>
<path d="M45.0212 78.373C44.7107 78.3714 44.4265 78.4687 44.1188 78.4896C43.6729 78.5199 43.2867 78.4728 42.8555 78.3689C42.5121 78.2861 42.1379 78.1624 41.8106 78.0411" stroke="#FFFFFE" stroke-linecap="round"/>
<path d="M54.7698 67.582C54.0207 67.004 53.0285 66.9658 52.2123 66.5269C51.9164 66.3678 51.1604 65.7653 50.8116 65.9256" stroke="#FFFFFE" stroke-linecap="round"/>
<path d="M52.9607 68.3037C52.3365 68.1591 51.7339 67.9332 51.1159 67.7644C50.4971 67.5954 49.8733 67.4625 49.2553 67.2848C48.8572 67.1703 48.4798 67.0054 48.0846 66.8883C47.9156 66.8382 47.3876 66.512 47.6525 66.7949" stroke="#FFFFFE" stroke-linecap="round"/>
<path d="M50.8777 69.0928C50.3942 68.7337 49.7802 68.6073 49.212 68.4356C48.6258 68.2586 48.041 68.0791 47.4549 67.9023C46.8025 67.7056 46.2944 67.3731 45.7116 67.0461" stroke="#FFFFFE" stroke-linecap="round"/>
<path d="M49.3938 69.8564C48.9995 70.0513 48.5266 70.0161 48.0947 70.061C47.573 70.1154 47.0494 70.1406 46.5262 70.1701C45.7398 70.2145 44.9129 70.2481 44.1266 70.1915C43.4552 70.1432 42.7556 70.1042 42.1068 69.9101C41.844 69.8315 41.5084 69.8281 41.2957 69.6573" stroke="#FFFFFE" stroke-linecap="round"/>
<path d="M44.071 71.5264C42.4047 71.3218 40.7835 71.2194 39.2384 70.508C38.7985 70.3055 38.3417 70.1435 37.9092 69.9279C37.8203 69.8836 37.2039 69.6738 37.5723 69.7862" stroke="#FFFFFE" stroke-linecap="round"/>
<path d="M41.8728 72.3672C41.4628 72.5122 41.0693 72.5304 40.6384 72.5513C40.2503 72.5701 39.8817 72.6653 39.4991 72.7072C38.937 72.7687 38.3165 72.6284 37.7625 72.5444C37.3699 72.4849 36.9794 72.4951 36.6062 72.3405C36.253 72.1943 35.8869 72.0679 35.5296 71.927C35.1855 71.7913 34.8113 71.6699 34.4579 71.5576C34.3763 71.5316 34.2164 71.4361 34.3491 71.5427" stroke="#FFFFFE" stroke-linecap="round"/>
<path d="M38.1116 73.9854C37.4171 73.824 36.7205 73.6444 36.0285 73.4721C35.4459 73.327 34.8343 73.3757 34.2464 73.2406C33.3777 73.0411 30.857 72.1353 31.7096 72.3953" stroke="#FFFFFE" stroke-linecap="round"/>
<path d="M43.7883 71.8765C43.0938 72.1202 42.7357 72.7364 42.291 73.2904C41.9344 73.7346 41.4618 74.1855 41.2368 74.7138C41.1523 74.9123 40.5249 76.573 40.1546 76.493" stroke="#FFFFFE" stroke-linecap="round"/>
<path d="M39.4797 73.9961C39.1223 73.7498 38.8727 74.1498 38.5724 74.3543C38.1055 74.6722 37.6469 74.9343 37.2827 75.3793C37.0015 75.7228 36.7459 76.1238 36.4119 76.4188C36.3042 76.514 36.1562 76.7412 35.9993 76.7073" stroke="#FFFFFE" stroke-linecap="round"/>
<path d="M35.7034 74.3691C35.2705 74.7821 34.8503 75.2513 34.4758 75.7178C34.4028 75.8087 33.9941 76.4055 34.112 76.3513" stroke="#FFFFFE" stroke-linecap="round"/>
<path d="M46.4977 71.3004C45.6999 72.2941 45.0373 73.3902 44.237 74.3871C43.8653 74.85 43.5822 75.3727 43.217 75.838C43.103 75.9833 42.8094 76.5926 42.6779 76.4193" stroke="#FFFFFE" stroke-linecap="round"/>
<path d="M48.6794 64.4316C47.3985 63.4304 45.6879 63.5268 44.1716 63.1992C43.6807 63.0931 43.1811 63.0572 42.6919 62.957C42.6096 62.9401 42.0785 62.8467 42.4096 62.9477" stroke="#FFFFFE" stroke-linecap="round"/>
<path d="M46.1379 65.0703C44.7465 64.0455 42.9296 64.1716 41.3214 63.8113C40.7669 63.6871 40.264 63.5295 39.6908 63.5164C39.5972 63.5143 39.0834 63.391 39.2155 63.497" stroke="#FFFFFE" stroke-linecap="round"/>
<path d="M43.198 66.4775C42.5114 66.2801 41.7879 66.2865 41.0812 66.2269C40.2573 66.1574 39.4293 66.1192 38.609 66.0129C38.0421 65.9394 37.4893 65.6789 36.9784 65.4323C36.8605 65.3754 36.1065 65.1586 36.425 65.1691" stroke="#FFFFFE" stroke-linecap="round"/>
<path d="M40.2581 67.5234C39.0359 67.3478 37.6803 67.2994 36.5296 66.804C36.0303 66.589 34.5874 65.8685 35.0113 66.2088" stroke="#FFFFFE" stroke-linecap="round"/>
<path d="M38.2444 68.5869C36.9363 68.556 35.6822 68.3303 34.389 68.1559C33.9885 68.1019 33.6197 67.9236 33.2613 67.8462" stroke="#FFFFFE" stroke-linecap="round"/>
<path d="M34.3347 69.5771C33.4111 69.8193 32.296 69.5754 31.4527 69.1468C31.1761 69.0063 30.9047 68.8797 30.6132 68.7788C30.5612 68.7608 30.2841 68.6433 30.428 68.7589" stroke="#FFFFFE" stroke-linecap="round"/>
<path d="M43.843 60.6201C42.7278 59.7248 41.3301 59.4256 40.0994 58.7415C39.5329 58.4266 38.9195 58.0858 38.3164 57.8494C38.0968 57.7633 37.8672 57.6583 37.6622 57.5415C37.3192 57.3461 37.5836 57.5018 37.8052 57.5839" stroke="#FFFFFE" stroke-linecap="round"/>
<path d="M41.9456 60.9092C41.0031 60.5152 40.0007 60.3264 39.0753 59.8726C38.2072 59.4468 37.3195 59.1456 36.4847 58.6581C35.8002 58.2583 35.1057 57.87 34.4254 57.4636C34.1381 57.292 33.8499 57.1348 33.574 56.9451C33.4985 56.8931 33.0639 56.6878 33.3777 56.7835" stroke="#FFFFFE" stroke-linecap="round"/>
<path d="M39.8625 61.3398C38.553 60.8591 37.2635 60.4281 35.9933 59.8433C35.2192 59.4869 34.5118 59.0137 33.7349 58.6661C33.2055 58.4293 32.6981 58.1425 32.1659 57.9136C31.9039 57.8008 31.6567 57.6607 31.3833 57.5751C31.168 57.5076 30.9423 57.4296 31.3295 57.5318" stroke="#FFFFFE" stroke-linecap="round"/>
<path d="M38.2297 62.2002C37.1472 61.7279 35.9432 61.6011 34.8212 61.2426C33.6889 60.8808 32.6307 60.2897 31.4651 60.0292C30.7553 59.8706 30.008 59.8184 29.3143 59.5903C29.0152 59.492 28.7155 59.3473 28.4259 59.2232C28.1548 59.1071 28.35 59.1282 28.5309 59.1224" stroke="#FFFFFE" stroke-linecap="round"/>
<path d="M35.0793 62.7842C34.0412 62.566 33.0328 62.3391 32.0352 61.9742C31.2554 61.689 30.4453 61.417 29.6508 61.1747C29.1524 61.0227 28.6453 60.9041 28.1469 60.7521C27.9444 60.6904 27.0252 60.3614 27.7257 60.5749" stroke="#FFFFFE" stroke-linecap="round"/>
<path d="M32.7039 63.8477C32.2891 63.5281 31.7709 63.375 31.2758 63.2203C30.4412 62.9597 29.5864 62.8167 28.745 62.5931C28.1226 62.4277 27.5008 62.2561 26.8761 62.0988C26.7663 62.0711 26.3579 62.0349 26.3466 61.9313" stroke="#FFFFFE" stroke-linecap="round"/>
<path d="M30.4006 64.4629C28.5628 64.0884 26.6129 64.1512 24.8115 63.5898C24.4173 63.4669 24.0003 63.3424 23.6355 63.1447C23.4196 63.0277 22.9599 62.8663 23.4955 63.0484" stroke="#FFFFFE" stroke-linecap="round"/>
<path d="M27.4612 65.5059C26.1597 65.2863 24.8268 65.0605 23.6451 64.4343C23.2986 64.2507 22.9471 64.0811 22.6055 63.8895C22.445 63.7994 22.1044 63.6743 22.4533 63.8035" stroke="#FFFFFE" stroke-linecap="round"/>
<path d="M25.4124 66.6143C23.9902 66.2338 22.4421 66.5409 21.01 66.1627C20.5514 66.0416 20.1615 65.8319 19.773 65.568C19.6945 65.5147 19.6001 65.4752 19.515 65.4333C19.4126 65.3828 19.7858 65.5506 19.874 65.5726" stroke="#FFFFFE" stroke-linecap="round"/>
<path d="M34.8064 52.2061C33.9674 51.5667 32.9744 51.1534 32.1373 50.4979C31.8763 50.2936 31.622 50.0168 31.3194 49.8775C31.2203 49.8319 30.9664 49.7635 30.9909 49.65" stroke="#FFFFFE" stroke-linecap="round"/>
<path d="M33.6321 52.8564C32.9858 52.4787 32.2905 52.1802 31.6288 51.8277C31.0135 51.4999 30.4895 51.1104 29.9375 50.6912C29.5582 50.4032 29.1623 50.0868 28.7607 49.831C28.679 49.779 28.1055 49.5297 28.2389 49.4684" stroke="#FFFFFE" stroke-linecap="round"/>
<path d="M31.3464 52.9082C30.1522 52.1847 28.828 51.6789 27.6132 50.9816C27.2043 50.7469 26.797 50.5487 26.3664 50.359C26.2756 50.319 25.9791 50.2774 26.1989 50.2969" stroke="#FFFFFE" stroke-linecap="round"/>
<path d="M29.6335 53.7773C28.5468 52.9329 27.1814 52.4134 25.9936 51.7244C25.5706 51.4791 25.1363 51.2756 24.7053 51.0483C24.587 50.986 24.386 50.8684 24.5921 51.0339" stroke="#FFFFFE" stroke-linecap="round"/>
<path d="M26.3782 53.7734C25.3743 53.4248 24.3571 52.9509 23.4694 52.3638C23.1735 52.1682 22.8846 51.9805 22.5626 51.829C22.3594 51.7334 22.5148 51.8309 22.5968 51.8967" stroke="#FFFFFE" stroke-linecap="round"/>
<path d="M22.9988 54.1006C22.3182 53.5786 21.4238 53.3978 20.6825 52.9655C20.4261 52.8159 20.172 52.6691 19.904 52.5417C19.7211 52.4547 20.0656 52.5606 20.099 52.5694" stroke="#FFFFFE" stroke-linecap="round"/>
<path d="M28.8748 54.1816C28.0119 54.5944 27.5895 55.5119 27.0118 56.2315C26.8624 56.4175 26.5135 56.8496 26.2945 56.6738" stroke="#FFFFFE" stroke-linecap="round"/>
<path d="M25.3283 54.0873C24.9977 54.6516 24.6964 55.2323 24.3726 55.7991C24.3145 55.9008 24.213 56.2241 24.072 56.1936" stroke="#FFFFFE" stroke-linecap="round"/>
<path d="M21.11 54.8299C20.8857 55.1092 20.2579 55.9815 20.4822 55.7022" stroke="#FFFFFE" stroke-linecap="round"/>
<path d="M27.4592 46.0195C26.6053 45.9327 25.6718 45.7674 24.8666 45.4593C24.7469 45.4135 23.9624 45.0685 24.0557 45.0257" stroke="#FFFFFE" stroke-linecap="round"/>
<path d="M23.8762 46.6934C23.4069 46.6172 22.9135 46.555 22.4741 46.3646C22.3677 46.3184 21.7996 46.0757 21.8041 46.1164" stroke="#FFFFFE" stroke-linecap="round"/>
<path d="M23.4792 41.5928C22.7694 41.4394 22.0457 41.2528 21.3965 40.9187C21.1758 40.8052 20.5262 40.4535 20.7197 40.6088" stroke="#FFFFFE" stroke-linecap="round"/>
<path d="M21.8992 42.2061C21.1536 42.0506 20.381 41.8877 19.7017 41.5245C19.546 41.4412 19.2818 41.2367 19.1129 41.3456" stroke="#FFFFFE" stroke-linecap="round"/>
<path d="M19.9221 42.8662C19.3782 42.8083 18.9165 42.6387 18.4197 42.4167C18.3352 42.3789 18.0314 42.2176 18.0442 42.2278" stroke="#FFFFFE" stroke-linecap="round"/>
<path d="M23.653 37.6751C23.2223 37.1605 22.8163 36.6302 22.3765 36.1271C22.2962 36.0353 21.8897 35.5998 22.1833 35.6259" stroke="#FFFFFE" stroke-linecap="round"/>
<path d="M23.1283 35.4431C22.9735 35.0198 22.7678 34.6407 22.5172 34.2643C22.4697 34.193 22.1183 33.5708 22.2845 33.6067" stroke="#FFFFFE" stroke-linecap="round"/>
<path d="M23.7922 33.8052C23.6584 33.5746 23.5191 33.3368 23.3562 33.1252C23.3346 33.0972 23.0912 32.8803 23.2202 32.9838" stroke="#FFFFFE" stroke-linecap="round"/>
<path d="M29.2618 44.1348C28.4098 43.4508 27.6843 42.6564 26.9859 41.8167C26.9091 41.7244 26.2481 41.127 26.3559 41.0775" stroke="#FFFFFE" stroke-linecap="round"/>
<path d="M28.8419 42.1316C28.5631 41.448 27.9849 40.8807 27.5551 40.2857C27.4375 40.1228 27.1488 39.8008 27.1966 39.5793" stroke="#FFFFFE" stroke-linecap="round"/>
<path d="M28.6968 39.3348C28.1778 38.9017 26.9109 37.3215 27.438 37.7447" stroke="#FFFFFE" stroke-linecap="round"/>
<path d="M34.1593 48.4986C33.4565 47.322 32.3488 46.3469 31.3887 45.3729C31.2822 45.2649 30.6462 44.7819 30.6812 44.6199" stroke="#FFFFFE" stroke-linecap="round"/>
<path d="M34.0144 45.7041C33.5854 45.3751 33.0685 45.2035 32.615 44.9107C32.1826 44.6315 31.7612 44.2904 31.416 43.9078C31.154 43.6175 30.8936 43.2868 30.5971 43.0331C30.5613 43.0025 30.3328 42.841 30.4905 42.8751" stroke="#FFFFFE" stroke-linecap="round"/>
<path d="M33.3308 43.126C32.6742 42.7116 31.9723 42.3963 31.317 41.9801C31.2048 41.9089 30.4093 41.3716 30.6786 41.2865" stroke="#FFFFFE" stroke-linecap="round"/>
<path d="M32.3461 41.1039C31.7155 40.5977 31.0179 40.0336 30.5494 39.3718" stroke="#FFFFFE" stroke-linecap="round"/>
<path d="M34.1257 42.678C34.2851 42.0119 34.605 41.3868 34.8289 40.7394C34.9699 40.3316 35.1013 39.7485 35.3752 39.4072" stroke="#FFFFFE" stroke-linecap="round"/>
<path d="M32.923 39.3951C33.0194 38.7501 33.1023 38.1597 33.1497 37.5086C33.166 37.2844 33.142 36.7296 33.3864 36.6523" stroke="#FFFFFE" stroke-linecap="round"/>
<path d="M41.1733 53.4786C40.7142 52.7133 39.8056 52.0962 39.0759 51.6097C38.2576 51.0641 37.2829 50.8871 36.4619 50.3643C36.1498 50.1656 35.8658 49.9421 35.5779 49.7109C35.4013 49.5692 35.0208 49.3329 35.4724 49.4814" stroke="#FFFFFE" stroke-linecap="round"/>
<path d="M40.8705 49.9764C39.8429 48.8731 38.4359 48.2392 37.2723 47.305C37.0324 47.1125 36.8345 46.8812 36.5955 46.6893C36.4229 46.5508 36.2709 46.4926 36.545 46.4314" stroke="#FFFFFE" stroke-linecap="round"/>
<path d="M40.7517 47.4189C39.7948 46.7579 38.7867 46.2036 37.8781 45.4742C37.6677 45.3052 37.4572 45.1363 37.2468 44.9673C37.191 44.9226 36.9937 44.7699 37.1744 44.8368" stroke="#FFFFFE" stroke-linecap="round"/>
<path d="M40.3577 45.2902C39.6047 44.5751 38.7341 44.117 37.928 43.4845C37.8038 43.387 37.0556 42.7584 37.345 42.7267" stroke="#FFFFFE" stroke-linecap="round"/>
<path d="M40.2301 42.6527C39.5532 41.9157 38.7649 41.3378 37.9597 40.7535C37.8548 40.6774 37.2603 40.3166 37.6052 40.328" stroke="#FFFFFE" stroke-linecap="round"/>
<path d="M40.0052 39.8645C39.5841 39.3808 38.0782 38.1726 38.5783 38.574" stroke="#FFFFFE" stroke-linecap="round"/>
<path d="M41.0544 40.6358C40.962 39.6049 41.2391 38.452 41.5019 37.4617C41.5659 37.2205 41.5229 37.0775 41.5265 36.8496C41.5298 36.6318 41.663 36.7781 41.7666 36.8613" stroke="#FFFFFE" stroke-linecap="round"/>
<path d="M41.3586 43.0525C41.8068 42.1704 42.0667 41.2067 42.4974 40.3207C42.6621 39.9817 42.8133 39.6895 42.9196 39.3236C42.9957 39.0617 43.1094 38.7964 43.2806 38.5831" stroke="#FFFFFE" stroke-linecap="round"/>
<path d="M41.2478 46.0785C41.579 45.6457 41.8062 45.1375 42.1274 44.692C42.5732 44.0739 43.0279 43.4999 43.3736 42.819C43.5847 42.4031 43.7862 41.9841 44.0099 41.5752C44.1038 41.4036 44.1622 41.3655 44.0079 41.5576" stroke="#FFFFFE" stroke-linecap="round"/>
<path d="M41.4112 48.3094C42.5047 47.2455 43.3882 45.9977 44.3558 44.822C44.5594 44.5746 44.8034 44.3082 45.097 44.1695C45.3355 44.0567 45.3818 43.9951 45.1851 44.2402" stroke="#FFFFFE" stroke-linecap="round"/>
<path d="M41.363 50.806C42.4409 49.4633 43.5513 48.1268 44.5507 46.725C44.764 46.4259 44.9562 46.0492 45.2556 45.8219C45.384 45.7244 45.6063 45.518 45.5892 45.3613" stroke="#FFFFFE" stroke-linecap="round"/>
<path d="M51.0473 62.205C49.9017 60.9757 48.6633 59.9137 47.2162 59.0569C47.0838 58.9785 45.7808 57.9804 45.8409 57.9528" stroke="#FFFFFE" stroke-linecap="round"/>
<path d="M51.1034 60.5119C49.7182 59.1396 47.989 58.1663 46.6519 56.753C46.26 56.3388 45.9488 55.8974 45.6073 55.4475C45.5167 55.3283 45.0986 54.8943 45.4577 55.1826" stroke="#FFFFFE" stroke-linecap="round"/>
<path d="M50.9328 57.4749C50.5121 56.7686 50.0071 56.1231 49.562 55.4327C48.9779 54.5266 48.4696 53.5462 48.0123 52.5708C47.8173 52.1549 47.6393 51.6867 47.4038 51.2935C47.2447 51.0279 47.2843 50.924 47.5472 51.135" stroke="#FFFFFE" stroke-linecap="round"/>
<path d="M51.4497 54.124C50.3542 52.6811 48.5887 51.8128 47.1867 50.7016C46.7129 50.3261 46.2437 49.9446 45.7722 49.5661C45.5337 49.3746 45.5162 49.3605 45.7673 49.5622" stroke="#FFFFFE" stroke-linecap="round"/>
<path d="M52.1451 49.828C51.049 48.9082 50.0261 47.8914 48.9663 46.9299C48.6152 46.6114 48.2733 46.285 47.9034 45.9881C47.7418 45.8583 48.3126 46.1886 48.3755 46.2222" stroke="#FFFFFE" stroke-linecap="round"/>
<path d="M52.9621 46.645C52.3082 45.9871 51.6127 45.4168 50.8891 44.836C50.6696 44.6597 50.4477 44.487 50.2608 44.2752C50.1234 44.1195 50.4943 44.3185 50.54 44.3384" stroke="#FFFFFE" stroke-linecap="round"/>
<path d="M52.711 43.6195C52.2957 43.1879 51.9044 42.7545 51.4369 42.3793C51.295 42.2653 50.8692 41.9235 51.0111 42.0374" stroke="#FFFFFE" stroke-linecap="round"/>
<path d="M51.3168 59.5224C51.4624 59.2324 51.566 58.9243 51.7035 58.6296C51.9766 58.0446 52.3306 57.5385 52.6982 57.0096C53.0283 56.5347 53.4059 56.0832 53.6368 55.5497C53.7071 55.3875 54.0137 54.9849 53.9361 54.816" stroke="#FFFFFE" stroke-linecap="round"/>
<path d="M51.5878 55.7572C51.635 55.4382 51.7588 55.1666 51.8697 54.8647C52.1561 54.085 52.4075 53.2932 52.6883 52.5116C52.8919 51.9448 53.112 51.3455 53.486 50.8662C53.5414 50.7953 53.7946 50.5739 53.6699 50.547" stroke="#FFFFFE" stroke-linecap="round"/>
<path d="M52.9216 49.5828C53.3126 48.83 53.7796 48.0978 54.0949 47.3093C54.2429 46.9389 54.2717 46.5193 54.436 46.1625" stroke="#FFFFFE" stroke-linecap="round"/>
<path d="M53.301 44.5987C53.7368 44.0344 53.9586 43.409 54.1403 42.7211C54.1975 42.5044 54.3766 41.5478 54.6119 41.5221" stroke="#FFFFFE" stroke-linecap="round"/>
<path d="M55.3141 64.1087C55.2035 63.4505 54.6489 62.9505 54.2396 62.4494C53.796 61.9061 53.3475 61.3655 52.8563 60.8639C52.582 60.5838 52.2572 60.334 52.0227 60.0176C51.8226 59.7476 51.9506 59.8726 52.1717 59.9923" stroke="#FFFFFE" stroke-linecap="round"/>
<path d="M55.6632 61.4171C55.2335 60.5002 54.5624 59.7106 54.038 58.8447C53.8169 58.4795 53.5881 58.1206 53.3591 57.7604C53.2727 57.6244 53.0301 57.4025 53.2089 57.346" stroke="#FFFFFE" stroke-linecap="round"/>
<path d="M55.7203 58.6375C55.2419 57.8251 54.9625 56.8912 54.5284 56.0467C54.3005 55.6033 54.0414 55.1718 53.8235 54.7242C53.7204 54.5127 53.595 54.427 53.8659 54.541" stroke="#FFFFFE" stroke-linecap="round"/>
<path d="M55.9821 55.5169C55.769 54.5825 55.1802 53.7266 54.7015 52.9113C54.4779 52.5303 54.249 52.0808 53.9272 51.7704C53.8406 51.687 53.7484 51.6436 53.8628 51.5699" stroke="#FFFFFE" stroke-linecap="round"/>
<path d="M55.945 51.1404C55.6308 50.4773 55.2505 49.9047 54.8086 49.3227C54.7155 49.2001 54.4417 48.8874 54.4758 48.7295" stroke="#FFFFFE" stroke-linecap="round"/>
<path d="M56.8141 48.4334C56.5096 47.7807 56.1219 47.2214 55.7066 46.6348C55.5379 46.3965 55.0773 45.8076 55.6093 46.2347" stroke="#FFFFFE" stroke-linecap="round"/>
<path d="M56.0424 61.2153C56.2998 60.2503 56.6519 59.2789 57.099 58.3853C57.3395 57.9045 57.5239 57.4556 57.6382 56.9266C57.6744 56.7592 57.7077 56.1735 57.8242 56.1987" stroke="#FFFFFE" stroke-linecap="round"/>
<path d="M56.0153 56.1942C56.2114 55.7919 56.4162 55.3913 56.6065 54.9866C56.8933 54.3769 57.0139 53.6932 57.2303 53.0567C57.4119 52.5224 57.5739 51.993 57.7937 51.4726C57.8545 51.3287 57.9531 51.16 57.7531 51.1422" stroke="#FFFFFE" stroke-linecap="round"/>
<path d="M57.2735 47.8624C57.4036 47.5717 57.5862 47.259 57.6765 46.9544C57.7516 46.701 57.7255 46.4362 57.8145 46.196" stroke="#FFFFFE" stroke-linecap="round"/>
<path d="M61.1202 58.4107C60.521 57.657 59.983 56.8442 59.4922 56.0172" stroke="#FFFFFE" stroke-linecap="round"/>
<path d="M60.2592 61.1965C59.8782 60.2937 59.5207 59.382 59.1469 58.4764C59.0768 58.3067 58.7983 57.8505 58.9414 57.9654" stroke="#FFFFFE" stroke-linecap="round"/>
<path d="M60.0183 62.668C59.557 61.9611 59.0726 61.2711 58.6388 60.5464C58.5256 60.3572 58.4098 60.1698 58.2958 59.9812C58.219 59.8543 58.295 59.9289 58.3556 59.9568" stroke="#FFFFFE" stroke-linecap="round"/>
<path d="M58.9904 65.3931C58.5506 64.688 58.2056 63.9272 57.8591 63.173C57.8285 63.1063 57.4206 62.3943 57.6807 62.6032" stroke="#FFFFFE" stroke-linecap="round"/>
<path d="M63.0423 69.3708C62.5446 68.2766 62.0059 67.1931 61.6041 66.0592C61.5359 65.8664 61.3945 65.6931 61.3728 65.4951" stroke="#FFFFFE" stroke-linecap="round"/>
<path d="M63.6651 66.2474C63.3382 65.3882 62.8339 64.6703 62.3037 63.923C62.2505 63.848 61.7476 63.1969 61.8883 63.2273" stroke="#FFFFFE" stroke-linecap="round"/>
<path d="M64.2061 64.2193C63.8555 63.4088 63.5987 62.5505 63.3204 61.7134C63.2192 61.4093 63.1356 61.0356 62.9534 60.7669C62.9434 60.752 62.8348 60.6555 62.8977 60.706" stroke="#FFFFFE" stroke-linecap="round"/>
<path d="M65.26 61.7341C65.0771 60.7607 64.6271 60.0437 64.1077 59.2194C64.0086 59.0621 63.7312 58.7777 63.7127 58.6085" stroke="#FFFFFE" stroke-linecap="round"/>
<path d="M65.9446 58.8059C65.7182 57.9842 65.3314 57.2302 64.8222 56.5446C64.7789 56.4863 64.3801 56.1311 64.617 56.2188" stroke="#FFFFFE" stroke-linecap="round"/>
<path d="M66.5588 55.6069C66.1896 55.0016 64.8805 53.3459 65.1766 53.9901" stroke="#FFFFFE" stroke-linecap="round"/>
<path d="M67.7564 72.431C67.0927 71.4014 66.5277 70.343 65.7041 69.4231C65.4367 69.1245 65.1527 68.8381 64.8803 68.5444C64.8196 68.479 64.5742 68.2826 64.7903 68.4561" stroke="#FFFFFE" stroke-linecap="round"/>
<path d="M68.0243 70.4713C67.6198 69.6081 67.1789 68.7161 66.6309 67.9361C66.3089 67.4778 65.95 67.0572 65.5661 66.6507C65.5078 66.589 65.1036 66.0647 65.2877 66.3909" stroke="#FFFFFE" stroke-linecap="round"/>
<path d="M68.0731 67.9748C67.7174 67.1163 67.1471 66.2304 66.5938 65.4914C66.3312 65.1407 65.3466 64.2648 65.6882 64.539" stroke="#FFFFFE" stroke-linecap="round"/>
<path d="M68.4655 65.3201C68.3378 64.3521 67.7897 63.5787 67.402 62.6997C67.3155 62.5036 66.7818 61.5524 66.8753 61.4358" stroke="#FFFFFE" stroke-linecap="round"/>
<path d="M68.9811 63.0538C68.9554 62.2559 68.4083 61.6593 68.0868 60.9595C68.0388 60.855 67.7279 60.0166 67.8041 60.0082" stroke="#FFFFFE" stroke-linecap="round"/>
<path d="M70.0446 60.2867C69.8376 59.6834 69.5758 59.1659 69.3055 58.5906C69.2333 58.437 68.8335 57.7349 68.9111 57.6382" stroke="#FFFFFE" stroke-linecap="round"/>
<path d="M70.7979 57.9935C70.7213 57.3754 70.4176 56.9048 70.1244 56.3662C70.0207 56.1758 69.9457 55.9581 69.8235 55.7785C69.7437 55.6614 69.7811 55.6766 69.9021 55.6806" stroke="#FFFFFE" stroke-linecap="round"/>
<path d="M71.4743 54.6241C71.1387 54.1984 70.7628 53.7702 70.4944 53.2981C70.4662 53.2486 70.182 52.8623 70.3302 52.9813" stroke="#FFFFFE" stroke-linecap="round"/>
<path d="M71.2546 59.2288C71.5351 58.6666 71.7781 58.0798 72.049 57.5124C72.1672 57.2649 72.1991 56.6953 72.4941 56.602" stroke="#FFFFFE" stroke-linecap="round"/>
<path d="M70.6609 60.7829C70.8793 60.4401 71.0818 60.0661 71.3429 59.7529C71.5142 59.5475 71.8356 59.4363 72.0617 59.3037C72.1831 59.2325 72.9526 58.5797 72.6673 58.5544" stroke="#FFFFFE" stroke-linecap="round"/>
<path d="M69.0858 63.6469C69.5525 63.2259 70.1734 63.0964 70.6714 62.7145C71.3054 62.2284 71.6965 61.4832 71.9843 60.7583" stroke="#FFFFFE" stroke-linecap="round"/>
<path d="M68.9501 65.7105C69.4668 65.2058 70.0833 64.8281 70.5997 64.3224C70.7221 64.2025 71.4239 63.2778 71.5037 63.3418" stroke="#FFFFFE" stroke-linecap="round"/>
<path d="M68.3357 68.912C68.8995 68.5394 69.3859 68.0676 69.8358 67.5648C70.1394 67.2254 70.5253 66.5316 70.9954 66.4111" stroke="#FFFFFE" stroke-linecap="round"/>
<path d="M66.8181 58.7094C67.1206 58.3327 67.4249 57.9782 67.6391 57.5414C67.9102 56.9887 68.0106 56.4041 68.358 55.8891" stroke="#FFFFFE" stroke-linecap="round"/>
<path d="M61.1807 59.3272C61.8007 58.7358 61.9799 58.1444 62.2467 57.3377C62.3625 56.9874 62.5844 56.208 62.9507 56.0397" stroke="#FFFFFE" stroke-linecap="round"/>
<path d="M61.3557 55.0486C61.659 54.3859 61.9525 53.7537 62.372 53.1561C62.4641 53.0249 62.6525 52.9063 62.5506 52.7481" stroke="#FFFFFE" stroke-linecap="round"/>
<path d="M57.8632 36.3105C58.0069 36.7256 58.0412 37.1859 57.6997 37.4837C58.1036 38.0895 58.3031 37.7997 58.9185 37.7997C59.5094 37.7997 60.2136 37.7081 60.7621 37.4971C61.3641 37.2656 61.9834 37.1439 62.4345 36.6928C62.6389 36.4883 63.0041 36.2569 63.0398 35.9362C63.0639 35.7188 63.2522 35.3507 63.3424 35.1478C63.5579 34.6628 63.2206 34.0085 63.1154 33.5351C63.0047 33.0366 63.0794 32.2334 63.2707 31.779C63.4137 31.4395 63.424 31.0185 63.5813 30.7039C63.7442 30.3782 63.8657 30.0087 63.9716 29.6646C64.0783 29.3177 64.0432 28.9503 64.0432 28.5895C64.0432 28.2434 64.0588 27.7627 63.9357 27.4427C63.8124 27.1221 63.8187 26.4197 63.4858 27.0485C63.3116 27.3775 62.9798 26.6405 62.8964 26.5468C62.5232 26.1269 62.4535 25.5093 62.108 25.0774C61.7422 24.6202 61.4848 24.0642 61.0886 23.624C60.6569 23.1443 61.1046 22.36 61.4629 21.9596C61.5694 21.8405 61.7466 21.4892 61.8054 21.3304C61.8805 21.1277 61.9647 21.0013 61.9647 20.7809C61.9647 20.586 61.4402 20.6694 61.2837 20.6694C60.5467 20.6694 59.7749 20.9145 59.026 20.9561C58.7595 20.9709 58.4868 21.0278 58.2017 21.0278C57.8765 21.0278 57.834 20.6906 57.6283 20.5261C57.2052 20.1875 57.6762 19.2093 57.915 18.9173C58.0611 18.7388 58.1239 18.5187 58.2734 18.336C58.3932 18.1895 58.489 17.6175 58.2216 17.8581C58.0155 18.0437 57.4366 18.2307 57.1624 18.3758C56.8435 18.5446 56.7136 18.7749 56.3342 18.6665C56.1221 18.6059 56.0344 18.2569 55.9439 18.0533C55.6591 17.4123 55.1631 19.0305 55.0998 19.1642C54.961 19.4573 54.9276 19.7609 54.7613 20.0602C54.6456 20.2685 54.6047 20.6814 54.6578 20.9203L54.6594 20.9277C54.7537 21.3518 55.0003 22.4613 54.3671 22.4613C54.0266 22.4613 53.8407 22.4503 53.5428 22.3179C53.2782 22.2003 52.9972 21.6786 52.6827 21.7485C52.0753 21.8835 52.6127 22.8872 52.7743 23.178C52.9929 23.5715 53.7478 24.0756 53.722 24.5399C53.711 24.7388 53.5749 25.1272 53.4672 25.2964C53.2704 25.6057 53.292 25.945 53.292 26.2959C53.292 26.8234 53.4179 27.4931 53.6344 27.9803C53.7784 28.3041 53.7748 28.691 53.9012 29.0195C54.0201 29.3287 54.1521 29.7605 54.1521 30.0907C54.1521 30.6637 54.2285 31.2292 53.937 31.7392C53.6016 32.3263 54.7485 32.341 55.0838 32.6391C55.5703 33.0716 56.1372 33.292 56.5492 33.8218C56.7221 34.0441 56.8495 34.3757 57.0191 34.6301C57.2241 34.9376 57.479 35.1677 57.6482 35.5061C57.7762 35.7621 57.7705 36.0424 57.8632 36.3105Z" fill="#FFFDFD"/>
<path d="M57.6641 37.513C58.0434 37.2168 58.0117 36.7395 57.8632 36.3105C57.7705 36.0424 57.7762 35.7621 57.6482 35.5061C57.479 35.1677 57.2241 34.9376 57.0191 34.6301C56.8495 34.3757 56.7221 34.0441 56.5492 33.8218C56.1372 33.292 55.5703 33.0716 55.0838 32.6391C54.7485 32.341 53.6016 32.3263 53.937 31.7392C54.2285 31.2292 54.1521 30.6637 54.1521 30.0907C54.1521 29.7605 54.0201 29.3287 53.9012 29.0195C53.7748 28.691 53.7784 28.3041 53.6344 27.9803C53.4179 27.4931 53.292 26.8234 53.292 26.2959C53.292 25.945 53.2704 25.6057 53.4672 25.2964C53.5749 25.1272 53.711 24.7388 53.722 24.5399C53.7478 24.0756 52.9929 23.5715 52.7743 23.178C52.6127 22.8872 52.0753 21.8835 52.6827 21.7485C52.9972 21.6786 53.2782 22.2003 53.5428 22.3179C53.8407 22.4503 54.0266 22.4613 54.3671 22.4613C55.0041 22.4613 54.7507 21.3386 54.6578 20.9203C54.6047 20.6814 54.6456 20.2685 54.7613 20.0602C54.9276 19.7609 54.961 19.4573 55.0998 19.1642C55.1631 19.0305 55.6591 17.4123 55.9439 18.0533C56.0344 18.2569 56.1221 18.6059 56.3342 18.6665C56.7136 18.7749 56.8435 18.5446 57.1624 18.3758C57.4366 18.2307 58.0155 18.0437 58.2216 17.8581C58.489 17.6175 58.3932 18.1895 58.2734 18.336C58.1239 18.5187 58.0611 18.7388 57.915 18.9173C57.6762 19.2093 57.2052 20.1875 57.6283 20.5261C57.834 20.6906 57.8765 21.0278 58.2017 21.0278C58.4868 21.0278 58.7595 20.9709 59.026 20.9561C59.7749 20.9145 60.5467 20.6694 61.2837 20.6694C61.4402 20.6694 61.9647 20.586 61.9647 20.7809C61.9647 21.0013 61.8805 21.1277 61.8054 21.3304C61.7466 21.4892 61.5694 21.8405 61.4629 21.9596C61.1046 22.36 60.6569 23.1443 61.0886 23.624C61.4848 24.0642 61.7422 24.6202 62.108 25.0774C62.4535 25.5093 62.5232 26.1269 62.8964 26.5468C62.9798 26.6405 63.3116 27.3775 63.4858 27.0485C63.8187 26.4197 63.8124 27.1221 63.9357 27.4427C64.0588 27.7627 64.0432 28.2434 64.0432 28.5895C64.0432 28.9503 64.0783 29.3177 63.9716 29.6646C63.8657 30.0087 63.7442 30.3782 63.5813 30.7039C63.424 31.0185 63.4137 31.4395 63.2707 31.779C63.0794 32.2334 63.0047 33.0366 63.1154 33.5351C63.2206 34.0085 63.5579 34.6628 63.3424 35.1478C63.2522 35.3507 63.0639 35.7188 63.0398 35.9362C63.0041 36.2569 62.6389 36.4883 62.4345 36.6928C61.9834 37.1439 61.3641 37.2656 60.7621 37.4971C60.2136 37.7081 59.5094 37.7997 58.9185 37.7997C58.3031 37.7997 58.1036 38.0895 57.6997 37.4837" stroke="#FFFEFE" stroke-width="0.5" stroke-linecap="round"/>
<path d="M55.1983 31.7353C54.6156 31.8169 54.1851 30.3549 53.9385 29.9023C53.7202 29.5017 53.7197 29.0057 53.5141 28.617C53.105 27.8432 53.1067 27.0836 53.2104 26.2456C53.448 24.3255 56.1334 23.3368 55.7389 21.2621C55.7027 21.0714 55.6664 20.8806 55.6301 20.6898C55.6282 20.6797 55.796 20.9753 55.8532 21.0891C56.0274 21.4352 56.5371 21.7879 56.8622 21.9646C57.3054 22.2055 57.8819 22.224 58.3691 22.3406C58.9088 22.4698 59.352 22.692 59.8676 22.8654C60.9171 23.2184 61.8615 24.4834 62.3109 25.4557C62.548 25.9687 62.6885 26.4813 62.8642 27.0108C62.9284 27.2041 62.9472 27.4255 62.9853 27.6258C63.065 28.0451 62.9836 27.6965 62.8842 27.4814" stroke="#0B0B0A" stroke-width="0.5" stroke-linecap="round"/>
<path d="M62.8775 33.979C62.7463 33.289 63.4231 31.0971 63.586 30.4022C63.6909 29.955 64.047 29.5431 64.0728 29.091C64.1113 28.417 64.2936 27.9294 64.1621 27.2378C64.1028 26.9262 63.9917 26.6103 63.7485 26.3962C63.527 26.2012 63.6179 26.6141 63.5898 26.7659C63.4719 27.4031 63.3226 28.2371 62.7837 28.6777C62.153 29.1932 61.6976 29.8662 61.418 30.6141C61.1791 31.2529 61.0629 31.844 61.1904 32.5141C61.2354 32.7509 61.2804 32.9877 61.3254 33.2245C61.3927 33.5782 61.3502 32.9674 61.3289 32.8558" stroke="#0B0B0A" stroke-width="0.5" stroke-linecap="round"/>
<path d="M63.0636 33.8491C62.5764 33.5176 62.3925 33.4204 61.8188 33.4969C61.5569 33.5317 61.2249 33.3885 60.9855 33.2872C60.5919 33.1208 60.3622 32.8285 60.0262 32.5863C59.7382 32.3788 59.5175 32.0621 59.5832 32.601C59.6971 33.5354 59.234 34.1899 58.904 35.0081C58.7241 35.4541 58.9952 36.0975 59.236 36.4745C59.4743 36.8475 60.1943 36.9673 60.5483 37.1819C60.9989 37.455 62.0851 36.8521 62.3614 36.5222C62.6703 36.1533 63.3686 35.8404 63.2559 35.2479C63.2109 35.0111 63.1659 34.7743 63.1208 34.5375C63.0903 34.3766 63.0919 33.9056 62.8909 34.1027" stroke="#0B0B0A" stroke-width="0.5" stroke-linecap="round"/>
<path d="M62.9738 34.5311C62.1915 34.6798 61.4856 34.9252 60.8023 35.3489C60.6308 35.4552 60.4188 35.456 60.2424 35.5658C60.0575 35.6808 59.8872 35.8207 59.7093 35.9452C59.6362 35.9964 59.3735 36.1148 59.3706 36.0996" stroke="#0B0B0A" stroke-width="0.5" stroke-linecap="round"/>
<path d="M60.4073 37.3C59.9025 37.1876 59.4141 37.0351 58.895 37.0681C58.6211 37.0856 58.3539 36.9331 58.0886 36.9352C57.8117 36.9374 56.5958 36.9675 57.1996 37.3783C57.4789 37.5684 58.0207 37.6618 58.353 37.7233C58.7138 37.7901 59.0997 37.7798 59.4655 37.8103C59.7008 37.8299 60.1253 37.7834 60.3455 37.6634C60.4636 37.5991 60.951 37.2521 60.8335 37.2189" stroke="#0B0B0A" stroke-width="0.5" stroke-linecap="round"/>
<path d="M59.0456 34.3931C58.8501 34.0432 58.6612 33.513 58.3187 33.28C58.0526 33.0989 57.7325 32.8979 57.4451 32.7508C56.9362 32.4903 56.416 32.1498 55.8631 31.9802C55.1383 31.7578 54.4068 31.5345 53.678 31.3283C53.3905 31.247 53.1695 31.1988 52.9221 31.0304C52.5108 30.7506 52.6856 30.9881 52.9308 31.27C53.5506 31.9824 54.5678 32.3977 55.3436 32.9255C56.0866 33.4311 56.3693 34.2673 56.8703 34.954C57.2467 35.47 57.6687 36.3689 58.3188 36.5925C58.6351 36.7013 58.9377 36.9225 58.8285 36.3483" stroke="#0B0B0A" stroke-width="0.5" stroke-linecap="round"/>
<path d="M61.2174 23.7501C60.9538 22.9731 61.4341 22.1084 61.9296 21.5168C62.051 21.3718 62.5602 20.3572 62.1426 20.5724C61.724 20.7882 61.2663 20.9075 60.7963 20.9552C60.3963 20.9958 59.9965 20.8906 59.5883 20.9682C59.3501 21.0135 59.112 21.0588 58.8739 21.104C58.6408 21.1484 58.4176 21.1908 58.8029 21.1176" stroke="#0B0B0A" stroke-width="0.5" stroke-linecap="round"/>
<path d="M60.5311 22.8494C60.0691 22.6003 59.8466 22.0976 59.3538 21.8627C59.0441 21.7151 58.7215 21.618 58.4361 21.4238C57.8426 21.02 57.5302 20.3265 57.6135 19.5927C57.6979 18.8489 58.4824 18.3528 58.7206 17.6727C58.826 17.3718 58.0978 17.9271 57.9571 18.0019C57.5493 18.2188 57.1342 18.4087 56.726 18.6245C56.2119 18.8964 55.9291 18.11 55.6873 17.8078C55.4652 17.5303 55.2918 18.1178 55.2765 18.2499C55.2295 18.657 55.0356 18.9558 54.9494 19.3468C54.7838 20.0978 54.7428 20.7993 55.0705 21.5321C55.2122 21.849 55.2485 22.226 55.2111 22.5728C55.1982 22.6925 55.1559 23.2288 55.1117 22.9965" stroke="#0B0B0A" stroke-width="0.5" stroke-linecap="round"/>
<path d="M55.0244 21.7625C54.8354 22.6708 54.0769 22.1593 53.4641 21.9447C53.1679 21.841 52.3699 21.7391 52.4683 22.2567C52.5848 22.8696 53.0165 23.5123 53.4544 23.9586C53.6465 24.1544 53.999 24.8868 53.9477 24.6173" stroke="#0B0B0A" stroke-width="0.5" stroke-linecap="round"/>
<path d="M63 41.3465C63 41.7943 63.158 42.155 63.4301 42.5291C63.3817 42.4324 64.0638 42.6763 64.1468 42.78C64.3723 43.0619 64.5052 43.016 64.5052 43.4609C64.5052 44.4104 64.565 45.4051 64.7759 46.3279C64.8396 46.6066 64.824 46.8967 64.9193 47.1721C64.9876 47.3693 65.1872 47.44 65.3294 47.5822C65.5858 47.8386 65.9806 48.0714 66.2971 48.2472C66.6142 48.4234 66.9025 48.6087 67.2647 48.6892C67.6128 48.7666 67.982 49.1754 68.304 49.3542C68.7841 49.621 68.9405 49.4775 69.4149 49.2666C69.6995 49.1401 70.1714 48.7424 70.3268 48.4782C70.6502 47.9283 71.603 46.937 72.3178 47.3154C72.4915 47.4074 72.5492 47.5872 72.6761 47.7216C72.8837 47.9413 72.8187 47.8868 73.142 47.8371C73.5542 47.7737 73.9716 47.1835 74.1813 46.8456C74.3276 46.6099 74.8413 45.6112 74.3207 45.6112C74.1114 45.6112 73.5455 45.7051 73.8986 45.3961C74.0909 45.2278 74.2814 45.0712 74.468 44.8944C74.5984 44.7709 74.7473 44.7826 74.8981 44.7073C75.0473 44.6327 75.1377 44.4859 75.2724 44.3927C75.4682 44.2571 75.6082 44.0753 75.794 43.9308C76.3436 43.5033 76.7968 43.1772 77.1917 42.5849C77.5076 42.111 77.8511 41.6468 78.1593 41.1673C78.441 40.729 78.4387 40.2552 78.6411 39.8055C78.8522 39.3363 79.0491 38.873 79.5211 38.6189C79.8016 38.4679 80.0632 38.2776 80.3414 38.1211C80.5822 37.9857 80.9339 37.7734 81.1338 37.5836C81.2217 37.5 81.8245 37.016 81.6913 36.8827C81.655 36.8465 81.3074 36.8138 81.2413 36.7991C80.7819 36.697 81.8918 35.9571 81.962 35.8474C82.0852 35.655 81.504 35.8885 81.4046 35.9191C81.1597 35.9945 80.7326 35.9669 80.4887 35.8992C80.2568 35.8348 79.3169 35.7763 79.5012 35.3616C79.8603 34.5535 80.1639 33.9304 80.9347 33.4264C81.2907 33.1937 81.6355 32.9099 81.6355 32.4548C81.6355 32.1638 81.4589 31.6915 81.5798 31.4195C81.7306 31.08 82.2089 31.0221 82.2089 30.5952C82.2089 30.3011 82.414 29.877 82.0656 29.6834C81.5195 29.38 81.0866 29.556 80.4887 29.556C80.2276 29.556 79.3528 29.4227 79.5729 28.9826C79.782 28.5642 80.202 28.3999 80.202 27.8716C80.202 27.463 80.1431 27.2267 79.772 27.0314C79.527 26.9025 78.8265 26.5738 78.7645 26.2947C78.7209 26.0982 78.6682 25.8708 78.5853 25.6815C78.5206 25.5335 78.4818 25.4336 78.4818 25.2714C78.4818 25.2402 78.5 25.0049 78.4659 25.0006C78.2204 24.9699 78.1234 26.113 78.1234 26.2509C78.1234 26.744 77.7393 27.3413 77.4067 27.6924C77.2304 27.8785 77.2102 28.1566 77.0483 28.3375C76.8946 28.5092 76.7119 28.736 76.6183 28.9467C76.4693 29.282 76.28 29.6965 76.2599 30.0577C76.2428 30.3648 76.0384 30.8656 75.794 31.0611C75.501 31.2956 75.0359 31.2544 74.7547 31.4912C74.5193 31.6894 73.6837 32.0646 73.357 32.0646C72.9553 32.0646 72.8077 31.5212 72.6921 31.2204C72.6098 31.0066 72.6165 30.8607 72.6045 30.6311C72.5953 30.457 72.3903 30.3599 72.3178 30.2329C72.1698 29.974 71.8009 29.7866 71.6568 29.556C71.4665 29.2516 71.16 28.9053 70.8843 28.664C70.5425 28.365 70.4672 28.0612 70.2392 27.6765C70.1112 27.4605 69.6901 26.5447 69.4508 27.0832C69.2997 27.4231 69.1641 27.8277 69.1641 28.1941C69.1641 28.6451 69.2705 29.3304 69.0526 29.7351C68.8174 30.1719 68.6017 30.657 68.4314 31.1169C68.044 32.1629 67.3449 33.1288 66.7271 34.0556C66.4383 34.4887 66.2876 35.1862 66.1537 35.6882C66.003 36.2534 65.8153 36.7552 65.636 37.3128C65.4626 37.8523 65.5004 38.4009 65.3653 38.9414C65.2655 39.3407 65.2936 39.7503 65.2936 40.1639C65.2936 40.6521 65.1137 40.5939 64.6844 40.5939C64.3986 40.5939 63.8991 40.6801 63.6451 40.793C63.2962 40.9481 63 40.8369 63 41.3465Z" fill="white" stroke="white" stroke-width="0.5" stroke-linecap="round"/>
<path d="M65.6678 41.904C66.0767 40.5902 66.3426 39.3021 66.9446 38.0696C67.4711 36.9917 68.4957 35.7176 69.7457 35.5358C70.1608 35.4755 70.5176 35.3459 70.9424 35.3194C71.3333 35.295 71.6395 35.3782 72.0129 35.4944C72.6245 35.6847 73.2361 35.875 73.8477 36.0654C74.4534 36.2539 75.2838 36.0442 75.9086 35.9949C76.5697 35.9427 77.1448 35.7687 77.7804 35.6282C77.9967 35.5805 78.2204 35.3825 78.4213 35.2916C78.4679 35.2705 78.1335 35.9529 78.0978 36.0346C77.8597 36.5789 77.478 37.1117 77.4695 37.7286C77.4549 38.8014 78.0358 39.778 77.7095 40.8265C77.47 41.596 77.0582 42.1815 76.6113 42.8445C76.2778 43.3392 75.7131 44.134 75.1881 44.4098C74.5202 44.7607 73.6016 45.4776 72.8221 45.4751C72.5641 45.4743 72.3395 45.6205 72.0919 45.6609C71.7729 45.7131 71.5828 45.8868 71.5921 45.4878" stroke="#0B0B0A" stroke-width="0.5" stroke-linecap="round"/>
<path d="M77.9353 40.1053C78.4644 39.3599 79.0933 38.7037 79.7476 38.0943C79.8742 37.9763 80.0288 37.7991 80.1807 37.7193C80.4046 37.6017 80.7099 37.6536 80.913 37.5122C81.2082 37.3068 81.7568 37.1606 82.1212 37.0753C82.3677 37.0176 81.6664 37.005 81.593 37.0076C81.3556 37.0159 81.0444 36.9599 80.8169 36.8891C80.4175 36.7648 80.2832 36.4988 79.948 36.3067C79.6798 36.153 79.4052 36.0542 79.1063 35.9612C78.9267 35.9053 78.2914 36.1898 78.2369 36.0861" stroke="#0B0B0A" stroke-width="0.5" stroke-linecap="round"/>
<path d="M80.2288 36.5465C80.5672 36.1405 80.9844 35.9686 81.4308 35.7341" stroke="#0B0B0A" stroke-width="0.5" stroke-linecap="round"/>
<path d="M81.359 35.7124C80.6183 35.5011 79.8101 35.9345 79.0705 35.9493" stroke="#0B0B0A" stroke-width="0.5" stroke-linecap="round"/>
<path d="M78.9217 35.6661C79.2634 35.0324 79.6157 34.5808 80.1158 34.0603C80.5194 33.6401 81.0235 33.4876 81.2072 32.8971" stroke="#0B0B0A" stroke-width="0.5" stroke-linecap="round"/>
<path d="M81.2677 32.4426C81.0339 32.1863 80.7607 32.0386 80.8704 31.6861C80.9189 31.5302 80.9724 31.2789 81.1356 31.215C81.2713 31.1619 81.1771 31.058 81.0599 31.0772C80.8299 31.1148 80.6118 31.219 80.3785 31.2474C80.0321 31.2896 79.7308 31.0511 79.4458 30.9264C78.9164 30.6948 78.8267 30.0224 78.6855 29.5429C78.4793 28.8425 78.0827 28.7857 77.5902 29.3206C77.1263 29.8245 76.907 30.6971 76.707 31.3396C76.52 31.9403 76.5948 32.7337 76.8895 33.2947C77.1756 33.8394 77.5242 34.2832 78.1394 34.4747C78.5318 34.5968 79.1204 34.9272 79.3734 34.4632" stroke="#0B0B0A" stroke-width="0.5" stroke-linecap="round"/>
<path d="M81.1563 31.5366C81.4461 31.5683 81.6966 31.6257 81.972 31.7114C82.0729 31.7428 82.3604 31.8993 82.2329 31.7486C81.8926 31.3466 81.6232 30.9152 81.6668 30.3904C81.704 29.9445 81.1458 29.7251 80.7797 29.6969C80.3173 29.6612 79.7858 29.4817 79.352 29.7096" stroke="#0B0B0A" stroke-width="0.5" stroke-linecap="round"/>
<path d="M79.4906 29.5164C78.9153 28.6212 80.7034 28.3133 79.554 27.5192C79.3766 27.3966 79.0602 27.3222 78.9231 27.1602C78.7575 26.9646 78.6282 26.7149 78.4668 26.5085C78.329 26.3322 78.1873 26.0684 78.1404 25.8488C78.1291 25.7961 78.1266 25.1503 78.0052 25.196C77.9383 25.2211 77.8943 25.75 77.8693 25.8304C77.7554 26.1963 77.6415 26.5622 77.5277 26.9281C77.3708 27.4322 77.2628 27.8977 76.8429 28.253C76.5526 28.4987 76.3921 28.836 76.1892 29.1393C75.954 29.4907 75.6309 30.7355 75.7565 30.3318" stroke="#0B0B0A" stroke-width="0.5" stroke-linecap="round"/>
<path d="M76.9428 29.8285C76.602 30.4269 75.972 30.7813 75.3674 31.0784C75.0088 31.2545 74.6444 31.2899 74.3156 31.5069C73.9562 31.7441 73.7166 32.0314 73.4039 32.3042C72.9405 32.7085 72.8068 33.4603 72.6315 34.0236C72.5657 34.2354 72.1416 35.1922 72.2997 35.3441" stroke="#0B0B0A" stroke-width="0.5" stroke-linecap="round"/>
<path d="M72.8977 35.4519C73.9146 35.0372 74.7506 34.9149 75.8146 34.9183C76.0076 34.9189 77.2708 35.2389 77.1012 35.4154" stroke="#0B0B0A" stroke-width="0.5" stroke-linecap="round"/>
<path d="M73.0523 32.4157C72.6307 32.3658 72.1826 32.0138 71.7626 32.0979C71.4137 32.1677 71.1074 32.3316 70.8363 32.561C70.5645 32.7911 70.5782 33.2379 70.2349 33.4768C69.9122 33.7014 69.6737 33.9492 69.3126 34.1389C68.6495 34.4872 68.3441 35.0036 67.9619 35.6125C67.7611 35.9326 67.5004 36.322 67.3755 36.678C67.3033 36.8837 67.2682 37.1126 67.1745 37.3097C67.1201 37.4242 66.9676 37.5359 67.1561 37.3831" stroke="#0B0B0A" stroke-width="0.5" stroke-linecap="round"/>
<path d="M72.7142 32.2306C72.6827 31.7248 72.684 31.3084 72.5749 30.8426C72.4625 30.3625 71.8472 30.2354 71.4612 30.1005C70.6961 29.8331 69.7639 29.1872 69.6617 28.3145C69.5869 27.6747 69.5176 26.9762 68.8858 26.6141C68.5568 26.4255 69.0064 28.0153 69.0348 28.1545C69.1531 28.7346 68.8881 29.4484 68.6507 29.9817C68.4103 30.5217 68.0533 30.9788 67.7815 31.504C67.477 32.0923 67.2138 32.7069 66.9095 33.2892C66.3866 34.2897 65.7517 35.2869 65.4146 36.3701C65.0948 37.3977 65.2063 38.4596 65.146 39.5207C65.1268 39.859 65.1254 40.26 65.1675 40.5952C65.2363 41.1429 65.2698 41.4519 65.5741 40.6866" stroke="#0B0B0A" stroke-width="0.5" stroke-linecap="round"/>
<path d="M71.3321 30.062C71.1971 29.5239 70.9377 29.3529 70.6652 28.9008C70.5101 28.6436 70.4297 28.3442 70.289 28.0763C70.2187 27.9426 69.9214 26.97 69.7971 27.3695" stroke="#0B0B0A" stroke-width="0.5" stroke-linecap="round"/>
<path d="M67.9237 44.8216C67.9763 44.0483 67.3542 43.5491 66.8918 42.9976C66.5889 42.6364 66.0715 42.3179 65.5938 42.396C65.0407 42.4863 64.6341 42.6622 64.1484 42.9173C63.7643 43.1191 63.3474 42.6723 63.2769 42.3429C63.1493 41.746 63.0002 41.2211 62.531 40.8144C62.3399 40.6488 61.7502 40.1611 61.6567 40.5599C61.517 41.1555 62.2055 41.8988 62.5918 42.2571C62.7947 42.4452 62.933 42.7436 63.192 42.8701C63.4229 42.9829 63.702 43.0332 63.9479 43.1097" stroke="#0B0B0A" stroke-width="0.5" stroke-linecap="round"/>
<path d="M65.4166 42.4584C65.2479 42.0158 65.1829 41.601 64.843 41.2517C64.6787 41.0828 64.579 40.7986 64.3074 40.8125C64.0376 40.8264 63.7622 40.776 63.5213 40.9238C63.3055 41.0562 63.1583 41.2959 62.96 41.4566" stroke="#0B0B0A" stroke-width="0.5" stroke-linecap="round"/>
<path d="M64.9965 47.6259C65.3643 46.8902 65.6789 46.1684 66.4406 45.7815C67.1883 45.4017 68.1654 45.4237 68.8415 44.9291C69.444 44.4884 70.0456 44.0404 70.4185 43.3634C70.4662 43.2768 70.6712 42.6079 70.5418 43.0238C70.4336 43.3716 70.2922 43.6947 70.333 44.0618C70.3956 44.6246 70.1173 45.3881 70.3172 45.9201C70.4858 46.369 70.3253 47.0235 70.1876 47.4661C70.0367 47.9508 69.9005 48.4613 69.5945 48.8635C69.508 48.9772 68.841 49.5812 68.8057 49.365" stroke="#0B0B0A" stroke-width="0.5" stroke-linecap="round"/>
<path d="M70.2865 45.8719C70.9004 45.8891 71.1693 46.0099 71.6552 46.3594C71.9929 46.6022 72.0855 46.7469 72.2193 47.0886C72.4252 47.6149 72.5646 47.6493 73.0858 47.5516C73.3141 47.5089 73.6759 47.0607 73.7914 46.866C73.9732 46.5595 74.1153 46.3467 74.2063 45.9845C74.3373 45.4632 73.1794 46.1973 73.0893 46.2696C72.7277 46.56 72.3927 46.8165 71.9819 47.0323" stroke="#0B0B0A" stroke-width="0.5" stroke-linecap="round"/>
<path d="M72.617 47.7847C72.2597 47.5245 71.5571 46.8376 71.089 47.2301C70.773 47.495 70.3227 47.3969 70.0849 47.7877" stroke="#0B0B0A" stroke-width="0.5" stroke-linecap="round"/>
<path d="M64.877 47.749C65.4616 48.0367 66.0167 48.3867 66.6046 48.6646C67.0064 48.8545 67.4403 48.9876 67.8257 49.2028C68.3682 49.5057 68.8522 49.3955 69.3976 49.235" stroke="#0B0B0A" stroke-width="0.5" stroke-linecap="round"/>
<path d="M64.4196 47.4472C64.3794 46.9635 64.2485 46.5122 64.1894 46.0266C64.1405 45.6256 64.3049 45.2306 64.2503 44.8283C64.2073 44.5118 64.4562 43.7355 64.2212 43.5098" stroke="#0B0B0A" stroke-width="0.5" stroke-linecap="round"/>
</svg>
