<svg width="108" height="108" viewBox="0 0 108 108" fill="none" xmlns="http://www.w3.org/2000/svg">
<circle cx="53.5" cy="53.5" r="53.5" fill="#0E0D0D"/>
<path d="M81.3635 75.2725C79.9226 76.0392 78.6111 76.8086 77.0997 77.4049H77.6581C77.9509 77.4049 78.3708 77.3511 78.6676 77.2965C79.8308 77.0828 81.0756 77.097 82.2772 77.097C82.8259 77.097 83.4737 77.1943 84.003 77.0457C84.4037 76.9332 84.8241 76.9179 85.2213 76.7891C85.5822 76.6721 85.9244 76.457 86.2929 76.3786C87.6113 76.098 89.4852 75.3465 90.348 74.2804C90.7297 73.8088 90.7727 73.1444 91.2673 72.7353C91.7888 72.304 92.1458 72.4989 92.4856 72.9406C92.8326 73.3916 93.2029 74.7244 92.886 75.301C92.7912 75.4735 92.8148 75.6845 92.7112 75.8654C92.587 76.0824 92.3282 76.1977 92.2261 76.4299C92.1292 76.6504 91.6721 76.8266 91.4647 76.943C90.7635 77.3369 89.8366 77.4691 89.0734 77.7641C88.2232 78.0927 87.2962 78.3166 86.4903 78.739C85.1798 79.426 83.817 79.7277 82.3731 79.8736C81.5289 79.959 80.6991 80.2296 79.8746 80.4324C78.6805 80.726 77.5369 80.5893 76.3383 80.6947C75.671 80.7533 75.0267 81.0101 74.3643 81.0938C73.8836 81.1545 73.3726 81.0995 72.8866 81.0995C71.4267 81.0995 70.0063 81.1887 68.5326 81.0482C67.6711 80.966 66.8422 80.8942 65.9776 80.8942C64.4985 80.8942 63.0225 81.0116 61.5728 81.3047C60.3298 81.556 59.0691 81.5866 57.8109 81.8179C54.7969 82.3718 51.6074 81.514 48.5783 81.2078C46.5615 81.0039 44.6354 80.4494 42.6619 80.0504C41.5217 79.8199 40.6014 79.215 39.4359 79.1495C38.6252 79.104 37.7231 78.9443 36.8979 78.9443C36.4502 78.9443 35.8851 78.7994 35.4766 78.6136C35.1537 78.4667 34.7324 78.1495 34.3824 78.1233C33.8651 78.0845 33.3711 78.0206 32.8371 78.0206C32.4077 78.0206 31.7101 78.0637 31.3143 77.8952C30.7615 77.6599 29.4869 77.8373 29.4869 76.8689C29.4869 76.4338 29.5084 75.9921 29.4869 75.5576C29.474 75.2967 29.4441 74.7389 29.2613 74.5541C28.6713 73.9576 28.1489 73.2835 27.5806 72.6612C26.9776 72.0008 26.6333 71.6577 25.7307 71.6577C24.7692 71.6577 23.4983 71.4508 22.5836 71.8402C22.2916 71.9644 21.7399 72.1479 21.4443 72.1708C21.2203 72.1883 20.3578 72.3494 20.1697 72.5015C19.6733 72.903 18.6641 73.0945 18.0378 73.0945C17.2189 73.0945 17 72.9059 17 72.0682C17 70.959 17.6091 69.9987 17.6091 68.8868C17.6091 67.7484 17.7106 66.6226 17.7106 65.4772C17.7106 64.411 17.8077 63.4209 17.7163 62.3585C17.6758 61.8874 17.6213 61.1734 17.8122 60.7392C17.8809 60.5828 18.6808 60.6765 18.8274 60.6765C19.6303 60.6765 20.3357 61.1132 21.1172 60.8875L21.1331 60.8829C21.47 60.7857 21.5373 60.7662 21.4612 60.42C21.377 60.0366 21.25 59.6142 21.1059 59.2397C20.6074 57.9439 19.9858 56.7655 19.6903 55.3912C19.4119 54.0968 19.0497 52.8476 18.6243 51.5883C18.2224 50.3985 18.0152 49.0461 18.0152 47.791C18.0152 47.2037 17.9581 46.6345 17.908 46.052C17.8589 45.4812 17.8518 44.7993 17.6599 44.2561C17.5026 43.8108 17.6666 43.3167 17.705 42.8706C17.7639 42.1857 17.8122 41.5073 17.8122 40.818V37.7392C17.8122 36.9295 17.6284 35.8126 17.9644 35.0652C18.1496 34.6535 18.0516 34.223 18.1224 33.7937C18.1881 33.3948 18.302 32.8972 18.4213 32.5052C18.6619 31.7146 19.1655 31.0439 19.3406 30.2473C19.4879 29.577 19.9373 28.6103 20.2994 28.0408C20.7712 27.299 20.7696 26.2726 21.1172 25.4695C21.587 24.3838 21.8914 23.2581 22.5272 22.2481C23.0011 21.4953 23.486 20.8683 24.1064 20.2411C24.4857 19.8577 24.8623 19.341 25.2005 18.907C25.4842 18.543 25.9126 18.3126 26.2383 17.9833C26.8429 17.3721 27.7396 16.914 28.1446 16.136C28.4369 15.5747 29.2453 14.5576 29.893 15.2124C30.4577 15.7832 29.7664 17.0482 29.4869 17.6298C29.1493 18.3326 28.934 19.2882 29.1598 20.0587C29.2681 20.4281 29.2469 20.7985 29.408 21.1648C29.5366 21.4574 29.6776 21.9595 29.69 22.2709C29.7196 23.0193 29.893 23.7633 29.893 24.5287C29.893 24.9466 30.0111 26.1603 30.6036 26.1935C31.3916 26.2378 32.0806 26.6757 32.8596 26.9119C33.6696 27.1576 34.4248 27.5605 35.172 27.9382C35.5422 28.1253 36.153 28.2184 36.4692 28.4742C36.6377 28.6104 36.994 28.8495 37.2024 28.8619C37.8207 28.8986 38.4159 28.8619 39.0298 28.8619C39.4675 28.8619 40.9698 28.4472 41.2407 28.9645C41.447 29.3584 40.5967 30.1719 40.3721 30.4241C39.8507 31.0098 39.2958 31.3835 38.6463 31.8381C37.8401 32.4023 37.1804 33.0331 36.2436 33.3775C35.4189 33.6807 34.5745 33.8595 33.7451 34.1529C32.8404 34.473 31.8939 34.5351 30.9646 34.706C30.0891 34.8669 29.059 35.1544 28.2179 35.4814C26.5722 36.1213 24.6724 36.2639 23.1419 37.1234C21.8203 37.8657 21.4728 39.5365 21.7771 40.9207C21.8424 41.2177 22.0816 41.5774 22.2283 41.8443C22.335 42.0385 22.479 42.4884 22.6343 42.614C23.0976 42.9887 23.2181 43.7462 23.7454 44.0508C25.0601 44.8103 26.2147 45.7862 27.6596 46.3542C28.304 46.6076 29.1326 47.1296 29.8422 47.1296C30.1628 47.1296 30.5098 47.2323 30.8574 47.2323C31.2337 47.2323 31.2104 46.9263 31.4666 46.7191C31.8016 46.4482 31.9563 45.9848 32.228 45.6415C32.4096 45.4121 32.7644 45.2707 33.0345 45.1797C33.2404 45.1103 32.681 44.4953 32.6397 44.3074C32.5651 43.9683 34.4729 44.2543 34.6644 44.3359C34.8782 44.4269 35.3909 44.4415 35.3751 44.1534C35.3579 43.8415 34.9606 43.6318 34.766 43.435C34.6837 43.3519 34.0932 42.6578 34.4614 42.614C34.7944 42.5744 35.0633 42.6981 35.3751 42.7166C35.5514 42.7271 36.0881 43.1458 36.2662 43.0017C36.4569 42.8475 36.0032 42.2741 35.9842 42.1009C35.9523 41.811 35.5931 41.5375 35.5781 41.2798C35.5608 40.983 36.1092 41.279 36.2888 41.3597C36.8155 41.5963 37.3555 41.4602 37.8115 41.8956C38.0881 42.1596 38.4344 42.4886 38.7478 42.7166C39.0773 42.9565 39.2727 43.4118 39.6389 43.6175C39.9005 43.7644 40.1743 44.1355 40.3495 44.3815C40.595 44.7261 41.0406 45.054 41.2407 45.385C42.0607 46.7415 43.5067 47.3906 44.5908 48.4866C45.075 48.9761 45.4614 49.5215 45.9106 50.026C46.1209 50.2622 46.1853 50.4534 46.4182 50.6418C46.6755 50.8499 46.9425 50.9699 47.2465 51.1065L47.2529 51.1093C48.0096 51.4493 48.9168 51.5153 49.6894 51.8277C49.9417 51.9297 50.4752 51.9113 50.682 52.0786C50.8099 52.182 51.2333 52.3534 51.4152 52.3637C52.0897 52.4015 52.6837 52.9053 53.3441 52.9794C53.9665 53.0493 54.6317 53.38 55.2504 53.5724C55.8709 53.7654 56.5411 54.0796 57.1511 54.2167C57.4678 54.2878 57.7472 54.6091 58.0196 54.7697C58.3839 54.9846 58.7534 55.2062 59.1307 55.3969C59.7089 55.6891 60.3748 56.1474 60.9073 56.5201C61.4696 56.9136 62.1514 57.2188 62.7346 57.5464C63.4808 57.9654 64.2578 58.4704 64.8666 59.0858C65.0959 59.3176 65.2966 59.6466 65.5772 59.8042C65.9812 60.0311 66.6809 60.3318 66.9421 60.7278C67.1171 60.9932 67.464 61.1565 67.7091 61.3493C67.9608 61.5472 68.216 62.0178 68.5269 62.1076C69.2451 62.315 70.1833 62.7103 70.8562 63.0883C71.398 63.3925 71.998 63.5242 72.4805 63.9036C73.0153 64.3241 73.9323 64.4995 74.3587 65.0382C74.6157 65.3631 75.5813 65.653 75.983 65.711C76.8229 65.8323 77.6061 66.0132 78.4702 66.0132H80.6078C81.5026 66.0132 82.3651 66.2184 83.2416 66.2184C84.6504 66.2184 85.9482 66.7316 87.4039 66.7316C88.0467 66.7316 88.5449 66.9368 89.1805 66.9368C89.8411 66.9368 90.4437 66.8342 91.1094 66.8342H92.0231C92.3484 66.8342 92.6266 67.0229 92.9368 67.0394C93.2935 67.0584 94.4961 67.0269 94.5611 67.5526C94.5969 67.8422 94.8125 68.1064 94.9446 68.3736C95.0543 68.5955 94.9672 69.0503 94.9672 69.2973C94.9672 69.7349 94.567 70.8367 94.0535 70.8367C93.1751 70.8367 93.2159 70.5027 92.7112 69.9358C92.3509 69.5312 91.8595 69.092 91.3125 69.092C90.0102 69.092 89.1187 69.374 87.9623 69.9929C86.7055 70.6655 85.522 71.559 84.5106 72.5814C83.5285 73.5742 82.6168 74.6056 81.3635 75.2725Z" fill="#FFFDFD"/>
<path d="M75.5464 77.6174C76.1356 76.8632 76.9076 76.8494 77.715 76.4009C78.5344 75.9457 79.444 75.7046 80.2246 75.1843C81.1822 74.5459 82.0213 73.9285 82.6812 72.9686C83.2055 72.206 83.9836 71.7191 84.6442 71.0585C85.1354 70.5673 86.2908 69.772 86.9715 69.5775C87.8824 69.3172 88.5263 69.0485 89.5105 69.0485C89.8347 69.0485 90.196 69.2068 90.5213 69.266C90.9506 69.344 90.9939 69.8967 91.256 70.1064C91.4672 70.2754 91.4247 70.6924 91.6027 70.8705C91.8726 71.1403 92.3304 70.8726 92.5783 70.7177C93.6752 70.0321 94.0077 66.9328 92.261 66.9328C91.1322 66.9328 90.0478 67.0386 88.9286 67.0386C88.3447 67.0386 87.7588 66.8434 87.1831 66.827C86.5013 66.8075 85.733 66.8416 85.0673 66.6977C83.6563 66.3926 82.0671 66.298 80.6183 66.298C79.7818 66.298 78.9453 66.298 78.1088 66.298C77.399 66.298 76.7753 66.0207 76.0753 65.9807C74.774 65.9063 73.4802 65.0153 72.3198 64.4996C71.8631 64.2967 71.3265 64.2116 70.8917 63.9942C70.648 63.8723 69.8276 63.869 70.1511 63.6533" stroke="#0D0D0C" stroke-linecap="round"/>
<path d="M69.6216 63.6533C68.7472 64.0159 68.1145 64.6766 67.2942 65.1109C66.4915 65.5358 65.6489 65.4388 64.7612 65.7162C63.8675 65.9955 63.4959 66.7717 62.7394 67.1972C62.2594 67.4673 61.7567 67.6915 61.2643 67.9378C60.6929 68.2235 60.4835 68.6837 60.0771 69.1308C59.8756 69.3525 59.9761 69.6459 59.8655 69.8949C59.6687 70.3376 59.3844 70.6111 59.0427 70.9527C58.3012 71.6943 58.019 72.7418 57.7204 73.6974C57.4546 74.5478 57.3501 75.3029 57.3501 76.1893C57.3501 76.9948 58.0904 77.1936 58.3022 77.829" stroke="#0D0D0C" stroke-linecap="round"/>
<path d="M58.6204 78.0425C58.0346 77.8139 57.5196 77.9392 56.9395 77.7781C56.642 77.6954 56.2268 77.6194 55.9228 77.6194C54.948 77.6194 54.0019 77.4078 53.0136 77.4078C51.5741 77.4078 50.0129 77.3558 48.6527 76.9024C47.8831 76.6458 46.937 76.5387 46.1373 76.4498C45.3827 76.366 44.684 76.2441 43.9216 76.2441C43.6821 76.2441 42.3987 76.3965 42.3348 76.6203C42.1544 77.2515 42.6523 78.065 42.8579 78.6303C43.8857 81.4568 47.5103 80.8988 49.9457 80.8988C50.361 80.8988 50.7763 80.8988 51.1917 80.8988C51.7698 80.8988 52.3111 80.7 52.8843 80.6873C53.643 80.6704 54.6429 80.492 55.3409 80.1818C55.6531 80.0431 56.1579 80.0099 56.5046 79.9232C56.9341 79.8159 57.3438 79.6577 57.7741 79.5471C58.1414 79.4526 58.4961 79.3541 58.8555 79.2297C59.0793 79.1523 59.4667 78.8474 59.4667 79.2062" stroke="#0D0D0C" stroke-linecap="round"/>
<path d="M43.1746 78.8894C44.0483 78.8779 45.1495 78.9256 46.0069 78.7307C46.2202 78.6823 46.6635 78.5688 46.7709 78.7836" stroke="#0D0D0C" stroke-linecap="round"/>
<path d="M44.8682 80.1568C46.0163 80.1288 47.1085 79.6279 48.2529 79.6279" stroke="#0D0D0C" stroke-linecap="round"/>
<path d="M48.9941 80.3689C49.358 80.2909 50.5392 79.6927 50.7923 79.9458" stroke="#0D0D0C" stroke-linecap="round"/>
<path d="M51.0034 81.7449C51.9354 81.4406 52.7203 81.7449 53.6716 81.7449C54.467 81.7449 55.2624 81.7449 56.0578 81.7449C56.9041 81.7449 57.7504 81.7449 58.5967 81.7449C59.3133 81.7449 60.0158 81.5333 60.736 81.5333C61.8302 81.5333 62.9132 81.4275 64.0154 81.4275C65.2575 81.4275 66.8187 81.6744 68.0119 81.3453C68.4047 81.2369 69.1157 81.216 69.5164 81.216C70.232 81.216 70.9113 81.1102 71.6322 81.1102C72.8163 81.1102 74.0287 81.0044 75.229 81.0044C76.6512 81.0044 78.1814 80.6456 79.5664 80.3461C81.4504 79.9388 83.3144 79.5239 85.1497 78.9121C86.7039 78.394 88.4255 77.7802 89.8044 76.8786C90.5694 76.3784 91.7321 76.0193 91.7321 74.9744C91.7321 74.2385 91.8259 72.6575 90.78 72.5413C90.3999 72.499 89.8626 72.2332 89.8279 72.8586C89.8053 73.2643 89.6214 73.6074 89.4282 73.9165C89.1766 74.3191 88.58 74.4418 88.241 74.7628C88.012 74.9798 87.6897 75.036 87.4417 75.2389C87.2635 75.3847 86.8721 75.6273 86.6542 75.6914C85.4737 76.0386 84.4246 76.7728 83.1397 76.7728C82.5425 76.7728 81.9512 76.8786 81.3413 76.8786C80.6418 76.8786 79.8358 76.7627 79.1667 76.9609C78.7682 77.079 78.0733 77.196 77.6622 77.196C77.4028 77.196 76.8494 77.0515 76.9216 77.196" stroke="#0D0D0C" stroke-linecap="round"/>
<path d="M77.0273 71.5898C76.6341 71.0707 76.4828 70.8493 75.8638 70.8493C75.5528 70.8493 75.0276 70.7497 74.7532 70.9022C74.2975 71.1554 73.8723 72.4035 74.2772 72.859C74.6474 73.2755 76.0903 73.422 76.4984 72.9119C76.8104 72.522 77.17 71.1667 76.2869 71.1667" stroke="#0D0D0C" stroke-linecap="round"/>
<path d="M67.3997 69.4727C66.714 69.8225 66.0325 70.1702 65.3897 70.5834C64.9545 70.8632 64.1427 71.1435 63.8851 71.5884C63.5177 72.2231 62.9623 72.9645 62.8566 73.7042C62.7694 74.3145 62.922 74.9156 62.9565 75.5026C63.0106 76.4219 64.0898 77.8013 64.8607 78.2296C65.4191 78.5398 65.9218 78.7862 66.4946 79.0465C66.7567 79.1657 67.5633 79.2242 67.2939 79.6284" stroke="#0D0D0C" stroke-linecap="round"/>
<path d="M58.408 78.3584C59.109 78.3759 59.333 78.9174 59.9476 79.0929C60.464 79.2405 60.9818 79.326 61.4989 79.4984C62.0868 79.6944 62.7713 79.8523 63.3793 79.9391C63.6876 79.9832 64.1752 79.8444 64.3313 80.1566" stroke="#0D0D0C" stroke-linecap="round"/>
<path d="M68.9865 63.3363C67.6346 62.3423 66.3907 61.2986 65.1546 60.1862C64.215 59.3405 62.9966 58.9132 62.0045 58.1762C61.6231 57.8929 61.1372 57.7883 60.7467 57.518C60.3261 57.2267 59.879 56.9612 59.442 56.6952C58.8407 56.3291 58.2758 55.8793 57.6671 55.5315C56.9717 55.1341 56.1464 54.8188 55.3868 54.5559C54.6087 54.2865 53.9035 53.8705 53.1182 53.6038C51.5236 53.0622 49.8893 52.4387 48.2519 52.0404C47.0307 51.7434 45.8791 51.1745 44.6551 50.8768C43.3679 50.5637 41.8433 50.5674 40.6351 50.0305C40.2646 49.8658 39.6618 49.8155 39.2599 49.7954C38.9323 49.779 38.6077 49.5838 38.3078 49.5838C37.7683 49.5838 37.3055 49.4721 36.721 49.5603C36.1129 49.6521 35.4271 49.7954 34.8168 49.7954C34.0326 49.7954 33.0873 50.2722 32.3484 50.5124C31.5719 50.7647 30.6895 50.836 29.9505 51.1471C29.512 51.3318 28.9381 51.3943 28.4694 51.5115C27.8761 51.6598 27.2594 51.8893 26.6475 51.9112C25.4289 51.9547 24.2163 52.2906 22.9919 52.3343" stroke="#0D0D0C" stroke-linecap="round"/>
<path d="M45.3449 51.0589C44.9926 50.1172 44.4708 49.7598 43.8329 49.0333C43.2116 48.3256 42.6072 47.5733 41.9513 46.8974C40.5199 45.4223 39.1829 43.7575 37.3252 42.7622C36.6817 42.4174 36.0644 42.0651 35.398 41.7615C34.7772 41.4787 34.2593 41.3363 34.7166 42.2649C35.1613 43.1678 35.9934 43.7304 36.5134 44.53C36.5593 44.6006 36.842 44.8605 36.6699 44.7821C36.324 44.6246 35.9781 44.467 35.6323 44.3094C34.9101 43.9805 34.0651 43.3983 33.2438 43.4281C32.8695 43.4416 34.6631 45.1405 34.7958 45.3234C34.8702 45.4259 35.1507 45.5687 35.1715 45.6754C35.2131 45.8886 34.2533 45.5539 34.1721 45.5301C33.9934 45.4776 31.9861 44.7713 31.9196 44.9173C31.7197 45.3561 33.9324 46.323 32.7463 46.2497C32.3763 46.2269 30.9707 45.6311 31.4115 46.4296C31.5371 46.6571 31.9995 46.9791 31.5424 46.9219C31.3432 46.897 31.1773 46.917 30.99 46.8446C30.7567 46.7545 31.0102 46.9925 31.0204 47.0329C31.0688 47.2246 31.0044 47.3232 30.9194 47.5099" stroke="#0D0D0C" stroke-linecap="round"/>
<path d="M26.6189 72.1165C25.59 71.5884 24.8222 71.8613 23.798 72.1845C22.8358 72.4881 21.721 72.7047 20.7139 72.7891C19.8128 72.8646 18.7713 72.9091 17.9033 73.1472C17.528 73.2501 16.7982 73.3517 16.4499 73.135C16.1456 72.9457 16.1961 72.1263 16.2847 71.8498C16.4888 71.2129 16.7416 70.5342 16.7813 69.8689C16.8158 69.2905 16.7144 68.8562 16.6656 68.2833C16.623 67.7841 17.1083 67.5259 17.2638 67.148C17.4588 66.6741 17.1812 66.2108 17.0202 65.7667C16.8188 65.2113 17.372 64.6058 17.5469 64.1079C17.7626 63.4941 17.8338 62.977 17.5415 62.368C17.3184 61.9034 17.3464 61.4872 17.5112 61.0181C17.6727 60.5583 17.7023 60.5744 18.17 60.7387C18.5026 60.8556 18.8353 60.9725 19.168 61.0893C19.5332 61.2176 19.7848 61.1674 20.1637 61.1277C20.5328 61.089 21.4633 61.1329 20.5707 61.2458" stroke="#0D0D0C" stroke-linecap="round"/>
<path d="M36.8555 79.3344C36.3883 79.2911 35.987 79.0675 35.5828 78.8417C35.2656 78.6645 34.8069 78.635 34.4554 78.5523C33.4256 78.3099 32.3121 78.0021 31.3345 77.6006C30.6076 77.302 29.8084 77.2479 29.0889 76.9574C28.8313 76.8534 28.6227 76.7451 28.3509 76.6811C27.9052 76.5763 28.3212 76.3297 28.575 76.1905C28.7915 76.0717 29.8826 75.8461 29.8303 75.8338C29.3123 75.7119 29.3524 75.486 28.9718 75.1971C28.4842 74.827 29.5414 75.1245 28.8984 74.6364C28.6255 74.4293 30.047 74.0916 29.938 74.555" stroke="#0D0D0C" stroke-linecap="round"/>
<path d="M19.9438 33.2266C19.8493 32.3386 19.7165 31.589 19.7682 30.6776C19.8139 29.8724 19.9091 29.0698 20.1671 28.3063C20.3864 27.6572 20.5862 26.9658 20.8505 26.3012C21.2079 25.402 21.7742 24.6484 22.2761 23.8448C23.4071 22.0339 25.0113 20.6591 26.3969 19.0636C27.0107 18.3568 27.5276 17.6393 28.1976 16.9841C28.4333 16.7537 28.7272 16.6729 29.0064 16.5088C29.283 16.3462 29.0533 17.1227 28.9841 17.2968C28.6852 18.0485 28.6758 18.741 28.5511 19.5153C28.4108 20.3862 28.1699 21.0805 28.4285 21.9711C28.6479 22.7266 28.8751 23.5219 29.0468 24.2977C29.1371 24.7059 29.0252 25.1198 29.1824 25.5154C29.3171 25.8541 29.4406 26.3003 29.497 26.665C29.6241 27.488 30.6471 27.561 31.3763 27.7285C32.7176 28.0365 34.093 28.4923 35.3734 29.0013C36.5466 29.4678 37.8945 29.8353 39.1569 29.9364C39.7355 29.9827 40.6162 29.8461 41.1456 30.0566C41.5757 30.2276 38.5828 32.7376 38.4363 32.8944C37.3605 34.0459 35.7594 34.4858 34.2933 34.8839C33.4974 35.0999 32.6031 35.1448 31.8356 35.45C31.108 35.7393 30.3561 35.9381 29.5821 36.0593C28.5208 36.2255 27.4453 36.0166 26.3911 36.1315C25.5408 36.2241 24.5698 36.4003 23.8301 36.8462C23.126 37.2707 22.7211 37.7891 21.8441 38.3738" stroke="#0D0D0C" stroke-linecap="round"/>
<path d="M27.985 20.4791C26.7011 21.4728 25.4955 22.5096 24.1616 23.4308" stroke="#0D0D0C" stroke-linecap="round"/>
<path d="M28.5626 23.1943C27.7654 23.8113 26.8796 24.3903 26.1532 25.0887C26.0119 25.2245 25.4912 25.9662 25.3956 25.7444" stroke="#0D0D0C" stroke-linecap="round"/>
<path d="M28.8814 25.3076C28.0376 26.5299 27.0516 27.7465 26.0022 28.8003" stroke="#0D0D0C" stroke-linecap="round"/>
<path d="M29.3997 27.3348C28.7356 28.3578 27.9534 29.7073 26.891 30.3123" stroke="#0D0D0C" stroke-linecap="round"/>
<path d="M31.4882 28.3325C30.5944 29.275 29.7492 30.3461 28.6073 30.9964" stroke="#0D0D0C" stroke-linecap="round"/>
<path d="M34.2343 28.9253C33.4131 30.1161 32.4689 30.9225 31.2965 31.7322" stroke="#0D0D0C" stroke-linecap="round"/>
<path d="M37.0093 29.8635C36.2094 30.8867 35.2867 31.7745 34.2713 32.5843" stroke="#0D0D0C" stroke-linecap="round"/>
<path d="M39.697 30.6019C38.6754 31.5745 37.4481 32.7564 36.1303 33.3244" stroke="#0D0D0C" stroke-linecap="round"/>
<path d="M32.9604 55.6353C36.2571 55.1958 39.8031 54.7968 43.0853 55.6439C45.1005 56.1639 47.1287 56.7303 49.1227 57.3285" stroke="#0D0D0C" stroke-linecap="round"/>
<path d="M17.1746 68.2947C18.1227 68.2542 18.9286 68.4955 19.8471 68.5811" stroke="#0D0D0C" stroke-linecap="round"/>
<path d="M17.4444 66.5968C18.6733 66.9974 19.9544 67.0531 21.2354 66.9499" stroke="#0D0D0C" stroke-linecap="round"/>
<path d="M17.2638 65.7163C18.1409 65.735 19.9743 66.1878 20.7212 65.626" stroke="#0D0D0C" stroke-linecap="round"/>
<path d="M18.0225 64.0252C18.8819 63.8597 19.6908 63.76 20.5577 63.774" stroke="#0D0D0C" stroke-linecap="round"/>
<path d="M17.0404 70.5338C18.6185 70.805 20.8229 71.1155 22.3933 70.6199" stroke="#0D0D0C" stroke-linecap="round"/>
<path d="M19.8788 28.4727C19.2107 29.3544 18.7631 30.2496 18.4146 31.2951C18.1309 32.1463 17.6561 33.0468 17.6561 33.9588C17.6561 35.1415 17.2685 36.5489 17.0563 37.7162C16.8618 38.7857 16.8701 40.3524 17.1004 41.4118C17.3875 42.7325 17.1798 44.2615 17.1798 45.6102C17.1798 47.0454 17.6043 48.4631 17.6561 49.888C17.7182 51.5957 18.2936 53.3248 18.6792 54.9772C19.0088 56.3899 19.3985 58.0551 20.2316 59.2727C21.1523 60.6183 21.6402 62.2522 22.2602 63.7533C22.8591 65.2033 23.548 66.5935 24.2447 67.987C25.3795 70.2564 27.4625 72.4131 29.2458 74.1964C30.076 75.0266 31.0666 75.6768 32.0241 76.3397C32.5992 76.7378 33.3342 76.8956 33.8852 77.3364C34.4423 77.7821 35.3822 77.7466 35.9932 78.0861C36.1862 78.1933 37.8338 78.8005 37.0252 78.8005" stroke="#0D0D0C" stroke-linecap="round"/>
<path d="M24.1643 45.6196C22.3912 44.7149 20.8303 42.5624 20.8303 40.5039C20.8303 38.6617 22.2091 38.0292 23.6881 37.3286C24.351 37.0146 25.0287 36.9052 25.7167 36.6936C26.3941 36.4851 27.1719 36.7328 27.8159 36.4466C28.4362 36.1709 29.2053 36.3253 29.8798 35.9703C30.2441 35.7786 31.699 35.1842 31.4674 35.3" stroke="#0D0D0C" stroke-linecap="round"/>
<path d="M20.8305 41.49C20.8096 40.6312 20.5285 39.6945 20.3455 38.8708C20.2744 38.551 20.1956 37.167 20.1956 37.5215" stroke="#0D0D0C" stroke-linecap="round"/>
<path d="M51.1806 81.717C50.4831 81.717 50.0195 81.4609 49.2643 81.4609C48.5748 81.1161 47.611 81.1587 46.8592 81.0334C45.8035 80.8574 44.8422 80.506 43.8249 80.2059C43.3579 80.0681 42.9118 79.8737 42.4417 79.7421C42.0334 79.6278 41.6069 79.6156 41.1945 79.5423C40.5984 79.4363 40.0351 79.2734 39.4475 79.1265C38.9153 78.9935 38.3602 78.7954 37.8285 78.6988C37.4736 78.6342 37.1184 78.6276 36.7891 78.4629" stroke="#0D0D0C" stroke-linecap="round"/>
<path d="M24.1213 45.8076C26.312 47.1322 28.58 47.927 31.071 48.4806C32.0436 48.6967 33.1204 49.229 34.1182 49.229C34.4617 49.229 34.792 49.4068 35.1339 49.4428C35.4401 49.4751 35.9165 49.6043 35.5616 49.8705" stroke="#0D0D0C" stroke-linecap="round"/>
</svg>
