<svg width="108" height="108" viewBox="0 0 108 108" fill="none" xmlns="http://www.w3.org/2000/svg">
<circle cx="53.7933" cy="53.7933" r="53.7933" fill="#0E0D0D"/>
<path d="M50.9132 28.5966C50.4974 29.6765 49.9729 29.9877 50.5626 31.1577C50.3636 31.0272 49.9557 31.0283 49.822 30.8336C49.4204 30.2487 49.4064 29.1319 49.1645 28.448C48.8832 27.6527 48.3946 26.9564 48.1134 26.1614C47.9567 25.7183 47.7626 24.4124 47.5938 24.8508C47.4927 25.1135 47.5291 25.4042 47.5063 25.6754C47.4028 26.9025 46.7176 28.0014 46.7446 29.25C46.7617 30.0402 46.5067 30.8067 46.2727 31.5507C46.1937 31.802 45.9177 33.387 45.5795 33.4601C45.5073 33.4757 44.8176 32.7608 44.7497 32.6619C44.2799 31.9778 41.2793 28.4775 40.926 28.9556C40.6525 29.3256 41.1167 30.4618 41.3029 30.7889C41.7211 31.5234 42.1607 32.4883 42.4781 33.2742C42.6326 33.6566 44.061 36.4835 44.0391 36.4949C43.8785 36.5778 42.8454 35.916 42.6567 35.8724C40.8435 35.4539 38.9977 34.843 37.2972 34.0597C37.2284 34.028 34.8292 32.7189 34.8562 33.4508C34.8745 33.9499 35.1845 34.054 35.3917 34.4702C35.8918 35.4746 36.8603 36.5973 37.6759 37.376C38.5625 38.2223 39.5381 38.9481 40.5091 39.7026C40.987 40.074 41.5597 40.5957 42.1456 40.7834C42.3544 40.8503 42.0265 40.8211 41.9484 40.8286C40.7529 40.943 39.5946 41.1062 38.4028 40.852C36.8653 40.5241 35.4194 40.1461 33.8699 39.987C32.9282 39.8903 32.0125 39.6319 31.0911 39.4192C30.1233 39.1957 29.2802 38.5838 28.2712 38.513C28.1896 38.5073 28.8924 38.9382 29.0149 39.144C29.3236 39.6623 29.8448 40.0895 30.2597 40.5256C31.1037 41.4127 32.6696 42.2769 33.8351 42.553C34.8874 42.8022 35.9238 43.3337 36.9899 43.4797C37.9447 43.6105 36.9913 43.5044 36.6343 43.426C35.6072 43.2005 34.4941 42.845 33.4516 42.7564C32.7666 42.6982 32.0946 42.5186 31.4015 42.4787C30.6122 42.4333 29.7263 42.6252 28.9554 42.4583C27.8799 42.2255 26.7664 41.7398 25.6701 41.6318C24.0345 41.4708 24.9508 42.4036 25.8378 42.6514C26.5201 42.842 28.2536 43.5455 28.3225 44.2654C28.3849 44.918 28.2988 45.666 28.3685 46.3936C28.4801 47.5604 28.6074 48.6262 28.9692 49.7413C29.1067 50.1652 29.2839 50.7593 29.3017 51.2015C29.312 51.4604 28.9629 51.6655 28.8581 51.8758C27.969 53.6599 26.3014 55.2851 26.1213 57.4211C26.0277 58.5307 26.481 59.6229 26.5835 60.6943C26.6958 61.8682 27.0412 62.7181 27.6577 63.6807C28.2736 64.6422 29.4732 65.6075 29.8312 66.7111C30.0846 67.4924 29.3696 68.3873 29.4479 69.2052C29.5524 70.2968 29.8981 71.3977 30.2652 72.4356C30.6648 73.5655 31.4255 74.319 32.0776 75.2637C32.5808 75.9926 33.9241 76.4335 34.0136 77.369C34.0793 78.055 34.3834 78.7478 34.678 79.3678C35.0293 80.1072 35.2053 80.8601 35.6409 81.5575C36.0764 82.2547 36.6276 82.8058 37.0857 83.4729C37.7371 84.4215 39.1585 85.1065 39.7414 86.1412C40.138 86.8455 41.6818 87.4192 42.4137 87.7022C43.242 88.0224 44.1044 88.1722 44.9736 88.089C45.7823 88.0116 46.4518 87.8427 47.3166 87.856C48.1623 87.8691 49.0303 87.4616 49.7692 87.946L49.7839 87.9556C51.3129 88.9579 52.2928 89.6002 54.2112 89.4165C56.1317 89.2327 58.0542 88.8089 59.3309 87.2591C59.7936 86.6974 59.6176 86.6088 60.2862 86.6235C60.5336 86.6289 60.8794 86.9497 61.1158 87.0531C61.7146 87.3152 62.1587 87.5711 62.7615 87.7733C64.4043 88.324 65.5367 87.1951 66.8156 86.4725C67.2097 86.2498 67.3836 85.8384 67.7563 85.5926C68.1069 85.3614 68.5524 84.9492 68.7255 84.552C69.056 83.7934 68.6863 82.976 69.7041 82.8786C71.5321 82.7037 72.7837 80.5692 73.3676 79.0526C73.7486 78.063 75.1075 77.372 75.0574 76.2053C75.0267 75.492 75.0758 74.8628 75.5407 74.2985C75.9869 73.7568 76.7353 73.3888 76.9997 72.702C77.3131 71.8879 77.6103 71.165 77.6517 70.27C77.7345 68.4811 77.6195 66.73 77.4462 64.9186C77.3758 64.1831 78.1454 63.8685 78.4682 63.241C78.6979 62.7945 79.1106 62.4944 79.2152 61.9847C79.3062 61.5417 79.4791 61.0279 79.6435 60.601C80.3453 58.7779 79.9893 56.8916 79.8069 54.9861C79.7354 54.2388 79.3925 53.5459 79.2913 52.894C79.2189 52.4279 79.7117 51.715 79.888 51.2571C81.1088 48.086 80.3108 45.0227 78.409 42.3942C78.0845 41.9456 77.0116 41.3751 76.5207 41.1532C76.3697 41.0849 74.3886 40.4639 74.9946 40.0355C75.4329 39.7256 77.7322 39.2995 76.1128 39.4545L73.8906 39.6672C72.2477 39.8244 70.6123 39.665 68.9821 39.821C67.7539 39.9386 68.5249 39.7543 69.2701 39.6267C69.9532 39.5098 70.6086 39.2873 71.2714 39.1192C72.3575 38.8438 73.4406 38.1611 74.5568 38.0237C76.1957 37.822 77.8206 37.282 79.2179 36.384C79.9148 35.9362 78.0157 36.1129 77.7663 36.1368C76.8157 36.2278 75.3176 36.3217 74.4381 36.6923C73.7521 36.9814 72.8328 36.9249 72.0931 36.9957C70.8827 37.1116 69.8549 37.4281 68.6972 37.7595C68.3368 37.8628 66.72 38.3399 66.9328 38.2707C67.3126 38.1472 67.7192 37.9652 68.0759 37.7663C69.0655 37.2148 69.771 36.2956 70.7939 35.7773C71.3962 35.4721 71.86 35.017 72.3719 34.5994C72.8513 34.2084 73.4638 34.0241 73.9463 33.6589C75.0696 32.8087 76.5305 32.456 77.6911 31.5979C77.8337 31.4924 79.4923 30.0258 79.368 29.9893C79.1897 29.9369 78.3399 30.242 78.157 30.3334C77.4662 30.6784 76.0558 30.7714 75.2975 30.844C74.2897 30.9405 73.3543 31.546 72.433 31.9431C71.5007 32.345 70.5708 32.673 69.6343 33.0886C68.5843 33.5546 67.398 33.8817 66.4025 34.4686C65.7383 34.8603 65.0451 35.1902 64.3908 35.6002C63.8163 35.9603 63.9788 35.6301 64.3068 35.3626C65.0928 34.7214 65.9688 33.6154 66.4841 32.7582C66.8865 32.0887 67.3663 31.4481 67.7105 30.7452C67.9269 30.3035 67.4321 30.6645 67.2418 30.79C65.6575 31.835 63.9497 33.0631 62.065 33.541C60.9872 33.8143 60.077 34.5124 58.936 34.6216C58.1121 34.7004 58.9618 33.4902 59.0789 33.1861C59.2051 32.8584 60.3186 30.8912 60.2242 30.8737C59.6823 30.7732 58.7953 31.5776 58.4402 31.9133C57.8005 32.518 56.9282 33.3655 56.1368 33.7486C55.3268 34.1405 54.8426 34.9099 54.1188 35.3634C53.7273 35.6088 53.5266 34.1183 53.4961 33.7994C53.4342 33.1529 53.2185 32.5466 53.16 31.9359L52.9578 29.8226C52.8712 28.9184 53.2603 28.1401 53.4679 27.2813C53.6887 26.3682 54.1536 25.8138 54.5471 25.0103C54.8908 24.3085 55.5235 23.7464 55.7736 22.9973C56.2818 21.4746 58.3033 20.3041 59.4942 19.4027C60.3916 18.7235 61.3311 18.1119 62.2631 17.4878C63.1462 16.8963 64.044 16.4783 64.9463 15.9584C65.996 15.3536 68.4309 15.2064 68.2717 13.5426C68.1875 12.6633 65.106 13.7564 64.759 14.0017C63.5328 14.8685 61.8983 15.7609 60.491 16.2707C59.7296 16.5465 58.9971 17.07 58.3012 17.4632C57.4942 17.9192 56.9958 18.5691 56.2746 19.079C55.2631 19.794 53.7253 21.3525 53.2408 22.5288C52.9869 23.1452 52.3944 23.7826 52.2751 24.4291C52.1656 25.023 51.9463 26.2065 51.6263 26.7116C51.2672 27.2784 51.1465 27.9905 50.9132 28.5966Z" fill="#FFFEFE" stroke="#FFFDFD" stroke-width="0.8" stroke-linecap="round"/>
<path d="M31.0169 42.6636C29.5029 44.0029 29.2186 45.0092 29.4153 47.0649C29.4821 47.7628 29.5489 48.4606 29.6157 49.1585C29.6823 49.8548 30.0629 50.3802 30.1999 51.0355C30.422 52.0978 31.7594 53.7365 32.7267 54.1876C33.3122 54.4606 33.7763 55.0385 34.3383 55.292C34.6333 55.4251 35.3697 56.0024 35.3282 56.0064" stroke="#0B0A0A" stroke-width="0.8" stroke-linecap="round"/>
<path d="M30.1143 52.2575C28.2434 53.2518 27.8562 55.3353 27.3569 57.2639C27.1419 58.0943 27.3157 58.9473 27.3973 59.7998C27.4899 60.7679 27.8656 61.471 28.0476 62.3673C28.2057 63.1459 28.787 63.8564 29.2163 64.4806C29.6982 65.1812 30.4862 65.2879 31.0084 65.8262C31.6411 66.4785 33.6189 65.8391 34.1206 66.6409" stroke="#0B0A0A" stroke-width="0.8" stroke-linecap="round"/>
<path d="M39.3328 45.3961C37.7805 45.1326 36.0553 45.2052 34.6087 44.6915C33.6959 44.3674 32.626 44.0414 31.6847 43.8476C30.6733 43.6393 29.5083 43.1419 28.5591 42.7757C27.8464 42.5007 25.6718 41.9956 26.4321 41.9229C28.0868 41.7645 30.1755 42.313 31.7786 42.7148C33.7137 43.1998 35.6454 43.4408 37.6141 43.6847C37.7861 43.706 38.0065 43.7381 38.2112 43.7857C37.8282 43.6337 37.3963 43.4577 37.3191 43.4207C35.1531 42.3833 32.5529 41.5385 30.6186 40.1062C30.1521 39.7607 29.8953 39.1707 29.6634 38.5793C29.3462 37.7705 29.4878 38.2962 30.0792 38.6969C31.3127 39.5327 32.8212 39.8219 34.2566 40.0727C36.3052 40.4306 38.4036 40.9211 40.4723 41.141C41.2504 41.2237 42.0245 41.4963 42.7826 41.5605C43.1261 41.5896 41.7688 40.1758 41.5971 39.977C40.0665 38.2047 38.1318 36.7019 36.692 34.8724C36.4056 34.5084 36.3167 34.1155 36.1203 33.7134C36.1138 33.7001 38.1179 34.9843 38.4549 35.2093C39.5004 35.9077 40.7416 36.956 42.0232 37.1492C42.6145 37.2383 43.1346 37.4142 43.6415 37.736C44.2413 38.1168 43.0211 36.0104 42.9592 35.8908C42.4043 34.8195 41.8398 33.5856 41.6238 32.3887C41.4505 31.4285 41.3521 30.3498 41.3239 29.3719C41.3011 28.5844 42.2682 30.6334 42.7306 31.2714C43.0613 31.7277 43.4308 32.1556 43.7978 32.5852C43.6775 32.3834 43.867 32.6265 44.1293 32.9766C44.142 32.9919 44.1547 33.0071 44.1674 33.0224C44.8661 33.706 46.1492 34.5445 46.1594 34.3371C46.2381 32.7459 46.5986 31.1883 46.8085 29.6112C46.9789 28.3304 47.6354 27.0282 47.6409 25.7443C47.6413 25.6468 47.5239 24.606 47.6797 24.9764C48.1141 26.0086 48.3287 27.1961 48.7021 28.2612C49.2803 29.9106 50.1946 33.2879 50.1946 33.2879C50.1946 33.2879 50.2395 32.0644 50.4271 31.49C50.8999 30.0422 51.5439 28.7941 52.3731 27.5165C52.9696 26.5975 53.3782 25.7345 53.5708 24.6486C53.632 24.3036 53.8923 23.3106 53.9257 23.6594C54.1656 26.1663 53.6711 28.7023 53.6831 31.2233C53.6892 32.4952 53.8425 33.7717 53.6892 35.0437C53.661 35.2771 53.213 36.5295 53.7829 36.0237C55.867 34.1743 58.0708 32.264 60.5601 30.981C61.3903 30.5531 60.6887 31.2702 60.4088 31.7484C59.8431 32.7151 59.2064 33.6278 58.6235 34.5827C58.3946 34.9577 58.1994 35.0391 58.6741 34.9937C60.4036 34.8281 62.0614 33.5677 63.5657 32.7948C64.8985 32.1101 66.2483 31.3809 67.635 30.8096C68.5305 30.4405 66.9038 31.9462 66.6826 32.2493C65.8843 33.3437 65.0528 34.7411 64.0767 35.6678C64.0043 35.7365 63.0079 36.5785 63.5154 36.261C65.4858 35.0282 67.5507 34.0624 69.7207 33.2284C72.3502 32.2179 75.1137 31.0615 77.932 30.7231C78.3325 30.675 79.0747 30.4334 78.4262 30.7207C77.4777 31.1411 76.6764 31.8829 75.8917 32.5367C73.0908 34.87 69.3653 35.7406 66.4153 37.7928C66.2815 37.8859 65.559 38.3098 66.0947 38.3179C68.2263 38.3504 70.5147 37.9408 72.6172 37.6599C74.3186 37.4327 76.0802 37.288 77.7291 36.8223C78.2987 36.6614 76.2263 37.3167 76.0737 37.3741C72.8229 38.5962 69.5111 39.4157 66.0778 39.6116C67.759 39.6172 69.4384 39.886 71.117 39.95C72.5176 40.0034 73.983 40.0016 75.3796 39.8679C76.483 39.7623 76.1052 39.9759 75.2318 40.0844C71.642 40.5303 68.2301 41.7659 64.5925 42.1141C64.503 42.1226 63.9 42.1502 63.421 42.1577C64.3237 42.4469 65.8889 43.3695 66.1395 43.4831C67.8914 44.2775 69.6078 45.0374 71.4098 45.7096C71.45 45.7246 73.6283 46.4795 73.182 46.7312C72.24 47.2627 70.2924 46.6729 69.3504 46.5023C67.1743 46.1082 65.1285 45.3235 63.0187 44.6921C62.0994 44.417 60.5768 43.5323 59.6125 43.6246C59.2988 43.6546 60.7446 45.4458 60.8798 45.5936C62.1133 46.9415 63.5254 47.9616 64.9256 49.1172C65.1253 49.282 66.8746 50.5688 66.8149 50.8918C66.7491 51.2474 63.5336 49.5974 63.2967 49.4754C61.2306 48.4116 59.2773 47.158 57.2951 45.9479C57.0434 45.7943 55.4547 44.4066 55.1583 44.5229C55.0695 44.5577 55.581 45.2372 55.5871 45.246C56.106 45.992 56.5863 46.7697 57.1393 47.4912C58.3726 49.1 59.8748 50.1479 61.593 51.1668C61.9501 51.3786 62.8114 51.978 61.8617 51.8604C60.3028 51.6673 58.5555 50.1339 57.2102 49.4061C55.4526 48.4553 53.5372 47.7528 52.0558 46.3932C51.7559 46.118 50.8415 45.1533 50.4149 45.1005C49.6532 45.0061 49.945 46.7891 49.9487 47.1567C49.9733 49.6467 49.4201 51.9723 49.0807 54.4097C48.745 56.8214 48.7483 49.4996 47.9849 47.1873C47.3481 45.2585 46.6085 50.3422 46.4174 50.8886C45.9492 52.2275 45.3907 53.5732 44.2427 54.4682C43.5967 54.9718 44.4917 52.4056 44.5281 52.2831C45.0516 50.5226 45.6641 48.8114 46.0465 47.0132C46.2737 45.9453 45.4592 47.2313 45.2741 47.5142C43.4773 50.2607 40.8867 51.906 37.9786 53.2471C37.2704 53.5737 37.4719 53.2286 37.8394 52.7322C39.1654 50.9417 40.9662 49.4959 42.4631 47.8507C43.549 46.6571 41.4689 47.7937 41.0753 48.0284C39.521 48.9555 38.0617 50.0235 36.2607 50.4447C35.5608 50.6083 34.8191 50.6276 34.1045 50.696C33.1921 50.7833 33.9874 50.4868 34.4771 50.2445C36.1589 49.4126 39.2749 48.8753 40.3967 47.1606C40.4994 47.0035 40.8925 46.8098 40.457 46.8514C39.7334 46.9207 38.9889 46.9462 38.2786 47.1049C36.7858 47.4383 35.3042 47.9576 33.8702 48.482C33.6118 48.5765 31.2588 49.4159 32.1892 48.7665C34.187 47.3722 36.6418 47.1075 38.6641 45.9667C38.9099 45.828 39.1412 45.5786 39.3328 45.3961Z" fill="#FFFDFD" stroke="#0C0B0B" stroke-width="0.8" stroke-linecap="round"/>
<path d="M31.4576 66.289C30.5834 68.1742 31.121 69.113 31.3018 71.0014C31.4459 72.5073 32.5676 73.4207 33.3101 74.6077C34.3569 76.2808 37.949 76.7934 39.7289 76.623" stroke="#0C0B0B" stroke-width="0.8" stroke-linecap="round"/>
<path d="M38.6286 71.4688C38.4402 73.4929 38.6233 75.1316 40.0183 76.5952C40.6723 77.2814 41.663 78.4676 42.6051 78.7301C43.7839 79.0586 44.8089 78.9687 46.0108 78.8537C46.5 78.8068 48.2822 78.9012 47.7765 78.2801" stroke="#0C0B0B" stroke-width="0.8" stroke-linecap="round"/>
<path d="M34.6034 56.8844C33.7436 59.1129 33.3713 60.9189 33.5988 63.2963C33.6867 64.214 33.6402 65.0374 34.2406 65.7747C34.8612 66.5368 35.6113 67.0818 36.2557 67.807C37.5604 69.2752 39.2403 69.4625 40.8939 70.24C41.4622 70.5073 42.146 70.3225 42.7616 70.2635C42.9446 70.246 44.342 70.1123 43.5634 70.1868" stroke="#0C0B0B" stroke-width="0.8" stroke-linecap="round"/>
<path d="M36.5947 50.5732C35.4192 53.85 35.7524 58.9431 39.3477 59.9594C40.4791 60.2792 41.6413 60.7018 42.8497 60.7368C43.6617 60.7603 46.0951 60.6397 45.2865 60.7171" stroke="#0C0B0B" stroke-width="0.8" stroke-linecap="round"/>
<path d="M44.2331 53.9402C44.3923 55.6034 44.3607 57.398 45.2128 58.8923C45.8434 59.9981 46.3838 61.4491 47.6463 62.0083C50.2058 63.1421 52.6586 62.2592 54.7396 60.6215C56.3211 59.3768 57.6996 57.262 57.5032 55.2099C57.4338 54.4841 57.3819 50.8612 56.4883 50.9467" stroke="#0C0B0B" stroke-width="0.8" stroke-linecap="round"/>
<path d="M57.1324 59.7853C60.0017 60.6137 64.9204 61.8286 66.7113 58.419C67.9204 56.1171 68.13 54.2196 67.8866 51.676" stroke="#0C0B0B" stroke-width="0.8" stroke-linecap="round"/>
<path d="M68.0035 57.1267C70.4875 57.2763 74.2526 57.2376 75.5476 54.6964C76.0306 53.7486 75.7162 52.4795 75.9131 51.4698C76.1092 50.4647 75.8524 48.4578 75.2983 47.6291C74.8918 47.0212 74.7905 46.2913 74.2935 45.7024C73.7225 45.0258 73.0262 44.3672 72.2865 43.8716C71.7818 43.5335 69.9689 43.0065 69.3301 43.042C68.7668 43.0733 68.5667 42.7635 65.9853 43.3621" stroke="#0C0B0B" stroke-width="0.8" stroke-linecap="round"/>
<path d="M75.1709 53.8111C76.6485 52.7451 78.5483 51.5924 78.8599 49.6146C79.1255 47.9292 79.2581 45.7041 78.2974 44.2067C77.0629 42.2825 74.8951 41.0055 72.6829 40.4961" stroke="#0C0B0B" stroke-width="0.8" stroke-linecap="round"/>
<path d="M78.3865 51.4807C78.6452 53.7674 79.9982 57.5437 78.8724 59.7279C78.4601 60.5277 77.6863 61.7552 76.8673 62.1449C76.2487 62.4394 74.4916 62.8265 74.2683 63.4051" stroke="#0C0B0B" stroke-width="0.8" stroke-linecap="round"/>
<path d="M76.4925 63.3947C76.9425 65.3153 77.2556 67.3323 76.8081 69.2758C76.518 70.5354 76.1144 71.0489 75.185 71.926C74.3651 72.6997 73.0528 73.1219 72.0012 73.5343C71.5128 73.7258 69.0132 74.2468 69.2141 74.0033" stroke="#0C0B0B" stroke-width="0.8" stroke-linecap="round"/>
<path d="M73.6162 56.5902C73.9829 58.1779 74.4077 59.3956 74.0382 61.0001C73.8229 61.9354 73.6224 62.9355 73.505 63.8831C73.3204 65.3738 72.4616 66.362 71.187 67.1392C70.1514 67.7707 66.1724 68.6323 65.3355 67.2947" stroke="#0C0B0B" stroke-width="0.8" stroke-linecap="round"/>
<path d="M62.7171 61.0713C63.5465 62.5767 64.5117 65.2952 64.0038 67.1179C63.7746 67.9404 63.7878 69.15 63.0966 69.7333C61.6917 70.9189 58.5452 73.4232 56.72 71.9169C54.9724 70.4746 52.5163 69.7103 52.1677 67.0932C52.0459 66.1788 51.9913 65.2496 51.9034 64.3314C51.8597 63.8747 51.8289 61.4391 51.9695 62.9091" stroke="#0C0B0B" stroke-width="0.8" stroke-linecap="round"/>
<path d="M54.7796 71.1367C53.0616 71.5829 50.9744 72.5639 49.1905 71.9189C47.5192 71.3146 46.5265 70.787 45.1283 69.633C43.984 68.6886 43.1913 66.9897 42.6218 65.6361C42.2847 64.8352 42.1721 64.1084 42.0898 63.2484C42.0266 62.5876 41.3944 61.1181 42.2135 62.4274" stroke="#0C0B0B" stroke-width="0.8" stroke-linecap="round"/>
<path d="M46.7426 71.7039C46.5668 73.5927 46.5898 76.2886 48.0282 77.7393C49.2158 78.9371 51.2472 79.9387 52.9797 79.8052C55.333 79.6239 56.9895 79.0487 58.8179 77.5158C60.2462 76.3183 60.1589 74.5018 60.002 72.8623" stroke="#0C0B0B" stroke-width="0.8" stroke-linecap="round"/>
<path d="M58.2382 77.6833C60.9758 79.0129 66.1871 79.4987 67.7328 76.2576C68.4203 74.8161 68.8109 73.5682 69.1823 72.0282C69.4788 70.7989 70.0036 69.5721 69.8795 68.2754" stroke="#0C0B0B" stroke-width="0.8" stroke-linecap="round"/>
<path d="M66.0385 80.9821C68.2164 81.3644 71.0994 81.6566 72.3527 79.3214C72.9267 78.252 73.2641 77.0879 73.7528 75.9846C73.968 75.4987 74.6176 73.5963 74.4449 73.7044" stroke="#0C0B0B" stroke-width="0.8" stroke-linecap="round"/>
<path d="M53.6385 80.3485C56.843 82.4924 59.8466 84.8681 63.5585 82.5457C64.5405 81.9314 65.3907 81.2534 65.9661 80.225C66.2873 79.651 66.4338 78.9992 66.6897 78.3914C67.0698 77.4886 66.9726 77.4168 66.6102 78.5001" stroke="#0C0B0B" stroke-width="0.8" stroke-linecap="round"/>
<path d="M59.0718 84.2787C61.4214 85.409 63.1153 85.7879 65.6589 85.4688C66.8993 85.3132 68.6538 82.6787 68.9216 81.5154" stroke="#0C0B0B" stroke-width="0.8" stroke-linecap="round"/>
<path d="M43.5012 80.1055C43.7102 82.2894 44.0231 83.7793 45.7553 85.1042C46.9349 86.0065 48.2134 85.9253 49.6083 85.7918C50.9468 85.6637 52.4125 85.4139 53.3214 84.3126C53.6511 83.9131 56.012 81.7537 55.7776 81.5602" stroke="#0C0B0B" stroke-width="0.8" stroke-linecap="round"/>
<path d="M49.7851 86.5838C52.8278 87.9837 58.2387 88.5477 60.1509 84.9848" stroke="#0C0B0B" stroke-width="0.8" stroke-linecap="round"/>
<path d="M35.5959 77.8271C36.183 79.8409 37.0037 81.8559 39.093 82.662C40.9781 83.3893 42.7673 83.0071 44.7716 82.8152" stroke="#0C0B0B" stroke-width="0.8" stroke-linecap="round"/>
<path d="M39.3979 83.7344C40.3483 84.7975 40.8322 85.822 42.1357 86.5066C42.7332 86.8205 43.5568 86.937 44.2126 87.072C45.0486 87.2442 47.3729 87.0813 47.7229 86.1742" stroke="#0C0B0B" stroke-width="0.8" stroke-linecap="round"/>
<path d="M42.1766 85.2886C42.0423 86.9804 41.4744 88.4484 40.5942 89.8904" stroke="#0C0B0B" stroke-width="0.8" stroke-linecap="round"/>
<path d="M37.8604 82.466C37.3553 83.097 36.9683 83.9061 36.2099 84.2423" stroke="#0C0B0B" stroke-width="0.8" stroke-linecap="round"/>
<path d="M31.2526 76.8267C32.7635 76.2974 34.2921 75.8279 35.7478 75.1828" stroke="#0C0B0B" stroke-width="0.8" stroke-linecap="round"/>
<path d="M34.6964 72.6538C35.7022 70.8406 37.0806 69.2262 37.8249 67.2973" stroke="#0C0B0B" stroke-width="0.8" stroke-linecap="round"/>
<path d="M47.7426 67.3597C49.369 64.9025 50.2563 62.3459 51.2614 59.7407" stroke="#0C0B0B" stroke-width="0.8" stroke-linecap="round"/>
<path d="M58.5117 69.9707C59.7663 71.4844 61.1765 73.0595 63.2669 73.1567" stroke="#0C0B0B" stroke-width="0.8" stroke-linecap="round"/>
<path d="M60.9409 59.4209C61.1382 60.8422 62.1729 63.9556 63.988 63.7818" stroke="#0C0B0B" stroke-width="0.8" stroke-linecap="round"/>
<path d="M71.9829 54.3184C73.729 55.6652 75.4389 56.2326 77.6253 56.2058" stroke="#0C0B0B" stroke-width="0.8" stroke-linecap="round"/>
<path d="M77.459 48.1309C78.9063 48.0198 80.5329 48.3009 81.8689 47.7088" stroke="#0C0B0B" stroke-width="0.8" stroke-linecap="round"/>
<path d="M77.2451 60.6924C78.8992 61.3912 80.401 62.5737 81.962 63.4775" stroke="#0C0B0B" stroke-width="0.8" stroke-linecap="round"/>
<path d="M70.4705 65.9941C71.0258 67.4874 72.58 69.8187 74.3002 70.0779" stroke="#0C0B0B" stroke-width="0.8" stroke-linecap="round"/>
<path d="M72.6604 74.0781C72.8503 76.0626 74.026 77.6763 75.7267 78.6395" stroke="#0C0B0B" stroke-width="0.8" stroke-linecap="round"/>
<path d="M66.0022 84.8291C66.6181 86.0703 67.3401 87.2615 67.9703 88.4842" stroke="#0C0B0B" stroke-width="0.8" stroke-linecap="round"/>
<path d="M52.5875 77.8195C52.5688 80.1175 52.2506 82.2745 52.0179 84.5494" stroke="#0C0B0B" stroke-width="0.8" stroke-linecap="round"/>
<path d="M54.1568 85.7605C54.0368 87.3373 53.8313 88.9035 53.5958 90.4668" stroke="#0C0B0B" stroke-width="0.8" stroke-linecap="round"/>
<path d="M23.8473 60.7466C25.2583 60.4622 27.6314 60.5938 28.3425 59.1027" stroke="#0C0B0B" stroke-width="0.8" stroke-linecap="round"/>
<path d="M30.2614 60.1319C30.8652 58.2694 31.6716 56.0807 32.7501 54.432" stroke="#0C0B0B" stroke-width="0.8" stroke-linecap="round"/>
<path d="M27.6794 50.0633C29.5396 49.8664 31.8364 49.9056 33.4349 48.9056" stroke="#0C0B0B" stroke-width="0.8" stroke-linecap="round"/>
<path d="M36.3239 62.1814C38.0542 60.4495 40.0529 59.0037 41.7149 57.2151" stroke="#0C0B0B" stroke-width="0.8" stroke-linecap="round"/>
<path d="M40.17 81.2329C40.6119 79.1507 42.0524 77.7887 42.8976 75.9147" stroke="#0C0B0B" stroke-width="0.8" stroke-linecap="round"/>
<path d="M60.4644 81.9209C61.5029 83.1029 62.4658 84.6266 64.1789 84.802" stroke="#0C0B0B" stroke-width="0.8" stroke-linecap="round"/>
<path d="M49.5842 33.2661C48.8285 36.7271 48.9303 40.4085 45.2918 42.1258C47.7999 41.8857 50.3077 41.6119 52.8179 41.3716C53.4858 41.3077 54.1204 41.181 54.767 41.0497C54.8809 41.0266 55.118 40.9673 55.1925 40.877C53.8954 40.5783 52.6219 38.4685 52.5027 37.2235C52.2027 34.088 53.6488 31.4345 53.8828 28.3932C54.0996 25.5741 55.6358 23.4833 57.4687 21.4757C59.3158 19.4526 62.4495 18.5375 64.7405 17.1386C65.9626 16.3923 67.0424 16.1389 67.9754 15.0084C68.6115 14.2377 68.251 13.7683 67.3481 13.8547C65.6182 14.0203 64.0139 15.3007 62.4458 15.9422C59.9111 16.9791 57.6904 18.2225 55.6225 20.0341C51.9682 23.2356 50.5764 28.7219 49.5842 33.2661Z" fill="white" stroke="#FFFEFE" stroke-width="0.8" stroke-linecap="round"/>
<path d="M45.279 42.0621C48.9175 40.3448 48.8285 36.7274 49.5842 33.2664C50.5764 28.7222 51.9682 23.2359 55.6226 20.0344C57.6905 18.2228 59.9111 16.9795 62.4458 15.9425C64.0139 15.301 65.6182 14.0206 67.3481 13.8551C68.2511 13.7686 68.6116 14.238 67.9755 15.0087C67.0425 16.1392 65.9626 16.3927 64.7405 17.1389C62.4495 18.5378 59.3158 19.4529 57.4687 21.476C55.6359 23.4836 54.0997 25.5744 53.8828 28.3935C53.6488 31.4349 52.2027 34.0883 52.5028 37.2239C52.6219 38.4688 53.8955 40.5787 55.1925 40.8774" stroke="#0C0B0B" stroke-width="0.8" stroke-linecap="round"/>
</svg>
