<svg width="108" height="108" viewBox="0 0 108 108" fill="none" xmlns="http://www.w3.org/2000/svg">
<circle cx="53.6682" cy="53.6682" r="53.6682" fill="#0E0D0D"/>
<path d="M56.5303 89.2344C55.9346 89.7728 54.3768 90.4425 53.5393 90.6294C53.0265 90.9021 49.9203 92.8009 49.3719 92.1125C49.0601 91.721 47.1414 91.1295 46.5561 90.8682C45.6458 90.4619 45.3532 89.3299 44.8166 88.6563C44.1174 87.7786 43.4211 86.9281 42.614 86.1175C41.7276 85.2274 41.4011 83.9859 40.6867 83.0635C39.3526 81.3409 37.4999 80.0768 35.9687 78.539C34.5437 77.108 31.5748 75.473 29.5486 75.2588C28.5877 75.1572 27.3807 74.6182 26.4674 74.2103L26.3949 74.178C25.6992 73.8674 24.5025 73.6973 24.1423 72.8835C23.2658 70.9029 21.4702 69.4317 21.2139 67.1148C20.9759 64.9637 19.4098 63.2462 18.6859 61.2832C17.0092 56.7369 19.4016 51.9257 19.637 47.4333C19.6721 46.7636 20.0875 46.095 20.0875 45.3847C20.0875 44.4775 20.3221 43.3749 20.5881 42.5067C21.0058 41.1434 21.3257 39.8181 22.2276 38.7112C22.9911 37.7739 23.3389 36.5774 24.1423 35.6697C24.8836 34.8322 25.945 33.8402 26.6077 32.8419C28.0295 30.7002 30.9471 30.1933 32.7023 28.4306C33.8166 27.3115 35.3681 27.6837 36.7571 27.0229C37.9408 26.4599 38.882 25.5609 40.0234 24.9241C41.1194 24.3126 42.1876 24.1176 43.3856 23.8989L43.4149 23.8935C44.5456 23.6871 45.7747 23.0636 46.894 23.0012C49.3108 22.8664 51.7133 23.0941 54.1024 23.2274C54.276 23.2371 55.106 23.4536 55.2413 23.5667C55.7121 23.9608 57.8592 23.8825 58.4826 23.9061C59.9384 23.9613 61.0994 24.6316 62.4372 24.8235C65.0169 25.1936 67.4613 26.1771 69.9711 26.8973C72.593 27.6496 75.0557 28.6974 77.192 30.366C78.156 31.119 79.0972 31.9105 80.0078 32.7288C80.7353 33.3825 82.0339 33.4045 82.4857 34.4255C83.2115 36.0654 85.2008 37.269 86.4904 38.4347C87.8156 39.6324 90.0213 40.3824 90.5827 42.3559C91.1755 44.4393 91.0458 46.5775 91.0458 48.7907C91.0458 49.7404 91.3238 51.1953 90.9332 52.0583C90.5423 52.9219 90.6859 54.0719 90.3199 54.8987C89.9843 55.6572 89.7399 57.2394 89.6942 58.0658C89.6283 59.2566 89.0532 60.2275 88.8057 61.3461C88.3596 63.3621 86.9233 65.926 85.4642 67.3913C83.7404 69.1225 82.4932 71.1793 80.7963 72.8835C79.1829 74.5037 76.9983 76.6021 74.9394 77.521C73.422 78.1983 72.5579 79.7672 71.1099 80.5751C69.9489 81.2228 69.0159 82.2461 67.8436 82.9001C65.6267 84.137 63.6238 86.0327 61.6488 87.5754C60.7298 88.2932 59.9153 88.1535 58.7204 88.1535C57.9999 88.1535 57.0303 88.7825 56.5303 89.2344Z" fill="#FFFDFD" stroke="#FFFEFE" stroke-width="0.5" stroke-linecap="round"/>
<path d="M43.5781 85.748C42.9676 84.5363 42.977 84.8673 42.4055 83.733C41.9848 82.8982 40.801 82.5293 40.1368 81.9164C38.8217 80.7027 37.3771 79.1703 35.806 78.2342C33.9815 77.1472 32.2151 75.7472 30.1365 75.0615C29.0555 74.7048 28.2074 74.1617 27.127 73.8052C26.7509 73.6811 25.0544 72.3313 26.1744 72.7008" stroke="#0C0C0C" stroke-linecap="round"/>
<path d="M26.1742 72.7024C24.5749 71.7551 24.4164 70.5767 23.5137 69.1909C23.221 68.7416 22.1547 67.0828 22.1783 66.4969C22.219 65.4906 21.591 64.5441 20.9441 63.8071C20.0895 62.8336 19.8034 60.975 19.5957 59.7334C18.5835 53.6848 20.473 47.6716 22.3794 41.8931C23.3185 39.0467 25.5097 36.1342 27.7163 34.0989C30.1478 31.8563 33.1141 30.4209 35.7842 28.4056C38.7694 26.1522 42.6485 24.1723 46.3908 23.7985C47.6577 23.672 49.2909 23.7912 50.6013 23.6186C51.7083 23.4728 53.7372 23.2953 54.6792 23.6061" stroke="#0C0C0C" stroke-linecap="round"/>
<path d="M54.2602 23.4974C55.8617 24.0257 57.5352 24.0511 59.1675 24.5896C60.5728 25.0532 61.9543 25.4348 63.3938 25.7059C66.7232 26.3328 69.7243 27.8091 72.9038 28.858C74.701 29.451 76.7927 30.9165 78.2922 32.0844C80.4482 33.7635 83.6134 34.3344 85.4025 36.5226C85.809 37.0197 86.4821 37.2771 86.9314 37.8317C87.4785 38.5073 88.1026 39.0407 88.6991 39.6587C89.5381 40.528 89.8469 41.7073 90.3081 42.7648C91.0658 44.5023 91.2333 47.72 90.7069 49.5395C90.1456 51.4795 90.547 53.7686 90.0138 55.632C89.4016 57.7715 88.6127 59.8788 87.9154 61.9925C87.245 64.0244 85.9759 66.855 84.3756 68.3311C83.4328 69.2006 82.949 70.3592 81.8533 71.1863C80.9037 71.903 79.852 72.7359 78.9691 73.5417C76.5109 75.785 73.411 77.3044 70.92 79.5777C69.9043 80.5046 68.7019 81.3995 67.4999 82.0051C66.5779 82.4696 66.0091 83.5598 65.0056 83.933C64.2409 84.2174 63.1011 84.8387 62.589 85.4477C61.719 86.4823 60.2593 86.9495 59.0712 87.5062C56.8582 88.5431 54.3864 89.0333 52.1975 89.9794C50.7622 90.5997 48.412 90.1446 46.9495 89.5649C46.2906 89.3037 46.0322 88.1568 45.6868 87.6265C45.2199 86.9098 44.2365 86.6342 43.6952 85.8574" stroke="#0C0C0C" stroke-linecap="round"/>
<path d="M51.511 87.914C52.7762 86.3834 54.1994 84.8358 54.8348 82.91C55.2341 81.6998 55.746 80.5102 56.1493 79.2877C56.5474 78.0812 56.8362 76.8436 57.2306 75.6482C58.1794 72.7723 58.437 69.7111 59.0931 66.7633C59.3434 65.6386 59.512 64.4968 59.7325 63.3764C59.7998 63.0344 59.7575 62.6689 59.829 62.3395C59.8981 62.0213 59.8233 61.2566 60.079 61.944" stroke="#0C0C0C" stroke-linecap="round"/>
<path d="M50.5768 87.4861C51.0091 86.2756 51.9716 85.3395 52.4044 84.1194C52.8697 82.8078 53.4971 81.5317 53.9354 80.2034C54.8347 77.4773 55.986 74.7099 56.3577 71.855C56.7017 69.2127 57.3069 66.6309 57.6412 63.9807C57.7424 63.1783 57.8127 62.3225 57.8011 61.5242C57.7958 61.1624 57.8456 60.7637 57.7777 60.4079C57.6326 59.6468 57.7658 60.5015 57.8149 60.8383" stroke="#0C0C0C" stroke-linecap="round"/>
<path d="M49.2836 87.0592C50.5936 84.497 51.73 81.8169 52.6321 79.0827C53.0384 77.8511 53.3757 76.7558 53.3605 75.4463C53.3452 74.1315 54.036 72.8901 54.2019 71.6082C54.3726 70.2893 54.7549 68.9841 54.9892 67.6726C55.1042 67.0285 55.3372 66.4256 55.3541 65.7617C55.3681 65.2137 55.3592 64.5949 55.4385 64.0569C55.5889 63.0379 55.6611 61.922 55.6461 60.8926C55.6379 60.3299 55.5624 59.7647 55.5472 59.2004C55.5418 58.9992 55.4922 58.8237 55.4637 58.6285C55.4218 58.3414 55.6727 59.17 55.7652 59.4449" stroke="#0C0C0C" stroke-linecap="round"/>
<path d="M48.4538 85.5903C49.2066 84.0282 49.3754 82.3726 49.8283 80.7199C50.2177 79.2988 50.4694 77.8122 50.69 76.3574C50.8971 74.9911 51.1733 73.647 51.4091 72.2864C51.6845 70.6971 51.7483 69.0611 52.0382 67.4821C52.2555 66.2989 52.0608 65.0504 52.1865 63.8535C52.2917 62.8518 52.1404 61.8277 52.1373 60.8235C52.1354 60.2007 52.1284 59.5545 52.0797 58.9457C52.0517 58.5963 52.0861 58.2284 52.1003 57.8772C52.13 57.1433 52.0904 58.399 52.1025 58.5948" stroke="#0C0C0C" stroke-linecap="round"/>
<path d="M47.0894 85.3799C48.2198 81.9534 48.2315 78.3094 48.9087 74.7947C49.137 73.61 49.2217 72.3446 49.2782 71.1394C49.3325 69.9837 49.6089 68.8076 49.5905 67.6578C49.5727 66.5517 49.7399 65.4779 49.6621 64.3623C49.6265 63.8524 49.6385 63.2869 49.5237 62.7898C49.4324 62.3947 49.2477 61.8769 49.2465 61.4769C49.244 60.6513 48.9378 59.8644 48.7467 59.0683C48.6665 58.7342 48.6 58.4063 48.5164 58.0763C48.3149 57.2807 48.5823 57.9901 48.6929 58.4266" stroke="#0C0C0C" stroke-linecap="round"/>
<path d="M45.6509 84.308C46.5537 82.6288 46.659 80.6121 46.9475 78.748C47.2009 77.1104 47.3688 75.4301 47.6818 73.8058C47.906 72.6421 47.6706 71.4923 47.6911 70.3371C47.7118 69.1668 47.6507 67.9997 47.5387 66.8349C47.3629 65.006 47.157 63.225 46.8722 61.4106C46.7596 60.6937 46.497 59.9937 46.3831 59.2711C46.3351 58.9662 46.2248 58.6695 46.1491 58.3707C46.0575 58.0089 46.3206 58.8707 46.3623 58.9721" stroke="#0C0C0C" stroke-linecap="round"/>
<path d="M44.8565 82.733C45.4242 81.4988 45.4696 80.2242 45.4068 78.8917C45.3355 77.3767 45.379 75.8203 45.4266 74.3046C45.4701 72.919 45.5484 71.6165 45.4699 70.2297C45.413 69.2268 45.3899 68.2063 45.3868 67.2018C45.3816 65.5155 45.2886 63.8121 45.0801 62.1352C45.0121 61.5878 45.0182 60.9021 44.7917 60.3938C44.6156 59.9986 44.5342 59.9208 44.6802 60.45" stroke="#0C0C0C" stroke-linecap="round"/>
<path d="M43.8181 83.3447C44.2912 81.9106 44.0981 80.5972 44.0204 79.1099C43.9568 77.8933 43.9938 76.6642 43.8178 75.4584C43.6736 74.4707 43.3844 73.4488 43.2902 72.4697C43.1901 71.4285 43.1776 70.385 43.0334 69.3447C42.8854 68.2767 42.9483 67.2081 42.8641 66.1356C42.7955 65.2628 42.5917 64.4067 42.4653 63.5413C42.3654 62.8571 42.1881 62.208 42.1162 61.5209C42.0892 61.2624 42.0131 61.018 41.9465 60.7679C41.8081 60.2488 42.2825 61.7185 42.3165 61.8194" stroke="#0C0C0C" stroke-linecap="round"/>
<path d="M42.8449 81.9485C43.1403 82.7832 43.0515 81.9965 43.0211 81.5751C42.961 80.7401 42.8357 79.9314 42.6368 79.1183C42.2834 77.6739 42.2711 76.1001 42.2163 74.6183C42.1346 72.4106 41.8085 70.2188 41.7594 68.0151C41.7386 67.0854 41.5302 66.1853 41.3184 65.2874C41.1497 64.5724 40.7923 63.914 40.67 63.1882C40.599 62.767 40.3369 62.2275 40.1634 61.8262C40.0027 61.4542 39.9139 60.7985 40.2345 61.6107" stroke="#0C0C0C" stroke-linecap="round"/>
<path d="M41.6575 80.8398C41.9625 79.6484 41.2112 78.2347 40.9262 77.0803C40.646 75.9452 40.3713 74.8405 40.2021 73.6816C40.0507 72.645 39.837 71.6008 39.467 70.6178C39.2007 69.9103 39.1532 69.0642 38.8402 68.393C38.4343 67.5228 38.2938 66.4784 37.7234 65.6813C37.5076 65.3797 37.3516 65.0064 37.194 64.6702C36.8865 64.0139 37.4122 65.08 37.4829 65.2435" stroke="#0C0C0C" stroke-linecap="round"/>
<path d="M39.4978 78.6934C40.0612 76.7767 38.8697 74.7046 38.3914 72.8518C38.0508 71.5327 38.1233 69.898 37.2783 68.7605C36.7227 68.0126 36.4145 67.1009 35.8476 66.3767C35.5254 65.965 34.8271 64.8461 35.5831 65.9309" stroke="#0C0C0C" stroke-linecap="round"/>
<path d="M38.2407 78.1582C37.2906 76.7661 36.7456 75.3191 36.1021 73.7751C35.6702 72.7385 35.116 71.7699 34.753 70.7012C34.5144 69.9988 34.0148 69.4504 33.8499 68.7304C33.728 68.1985 33.7562 67.9214 33.8338 68.6986" stroke="#0C0C0C" stroke-linecap="round"/>
<path d="M36.0452 76.1201C35.7937 75.7968 32.583 71.4854 32.9802 71.2853" stroke="#0C0C0C" stroke-linecap="round"/>
<path d="M53.4854 88.0869C54.0767 86.8351 54.9784 85.6438 55.7069 84.4519C56.5559 83.0627 57.3972 81.7164 58.0522 80.2204C59.2121 77.5716 60.147 74.7423 60.9493 71.9623C61.3035 70.735 61.5639 69.5031 61.8449 68.2615C62.0289 67.4489 62.2968 66.6373 62.3637 65.8039C62.414 65.177 62.7308 64.4965 62.6927 63.8812C62.6837 63.7366 62.7662 63.5777 62.8109 63.4422C62.8372 63.3625 62.8127 64.0186 62.8131 64.1599" stroke="#0C0C0C" stroke-linecap="round"/>
<path d="M55.8846 86.6081C55.8386 86.7603 55.6582 87.3908 55.9176 86.9509C56.226 86.4277 56.5116 85.8906 56.8297 85.3732C57.5385 84.2204 58.2604 83.1252 58.8684 81.9102C60.191 79.2672 61.7769 76.7161 62.7071 73.8964C63.4045 71.7826 64.2064 69.7143 64.9045 67.5981C65.0576 67.1341 65.3905 66.5198 65.3662 66.0178C65.3585 65.8599 65.4018 65.7287 65.4505 65.5809C65.5039 65.4192 65.4017 65.9192 65.4023 66.0894" stroke="#0C0C0C" stroke-linecap="round"/>
<path d="M57.4283 86.6391C58.6989 84.3639 60.3168 82.2701 61.6002 79.9898C62.702 78.0322 63.9233 76.1359 65.057 74.2C66.031 72.5368 66.8816 70.6615 67.4846 68.8339C67.6505 68.331 67.8164 67.8282 67.9823 67.3253C68.1431 66.8378 68.1453 66.6949 68.098 67.3369" stroke="#0C0C0C" stroke-linecap="round"/>
<path d="M60.0443 85.5924C62.4006 82.7672 64.9517 80.169 66.512 76.7731C67.3546 74.9393 68.1202 73.0357 69.0228 71.2353C69.3798 70.5232 70.0748 68.2276 69.8252 68.9842" stroke="#0C0C0C" stroke-linecap="round"/>
<path d="M63.4461 83.2497C64.8438 81.8857 65.7704 80.4469 66.7695 78.77C67.5811 77.4078 68.5228 76.1324 69.3248 74.7671C70.0059 73.6076 70.7808 72.4202 71.2594 71.1568C71.4148 70.7466 72.0094 69.2456 71.5883 70.5219" stroke="#0C0C0C" stroke-linecap="round"/>
<path d="M67.3855 80.7261C68.6676 78.7698 69.9901 76.8105 71.3866 74.9365C72.1479 73.915 73.3539 70.2412 72.9547 71.451" stroke="#0C0C0C" stroke-linecap="round"/>
<path d="M75.49 67.3863C75.9966 66.447 76.249 65.3926 76.7628 64.4539C77.296 63.48 78.0437 62.5435 78.3924 61.4865C78.9685 59.7402 79.8703 58.21 80.6179 56.5517C81.1808 55.3032 82.1043 54.125 82.5581 52.8438C82.7454 52.3151 83.0606 51.9324 83.3473 51.4578C83.6273 50.9943 83.4841 51.1235 83.3357 51.5735" stroke="#0C0C0C" stroke-linecap="round"/>
<path d="M73.9069 66.0275C74.8294 63.2314 75.5992 60.3905 77.0373 57.8066C78.1473 55.8123 79.056 53.7121 80.2282 51.7564C80.8871 50.6573 81.5323 49.5644 82.1298 48.4273C82.3538 48.0011 82.5294 47.5671 82.7578 47.1476C82.9337 46.8244 82.8722 46.8208 82.748 47.1974" stroke="#0C0C0C" stroke-linecap="round"/>
<path d="M71.7492 64.6001C73.6696 60.039 74.8646 55.1889 76.8535 50.6577C77.4895 49.209 78.0406 47.7127 78.6461 46.2505C78.8427 45.7759 79.1141 45.337 79.3256 44.8749C79.5628 44.3569 79.5689 44.4098 79.5472 44.948" stroke="#0C0C0C" stroke-linecap="round"/>
<path d="M70.7373 62.2344C71.3647 59.2392 72.5419 56.3648 73.2378 53.3874C73.5206 52.1777 73.9765 51.0146 74.3512 49.8315C74.6414 48.9156 74.734 47.9471 75.0364 47.0305C75.4419 45.8013 75.6264 44.5176 76.0335 43.2836C76.1665 42.8805 76.2995 42.4774 76.4325 42.0743C76.5904 41.5957 76.4878 41.9066 76.3812 42.23" stroke="#0C0C0C" stroke-linecap="round"/>
<path d="M68.7598 60.9842C69.4188 59.3753 70.0535 57.7245 70.3991 56.0152C70.6486 54.7814 70.8737 53.5667 71.1912 52.3467C71.7092 50.357 72.2768 48.3837 72.6859 46.3675C72.9825 44.9059 73.3314 43.4706 73.6134 42.0069C73.6727 41.6989 73.9257 41.2977 73.8654 40.9814C73.7981 40.6285 73.7655 41.4 73.7593 41.4841" stroke="#0C0C0C" stroke-linecap="round"/>
<path d="M65.4172 59.166C66.3306 56.3975 66.9595 53.6536 67.5225 50.7927C67.9503 48.6193 68.5189 46.3843 68.7162 44.1766C68.8526 42.6505 69.3833 41.2164 69.6235 39.7163C69.6772 39.3807 70.1094 37.5515 69.9835 38.8061" stroke="#0C0C0C" stroke-linecap="round"/>
<path d="M63.5095 57.3398C64.3887 54.6751 64.6152 51.8724 65.079 49.1217C65.4339 47.0176 65.8684 44.873 65.9963 42.7396C66.0726 41.4674 66.3348 40.124 66.5266 38.8586C66.5897 38.4428 66.924 36.7331 66.6438 38.0608" stroke="#0C0C0C" stroke-linecap="round"/>
<path d="M61.3901 56.5225C61.6622 54.5434 61.7825 52.5569 62.0237 50.5778C62.2037 49.1012 62.453 47.6656 62.5065 46.1767C62.5722 44.3491 62.6647 42.5231 62.6691 40.694C62.6715 39.6941 62.9405 38.6338 62.8391 37.6434C62.7966 37.2286 62.9261 36.8268 62.8852 36.4172C62.8624 36.1894 62.7909 36.9128 62.8013 37.0335" stroke="#0C0C0C" stroke-linecap="round"/>
<path d="M57.9418 55.3849C58.5961 54.2869 58.447 53.0671 58.3974 51.8311C58.3129 49.7249 58.282 47.6018 58.1427 45.5004C58.0289 43.7838 58.1824 42.0899 58.105 40.3832C58.0791 39.8118 57.8384 34.7837 58.0577 34.7517" stroke="#0C0C0C" stroke-linecap="round"/>
<path d="M55.9653 54.4932C55.6136 51.4742 55.8474 48.4443 55.5586 45.4239C55.3672 43.4221 55.0332 41.435 54.7428 39.4459C54.5526 38.1428 54.594 36.7916 54.3439 35.5039C54.2342 34.9386 54.0604 33.3669 54.2904 34.9419" stroke="#0C0C0C" stroke-linecap="round"/>
<path d="M53.1682 55.0059C52.696 51.5707 52.5946 48.1458 51.9564 44.735C51.6466 43.079 51.3773 41.2683 51.3266 39.5817C51.2917 38.423 51.0234 37.2369 51.0467 36.0839C51.0587 35.4886 50.7879 33.6671 50.9189 35.3846" stroke="#0C0C0C" stroke-linecap="round"/>
<path d="M50.1482 53.292C49.8188 50.2522 49.0183 47.3095 48.5775 44.2901C48.3305 42.5981 48.0317 40.9239 47.7406 39.2411C47.6559 38.7511 47.6808 38.2602 47.6224 37.7683C47.57 37.3254 47.4006 36.8847 47.411 36.4373C47.4174 36.1643 47.4661 35.8895 47.4364 35.6158C47.3963 35.246 47.432 36.055 47.44 36.1481" stroke="#0C0C0C" stroke-linecap="round"/>
<path d="M47.71 53.8008C47.2613 51.3864 46.4877 49.06 46.0612 46.6451C45.7513 44.8907 45.2998 43.1961 44.7874 41.4918C44.5555 40.7204 44.4373 39.8162 44.0764 39.0998C43.8714 38.6931 43.3293 37.4388 43.5342 37.8456" stroke="#0C0C0C" stroke-linecap="round"/>
<path d="M45.0569 54.5977C44.8657 53.0414 44.5863 51.4788 44.0659 49.9957C43.5942 48.6515 42.9583 47.3546 42.5305 45.9974C42.169 44.8505 41.8689 43.8149 41.2129 42.7879C40.8436 42.2098 40.4797 41.5904 40.1707 40.977C39.7882 40.2179 39.6802 39.3626 39.2385 38.6315C39.0422 38.3066 38.8811 37.9736 38.6454 37.6725C38.3376 37.2792 38.9001 38.6389 39.0526 39.1145" stroke="#0C0C0C" stroke-linecap="round"/>
<path d="M43.3352 54.748C42.6582 53.3753 42.1535 51.9411 41.3808 50.6115C40.7023 49.4442 39.8908 48.39 39.2551 47.1952C38.5274 45.8274 37.875 44.4461 37.1791 43.0651C36.7204 42.1547 36.3402 41.186 35.9365 40.252C35.7813 39.893 35.6147 39.5279 35.4487 39.175C35.2579 38.7694 35.883 40.1361 35.9344 40.2381" stroke="#0C0C0C" stroke-linecap="round"/>
<path d="M40.0024 56.1572C39.707 53.4949 37.9719 51.1845 36.6073 48.9631C35.9088 47.8261 35.3533 46.3874 34.8611 45.1409C34.465 44.1377 34.0016 43.2915 33.4372 42.3743C33.2629 42.0911 33.1542 41.846 33.1216 41.5201C33.0894 41.1979 33.0831 42.1347 33.106 42.2916" stroke="#0C0C0C" stroke-linecap="round"/>
<path d="M37.6741 57.4209C37.0869 55.7236 36.1786 54.2479 35.3669 52.6635C34.8706 51.6947 34.5416 50.7024 34.1258 49.7049C33.57 48.3718 32.9394 47.1064 32.1246 45.9115C31.6558 45.2241 30.7054 44.6039 30.4634 43.7835C30.2026 42.8994 30.3168 43.4234 30.4921 44.0585" stroke="#0C0C0C" stroke-linecap="round"/>
<path d="M35.9907 58.5391C34.0251 55.4218 31.4118 52.7054 29.3688 49.6365C28.8677 48.8839 28.2543 48.1775 27.8467 47.3685C27.7808 47.2379 27.4551 46.5224 27.5212 46.5442" stroke="#0C0C0C" stroke-linecap="round"/>
<path d="M33.9866 60.2666C32.3765 56.7339 30.0688 53.8925 27.5906 50.9606C27.3127 50.6319 26.9459 50.1045 26.873 49.675C26.8104 49.3066 26.1567 48.4684 26.5613 49.4527" stroke="#0C0C0C" stroke-linecap="round"/>
<path d="M32.8813 62.5322C31.7063 60.6548 30.4767 59.0026 28.8886 57.4511C27.9829 56.5661 27.0707 55.7018 26.2548 54.7301C25.7595 54.1401 25.0905 53.6553 24.6666 53.0046C24.3204 52.4731 23.7382 51.6706 24.5262 52.7259" stroke="#0C0C0C" stroke-linecap="round"/>
<path d="M31.6326 64.8672C30.0437 62.3374 27.9668 59.9198 25.4581 58.2298C24.8197 57.7997 24.1947 57.2993 23.721 56.6942C23.4541 56.3532 23.0595 55.5871 23.2819 56.4962" stroke="#0C0C0C" stroke-linecap="round"/>
<path d="M30.2751 66.8076C28.8973 64.6302 26.6167 63.4011 24.6183 61.8612C24.0127 61.3945 23.2683 61.1645 22.6095 60.7869C22.3531 60.6399 22.1658 60.4138 22.5765 60.4441" stroke="#0C0C0C" stroke-linecap="round"/>
<path d="M30.1394 69.3926C28.449 67.5833 26.088 65.9903 23.8461 64.9265C23.2558 64.6465 21.8249 64.0479 23.0529 63.709" stroke="#0C0C0C" stroke-linecap="round"/>
<path d="M78.036 66.9134C80.0951 64.22 81.8847 61.4311 83.7118 58.583C84.0625 58.0363 84.5355 57.5604 84.8631 57.0046C84.95 56.8572 85.1411 56.2427 84.9661 56.773" stroke="#0C0C0C" stroke-linecap="round"/>
<path d="M75.7892 71.5469C77.6824 69.8135 79.1919 68.0073 80.636 65.9102C81.4191 64.7731 82.3079 63.7034 83.2036 62.6549C83.5767 62.2182 83.9129 61.7591 84.298 61.3298C84.4554 61.1543 85.2028 60.1408 84.8346 60.7899" stroke="#0C0C0C" stroke-linecap="round"/>
<path d="M85.9298 54.9404C87.0606 53.2712 88.0854 51.4778 89.0335 49.6978C89.259 49.2743 89.4598 48.8394 89.6654 48.4061C89.7754 48.1743 90.0004 47.3273 90.1414 47.6072" stroke="#0C0C0C" stroke-linecap="round"/>
<path d="M86.163 49.1625C87.215 47.1362 88.0129 45.0038 88.7271 42.8391" stroke="#0C0C0C" stroke-linecap="round"/>
<path d="M84.4274 45.0045C84.9247 43.1961 85.5851 41.4953 86.1694 39.7243C86.231 39.5375 86.6117 38.7786 86.2749 39.0422" stroke="#0C0C0C" stroke-linecap="round"/>
<path d="M80.8703 43.4723C81.6051 41.2449 83.917 34.5994 83.1822 36.8267" stroke="#0C0C0C" stroke-linecap="round"/>
<path d="M78.7431 40.1412C79.3002 38.4526 80.5218 35.1121 80.5218 35.1121" stroke="#0C0C0C" stroke-linecap="round"/>
<path d="M75.5835 39.5771C75.7358 37.5961 76.2505 35.6023 76.7216 33.6728C76.8532 33.1335 77.0297 32.5877 76.9956 32.0373" stroke="#0C0C0C" stroke-linecap="round"/>
<path d="M71.0542 37.0088C71.5382 35.1557 72.0265 33.291 72.3965 31.4108C72.4575 31.1011 72.44 30.7488 72.4718 31.2631" stroke="#0C0C0C" stroke-linecap="round"/>
<path d="M67.9592 34.0742C67.9591 32.6996 68.001 31.388 68.3316 30.0482C68.3904 29.8096 68.4406 28.892 68.4837 29.5872" stroke="#0C0C0C" stroke-linecap="round"/>
<path d="M62.8982 33.4785C63.1379 31.8539 63.7205 27.002 63.206 28.5616" stroke="#0C0C0C" stroke-linecap="round"/>
<path d="M58.5874 32.0576C58.5063 30.5058 58.2408 28.9437 58.2142 27.3939C58.2062 26.9261 58.4641 25.5499 58.3175 25.9942" stroke="#0C0C0C" stroke-linecap="round"/>
<path d="M54.9587 30.7412C54.8365 29.2057 54.6777 27.6637 54.4103 26.1458C54.3156 25.6079 54.3222 25.916 54.3345 26.1142" stroke="#0C0C0C" stroke-linecap="round"/>
<path d="M50.8328 30.9336C50.4677 29.611 50.1004 28.2549 49.9153 26.8936C49.8335 26.2924 49.8947 26.1052 49.923 26.8098" stroke="#0C0C0C" stroke-linecap="round"/>
<path d="M47.0996 30.2988C46.3053 29.1781 45.7229 27.9268 45.33 26.6083C45.1592 26.0354 45.0579 26.0486 44.9711 26.6094" stroke="#0C0C0C" stroke-linecap="round"/>
<path d="M43.5154 31.7451C42.7319 30.5271 41.467 26.3353 41.8524 27.7313" stroke="#0C0C0C" stroke-linecap="round"/>
<path d="M39.645 33.3369C38.8495 32.5748 38.6345 31.4342 38.2227 30.4447C38.0418 30.0099 37.8901 29.6017 37.6976 30.1852" stroke="#0C0C0C" stroke-linecap="round"/>
<path d="M35.9199 35.5742C35.1933 34.6717 34.4927 33.6893 33.9613 32.6578C33.8392 32.4209 33.3027 31.4706 33.8637 32.0281" stroke="#0C0C0C" stroke-linecap="round"/>
<path d="M33.7708 36.6572C33.142 36.1831 32.5763 35.6354 31.9461 35.1657C31.7026 34.9843 30.9284 34.5246 31.2168 34.6197" stroke="#0C0C0C" stroke-linecap="round"/>
<path d="M29.979 40.543C29.055 39.5579 28.161 38.4843 27.4891 37.3052C27.3078 36.987 27.3804 37.1464 27.4217 37.429" stroke="#0C0C0C" stroke-linecap="round"/>
<path d="M26.7568 43.0645C25.9277 42.4023 25.2278 41.623 24.4576 40.8986C24.3535 40.8007 23.7999 40.4214 23.9496 40.346" stroke="#0C0C0C" stroke-linecap="round"/>
<path d="M24.8669 46.9805C24.5624 46.7484 22.6229 44.7751 22.2419 45.1585" stroke="#0C0C0C" stroke-linecap="round"/>
<path d="M23.1562 50.7188C22.3962 50.2143 21.8113 49.6126 21.1693 48.9746C20.9421 48.7488 20.9167 48.7968 20.7467 48.9679" stroke="#0C0C0C" stroke-linecap="round"/>
<path d="M22.093 55.0283C21.4638 54.6622 20.9069 54.2787 20.3311 53.8496" stroke="#0C0C0C" stroke-linecap="round"/>
<path d="M21.9243 58.4385C21.3793 58.2587 20.9568 58.0538 20.4868 57.7252" stroke="#0C0C0C" stroke-linecap="round"/>
</svg>
