<?xml version="1.0" encoding="utf-8"?>
<!-- Generator: Adobe Illustrator 23.1.0, SVG Export Plug-In . SVG Version: 6.00 Build 0)  -->
<svg version="1.1" xmlns="http://www.w3.org/2000/svg" xmlns:xlink="http://www.w3.org/1999/xlink" x="0px" y="0px"
	 viewBox="0 0 216 216" style="enable-background:new 0 0 216 216;" xml:space="preserve">
<style type="text/css">
	.Arched_x0020_Green{fill:url(#SVGID_1_);stroke:#FFFFFF;stroke-width:0.25;stroke-miterlimit:1;}
	.st0{fill:#BB5F30;}
	.st1{fill:#FFFFFF;}
</style>
<linearGradient id="SVGID_1_" gradientUnits="userSpaceOnUse" x1="0" y1="216" x2="0.7071" y2="215.2929">
	<stop  offset="0" style="stop-color:#20AC4B"/>
	<stop  offset="0.9831" style="stop-color:#19361A"/>
</linearGradient>
<g id="Layer_1">
	
		<ellipse transform="matrix(0.7071 -0.7071 0.7071 0.7071 -42.7938 106.1417)" class="st0" cx="106.73" cy="104.73" rx="104.73" ry="104.73"/>
</g>
<g id="Layer_2">
	<g>
		<g>
			<path class="st1" d="M38.67,94.45c1.42-0.85,5.61,1.02,7.35,1.05c3.2,0.07,6.21,0.98,9.4,1.19c2.08,0.13,4.14,0.62,6.22,0.23
				c4.12-0.78,7.13-0.3,11.23,0.17c2.41,0.27,4.82,0.76,7.25,0.84c2,0.06,3.82-0.05,5.89-0.05c6.87,0,13.77-0.39,20.68-0.39
				c13.29,0,26.48,1.09,39.77,1.28c5.19,0.08,10.38-1.38,15.55-1.78c3.01-0.23,6.4-1.56,9.36-1.39c2.51,0.14,4.59-0.87,7.03-0.87
				c1.09,0,1.49-1.39,0.18-1.39c-0.09,0-0.18,0-0.27,0c-1.09,0-1.49,1.39-0.18,1.39c0.09,0,0.18,0,0.27,0
				c1.09,0,1.49-1.39,0.18-1.39c-5.5,0-10.98,1.46-16.39,2.27c-6.61,0.99-13.47,1.79-20.15,1.69c-12.83-0.2-25.57-1.19-38.44-1.19
				c-6.64,0-13.2,0.4-19.82,0.4c-4.89,0-9.41-1.22-14.25-1.75c-2.17-0.24-4.64,0.22-6.79,0.61c-4.28,0.78-9.1-0.2-13.29-1.11
				c-0.9-0.19-3.69-0.14-4.16-0.15c-1.37-0.03-3.25-0.96-4.68-1.31c-1.33-0.32-2.14,0.16-3.21,0.81
				C36.27,94.27,37.89,94.92,38.67,94.45L38.67,94.45z"/>
		</g>
	</g>
	<g>
		<path class="st0" d="M96.73,92.04c0.76,1.19,0.76,2.37,0.76,3.56c0,2.37,1.14,22.24,1.14,24.22c0,3.16,0.74,10.65,1.12,13.81
			c0.76,6.32-0.36,10.57-0.36,17.29c0,4.74-3.8,18.08-3.8,22.43c0,1.58,0,7.61,0,9.19c0,2.37,1.04,4.35,1.42,6.32
			c0,2.37,2.39,7.91,3.53,9.88c1.14,1.98,7.2,2.77,7.2,2.77c1.9,0.79,11.77-1.58,12.14-3.16c0.38-1.98,1.14-3.95,1.52-6.32
			c1.14-3.95,3.51-6.19,3.51-10.53c0-2.77,0-5.87,0-8.63c0-3.16-1.99-7.31-1.99-10.87c0-6.72-0.38-13.83-1.52-20.55
			c0-1.58,0-3.16,0-4.74c0-1.58-0.38-3.16-0.38-4.74c0-3.16,0.38-6.72,0-10.27c-0.38-2.77,0-5.53-0.38-8.3
			c-0.38-2.37-1.14-4.74-1.14-7.11c0-2.37-0.38-4.35-0.38-6.32c-0.38-1.98-0.76-3.95-0.76-5.93c0-1.18,0-2.37,0-3.95
			c0,0.39,0,0.79,0,0.79"/>
		<g>
			<path class="st1" d="M95.77,92.3c1.24,2.75,0.86,6.47,1,9.46c0.22,4.53,0.47,9.06,0.69,13.59c0.46,9.16,2,18.52,1.38,27.65
				c-0.35,5.06-0.43,10.03-1.4,15.01c-0.95,4.91-2.34,9.8-2.79,14.79c-0.79,8.69,0.67,17.68,4.54,25.5
				c2.44,4.92,11.03,3.95,15.3,2.94c1.87-0.44,5.21-1.07,6.28-2.91c1.25-2.14,1.26-5.5,2.06-7.86c1.09-3.21,2.79-5.63,3.03-9.12
				c0.43-6.38-0.78-11.88-1.88-18.07c-0.62-3.47-0.19-7.36-0.38-10.89c-0.23-4.26-1.25-8.55-1.25-12.8c0-6.56,0.06-13.3-0.53-19.84
				c-0.64-7.11-0.7-14.52-2.03-21.56c-0.53-2.79-0.48-5.57-0.48-8.4c0-0.52-1.93-0.18-1.93,0.52c0,0.26,0,0.53,0,0.79
				c0,0.52,1.93,0.18,1.93-0.52c0-0.26,0-0.53,0-0.79c0-0.52-1.93-0.18-1.93,0.52c0,11.79,2.58,23.36,2.83,35.16
				c0.12,5.97-0.44,12.14,0.5,18.06c1.15,7.23,0.35,14.71,1.62,21.86c1.14,6.4,2.56,12.57,1.21,19.14
				c-0.54,2.63-2.26,5.06-3.12,7.61c-1.23,3.64-0.92,6.67-5.16,7.95c-3.87,1.17-7.13,1.15-10.94,0.02
				c-4.08-1.21-6.03-7.64-6.36-11.52c-0.2-2.38-1.42-4.45-1.42-6.92c0-2.07,0-4.14,0-6.21c0-3.92,0.69-7.59,1.49-11.42
				c2-9.54,3.34-19.21,2.83-29c-0.38-7.37-1.21-14.73-1.58-22.12c-0.2-3.9-0.4-7.79-0.6-11.69c-0.15-2.99,0.23-6.71-1.01-9.46
				C97.42,91.16,95.53,91.78,95.77,92.3L95.77,92.3z"/>
		</g>
	</g>
	<g>
		<g>
			<g>
				<path class="st1" d="M53.46,46.97c11.26,8.47,25.55,10.99,38.83,14.43c0.94,0.24,1.33-1.2,0.4-1.45
					c-13.17-3.41-27.28-5.86-38.47-14.28C53.44,45.09,52.69,46.39,53.46,46.97L53.46,46.97z"/>
			</g>
		</g>
		<g>
			<g>
				<path class="st1" d="M62.58,40.6c4.77,3.99,10.5,6.91,16.11,9.55c2.87,1.35,5.55,3.05,8.13,4.88c2.73,1.95,6.13,3.6,8.53,5.95
					c0.69,0.68,1.75-0.38,1.06-1.06c-3.44-3.36-8.53-6.15-12.62-8.71c-6.61-4.13-14.09-6.6-20.14-11.67
					C62.91,38.92,61.84,39.98,62.58,40.6L62.58,40.6z"/>
			</g>
		</g>
		<g>
			<g>
				<path class="st1" d="M73.64,35.35c7.25,8.56,19.06,13.7,23.56,24.5c0.37,0.88,1.82,0.49,1.45-0.4
					c-4.63-11.1-16.48-16.34-23.95-25.16C74.07,33.55,73.01,34.62,73.64,35.35L73.64,35.35z"/>
			</g>
		</g>
		<g>
			<g>
				<path class="st1" d="M87.93,30.1c6.76,7.81,12.24,18.32,12.27,28.71c0,0.97,1.5,0.97,1.5,0c-0.03-10.92-5.62-21.58-12.71-29.77
					C88.36,28.3,87.3,29.37,87.93,30.1L87.93,30.1z"/>
			</g>
		</g>
		<g>
			<g>
				<path class="st1" d="M104.51,28.48c1.06,0.95,2.03,3.89,2.48,5.01c2.02,5.05,1.06,9.51,0.02,14.6
					c-0.34,1.64-2.73,12.76-5.07,12.66c-0.97-0.04-0.96,1.46,0,1.5c0.95,0.04,2.22-0.6,2.5-1.56c1.04-3.51,3.75-7.2,3.96-10.89
					c0.33-5.71,2.23-9.72,0.49-15.39c-0.67-2.2-1.54-5.4-3.31-7C104.85,26.77,103.79,27.83,104.51,28.48L104.51,28.48z"/>
			</g>
		</g>
		<g>
			<g>
				<path class="st1" d="M119.32,29.9c2.03,6.32,0.74,15.22-3.7,20.46c-2.96,3.49-7.74,8.29-11.99,10.07
					c-0.88,0.37-0.49,1.82,0.4,1.45c4.67-1.95,10.85-7.52,13.67-11.67c1.91-2.8,3.2-6.45,3.55-9.82c0.24-2.36,0.73-4.59,0.9-6.95
					c0.08-1.2-1.01-2.81-1.37-3.94C120.47,28.59,119.02,28.98,119.32,29.9L119.32,29.9z"/>
			</g>
		</g>
		<g>
			<g>
				<path class="st1" d="M141.97,49.09c-4.71,7.63-16.29,9.41-24.44,10.31c-3.18,0.35-6.34,0.26-9.52,0.1
					c-1.83-0.09-3.67,0.36-5.49-0.06c-1.16-0.26-2.04-0.7-3.22-0.6c0.22,0.38,0.43,0.75,0.65,1.13c0.03-0.06,0.06-0.11,0.09-0.17
					c0.45-0.85-0.84-1.61-1.29-0.76c-0.03,0.06-0.06,0.11-0.09,0.17c-0.25,0.46,0.05,1.18,0.65,1.13c1.48-0.12,2.68,0.86,4.09,0.81
					c2-0.07,4.12-0.38,6.11,0.01c3.51,0.69,7.98-0.21,11.49-0.68c7.7-1.04,17.9-3.53,22.28-10.64
					C143.78,49.03,142.48,48.27,141.97,49.09L141.97,49.09z"/>
			</g>
		</g>
		<g>
			<g>
				<path class="st1" d="M49.83,54.17c6.86,2.83,14.11,7.02,21.54,7.99c4.3,0.56,8.6,0.82,12.93,1.03c3.91,0.2,7.75-0.82,11.66-0.66
					c0.98,0.04,0.95-1.41,0-1.5c-0.3-0.03-0.6-0.06-0.9-0.08c-0.96-0.09-0.95,1.41,0,1.5c0.3,0.03,0.6,0.06,0.9,0.08
					c0-0.5,0-1,0-1.5c-3.49-0.14-6.92,0.53-10.4,0.7c-4.1,0.2-8.47-0.4-12.55-0.86c-7.94-0.89-15.49-5.14-22.78-8.15
					C49.33,52.35,48.94,53.8,49.83,54.17L49.83,54.17z"/>
			</g>
		</g>
		<g>
			<g>
				<path class="st1" d="M51.56,60.02c14.11,4.12,27.37,6.29,41.9,3.16c0.95-0.2,0.54-1.65-0.4-1.45
					c-14.25,3.07-27.29,0.86-41.1-3.16C51.03,58.3,50.64,59.75,51.56,60.02L51.56,60.02z"/>
			</g>
		</g>
		<g>
			<g>
				<path class="st1" d="M52.31,65.82c8.65,1.99,15.97,3.75,24.88,2.49c3.93-0.56,7.83-1.68,11.59-2.9
					c4.47-1.45,7.91-4.02,12.95-3.19c0.95,0.16,1.35-1.29,0.4-1.45c-7.02-1.16-13.92,3.48-20.66,5.14
					c-4.16,1.02-8.49,1.57-12.78,1.58c-5.37,0.01-10.8-1.93-15.99-3.12C51.77,64.16,51.37,65.6,52.31,65.82L52.31,65.82z"/>
			</g>
		</g>
		<g>
			<g>
				<path class="st1" d="M67.86,74.88c10.84,0.54,24.11-4.69,29.74-14.32c0.49-0.84-0.81-1.59-1.29-0.76
					c-5.28,9.03-18.28,14.08-28.45,13.58C66.89,73.34,66.9,74.84,67.86,74.88L67.86,74.88z"/>
			</g>
		</g>
		<g>
			<g>
				<path class="st1" d="M76.18,79.56c9.81,0.01,18.6-6.79,19.62-16.78c0.1-0.96-1.4-0.95-1.5,0c-0.93,9.14-9.24,15.28-18.12,15.28
					C75.22,78.06,75.22,79.56,76.18,79.56L76.18,79.56z"/>
			</g>
		</g>
		<g>
			<g>
				<path class="st1" d="M99.91,60.73c5.27,1.15,10.2,0.8,15.5,1.75c5.32,0.95,10.7,2.15,15.74,4.14c0.9,0.35,1.29-1.1,0.4-1.45
					c-5.05-1.99-10.42-3.12-15.74-4.14c-5.21-0.99-10.35-0.62-15.5-1.75C99.37,59.08,98.97,60.52,99.91,60.73L99.91,60.73z"/>
			</g>
		</g>
		<g>
			<g>
				<path class="st1" d="M99.1,58.88c-2.09,0.65-4.03,1.87-4.87,3.95c-0.53,1.32,0.27,2.8,0.97,3.84c2.62,3.93,0.68,8.55-2.7,11.31
					c-0.75,0.61,0.32,1.67,1.06,1.06c2.89-2.36,5.13-6.32,4.28-10.18c-0.49-2.23-3.2-4.7-1.48-6.72c0.75-0.88,2.06-1.47,3.14-1.81
					C100.42,60.03,100.03,58.58,99.1,58.88L99.1,58.88z"/>
			</g>
		</g>
		<g>
			<g>
				<path class="st1" d="M96.95,58.91c7.7,0.66,14.76,5.17,18.67,11.85c0.49,0.83,1.79,0.08,1.29-0.76
					c-4.21-7.17-11.72-11.89-19.97-12.59C95.99,57.33,96,58.83,96.95,58.91L96.95,58.91z"/>
			</g>
		</g>
		<g>
			<g>
				<path class="st1" d="M94.86,59.51c9.25,0.8,18.42,3.09,25.18,9.95c0.68,0.69,1.74-0.37,1.06-1.06
					c-7.06-7.16-16.57-9.55-26.24-10.39C93.9,57.93,93.91,59.43,94.86,59.51L94.86,59.51z"/>
			</g>
		</g>
		<g>
			<g>
				<path class="st1" d="M86.73,79.09c7-2.49,11.37-8.85,6.26-15.65c-0.57-0.76-1.88-0.02-1.29,0.76c1.78,2.37,2.81,5.22,1.51,7.95
					c-1.38,2.91-3.9,4.44-6.87,5.5C85.43,77.96,85.82,79.41,86.73,79.09L86.73,79.09z"/>
			</g>
		</g>
		<g>
			<g>
				<path class="st1" d="M140.27,42.45c-0.96,10.97-18.23,15.62-27.33,15.8c-3.16,0.06-6.32,0.12-9.48,0.27
					c-1.64,0.08-3.69,0.71-5.31,0.39c-0.94-0.19-1.35,1.26-0.4,1.45c2.32,0.46,5.17-0.32,7.52-0.41c3.36-0.13,6.75-0.05,10.11-0.26
					c9.37-0.59,25.43-6.22,26.4-17.23C141.86,41.49,140.35,41.49,140.27,42.45L140.27,42.45z"/>
			</g>
		</g>
		<g>
			<g>
				<path class="st1" d="M80.08,32.53c7.73,7.46,15.75,16.06,19.03,26.43c0.29,0.92,1.74,0.53,1.45-0.4
					c-3.38-10.71-11.43-19.39-19.42-27.09C80.44,30.79,79.38,31.85,80.08,32.53L80.08,32.53z"/>
			</g>
		</g>
		<g>
			<g>
				<path class="st1" d="M96.08,28.96c5.2,3.45,6.83,11.57,6.81,17.17c0,1.61,0.2,13.77-2.04,13.83c-0.97,0.03-0.97,1.53,0,1.5
					c0.91-0.02,2.01-0.71,2.26-1.64c0.85-3.1,2.07-7.81,1.54-10.93c-0.83-4.83,0.15-9.06-2.25-13.55c-1.35-2.53-3.1-6.05-5.56-7.68
					C96.02,27.12,95.27,28.42,96.08,28.96L96.08,28.96z"/>
			</g>
		</g>
		<g>
			<g>
				<path class="st1" d="M114.02,28.93c1.85,11.64-0.68,27.13-13.11,32.15c-0.89,0.36-0.5,1.81,0.4,1.45
					c13.3-5.37,16.15-21.44,14.16-34C115.31,27.58,113.87,27.99,114.02,28.93L114.02,28.93z"/>
			</g>
		</g>
		<g>
			<g>
				<path class="st1" d="M133.12,37.65c4.42,11.38-10.23,17.6-18.65,19.3c-2.62,0.53-5.08,1.13-7.73,1.47
					c-1.24,0.16-2.82,0.18-3.83,1.01c-0.5,0.4-0.1,1.34,0.53,1.28c1.23-0.11,2.7-0.07,3.84-0.59c0.88-0.4,0.12-1.69-0.76-1.29
					c-0.81,0.37-2.17,0.31-3.08,0.39c0.18,0.43,0.35,0.85,0.53,1.28c1.5-1.22,5.13-0.83,7.07-1.1c4.27-0.6,8.62-1.77,12.53-3.62
					c7.04-3.34,14.24-10.15,11-18.51C134.22,36.36,132.77,36.75,133.12,37.65L133.12,37.65z"/>
			</g>
		</g>
		<g>
			<g>
				<path class="st1" d="M124.94,32.26c1.32,3.84,1.67,10.91-1.16,14.23c-3.91,4.59-7.89,8.73-13.33,11.52
					c-0.86,0.44-0.1,1.74,0.76,1.29c10.24-5.26,19.37-15.22,15.18-27.44C126.08,30.95,124.63,31.34,124.94,32.26L124.94,32.26z"/>
			</g>
		</g>
		<g>
			<g>
				<path class="st1" d="M68.17,36.4c1.78,2.76,4.39,4.58,7.09,6.38c3.18,2.13,5.87,4.57,8.71,7.08c3.88,3.43,7.89,6.76,11.96,9.96
					c0.75,0.59,1.82-0.46,1.06-1.06c-3.83-3.01-7.56-6.17-11.25-9.35c-1.91-1.65-3.65-3.48-5.58-5.1
					c-3.56-2.97-8.08-4.64-10.69-8.68C68.94,34.83,67.64,35.58,68.17,36.4L68.17,36.4z"/>
			</g>
		</g>
		<g>
			<g>
				<path class="st1" d="M57.73,43.22c3.6,3.62,7,6.57,11.82,8.59c8.06,3.38,16.6,5.63,24.54,9.31c0.87,0.4,1.63-0.89,0.76-1.29
					c-5.98-2.78-12.35-4.79-18.52-7.11c-7.09-2.66-12.2-5.21-17.53-10.56C58.1,41.48,57.04,42.54,57.73,43.22L57.73,43.22z"/>
			</g>
		</g>
		<g>
			<g>
				<path class="st1" d="M50.81,49.83c5.97,3.58,11.59,7.29,18.4,9.14c5.14,1.39,10.41,2.4,15.67,3.26
					c1.69,0.27,3.81,0.67,5.52,0.42c3-0.44,7.59-3.5,10.25-0.39c0.24-0.42,0.49-0.84,0.73-1.25c-0.2-0.05-0.39-0.1-0.59-0.14
					c-0.94-0.23-1.34,1.22-0.4,1.45c0.2,0.05,0.39,0.1,0.59,0.14c0.76,0.19,1.21-0.69,0.73-1.25c-2.04-2.38-5.6-1.83-8.23-0.92
					c-6.07,2.1-13.4-0.31-19.53-1.63c-8.41-1.81-15.15-5.76-22.39-10.1C50.73,48.04,49.98,49.34,50.81,49.83L50.81,49.83z"/>
			</g>
		</g>
		<g>
			<g>
				<path class="st1" d="M57.25,69.72c6.15,2.02,12.78,2.47,19.23,1.73c6.59-0.76,12.14-4.86,18.19-7.19
					c0.89-0.34,0.51-1.79-0.4-1.45c-5.63,2.16-10.71,5.56-16.63,6.93c-6.27,1.45-14,0.5-20-1.47
					C56.73,67.98,56.33,69.42,57.25,69.72L57.25,69.72z"/>
			</g>
		</g>
		<g>
			<g>
				<path class="st1" d="M73.87,77.98c8.34-1.09,19.79-6.95,22.21-15.64c0.26-0.93-1.19-1.33-1.45-0.4
					c-2.17,7.8-13.2,13.56-20.76,14.54C72.92,76.61,72.91,78.11,73.87,77.98L73.87,77.98z"/>
			</g>
		</g>
		<g>
			<g>
				<path class="st1" d="M99.09,58.82c6.15,0.85,12.22,2.49,18.45,3.21c7.51,0.87,15.54-0.09,22.86-1.85
					c0.94-0.23,0.54-1.67-0.4-1.45c-6.62,1.6-14.01,2.52-20.85,1.99c-6.68-0.52-13.11-2.44-19.67-3.34
					C98.55,57.24,98.14,58.69,99.09,58.82L99.09,58.82z"/>
			</g>
		</g>
		<g>
			<g>
				<path class="st1" d="M100.3,60.59c8.87,0.06,17.81,3.5,25.31,7.98c0.83,0.5,1.59-0.8,0.76-1.3c-7.76-4.63-16.9-8.13-26.06-8.18
					C99.33,59.08,99.33,60.58,100.3,60.59L100.3,60.59z"/>
			</g>
		</g>
	</g>
	<g>
		<g>
			<path class="st1" d="M100.18,62.11c3.76,1.76-0.91,7.36-0.72,13.96c0.05,1.61,4.15,65.71,4.12,70.55
				c-0.03,4.4-4.01,22.34-4.04,26.31c-0.03,4.84-0.06,9.25,1.67,13.66c1.29,4.41,4.58,11.52,9.79,10.69
				c5.34-0.86,5.16-19.23,5.17-21.43c0.01-1.76-1.27-17.92-1.69-20.57c-0.4-5.73-1.38-42.82-2.22-48.54
				c-0.42-3.97-2.51-19.12-2.5-21.32c-0.42-2.2-3.46-13.29-3.43-17.7c0.01-2.2,2.36-11.38,2.36-12.26l-4.91-0.08
				c-1.31-0.01-2.8,1.16-4.05,1.56c-3.6,1.14-3.09-0.03-4.42,1.72"/>
		</g>
		<g>
			<path class="st1" d="M116.17,88.86c0,2.6,1.82,14.21,1.82,16.81c0,3.25,0.36,8.78,0.36,11.38c0,1.3,0.3,5.05,0.3,7
				c-0.73,2.6,0.25,4.54,0.25,7.15c0,3.25,0,5.69,0,8.29c0,1.3,1.28,15.12,0.55,17.07c0,3.9,1.64,7.07,1.64,10.97
				c0,6.1,0,7.89,0,12.44c0,1.95-5.69,15.73-8.65,16.51c-11.16,2.97-5.38-19.28-5.38-21.23c0-7.8,2.91-14.96,3.64-23.41
				c0.73-5.85,0.73-12.36,0.73-18.86c0-1.95,0-3.9,0-5.2c0-1.95,1.69,5.82,2.27,4.63c1.55-3.17,1.92-19.25,1.74-24.14
				c-0.19-5.36-2.29-12.52-1.56-17.07c0-1.95-2.31-3.66,1.74-3.66"/>
		</g>
	</g>
</g>
</svg>
