<svg xmlns="http://www.w3.org/2000/svg" viewBox="0 0 209.46 209.46"><defs><style>.cls-1{fill:#009fd3;}.cls-2{fill:#fff;}</style></defs><title>Chromista</title><g id="Layer_1" data-name="Layer 1"><circle class="cls-1" cx="108" cy="107.73" r="104.73" transform="translate(-47.81 104.92) rotate(-45)"/></g><g id="diatom"><g id="Layer_4" data-name="Layer 4"><path class="cls-2" d="M41.36,52.75C37.57,51,32.61,52,30.73,56,26.91,64,42,71,46.7,74.18c18.79,12.48,39.68,27.64,47,50,6.59,20.22.33,42.1,4,62.77.94,5.37,6,9.18,10.94,5.45,5.17-3.88,5.3-15.91,6.4-21.57,2.51-12.87,5-25.79,9-38.29S134.42,109,142.41,98.64a194.84,194.84,0,0,1,23.87-26.33c5.9-5.29,13-10.85,17-17.84,2.55-4.51,1-9.3-4.81-8.73-7.85.77-15.56,9.3-21.24,13.93-12.2,10-25.52,17.86-41.44,19.81-13.71,1.68-26.08-4-38.17-9.66S53.66,58,41.36,52.75c-.51-.22-2.28.55-1.56.86,11.36,4.8,22.32,10.49,33.46,15.78,10.17,4.83,20.66,10,32,11.18,11.87,1.17,23.79-2.46,34.32-7.64,10.76-5.3,19.43-13.65,28.87-20.86C172,49.4,179,43.56,182.43,49c1.83,2.89-2.08,7.31-3.71,9.34-5.55,6.91-12.71,12.35-19.09,18.45-17.82,17.06-32.35,37.8-39.27,61.55-3.29,11.3-5.39,22.93-7.64,34.47-.85,4.36-2.77,25.85-11.4,18.37-2.6-2.25-2.38-9-2.61-12-.35-4.79-.34-9.61-.33-14.41,0-11,1.11-22.43-.91-33.34C94,112.88,82.19,99.32,67.89,87.77A231.54,231.54,0,0,0,43.67,70.36c-4.34-2.67-9.05-5.6-11-10.56-1.87-4.75,2.8-8.2,7.14-6.19.51.23,2.29-.52,1.56-.86Z" transform="translate(-3.27 -3)"/><path class="cls-2" d="M70.35,72c-10.85-4-18-9.71-28.7-12.61C35.77,62.79,59.3,75.67,66,80.86c12.58,9.8,19.88,14.51,27.41,26.93s9.16,26.52,9.63,40.84c.05,3.84-.54,29.22,1.87,31.26,4.43,3.76,7.45-23.63,8.42-28.28,2.5-12.15,6.6-27.16,11.4-36.6,10.56-20.78,28.22-35.6,43-51.95,1.27-1.4,8.72-7.31,4.6-8.21-2.63-.57-12.12,7.8-14.34,9.93-10.52,8.6-20.08,14.41-32.44,19C104.9,91.46,88.68,80.86,70.35,72" transform="translate(-3.27 -3)"/><path class="cls-2" d="M71.12,71.59c-6.22-2.37-12-5.57-18-8.49-2.13-1-9.69-5.6-12.09-3.94-4.48,3.11,4.62,8.83,6.71,10.36,17.4,12.76,37,23,47.09,43.07,9.61,19.14,6,40.78,7.63,61.27.15,1.89.81,9.59,4.66,6.29,4.3-3.69,4.62-13.31,5.47-18.43,3.19-19.32,7.36-38.72,18-55.47,6.77-10.65,15.6-19.87,24.35-28.89,3.83-4,7.68-7.88,11.43-11.9,2.4-2.57,5.21-4.9,7.31-7.73,3.22-4.33-3.33-3.08-5.26-2-7.93,4.38-14.36,11.74-21.88,16.82-11.75,7.94-25.93,14.7-40.39,13-12.51-1.47-24-8.55-35.08-13.94-.54-.27-2.32.53-1.54.91,11.91,5.77,23.64,12.66,37,14.24,11.7,1.38,22.86-3.38,33-8.73,9.93-5.25,17.85-12.67,26.66-19.42a38.38,38.38,0,0,1,3.43-2.34c1.49-.92,3.5-.58,2.28,1.46a22.31,22.31,0,0,1-4.2,4.43c-4.62,4.3-8.74,9.23-13.14,13.75-9.28,9.54-18.42,19.2-25.76,30.35-7.21,11-11.17,23.35-14.36,36-2.08,8.21-3.13,16.49-4.68,24.8a58.38,58.38,0,0,1-2.72,10.51c-1.8,4.6-2.38-1.46-2.58-3.31-1.23-11.41-.16-23-1-34.4-1.31-17.8-7.46-34-20.57-46.41-9.87-9.32-21.46-16.25-32.49-24a60.23,60.23,0,0,1-6.09-4.82,16.7,16.7,0,0,1-1.91-2.12,3.8,3.8,0,0,1-.66-1.26c-.8-2.1,1.55-.57,2.36-.31C53,63.79,60.87,69.18,69.58,72.5c.56.21,2.32-.62,1.54-.91Z" transform="translate(-3.27 -3)"/></g><g id="Layer_5" data-name="Layer 5"><path class="cls-1" d="M105.32,165.45a2,2,0,1,1-2.08,1.75A1.93,1.93,0,0,1,105.32,165.45Z" transform="translate(-3.27 -3)"/><path class="cls-1" d="M105.43,159.39a2,2,0,1,1-2.08,1.75A1.93,1.93,0,0,1,105.43,159.39Z" transform="translate(-3.27 -3)"/><path class="cls-1" d="M105.84,175.45a2,2,0,1,1-2.08,1.74A1.92,1.92,0,0,1,105.84,175.45Z" transform="translate(-3.27 -3)"/><path class="cls-1" d="M107.63,169.7a2,2,0,1,1-2.07,1.75A1.93,1.93,0,0,1,107.63,169.7Z" transform="translate(-3.27 -3)"/><path class="cls-1" d="M165.25,59.14a2,2,0,1,1-2.69.33A1.92,1.92,0,0,1,165.25,59.14Z" transform="translate(-3.27 -3)"/><path class="cls-1" d="M172.8,54.36a2,2,0,1,1-2.69.33A1.92,1.92,0,0,1,172.8,54.36Z" transform="translate(-3.27 -3)"/><path class="cls-1" d="M163.92,64a2,2,0,1,1-2.68.33A1.91,1.91,0,0,1,163.92,64Z" transform="translate(-3.27 -3)"/><path class="cls-1" d="M170.37,58.48a2,2,0,1,1-2.69.34A1.91,1.91,0,0,1,170.37,58.48Z" transform="translate(-3.27 -3)"/><path class="cls-1" d="M44.92,65.19a2,2,0,1,1,.81,2.59A1.92,1.92,0,0,1,44.92,65.19Z" transform="translate(-3.27 -3)"/><path class="cls-1" d="M42.71,61.23a2,2,0,1,1,.81,2.59A1.91,1.91,0,0,1,42.71,61.23Z" transform="translate(-3.27 -3)"/><path class="cls-1" d="M51.48,68.88a2,2,0,1,1,.81,2.59A1.93,1.93,0,0,1,51.48,68.88Z" transform="translate(-3.27 -3)"/><path class="cls-1" d="M49.82,64.27a2,2,0,1,1,.82,2.59A1.93,1.93,0,0,1,49.82,64.27Z" transform="translate(-3.27 -3)"/><path class="cls-1" d="M57.56,65.16a2,2,0,1,1-2.08,1.75A1.93,1.93,0,0,1,57.56,65.16Z" transform="translate(-3.27 -3)"/><path class="cls-1" d="M58.31,71.84a2,2,0,1,1-2.08,1.74A1.93,1.93,0,0,1,58.31,71.84Z" transform="translate(-3.27 -3)"/><path class="cls-1" d="M61.32,67.73a2,2,0,1,1-2.07,1.74A1.93,1.93,0,0,1,61.32,67.73Z" transform="translate(-3.27 -3)"/><path class="cls-1" d="M63.47,73.78a2,2,0,1,1-2.08,1.74A1.91,1.91,0,0,1,63.47,73.78Z" transform="translate(-3.27 -3)"/><path class="cls-1" d="M67,70.59A2,2,0,1,1,65,72.34,1.93,1.93,0,0,1,67,70.59Z" transform="translate(-3.27 -3)"/><path class="cls-1" d="M67.23,76.35a2,2,0,1,1-2.08,1.74A1.91,1.91,0,0,1,67.23,76.35Z" transform="translate(-3.27 -3)"/><path class="cls-1" d="M72.9,74a2,2,0,0,1-.54,4,1.94,1.94,0,0,1-1.54-2.24A1.92,1.92,0,0,1,72.9,74Z" transform="translate(-3.27 -3)"/><path class="cls-1" d="M75.18,83.49a2,2,0,1,1-2.07,1.75A1.93,1.93,0,0,1,75.18,83.49Z" transform="translate(-3.27 -3)"/><path class="cls-1" d="M71.45,79.31a2,2,0,1,1-2.08,1.74A1.91,1.91,0,0,1,71.45,79.31Z" transform="translate(-3.27 -3)"/><path class="cls-1" d="M78,75.78a2,2,0,1,1-2.08,1.74A1.92,1.92,0,0,1,78,75.78Z" transform="translate(-3.27 -3)"/><path class="cls-1" d="M105.71,158a2,2,0,1,0-1.51-2.25A1.92,1.92,0,0,0,105.71,158Z" transform="translate(-3.27 -3)"/><path class="cls-1" d="M108.79,166.5a2,2,0,1,0-1.51-2.26A1.92,1.92,0,0,0,108.79,166.5Z" transform="translate(-3.27 -3)"/><path class="cls-1" d="M111.83,160.27a2,2,0,1,0-2.66.52A1.92,1.92,0,0,0,111.83,160.27Z" transform="translate(-3.27 -3)"/><path class="cls-1" d="M107.54,149.89a2,2,0,1,0-2.66.53A1.92,1.92,0,0,0,107.54,149.89Z" transform="translate(-3.27 -3)"/><path class="cls-1" d="M111.54,154.62a2,2,0,1,0-2.66.53A1.93,1.93,0,0,0,111.54,154.62Z" transform="translate(-3.27 -3)"/><path class="cls-1" d="M107.55,144.06a2,2,0,1,0-2.66.53A1.92,1.92,0,0,0,107.55,144.06Z" transform="translate(-3.27 -3)"/><path class="cls-1" d="M113.59,148.54a2,2,0,1,0-2.66.53A1.93,1.93,0,0,0,113.59,148.54Z" transform="translate(-3.27 -3)"/><path class="cls-1" d="M106.7,135.91a2,2,0,1,0-2.66.53A1.92,1.92,0,0,0,106.7,135.91Z" transform="translate(-3.27 -3)"/><path class="cls-1" d="M113.14,143a2,2,0,1,0-2.66.53A1.91,1.91,0,0,0,113.14,143Z" transform="translate(-3.27 -3)"/><path class="cls-1" d="M111.38,138.34a2,2,0,1,0-2.66.53A1.92,1.92,0,0,0,111.38,138.34Z" transform="translate(-3.27 -3)"/><path class="cls-1" d="M116.05,138.36a2,2,0,0,0-3.44-2.07,2,2,0,0,0,3.44,2.07Z" transform="translate(-3.27 -3)"/><path class="cls-1" d="M156.16,72.22a2,2,0,1,1,2.71.1A1.92,1.92,0,0,1,156.16,72.22Z" transform="translate(-3.27 -3)"/><path class="cls-1" d="M156.05,73.32a2,2,0,1,0-.39,2.68A1.93,1.93,0,0,0,156.05,73.32Z" transform="translate(-3.27 -3)"/><path class="cls-1" d="M159.44,65a2,2,0,1,0-.39,2.69A1.92,1.92,0,0,0,159.44,65Z" transform="translate(-3.27 -3)"/><path class="cls-1" d="M153,67.55a2,2,0,1,0,2.33,1.4A1.93,1.93,0,0,0,153,67.55Z" transform="translate(-3.27 -3)"/><path class="cls-1" d="M149.11,77.28a2,2,0,1,0,2.33,1.4A1.94,1.94,0,0,0,149.11,77.28Z" transform="translate(-3.27 -3)"/><path class="cls-1" d="M149.45,71.94a2,2,0,1,0,2.32,1.39A1.92,1.92,0,0,0,149.45,71.94Z" transform="translate(-3.27 -3)"/><path class="cls-1" d="M145.31,79.53a2,2,0,1,0,2.33,1.39A1.92,1.92,0,0,0,145.31,79.53Z" transform="translate(-3.27 -3)"/><path class="cls-1" d="M145.62,73.93A2,2,0,1,0,148,75.32,1.92,1.92,0,0,0,145.62,73.93Z" transform="translate(-3.27 -3)"/><path class="cls-1" d="M142.23,83.83a2,2,0,1,0,2.33,1.39A1.92,1.92,0,0,0,142.23,83.83Z" transform="translate(-3.27 -3)"/><path class="cls-1" d="M140.76,78.05a2,2,0,1,0,2.33,1.4A1.93,1.93,0,0,0,140.76,78.05Z" transform="translate(-3.27 -3)"/><path class="cls-1" d="M137,83.83a2,2,0,1,0,2.33,1.39A1.92,1.92,0,0,0,137,83.83Z" transform="translate(-3.27 -3)"/><path class="cls-1" d="M134.9,79.72a2,2,0,1,0,2.33,1.4A1.93,1.93,0,0,0,134.9,79.72Z" transform="translate(-3.27 -3)"/></g><path class="cls-1" d="M78.13,82.08c-1.26,4.74,3.7,9.56,6.36,12.85,7.37,9.13,13.89,18.5,18.49,29.38,1.79,4.22,5.21,10.88,10.48,6.9,3.32-2.5,4.74-7.61,6.15-11.29A92.16,92.16,0,0,1,129,102.54c2.2-3.32,9.74-10.29,6.85-14.5-2.58-3.76-5.87-2.26-9.86-1.44-7.09,1.47-13.81,2.4-21,1-5.22-1-10.15-3.22-15-5.28-3.27-1.37-9.23-4.41-11.82-.35-.51.8,1.45.65,1.81.08,2.08-3.26,15.8,4.26,18.68,5.23,7.92,2.68,15.43,2.61,23.58,1.18,4-.7,9.14-3.5,11.83.39,2.45,3.55-5.68,11.86-7.61,14.79a105.59,105.59,0,0,0-6.76,11.83c-2.11,4.33-3.4,9-5.9,13.15-3.46,5.75-6.83-.23-8.42-3.63-1.86-4-3.51-8-5.71-11.86A145.68,145.68,0,0,0,86.27,94.16c-2.54-3.14-7.39-7.81-6.2-12.3.2-.75-1.75-.47-1.94.22Z" transform="translate(-3.27 -3)"/></g></svg>