<svg width="41" height="42" viewBox="0 0 41 42" fill="none" xmlns="http://www.w3.org/2000/svg">
<rect x="0.5" y="0.698242" width="40" height="40" rx="3.5" fill="#FFFEFE" stroke="black"/>
<path d="M18.8819 8.11612C18.3938 7.62796 17.6023 7.62796 17.1142 8.11612L9.15921 16.0711C8.67106 16.5592 8.67106 17.3507 9.15921 17.8388C9.64737 18.327 10.4388 18.327 10.927 17.8388L17.998 10.7678L25.0691 17.8388C25.5573 18.327 26.3487 18.327 26.8369 17.8388C27.325 17.3507 27.325 16.5592 26.8369 16.0711L18.8819 8.11612ZM25.998 34.25C26.6884 34.25 27.248 33.6904 27.248 33C27.248 32.3096 26.6884 31.75 25.998 31.75V34.25ZM19.248 29V9H16.748V29H19.248ZM21.998 34.25H25.998V31.75H21.998V34.25ZM16.748 29C16.748 31.8995 19.0986 34.25 21.998 34.25V31.75C20.4793 31.75 19.248 30.5188 19.248 29H16.748Z" fill="black"/>
</svg>
